G04*
G04 #@! TF.GenerationSoftware,Altium Limited,Altium Designer,20.2.5 (213)*
G04*
G04 Layer_Color=32768*
%FSLAX25Y25*%
%MOIN*%
G70*
G04*
G04 #@! TF.SameCoordinates,0EDA941F-9717-4D80-9818-445CF3A130AC*
G04*
G04*
G04 #@! TF.FilePolarity,Positive*
G04*
G01*
G75*
%ADD11C,0.00787*%
%ADD12C,0.01968*%
%ADD14C,0.00394*%
%ADD172C,0.00197*%
%ADD173C,0.00300*%
%ADD174C,0.00200*%
%ADD175C,0.01181*%
D11*
X960961Y752724D02*
Y776346D01*
X1063323D01*
Y752724D02*
Y776346D01*
X960961Y752724D02*
X1063323D01*
X1010173Y753709D02*
X1014110D01*
X988500Y818500D02*
X1037500D01*
Y790500D02*
Y818500D01*
X988500Y790500D02*
X1037500D01*
X988500D02*
Y818500D01*
X1010500Y804500D02*
X1015500D01*
X1013000Y802000D02*
Y807000D01*
X1048405Y539620D02*
X1097406D01*
X1048405D02*
Y567621D01*
X1097406D01*
Y539620D02*
Y567621D01*
X1070405Y553620D02*
X1075406D01*
X1072906Y551121D02*
Y556120D01*
X850500Y674000D02*
X882500D01*
X850500D02*
Y703500D01*
X882500D01*
Y674000D02*
Y703500D01*
X866500Y675079D02*
Y684921D01*
X861579Y680000D02*
X871421D01*
X1078500Y790000D02*
Y795000D01*
X1076000Y792500D02*
X1081000D01*
X1054000Y778500D02*
Y806500D01*
Y778500D02*
X1103000D01*
Y806500D01*
X1054000D02*
X1103000D01*
X774000Y713000D02*
Y718000D01*
X771500Y715500D02*
X776500D01*
X749500Y701500D02*
Y729500D01*
Y701500D02*
X798500D01*
Y729500D01*
X749500D02*
X798500D01*
D12*
X796500Y628563D02*
Y636437D01*
X792563Y632500D02*
X800437D01*
D14*
X909232Y638937D02*
X911279D01*
X910256Y637913D02*
Y639961D01*
X909232Y629095D02*
X911279D01*
X910256Y628071D02*
Y630118D01*
X886000Y806630D02*
Y810370D01*
X884130Y808500D02*
X887870D01*
X876000Y806630D02*
Y810370D01*
X874130Y808500D02*
X877870D01*
X873500Y886032D02*
Y889968D01*
X871531Y888000D02*
X875469D01*
X864500Y885130D02*
Y888870D01*
X862630Y887000D02*
X866370D01*
X963551Y717743D02*
Y721483D01*
X961681Y719613D02*
X965421D01*
X946000Y798130D02*
Y801870D01*
X944130Y800000D02*
X947870D01*
X1059500Y739130D02*
Y742870D01*
X1057630Y741000D02*
X1061370D01*
X824630Y545633D02*
X828370D01*
X826500Y543763D02*
Y547503D01*
X806130Y554740D02*
X809870D01*
X808000Y552870D02*
Y556610D01*
X802631Y552870D02*
Y556610D01*
X800760Y554740D02*
X804501D01*
X798595Y562577D02*
X802335D01*
X800465Y560707D02*
Y564447D01*
X808630Y562577D02*
X812370D01*
X810500Y560707D02*
Y564447D01*
X1061630Y733000D02*
X1065370D01*
X1063500Y731130D02*
Y734870D01*
X1062130Y738500D02*
X1065870D01*
X1064000Y736630D02*
Y740370D01*
X1099961Y745630D02*
Y749370D01*
X1098091Y747500D02*
X1101831D01*
X1071500Y736630D02*
Y740370D01*
X1069630Y738500D02*
X1073370D01*
X1071500Y721130D02*
Y724870D01*
X1069630Y723000D02*
X1073370D01*
X1078500Y712153D02*
Y715894D01*
X1076630Y714024D02*
X1080370D01*
X1089032Y714000D02*
X1092968D01*
X1091000Y712032D02*
Y715969D01*
X1099803Y722547D02*
X1103543D01*
X1101673Y720677D02*
Y724417D01*
X1064032Y714024D02*
X1067968D01*
X1066000Y712055D02*
Y715992D01*
X1021014Y732469D02*
Y736209D01*
X1019144Y734339D02*
X1022884D01*
X1021014Y738425D02*
Y742165D01*
X1019144Y740295D02*
X1022884D01*
X1008000Y732469D02*
Y736209D01*
X1006130Y734339D02*
X1009870D01*
X1008000Y738583D02*
Y742323D01*
X1006130Y740453D02*
X1009870D01*
X943000Y752531D02*
Y756468D01*
X941031Y754500D02*
X944969D01*
X899976Y579555D02*
X922024D01*
X899976Y562232D02*
X922024D01*
Y579555D01*
X899976Y562232D02*
Y579555D01*
X896522Y568617D02*
Y572357D01*
X894652Y570487D02*
X898392D01*
X899976Y557888D02*
X922024D01*
X899976Y540565D02*
X922024D01*
Y557888D01*
X899976Y540565D02*
Y557888D01*
X896522Y546985D02*
Y550725D01*
X894652Y548855D02*
X898392D01*
X933260Y800500D02*
X937000D01*
X935130Y798630D02*
Y802370D01*
X926988Y800500D02*
X930728D01*
X928858Y798630D02*
Y802370D01*
X895531Y791854D02*
X944468D01*
X895531Y763311D02*
Y791854D01*
Y763311D02*
X944468D01*
Y791854D01*
X811000Y707630D02*
Y711370D01*
X809130Y709500D02*
X812870D01*
X852500Y620031D02*
Y623969D01*
X850531Y622000D02*
X854469D01*
X985750Y855085D02*
Y858825D01*
X983880Y856955D02*
X987620D01*
X956130Y745500D02*
X959870D01*
X958000Y743630D02*
Y747370D01*
X967000Y743630D02*
Y747370D01*
X965130Y745500D02*
X968870D01*
X762630Y743902D02*
X766370D01*
X764500Y742031D02*
Y745772D01*
X1113500Y678031D02*
Y681968D01*
X1111532Y680000D02*
X1115469D01*
X909278Y893630D02*
Y897370D01*
X907408Y895500D02*
X911148D01*
X912130D02*
X915870D01*
X914000Y893630D02*
Y897370D01*
X763500Y837524D02*
Y841461D01*
X761531Y839492D02*
X765469D01*
X770500Y837622D02*
Y841362D01*
X768630Y839492D02*
X772370D01*
X776130Y840197D02*
X779870D01*
X778000Y838327D02*
Y842067D01*
X784500Y838130D02*
Y841870D01*
X782630Y840000D02*
X786370D01*
X891500Y574630D02*
Y578370D01*
X889630Y576500D02*
X893370D01*
X891500Y560630D02*
Y564370D01*
X889630Y562500D02*
X893370D01*
X1045658Y780333D02*
X1049398D01*
X1047528Y778463D02*
Y782203D01*
X1046130Y786500D02*
X1049870D01*
X1048000Y784630D02*
Y788370D01*
X860492Y834130D02*
Y837870D01*
X858622Y836000D02*
X862362D01*
X1130812Y854130D02*
Y857870D01*
X1128942Y856000D02*
X1132683D01*
X1124750Y854130D02*
Y857870D01*
X1122880Y856000D02*
X1126620D01*
X1118688Y854130D02*
Y857870D01*
X1116817Y856000D02*
X1120558D01*
X1124938Y826630D02*
Y830370D01*
X1123067Y828500D02*
X1126808D01*
X1118875Y826630D02*
Y830370D01*
X1117005Y828500D02*
X1120745D01*
X892130Y879500D02*
X895870D01*
X894000Y877630D02*
Y881370D01*
Y887031D02*
Y890969D01*
X892031Y889000D02*
X895969D01*
X898500Y899130D02*
Y902870D01*
X896630Y901000D02*
X900370D01*
X904500Y893630D02*
Y897370D01*
X902630Y895500D02*
X906370D01*
X1131500Y695004D02*
Y698744D01*
X1129630Y696874D02*
X1133370D01*
X762953Y797630D02*
Y801370D01*
X761083Y799500D02*
X764823D01*
X856445Y754000D02*
X860382D01*
X858413Y752032D02*
Y755969D01*
X915268Y648130D02*
Y651870D01*
X913398Y650000D02*
X917138D01*
X915268Y659630D02*
Y663370D01*
X913398Y661500D02*
X917138D01*
X752000Y812130D02*
Y815870D01*
X750130Y814000D02*
X753870D01*
X752000Y823130D02*
Y826870D01*
X750130Y825000D02*
X753870D01*
X919619Y673000D02*
X923359D01*
X921489Y671130D02*
Y674870D01*
X1075961Y672224D02*
Y675965D01*
X1074091Y674094D02*
X1077831D01*
X921489Y659630D02*
Y663370D01*
X919619Y661500D02*
X923359D01*
X961453Y725915D02*
X965193D01*
X963323Y724045D02*
Y727785D01*
X988236Y576842D02*
X991976D01*
X990106Y574972D02*
Y578713D01*
X931114Y645925D02*
Y649665D01*
X929244Y647795D02*
X932985D01*
X915268Y671287D02*
Y675028D01*
X913398Y673158D02*
X917138D01*
X912339Y644850D02*
X927299D01*
X912339Y623197D02*
Y644850D01*
Y623197D02*
X927299D01*
Y644850D01*
X1122630Y696874D02*
X1126370D01*
X1124500Y695004D02*
Y698744D01*
X812531Y823100D02*
X816469D01*
X814500Y821132D02*
Y825068D01*
X872870Y874630D02*
Y878370D01*
X871000Y876500D02*
X874740D01*
X872772Y868130D02*
Y871870D01*
X870902Y870000D02*
X874642D01*
X1075449Y695602D02*
Y699342D01*
X1073579Y697472D02*
X1077319D01*
X1075449Y690102D02*
Y693843D01*
X1073579Y691972D02*
X1077319D01*
X979650Y562130D02*
Y565870D01*
X977779Y564000D02*
X981520D01*
X1013500Y575130D02*
Y578870D01*
X1011630Y577000D02*
X1015370D01*
X935130Y648500D02*
X938870D01*
X937000Y646630D02*
Y650370D01*
X1041677Y536110D02*
Y549890D01*
X1026323D02*
X1041677D01*
X1026323Y536110D02*
Y549890D01*
Y536110D02*
X1041677D01*
X1077500Y655000D02*
Y658740D01*
X1075630Y656870D02*
X1079370D01*
X990500Y569130D02*
Y572870D01*
X988630Y571000D02*
X992370D01*
X1080193Y674094D02*
X1083933D01*
X1082063Y672224D02*
Y675965D01*
X919619Y650000D02*
X923359D01*
X921489Y648130D02*
Y651870D01*
X1073130Y637000D02*
X1076870D01*
X1075000Y635130D02*
Y638870D01*
X1079037Y637094D02*
X1082777D01*
X1080907Y635224D02*
Y638964D01*
X1033500Y552630D02*
Y556370D01*
X1031630Y554500D02*
X1035370D01*
X1033500Y558630D02*
Y562370D01*
X1031630Y560500D02*
X1035370D01*
X903477Y608200D02*
Y610247D01*
X902454Y609223D02*
X904501D01*
X1074630Y617000D02*
X1078370D01*
X1076500Y615130D02*
Y618870D01*
X1080248Y616980D02*
X1083988D01*
X1082118Y615110D02*
Y618850D01*
X1075004Y602618D02*
Y606358D01*
X1073134Y604488D02*
X1076874D01*
X1025500Y575130D02*
Y578870D01*
X1023630Y577000D02*
X1027370D01*
X1025500Y569130D02*
Y572870D01*
X1023630Y571000D02*
X1027370D01*
X917850Y606472D02*
X921787D01*
X919819Y604504D02*
Y608441D01*
X924563Y593705D02*
X926610D01*
X925587Y592681D02*
Y594728D01*
X1077500Y649862D02*
Y653602D01*
X1075630Y651732D02*
X1079370D01*
X967882Y575311D02*
Y579051D01*
X966012Y577181D02*
X969752D01*
X968000Y569130D02*
Y572870D01*
X966130Y571000D02*
X969870D01*
X1038862Y575130D02*
Y578870D01*
X1036992Y577000D02*
X1040732D01*
X864130Y846000D02*
X867870D01*
X866000Y844130D02*
Y847870D01*
X858622Y846079D02*
X862362D01*
X860492Y844209D02*
Y847949D01*
X869130Y860350D02*
X872870D01*
X871000Y858480D02*
Y862220D01*
X863267Y860312D02*
X867008D01*
X865137Y858442D02*
Y862182D01*
X1013500Y569130D02*
Y572870D01*
X1011630Y571000D02*
X1015370D01*
X990500Y562130D02*
Y565870D01*
X988630Y564000D02*
X992370D01*
X1038862Y569130D02*
Y572870D01*
X1036992Y571000D02*
X1040732D01*
X1023110Y869039D02*
X1026850D01*
X1024980Y867169D02*
Y870909D01*
X1109130Y587000D02*
X1112870D01*
X1111000Y585130D02*
Y588870D01*
X1118182Y591181D02*
Y594921D01*
X1116312Y593051D02*
X1120052D01*
X1100000Y582531D02*
Y586469D01*
X1098032Y584500D02*
X1101968D01*
X1087130Y584303D02*
X1090870D01*
X1089000Y582433D02*
Y586173D01*
X1007032Y868449D02*
X1010968D01*
X1009000Y866480D02*
Y870417D01*
X1024075Y880937D02*
Y884874D01*
X1022106Y882905D02*
X1026043D01*
X997630Y867661D02*
X1001370D01*
X999500Y865791D02*
Y869532D01*
X1031130Y884500D02*
X1034870D01*
X1033000Y882630D02*
Y886370D01*
X1016130Y869039D02*
X1019870D01*
X1018000Y867169D02*
Y870909D01*
X981500Y874130D02*
X981500Y877870D01*
X979630Y876000D02*
X983370D01*
X801130Y732500D02*
X804870D01*
X803000Y730630D02*
Y734370D01*
X767606Y799500D02*
X771347D01*
X769476Y797630D02*
Y801370D01*
X913130Y686057D02*
X916870D01*
X915000Y684187D02*
Y687927D01*
X882630Y728646D02*
X886370D01*
X884500Y726776D02*
Y730516D01*
X1123192Y800630D02*
X1126933D01*
X1125062Y798760D02*
Y802500D01*
X1117130Y800630D02*
X1120870D01*
X1119000Y798760D02*
Y802500D01*
X981630Y811000D02*
X985370D01*
X983500Y809130D02*
Y812870D01*
X1093911Y806047D02*
Y809787D01*
X1092041Y807917D02*
X1095781D01*
X1129255Y800630D02*
X1132995D01*
X1131125Y798760D02*
Y802500D01*
X1129130Y828500D02*
X1132870D01*
X1131000Y826630D02*
Y830370D01*
X815772Y710500D02*
X818134D01*
X816953Y709319D02*
Y711681D01*
X773000Y788630D02*
Y792370D01*
X771130Y790500D02*
X774870D01*
X774130Y799500D02*
X777870D01*
X776000Y797630D02*
Y801370D01*
X779130Y780000D02*
X782870D01*
X781000Y778130D02*
Y781870D01*
X768768Y781960D02*
X772508D01*
X770638Y780090D02*
Y783830D01*
X806646Y792630D02*
Y796370D01*
X804776Y794500D02*
X808516D01*
X807532Y783500D02*
X811469D01*
X809500Y781531D02*
Y785468D01*
X801205Y742636D02*
X804945D01*
X803075Y740766D02*
Y744506D01*
X812500Y729630D02*
Y733370D01*
X810630Y731500D02*
X814370D01*
X831630Y749146D02*
X835370D01*
X833500Y747276D02*
Y751016D01*
X844000Y750032D02*
Y753968D01*
X842031Y752000D02*
X845969D01*
X856839Y762000D02*
X860776D01*
X858807Y760032D02*
Y763969D01*
X858315Y744618D02*
Y748358D01*
X856445Y746488D02*
X860185D01*
X791630Y790697D02*
X795370D01*
X793500Y788827D02*
Y792567D01*
X785630Y790638D02*
X789370D01*
X787500Y788768D02*
Y792508D01*
X853000Y767630D02*
Y771370D01*
X851130Y769500D02*
X854870D01*
X785630Y780000D02*
X789370D01*
X787500Y778130D02*
Y781870D01*
X842130Y767000D02*
X845870D01*
X844000Y765130D02*
Y768870D01*
X821130Y823500D02*
X824870D01*
X823000Y821630D02*
Y825370D01*
X804000Y828630D02*
Y832370D01*
X802130Y830500D02*
X805870D01*
X792263Y839500D02*
X796003D01*
X794133Y837630D02*
Y841370D01*
X755500Y837031D02*
Y840969D01*
X753532Y839000D02*
X757469D01*
X804000Y821114D02*
Y824854D01*
X802130Y822984D02*
X805870D01*
X770362Y815209D02*
Y818949D01*
X768492Y817079D02*
X772232D01*
X803630Y814421D02*
X807370D01*
X805500Y812551D02*
Y816291D01*
D172*
X913996Y636969D02*
Y640906D01*
X906516D02*
X913996D01*
X906516Y636969D02*
X913996D01*
X906516D02*
Y640906D01*
X913996Y627126D02*
Y631063D01*
X906516D02*
X913996D01*
X906516Y627126D02*
X913996D01*
X906516D02*
Y631063D01*
X883638Y812831D02*
X888362D01*
X883638Y804169D02*
X888362D01*
Y812831D01*
X883638Y804169D02*
Y812831D01*
X873638D02*
X878362D01*
X873638Y804169D02*
X878362D01*
Y812831D01*
X873638Y804169D02*
Y812831D01*
X868185Y881701D02*
X878815D01*
X868185Y894299D02*
X878815D01*
X868185Y881701D02*
Y894299D01*
X878815Y881701D02*
Y894299D01*
X862138Y882669D02*
X866862D01*
X862138Y891331D02*
X866862D01*
X862138Y882669D02*
Y891331D01*
X866862Y882669D02*
Y891331D01*
X940142Y712500D02*
X1063646D01*
Y588996D02*
Y712500D01*
X940142Y588996D02*
X1063646D01*
X940142D02*
Y712500D01*
X959220Y717250D02*
X967882D01*
X959220Y721975D02*
X967882D01*
Y717250D02*
Y721975D01*
X959220Y717250D02*
Y721975D01*
X1038508Y814047D02*
Y918378D01*
X1115279D01*
Y814047D02*
Y918378D01*
X1038508Y814047D02*
X1115279D01*
X943638Y795669D02*
X948362D01*
X943638Y804331D02*
X948362D01*
Y795669D02*
Y804331D01*
X943638Y795669D02*
Y804331D01*
X1062453Y735685D02*
Y746315D01*
X1056547Y735685D02*
Y746315D01*
Y735685D02*
X1062453D01*
X1056547Y746315D02*
X1062453D01*
X1119041Y863866D02*
Y872134D01*
X1130459D01*
Y863866D02*
Y872134D01*
X1119041Y863866D02*
X1130459D01*
X1119229Y836366D02*
Y844634D01*
X1130646D01*
Y836366D02*
Y844634D01*
X1119229Y836366D02*
X1130646D01*
X822169Y543271D02*
Y547996D01*
X830831Y543271D02*
Y547996D01*
X822169D02*
X830831D01*
X822169Y543271D02*
X830831D01*
X805638Y550410D02*
Y559071D01*
X810362Y550410D02*
Y559071D01*
X805638Y550410D02*
X810362D01*
X805638Y559071D02*
X810362D01*
X800268D02*
X804993D01*
X800268Y550410D02*
X804993D01*
Y559071D01*
X800268Y550410D02*
Y559071D01*
X796135Y560215D02*
Y564939D01*
X804796Y560215D02*
Y564939D01*
X796135D02*
X804796D01*
X796135Y560215D02*
X804796D01*
X814831Y560215D02*
Y564939D01*
X806169Y560215D02*
Y564939D01*
Y560215D02*
X814831D01*
X806169Y564939D02*
X814831D01*
X1067831Y730638D02*
Y735362D01*
X1059169Y730638D02*
Y735362D01*
Y730638D02*
X1067831D01*
X1059169Y735362D02*
X1067831D01*
X1058685Y741453D02*
X1069315D01*
X1058685Y735547D02*
X1069315D01*
X1058685D02*
Y741453D01*
X1069315Y735547D02*
Y741453D01*
X1065516Y741476D02*
X1092484D01*
Y753524D01*
X1065516D02*
X1092484D01*
X1065516Y741476D02*
Y753524D01*
X1094646Y744547D02*
X1105276D01*
X1094646Y750453D02*
X1105276D01*
X1094646Y744547D02*
Y750453D01*
X1105276Y744547D02*
Y750453D01*
X1067169Y736138D02*
X1075831D01*
X1067169Y740862D02*
X1075831D01*
X1067169Y736138D02*
Y740862D01*
X1075831Y736138D02*
Y740862D01*
X1067169Y725362D02*
X1075831D01*
X1067169Y720638D02*
X1075831D01*
Y725362D01*
X1067169Y720638D02*
Y725362D01*
X1094677Y718610D02*
Y732390D01*
X1079323Y718610D02*
Y732390D01*
X1094677D01*
X1079323Y718610D02*
X1094677D01*
X1074169Y716386D02*
X1082831D01*
X1074169Y711661D02*
X1082831D01*
Y716386D01*
X1074169Y711661D02*
Y716386D01*
X1084307Y710260D02*
Y717740D01*
X1097693Y710260D02*
Y717740D01*
X1084307Y710260D02*
X1097693D01*
X1084307Y717740D02*
X1097693D01*
X1098720Y717232D02*
X1104626D01*
X1098720Y727862D02*
X1104626D01*
Y717232D02*
Y727862D01*
X1098720Y717232D02*
Y727862D01*
X1059307Y710284D02*
Y717764D01*
X1072693Y710284D02*
Y717764D01*
X1059307Y710284D02*
X1072693D01*
X1059307Y717764D02*
X1072693D01*
X1016683Y736701D02*
X1025345D01*
X1016683Y731976D02*
X1025345D01*
X1016683D02*
Y736701D01*
X1025345Y731976D02*
Y736701D01*
X1026329Y737343D02*
Y743248D01*
X1015699Y737343D02*
Y743248D01*
Y737343D02*
X1026329D01*
X1015699Y743248D02*
X1026329D01*
X1003669Y736701D02*
X1012331D01*
X1003669Y731976D02*
X1012331D01*
X1003669D02*
Y736701D01*
X1012331Y731976D02*
Y736701D01*
X1013315Y737500D02*
Y743405D01*
X1002685Y737500D02*
Y743405D01*
Y737500D02*
X1013315D01*
X1002685Y743405D02*
X1013315D01*
X932173Y769067D02*
X953827D01*
X932173Y739933D02*
X953827D01*
Y769067D01*
X932173Y739933D02*
Y769067D01*
X908000Y570500D02*
X914000D01*
X911000Y567500D02*
Y573500D01*
X894160Y574818D02*
X898884D01*
X894160Y566157D02*
X898884D01*
Y574818D01*
X894160Y566157D02*
Y574818D01*
X908000Y548833D02*
X914000D01*
X911000Y545833D02*
Y551833D01*
X894160Y544524D02*
X898884D01*
X894160Y553186D02*
X898884D01*
X894160Y544524D02*
Y553186D01*
X898884Y544524D02*
Y553186D01*
X932177Y795185D02*
X938083D01*
X932177Y805815D02*
X938083D01*
Y795185D02*
Y805815D01*
X932177Y795185D02*
Y805815D01*
X926496Y796169D02*
Y804831D01*
X931220Y796169D02*
Y804831D01*
X926496D02*
X931220D01*
X926496Y796169D02*
X931220D01*
X813953Y704185D02*
Y714815D01*
X808047Y704185D02*
Y714815D01*
X813953D01*
X808047Y704185D02*
X813953D01*
X846988Y613732D02*
X857224D01*
X846988Y630268D02*
X857224D01*
Y613732D02*
Y630268D01*
X846988Y613732D02*
Y630268D01*
X983388Y852625D02*
X988112D01*
X983388Y861286D02*
X988112D01*
X983388Y852625D02*
Y861286D01*
X988112Y852625D02*
Y861286D01*
X960362Y741169D02*
Y749831D01*
X955638Y741169D02*
Y749831D01*
X960362D01*
X955638Y741169D02*
X960362D01*
X964047Y740185D02*
Y750815D01*
X969953Y740185D02*
Y750815D01*
X964047Y740185D02*
X969953D01*
X964047Y750815D02*
X969953D01*
X760169Y741539D02*
Y746264D01*
X768831Y741539D02*
Y746264D01*
X760169Y741539D02*
X768831D01*
X760169Y746264D02*
X768831D01*
X770764Y737799D02*
X783480D01*
X770764Y748035D02*
X783480D01*
X770764Y737799D02*
Y748035D01*
X783480Y737799D02*
Y748035D01*
X902110Y901205D02*
Y918921D01*
X915890D01*
Y901205D02*
Y918921D01*
X902110Y901205D02*
X915890D01*
X1098933Y669173D02*
X1128067D01*
X1098933Y690827D02*
X1128067D01*
Y669173D02*
Y690827D01*
X1098933Y669173D02*
Y690827D01*
X906916Y891169D02*
X911640D01*
X906916Y899831D02*
X911640D01*
Y891169D02*
Y899831D01*
X906916Y891169D02*
Y899831D01*
X911638Y891169D02*
Y899831D01*
X916362Y891169D02*
Y899831D01*
X911638D02*
X916362D01*
X911638Y891169D02*
X916362D01*
X806956Y734664D02*
X823177D01*
X806956D02*
Y748050D01*
X823177D01*
Y734664D02*
Y748050D01*
X829551Y748721D02*
Y776279D01*
X798449D02*
X829551D01*
X798449Y748721D02*
Y776279D01*
Y748721D02*
X829551D01*
X760350Y834177D02*
X766650D01*
X760350Y844807D02*
X766650D01*
X760350Y834177D02*
Y844807D01*
X766650Y834177D02*
Y844807D01*
X773453Y834177D02*
Y844807D01*
X767547Y834177D02*
Y844807D01*
X773453D01*
X767547Y834177D02*
X773453D01*
X775638Y835866D02*
Y844528D01*
X780362Y835866D02*
Y844528D01*
X775638Y835866D02*
X780362D01*
X775638Y844528D02*
X780362D01*
X782138Y844331D02*
X786862D01*
X782138Y835669D02*
X786862D01*
Y844331D01*
X782138Y835669D02*
Y844331D01*
X889138Y580831D02*
X893862D01*
X889138Y572169D02*
X893862D01*
X889138D02*
Y580831D01*
X893862Y572169D02*
Y580831D01*
X889138Y558169D02*
X893862D01*
X889138Y566831D02*
X893862D01*
Y558169D02*
Y566831D01*
X889138Y558169D02*
Y566831D01*
X1051858Y777971D02*
Y782696D01*
X1043197Y777971D02*
Y782696D01*
X1051858D01*
X1043197Y777971D02*
X1051858D01*
X1042685Y783547D02*
X1053315D01*
X1042685Y789453D02*
X1053315D01*
X1042685Y783547D02*
Y789453D01*
X1053315Y783547D02*
Y789453D01*
X858130Y840331D02*
X862854D01*
X858130Y831669D02*
X862854D01*
Y840331D01*
X858130Y831669D02*
Y840331D01*
X895335Y840665D02*
Y861335D01*
X874665Y840665D02*
X895335D01*
X874665D02*
Y861335D01*
X895335D01*
X1128450Y851669D02*
X1133175D01*
X1128450Y860331D02*
X1133175D01*
X1128450Y851669D02*
Y860331D01*
X1133175Y851669D02*
Y860331D01*
X1122388Y851669D02*
X1127112D01*
X1122388Y860331D02*
X1127112D01*
X1122388Y851669D02*
Y860331D01*
X1127112Y851669D02*
Y860331D01*
X1116325Y851669D02*
X1121050D01*
X1116325Y860331D02*
X1121050D01*
X1116325Y851669D02*
Y860331D01*
X1121050Y851669D02*
Y860331D01*
X1122575Y824169D02*
X1127300D01*
X1122575Y832831D02*
X1127300D01*
X1122575Y824169D02*
Y832831D01*
X1127300Y824169D02*
Y832831D01*
X1116513Y824169D02*
X1121237D01*
X1116513Y832831D02*
X1121237D01*
X1116513Y824169D02*
Y832831D01*
X1121237Y824169D02*
Y832831D01*
X889669Y877138D02*
Y881862D01*
X898331Y877138D02*
Y881862D01*
X889669Y877138D02*
X898331D01*
X889669Y881862D02*
X898331D01*
X888685Y882701D02*
X899315D01*
X888685Y895299D02*
X899315D01*
Y882701D02*
Y895299D01*
X888685Y882701D02*
Y895299D01*
X896138Y905331D02*
X900862D01*
X896138Y896669D02*
X900862D01*
X896138D02*
Y905331D01*
X900862Y896669D02*
Y905331D01*
X902138Y891169D02*
X906862D01*
X902138Y899831D02*
X906862D01*
Y891169D02*
Y899831D01*
X902138Y891169D02*
Y899831D01*
X1128547Y691559D02*
Y702189D01*
X1134453Y691559D02*
Y702189D01*
X1128547Y691559D02*
X1134453D01*
X1128547Y702189D02*
X1134453D01*
X760591Y795169D02*
X765315D01*
X760591Y803831D02*
X765315D01*
X760591Y795169D02*
Y803831D01*
X765315Y795169D02*
Y803831D01*
X863728Y750850D02*
Y757150D01*
X853098Y750850D02*
Y757150D01*
Y750850D02*
X863728D01*
X853098Y757150D02*
X863728D01*
X918221Y644685D02*
Y655315D01*
X912315Y644685D02*
Y655315D01*
X918221D01*
X912315Y644685D02*
X918221D01*
Y656185D02*
Y666815D01*
X912315Y656185D02*
Y666815D01*
X918221D01*
X912315Y656185D02*
X918221D01*
X749638Y818331D02*
X754362D01*
X749638Y809669D02*
X754362D01*
Y818331D01*
X749638Y809669D02*
Y818331D01*
X749638Y820669D02*
X754362D01*
X749638Y829331D02*
X754362D01*
X749638Y820669D02*
Y829331D01*
X754362Y820669D02*
Y829331D01*
X845205Y795524D02*
X865795D01*
X845205Y773476D02*
X865795D01*
X845205D02*
Y795524D01*
X865795Y773476D02*
Y795524D01*
X861476Y852508D02*
Y934988D01*
X783524D02*
X861476D01*
X783524Y852508D02*
Y934988D01*
Y852508D02*
X861476D01*
X923851Y668669D02*
Y677331D01*
X919127Y668669D02*
Y677331D01*
X923851D01*
X919127Y668669D02*
X923851D01*
X1073598Y669764D02*
X1078323D01*
X1073598Y678425D02*
X1078323D01*
X1073598Y669764D02*
Y678425D01*
X1078323Y669764D02*
Y678425D01*
X919127Y657169D02*
X923851D01*
X919127Y665831D02*
X923851D01*
X919127Y657169D02*
Y665831D01*
X923851Y657169D02*
Y665831D01*
X958008Y722962D02*
X968638D01*
X958008Y728868D02*
X968638D01*
Y722962D02*
Y728868D01*
X958008Y722962D02*
Y728868D01*
X994437Y574480D02*
Y579205D01*
X985776Y574480D02*
Y579205D01*
Y574480D02*
X994437D01*
X985776Y579205D02*
X994437D01*
X934067Y642480D02*
Y653110D01*
X928162Y642480D02*
Y653110D01*
X934067D01*
X928162Y642480D02*
X934067D01*
X918221Y667842D02*
Y678472D01*
X912315Y667842D02*
Y678472D01*
X918221D01*
X912315Y667842D02*
X918221D01*
X1122138Y692543D02*
Y701205D01*
X1126862Y692543D02*
Y701205D01*
X1122138Y692543D02*
X1126862D01*
X1122138Y701205D02*
X1126862D01*
X798756Y811744D02*
Y832256D01*
X778244Y811744D02*
Y832256D01*
X798756D01*
X778244Y811744D02*
X798756D01*
X809776Y817588D02*
Y828612D01*
X819224Y817588D02*
Y828612D01*
X809776Y817588D02*
X819224D01*
X809776Y828612D02*
X819224D01*
X878185Y873547D02*
Y879453D01*
X867555Y873547D02*
Y879453D01*
Y873547D02*
X878185D01*
X867555Y879453D02*
X878185D01*
X868441Y867638D02*
X877102D01*
X868441Y872362D02*
X877102D01*
Y867638D02*
Y872362D01*
X868441Y867638D02*
Y872362D01*
X1071118Y695110D02*
X1079780D01*
X1071118Y699835D02*
X1079780D01*
Y695110D02*
Y699835D01*
X1071118Y695110D02*
Y699835D01*
Y689610D02*
X1079780D01*
X1071118Y694335D02*
X1079780D01*
Y689610D02*
Y694335D01*
X1071118Y689610D02*
Y694335D01*
X975319Y566362D02*
X983980D01*
X975319Y561638D02*
X983980D01*
X975319D02*
Y566362D01*
X983980Y561638D02*
Y566362D01*
X1009169Y574638D02*
X1017831D01*
X1009169Y579362D02*
X1017831D01*
Y574638D02*
Y579362D01*
X1009169Y574638D02*
Y579362D01*
X939362Y644169D02*
Y652831D01*
X934638Y644169D02*
Y652831D01*
X939362D01*
X934638Y644169D02*
X939362D01*
X1119354Y808496D02*
Y816764D01*
X1130771D01*
Y808496D02*
Y816764D01*
X1119354Y808496D02*
X1130771D01*
X842524Y773016D02*
Y799984D01*
X830476Y773016D02*
X842524D01*
X830476D02*
Y799984D01*
X842524D01*
X1073169Y654508D02*
X1081831D01*
X1073169Y659232D02*
X1081831D01*
Y654508D02*
Y659232D01*
X1073169Y654508D02*
Y659232D01*
X995815Y568047D02*
Y573953D01*
X985185Y568047D02*
Y573953D01*
Y568047D02*
X995815D01*
X985185Y573953D02*
X995815D01*
X1079110Y668780D02*
X1085016D01*
X1079110Y679409D02*
X1085016D01*
X1079110Y668780D02*
Y679409D01*
X1085016Y668780D02*
Y679409D01*
X923851Y645669D02*
Y654331D01*
X919127Y645669D02*
Y654331D01*
X923851D01*
X919127Y645669D02*
X923851D01*
X1077362Y632669D02*
Y641331D01*
X1072638Y632669D02*
Y641331D01*
X1077362D01*
X1072638Y632669D02*
X1077362D01*
X1077954Y631779D02*
X1083859D01*
X1077954Y642409D02*
X1083859D01*
X1077954Y631779D02*
Y642409D01*
X1083859Y631779D02*
Y642409D01*
X1029169Y556862D02*
X1037831D01*
X1029169Y552138D02*
X1037831D01*
X1029169D02*
Y556862D01*
X1037831Y552138D02*
Y556862D01*
X1038815Y557547D02*
Y563453D01*
X1028185Y557547D02*
Y563453D01*
Y557547D02*
X1038815D01*
X1028185Y563453D02*
X1038815D01*
X901509Y612963D02*
X905446D01*
X901509Y605483D02*
X905446D01*
Y612963D01*
X901509Y605483D02*
Y612963D01*
X1074138Y612669D02*
Y621331D01*
X1078862Y612669D02*
Y621331D01*
X1074138Y612669D02*
X1078862D01*
X1074138Y621331D02*
X1078862D01*
X1079165Y622295D02*
X1085071D01*
X1079165Y611665D02*
X1085071D01*
Y622295D01*
X1079165Y611665D02*
Y622295D01*
X1070673Y606850D02*
X1079335D01*
X1070673Y602126D02*
X1079335D01*
X1070673D02*
Y606850D01*
X1079335Y602126D02*
Y606850D01*
X1021169Y579362D02*
X1029831D01*
X1021169Y574638D02*
X1029831D01*
X1021169D02*
Y579362D01*
X1029831Y574638D02*
Y579362D01*
X1030815Y568047D02*
Y573953D01*
X1020185Y568047D02*
Y573953D01*
Y568047D02*
X1030815D01*
X1020185Y573953D02*
X1030815D01*
X907122Y597024D02*
Y615528D01*
X932417Y597024D02*
Y615528D01*
X907122D02*
X932417D01*
X907122Y597024D02*
X932417D01*
X929327Y591736D02*
Y595673D01*
X921846Y591736D02*
Y595673D01*
Y591736D02*
X929327D01*
X921846Y595673D02*
X929327D01*
X1073169Y649370D02*
X1081831D01*
X1073169Y654095D02*
X1081831D01*
Y649370D02*
Y654095D01*
X1073169Y649370D02*
Y654095D01*
X963551Y579543D02*
X972213D01*
X963551Y574819D02*
X972213D01*
X963551D02*
Y579543D01*
X972213Y574819D02*
Y579543D01*
X973315Y568047D02*
Y573953D01*
X962685Y568047D02*
Y573953D01*
Y568047D02*
X973315D01*
X962685Y573953D02*
X973315D01*
X1034531Y574638D02*
X1043193D01*
X1034531Y579362D02*
X1043193D01*
Y574638D02*
Y579362D01*
X1034531Y574638D02*
Y579362D01*
X863638Y841669D02*
Y850331D01*
X868362Y841669D02*
Y850331D01*
X863638Y841669D02*
X868362D01*
X863638Y850331D02*
X868362D01*
X862854Y841748D02*
Y850409D01*
X858130Y841748D02*
Y850409D01*
X862854D01*
X858130Y841748D02*
X862854D01*
X868638Y856020D02*
Y864681D01*
X873362Y856020D02*
Y864681D01*
X868638Y856020D02*
X873362D01*
X868638Y864681D02*
X873362D01*
X862185Y865627D02*
X868090D01*
X862185Y854997D02*
X868090D01*
Y865627D01*
X862185Y854997D02*
Y865627D01*
X1008185Y568047D02*
Y573953D01*
X1018815Y568047D02*
Y573953D01*
X1008185D02*
X1018815D01*
X1008185Y568047D02*
X1018815D01*
X986169Y561638D02*
X994831D01*
X986169Y566362D02*
X994831D01*
Y561638D02*
Y566362D01*
X986169Y561638D02*
Y566362D01*
X1034531Y568638D02*
X1043193D01*
X1034531Y573362D02*
X1043193D01*
Y568638D02*
Y573362D01*
X1034531Y568638D02*
Y573362D01*
X1022028Y863724D02*
X1027933D01*
X1022028Y874354D02*
X1027933D01*
X1022028Y863724D02*
Y874354D01*
X1027933Y863724D02*
Y874354D01*
X1105913Y608102D02*
X1120087D01*
Y595898D02*
Y608102D01*
X1105913Y595898D02*
X1120087D01*
X1105913D02*
Y608102D01*
X1113362Y582669D02*
Y591331D01*
X1108638Y582669D02*
Y591331D01*
X1113362D01*
X1108638Y582669D02*
X1113362D01*
X1113851Y590689D02*
X1122513D01*
X1113851Y595413D02*
X1122513D01*
Y590689D02*
Y595413D01*
X1113851Y590689D02*
Y595413D01*
X1093701Y579185D02*
X1106299D01*
X1093701Y589815D02*
X1106299D01*
Y579185D02*
Y589815D01*
X1093701Y579185D02*
Y589815D01*
X1091362Y579972D02*
Y588634D01*
X1086638Y579972D02*
Y588634D01*
X1091362D01*
X1086638Y579972D02*
X1091362D01*
X1014315Y862150D02*
Y874748D01*
X1003685Y862150D02*
Y874748D01*
X1014315D01*
X1003685Y862150D02*
X1014315D01*
X1020335Y876213D02*
X1027815D01*
X1020335Y889598D02*
X1027815D01*
X1020335Y876213D02*
Y889598D01*
X1027815Y876213D02*
Y889598D01*
X1001862Y863331D02*
Y871992D01*
X997138Y863331D02*
Y871992D01*
X1001862D01*
X997138Y863331D02*
X1001862D01*
X1030638Y880169D02*
Y888831D01*
X1035362Y880169D02*
Y888831D01*
X1030638Y880169D02*
X1035362D01*
X1030638Y888831D02*
X1035362D01*
X1015638Y864709D02*
Y873370D01*
X1020362Y864709D02*
Y873370D01*
X1015638Y864709D02*
X1020362D01*
X1015638Y873370D02*
X1020362D01*
X986815Y873047D02*
Y878953D01*
X976185D02*
X976185Y873047D01*
X986815D01*
X976185Y878953D02*
X986815D01*
X974024Y869405D02*
Y882594D01*
X954142Y882594D02*
X974024Y882594D01*
X954142Y869405D02*
Y882594D01*
Y869405D02*
X974024D01*
X805362Y728169D02*
Y736831D01*
X800638Y728169D02*
Y736831D01*
X805362D01*
X800638Y728169D02*
X805362D01*
X767114Y795169D02*
Y803831D01*
X771839Y795169D02*
Y803831D01*
X767114Y795169D02*
X771839D01*
X767114Y803831D02*
X771839D01*
X917362Y681727D02*
Y690388D01*
X912638Y681727D02*
Y690388D01*
X917362D01*
X912638Y681727D02*
X917362D01*
X886862Y724315D02*
Y732977D01*
X882138Y724315D02*
Y732977D01*
X886862D01*
X882138Y724315D02*
X886862D01*
X852012Y713016D02*
Y739984D01*
Y713016D02*
X880988D01*
Y739984D01*
X852012D02*
X880988D01*
X1127425Y796299D02*
Y804961D01*
X1122700Y796299D02*
Y804961D01*
X1127425D01*
X1122700Y796299D02*
X1127425D01*
X1121362D02*
Y804961D01*
X1116638Y796299D02*
Y804961D01*
X1121362D01*
X1116638Y796299D02*
X1121362D01*
X981138Y806669D02*
Y815331D01*
X985862Y806669D02*
Y815331D01*
X981138Y806669D02*
X985862D01*
X981138Y815331D02*
X985862D01*
X1089580Y810279D02*
X1098242D01*
X1089580Y805555D02*
X1098242D01*
X1089580D02*
Y810279D01*
X1098242Y805555D02*
Y810279D01*
X1133487Y796299D02*
Y804961D01*
X1128763Y796299D02*
Y804961D01*
X1133487D01*
X1128763Y796299D02*
X1133487D01*
X1133362Y824169D02*
Y832831D01*
X1128638Y824169D02*
Y832831D01*
X1133362D01*
X1128638Y824169D02*
X1133362D01*
X768669Y788138D02*
X777331D01*
X768669Y792862D02*
X777331D01*
Y788138D02*
Y792862D01*
X768669Y788138D02*
Y792862D01*
X778362Y795169D02*
Y803831D01*
X773638Y795169D02*
Y803831D01*
X778362D01*
X773638Y795169D02*
X778362D01*
X778047Y785315D02*
X783953D01*
X778047Y774685D02*
X783953D01*
Y785315D01*
X778047Y774685D02*
Y785315D01*
X773000Y777629D02*
Y786291D01*
X768276Y777629D02*
Y786291D01*
X773000D01*
X768276Y777629D02*
X773000D01*
X811961Y791547D02*
Y797453D01*
X801331Y791547D02*
Y797453D01*
Y791547D02*
X811961D01*
X801331Y797453D02*
X811961D01*
X818555Y777201D02*
Y789799D01*
X800445Y777201D02*
Y789799D01*
Y777201D02*
X818555D01*
X800445Y789799D02*
X818555D01*
X805437Y738306D02*
Y746967D01*
X800713Y738306D02*
Y746967D01*
X805437D01*
X800713Y738306D02*
X805437D01*
X808169Y729138D02*
X816831D01*
X808169Y733862D02*
X816831D01*
Y729138D02*
Y733862D01*
X808169Y729138D02*
Y733862D01*
X830547Y754461D02*
X836453D01*
X830547Y743831D02*
X836453D01*
Y754461D01*
X830547Y743831D02*
Y754461D01*
X837701Y761055D02*
X850299D01*
X837701Y742945D02*
X850299D01*
Y761055D01*
X837701Y742945D02*
Y761055D01*
X865500Y758260D02*
Y765740D01*
X852114Y758260D02*
Y765740D01*
Y758260D02*
X865500D01*
X852114Y765740D02*
X865500D01*
X863630Y743535D02*
Y749441D01*
X853000Y743535D02*
Y749441D01*
Y743535D02*
X863630D01*
X853000Y749441D02*
X863630D01*
X791138Y786366D02*
Y795027D01*
X795862Y786366D02*
Y795027D01*
X791138Y786366D02*
X795862D01*
X791138Y795027D02*
X795862D01*
X789862Y786307D02*
Y794969D01*
X785138Y786307D02*
Y794969D01*
X789862D01*
X785138Y786307D02*
X789862D01*
X847685Y766547D02*
Y772453D01*
X858315Y766547D02*
Y772453D01*
X847685D02*
X858315D01*
X847685Y766547D02*
X858315D01*
X789862Y775669D02*
Y784331D01*
X785138Y775669D02*
Y784331D01*
X789862D01*
X785138Y775669D02*
X789862D01*
X846362Y762669D02*
Y771331D01*
X841638Y762669D02*
Y771331D01*
X846362D01*
X841638Y762669D02*
X846362D01*
X820047Y828815D02*
X825953D01*
X820047Y818185D02*
X825953D01*
Y828815D01*
X820047Y818185D02*
Y828815D01*
X798685Y827547D02*
Y833453D01*
X809315Y827547D02*
Y833453D01*
X798685D02*
X809315D01*
X798685Y827547D02*
X809315D01*
X791180Y834185D02*
X797086D01*
X791180Y844815D02*
X797086D01*
X791180Y834185D02*
Y844815D01*
X797086Y834185D02*
Y844815D01*
X751760Y832307D02*
X759240D01*
X751760Y845693D02*
X759240D01*
X751760Y832307D02*
Y845693D01*
X759240Y832307D02*
Y845693D01*
X799669Y825346D02*
X808331D01*
X799669Y820622D02*
X808331D01*
X799669D02*
Y825346D01*
X808331Y820622D02*
Y825346D01*
X766032Y814717D02*
X774693D01*
X766032Y819441D02*
X774693D01*
Y814717D02*
Y819441D01*
X766032Y814717D02*
Y819441D01*
X802547Y809106D02*
X808453D01*
X802547Y819736D02*
X808453D01*
X802547Y809106D02*
Y819736D01*
X808453Y809106D02*
Y819736D01*
D173*
X788028Y528791D02*
Y548943D01*
X821027D01*
X821098Y528791D01*
X788028D02*
X821027D01*
X861599Y917929D02*
X894598D01*
X861528D02*
X861599Y897777D01*
X894598D01*
Y917929D01*
X953917Y897777D02*
Y917929D01*
X920918Y897777D02*
X953917D01*
X920846Y917929D02*
X920918Y897777D01*
Y917929D02*
X953917D01*
D174*
X995720Y650721D02*
Y652020D01*
X995071Y651370D02*
X996370D01*
X992965Y649992D02*
X998476D01*
X992965Y652748D02*
X998476D01*
X992965Y649992D02*
Y652748D01*
X998476Y649992D02*
Y652748D01*
X995720Y647378D02*
Y648677D01*
X995071Y648028D02*
X996370D01*
X992965Y646650D02*
X998476D01*
X992965Y649405D02*
X998476D01*
X992965Y646650D02*
Y649405D01*
X998476Y646650D02*
Y649405D01*
X1036622Y731363D02*
X1039378D01*
X1036622Y725851D02*
X1039378D01*
X1036622D02*
Y731363D01*
X1039378Y725851D02*
Y731363D01*
X1038000Y727957D02*
Y729257D01*
X1037350Y728607D02*
X1038650D01*
X995720Y627323D02*
Y628622D01*
X995071Y627972D02*
X996370D01*
X992965Y626594D02*
X998476D01*
X992965Y629350D02*
X998476D01*
X992965Y626594D02*
Y629350D01*
X998476Y626594D02*
Y629350D01*
X994130Y682000D02*
X995429D01*
X994779Y681350D02*
Y682650D01*
X996157Y679244D02*
Y684756D01*
X993402Y679244D02*
Y684756D01*
Y679244D02*
X996157D01*
X993402Y684756D02*
X996157D01*
X993500Y666823D02*
Y668122D01*
X992850Y667472D02*
X994150D01*
X990744Y668850D02*
X996256D01*
X990744Y666094D02*
X996256D01*
Y668850D01*
X990744Y666094D02*
Y668850D01*
X810833Y556256D02*
X813589D01*
X810833Y550744D02*
X813589D01*
Y556256D01*
X810833Y550744D02*
Y556256D01*
X812211Y552850D02*
Y554150D01*
X811561Y553500D02*
X812860D01*
X796945Y556256D02*
X799701D01*
X796945Y550744D02*
X799701D01*
Y556256D01*
X796945Y550744D02*
Y556256D01*
X798323Y552850D02*
Y554150D01*
X797673Y553500D02*
X798972D01*
X1040753Y728607D02*
X1042052D01*
X1041402Y727957D02*
Y729257D01*
X1042780Y725851D02*
Y731363D01*
X1040024Y725851D02*
Y731363D01*
Y725851D02*
X1042780D01*
X1040024Y731363D02*
X1042780D01*
X1043426D02*
X1046182D01*
X1043426Y725851D02*
X1046182D01*
X1043426D02*
Y731363D01*
X1046182Y725851D02*
Y731363D01*
X1044804Y727957D02*
Y729257D01*
X1044155Y728607D02*
X1045454D01*
X1046256Y721622D02*
Y724378D01*
X1040744Y721622D02*
Y724378D01*
X1046256D01*
X1040744Y721622D02*
X1046256D01*
X1042850Y723000D02*
X1044150D01*
X1043500Y722350D02*
Y723650D01*
X934000Y809350D02*
Y810650D01*
X933350Y810000D02*
X934650D01*
X931244Y811378D02*
X936756D01*
X931244Y808622D02*
X936756D01*
Y811378D01*
X931244Y808622D02*
Y811378D01*
X933526Y622795D02*
Y625551D01*
X939038Y622795D02*
Y625551D01*
X933526D02*
X939038D01*
X933526Y622795D02*
X939038D01*
X935633Y624173D02*
X936932D01*
X936282Y623524D02*
Y624823D01*
X1048016Y803244D02*
X1050772D01*
X1048016Y808756D02*
X1050772D01*
X1048016Y803244D02*
Y808756D01*
X1050772Y803244D02*
Y808756D01*
X1049394Y805350D02*
Y806650D01*
X1048744Y806000D02*
X1050043D01*
X1042744Y808902D02*
Y811658D01*
X1048256Y808902D02*
Y811658D01*
X1042744D02*
X1048256D01*
X1042744Y808902D02*
X1048256D01*
X1044850Y810279D02*
X1046150D01*
X1045500Y809630D02*
Y810929D01*
X927819Y632638D02*
Y635394D01*
X933331Y632638D02*
Y635394D01*
X927819D02*
X933331D01*
X927819Y632638D02*
X933331D01*
X929925Y634016D02*
X931224D01*
X930575Y633366D02*
Y634665D01*
X1010622Y680375D02*
X1013378D01*
X1010622Y674863D02*
X1013378D01*
X1010622D02*
Y680375D01*
X1013378Y674863D02*
Y680375D01*
X1012000Y676970D02*
Y678269D01*
X1011350Y677619D02*
X1012650D01*
X1008122Y680375D02*
X1010878D01*
X1008122Y674863D02*
X1010878D01*
X1008122D02*
Y680375D01*
X1010878Y674863D02*
Y680375D01*
X1009500Y676970D02*
Y678269D01*
X1008850Y677619D02*
X1010150D01*
X998476Y656677D02*
Y659433D01*
X992965Y656677D02*
Y659433D01*
X998476D01*
X992965Y656677D02*
X998476D01*
X995071Y658055D02*
X996370D01*
X995720Y657406D02*
Y658705D01*
X998476Y653335D02*
Y656091D01*
X992965Y653335D02*
Y656091D01*
X998476D01*
X992965Y653335D02*
X998476D01*
X995071Y654713D02*
X996370D01*
X995720Y654063D02*
Y655362D01*
X1024918Y680370D02*
X1027674D01*
X1024918Y674858D02*
X1027674D01*
X1024918D02*
Y680370D01*
X1027674Y674858D02*
Y680370D01*
X1026296Y676965D02*
Y678264D01*
X1025647Y677614D02*
X1026946D01*
X1027880Y680375D02*
X1030636D01*
X1027880Y674863D02*
X1030636D01*
X1027880D02*
Y680375D01*
X1030636Y674863D02*
Y680375D01*
X1029258Y676970D02*
Y678269D01*
X1028608Y677619D02*
X1029907D01*
X990744Y672780D02*
Y675535D01*
X996256Y672780D02*
Y675535D01*
X990744Y672780D02*
X996256D01*
X990744Y675535D02*
X996256D01*
X992850Y674157D02*
X994150D01*
X993500Y673508D02*
Y674807D01*
X990744Y669437D02*
Y672193D01*
X996256Y669437D02*
Y672193D01*
X990744Y669437D02*
X996256D01*
X990744Y672193D02*
X996256D01*
X992850Y670815D02*
X994150D01*
X993500Y670165D02*
Y671465D01*
X990744Y676122D02*
Y678878D01*
X996256Y676122D02*
Y678878D01*
X990744Y676122D02*
X996256D01*
X990744Y678878D02*
X996256D01*
X992850Y677500D02*
X994150D01*
X993500Y676850D02*
Y678150D01*
X998476Y643307D02*
Y646063D01*
X992965Y643307D02*
Y646063D01*
X998476D01*
X992965Y643307D02*
X998476D01*
X995071Y644685D02*
X996370D01*
X995720Y644035D02*
Y645335D01*
X998476Y629937D02*
Y632693D01*
X992965Y629937D02*
Y632693D01*
X998476D01*
X992965Y629937D02*
X998476D01*
X995071Y631315D02*
X996370D01*
X995720Y630665D02*
Y631965D01*
X998476Y633280D02*
Y636035D01*
X992965Y633280D02*
Y636035D01*
X998476D01*
X992965Y633280D02*
X998476D01*
X995071Y634657D02*
X996370D01*
X995720Y634008D02*
Y635307D01*
X998476Y636622D02*
Y639378D01*
X992965Y636622D02*
Y639378D01*
X998476D01*
X992965Y636622D02*
X998476D01*
X995071Y638000D02*
X996370D01*
X995720Y637350D02*
Y638650D01*
X998476Y639965D02*
Y642721D01*
X992965Y639965D02*
Y642721D01*
X998476D01*
X992965Y639965D02*
X998476D01*
X995071Y641342D02*
X996370D01*
X995720Y640693D02*
Y641992D01*
X998476Y619909D02*
Y622665D01*
X992965Y619909D02*
Y622665D01*
X998476D01*
X992965Y619909D02*
X998476D01*
X995071Y621287D02*
X996370D01*
X995720Y620638D02*
Y621937D01*
X998476Y623252D02*
Y626008D01*
X992965Y623252D02*
Y626008D01*
X998476D01*
X992965Y623252D02*
X998476D01*
X995071Y624630D02*
X996370D01*
X995720Y623980D02*
Y625280D01*
X1046744Y660122D02*
Y662878D01*
X1052256Y660122D02*
Y662878D01*
X1046744Y660122D02*
X1052256D01*
X1046744Y662878D02*
X1052256D01*
X1048850Y661500D02*
X1050150D01*
X1049500Y660850D02*
Y662150D01*
X1046744Y656122D02*
Y658878D01*
X1052256Y656122D02*
Y658878D01*
X1046744Y656122D02*
X1052256D01*
X1046744Y658878D02*
X1052256D01*
X1048850Y657500D02*
X1050150D01*
X1049500Y656850D02*
Y658150D01*
X1046744Y652622D02*
Y655378D01*
X1052256Y652622D02*
Y655378D01*
X1046744Y652622D02*
X1052256D01*
X1046744Y655378D02*
X1052256D01*
X1048850Y654000D02*
X1050150D01*
X1049500Y653350D02*
Y654650D01*
X1046744Y664122D02*
Y666878D01*
X1052256Y664122D02*
Y666878D01*
X1046744Y664122D02*
X1052256D01*
X1046744Y666878D02*
X1052256D01*
X1048850Y665500D02*
X1050150D01*
X1049500Y664850D02*
Y666150D01*
X896000Y693350D02*
Y694650D01*
X895350Y694000D02*
X896650D01*
X893244Y692622D02*
X898756D01*
X893244Y695378D02*
X898756D01*
Y692622D02*
Y695378D01*
X893244Y692622D02*
Y695378D01*
D175*
X735476Y571476D02*
X847681D01*
X735476D02*
Y693524D01*
X847681D01*
Y571476D02*
Y693524D01*
M02*
