G04*
G04 #@! TF.GenerationSoftware,Altium Limited,Altium Designer,20.2.5 (213)*
G04*
G04 Layer_Color=8388736*
%FSLAX25Y25*%
%MOIN*%
G70*
G04*
G04 #@! TF.SameCoordinates,0EDA941F-9717-4D80-9818-445CF3A130AC*
G04*
G04*
G04 #@! TF.FilePolarity,Negative*
G04*
G01*
G75*
%ADD20R,0.02756X0.02913*%
%ADD21R,0.04134X0.04134*%
%ADD22R,0.04134X0.04134*%
%ADD23R,0.03740X0.03347*%
%ADD24R,0.03150X0.03937*%
%ADD25R,0.03937X0.03543*%
%ADD26R,0.01968X0.05709*%
%ADD27R,0.06299X0.07874*%
G04:AMPARAMS|DCode=28|XSize=63.78mil|YSize=14.96mil|CornerRadius=2.35mil|HoleSize=0mil|Usage=FLASHONLY|Rotation=0.000|XOffset=0mil|YOffset=0mil|HoleType=Round|Shape=RoundedRectangle|*
%AMROUNDEDRECTD28*
21,1,0.06378,0.01025,0,0,0.0*
21,1,0.05907,0.01496,0,0,0.0*
1,1,0.00471,0.02954,-0.00513*
1,1,0.00471,-0.02954,-0.00513*
1,1,0.00471,-0.02954,0.00513*
1,1,0.00471,0.02954,0.00513*
%
%ADD28ROUNDEDRECTD28*%
G04:AMPARAMS|DCode=29|XSize=63.78mil|YSize=14.96mil|CornerRadius=2.35mil|HoleSize=0mil|Usage=FLASHONLY|Rotation=90.000|XOffset=0mil|YOffset=0mil|HoleType=Round|Shape=RoundedRectangle|*
%AMROUNDEDRECTD29*
21,1,0.06378,0.01025,0,0,90.0*
21,1,0.05907,0.01496,0,0,90.0*
1,1,0.00471,0.00513,0.02954*
1,1,0.00471,0.00513,-0.02954*
1,1,0.00471,-0.00513,-0.02954*
1,1,0.00471,-0.00513,0.02954*
%
%ADD29ROUNDEDRECTD29*%
%ADD30R,0.03543X0.03937*%
%ADD31R,0.03937X0.03937*%
%ADD32R,0.06299X0.03937*%
%ADD33R,0.03937X0.06299*%
%ADD34R,0.03543X0.02362*%
%ADD35R,0.01778X0.02132*%
%ADD36R,0.03347X0.03740*%
%ADD37R,0.03937X0.04331*%
G04:AMPARAMS|DCode=38|XSize=59.06mil|YSize=86.61mil|CornerRadius=15.75mil|HoleSize=0mil|Usage=FLASHONLY|Rotation=270.000|XOffset=0mil|YOffset=0mil|HoleType=Round|Shape=RoundedRectangle|*
%AMROUNDEDRECTD38*
21,1,0.05906,0.05512,0,0,270.0*
21,1,0.02756,0.08661,0,0,270.0*
1,1,0.03150,-0.02756,-0.01378*
1,1,0.03150,-0.02756,0.01378*
1,1,0.03150,0.02756,0.01378*
1,1,0.03150,0.02756,-0.01378*
%
%ADD38ROUNDEDRECTD38*%
%ADD39R,0.02756X0.06102*%
%ADD40R,0.04921X0.04528*%
%ADD41C,0.05315*%
%ADD42R,0.02132X0.01778*%
%ADD43R,0.04331X0.03937*%
%ADD44R,0.06102X0.02756*%
G04:AMPARAMS|DCode=45|XSize=52.76mil|YSize=22.05mil|CornerRadius=6.5mil|HoleSize=0mil|Usage=FLASHONLY|Rotation=180.000|XOffset=0mil|YOffset=0mil|HoleType=Round|Shape=RoundedRectangle|*
%AMROUNDEDRECTD45*
21,1,0.05276,0.00906,0,0,180.0*
21,1,0.03976,0.02205,0,0,180.0*
1,1,0.01299,-0.01988,0.00453*
1,1,0.01299,0.01988,0.00453*
1,1,0.01299,0.01988,-0.00453*
1,1,0.01299,-0.01988,-0.00453*
%
%ADD45ROUNDEDRECTD45*%
%ADD46R,0.07677X0.13780*%
%ADD47R,0.05512X0.04724*%
%ADD48R,0.01575X0.03740*%
%ADD49R,0.03740X0.01575*%
%ADD50R,0.10433X0.10433*%
%ADD51R,0.04724X0.05512*%
G04:AMPARAMS|DCode=52|XSize=37.8mil|YSize=14.57mil|CornerRadius=3.3mil|HoleSize=0mil|Usage=FLASHONLY|Rotation=0.000|XOffset=0mil|YOffset=0mil|HoleType=Round|Shape=RoundedRectangle|*
%AMROUNDEDRECTD52*
21,1,0.03780,0.00797,0,0,0.0*
21,1,0.03120,0.01457,0,0,0.0*
1,1,0.00659,0.01560,-0.00399*
1,1,0.00659,-0.01560,-0.00399*
1,1,0.00659,-0.01560,0.00399*
1,1,0.00659,0.01560,0.00399*
%
%ADD52ROUNDEDRECTD52*%
%ADD53R,0.10000X0.17480*%
%ADD54R,0.07480X0.04331*%
%ADD55R,0.08661X0.08661*%
G04:AMPARAMS|DCode=56|XSize=37.01mil|YSize=14.17mil|CornerRadius=3.25mil|HoleSize=0mil|Usage=FLASHONLY|Rotation=0.000|XOffset=0mil|YOffset=0mil|HoleType=Round|Shape=RoundedRectangle|*
%AMROUNDEDRECTD56*
21,1,0.03701,0.00768,0,0,0.0*
21,1,0.03051,0.01417,0,0,0.0*
1,1,0.00650,0.01526,-0.00384*
1,1,0.00650,-0.01526,-0.00384*
1,1,0.00650,-0.01526,0.00384*
1,1,0.00650,0.01526,0.00384*
%
%ADD56ROUNDEDRECTD56*%
G04:AMPARAMS|DCode=57|XSize=37.01mil|YSize=14.17mil|CornerRadius=3.25mil|HoleSize=0mil|Usage=FLASHONLY|Rotation=90.000|XOffset=0mil|YOffset=0mil|HoleType=Round|Shape=RoundedRectangle|*
%AMROUNDEDRECTD57*
21,1,0.03701,0.00768,0,0,90.0*
21,1,0.03051,0.01417,0,0,90.0*
1,1,0.00650,0.00384,0.01526*
1,1,0.00650,0.00384,-0.01526*
1,1,0.00650,-0.00384,-0.01526*
1,1,0.00650,-0.00384,0.01526*
%
%ADD57ROUNDEDRECTD57*%
%ADD58R,0.07480X0.02756*%
%ADD59C,0.03098*%
%ADD60R,0.02362X0.01575*%
%ADD61R,0.06299X0.08740*%
%ADD62R,0.02913X0.02756*%
%ADD63R,0.06693X0.05315*%
%ADD64R,0.01772X0.02677*%
%ADD65R,0.02677X0.01772*%
%ADD66R,0.03937X0.03150*%
%ADD67R,0.05906X0.05512*%
%ADD68R,0.05315X0.03347*%
%ADD69R,0.11378X0.03307*%
%ADD70R,0.02762X0.02959*%
%ADD71R,0.05906X0.11417*%
%ADD72R,0.11417X0.05906*%
%ADD73R,0.05512X0.05906*%
G04:AMPARAMS|DCode=74|XSize=74.8mil|YSize=78.74mil|CornerRadius=19.68mil|HoleSize=0mil|Usage=FLASHONLY|Rotation=180.000|XOffset=0mil|YOffset=0mil|HoleType=Round|Shape=RoundedRectangle|*
%AMROUNDEDRECTD74*
21,1,0.07480,0.03937,0,0,180.0*
21,1,0.03543,0.07874,0,0,180.0*
1,1,0.03937,-0.01772,0.01968*
1,1,0.03937,0.01772,0.01968*
1,1,0.03937,0.01772,-0.01968*
1,1,0.03937,-0.01772,-0.01968*
%
%ADD74ROUNDEDRECTD74*%
%ADD75C,0.06102*%
%ADD76C,0.01378*%
%ADD77C,0.07284*%
%ADD78R,0.10138X0.10138*%
%ADD79C,0.10138*%
%ADD80C,0.01968*%
%ADD81C,0.00394*%
%ADD82C,0.06394*%
%ADD83C,0.02362*%
D20*
X911988Y638937D02*
D03*
X908524D02*
D03*
X911988Y629095D02*
D03*
X908524D02*
D03*
X927319Y593705D02*
D03*
X923854D02*
D03*
D21*
X985750Y865519D02*
D03*
X979844D02*
D03*
X762953Y780034D02*
D03*
X757047D02*
D03*
X762953Y789575D02*
D03*
X757047D02*
D03*
D22*
X977287Y576953D02*
D03*
Y571047D02*
D03*
X886000Y823905D02*
D03*
Y818000D02*
D03*
X876000Y823953D02*
D03*
Y818047D02*
D03*
D23*
X886000Y810862D02*
D03*
Y806138D02*
D03*
X876000Y810862D02*
D03*
Y806138D02*
D03*
X808000Y552378D02*
D03*
Y557102D02*
D03*
X802631D02*
D03*
Y552378D02*
D03*
X896522Y572850D02*
D03*
Y568125D02*
D03*
Y546493D02*
D03*
Y551217D02*
D03*
X985750Y854593D02*
D03*
Y859317D02*
D03*
X778000Y837835D02*
D03*
Y842559D02*
D03*
X860492Y838362D02*
D03*
Y833638D02*
D03*
X1130812Y853638D02*
D03*
Y858362D02*
D03*
X1124750Y853638D02*
D03*
Y858362D02*
D03*
X1118688Y853638D02*
D03*
Y858362D02*
D03*
X1124938Y826138D02*
D03*
Y830862D02*
D03*
X1118875Y826138D02*
D03*
Y830862D02*
D03*
X762953Y797138D02*
D03*
Y801862D02*
D03*
X752000Y816362D02*
D03*
Y811638D02*
D03*
Y822638D02*
D03*
Y827362D02*
D03*
X866000Y843638D02*
D03*
Y848362D02*
D03*
X860492Y848441D02*
D03*
Y843717D02*
D03*
X1018000Y866677D02*
D03*
Y871402D02*
D03*
X803000Y734862D02*
D03*
Y730138D02*
D03*
X769476Y797138D02*
D03*
Y801862D02*
D03*
X915000Y688419D02*
D03*
Y683695D02*
D03*
X884500Y731008D02*
D03*
Y726284D02*
D03*
X1125062Y802992D02*
D03*
Y798268D02*
D03*
X1119000Y802992D02*
D03*
Y798268D02*
D03*
X1131125Y802992D02*
D03*
Y798268D02*
D03*
X1131000Y830862D02*
D03*
Y826138D02*
D03*
X776000Y801862D02*
D03*
Y797138D02*
D03*
X770638Y784322D02*
D03*
Y779598D02*
D03*
X803075Y744998D02*
D03*
Y740274D02*
D03*
X793500Y788335D02*
D03*
Y793059D02*
D03*
X787500Y793000D02*
D03*
Y788276D02*
D03*
Y782362D02*
D03*
Y777638D02*
D03*
X844000Y769362D02*
D03*
Y764638D02*
D03*
D24*
X870941Y884260D02*
D03*
X876059D02*
D03*
X873500Y891740D02*
D03*
X1009000Y872189D02*
D03*
X1011559Y864709D02*
D03*
X1006441D02*
D03*
D25*
X864500Y884539D02*
D03*
Y889461D02*
D03*
X958000Y747961D02*
D03*
Y743039D02*
D03*
X784500Y842461D02*
D03*
Y837539D02*
D03*
X921489Y675461D02*
D03*
Y670539D02*
D03*
X1075961Y671634D02*
D03*
Y676555D02*
D03*
X921489Y659039D02*
D03*
Y663961D02*
D03*
X1124500Y694413D02*
D03*
Y699335D02*
D03*
X937000Y650961D02*
D03*
Y646039D02*
D03*
X921489Y652461D02*
D03*
Y647539D02*
D03*
X1075000Y639461D02*
D03*
Y634539D02*
D03*
X1076500Y614539D02*
D03*
Y619461D02*
D03*
X871000Y857890D02*
D03*
Y862811D02*
D03*
X1111000Y589461D02*
D03*
Y584539D02*
D03*
X1089000Y586764D02*
D03*
Y581843D02*
D03*
X999500Y870122D02*
D03*
Y865201D02*
D03*
X1033000Y882039D02*
D03*
Y886961D02*
D03*
X983500Y808539D02*
D03*
Y813461D02*
D03*
D26*
X802004Y545130D02*
D03*
X799445D02*
D03*
X807122D02*
D03*
X809681D02*
D03*
X804563D02*
D03*
X878063Y901591D02*
D03*
X872945D02*
D03*
X875504D02*
D03*
X883181D02*
D03*
X880622D02*
D03*
X939941D02*
D03*
X942500D02*
D03*
X934823D02*
D03*
X932264D02*
D03*
X937382D02*
D03*
D27*
X800626Y534500D02*
D03*
X808500D02*
D03*
X874126Y912220D02*
D03*
X882000D02*
D03*
X941319D02*
D03*
X933445D02*
D03*
D28*
X944118Y700945D02*
D03*
Y698976D02*
D03*
Y697008D02*
D03*
Y695039D02*
D03*
Y693071D02*
D03*
Y691102D02*
D03*
Y689134D02*
D03*
Y687165D02*
D03*
Y685197D02*
D03*
Y683228D02*
D03*
Y681260D02*
D03*
Y679291D02*
D03*
Y677323D02*
D03*
Y675354D02*
D03*
Y673386D02*
D03*
Y671417D02*
D03*
Y669449D02*
D03*
Y667480D02*
D03*
Y665512D02*
D03*
Y663543D02*
D03*
Y661575D02*
D03*
Y659606D02*
D03*
Y657638D02*
D03*
Y655669D02*
D03*
Y653701D02*
D03*
Y651732D02*
D03*
Y649764D02*
D03*
Y647795D02*
D03*
Y645827D02*
D03*
Y643858D02*
D03*
Y641890D02*
D03*
Y639921D02*
D03*
Y637953D02*
D03*
Y635984D02*
D03*
Y634016D02*
D03*
Y632047D02*
D03*
Y630079D02*
D03*
Y628110D02*
D03*
Y626142D02*
D03*
Y624173D02*
D03*
Y622205D02*
D03*
Y620236D02*
D03*
Y618268D02*
D03*
Y616299D02*
D03*
Y614331D02*
D03*
Y612362D02*
D03*
Y610394D02*
D03*
Y608425D02*
D03*
Y606457D02*
D03*
Y604488D02*
D03*
Y602520D02*
D03*
Y600551D02*
D03*
X1059669D02*
D03*
Y602520D02*
D03*
Y604488D02*
D03*
Y606457D02*
D03*
Y608425D02*
D03*
Y610394D02*
D03*
Y612362D02*
D03*
Y614331D02*
D03*
Y616299D02*
D03*
Y618268D02*
D03*
Y620236D02*
D03*
Y622205D02*
D03*
Y624173D02*
D03*
Y626142D02*
D03*
Y628110D02*
D03*
Y630079D02*
D03*
Y632047D02*
D03*
Y634016D02*
D03*
Y635984D02*
D03*
Y637953D02*
D03*
Y639921D02*
D03*
Y641890D02*
D03*
Y643858D02*
D03*
Y645827D02*
D03*
Y647795D02*
D03*
Y649764D02*
D03*
Y651732D02*
D03*
Y653701D02*
D03*
Y655669D02*
D03*
Y657638D02*
D03*
Y659606D02*
D03*
Y661575D02*
D03*
Y663543D02*
D03*
Y665512D02*
D03*
Y667480D02*
D03*
Y669449D02*
D03*
Y671417D02*
D03*
Y673386D02*
D03*
Y675354D02*
D03*
Y677323D02*
D03*
Y679291D02*
D03*
Y681260D02*
D03*
Y683228D02*
D03*
Y685197D02*
D03*
Y687165D02*
D03*
Y689134D02*
D03*
Y691102D02*
D03*
Y693071D02*
D03*
Y695039D02*
D03*
Y697008D02*
D03*
Y698976D02*
D03*
Y700945D02*
D03*
D29*
X951697Y592972D02*
D03*
X953665D02*
D03*
X955634D02*
D03*
X957602D02*
D03*
X959571D02*
D03*
X961539D02*
D03*
X963508D02*
D03*
X965476D02*
D03*
X967445D02*
D03*
X969413D02*
D03*
X971382D02*
D03*
X973350D02*
D03*
X975319D02*
D03*
X977287D02*
D03*
X979256D02*
D03*
X981224D02*
D03*
X983193D02*
D03*
X985161D02*
D03*
X987130D02*
D03*
X989098D02*
D03*
X991067D02*
D03*
X993035D02*
D03*
X995004D02*
D03*
X996972D02*
D03*
X998941D02*
D03*
X1000909D02*
D03*
X1002878D02*
D03*
X1004846D02*
D03*
X1006815D02*
D03*
X1008784D02*
D03*
X1010752D02*
D03*
X1012720D02*
D03*
X1014689D02*
D03*
X1016658D02*
D03*
X1018626D02*
D03*
X1020595D02*
D03*
X1022563D02*
D03*
X1024531D02*
D03*
X1026500D02*
D03*
X1028469D02*
D03*
X1030437D02*
D03*
X1032405D02*
D03*
X1034374D02*
D03*
X1036343D02*
D03*
X1038311D02*
D03*
X1040279D02*
D03*
X1042248D02*
D03*
X1044217D02*
D03*
X1046185D02*
D03*
X1048153D02*
D03*
X1050122D02*
D03*
X1052091D02*
D03*
Y708524D02*
D03*
X1050122D02*
D03*
X1048153D02*
D03*
X1046185D02*
D03*
X1044217D02*
D03*
X1042248D02*
D03*
X1040279D02*
D03*
X1038311D02*
D03*
X1036343D02*
D03*
X1034374D02*
D03*
X1032405D02*
D03*
X1030437D02*
D03*
X1028469D02*
D03*
X1026500D02*
D03*
X1024531D02*
D03*
X1022563D02*
D03*
X1020595D02*
D03*
X1018626D02*
D03*
X1016658D02*
D03*
X1014689D02*
D03*
X1012720D02*
D03*
X1010752D02*
D03*
X1008784D02*
D03*
X1006815D02*
D03*
X1004846D02*
D03*
X1002878D02*
D03*
X1000909D02*
D03*
X998941D02*
D03*
X996972D02*
D03*
X995004D02*
D03*
X993035D02*
D03*
X991067D02*
D03*
X989098D02*
D03*
X987130D02*
D03*
X985161D02*
D03*
X983193D02*
D03*
X981224D02*
D03*
X979256D02*
D03*
X977287D02*
D03*
X975319D02*
D03*
X973350D02*
D03*
X971382D02*
D03*
X969413D02*
D03*
X967445D02*
D03*
X965476D02*
D03*
X963508D02*
D03*
X961539D02*
D03*
X959571D02*
D03*
X957602D02*
D03*
X955634D02*
D03*
X953665D02*
D03*
X951697D02*
D03*
D30*
X966012Y719613D02*
D03*
X961090D02*
D03*
X1065961Y733000D02*
D03*
X1061039D02*
D03*
X1018554Y734339D02*
D03*
X1023475D02*
D03*
X1005539D02*
D03*
X1010461D02*
D03*
X992567Y576842D02*
D03*
X987646D02*
D03*
X875232Y870000D02*
D03*
X870311D02*
D03*
X1015961Y577000D02*
D03*
X1011039D02*
D03*
X1031039Y554500D02*
D03*
X1035961D02*
D03*
X1023039Y577000D02*
D03*
X1027961D02*
D03*
X965421Y577181D02*
D03*
X970343D02*
D03*
X1120643Y593051D02*
D03*
X1115722D02*
D03*
X1091450Y807917D02*
D03*
X1096372D02*
D03*
D31*
X1070988Y857512D02*
D03*
X1065476D02*
D03*
X1076500D02*
D03*
X1065476Y852000D02*
D03*
X1070988D02*
D03*
X1076500D02*
D03*
X1065476Y863024D02*
D03*
X1070988D02*
D03*
X1076500D02*
D03*
D32*
X1042445Y887906D02*
D03*
Y882905D02*
D03*
Y877905D02*
D03*
Y872906D02*
D03*
Y867906D02*
D03*
Y862906D02*
D03*
Y857905D02*
D03*
Y852905D02*
D03*
Y847906D02*
D03*
Y842906D02*
D03*
Y837906D02*
D03*
Y832905D02*
D03*
Y827905D02*
D03*
Y822906D02*
D03*
X1111343D02*
D03*
Y827905D02*
D03*
Y832905D02*
D03*
Y837906D02*
D03*
Y842906D02*
D03*
Y847906D02*
D03*
Y852905D02*
D03*
Y857905D02*
D03*
Y862906D02*
D03*
Y867906D02*
D03*
Y872906D02*
D03*
Y877905D02*
D03*
Y882905D02*
D03*
Y887906D02*
D03*
D33*
X1049394Y817984D02*
D03*
X1054394D02*
D03*
X1059394D02*
D03*
X1064394D02*
D03*
X1069394D02*
D03*
X1074394D02*
D03*
X1079394D02*
D03*
X1084394D02*
D03*
X1089394D02*
D03*
X1094394D02*
D03*
X1099394D02*
D03*
X1104394D02*
D03*
D34*
X1121600Y866228D02*
D03*
X1127900D02*
D03*
Y869772D02*
D03*
X1121600D02*
D03*
X1121788Y838728D02*
D03*
X1128087D02*
D03*
Y842272D02*
D03*
X1121788D02*
D03*
X854862Y627315D02*
D03*
Y620228D02*
D03*
Y616685D02*
D03*
X850138D02*
D03*
Y620228D02*
D03*
Y627315D02*
D03*
Y623772D02*
D03*
X854862D02*
D03*
X1121913Y810858D02*
D03*
X1128212D02*
D03*
Y814402D02*
D03*
X1121913D02*
D03*
D35*
X812211Y554779D02*
D03*
Y552220D02*
D03*
X798323Y554779D02*
D03*
Y552220D02*
D03*
X1049394Y804720D02*
D03*
Y807279D02*
D03*
D36*
X824138Y545633D02*
D03*
X828862D02*
D03*
X798103Y562577D02*
D03*
X802827D02*
D03*
X812862D02*
D03*
X808138D02*
D03*
X1077811Y697472D02*
D03*
X1073087D02*
D03*
X1077811Y691972D02*
D03*
X1073087D02*
D03*
X977287Y564000D02*
D03*
X982012D02*
D03*
X1079862Y656870D02*
D03*
X1075138D02*
D03*
X1072642Y604488D02*
D03*
X1077366D02*
D03*
X1079862Y651732D02*
D03*
X1075138D02*
D03*
X1041224Y577000D02*
D03*
X1036500D02*
D03*
X992862Y564000D02*
D03*
X988138D02*
D03*
X1041224Y571000D02*
D03*
X1036500D02*
D03*
X775362Y790500D02*
D03*
X770638D02*
D03*
X814862Y731500D02*
D03*
X810138D02*
D03*
X801638Y822984D02*
D03*
X806362D02*
D03*
X772724Y817079D02*
D03*
X768000D02*
D03*
D37*
X1061343Y738500D02*
D03*
X1066658D02*
D03*
X1023672Y740295D02*
D03*
X1018357D02*
D03*
X1010658Y740453D02*
D03*
X1005342D02*
D03*
X965981Y725915D02*
D03*
X960666D02*
D03*
X875528Y876500D02*
D03*
X870213D02*
D03*
X993157Y571000D02*
D03*
X987842D02*
D03*
X1036158Y560500D02*
D03*
X1030842D02*
D03*
X1028158Y571000D02*
D03*
X1022843D02*
D03*
X970658D02*
D03*
X965343D02*
D03*
X1010843D02*
D03*
X1016158D02*
D03*
X984157Y876000D02*
D03*
X978843D02*
D03*
X809303Y794500D02*
D03*
X803988D02*
D03*
X860972Y746488D02*
D03*
X855657D02*
D03*
X850342Y769500D02*
D03*
X855657D02*
D03*
X801342Y830500D02*
D03*
X806658D02*
D03*
D38*
X1030913Y795642D02*
D03*
Y813358D02*
D03*
X995087D02*
D03*
Y795642D02*
D03*
X1054992Y562479D02*
D03*
Y544762D02*
D03*
X1090819D02*
D03*
Y562479D02*
D03*
X1060587Y783642D02*
D03*
Y801358D02*
D03*
X1096413D02*
D03*
Y783642D02*
D03*
X756087Y706642D02*
D03*
Y724358D02*
D03*
X791913D02*
D03*
Y706642D02*
D03*
D39*
X950500Y765228D02*
D03*
X945500D02*
D03*
X940500D02*
D03*
X935500D02*
D03*
X950500Y743772D02*
D03*
X945500D02*
D03*
X940500D02*
D03*
X935500D02*
D03*
D40*
X904405Y567646D02*
D03*
X917595D02*
D03*
Y573354D02*
D03*
X904405D02*
D03*
Y545979D02*
D03*
X917595D02*
D03*
Y551687D02*
D03*
X904405D02*
D03*
D41*
X951500Y545250D02*
D03*
Y553188D02*
D03*
Y569063D02*
D03*
Y577000D02*
D03*
Y561125D02*
D03*
X961500Y758500D02*
D03*
X900000Y748500D02*
D03*
Y757500D02*
D03*
X861500Y560000D02*
D03*
Y570500D02*
D03*
Y538750D02*
D03*
Y549000D02*
D03*
X904500Y669500D02*
D03*
X886500Y877783D02*
D03*
Y887000D02*
D03*
X904500Y647500D02*
D03*
Y658000D02*
D03*
X969658Y535000D02*
D03*
X1009000Y555500D02*
D03*
Y545250D02*
D03*
X1129000Y641667D02*
D03*
Y630500D02*
D03*
Y652833D02*
D03*
X1009000Y535000D02*
D03*
X1129000Y664000D02*
D03*
X1010752Y716500D02*
D03*
X1010658Y726500D02*
D03*
D42*
X935003Y624173D02*
D03*
X937562D02*
D03*
X1044221Y810279D02*
D03*
X1046780D02*
D03*
X929295Y634016D02*
D03*
X931854D02*
D03*
X897279Y694000D02*
D03*
X894720D02*
D03*
D43*
X811000Y712157D02*
D03*
Y706843D02*
D03*
X967000Y742842D02*
D03*
Y748158D02*
D03*
X770500Y842150D02*
D03*
Y836835D02*
D03*
X1131500Y694216D02*
D03*
Y699532D02*
D03*
X915268Y652658D02*
D03*
Y647342D02*
D03*
Y664157D02*
D03*
Y658843D02*
D03*
X931114Y650453D02*
D03*
Y645138D02*
D03*
X915268Y675815D02*
D03*
Y670500D02*
D03*
X1082063Y671437D02*
D03*
Y676752D02*
D03*
X1080907Y634437D02*
D03*
Y639752D02*
D03*
X1082118Y619638D02*
D03*
Y614323D02*
D03*
X865137Y862969D02*
D03*
Y857654D02*
D03*
X1024980Y866382D02*
D03*
Y871697D02*
D03*
X781000Y782657D02*
D03*
Y777343D02*
D03*
X833500Y751803D02*
D03*
Y746488D02*
D03*
X823000Y826157D02*
D03*
Y820842D02*
D03*
X794133Y836843D02*
D03*
Y842157D02*
D03*
X805500Y811764D02*
D03*
Y817079D02*
D03*
D44*
X1124228Y672500D02*
D03*
Y677500D02*
D03*
Y682500D02*
D03*
Y687500D02*
D03*
X1102772Y672500D02*
D03*
Y677500D02*
D03*
Y682500D02*
D03*
Y687500D02*
D03*
D45*
X819732Y737518D02*
D03*
Y740077D02*
D03*
Y742636D02*
D03*
Y745195D02*
D03*
X810401D02*
D03*
Y742636D02*
D03*
Y740077D02*
D03*
Y737518D02*
D03*
D46*
X824925Y762500D02*
D03*
X803075D02*
D03*
D47*
X763500Y836736D02*
D03*
Y842248D02*
D03*
D48*
X889921Y858677D02*
D03*
X887953D02*
D03*
X885984D02*
D03*
X884016D02*
D03*
X882047D02*
D03*
X880079D02*
D03*
Y843323D02*
D03*
X882047D02*
D03*
X884016D02*
D03*
X885984D02*
D03*
X887953D02*
D03*
X889921D02*
D03*
D49*
X877323Y855921D02*
D03*
Y853953D02*
D03*
Y851984D02*
D03*
Y850016D02*
D03*
Y848047D02*
D03*
Y846079D02*
D03*
X892677D02*
D03*
Y848047D02*
D03*
Y850016D02*
D03*
Y851984D02*
D03*
Y853953D02*
D03*
Y855921D02*
D03*
D50*
X885000Y851000D02*
D03*
D51*
X861169Y754000D02*
D03*
X855657D02*
D03*
D52*
X847882Y791390D02*
D03*
Y789421D02*
D03*
Y787453D02*
D03*
Y785484D02*
D03*
Y783516D02*
D03*
Y781547D02*
D03*
Y779579D02*
D03*
Y777610D02*
D03*
X863118D02*
D03*
Y779579D02*
D03*
Y781547D02*
D03*
Y783516D02*
D03*
Y785484D02*
D03*
Y787453D02*
D03*
Y789421D02*
D03*
Y791390D02*
D03*
D53*
X855500Y784500D02*
D03*
D54*
X919819Y629102D02*
D03*
Y638945D02*
D03*
D55*
X788500Y822000D02*
D03*
D56*
X796118Y826921D02*
D03*
Y824953D02*
D03*
Y822984D02*
D03*
Y821016D02*
D03*
Y819047D02*
D03*
Y817079D02*
D03*
X780882D02*
D03*
Y819047D02*
D03*
Y821016D02*
D03*
Y822984D02*
D03*
Y824953D02*
D03*
Y826921D02*
D03*
D57*
X783579Y829618D02*
D03*
X785547D02*
D03*
X787516D02*
D03*
X789484D02*
D03*
X791453D02*
D03*
X793421D02*
D03*
Y814382D02*
D03*
X791453D02*
D03*
X789484D02*
D03*
X787516D02*
D03*
X785547D02*
D03*
X783579D02*
D03*
D58*
X814500Y819950D02*
D03*
Y826250D02*
D03*
D59*
X864000Y685000D02*
D03*
X869000Y695000D02*
D03*
Y690000D02*
D03*
Y685000D02*
D03*
X864000Y690000D02*
D03*
Y695000D02*
D03*
D60*
X1031244Y541425D02*
D03*
Y544575D02*
D03*
X1036756D02*
D03*
Y541425D02*
D03*
D61*
X836500Y778173D02*
D03*
Y794827D02*
D03*
D62*
X903477Y610956D02*
D03*
Y607491D02*
D03*
D63*
X927299Y610803D02*
D03*
X912339D02*
D03*
X927299Y602142D02*
D03*
X912339D02*
D03*
D64*
X1111032Y605642D02*
D03*
X1113000D02*
D03*
X1114968D02*
D03*
X1111032Y598358D02*
D03*
X1113000D02*
D03*
X1114968D02*
D03*
D65*
X1117626Y604953D02*
D03*
Y602984D02*
D03*
Y601016D02*
D03*
Y599047D02*
D03*
X1108374Y604953D02*
D03*
Y602984D02*
D03*
Y601016D02*
D03*
Y599047D02*
D03*
D66*
X1103740Y584500D02*
D03*
X1096260Y581941D02*
D03*
Y587059D02*
D03*
D67*
X1024075Y879756D02*
D03*
Y886055D02*
D03*
X755500Y835850D02*
D03*
Y842150D02*
D03*
D68*
X957587Y876000D02*
D03*
X970579D02*
D03*
D69*
X874512Y716500D02*
D03*
X858488D02*
D03*
X874512Y721500D02*
D03*
Y726500D02*
D03*
X858488D02*
D03*
X874512Y731500D02*
D03*
X858488D02*
D03*
X874512Y736500D02*
D03*
X858488D02*
D03*
D70*
X816953Y708728D02*
D03*
Y712272D02*
D03*
D71*
X815012Y783500D02*
D03*
X803988D02*
D03*
D72*
X844000Y757512D02*
D03*
Y746488D02*
D03*
D73*
X861957Y762000D02*
D03*
X855657D02*
D03*
D74*
X817161Y534500D02*
D03*
X791965D02*
D03*
X890661Y912220D02*
D03*
X865465D02*
D03*
X924784D02*
D03*
X949980D02*
D03*
D75*
X794721Y545130D02*
D03*
X814406D02*
D03*
X868221Y901591D02*
D03*
X887906D02*
D03*
X947224D02*
D03*
X927539D02*
D03*
D76*
X909000Y914000D02*
D03*
D77*
X759000Y753500D02*
D03*
Y767000D02*
D03*
D78*
X841201Y870500D02*
D03*
D79*
X822500D02*
D03*
X803799D02*
D03*
D80*
X785350Y822000D02*
D03*
X788500Y825150D02*
D03*
X791650Y822000D02*
D03*
X788500Y818850D02*
D03*
Y822000D02*
D03*
D81*
X866500Y680000D02*
D03*
X856500D02*
D03*
Y692500D02*
D03*
X862500Y700000D02*
D03*
X870500D02*
D03*
X876500Y680000D02*
D03*
Y692500D02*
D03*
D82*
X780000Y765799D02*
D03*
Y753594D02*
D03*
X1112409Y552102D02*
D03*
X769890D02*
D03*
Y894610D02*
D03*
X966740Y894610D02*
D03*
D83*
X860972Y746488D02*
D03*
X819732Y749000D02*
D03*
X994779Y680721D02*
D03*
X995409Y778500D02*
D03*
X994779Y667472D02*
D03*
X937322Y888000D02*
D03*
X908524Y629095D02*
D03*
Y638937D02*
D03*
X876000Y806138D02*
D03*
X886000D02*
D03*
X873500Y891740D02*
D03*
X864500Y889461D02*
D03*
X793000Y552870D02*
D03*
X809681Y545130D02*
D03*
X931854Y634016D02*
D03*
X929295D02*
D03*
X1050786Y661591D02*
D03*
X1050780Y657500D02*
D03*
Y654000D02*
D03*
X1020595Y598500D02*
D03*
X1032345Y585328D02*
D03*
X1045201Y582000D02*
D03*
X1066992Y629881D02*
D03*
X1037064Y723406D02*
D03*
X1066921Y618268D02*
D03*
X994779Y670815D02*
D03*
X985000Y658000D02*
D03*
X964000Y622000D02*
D03*
X996972Y598500D02*
D03*
X1058500Y722159D02*
D03*
X1041402Y727328D02*
D03*
X962500Y779500D02*
D03*
X979000Y780500D02*
D03*
X979214Y659500D02*
D03*
X993035Y598500D02*
D03*
X1028500D02*
D03*
X1038500Y632000D02*
D03*
X1048153Y715629D02*
D03*
X1045992Y700295D02*
D03*
X956897Y659922D02*
D03*
X937046Y620236D02*
D03*
X935000Y593823D02*
D03*
X1008784Y598500D02*
D03*
X1038370Y703177D02*
D03*
X1041224Y582000D02*
D03*
X1050740Y665500D02*
D03*
X1081477Y682000D02*
D03*
X1009505Y676267D02*
D03*
X980405Y631631D02*
D03*
X967445Y598500D02*
D03*
X1032452D02*
D03*
X1067016Y606850D02*
D03*
X1047529Y642041D02*
D03*
X950630Y639000D02*
D03*
X960640Y608741D02*
D03*
X985161Y598500D02*
D03*
X1054043Y669449D02*
D03*
X951500Y713500D02*
D03*
X964000Y651000D02*
D03*
X1051371Y599641D02*
D03*
X1054000Y637953D02*
D03*
X1051992Y715629D02*
D03*
X1042314Y703000D02*
D03*
X972500Y720807D02*
D03*
X964000Y625321D02*
D03*
X970750Y647000D02*
D03*
X1014500Y628000D02*
D03*
X994441Y641342D02*
D03*
X1054130Y634008D02*
D03*
X1012000Y676340D02*
D03*
X975116Y717827D02*
D03*
X969407Y604500D02*
D03*
X1077362Y685177D02*
D03*
X984000Y780500D02*
D03*
X959743Y668579D02*
D03*
X954701Y653701D02*
D03*
X954862Y603842D02*
D03*
X937853Y602441D02*
D03*
X980500Y584000D02*
D03*
X1005000Y598500D02*
D03*
X1049177Y582000D02*
D03*
X1038407Y604500D02*
D03*
X1067016Y622205D02*
D03*
X962000Y674000D02*
D03*
X980907Y604620D02*
D03*
X969091Y610709D02*
D03*
X971333Y598500D02*
D03*
X998941Y586279D02*
D03*
X1071049Y645010D02*
D03*
X1042000Y723000D02*
D03*
X951107Y675039D02*
D03*
X979859Y635786D02*
D03*
X1012720Y586279D02*
D03*
X975116Y700000D02*
D03*
X961000Y654000D02*
D03*
X986657Y614120D02*
D03*
X989098Y598500D02*
D03*
X1024713D02*
D03*
X1077000Y728500D02*
D03*
X1067331Y655669D02*
D03*
X1044333Y677323D02*
D03*
X1072231Y687199D02*
D03*
X967445Y701500D02*
D03*
X930500Y679500D02*
D03*
X988000Y647000D02*
D03*
X967500D02*
D03*
X1000909Y598500D02*
D03*
X1044157Y631843D02*
D03*
X1048153Y689000D02*
D03*
X1044804Y727328D02*
D03*
X974000Y647000D02*
D03*
X994441Y621287D02*
D03*
Y634657D02*
D03*
Y631315D02*
D03*
Y658055D02*
D03*
Y651370D02*
D03*
X994480Y654713D02*
D03*
X994441Y648028D02*
D03*
Y644685D02*
D03*
Y638000D02*
D03*
Y627972D02*
D03*
Y624630D02*
D03*
X934518Y624226D02*
D03*
X1111500Y838000D02*
D03*
X1042445Y872906D02*
D03*
Y827905D02*
D03*
X1111343Y882905D02*
D03*
X1042445Y822906D02*
D03*
X1059394Y817984D02*
D03*
X1111500Y833000D02*
D03*
X1111343Y877905D02*
D03*
Y887906D02*
D03*
X1111500Y828000D02*
D03*
X1042445Y852905D02*
D03*
X1111500Y823000D02*
D03*
X1042445Y847906D02*
D03*
Y887906D02*
D03*
X1054500Y735000D02*
D03*
X979661Y767500D02*
D03*
X1061500Y750500D02*
D03*
X1006441Y864709D02*
D03*
X999500Y870122D02*
D03*
X985750Y854593D02*
D03*
X1030913Y813500D02*
D03*
X1119000Y826000D02*
D03*
X1059500Y743657D02*
D03*
X808714Y804726D02*
D03*
X814038D02*
D03*
X819224D02*
D03*
X824575D02*
D03*
X1119000Y798268D02*
D03*
X1125062D02*
D03*
X1058000Y596664D02*
D03*
X967000Y748158D02*
D03*
X945500Y765228D02*
D03*
X965981Y725915D02*
D03*
X960666D02*
D03*
X935500Y743772D02*
D03*
X994740Y674157D02*
D03*
X994852Y677500D02*
D03*
X1077811Y691972D02*
D03*
X915268Y652658D02*
D03*
Y664157D02*
D03*
Y675815D02*
D03*
Y670500D02*
D03*
Y658843D02*
D03*
Y647342D02*
D03*
X931114Y650453D02*
D03*
Y645138D02*
D03*
X1022843Y571000D02*
D03*
X1028158D02*
D03*
X1016158D02*
D03*
X1010843D02*
D03*
X993157D02*
D03*
X987842D02*
D03*
X970658D02*
D03*
X965343D02*
D03*
X1026296Y676374D02*
D03*
X1080907Y639752D02*
D03*
X1082063Y676752D02*
D03*
Y671437D02*
D03*
X1120643Y593051D02*
D03*
X1111000Y589461D02*
D03*
X1089000Y586764D02*
D03*
X1121500Y605642D02*
D03*
X1131500Y694216D02*
D03*
Y699532D02*
D03*
X923854Y593705D02*
D03*
X828862Y545633D02*
D03*
X864000Y690000D02*
D03*
X869000D02*
D03*
X874500Y716500D02*
D03*
Y731500D02*
D03*
X877500Y702000D02*
D03*
X858488Y726500D02*
D03*
Y731500D02*
D03*
Y736500D02*
D03*
X903477Y607491D02*
D03*
X1041224Y577000D02*
D03*
X984157Y876000D02*
D03*
X1024075Y886055D02*
D03*
Y879756D02*
D03*
X1018000Y866677D02*
D03*
X1024980Y866382D02*
D03*
X1011559Y864709D02*
D03*
X1125000Y826000D02*
D03*
X1128087Y842272D02*
D03*
X1127900Y869772D02*
D03*
X1128212Y814402D02*
D03*
X1115000Y616968D02*
D03*
X1131125Y798268D02*
D03*
X755500Y835850D02*
D03*
X752000Y811638D02*
D03*
X768000Y817079D02*
D03*
X781000Y782657D02*
D03*
X793500Y788335D02*
D03*
X793374Y808512D02*
D03*
X806315Y822918D02*
D03*
X805452Y811697D02*
D03*
X822952Y826091D02*
D03*
X784452Y842394D02*
D03*
X794199Y842110D02*
D03*
X847882Y794539D02*
D03*
X863118D02*
D03*
X844000Y764638D02*
D03*
X809303Y794500D02*
D03*
X803988D02*
D03*
X815000Y786000D02*
D03*
Y780500D02*
D03*
X803988Y800000D02*
D03*
X847000Y757500D02*
D03*
X841500Y757512D02*
D03*
X833500Y752157D02*
D03*
X915000Y683695D02*
D03*
X878000Y896000D02*
D03*
X882047Y848047D02*
D03*
Y853953D02*
D03*
X860492Y833638D02*
D03*
X866000Y843638D02*
D03*
X871000Y862811D02*
D03*
X875528Y876500D02*
D03*
X870213D02*
D03*
X872000Y838500D02*
D03*
X876000D02*
D03*
X898500Y903461D02*
D03*
X904768Y906402D02*
D03*
X898500Y898539D02*
D03*
X904500Y893138D02*
D03*
X917500Y903843D02*
D03*
Y907500D02*
D03*
X914000Y897862D02*
D03*
X915000Y775500D02*
D03*
X1096260Y581941D02*
D03*
X1089000Y581843D02*
D03*
X896461Y879500D02*
D03*
X887953Y848047D02*
D03*
Y854084D02*
D03*
X915000Y688500D02*
D03*
X1077366Y604488D02*
D03*
X1036756Y544575D02*
D03*
Y541425D02*
D03*
X1031244D02*
D03*
X1030842Y560500D02*
D03*
X1036158D02*
D03*
X909396Y893103D02*
D03*
X1082200Y619739D02*
D03*
X1091450Y807917D02*
D03*
X1096413Y801358D02*
D03*
X1096372Y807917D02*
D03*
X1096413Y783642D02*
D03*
X983500Y808539D02*
D03*
X1124228Y672500D02*
D03*
X1102772Y687500D02*
D03*
X1124228Y677500D02*
D03*
X1102772D02*
D03*
Y672500D02*
D03*
X1080907Y634437D02*
D03*
X1088000Y625000D02*
D03*
X1097055D02*
D03*
X1009000Y555500D02*
D03*
Y535000D02*
D03*
Y545250D02*
D03*
X969658Y535000D02*
D03*
X861500Y538750D02*
D03*
Y549000D02*
D03*
Y560000D02*
D03*
X904500Y658000D02*
D03*
Y647500D02*
D03*
Y669500D02*
D03*
X791913Y706642D02*
D03*
X756087D02*
D03*
X816953Y712272D02*
D03*
Y708728D02*
D03*
X885984Y871758D02*
D03*
X891378Y879494D02*
D03*
X777122Y742917D02*
D03*
X762060Y743881D02*
D03*
X775190Y823813D02*
D03*
X781521Y833159D02*
D03*
X1044221Y810279D02*
D03*
X1049354Y804720D02*
D03*
X1036672Y585328D02*
D03*
X854862Y616685D02*
D03*
X850138Y623772D02*
D03*
X811000Y706843D02*
D03*
X790358Y744119D02*
D03*
X854855Y627206D02*
D03*
X803227Y730365D02*
D03*
X861500Y570500D02*
D03*
X861000Y623763D02*
D03*
X861169Y754000D02*
D03*
X861957Y762000D02*
D03*
X992862Y564000D02*
D03*
X1082118Y614323D02*
D03*
X1102772Y682500D02*
D03*
X1060587Y801358D02*
D03*
Y783642D02*
D03*
X914000Y893138D02*
D03*
X935130Y797843D02*
D03*
Y803158D02*
D03*
X1041224Y571000D02*
D03*
X1111000Y610500D02*
D03*
X896522Y546493D02*
D03*
X904405Y545979D02*
D03*
X917595D02*
D03*
Y567646D02*
D03*
Y551687D02*
D03*
Y573354D02*
D03*
X904405D02*
D03*
X896522Y572850D02*
D03*
X891500Y574138D02*
D03*
X1015407Y604620D02*
D03*
X1049907Y614120D02*
D03*
X1017500Y609500D02*
D03*
X891500Y564862D02*
D03*
X1012500Y609500D02*
D03*
X1032657Y614120D02*
D03*
X1044157Y622389D02*
D03*
X1054992Y544762D02*
D03*
X1090819D02*
D03*
X935500Y765228D02*
D03*
X942000Y890000D02*
D03*
X1031392Y785453D02*
D03*
X1023672D02*
D03*
X1018357D02*
D03*
X1010658D02*
D03*
X1004842D02*
D03*
X995087Y795642D02*
D03*
X1030913D02*
D03*
X940500Y743772D02*
D03*
X967000Y742842D02*
D03*
X907473Y748500D02*
D03*
X1102421Y747500D02*
D03*
X1062850Y714024D02*
D03*
X1069138Y723000D02*
D03*
X1081173Y733500D02*
D03*
X1124228Y682500D02*
D03*
X1087850Y714000D02*
D03*
X1101673Y719890D02*
D03*
X1029258Y676379D02*
D03*
X1045000Y786500D02*
D03*
X1057000Y789000D02*
D03*
X897279Y694000D02*
D03*
X884500Y731008D02*
D03*
X1090000Y735000D02*
D03*
X894720Y694000D02*
D03*
X907236Y843086D02*
D03*
X817000Y558000D02*
D03*
X798323Y554740D02*
D03*
X798103Y562577D02*
D03*
X813000D02*
D03*
M02*
