G04*
G04 #@! TF.GenerationSoftware,Altium Limited,Altium Designer,20.2.5 (213)*
G04*
G04 Layer_Color=16711935*
%FSLAX25Y25*%
%MOIN*%
G70*
G04*
G04 #@! TF.SameCoordinates,0EDA941F-9717-4D80-9818-445CF3A130AC*
G04*
G04*
G04 #@! TF.FilePolarity,Positive*
G04*
G01*
G75*
%ADD11C,0.00787*%
%ADD14C,0.00394*%
%ADD15C,0.00787*%
%ADD17C,0.00500*%
%ADD18C,0.01000*%
%ADD172C,0.00197*%
D11*
X1037130Y887906D02*
X1036343D01*
X1037130D01*
X1121994Y862291D02*
X1121207D01*
X1121994D01*
X1122182Y834791D02*
X1121394D01*
X1122182D01*
X1063646Y747500D02*
X1062858D01*
X1063646D01*
X1078614Y720579D02*
X1077827D01*
X1078614D01*
X769858Y739965D02*
X769071D01*
X769858D01*
X824909Y737420D02*
X824121D01*
X824909D01*
X844299Y792453D02*
X843709Y793043D01*
X843118Y792453D01*
X843709Y791862D01*
X844299Y792453D01*
X842579Y850815D02*
X841791D01*
X842579D01*
X777181Y826921D02*
X776394D01*
X777181D01*
X1122307Y806921D02*
X1121519D01*
X1122307D01*
X858882Y741559D02*
X858095D01*
X858882D01*
X962083Y771032D02*
X1062201D01*
X962083Y753709D02*
Y771032D01*
Y753709D02*
X1062201D01*
Y771032D01*
X899469Y784571D02*
X940532D01*
X899469Y767248D02*
Y784571D01*
Y767248D02*
X940532D01*
Y784571D01*
D14*
X951268Y758831D02*
X951004Y759815D01*
X950284Y760535D01*
X949299Y760799D01*
X948315Y760535D01*
X947594Y759815D01*
X947331Y758831D01*
X947594Y757846D01*
X948315Y757126D01*
X949299Y756862D01*
X950284Y757126D01*
X951004Y757846D01*
X951268Y758831D01*
X906002Y574929D02*
X905548Y575715D01*
X904641D01*
X904187Y574929D01*
X904641Y574143D01*
X905548D01*
X906002Y574929D01*
Y553262D02*
X905548Y554048D01*
X904641D01*
X904187Y553262D01*
X904641Y552476D01*
X905548D01*
X906002Y553262D01*
X852327Y626921D02*
X851767Y627693D01*
X850859Y627398D01*
Y626444D01*
X851767Y626149D01*
X852327Y626921D01*
X1111138Y686299D02*
X1110874Y687284D01*
X1110153Y688004D01*
X1109169Y688268D01*
X1108185Y688004D01*
X1107465Y687284D01*
X1107201Y686299D01*
X1107465Y685315D01*
X1108185Y684594D01*
X1109169Y684331D01*
X1110153Y684594D01*
X1110874Y685315D01*
X1111138Y686299D01*
X908228Y639961D02*
X912284D01*
Y637913D02*
Y639961D01*
X908228Y637913D02*
Y639961D01*
Y637913D02*
X912284D01*
X908228Y630118D02*
X912284D01*
Y628071D02*
Y630118D01*
X908228Y628071D02*
Y630118D01*
Y628071D02*
X912284D01*
X979648Y866042D02*
X980699Y867093D01*
X979648Y863944D02*
Y867093D01*
Y863944D02*
X985947D01*
Y867093D01*
X979648D02*
X985947D01*
X756850Y780557D02*
X757902Y781608D01*
X756850Y778459D02*
Y781608D01*
Y778459D02*
X763150D01*
Y781608D01*
X756850D02*
X763150D01*
X756850Y790098D02*
X757902Y791150D01*
X756850Y788000D02*
Y791150D01*
Y788000D02*
X763150D01*
Y791150D01*
X756850D02*
X763150D01*
X975713Y571902D02*
X976764Y570850D01*
X975713D02*
X978862D01*
Y577150D01*
X975713D02*
X978862D01*
X975713Y570850D02*
Y577150D01*
X884425Y818854D02*
X885476Y817803D01*
X884425D02*
X887575D01*
Y824102D01*
X884425D02*
X887575D01*
X884425Y817803D02*
Y824102D01*
X874425Y818902D02*
X875476Y817850D01*
X874425D02*
X877575D01*
Y824150D01*
X874425D02*
X877575D01*
X874425Y817850D02*
Y824150D01*
X884130Y811945D02*
X887870D01*
X884130Y805055D02*
X887870D01*
Y811945D01*
X884130Y805055D02*
Y811945D01*
X874130D02*
X877870D01*
X874130Y805055D02*
X877870D01*
Y811945D01*
X874130Y805055D02*
Y811945D01*
X869366Y887409D02*
Y890461D01*
Y887409D02*
X871236Y885539D01*
X877634D01*
Y890461D01*
X869366D02*
X877634D01*
X869366Y890461D02*
X869366Y890461D01*
X862630Y883555D02*
X866370D01*
X862630Y890445D02*
X866370D01*
X862630Y883555D02*
Y890445D01*
X866370Y883555D02*
Y890445D01*
X960106Y717743D02*
X966996D01*
X960106Y721483D02*
X966996D01*
Y717743D02*
Y721483D01*
X960106Y717743D02*
Y721483D01*
X994480Y650721D02*
X996961D01*
X994480Y652020D02*
X996961D01*
X994480Y650721D02*
Y652020D01*
X996961Y650721D02*
Y652020D01*
X994480Y647378D02*
X996961D01*
X994480Y648677D02*
X996961D01*
X994480Y647378D02*
Y648677D01*
X996961Y647378D02*
Y648677D01*
X1037350Y729847D02*
X1038650D01*
X1037350Y727367D02*
X1038650D01*
X1037350D02*
Y729847D01*
X1038650Y727367D02*
Y729847D01*
X944130Y796555D02*
X947870D01*
X944130Y803445D02*
X947870D01*
Y796555D02*
Y803445D01*
X944130Y796555D02*
Y803445D01*
X1061370Y737555D02*
Y744445D01*
X1057630Y737555D02*
Y744445D01*
Y737555D02*
X1061370D01*
X1057630Y744445D02*
X1061370D01*
X994480Y627323D02*
X996961D01*
X994480Y628622D02*
X996961D01*
X994480Y627323D02*
Y628622D01*
X996961Y627323D02*
Y628622D01*
X995429Y680760D02*
Y683240D01*
X994130Y680760D02*
Y683240D01*
Y680760D02*
X995429D01*
X994130Y683240D02*
X995429D01*
X992260Y668122D02*
X994740D01*
X992260Y666823D02*
X994740D01*
Y668122D01*
X992260Y666823D02*
Y668122D01*
X811561Y554740D02*
X812860D01*
X811561Y552260D02*
X812860D01*
Y554740D01*
X811561Y552260D02*
Y554740D01*
X823055Y543763D02*
Y547503D01*
X829945Y543763D02*
Y547503D01*
X823055D02*
X829945D01*
X823055Y543763D02*
X829945D01*
X806130Y551295D02*
Y558185D01*
X809870Y551295D02*
Y558185D01*
X806130Y551295D02*
X809870D01*
X806130Y558185D02*
X809870D01*
X800760D02*
X804501D01*
X800760Y551295D02*
X804501D01*
Y558185D01*
X800760Y551295D02*
Y558185D01*
X797673Y554740D02*
X798972D01*
X797673Y552260D02*
X798972D01*
Y554740D01*
X797673Y552260D02*
Y554740D01*
X797020Y560707D02*
Y564447D01*
X803910Y560707D02*
Y564447D01*
X797020D02*
X803910D01*
X797020Y560707D02*
X803910D01*
X813945D02*
Y564447D01*
X807055Y560707D02*
Y564447D01*
Y560707D02*
X813945D01*
X807055Y564447D02*
X813945D01*
X1066945Y731130D02*
Y734870D01*
X1060055Y731130D02*
Y734870D01*
Y731130D02*
X1066945D01*
X1060055Y734870D02*
X1066945D01*
X1060555Y740370D02*
X1067445D01*
X1060555Y736630D02*
X1067445D01*
X1060555D02*
Y740370D01*
X1067445Y736630D02*
Y740370D01*
X1042052Y727367D02*
Y729847D01*
X1040753Y727367D02*
Y729847D01*
Y727367D02*
X1042052D01*
X1040753Y729847D02*
X1042052D01*
X1044155D02*
X1045454D01*
X1044155Y727367D02*
X1045454D01*
X1044155D02*
Y729847D01*
X1045454Y727367D02*
Y729847D01*
X1044740Y722350D02*
Y723650D01*
X1042260Y722350D02*
Y723650D01*
X1044740D01*
X1042260Y722350D02*
X1044740D01*
X1096516Y745630D02*
X1103405D01*
X1096516Y749370D02*
X1103405D01*
X1096516Y745630D02*
Y749370D01*
X1103405Y745630D02*
Y749370D01*
X1068055Y736630D02*
X1074945D01*
X1068055Y740370D02*
X1074945D01*
X1068055Y736630D02*
Y740370D01*
X1074945Y736630D02*
Y740370D01*
X1068055Y724870D02*
X1074945D01*
X1068055Y721130D02*
X1074945D01*
Y724870D01*
X1068055Y721130D02*
Y724870D01*
X1075055Y715894D02*
X1081945D01*
X1075055Y712153D02*
X1081945D01*
Y715894D01*
X1075055Y712153D02*
Y715894D01*
X1086669Y711244D02*
Y716756D01*
X1095331Y711244D02*
Y716756D01*
X1086669Y711244D02*
X1095331D01*
X1086669Y716756D02*
X1095331D01*
X1099803Y719102D02*
X1103543D01*
X1099803Y725992D02*
X1103543D01*
Y719102D02*
Y725992D01*
X1099803Y719102D02*
Y725992D01*
X1061669Y711268D02*
Y716780D01*
X1070331Y711268D02*
Y716780D01*
X1061669Y711268D02*
X1070331D01*
X1061669Y716780D02*
X1070331D01*
X932760Y810650D02*
X935240D01*
X932760Y809350D02*
X935240D01*
Y810650D01*
X932760Y809350D02*
Y810650D01*
X1017569Y736209D02*
X1024459D01*
X1017569Y732469D02*
X1024459D01*
X1017569D02*
Y736209D01*
X1024459Y732469D02*
Y736209D01*
Y738425D02*
Y742165D01*
X1017569Y738425D02*
Y742165D01*
Y738425D02*
X1024459D01*
X1017569Y742165D02*
X1024459D01*
X1004555Y736209D02*
X1011445D01*
X1004555Y732469D02*
X1011445D01*
X1004555D02*
Y736209D01*
X1011445Y732469D02*
Y736209D01*
Y738583D02*
Y742323D01*
X1004555Y738583D02*
Y742323D01*
Y738583D02*
X1011445D01*
X1004555Y742323D02*
X1011445D01*
X933158Y762374D02*
X952843D01*
X933158Y746626D02*
X952843D01*
Y762374D01*
X933158Y746626D02*
Y762374D01*
X902535Y576799D02*
X919465D01*
Y564595D02*
Y576799D01*
X902535Y564595D02*
X919465D01*
X902535D02*
Y576799D01*
X894652Y573932D02*
X898392D01*
X894652Y567042D02*
X898392D01*
Y573932D01*
X894652Y567042D02*
Y573932D01*
X902535Y555132D02*
X919465D01*
Y542928D02*
Y555132D01*
X902535Y542928D02*
X919465D01*
X902535D02*
Y555132D01*
X894652Y545410D02*
X898392D01*
X894652Y552300D02*
X898392D01*
X894652Y545410D02*
Y552300D01*
X898392Y545410D02*
Y552300D01*
X935042Y623524D02*
Y624823D01*
X937522Y623524D02*
Y624823D01*
X935042D02*
X937522D01*
X935042Y623524D02*
X937522D01*
X933260Y797055D02*
X937000D01*
X933260Y803945D02*
X937000D01*
Y797055D02*
Y803945D01*
X933260Y797055D02*
Y803945D01*
X926988Y797055D02*
Y803945D01*
X930728Y797055D02*
Y803945D01*
X926988D02*
X930728D01*
X926988Y797055D02*
X930728D01*
X812870Y706055D02*
Y712945D01*
X809130Y706055D02*
Y712945D01*
X812870D01*
X809130Y706055D02*
X812870D01*
X849547Y615700D02*
X855453D01*
X849547Y628298D02*
X855453D01*
Y615700D02*
Y628298D01*
X849547Y615700D02*
Y628298D01*
X983880Y853510D02*
X987620D01*
X983880Y860400D02*
X987620D01*
X983880Y853510D02*
Y860400D01*
X987620Y853510D02*
Y860400D01*
X1048744Y804760D02*
X1050043D01*
X1048744Y807240D02*
X1050043D01*
X1048744Y804760D02*
Y807240D01*
X1050043Y804760D02*
Y807240D01*
X1044260Y809630D02*
Y810929D01*
X1046740Y809630D02*
Y810929D01*
X1044260D02*
X1046740D01*
X1044260Y809630D02*
X1046740D01*
X959870Y742055D02*
Y748945D01*
X956130Y742055D02*
Y748945D01*
X959870D01*
X956130Y742055D02*
X959870D01*
X965130D02*
Y748945D01*
X968870Y742055D02*
Y748945D01*
X965130Y742055D02*
X968870D01*
X965130Y748945D02*
X968870D01*
X761055Y742031D02*
Y745772D01*
X767945Y742031D02*
Y745772D01*
X761055Y742031D02*
X767945D01*
X761055Y745772D02*
X767945D01*
X1105626Y670157D02*
X1121374D01*
X1105626Y689843D02*
X1121374D01*
Y670157D02*
Y689843D01*
X1105626Y670157D02*
Y689843D01*
X907408Y892055D02*
X911148D01*
X907408Y898945D02*
X911148D01*
Y892055D02*
Y898945D01*
X907408Y892055D02*
Y898945D01*
X912130Y892055D02*
Y898945D01*
X915870Y892055D02*
Y898945D01*
X912130D02*
X915870D01*
X912130Y892055D02*
X915870D01*
X760744Y835161D02*
X766256D01*
X760744Y843823D02*
X766256D01*
X760744Y835161D02*
Y843823D01*
X766256Y835161D02*
Y843823D01*
X772370Y836047D02*
Y842937D01*
X768630Y836047D02*
Y842937D01*
X772370D01*
X768630Y836047D02*
X772370D01*
X776130Y836752D02*
Y843642D01*
X779870Y836752D02*
Y843642D01*
X776130Y836752D02*
X779870D01*
X776130Y843642D02*
X779870D01*
X782630Y843445D02*
X786370D01*
X782630Y836555D02*
X786370D01*
Y843445D01*
X782630Y836555D02*
Y843445D01*
X929335Y633366D02*
Y634665D01*
X931815Y633366D02*
Y634665D01*
X929335D02*
X931815D01*
X929335Y633366D02*
X931815D01*
X889630Y579945D02*
X893370D01*
X889630Y573055D02*
X893370D01*
X889630D02*
Y579945D01*
X893370Y573055D02*
Y579945D01*
X889630Y559055D02*
X893370D01*
X889630Y565945D02*
X893370D01*
Y559055D02*
Y565945D01*
X889630Y559055D02*
Y565945D01*
X1050972Y778463D02*
Y782203D01*
X1044083Y778463D02*
Y782203D01*
X1050972D01*
X1044083Y778463D02*
X1050972D01*
X1044555Y784630D02*
X1051445D01*
X1044555Y788370D02*
X1051445D01*
X1044555Y784630D02*
Y788370D01*
X1051445Y784630D02*
Y788370D01*
X1011350Y678859D02*
X1012650D01*
X1011350Y676379D02*
X1012650D01*
X1011350D02*
Y678859D01*
X1012650Y676379D02*
Y678859D01*
X1008850D02*
X1010150D01*
X1008850Y676379D02*
X1010150D01*
X1008850D02*
Y678859D01*
X1010150Y676379D02*
Y678859D01*
X996961Y657406D02*
Y658705D01*
X994480Y657406D02*
Y658705D01*
X996961D01*
X994480Y657406D02*
X996961D01*
Y654063D02*
Y655362D01*
X994480Y654063D02*
Y655362D01*
X996961D01*
X994480Y654063D02*
X996961D01*
X1025647Y678854D02*
X1026946D01*
X1025647Y676374D02*
X1026946D01*
X1025647D02*
Y678854D01*
X1026946Y676374D02*
Y678854D01*
X1028608Y678859D02*
X1029907D01*
X1028608Y676379D02*
X1029907D01*
X1028608D02*
Y678859D01*
X1029907Y676379D02*
Y678859D01*
X992260Y673508D02*
Y674807D01*
X994740Y673508D02*
Y674807D01*
X992260Y673508D02*
X994740D01*
X992260Y674807D02*
X994740D01*
X992260Y670165D02*
Y671465D01*
X994740Y670165D02*
Y671465D01*
X992260Y670165D02*
X994740D01*
X992260Y671465D02*
X994740D01*
X992260Y676850D02*
Y678150D01*
X994740Y676850D02*
Y678150D01*
X992260Y676850D02*
X994740D01*
X992260Y678150D02*
X994740D01*
X996961Y644035D02*
Y645335D01*
X994480Y644035D02*
Y645335D01*
X996961D01*
X994480Y644035D02*
X996961D01*
Y630665D02*
Y631965D01*
X994480Y630665D02*
Y631965D01*
X996961D01*
X994480Y630665D02*
X996961D01*
Y634008D02*
Y635307D01*
X994480Y634008D02*
Y635307D01*
X996961D01*
X994480Y634008D02*
X996961D01*
Y637350D02*
Y638650D01*
X994480Y637350D02*
Y638650D01*
X996961D01*
X994480Y637350D02*
X996961D01*
Y640693D02*
Y641992D01*
X994480Y640693D02*
Y641992D01*
X996961D01*
X994480Y640693D02*
X996961D01*
Y620638D02*
Y621937D01*
X994480Y620638D02*
Y621937D01*
X996961D01*
X994480Y620638D02*
X996961D01*
Y623980D02*
Y625280D01*
X994480Y623980D02*
Y625280D01*
X996961D01*
X994480Y623980D02*
X996961D01*
X1048260Y660850D02*
Y662150D01*
X1050740Y660850D02*
Y662150D01*
X1048260Y660850D02*
X1050740D01*
X1048260Y662150D02*
X1050740D01*
X1048260Y656850D02*
Y658150D01*
X1050740Y656850D02*
Y658150D01*
X1048260Y656850D02*
X1050740D01*
X1048260Y658150D02*
X1050740D01*
X1048260Y653350D02*
Y654650D01*
X1050740Y653350D02*
Y654650D01*
X1048260Y653350D02*
X1050740D01*
X1048260Y654650D02*
X1050740D01*
X1048260Y664850D02*
Y666150D01*
X1050740Y664850D02*
Y666150D01*
X1048260Y664850D02*
X1050740D01*
X1048260Y666150D02*
X1050740D01*
X858622Y839445D02*
X862362D01*
X858622Y832555D02*
X862362D01*
Y839445D01*
X858622Y832555D02*
Y839445D01*
X892874Y843126D02*
Y858874D01*
X877126Y843126D02*
X892874D01*
X877126D02*
Y858874D01*
X892874D01*
X890905D02*
X892874Y856905D01*
X1128942Y852555D02*
X1132683D01*
X1128942Y859445D02*
X1132683D01*
X1128942Y852555D02*
Y859445D01*
X1132683Y852555D02*
Y859445D01*
X1122880Y852555D02*
X1126620D01*
X1122880Y859445D02*
X1126620D01*
X1122880Y852555D02*
Y859445D01*
X1126620Y852555D02*
Y859445D01*
X1116817Y852555D02*
X1120558D01*
X1116817Y859445D02*
X1120558D01*
X1116817Y852555D02*
Y859445D01*
X1120558Y852555D02*
Y859445D01*
X1123067Y825055D02*
X1126808D01*
X1123067Y831945D02*
X1126808D01*
X1123067Y825055D02*
Y831945D01*
X1126808Y825055D02*
Y831945D01*
X1117005Y825055D02*
X1120745D01*
X1117005Y831945D02*
X1120745D01*
X1117005Y825055D02*
Y831945D01*
X1120745Y825055D02*
Y831945D01*
X890555Y877630D02*
Y881370D01*
X897445Y877630D02*
Y881370D01*
X890555Y877630D02*
X897445D01*
X890555Y881370D02*
X897445D01*
X898134Y888409D02*
Y891461D01*
X896264Y886539D02*
X898134Y888409D01*
X889866Y886539D02*
X896264D01*
X889866D02*
Y891461D01*
X898134D01*
X898134Y891461D01*
X896630Y904445D02*
X900370D01*
X896630Y897555D02*
X900370D01*
X896630D02*
Y904445D01*
X900370Y897555D02*
Y904445D01*
X902630Y892055D02*
X906370D01*
X902630Y898945D02*
X906370D01*
Y892055D02*
Y898945D01*
X902630Y892055D02*
Y898945D01*
X1129630Y693429D02*
Y700319D01*
X1133370Y693429D02*
Y700319D01*
X1129630Y693429D02*
X1133370D01*
X1129630Y700319D02*
X1133370D01*
X761083Y796055D02*
X764823D01*
X761083Y802945D02*
X764823D01*
X761083Y796055D02*
Y802945D01*
X764823Y796055D02*
Y802945D01*
X862744Y751244D02*
Y756756D01*
X854083Y751244D02*
Y756756D01*
Y751244D02*
X862744D01*
X854083Y756756D02*
X862744D01*
X917138Y646555D02*
Y653445D01*
X913398Y646555D02*
Y653445D01*
X917138D01*
X913398Y646555D02*
X917138D01*
Y658055D02*
Y664945D01*
X913398Y658055D02*
Y664945D01*
X917138D01*
X913398Y658055D02*
X917138D01*
X750130Y817445D02*
X753870D01*
X750130Y810555D02*
X753870D01*
Y817445D01*
X750130Y810555D02*
Y817445D01*
Y821555D02*
X753870D01*
X750130Y828445D02*
X753870D01*
X750130Y821555D02*
Y828445D01*
X753870Y821555D02*
Y828445D01*
X923359Y669555D02*
Y676445D01*
X919619Y669555D02*
Y676445D01*
X923359D01*
X919619Y669555D02*
X923359D01*
X1074091Y670650D02*
X1077831D01*
X1074091Y677539D02*
X1077831D01*
X1074091Y670650D02*
Y677539D01*
X1077831Y670650D02*
Y677539D01*
X919619Y658055D02*
X923359D01*
X919619Y664945D02*
X923359D01*
X919619Y658055D02*
Y664945D01*
X923359Y658055D02*
Y664945D01*
X959878Y724045D02*
X966768D01*
X959878Y727785D02*
X966768D01*
Y724045D02*
Y727785D01*
X959878Y724045D02*
Y727785D01*
X993551Y574972D02*
Y578713D01*
X986661Y574972D02*
Y578713D01*
Y574972D02*
X993551D01*
X986661Y578713D02*
X993551D01*
X932985Y644350D02*
Y651240D01*
X929244Y644350D02*
Y651240D01*
X932985D01*
X929244Y644350D02*
X932985D01*
X917138Y669713D02*
Y676602D01*
X913398Y669713D02*
Y676602D01*
X917138D01*
X913398Y669713D02*
X917138D01*
X916866Y640323D02*
X922772D01*
X916866Y627724D02*
Y640323D01*
Y627724D02*
X922772D01*
Y640323D01*
X1122630Y693429D02*
Y700319D01*
X1126370Y693429D02*
Y700319D01*
X1122630Y693429D02*
X1126370D01*
X1122630Y700319D02*
X1126370D01*
X810957Y818769D02*
Y827431D01*
X818043Y818769D02*
Y827431D01*
X810957Y818769D02*
X818043D01*
X810957Y827431D02*
X818043D01*
X876315Y874630D02*
Y878370D01*
X869425Y874630D02*
Y878370D01*
Y874630D02*
X876315D01*
X869425Y878370D02*
X876315D01*
X869327Y868130D02*
X876217D01*
X869327Y871870D02*
X876217D01*
Y868130D02*
Y871870D01*
X869327Y868130D02*
Y871870D01*
X1072004Y695602D02*
X1078894D01*
X1072004Y699342D02*
X1078894D01*
Y695602D02*
Y699342D01*
X1072004Y695602D02*
Y699342D01*
Y690102D02*
X1078894D01*
X1072004Y693843D02*
X1078894D01*
Y690102D02*
Y693843D01*
X1072004Y690102D02*
Y693843D01*
X976205Y565870D02*
X983095D01*
X976205Y562130D02*
X983095D01*
X976205D02*
Y565870D01*
X983095Y562130D02*
Y565870D01*
X1010055Y575130D02*
X1016945D01*
X1010055Y578870D02*
X1016945D01*
Y575130D02*
Y578870D01*
X1010055Y575130D02*
Y578870D01*
X938870Y645055D02*
Y651945D01*
X935130Y645055D02*
Y651945D01*
X938870D01*
X935130Y645055D02*
X938870D01*
X1036953Y540047D02*
Y545953D01*
X1031047D02*
X1036953D01*
X1031047Y540047D02*
Y545953D01*
Y540047D02*
X1036953D01*
X1074055Y655000D02*
X1080945D01*
X1074055Y658740D02*
X1080945D01*
Y655000D02*
Y658740D01*
X1074055Y655000D02*
Y658740D01*
X993945Y569130D02*
Y572870D01*
X987055Y569130D02*
Y572870D01*
Y569130D02*
X993945D01*
X987055Y572870D02*
X993945D01*
X1080193Y670650D02*
X1083933D01*
X1080193Y677539D02*
X1083933D01*
X1080193Y670650D02*
Y677539D01*
X1083933Y670650D02*
Y677539D01*
X923359Y646555D02*
Y653445D01*
X919619Y646555D02*
Y653445D01*
X923359D01*
X919619Y646555D02*
X923359D01*
X1076870Y633555D02*
Y640445D01*
X1073130Y633555D02*
Y640445D01*
X1076870D01*
X1073130Y633555D02*
X1076870D01*
X1079037Y633649D02*
X1082777D01*
X1079037Y640539D02*
X1082777D01*
X1079037Y633649D02*
Y640539D01*
X1082777Y633649D02*
Y640539D01*
X1030055Y556370D02*
X1036945D01*
X1030055Y552630D02*
X1036945D01*
X1030055D02*
Y556370D01*
X1036945Y552630D02*
Y556370D01*
Y558630D02*
Y562370D01*
X1030055Y558630D02*
Y562370D01*
Y558630D02*
X1036945D01*
X1030055Y562370D02*
X1036945D01*
X902454Y611251D02*
X904501D01*
X902454Y607196D02*
X904501D01*
Y611251D01*
X902454Y607196D02*
Y611251D01*
X1074630Y613555D02*
Y620445D01*
X1078370Y613555D02*
Y620445D01*
X1074630Y613555D02*
X1078370D01*
X1074630Y620445D02*
X1078370D01*
X1080248Y620425D02*
X1083988D01*
X1080248Y613535D02*
X1083988D01*
Y620425D01*
X1080248Y613535D02*
Y620425D01*
X1071559Y606358D02*
X1078449D01*
X1071559Y602618D02*
X1078449D01*
X1071559D02*
Y606358D01*
X1078449Y602618D02*
Y606358D01*
X1022055Y578870D02*
X1028945D01*
X1022055Y575130D02*
X1028945D01*
X1022055D02*
Y578870D01*
X1028945Y575130D02*
Y578870D01*
Y569130D02*
Y572870D01*
X1022055Y569130D02*
Y572870D01*
Y569130D02*
X1028945D01*
X1022055Y572870D02*
X1028945D01*
X908106Y598205D02*
Y614740D01*
X931630Y598205D02*
Y614740D01*
X908008D02*
X931630D01*
X908106Y598205D02*
X931630D01*
X927614Y592681D02*
Y594728D01*
X923559Y592681D02*
Y594728D01*
Y592681D02*
X927614D01*
X923559Y594728D02*
X927614D01*
X1074055Y649862D02*
X1080945D01*
X1074055Y653602D02*
X1080945D01*
Y649862D02*
Y653602D01*
X1074055Y649862D02*
Y653602D01*
X964437Y579051D02*
X971327D01*
X964437Y575311D02*
X971327D01*
X964437D02*
Y579051D01*
X971327Y575311D02*
Y579051D01*
X971445Y569130D02*
Y572870D01*
X964555Y569130D02*
Y572870D01*
Y569130D02*
X971445D01*
X964555Y572870D02*
X971445D01*
X1035417Y575130D02*
X1042307D01*
X1035417Y578870D02*
X1042307D01*
Y575130D02*
Y578870D01*
X1035417Y575130D02*
Y578870D01*
X864130Y842555D02*
Y849445D01*
X867870Y842555D02*
Y849445D01*
X864130Y842555D02*
X867870D01*
X864130Y849445D02*
X867870D01*
X862362Y842634D02*
Y849524D01*
X858622Y842634D02*
Y849524D01*
X862362D01*
X858622Y842634D02*
X862362D01*
X869130Y856905D02*
Y863795D01*
X872870Y856905D02*
Y863795D01*
X869130Y856905D02*
X872870D01*
X869130Y863795D02*
X872870D01*
X863267Y863757D02*
X867008D01*
X863267Y856867D02*
X867008D01*
Y863757D01*
X863267Y856867D02*
Y863757D01*
X1010055Y569130D02*
Y572870D01*
X1016945Y569130D02*
Y572870D01*
X1010055D02*
X1016945D01*
X1010055Y569130D02*
X1016945D01*
X987055Y562130D02*
X993945D01*
X987055Y565870D02*
X993945D01*
Y562130D02*
Y565870D01*
X987055Y562130D02*
Y565870D01*
X1035417Y569130D02*
X1042307D01*
X1035417Y572870D02*
X1042307D01*
Y569130D02*
Y572870D01*
X1035417Y569130D02*
Y572870D01*
X1023110Y865594D02*
X1026850D01*
X1023110Y872484D02*
X1026850D01*
X1023110Y865594D02*
Y872484D01*
X1026850Y865594D02*
Y872484D01*
X1112870Y583555D02*
Y590445D01*
X1109130Y583555D02*
Y590445D01*
X1112870D01*
X1109130Y583555D02*
X1112870D01*
X1114737Y591181D02*
X1121627D01*
X1114737Y594921D02*
X1121627D01*
Y591181D02*
Y594921D01*
X1114737Y591181D02*
Y594921D01*
X1102461Y588634D02*
X1102461Y588634D01*
Y580366D02*
Y588634D01*
X1097539Y580366D02*
X1102461D01*
X1097539D02*
Y586764D01*
X1099409Y588634D01*
X1102461D01*
X1090870Y580858D02*
Y587748D01*
X1087130Y580858D02*
Y587748D01*
X1090870D01*
X1087130Y580858D02*
X1090870D01*
X1004866Y870909D02*
X1004866Y870909D01*
X1013134D01*
Y865988D02*
Y870909D01*
X1006736Y865988D02*
X1013134D01*
X1004866Y867858D02*
X1006736Y865988D01*
X1004866Y867858D02*
Y870909D01*
X1021319Y878575D02*
X1026831D01*
X1021319Y887236D02*
X1026831D01*
X1021319Y878575D02*
Y887236D01*
X1026831Y878575D02*
Y887236D01*
X1001370Y864217D02*
Y871106D01*
X997630Y864217D02*
Y871106D01*
X1001370D01*
X997630Y864217D02*
X1001370D01*
X1031130Y881055D02*
Y887945D01*
X1034870Y881055D02*
Y887945D01*
X1031130Y881055D02*
X1034870D01*
X1031130Y887945D02*
X1034870D01*
X1016130Y865594D02*
Y872484D01*
X1019870Y865594D02*
Y872484D01*
X1016130Y865594D02*
X1019870D01*
X1016130Y872484D02*
X1019870D01*
X984945Y877870D02*
X984945Y874130D01*
X978055D02*
X978055Y877870D01*
X978055Y874130D02*
X984945D01*
X978055Y877870D02*
X984945Y877870D01*
X966937Y872850D02*
X969398Y875311D01*
X969398Y872850D02*
Y879150D01*
X958768D02*
X969398D01*
X958768Y872850D02*
Y879150D01*
Y872850D02*
X969398D01*
X804870Y729055D02*
Y735945D01*
X801130Y729055D02*
Y735945D01*
X804870D01*
X801130Y729055D02*
X804870D01*
X767606Y796055D02*
Y802945D01*
X771347Y796055D02*
Y802945D01*
X767606Y796055D02*
X771347D01*
X767606Y802945D02*
X771347D01*
X894760Y693350D02*
X897240D01*
X894760Y694650D02*
X897240D01*
Y693350D02*
Y694650D01*
X894760Y693350D02*
Y694650D01*
X916870Y682612D02*
Y689502D01*
X913130Y682612D02*
Y689502D01*
X916870D01*
X913130Y682612D02*
X916870D01*
X886370Y725201D02*
Y732091D01*
X882630Y725201D02*
Y732091D01*
X886370D01*
X882630Y725201D02*
X886370D01*
X859748Y714000D02*
X873252D01*
Y739000D01*
X859748D02*
X873252D01*
X859748Y714000D02*
Y739000D01*
Y714000D02*
X873252D01*
Y739000D01*
X859748D02*
X873252D01*
X1126933Y797185D02*
Y804075D01*
X1123192Y797185D02*
Y804075D01*
X1126933D01*
X1123192Y797185D02*
X1126933D01*
X1120870D02*
Y804075D01*
X1117130Y797185D02*
Y804075D01*
X1120870D01*
X1117130Y797185D02*
X1120870D01*
X981630Y807555D02*
Y814445D01*
X985370Y807555D02*
Y814445D01*
X981630Y807555D02*
X985370D01*
X981630Y814445D02*
X985370D01*
X1090466Y809787D02*
X1097356D01*
X1090466Y806047D02*
X1097356D01*
X1090466D02*
Y809787D01*
X1097356Y806047D02*
Y809787D01*
X1132995Y797185D02*
Y804075D01*
X1129255Y797185D02*
Y804075D01*
X1132995D01*
X1129255Y797185D02*
X1132995D01*
X1132870Y825055D02*
Y831945D01*
X1129130Y825055D02*
Y831945D01*
X1132870D01*
X1129130Y825055D02*
X1132870D01*
X815772Y708236D02*
Y712764D01*
X818134Y708236D02*
Y712764D01*
X815772Y708236D02*
X818134D01*
X815772Y712764D02*
X818134D01*
X769555Y788630D02*
X776445D01*
X769555Y792370D02*
X776445D01*
Y788630D02*
Y792370D01*
X769555Y788630D02*
Y792370D01*
X777870Y796055D02*
Y802945D01*
X774130Y796055D02*
Y802945D01*
X777870D01*
X774130Y796055D02*
X777870D01*
X779130Y783445D02*
X782870D01*
X779130Y776555D02*
X782870D01*
Y783445D01*
X779130Y776555D02*
Y783445D01*
X772508Y778515D02*
Y785405D01*
X768768Y778515D02*
Y785405D01*
X772508D01*
X768768Y778515D02*
X772508D01*
X810091Y792630D02*
Y796370D01*
X803201Y792630D02*
Y796370D01*
Y792630D02*
X810091D01*
X803201Y796370D02*
X810091D01*
X816193Y778185D02*
Y788815D01*
X802807Y778185D02*
Y788815D01*
Y778185D02*
X816193D01*
X802807Y788815D02*
X816193D01*
X804945Y739191D02*
Y746081D01*
X801205Y739191D02*
Y746081D01*
X804945D01*
X801205Y739191D02*
X804945D01*
X809055Y729630D02*
X815945D01*
X809055Y733370D02*
X815945D01*
Y729630D02*
Y733370D01*
X809055Y729630D02*
Y733370D01*
X831630Y752591D02*
X835370D01*
X831630Y745701D02*
X835370D01*
Y752591D01*
X831630Y745701D02*
Y752591D01*
X838685Y758693D02*
X849315D01*
X838685Y745307D02*
X849315D01*
Y758693D01*
X838685Y745307D02*
Y758693D01*
X863138Y759244D02*
Y764756D01*
X854476Y759244D02*
Y764756D01*
Y759244D02*
X863138D01*
X854476Y764756D02*
X863138D01*
X861760Y744618D02*
Y748358D01*
X854870Y744618D02*
Y748358D01*
Y744618D02*
X861760D01*
X854870Y748358D02*
X861760D01*
X791630Y787252D02*
Y794142D01*
X795370Y787252D02*
Y794142D01*
X791630Y787252D02*
X795370D01*
X791630Y794142D02*
X795370D01*
X789370Y787193D02*
Y794083D01*
X785630Y787193D02*
Y794083D01*
X789370D01*
X785630Y787193D02*
X789370D01*
X849555Y767630D02*
Y771370D01*
X856445Y767630D02*
Y771370D01*
X849555D02*
X856445D01*
X849555Y767630D02*
X856445D01*
X789370Y776555D02*
Y783445D01*
X785630Y776555D02*
Y783445D01*
X789370D01*
X785630Y776555D02*
X789370D01*
X845870Y763555D02*
Y770445D01*
X842130Y763555D02*
Y770445D01*
X845870D01*
X842130Y763555D02*
X845870D01*
X821130Y826945D02*
X824870D01*
X821130Y820055D02*
X824870D01*
Y826945D01*
X821130Y820055D02*
Y826945D01*
X800555Y828630D02*
Y832370D01*
X807445Y828630D02*
Y832370D01*
X800555D02*
X807445D01*
X800555Y828630D02*
X807445D01*
X792263Y836055D02*
X796003D01*
X792263Y842945D02*
X796003D01*
X792263Y836055D02*
Y842945D01*
X796003Y836055D02*
Y842945D01*
X752744Y834669D02*
X758256D01*
X752744Y843331D02*
X758256D01*
X752744Y834669D02*
Y843331D01*
X758256Y834669D02*
Y843331D01*
X800555Y824854D02*
X807445D01*
X800555Y821114D02*
X807445D01*
X800555D02*
Y824854D01*
X807445Y821114D02*
Y824854D01*
X766917Y815209D02*
X773807D01*
X766917Y818949D02*
X773807D01*
Y815209D02*
Y818949D01*
X766917Y815209D02*
Y818949D01*
X803630Y810976D02*
X807370D01*
X803630Y817866D02*
X807370D01*
X803630Y810976D02*
Y817866D01*
X807370Y810976D02*
Y817866D01*
D15*
X1106113Y606528D02*
D03*
D17*
X946776Y705866D02*
X1057012D01*
Y595630D02*
Y705866D01*
X946776Y595630D02*
X1057012D01*
X946776D02*
Y705866D01*
X1041461Y917394D02*
X1112327D01*
Y893772D02*
Y917394D01*
Y817000D02*
Y893772D01*
X1041461Y817000D02*
X1112327D01*
X1041461D02*
Y893772D01*
Y917394D01*
Y893772D02*
X1112327D01*
X1127900Y864850D02*
Y871150D01*
X1121600D02*
X1127900D01*
X1121600Y864850D02*
Y871150D01*
Y864850D02*
X1127900D01*
X1128087Y837350D02*
Y843650D01*
X1121788D02*
X1128087D01*
X1121788Y837350D02*
Y843650D01*
Y837350D02*
X1128087D01*
X1070476Y742461D02*
X1087524D01*
Y752539D01*
X1070476D02*
X1087524D01*
X1070476Y742461D02*
Y752539D01*
X1092315Y719594D02*
Y731405D01*
X1081685Y719594D02*
Y731405D01*
X1092315D01*
X1081685Y719594D02*
X1092315D01*
X772988Y738784D02*
X781256D01*
X772988Y747051D02*
X781256D01*
X772988Y738784D02*
Y747051D01*
X781256Y738784D02*
Y747051D01*
X903094Y902189D02*
Y917937D01*
X914905D01*
Y902189D02*
Y917937D01*
X903094Y902189D02*
X914905D01*
X818265Y735648D02*
Y747065D01*
X811868Y735648D02*
X818265D01*
X811868D02*
Y747065D01*
X818265D01*
X827976Y749705D02*
Y775295D01*
X800024Y749705D02*
Y775295D01*
Y749705D02*
X827976D01*
X800024Y775295D02*
X827976D01*
X847429Y794539D02*
X863571D01*
X847429Y774461D02*
X863571D01*
X847429D02*
Y794539D01*
X863571Y774461D02*
Y794539D01*
X784508Y853492D02*
X860492D01*
X784508D02*
Y934004D01*
X860492D01*
Y853492D02*
Y934004D01*
X780626Y814126D02*
Y829874D01*
X796374Y814126D02*
Y829874D01*
X780626D02*
X796374D01*
X780626Y814126D02*
X796374D01*
X1128212Y809480D02*
Y815779D01*
X1121913D02*
X1128212D01*
X1121913Y809480D02*
Y815779D01*
Y809480D02*
X1128212D01*
X841539Y777976D02*
Y795024D01*
X831461Y777976D02*
X841539D01*
X831461D02*
Y795024D01*
X841539D01*
X1106898Y607118D02*
X1119102D01*
Y596882D02*
Y607118D01*
X1106898Y596882D02*
X1119102D01*
X1106898D02*
Y607118D01*
D18*
X1059177Y904598D02*
Y907931D01*
X1060843Y909597D01*
X1062509Y907931D01*
Y904598D01*
Y907098D01*
X1059177D01*
X1064176Y904598D02*
Y909597D01*
X1067508Y904598D01*
Y909597D01*
X1069174D02*
X1072506D01*
X1070840D01*
Y904598D01*
X1077505Y909597D02*
X1074172D01*
Y904598D01*
X1077505D01*
X1074172Y907098D02*
X1075838D01*
X1079171Y904598D02*
Y909597D01*
X1082503Y904598D01*
Y909597D01*
X1084169Y904598D02*
Y909597D01*
X1087501Y904598D01*
Y909597D01*
X1089167Y904598D02*
Y907931D01*
X1090834Y909597D01*
X1092500Y907931D01*
Y904598D01*
Y907098D01*
X1089167D01*
D172*
X976203Y861877D02*
Y869160D01*
Y861877D02*
X989392D01*
Y869160D01*
X976203D02*
X989392D01*
X753406Y776392D02*
Y783675D01*
Y776392D02*
X766595D01*
Y783675D01*
X753406D02*
X766595D01*
X753406Y785933D02*
Y793217D01*
Y785933D02*
X766595D01*
Y793217D01*
X753406D02*
X766595D01*
X973646Y567406D02*
X980929D01*
Y580594D01*
X973646D02*
X980929D01*
X973646Y567406D02*
Y580594D01*
X882358Y814358D02*
X889642D01*
Y827547D01*
X882358D02*
X889642D01*
X882358Y814358D02*
Y827547D01*
X872358Y814406D02*
X879642D01*
Y827594D01*
X872358D02*
X879642D01*
X872358Y814406D02*
Y827594D01*
M02*
