G04*
G04 #@! TF.GenerationSoftware,Altium Limited,Altium Designer,20.2.5 (213)*
G04*
G04 Layer_Color=16711935*
%FSLAX25Y25*%
%MOIN*%
G70*
G04*
G04 #@! TF.SameCoordinates,0EDA941F-9717-4D80-9818-445CF3A130AC*
G04*
G04*
G04 #@! TF.FilePolarity,Negative*
G04*
G01*
G75*
%ADD23R,0.03740X0.03347*%
%ADD24R,0.03150X0.03937*%
%ADD25R,0.03937X0.03543*%
%ADD30R,0.03543X0.03937*%
%ADD35R,0.01778X0.02132*%
%ADD36R,0.03347X0.03740*%
%ADD37R,0.03937X0.04331*%
%ADD41C,0.05315*%
%ADD42R,0.02132X0.01778*%
%ADD43R,0.04331X0.03937*%
%ADD73R,0.05512X0.05906*%
G04:AMPARAMS|DCode=74|XSize=74.8mil|YSize=78.74mil|CornerRadius=19.68mil|HoleSize=0mil|Usage=FLASHONLY|Rotation=180.000|XOffset=0mil|YOffset=0mil|HoleType=Round|Shape=RoundedRectangle|*
%AMROUNDEDRECTD74*
21,1,0.07480,0.03937,0,0,180.0*
21,1,0.03543,0.07874,0,0,180.0*
1,1,0.03937,-0.01772,0.01968*
1,1,0.03937,0.01772,0.01968*
1,1,0.03937,0.01772,-0.01968*
1,1,0.03937,-0.01772,-0.01968*
%
%ADD74ROUNDEDRECTD74*%
%ADD75C,0.06102*%
%ADD76C,0.01378*%
%ADD77C,0.07284*%
%ADD78R,0.10138X0.10138*%
%ADD79C,0.10138*%
%ADD80C,0.01968*%
%ADD81C,0.00394*%
%ADD82C,0.06394*%
%ADD83C,0.02362*%
%ADD161R,0.01575X0.04724*%
%ADD162R,0.09449X0.12598*%
%ADD163R,0.08740X0.06299*%
%ADD164R,0.03543X0.04331*%
%ADD165R,0.07087X0.11024*%
G04:AMPARAMS|DCode=166|XSize=38.58mil|YSize=14.57mil|CornerRadius=3.3mil|HoleSize=0mil|Usage=FLASHONLY|Rotation=0.000|XOffset=0mil|YOffset=0mil|HoleType=Round|Shape=RoundedRectangle|*
%AMROUNDEDRECTD166*
21,1,0.03858,0.00797,0,0,0.0*
21,1,0.03199,0.01457,0,0,0.0*
1,1,0.00659,0.01599,-0.00399*
1,1,0.00659,-0.01599,-0.00399*
1,1,0.00659,-0.01599,0.00399*
1,1,0.00659,0.01599,0.00399*
%
%ADD166ROUNDEDRECTD166*%
G04:AMPARAMS|DCode=167|XSize=33.86mil|YSize=14.57mil|CornerRadius=3.3mil|HoleSize=0mil|Usage=FLASHONLY|Rotation=0.000|XOffset=0mil|YOffset=0mil|HoleType=Round|Shape=RoundedRectangle|*
%AMROUNDEDRECTD167*
21,1,0.03386,0.00797,0,0,0.0*
21,1,0.02726,0.01457,0,0,0.0*
1,1,0.00659,0.01363,-0.00399*
1,1,0.00659,-0.01363,-0.00399*
1,1,0.00659,-0.01363,0.00399*
1,1,0.00659,0.01363,0.00399*
%
%ADD167ROUNDEDRECTD167*%
%ADD168R,0.03937X0.05512*%
%ADD169R,0.02756X0.01968*%
%ADD170O,0.10642X0.14580*%
G36*
X909200Y910363D02*
X909389Y910378D01*
X909578Y910403D01*
X909765Y910438D01*
X909950Y910482D01*
X910132Y910536D01*
X910311Y910600D01*
X910487Y910672D01*
X910659Y910754D01*
X910826Y910845D01*
X910988Y910944D01*
X911145Y911052D01*
X911296Y911168D01*
X911440Y911291D01*
X911578Y911422D01*
X911709Y911560D01*
X911832Y911705D01*
X911948Y911855D01*
X912056Y912012D01*
X912155Y912174D01*
X912246Y912341D01*
X912328Y912513D01*
X912401Y912689D01*
X912464Y912868D01*
X912518Y913050D01*
X912562Y913235D01*
X912597Y913422D01*
X912622Y913610D01*
X912637Y913800D01*
X912642Y913980D01*
X910673D01*
X910671Y913903D01*
X910664Y913816D01*
X910653Y913730D01*
X910637Y913644D01*
X910617Y913560D01*
X910592Y913476D01*
X910563Y913394D01*
X910529Y913314D01*
X910492Y913235D01*
X910450Y913159D01*
X910405Y913084D01*
X910356Y913012D01*
X910303Y912943D01*
X910246Y912877D01*
X910186Y912814D01*
X910123Y912754D01*
X910057Y912697D01*
X909988Y912644D01*
X909916Y912595D01*
X909842Y912550D01*
X909765Y912508D01*
X909686Y912471D01*
X909606Y912437D01*
X909524Y912408D01*
X909440Y912383D01*
X909356Y912363D01*
X909270Y912347D01*
X909184Y912336D01*
X909097Y912329D01*
X909000Y912327D01*
X908912Y912329D01*
X908825Y912336D01*
X908738Y912347D01*
X908652Y912363D01*
X908567Y912384D01*
X908483Y912409D01*
X908400Y912438D01*
X908319Y912471D01*
X908240Y912509D01*
X908163Y912551D01*
X908089Y912597D01*
X908016Y912646D01*
X907947Y912700D01*
X907880Y912757D01*
X907817Y912817D01*
X907757Y912880D01*
X907700Y912947D01*
X907646Y913017D01*
X907597Y913089D01*
X907551Y913163D01*
X907509Y913240D01*
X907471Y913319D01*
X907438Y913400D01*
X907409Y913483D01*
X907384Y913567D01*
X907363Y913652D01*
X907347Y913738D01*
X907336Y913825D01*
X907329Y913912D01*
X907327Y914000D01*
X907329Y914088D01*
X907336Y914175D01*
X907347Y914262D01*
X907363Y914348D01*
X907384Y914433D01*
X907409Y914517D01*
X907438Y914600D01*
X907471Y914681D01*
X907509Y914760D01*
X907551Y914837D01*
X907597Y914911D01*
X907646Y914983D01*
X907700Y915053D01*
X907757Y915120D01*
X907817Y915183D01*
X907880Y915243D01*
X907947Y915300D01*
X908016Y915354D01*
X908089Y915403D01*
X908163Y915449D01*
X908240Y915491D01*
X908319Y915529D01*
X908400Y915562D01*
X908483Y915591D01*
X908567Y915616D01*
X908652Y915637D01*
X908738Y915653D01*
X908825Y915664D01*
X908912Y915671D01*
X909000Y915673D01*
X909097Y915671D01*
X909184Y915664D01*
X909270Y915653D01*
X909356Y915637D01*
X909440Y915617D01*
X909524Y915592D01*
X909606Y915563D01*
X909686Y915529D01*
X909765Y915492D01*
X909842Y915450D01*
X909916Y915405D01*
X909988Y915356D01*
X910057Y915303D01*
X910123Y915246D01*
X910186Y915186D01*
X910246Y915123D01*
X910303Y915057D01*
X910356Y914988D01*
X910405Y914916D01*
X910450Y914841D01*
X910492Y914765D01*
X910529Y914686D01*
X910563Y914606D01*
X910592Y914524D01*
X910617Y914440D01*
X910637Y914356D01*
X910653Y914270D01*
X910664Y914184D01*
X910671Y914097D01*
X910673Y914020D01*
X912642D01*
X912637Y914200D01*
X912622Y914390D01*
X912597Y914578D01*
X912562Y914765D01*
X912518Y914950D01*
X912464Y915132D01*
X912401Y915311D01*
X912328Y915487D01*
X912246Y915659D01*
X912155Y915826D01*
X912056Y915988D01*
X911948Y916145D01*
X911832Y916296D01*
X911709Y916440D01*
X911578Y916578D01*
X911440Y916709D01*
X911296Y916832D01*
X911145Y916948D01*
X910988Y917056D01*
X910826Y917155D01*
X910659Y917246D01*
X910487Y917328D01*
X910311Y917400D01*
X910132Y917464D01*
X909950Y917518D01*
X909765Y917562D01*
X909578Y917597D01*
X909389Y917622D01*
X909200Y917637D01*
X909000Y917642D01*
X908809Y917637D01*
X908619Y917622D01*
X908430Y917597D01*
X908243Y917562D01*
X908057Y917518D01*
X907875Y917463D01*
X907695Y917400D01*
X907519Y917327D01*
X907347Y917245D01*
X907179Y917154D01*
X907017Y917054D01*
X906859Y916946D01*
X906708Y916830D01*
X906563Y916706D01*
X906425Y916575D01*
X906294Y916437D01*
X906170Y916292D01*
X906054Y916141D01*
X905946Y915983D01*
X905846Y915821D01*
X905755Y915653D01*
X905673Y915481D01*
X905600Y915305D01*
X905536Y915125D01*
X905482Y914942D01*
X905438Y914757D01*
X905403Y914570D01*
X905378Y914381D01*
X905363Y914191D01*
X905358Y914000D01*
X905363Y913809D01*
X905378Y913619D01*
X905403Y913430D01*
X905438Y913243D01*
X905482Y913058D01*
X905536Y912875D01*
X905600Y912695D01*
X905673Y912519D01*
X905755Y912347D01*
X905846Y912179D01*
X905946Y912017D01*
X906054Y911859D01*
X906170Y911708D01*
X906294Y911563D01*
X906425Y911425D01*
X906563Y911294D01*
X906708Y911170D01*
X906859Y911054D01*
X907017Y910946D01*
X907179Y910846D01*
X907347Y910755D01*
X907519Y910673D01*
X907695Y910600D01*
X907875Y910536D01*
X908057Y910482D01*
X908243Y910438D01*
X908430Y910403D01*
X908619Y910378D01*
X908809Y910363D01*
X909000Y910358D01*
X909200Y910363D01*
D02*
G37*
D23*
X946000Y797638D02*
D03*
Y802362D02*
D03*
X909278Y893138D02*
D03*
Y897862D02*
D03*
X914000D02*
D03*
Y893138D02*
D03*
X891500Y578862D02*
D03*
Y574138D02*
D03*
Y560138D02*
D03*
Y564862D02*
D03*
X904500Y893138D02*
D03*
Y897862D02*
D03*
D24*
X896559Y885260D02*
D03*
X891441D02*
D03*
X894000Y892740D02*
D03*
D25*
X928858Y802961D02*
D03*
Y798039D02*
D03*
X898500Y903461D02*
D03*
Y898539D02*
D03*
D30*
X762039Y743902D02*
D03*
X766961D02*
D03*
X1049988Y780333D02*
D03*
X1045067D02*
D03*
X891539Y879500D02*
D03*
X896461D02*
D03*
D35*
X1038000Y729887D02*
D03*
Y727328D02*
D03*
X994779Y680721D02*
D03*
Y683280D02*
D03*
X1041402Y727328D02*
D03*
Y729887D02*
D03*
X1044804D02*
D03*
Y727328D02*
D03*
X1012000Y678899D02*
D03*
Y676340D02*
D03*
X1009500Y678899D02*
D03*
Y676340D02*
D03*
X1026296Y678894D02*
D03*
Y676334D02*
D03*
X1029258Y678899D02*
D03*
Y676340D02*
D03*
D36*
X1069138Y738500D02*
D03*
X1073862D02*
D03*
X1073862Y723000D02*
D03*
X1069138D02*
D03*
X1080862Y714024D02*
D03*
X1076138D02*
D03*
D37*
X1045343Y786500D02*
D03*
X1050657D02*
D03*
D41*
X980907Y604500D02*
D03*
X1049907D02*
D03*
X1061407D02*
D03*
X1038407D02*
D03*
X969407D02*
D03*
X1055657Y614000D02*
D03*
X1044157D02*
D03*
X1032657D02*
D03*
X986657D02*
D03*
X975157D02*
D03*
X1015407Y604500D02*
D03*
X1003907D02*
D03*
X992407D02*
D03*
X1026907D02*
D03*
X1021157Y614000D02*
D03*
X1009657D02*
D03*
X998157D02*
D03*
D42*
X994441Y651370D02*
D03*
X997000D02*
D03*
X994441Y648028D02*
D03*
X997000D02*
D03*
X994441Y627972D02*
D03*
X997000D02*
D03*
X994779Y667472D02*
D03*
X992220D02*
D03*
X1044779Y723000D02*
D03*
X1042220D02*
D03*
X935279Y810000D02*
D03*
X932720D02*
D03*
X997000Y658055D02*
D03*
X994441D02*
D03*
X997000Y654713D02*
D03*
X994441D02*
D03*
X992220Y674157D02*
D03*
X994779D02*
D03*
X992220Y670815D02*
D03*
X994779D02*
D03*
X992220Y677500D02*
D03*
X994779D02*
D03*
X997000Y644685D02*
D03*
X994441D02*
D03*
X997000Y631315D02*
D03*
X994441D02*
D03*
X997000Y634657D02*
D03*
X994441D02*
D03*
X997000Y638000D02*
D03*
X994441D02*
D03*
X997000Y641342D02*
D03*
X994441D02*
D03*
X997000Y621287D02*
D03*
X994441D02*
D03*
X997000Y624630D02*
D03*
X994441D02*
D03*
X1048221Y661500D02*
D03*
X1050780D02*
D03*
X1048221Y657500D02*
D03*
X1050780D02*
D03*
X1048221Y654000D02*
D03*
X1050780D02*
D03*
X1048221Y665500D02*
D03*
X1050780D02*
D03*
D43*
X1059500Y738343D02*
D03*
Y743657D02*
D03*
X1101673Y719890D02*
D03*
Y725205D02*
D03*
X935130Y797843D02*
D03*
Y803158D02*
D03*
D73*
X1087850Y714000D02*
D03*
X1094150D02*
D03*
X1062850Y714024D02*
D03*
X1069150D02*
D03*
D74*
X817161Y534500D02*
D03*
X791965D02*
D03*
X890661Y912220D02*
D03*
X865465D02*
D03*
X924784D02*
D03*
X949980D02*
D03*
D75*
X794721Y545130D02*
D03*
X814406D02*
D03*
X868221Y901591D02*
D03*
X887906D02*
D03*
X947224D02*
D03*
X927539D02*
D03*
D76*
X909000Y914000D02*
D03*
D77*
X759000Y753500D02*
D03*
Y767000D02*
D03*
D78*
X841201Y870500D02*
D03*
D79*
X822500D02*
D03*
X803799D02*
D03*
D80*
X785350Y822000D02*
D03*
X788500Y825150D02*
D03*
X791650Y822000D02*
D03*
X788500Y818850D02*
D03*
Y822000D02*
D03*
D81*
X866500Y680000D02*
D03*
X856500D02*
D03*
Y692500D02*
D03*
X862500Y700000D02*
D03*
X870500D02*
D03*
X876500Y680000D02*
D03*
Y692500D02*
D03*
D82*
X780000Y765799D02*
D03*
Y753594D02*
D03*
X1112409Y552102D02*
D03*
X769890D02*
D03*
Y894610D02*
D03*
X966740Y894610D02*
D03*
D83*
X860972Y746488D02*
D03*
X819732Y749000D02*
D03*
X994779Y680721D02*
D03*
X995409Y778500D02*
D03*
X994779Y667472D02*
D03*
X937322Y888000D02*
D03*
X908524Y629095D02*
D03*
Y638937D02*
D03*
X876000Y806138D02*
D03*
X886000D02*
D03*
X873500Y891740D02*
D03*
X864500Y889461D02*
D03*
X793000Y552870D02*
D03*
X809681Y545130D02*
D03*
X931854Y634016D02*
D03*
X929295D02*
D03*
X1050786Y661591D02*
D03*
X1050780Y657500D02*
D03*
Y654000D02*
D03*
X1020595Y598500D02*
D03*
X1032345Y585328D02*
D03*
X1045201Y582000D02*
D03*
X1066992Y629881D02*
D03*
X1037064Y723406D02*
D03*
X1066921Y618268D02*
D03*
X994779Y670815D02*
D03*
X985000Y658000D02*
D03*
X964000Y622000D02*
D03*
X996972Y598500D02*
D03*
X1058500Y722159D02*
D03*
X1041402Y727328D02*
D03*
X962500Y779500D02*
D03*
X979000Y780500D02*
D03*
X979214Y659500D02*
D03*
X993035Y598500D02*
D03*
X1028500D02*
D03*
X1038500Y632000D02*
D03*
X1048153Y715629D02*
D03*
X1045992Y700295D02*
D03*
X956897Y659922D02*
D03*
X937046Y620236D02*
D03*
X935000Y593823D02*
D03*
X1008784Y598500D02*
D03*
X1038370Y703177D02*
D03*
X1041224Y582000D02*
D03*
X1050740Y665500D02*
D03*
X1081477Y682000D02*
D03*
X1009505Y676267D02*
D03*
X980405Y631631D02*
D03*
X967445Y598500D02*
D03*
X1032452D02*
D03*
X1067016Y606850D02*
D03*
X1047529Y642041D02*
D03*
X950630Y639000D02*
D03*
X960640Y608741D02*
D03*
X985161Y598500D02*
D03*
X1054043Y669449D02*
D03*
X951500Y713500D02*
D03*
X964000Y651000D02*
D03*
X1051371Y599641D02*
D03*
X1054000Y637953D02*
D03*
X1051992Y715629D02*
D03*
X1042314Y703000D02*
D03*
X972500Y720807D02*
D03*
X964000Y625321D02*
D03*
X970750Y647000D02*
D03*
X1014500Y628000D02*
D03*
X994441Y641342D02*
D03*
X1054130Y634008D02*
D03*
X1012000Y676340D02*
D03*
X975116Y717827D02*
D03*
X969407Y604500D02*
D03*
X1077362Y685177D02*
D03*
X984000Y780500D02*
D03*
X959743Y668579D02*
D03*
X954701Y653701D02*
D03*
X954862Y603842D02*
D03*
X937853Y602441D02*
D03*
X980500Y584000D02*
D03*
X1005000Y598500D02*
D03*
X1049177Y582000D02*
D03*
X1038407Y604500D02*
D03*
X1067016Y622205D02*
D03*
X962000Y674000D02*
D03*
X980907Y604620D02*
D03*
X969091Y610709D02*
D03*
X971333Y598500D02*
D03*
X998941Y586279D02*
D03*
X1071049Y645010D02*
D03*
X1042000Y723000D02*
D03*
X951107Y675039D02*
D03*
X979859Y635786D02*
D03*
X1012720Y586279D02*
D03*
X975116Y700000D02*
D03*
X961000Y654000D02*
D03*
X986657Y614120D02*
D03*
X989098Y598500D02*
D03*
X1024713D02*
D03*
X1077000Y728500D02*
D03*
X1067331Y655669D02*
D03*
X1044333Y677323D02*
D03*
X1072231Y687199D02*
D03*
X967445Y701500D02*
D03*
X930500Y679500D02*
D03*
X988000Y647000D02*
D03*
X967500D02*
D03*
X1000909Y598500D02*
D03*
X1044157Y631843D02*
D03*
X1048153Y689000D02*
D03*
X1044804Y727328D02*
D03*
X974000Y647000D02*
D03*
X994441Y621287D02*
D03*
Y634657D02*
D03*
Y631315D02*
D03*
Y658055D02*
D03*
Y651370D02*
D03*
X994480Y654713D02*
D03*
X994441Y648028D02*
D03*
Y644685D02*
D03*
Y638000D02*
D03*
Y627972D02*
D03*
Y624630D02*
D03*
X934518Y624226D02*
D03*
X1111500Y838000D02*
D03*
X1042445Y872906D02*
D03*
Y827905D02*
D03*
X1111343Y882905D02*
D03*
X1042445Y822906D02*
D03*
X1059394Y817984D02*
D03*
X1111500Y833000D02*
D03*
X1111343Y877905D02*
D03*
Y887906D02*
D03*
X1111500Y828000D02*
D03*
X1042445Y852905D02*
D03*
X1111500Y823000D02*
D03*
X1042445Y847906D02*
D03*
Y887906D02*
D03*
X1054500Y735000D02*
D03*
X979661Y767500D02*
D03*
X1061500Y750500D02*
D03*
X1006441Y864709D02*
D03*
X999500Y870122D02*
D03*
X985750Y854593D02*
D03*
X1030913Y813500D02*
D03*
X1119000Y826000D02*
D03*
X1059500Y743657D02*
D03*
X808714Y804726D02*
D03*
X814038D02*
D03*
X819224D02*
D03*
X824575D02*
D03*
X1119000Y798268D02*
D03*
X1125062D02*
D03*
X1058000Y596664D02*
D03*
X967000Y748158D02*
D03*
X945500Y765228D02*
D03*
X965981Y725915D02*
D03*
X960666D02*
D03*
X935500Y743772D02*
D03*
X994740Y674157D02*
D03*
X994852Y677500D02*
D03*
X1077811Y691972D02*
D03*
X915268Y652658D02*
D03*
Y664157D02*
D03*
Y675815D02*
D03*
Y670500D02*
D03*
Y658843D02*
D03*
Y647342D02*
D03*
X931114Y650453D02*
D03*
Y645138D02*
D03*
X1022843Y571000D02*
D03*
X1028158D02*
D03*
X1016158D02*
D03*
X1010843D02*
D03*
X993157D02*
D03*
X987842D02*
D03*
X970658D02*
D03*
X965343D02*
D03*
X1026296Y676374D02*
D03*
X1080907Y639752D02*
D03*
X1082063Y676752D02*
D03*
Y671437D02*
D03*
X1120643Y593051D02*
D03*
X1111000Y589461D02*
D03*
X1089000Y586764D02*
D03*
X1121500Y605642D02*
D03*
X1131500Y694216D02*
D03*
Y699532D02*
D03*
X923854Y593705D02*
D03*
X828862Y545633D02*
D03*
X864000Y690000D02*
D03*
X869000D02*
D03*
X874500Y716500D02*
D03*
Y731500D02*
D03*
X877500Y702000D02*
D03*
X858488Y726500D02*
D03*
Y731500D02*
D03*
Y736500D02*
D03*
X903477Y607491D02*
D03*
X1041224Y577000D02*
D03*
X984157Y876000D02*
D03*
X1024075Y886055D02*
D03*
Y879756D02*
D03*
X1018000Y866677D02*
D03*
X1024980Y866382D02*
D03*
X1011559Y864709D02*
D03*
X1125000Y826000D02*
D03*
X1128087Y842272D02*
D03*
X1127900Y869772D02*
D03*
X1128212Y814402D02*
D03*
X1115000Y616968D02*
D03*
X1131125Y798268D02*
D03*
X755500Y835850D02*
D03*
X752000Y811638D02*
D03*
X768000Y817079D02*
D03*
X781000Y782657D02*
D03*
X793500Y788335D02*
D03*
X793374Y808512D02*
D03*
X806315Y822918D02*
D03*
X805452Y811697D02*
D03*
X822952Y826091D02*
D03*
X784452Y842394D02*
D03*
X794199Y842110D02*
D03*
X847882Y794539D02*
D03*
X863118D02*
D03*
X844000Y764638D02*
D03*
X809303Y794500D02*
D03*
X803988D02*
D03*
X815000Y786000D02*
D03*
Y780500D02*
D03*
X803988Y800000D02*
D03*
X847000Y757500D02*
D03*
X841500Y757512D02*
D03*
X833500Y752157D02*
D03*
X915000Y683695D02*
D03*
X878000Y896000D02*
D03*
X882047Y848047D02*
D03*
Y853953D02*
D03*
X860492Y833638D02*
D03*
X866000Y843638D02*
D03*
X871000Y862811D02*
D03*
X875528Y876500D02*
D03*
X870213D02*
D03*
X872000Y838500D02*
D03*
X876000D02*
D03*
X898500Y903461D02*
D03*
X904768Y906402D02*
D03*
X898500Y898539D02*
D03*
X904500Y893138D02*
D03*
X917500Y903843D02*
D03*
Y907500D02*
D03*
X914000Y897862D02*
D03*
X915000Y775500D02*
D03*
X1096260Y581941D02*
D03*
X1089000Y581843D02*
D03*
X896461Y879500D02*
D03*
X887953Y848047D02*
D03*
Y854084D02*
D03*
X915000Y688500D02*
D03*
X1077366Y604488D02*
D03*
X1036756Y544575D02*
D03*
Y541425D02*
D03*
X1031244D02*
D03*
X1030842Y560500D02*
D03*
X1036158D02*
D03*
X909396Y893103D02*
D03*
X1082200Y619739D02*
D03*
X1091450Y807917D02*
D03*
X1096413Y801358D02*
D03*
X1096372Y807917D02*
D03*
X1096413Y783642D02*
D03*
X983500Y808539D02*
D03*
X1124228Y672500D02*
D03*
X1102772Y687500D02*
D03*
X1124228Y677500D02*
D03*
X1102772D02*
D03*
Y672500D02*
D03*
X1080907Y634437D02*
D03*
X1088000Y625000D02*
D03*
X1097055D02*
D03*
X1009000Y555500D02*
D03*
Y535000D02*
D03*
Y545250D02*
D03*
X969658Y535000D02*
D03*
X861500Y538750D02*
D03*
Y549000D02*
D03*
Y560000D02*
D03*
X904500Y658000D02*
D03*
Y647500D02*
D03*
Y669500D02*
D03*
X791913Y706642D02*
D03*
X756087D02*
D03*
X816953Y712272D02*
D03*
Y708728D02*
D03*
X885984Y871758D02*
D03*
X891378Y879494D02*
D03*
X777122Y742917D02*
D03*
X762060Y743881D02*
D03*
X775190Y823813D02*
D03*
X781521Y833159D02*
D03*
X1044221Y810279D02*
D03*
X1049354Y804720D02*
D03*
X1036672Y585328D02*
D03*
X854862Y616685D02*
D03*
X850138Y623772D02*
D03*
X811000Y706843D02*
D03*
X790358Y744119D02*
D03*
X854855Y627206D02*
D03*
X803227Y730365D02*
D03*
X861500Y570500D02*
D03*
X861000Y623763D02*
D03*
X861169Y754000D02*
D03*
X861957Y762000D02*
D03*
X992862Y564000D02*
D03*
X1082118Y614323D02*
D03*
X1102772Y682500D02*
D03*
X1060587Y801358D02*
D03*
Y783642D02*
D03*
X914000Y893138D02*
D03*
X935130Y797843D02*
D03*
Y803158D02*
D03*
X1041224Y571000D02*
D03*
X1111000Y610500D02*
D03*
X896522Y546493D02*
D03*
X904405Y545979D02*
D03*
X917595D02*
D03*
Y567646D02*
D03*
Y551687D02*
D03*
Y573354D02*
D03*
X904405D02*
D03*
X896522Y572850D02*
D03*
X891500Y574138D02*
D03*
X1015407Y604620D02*
D03*
X1049907Y614120D02*
D03*
X1017500Y609500D02*
D03*
X891500Y564862D02*
D03*
X1012500Y609500D02*
D03*
X1032657Y614120D02*
D03*
X1044157Y622389D02*
D03*
X1054992Y544762D02*
D03*
X1090819D02*
D03*
X935500Y765228D02*
D03*
X942000Y890000D02*
D03*
X1031392Y785453D02*
D03*
X1023672D02*
D03*
X1018357D02*
D03*
X1010658D02*
D03*
X1004842D02*
D03*
X995087Y795642D02*
D03*
X1030913D02*
D03*
X940500Y743772D02*
D03*
X967000Y742842D02*
D03*
X907473Y748500D02*
D03*
X1102421Y747500D02*
D03*
X1062850Y714024D02*
D03*
X1069138Y723000D02*
D03*
X1081173Y733500D02*
D03*
X1124228Y682500D02*
D03*
X1087850Y714000D02*
D03*
X1101673Y719890D02*
D03*
X1029258Y676379D02*
D03*
X1045000Y786500D02*
D03*
X1057000Y789000D02*
D03*
X897279Y694000D02*
D03*
X884500Y731008D02*
D03*
X1090000Y735000D02*
D03*
X894720Y694000D02*
D03*
X907236Y843086D02*
D03*
X817000Y558000D02*
D03*
X798323Y554740D02*
D03*
X798103Y562577D02*
D03*
X813000D02*
D03*
D161*
X1050528Y773000D02*
D03*
X1048559D02*
D03*
X1046591D02*
D03*
X1044622D02*
D03*
X1042653D02*
D03*
X1040685D02*
D03*
X1038717D02*
D03*
X1036748D02*
D03*
X1034779D02*
D03*
X1032811D02*
D03*
X1030842D02*
D03*
X1028874D02*
D03*
X1026906D02*
D03*
X1024937D02*
D03*
X1022968D02*
D03*
X1021000D02*
D03*
X1019032D02*
D03*
X1017063D02*
D03*
X1015094D02*
D03*
X1013126D02*
D03*
X1011158D02*
D03*
X1009189D02*
D03*
X1007220D02*
D03*
X1005252D02*
D03*
X1003284D02*
D03*
X1001315D02*
D03*
X999347D02*
D03*
X997378D02*
D03*
X995409D02*
D03*
X993441D02*
D03*
X991472D02*
D03*
X989504D02*
D03*
X987535D02*
D03*
X985567D02*
D03*
X983598D02*
D03*
X981630D02*
D03*
X979661D02*
D03*
X977693D02*
D03*
X975724D02*
D03*
X973756D02*
D03*
X928858Y785752D02*
D03*
X926890D02*
D03*
X924921D02*
D03*
X922953D02*
D03*
X920984D02*
D03*
X919016D02*
D03*
X917047D02*
D03*
X915079D02*
D03*
X913110D02*
D03*
X911142D02*
D03*
D162*
X1057102Y766307D02*
D03*
X967181D02*
D03*
X935433Y779059D02*
D03*
X904567D02*
D03*
D163*
X1087327Y747500D02*
D03*
X1070673D02*
D03*
D164*
X1097500D02*
D03*
X1102421D02*
D03*
D165*
X1087000Y725500D02*
D03*
D166*
X1092827Y720579D02*
D03*
Y722547D02*
D03*
Y724516D02*
D03*
Y726484D02*
D03*
Y728453D02*
D03*
Y730421D02*
D03*
X1081173D02*
D03*
Y728453D02*
D03*
Y726484D02*
D03*
Y724516D02*
D03*
Y722547D02*
D03*
Y720579D02*
D03*
D167*
X773244Y739965D02*
D03*
Y741933D02*
D03*
Y743902D02*
D03*
Y745870D02*
D03*
X781000D02*
D03*
Y743902D02*
D03*
Y741933D02*
D03*
Y739965D02*
D03*
D168*
X777122Y742917D02*
D03*
D169*
X913232Y903843D02*
D03*
X904768D02*
D03*
X913232Y906402D02*
D03*
X904768D02*
D03*
X913232Y908961D02*
D03*
X904768D02*
D03*
D170*
X831933Y682500D02*
D03*
Y582500D02*
D03*
Y657500D02*
D03*
Y607500D02*
D03*
M02*
