M48
;Layer_Color=9474304
;FILE_FORMAT=2:4
INCH,TZ
;TYPE=PLATED
T1F00S00C0.0079
T2F00S00C0.0118
T5F00S00C0.0300
T6F00S00C0.0335
T7F00S00C0.0472
T8F00S00C0.0650
;TYPE=NON_PLATED
T9F00S00C0.0098
T10F00S00C0.0390
T11F00S00C0.0935
T12F00S00C0.2362
%
T01
X106823Y85200
X106548Y85476
X106823Y85751
X106548Y86027
X106823Y86302
X107099Y86027
X107374Y86302
X107650Y86027
Y85476
X107099
X107374Y85751
Y85200
X78850Y82515
Y82200
X78535
X79165
X78850Y81885
T02
X109626Y58194
X111100Y58946
X112064Y59305
X112150Y60564
X111100Y61050
X111500Y61697
X108212Y61432
X108220Y61974
X106692Y61827
X106702Y62220
Y60685
X107737Y60449
X105800Y59666
X105137Y59964
X104991Y61412
X104416Y62239
X103266Y61412
X103841Y60450
X103245Y59850
X102850
X102471
X102059
X101541Y60462
X101750Y60950
X101250
X100878Y59850
X100500
X100091
X99697
X99304
X98910
X98516
X98091Y60462
X96941Y60450
X96909Y61071
X96064Y60874
X95486Y60384
X96744Y59850
X97133
X98050Y58400
X98784Y57100
X99316
X99286Y56400
X100900Y55550
Y54525
Y53500
X103124Y54143
X103676
Y54457
X103616Y56050
X103084
X102816Y57100
X102284
X101616
X101084
X101272Y58628
X99894
X103234Y58533
X103667
X104122Y58200
X104520
X104918
X104122Y57700
Y57100
X105499Y54476
X109082
X108900Y58184
Y58676
X99444Y62129
Y62463
X98666Y61412
X96400Y62200
X93785Y60244
X96534Y57100
X97066
X96966Y53500
X91759Y54598
Y55169
Y56765
Y57335
X90441
X89652Y57285
X89150Y57414
Y56486
X89652Y54649
X90441Y54598
X86150Y54900
Y53875
Y56000
Y57050
X85486Y61669
X85014Y62377
X86100Y62376
X90348Y60749
X92385Y59370
X93500Y59382
X93705Y62024
X93452Y62423
X81300Y56258
X81700Y55800
X80968Y54513
X82886Y54563
X79832Y55474
X79300Y55287
X79810Y56258
X75609Y70664
X76206Y74388
X77712Y74292
X79036Y74412
X80323Y73036
X81100Y70684
X81695Y70873
Y71227
X79191Y70664
X81973Y74900
X83350Y75216
X84150Y75751
X84700Y75750
X84400Y76464
X86196Y76200
X86117Y75400
X86097Y74649
X85849Y73650
Y73150
Y72650
X87450Y73150
X88450Y73101
X87450Y71650
X87750Y70200
X86900Y69000
X86400
X89472Y69400
X89728
X91500Y68850
Y68369
X91527Y67582
Y67050
Y66416
Y65884
Y65266
Y64734
X90450Y64750
Y65800
Y66950
X90852Y63894
Y62909
X92930Y63402
X93185
X93111Y64514
Y65045
X93050Y67950
X93550Y74377
Y76523
X91500Y77550
X90747Y74850
X81500Y78050
X85485Y62721
X95063Y63900
X95470Y65370
X96100Y65400
X96400Y65100
X96750Y64700
X97075
X97400
X98800
X99444Y64803
Y65137
X99448Y65471
X99444Y65806
X98500Y65800
X97921Y65950
X95690Y65992
X95974Y66858
X96200Y67400
X95111Y67504
X95150Y71350
X96067Y72592
X96598
X97250Y72081
X97512Y71783
Y70000
X96744Y70150
X96700Y74284
Y74816
X94050Y74377
X94550Y76523
X96250Y77950
X97900Y78050
X98400
X99541Y77850
X97966Y76750
X106150Y75050
X105950Y74366
X105450Y73500
X105850Y72216
X106914Y72300
X107700Y72850
X108117Y73350
X109000Y73500
X108785Y71400
X106285Y71402
X105199Y71563
X104815
X104200Y72300
X104140Y72733
X104480
X103706Y72341
X103837Y70318
X104231Y70300
X104599Y70029
X104815Y68900
X104433Y67732
X102926Y67638
X102630Y67637
X101200Y67634
X100950Y67627
X99485Y67750
X99478Y68072
X99474Y67416
X99478Y67081
Y66747
X99444Y64468
Y64134
Y63800
Y63466
Y63131
Y62797
X98041Y63163
X97986Y63579
X96400Y62532
X101450Y62800
X103850Y63200
X104416Y63184
X105413Y63401
X105400Y63795
X104753Y64204
X105078Y65400
Y65750
X105079Y66159
X105074Y66550
X105404Y66945
X106733Y65567
X107105Y64501
X108091Y63975
Y63444
X108800Y62500
X106699Y62988
X108206Y67144
Y67675
X108148Y68200
X107736Y68518
X107223Y68720
X107781Y69197
X110277Y68750
Y68250
Y67750
Y67250
X112423
Y67750
Y68250
X113150Y69422
Y69953
X110167Y71989
X110242Y74750
X109705Y62500
X109641Y78364
Y80136
X109637Y80792
X111150Y82300
Y82800
Y83300
Y83800
X111900Y82600
X112500
X112821Y81440
X113112Y79827
X112506
X111900
X112809Y84227
X112790Y86977
X111134Y87791
Y88291
Y88791
X104244
Y87291
Y85291
Y84791
Y82791
Y82291
X104422Y81028
X104935Y80472
X106059Y80136
X105700Y78900
X106059Y78364
X104500Y78650
X103139Y78545
X102367
X101836
X101066
X100484
X99509Y79564
X98350Y80854
X98575Y85459
X98416Y87600
X99950Y87012
X100644Y86471
X101156
X101800Y86668
X102498Y86638
X102407Y87976
Y88606
X103091Y81350
Y79564
X105939Y81798
X109145Y80792
X94200Y89000
X93732Y88800
X91400Y89314
X90940Y89310
X90450Y89314
X89850Y89854
Y90346
X90477Y90640
X91750Y90750
Y90384
X91400Y89786
X89646Y87950
X89138Y87949
X88598Y87176
X87553Y87650
X87021
X87100Y86281
X88205Y85395
Y84805
X88795
Y85408
X87600Y83850
X87200
X86600Y84364
X86049Y83364
X86312Y79454
X84788
X82457Y80473
X81922
X81404
X80871
X80399Y80000
Y79450
X80930
X81500Y78600
X79350Y78833
X79337Y80851
X80545Y81170
X80631Y82292
X82295Y82609
X79420Y84211
X78445Y84239
X78152Y83316
X87600Y80614
X88600
X93513Y80316
Y79784
X90724Y84309
X87800Y89600
X87350Y89174
X86450Y88946
X77519Y82381
X76800Y81708
X75200Y81164
X75550Y83585
X78100Y78266
T05
X78000Y75359
Y76580
T06
X79472Y54513
X81441
X94722Y90159
X92754
X88791
X86822
T07
X75900Y75350
Y76700
T08
X83193Y60750
Y65750
X84120Y87050
X82250
X80380
T09
X90900Y91400
T10
X86650Y68000
X86250Y70000
X87050
T11
X85650Y68000
Y69250
X87650
Y68000
T12
X111241Y55210
X76989
X96674Y89461
X76989Y89461
M30
