G04*
G04 #@! TF.GenerationSoftware,Altium Limited,Altium Designer,20.2.5 (213)*
G04*
G04 Layer_Color=8388736*
%FSLAX25Y25*%
%MOIN*%
G70*
G04*
G04 #@! TF.SameCoordinates,0EDA941F-9717-4D80-9818-445CF3A130AC*
G04*
G04*
G04 #@! TF.FilePolarity,Positive*
G04*
G01*
G75*
%ADD11C,0.00787*%
%ADD18C,0.01000*%
%ADD140C,0.00600*%
D11*
X418000Y461500D02*
Y941500D01*
X1166500D02*
X1166500Y461500D01*
X418000D02*
X1166346D01*
X418000Y941500D02*
X1166500D01*
D18*
X343000D02*
X345000Y935500D01*
X341000D02*
X343000Y941500D01*
X341000Y467500D02*
X343000Y461500D01*
X345000Y467500D01*
X343000Y716995D02*
Y941500D01*
Y461500D02*
Y682805D01*
X342000Y941500D02*
X416606D01*
X342000Y461500D02*
X416606D01*
X418000Y330500D02*
X424000Y332500D01*
X418000Y330500D02*
X424000Y328500D01*
X1160347D02*
X1166346Y330500D01*
X1160347Y332500D02*
X1166346Y330500D01*
X418000D02*
X772978D01*
X808168D02*
X1166346D01*
X418000Y329500D02*
Y460106D01*
X1166346Y329500D02*
Y460106D01*
D140*
X346599Y684405D02*
Y686404D01*
Y685405D01*
X340601D01*
X341601Y684405D01*
X346599Y693402D02*
Y689403D01*
X342600Y693402D01*
X341601D01*
X340601Y692402D01*
Y690403D01*
X341601Y689403D01*
X346599Y695401D02*
Y697401D01*
Y696401D01*
X340601D01*
X341601Y695401D01*
X346599Y700400D02*
X345599D01*
Y701400D01*
X346599D01*
Y700400D01*
X345599Y705398D02*
X346599Y706398D01*
Y708397D01*
X345599Y709397D01*
X341601D01*
X340601Y708397D01*
Y706398D01*
X341601Y705398D01*
X342600D01*
X343600Y706398D01*
Y709397D01*
X346599Y715395D02*
Y711396D01*
X342600Y715395D01*
X341601D01*
X340601Y714395D01*
Y712396D01*
X341601Y711396D01*
X774578Y326901D02*
X776578D01*
X775578D01*
Y332899D01*
X774578Y331899D01*
X779577Y327901D02*
X780577Y326901D01*
X782576D01*
X783575Y327901D01*
Y331899D01*
X782576Y332899D01*
X780577D01*
X779577Y331899D01*
Y330900D01*
X780577Y329900D01*
X783575D01*
X785575Y331899D02*
X786575Y332899D01*
X788574D01*
X789573Y331899D01*
Y327901D01*
X788574Y326901D01*
X786575D01*
X785575Y327901D01*
Y331899D01*
X791573Y326901D02*
Y327901D01*
X792573D01*
Y326901D01*
X791573D01*
X796571Y331899D02*
X797571Y332899D01*
X799570D01*
X800570Y331899D01*
Y327901D01*
X799570Y326901D01*
X797571D01*
X796571Y327901D01*
Y331899D01*
X802569D02*
X803569Y332899D01*
X805568D01*
X806568Y331899D01*
Y330900D01*
X805568Y329900D01*
X806568Y328900D01*
Y327901D01*
X805568Y326901D01*
X803569D01*
X802569Y327901D01*
Y328900D01*
X803569Y329900D01*
X802569Y330900D01*
Y331899D01*
X803569Y329900D02*
X805568D01*
M02*
