G04*
G04 #@! TF.GenerationSoftware,Altium Limited,Altium Designer,20.2.5 (213)*
G04*
G04 Layer_Physical_Order=5*
G04 Layer_Color=16737945*
%FSLAX25Y25*%
%MOIN*%
G70*
G04*
G04 #@! TF.SameCoordinates,0EDA941F-9717-4D80-9818-445CF3A130AC*
G04*
G04*
G04 #@! TF.FilePolarity,Positive*
G04*
G01*
G75*
%ADD18C,0.01000*%
%ADD80C,0.01968*%
%ADD137C,0.00800*%
%ADD140C,0.00600*%
G36*
X988615Y646214D02*
X988549Y646118D01*
X988491Y646010D01*
X988440Y645888D01*
X988397Y645753D01*
X988362Y645605D01*
X988335Y645443D01*
X988316Y645269D01*
X988300Y644881D01*
X987700D01*
X987696Y645082D01*
X987665Y645443D01*
X987638Y645605D01*
X987603Y645753D01*
X987560Y645888D01*
X987509Y646010D01*
X987451Y646118D01*
X987385Y646214D01*
X987311Y646297D01*
X988689D01*
X988615Y646214D01*
D02*
G37*
G36*
X974615D02*
X974549Y646118D01*
X974491Y646010D01*
X974440Y645888D01*
X974397Y645753D01*
X974362Y645605D01*
X974335Y645443D01*
X974316Y645269D01*
X974300Y644881D01*
X973700D01*
X973696Y645082D01*
X973665Y645443D01*
X973638Y645605D01*
X973603Y645753D01*
X973560Y645888D01*
X973509Y646010D01*
X973451Y646118D01*
X973385Y646214D01*
X973311Y646297D01*
X974689D01*
X974615Y646214D01*
D02*
G37*
G36*
X968115D02*
X968049Y646118D01*
X967991Y646010D01*
X967940Y645888D01*
X967897Y645753D01*
X967862Y645605D01*
X967835Y645443D01*
X967816Y645269D01*
X967800Y644881D01*
X967200D01*
X967196Y645082D01*
X967165Y645443D01*
X967138Y645605D01*
X967103Y645753D01*
X967060Y645888D01*
X967009Y646010D01*
X966951Y646118D01*
X966885Y646214D01*
X966811Y646297D01*
X968189D01*
X968115Y646214D01*
D02*
G37*
G36*
X971532Y646384D02*
X971484Y646274D01*
X971441Y646154D01*
X971403Y646023D01*
X971372Y645881D01*
X971326Y645563D01*
X971311Y645387D01*
X971300Y645003D01*
X970700Y644836D01*
X970696Y645040D01*
X970661Y645399D01*
X970630Y645554D01*
X970590Y645693D01*
X970542Y645816D01*
X970485Y645922D01*
X970420Y646013D01*
X970345Y646087D01*
X970262Y646145D01*
X971587Y646482D01*
X971532Y646384D01*
D02*
G37*
G36*
X995227Y645300D02*
X995323Y645234D01*
X995431Y645176D01*
X995553Y645125D01*
X995688Y645082D01*
X995837Y645047D01*
X995998Y645020D01*
X996172Y645001D01*
X996560Y644985D01*
Y644385D01*
X996359Y644381D01*
X995998Y644350D01*
X995837Y644323D01*
X995688Y644288D01*
X995553Y644245D01*
X995431Y644194D01*
X995323Y644136D01*
X995227Y644070D01*
X995144Y643996D01*
Y645374D01*
X995227Y645300D01*
D02*
G37*
G36*
X1046492Y643648D02*
X1046901Y643300D01*
X1047023Y643216D01*
X1047137Y643146D01*
X1047243Y643093D01*
X1047343Y643055D01*
X1047435Y643032D01*
X1047519Y643025D01*
X1046545Y642051D01*
X1046538Y642135D01*
X1046516Y642227D01*
X1046478Y642327D01*
X1046424Y642434D01*
X1046355Y642548D01*
X1046270Y642669D01*
X1046054Y642934D01*
X1045922Y643078D01*
X1045775Y643229D01*
X1046341Y643795D01*
X1046492Y643648D01*
D02*
G37*
G36*
X1048297Y642675D02*
X1048378Y642626D01*
X1048475Y642583D01*
X1048588Y642545D01*
X1048718Y642513D01*
X1048864Y642487D01*
X1049204Y642452D01*
X1049399Y642444D01*
X1049610Y642441D01*
Y641641D01*
X1049399Y641638D01*
X1048864Y641595D01*
X1048718Y641569D01*
X1048588Y641537D01*
X1048475Y641499D01*
X1048378Y641456D01*
X1048297Y641407D01*
X1048232Y641352D01*
Y642730D01*
X1048297Y642675D01*
D02*
G37*
G36*
X1054768Y638587D02*
X1054849Y638538D01*
X1054946Y638494D01*
X1055059Y638457D01*
X1055189Y638425D01*
X1055335Y638399D01*
X1055675Y638364D01*
X1055870Y638356D01*
X1056080Y638353D01*
Y637553D01*
X1055870Y637550D01*
X1055335Y637506D01*
X1055189Y637480D01*
X1055059Y637449D01*
X1054946Y637411D01*
X1054849Y637368D01*
X1054768Y637319D01*
X1054703Y637264D01*
Y638642D01*
X1054768Y638587D01*
D02*
G37*
G36*
X1053297Y637264D02*
X1053232Y637319D01*
X1053151Y637368D01*
X1053054Y637411D01*
X1052941Y637449D01*
X1052811Y637480D01*
X1052665Y637506D01*
X1052325Y637541D01*
X1052130Y637550D01*
X1051920Y637553D01*
Y638353D01*
X1052130Y638356D01*
X1052665Y638399D01*
X1052811Y638425D01*
X1052941Y638457D01*
X1053054Y638494D01*
X1053151Y638538D01*
X1053232Y638587D01*
X1053297Y638642D01*
Y637264D01*
D02*
G37*
G36*
X928154Y635587D02*
X928431Y635353D01*
X928565Y635259D01*
X928694Y635179D01*
X928820Y635113D01*
X928942Y635063D01*
X929060Y635027D01*
X929175Y635006D01*
X929285Y635000D01*
X928311Y634026D01*
X928305Y634136D01*
X928284Y634251D01*
X928248Y634369D01*
X928197Y634491D01*
X928132Y634617D01*
X928052Y634746D01*
X927958Y634880D01*
X927848Y635017D01*
X927585Y635302D01*
X928009Y635726D01*
X928154Y635587D01*
D02*
G37*
G36*
X1037463Y633607D02*
X1037872Y633259D01*
X1037993Y633175D01*
X1038107Y633105D01*
X1038214Y633052D01*
X1038313Y633014D01*
X1038406Y632991D01*
X1038490Y632984D01*
X1037516Y632010D01*
X1037509Y632094D01*
X1037486Y632187D01*
X1037448Y632286D01*
X1037395Y632393D01*
X1037325Y632507D01*
X1037241Y632628D01*
X1037024Y632894D01*
X1036893Y633037D01*
X1036746Y633188D01*
X1037312Y633754D01*
X1037463Y633607D01*
D02*
G37*
G36*
X1043120Y633450D02*
X1043528Y633103D01*
X1043650Y633018D01*
X1043764Y632949D01*
X1043871Y632895D01*
X1043970Y632857D01*
X1044062Y632834D01*
X1044147Y632827D01*
X1043173Y631853D01*
X1043166Y631938D01*
X1043143Y632030D01*
X1043105Y632129D01*
X1043051Y632236D01*
X1042982Y632350D01*
X1042898Y632472D01*
X1042681Y632737D01*
X1042550Y632880D01*
X1042403Y633031D01*
X1042969Y633597D01*
X1043120Y633450D01*
D02*
G37*
G36*
X1066983Y628897D02*
X1066872Y628891D01*
X1066757Y628869D01*
X1066639Y628834D01*
X1066517Y628783D01*
X1066391Y628718D01*
X1066262Y628638D01*
X1066129Y628543D01*
X1065992Y628434D01*
X1065707Y628171D01*
X1065282Y628595D01*
X1065421Y628740D01*
X1065655Y629017D01*
X1065749Y629150D01*
X1065829Y629280D01*
X1065895Y629406D01*
X1065945Y629528D01*
X1065981Y629646D01*
X1066002Y629760D01*
X1066008Y629871D01*
X1066983Y628897D01*
D02*
G37*
G36*
X1013358Y629571D02*
X1013636Y629338D01*
X1013769Y629243D01*
X1013899Y629163D01*
X1014025Y629098D01*
X1014147Y629047D01*
X1014265Y629011D01*
X1014379Y628991D01*
X1014490Y628984D01*
X1013516Y628010D01*
X1013509Y628121D01*
X1013488Y628235D01*
X1013453Y628353D01*
X1013402Y628475D01*
X1013337Y628601D01*
X1013257Y628731D01*
X1013162Y628864D01*
X1013053Y629001D01*
X1012790Y629286D01*
X1013214Y629710D01*
X1013358Y629571D01*
D02*
G37*
G36*
X1098045Y624879D02*
X1098066Y624765D01*
X1098102Y624647D01*
X1098153Y624525D01*
X1098218Y624399D01*
X1098298Y624269D01*
X1098392Y624136D01*
X1098502Y623999D01*
X1098765Y623714D01*
X1098341Y623290D01*
X1098196Y623429D01*
X1097919Y623662D01*
X1097785Y623757D01*
X1097656Y623837D01*
X1097530Y623902D01*
X1097408Y623953D01*
X1097290Y623988D01*
X1097175Y624010D01*
X1097065Y624016D01*
X1098039Y624990D01*
X1098045Y624879D01*
D02*
G37*
G36*
X1088615Y624214D02*
X1088549Y624119D01*
X1088491Y624010D01*
X1088440Y623888D01*
X1088397Y623753D01*
X1088362Y623604D01*
X1088335Y623443D01*
X1088316Y623269D01*
X1088300Y622882D01*
X1087700D01*
X1087696Y623082D01*
X1087665Y623443D01*
X1087638Y623604D01*
X1087603Y623753D01*
X1087560Y623888D01*
X1087509Y624010D01*
X1087451Y624119D01*
X1087385Y624214D01*
X1087311Y624297D01*
X1088689D01*
X1088615Y624214D01*
D02*
G37*
G36*
X936343Y619547D02*
X936278Y619602D01*
X936197Y619651D01*
X936100Y619695D01*
X935987Y619732D01*
X935857Y619764D01*
X935711Y619790D01*
X935371Y619825D01*
X935176Y619833D01*
X934966Y619836D01*
Y620636D01*
X935176Y620639D01*
X935711Y620682D01*
X935857Y620709D01*
X935987Y620740D01*
X936100Y620778D01*
X936197Y620821D01*
X936278Y620870D01*
X936343Y620925D01*
Y619547D01*
D02*
G37*
G36*
X1048765Y615692D02*
X1049043Y615458D01*
X1049176Y615363D01*
X1049306Y615283D01*
X1049431Y615218D01*
X1049553Y615168D01*
X1049672Y615132D01*
X1049786Y615111D01*
X1049897Y615104D01*
X1048923Y614130D01*
X1048916Y614241D01*
X1048895Y614355D01*
X1048860Y614474D01*
X1048809Y614596D01*
X1048744Y614721D01*
X1048664Y614851D01*
X1048569Y614984D01*
X1048460Y615121D01*
X1048197Y615406D01*
X1048621Y615830D01*
X1048765Y615692D01*
D02*
G37*
G36*
X1031954Y613431D02*
X1031871Y613505D01*
X1031775Y613571D01*
X1031666Y613630D01*
X1031544Y613680D01*
X1031409Y613723D01*
X1031261Y613758D01*
X1031100Y613785D01*
X1030926Y613805D01*
X1030538Y613820D01*
Y614420D01*
X1030739Y614424D01*
X1031100Y614455D01*
X1031261Y614482D01*
X1031409Y614517D01*
X1031544Y614560D01*
X1031666Y614611D01*
X1031775Y614669D01*
X1031871Y614735D01*
X1031954Y614809D01*
Y613431D01*
D02*
G37*
G36*
X1110297Y609811D02*
X1110214Y609885D01*
X1110118Y609951D01*
X1110010Y610009D01*
X1109888Y610060D01*
X1109753Y610103D01*
X1109604Y610138D01*
X1109443Y610165D01*
X1109269Y610184D01*
X1108881Y610200D01*
Y610800D01*
X1109082Y610804D01*
X1109443Y610835D01*
X1109604Y610862D01*
X1109753Y610897D01*
X1109888Y610940D01*
X1110010Y610991D01*
X1110118Y611049D01*
X1110214Y611115D01*
X1110297Y611189D01*
Y609811D01*
D02*
G37*
G36*
X1016358Y611071D02*
X1016636Y610838D01*
X1016769Y610743D01*
X1016899Y610663D01*
X1017025Y610598D01*
X1017147Y610547D01*
X1017265Y610511D01*
X1017379Y610491D01*
X1017490Y610484D01*
X1016516Y609510D01*
X1016510Y609621D01*
X1016488Y609735D01*
X1016453Y609853D01*
X1016402Y609975D01*
X1016337Y610101D01*
X1016257Y610231D01*
X1016162Y610364D01*
X1016053Y610501D01*
X1015790Y610786D01*
X1016214Y611210D01*
X1016358Y611071D01*
D02*
G37*
G36*
X1011797Y608811D02*
X1011714Y608885D01*
X1011619Y608951D01*
X1011510Y609009D01*
X1011388Y609060D01*
X1011253Y609103D01*
X1011104Y609138D01*
X1010943Y609165D01*
X1010769Y609184D01*
X1010382Y609200D01*
Y609800D01*
X1010582Y609804D01*
X1010943Y609835D01*
X1011104Y609862D01*
X1011253Y609897D01*
X1011388Y609940D01*
X1011510Y609991D01*
X1011619Y610049D01*
X1011714Y610115D01*
X1011797Y610189D01*
Y608811D01*
D02*
G37*
G36*
X1014704Y603931D02*
X1014621Y604005D01*
X1014525Y604071D01*
X1014416Y604130D01*
X1014294Y604180D01*
X1014159Y604223D01*
X1014011Y604258D01*
X1013850Y604285D01*
X1013676Y604305D01*
X1013288Y604320D01*
Y604920D01*
X1013489Y604924D01*
X1013850Y604955D01*
X1014011Y604983D01*
X1014159Y605018D01*
X1014294Y605060D01*
X1014416Y605111D01*
X1014525Y605169D01*
X1014621Y605235D01*
X1014704Y605309D01*
Y603931D01*
D02*
G37*
G36*
X937962Y601463D02*
X937907Y601448D01*
X937838Y601415D01*
X937754Y601363D01*
X937656Y601293D01*
X937416Y601095D01*
X936949Y600660D01*
X936764Y600478D01*
X936106Y601234D01*
X936259Y601390D01*
X936702Y601907D01*
X936771Y602009D01*
X936823Y602101D01*
X936858Y602182D01*
X936876Y602253D01*
X936877Y602312D01*
X937962Y601463D01*
D02*
G37*
G36*
X967435Y597516D02*
X967350Y597509D01*
X967258Y597486D01*
X967159Y597448D01*
X967052Y597395D01*
X966938Y597325D01*
X966817Y597241D01*
X966551Y597024D01*
X966408Y596893D01*
X966257Y596746D01*
X965691Y597312D01*
X965838Y597463D01*
X966185Y597872D01*
X966270Y597993D01*
X966339Y598107D01*
X966393Y598214D01*
X966431Y598314D01*
X966454Y598406D01*
X966461Y598490D01*
X967435Y597516D01*
D02*
G37*
G36*
X1056859Y598236D02*
X1057136Y598002D01*
X1057269Y597907D01*
X1057399Y597827D01*
X1057525Y597762D01*
X1057647Y597712D01*
X1057765Y597676D01*
X1057879Y597655D01*
X1057990Y597649D01*
X1057016Y596674D01*
X1057010Y596785D01*
X1056989Y596900D01*
X1056953Y597018D01*
X1056902Y597140D01*
X1056837Y597266D01*
X1056757Y597395D01*
X1056662Y597528D01*
X1056553Y597665D01*
X1056290Y597950D01*
X1056714Y598375D01*
X1056859Y598236D01*
D02*
G37*
G36*
X934990Y592838D02*
X934932Y592831D01*
X934863Y592807D01*
X934783Y592767D01*
X934692Y592711D01*
X934590Y592639D01*
X934354Y592446D01*
X934075Y592188D01*
X933919Y592034D01*
X933212Y592741D01*
X933365Y592897D01*
X933816Y593413D01*
X933888Y593514D01*
X933945Y593605D01*
X933984Y593685D01*
X934008Y593754D01*
X934016Y593813D01*
X934990Y592838D01*
D02*
G37*
G36*
X979797Y583311D02*
X979732Y583366D01*
X979651Y583415D01*
X979554Y583458D01*
X979441Y583496D01*
X979311Y583528D01*
X979165Y583554D01*
X978825Y583588D01*
X978630Y583597D01*
X978420Y583600D01*
Y584400D01*
X978630Y584403D01*
X979165Y584446D01*
X979311Y584472D01*
X979441Y584504D01*
X979554Y584542D01*
X979651Y584585D01*
X979732Y584634D01*
X979797Y584689D01*
Y583311D01*
D02*
G37*
G36*
X817750Y558653D02*
X817815Y558621D01*
X817900Y558593D01*
X818004Y558568D01*
X818127Y558547D01*
X818430Y558517D01*
X818810Y558502D01*
X819029Y558500D01*
Y557500D01*
X818810Y557498D01*
X818127Y557453D01*
X818004Y557432D01*
X817900Y557407D01*
X817815Y557379D01*
X817750Y557347D01*
X817703Y557311D01*
Y558689D01*
X817750Y558653D01*
D02*
G37*
G36*
X1009786Y556115D02*
X1009881Y556049D01*
X1009990Y555991D01*
X1010112Y555940D01*
X1010247Y555897D01*
X1010396Y555862D01*
X1010557Y555835D01*
X1010731Y555816D01*
X1011119Y555800D01*
Y555200D01*
X1010918Y555196D01*
X1010557Y555165D01*
X1010396Y555138D01*
X1010247Y555103D01*
X1010112Y555060D01*
X1009990Y555009D01*
X1009881Y554951D01*
X1009786Y554885D01*
X1009703Y554811D01*
Y556189D01*
X1009786Y556115D01*
D02*
G37*
G36*
X799072Y555393D02*
X799138Y555361D01*
X799223Y555333D01*
X799327Y555308D01*
X799450Y555287D01*
X799753Y555257D01*
X800133Y555242D01*
X800352Y555240D01*
Y554240D01*
X800133Y554238D01*
X799450Y554193D01*
X799327Y554172D01*
X799223Y554148D01*
X799138Y554119D01*
X799072Y554087D01*
X799026Y554051D01*
Y555429D01*
X799072Y555393D01*
D02*
G37*
G36*
X793403Y554740D02*
X793446Y554205D01*
X793472Y554059D01*
X793504Y553929D01*
X793542Y553816D01*
X793585Y553719D01*
X793634Y553638D01*
X793689Y553573D01*
X792311D01*
X792366Y553638D01*
X792415Y553719D01*
X792458Y553816D01*
X792496Y553929D01*
X792528Y554059D01*
X792554Y554205D01*
X792588Y554545D01*
X792597Y554740D01*
X792600Y554951D01*
X793400D01*
X793403Y554740D01*
D02*
G37*
G36*
X918362Y552321D02*
X918443Y552272D01*
X918540Y552229D01*
X918654Y552191D01*
X918783Y552160D01*
X918929Y552134D01*
X919270Y552099D01*
X919464Y552090D01*
X919675Y552087D01*
Y551287D01*
X919464Y551285D01*
X918929Y551241D01*
X918783Y551215D01*
X918654Y551183D01*
X918540Y551146D01*
X918443Y551102D01*
X918362Y551053D01*
X918297Y550998D01*
Y552376D01*
X918362Y552321D01*
D02*
G37*
G36*
X1010710Y546536D02*
X1010571Y546391D01*
X1010338Y546114D01*
X1010243Y545981D01*
X1010163Y545851D01*
X1010098Y545725D01*
X1010047Y545603D01*
X1010011Y545485D01*
X1009991Y545371D01*
X1009984Y545260D01*
X1009010Y546234D01*
X1009121Y546241D01*
X1009235Y546262D01*
X1009353Y546297D01*
X1009475Y546348D01*
X1009601Y546413D01*
X1009731Y546493D01*
X1009864Y546588D01*
X1010001Y546697D01*
X1010286Y546960D01*
X1010710Y546536D01*
D02*
G37*
G36*
X1009786Y535615D02*
X1009881Y535549D01*
X1009990Y535491D01*
X1010112Y535440D01*
X1010247Y535397D01*
X1010396Y535362D01*
X1010557Y535335D01*
X1010731Y535316D01*
X1011119Y535300D01*
Y534700D01*
X1010918Y534696D01*
X1010557Y534665D01*
X1010396Y534638D01*
X1010247Y534603D01*
X1010112Y534560D01*
X1009990Y534509D01*
X1009881Y534451D01*
X1009786Y534385D01*
X1009703Y534311D01*
Y535689D01*
X1009786Y535615D01*
D02*
G37*
G36*
X970443D02*
X970539Y535549D01*
X970648Y535491D01*
X970770Y535440D01*
X970905Y535397D01*
X971053Y535362D01*
X971214Y535335D01*
X971388Y535316D01*
X971776Y535300D01*
Y534700D01*
X971576Y534696D01*
X971214Y534665D01*
X971053Y534638D01*
X970905Y534603D01*
X970770Y534560D01*
X970648Y534509D01*
X970539Y534451D01*
X970443Y534385D01*
X970360Y534311D01*
Y535689D01*
X970443Y535615D01*
D02*
G37*
G36*
X869300Y692119D02*
X869304Y691918D01*
X869335Y691557D01*
X869362Y691396D01*
X869397Y691247D01*
X869440Y691112D01*
X869491Y690990D01*
X869549Y690881D01*
X869615Y690786D01*
X869689Y690703D01*
X868311D01*
X868385Y690786D01*
X868451Y690881D01*
X868509Y690990D01*
X868560Y691112D01*
X868603Y691247D01*
X868638Y691396D01*
X868665Y691557D01*
X868684Y691731D01*
X868700Y692119D01*
X869300D01*
D02*
G37*
G36*
X874200Y714382D02*
X874196Y714582D01*
X874165Y714943D01*
X874138Y715104D01*
X874103Y715253D01*
X874060Y715388D01*
X874009Y715510D01*
X873951Y715619D01*
X873885Y715714D01*
X873811Y715797D01*
X875189Y715797D01*
X875115Y715714D01*
X875049Y715619D01*
X874991Y715510D01*
X874940Y715388D01*
X874897Y715253D01*
X874862Y715104D01*
X874835Y714943D01*
X874816Y714769D01*
X874800Y714382D01*
X874200Y714382D01*
D02*
G37*
G36*
X895020Y696118D02*
X895024Y695918D01*
X895055Y695557D01*
X895083Y695396D01*
X895118Y695247D01*
X895160Y695112D01*
X895211Y694990D01*
X895269Y694881D01*
X895335Y694786D01*
X895409Y694703D01*
X894032D01*
X894105Y694786D01*
X894172Y694881D01*
X894230Y694990D01*
X894280Y695112D01*
X894323Y695247D01*
X894358Y695396D01*
X894386Y695557D01*
X894405Y695731D01*
X894421Y696118D01*
X895020D01*
D02*
G37*
G36*
X954401Y651582D02*
X954397Y651783D01*
X954366Y652144D01*
X954339Y652305D01*
X954303Y652453D01*
X954261Y652588D01*
X954210Y652710D01*
X954152Y652819D01*
X954086Y652915D01*
X954012Y652998D01*
X955390D01*
X955316Y652915D01*
X955250Y652819D01*
X955191Y652710D01*
X955141Y652588D01*
X955098Y652453D01*
X955063Y652305D01*
X955036Y652144D01*
X955016Y651970D01*
X955001Y651582D01*
X954401D01*
D02*
G37*
G36*
X949919Y676792D02*
X950070Y676646D01*
X950479Y676298D01*
X950601Y676213D01*
X950715Y676144D01*
X950822Y676090D01*
X950921Y676052D01*
X951013Y676030D01*
X951097Y676023D01*
X950123Y675048D01*
X950116Y675133D01*
X950094Y675225D01*
X950056Y675324D01*
X950002Y675431D01*
X949933Y675545D01*
X949848Y675667D01*
X949632Y675932D01*
X949500Y676076D01*
X949354Y676227D01*
X949919Y676792D01*
D02*
G37*
G36*
X960143Y670660D02*
X960146Y670449D01*
X960189Y669914D01*
X960215Y669768D01*
X960247Y669638D01*
X960285Y669525D01*
X960328Y669428D01*
X960377Y669347D01*
X960432Y669282D01*
X959054D01*
X959109Y669347D01*
X959158Y669428D01*
X959202Y669525D01*
X959239Y669638D01*
X959271Y669768D01*
X959297Y669914D01*
X959332Y670254D01*
X959340Y670449D01*
X959343Y670660D01*
X960143D01*
D02*
G37*
G36*
X962400Y675878D02*
X962401Y675693D01*
X962444Y675038D01*
X962459Y674961D01*
X962478Y674901D01*
X962498Y674859D01*
X962521Y674835D01*
X961479D01*
X961502Y674859D01*
X961522Y674901D01*
X961541Y674961D01*
X961556Y675038D01*
X961570Y675134D01*
X961589Y675378D01*
X961600Y675878D01*
X962400D01*
D02*
G37*
G36*
X981018Y660509D02*
X980873Y660360D01*
X980519Y659955D01*
X980429Y659834D01*
X980290Y659612D01*
X980241Y659511D01*
X980205Y659417D01*
X980184Y659330D01*
X979565Y660420D01*
X979643Y660399D01*
X979727Y660395D01*
X979816Y660408D01*
X979912Y660437D01*
X980015Y660483D01*
X980123Y660545D01*
X980237Y660623D01*
X980358Y660718D01*
X980485Y660829D01*
X980618Y660957D01*
X981018Y660509D01*
D02*
G37*
G36*
X986286Y656290D02*
X986141Y656429D01*
X985864Y656662D01*
X985731Y656757D01*
X985601Y656837D01*
X985475Y656902D01*
X985353Y656953D01*
X985235Y656988D01*
X985121Y657010D01*
X985010Y657016D01*
X985984Y657990D01*
X985991Y657879D01*
X986012Y657765D01*
X986047Y657647D01*
X986098Y657525D01*
X986163Y657399D01*
X986243Y657269D01*
X986338Y657136D01*
X986447Y656999D01*
X986710Y656714D01*
X986286Y656290D01*
D02*
G37*
G36*
X1027392Y674590D02*
X1027251Y674726D01*
X1026978Y674963D01*
X1026846Y675063D01*
X1026592Y675226D01*
X1026469Y675289D01*
X1026349Y675340D01*
X1026233Y675379D01*
X1026120Y675406D01*
X1027261Y676178D01*
X1027249Y676074D01*
X1027254Y675966D01*
X1027275Y675853D01*
X1027314Y675735D01*
X1027370Y675613D01*
X1027443Y675485D01*
X1027532Y675353D01*
X1027639Y675216D01*
X1027763Y675074D01*
X1027903Y674928D01*
X1027392Y674590D01*
D02*
G37*
G36*
X860607Y736200D02*
X860406Y736196D01*
X860045Y736165D01*
X859884Y736138D01*
X859736Y736103D01*
X859601Y736060D01*
X859479Y736009D01*
X859370Y735951D01*
X859274Y735885D01*
X859191Y735811D01*
Y737189D01*
X859274Y737115D01*
X859370Y737049D01*
X859479Y736991D01*
X859601Y736940D01*
X859736Y736897D01*
X859884Y736862D01*
X860045Y736835D01*
X860219Y736816D01*
X860607Y736800D01*
Y736200D01*
D02*
G37*
G36*
X907637Y750652D02*
X907640Y750440D01*
X907667Y750070D01*
X907690Y749912D01*
X907721Y749773D01*
X907758Y749652D01*
X907801Y749548D01*
X907852Y749464D01*
X907909Y749397D01*
X907973Y749348D01*
X906640Y749024D01*
X906677Y749094D01*
X906711Y749180D01*
X906740Y749282D01*
X906766Y749399D01*
X906787Y749532D01*
X906819Y749845D01*
X906835Y750221D01*
X906837Y750432D01*
X907637Y750652D01*
D02*
G37*
G36*
X906837Y841006D02*
X906834Y841217D01*
X906790Y841752D01*
X906764Y841897D01*
X906732Y842027D01*
X906695Y842140D01*
X906651Y842238D01*
X906602Y842319D01*
X906548Y842383D01*
X907925D01*
X907870Y842319D01*
X907821Y842238D01*
X907778Y842140D01*
X907740Y842027D01*
X907709Y841897D01*
X907683Y841752D01*
X907648Y841411D01*
X907639Y841217D01*
X907637Y841006D01*
X906837D01*
D02*
G37*
G36*
X945100Y763148D02*
X945097Y763359D01*
X945054Y763894D01*
X945028Y764040D01*
X944996Y764169D01*
X944958Y764283D01*
X944915Y764380D01*
X944866Y764461D01*
X944811Y764526D01*
X946189D01*
X946134Y764461D01*
X946085Y764380D01*
X946042Y764283D01*
X946004Y764169D01*
X945972Y764040D01*
X945946Y763894D01*
X945912Y763553D01*
X945903Y763359D01*
X945900Y763148D01*
X945100D01*
D02*
G37*
G36*
X1006100Y862604D02*
X1006097Y862815D01*
X1006051Y863348D01*
X1006024Y863493D01*
X1005990Y863621D01*
X1005951Y863732D01*
X1005905Y863826D01*
X1005853Y863904D01*
X1005795Y863966D01*
X1007171Y864048D01*
X1007119Y863981D01*
X1007073Y863897D01*
X1007033Y863797D01*
X1006997Y863682D01*
X1006968Y863551D01*
X1006943Y863404D01*
X1006911Y863062D01*
X1006903Y862867D01*
X1006900Y862657D01*
X1006100Y862604D01*
D02*
G37*
G36*
X896061Y877420D02*
X896058Y877630D01*
X896014Y878165D01*
X895988Y878311D01*
X895957Y878441D01*
X895919Y878554D01*
X895876Y878651D01*
X895827Y878732D01*
X895772Y878797D01*
X897150D01*
X897095Y878732D01*
X897046Y878651D01*
X897002Y878554D01*
X896965Y878441D01*
X896933Y878311D01*
X896907Y878165D01*
X896872Y877825D01*
X896863Y877630D01*
X896861Y877420D01*
X896061D01*
D02*
G37*
G36*
X904100Y891057D02*
X904097Y891268D01*
X904054Y891803D01*
X904028Y891949D01*
X903996Y892078D01*
X903958Y892192D01*
X903915Y892289D01*
X903866Y892370D01*
X903811Y892435D01*
X905189D01*
X905134Y892370D01*
X905085Y892289D01*
X905042Y892192D01*
X905004Y892078D01*
X904972Y891949D01*
X904946Y891803D01*
X904912Y891463D01*
X904903Y891268D01*
X904900Y891057D01*
X904100D01*
D02*
G37*
G36*
X915188Y896108D02*
X915037Y896255D01*
X914628Y896603D01*
X914507Y896688D01*
X914393Y896757D01*
X914286Y896810D01*
X914186Y896848D01*
X914095Y896871D01*
X914010Y896878D01*
X914984Y897852D01*
X914991Y897768D01*
X915014Y897676D01*
X915052Y897576D01*
X915105Y897470D01*
X915175Y897355D01*
X915259Y897234D01*
X915475Y896969D01*
X915607Y896825D01*
X915754Y896674D01*
X915188Y896108D01*
D02*
G37*
G36*
X918661Y902116D02*
X918510Y902264D01*
X918008Y902692D01*
X917908Y902759D01*
X917817Y902809D01*
X917737Y902844D01*
X917667Y902862D01*
X917606Y902864D01*
X918478Y903736D01*
X918481Y903676D01*
X918499Y903605D01*
X918533Y903525D01*
X918584Y903435D01*
X918650Y903334D01*
X918733Y903224D01*
X918948Y902973D01*
X919226Y902682D01*
X918661Y902116D01*
D02*
G37*
G36*
X1043231Y853521D02*
X1043326Y853454D01*
X1043435Y853396D01*
X1043557Y853345D01*
X1043692Y853303D01*
X1043840Y853268D01*
X1044002Y853240D01*
X1044176Y853221D01*
X1044563Y853205D01*
Y852606D01*
X1044363Y852602D01*
X1044002Y852571D01*
X1043840Y852543D01*
X1043692Y852508D01*
X1043557Y852466D01*
X1043435Y852415D01*
X1043326Y852357D01*
X1043231Y852290D01*
X1043148Y852217D01*
Y853594D01*
X1043231Y853521D01*
D02*
G37*
G36*
Y848521D02*
X1043326Y848454D01*
X1043435Y848396D01*
X1043557Y848345D01*
X1043692Y848303D01*
X1043840Y848268D01*
X1044002Y848240D01*
X1044176Y848221D01*
X1044563Y848205D01*
Y847606D01*
X1044363Y847602D01*
X1044002Y847571D01*
X1043840Y847543D01*
X1043692Y847508D01*
X1043557Y847466D01*
X1043435Y847415D01*
X1043326Y847357D01*
X1043231Y847290D01*
X1043148Y847217D01*
Y848594D01*
X1043231Y848521D01*
D02*
G37*
G36*
X1112491Y832905D02*
X1112514Y832813D01*
X1112552Y832714D01*
X1112605Y832607D01*
X1112675Y832493D01*
X1112759Y832372D01*
X1112976Y832106D01*
X1113107Y831963D01*
X1113254Y831812D01*
X1112688Y831246D01*
X1112537Y831393D01*
X1112128Y831741D01*
X1112007Y831825D01*
X1111893Y831895D01*
X1111786Y831948D01*
X1111687Y831986D01*
X1111594Y832009D01*
X1111510Y832016D01*
X1112484Y832990D01*
X1112491Y832905D01*
D02*
G37*
G36*
X1125304Y827918D02*
X1125335Y827557D01*
X1125362Y827396D01*
X1125397Y827247D01*
X1125440Y827112D01*
X1125491Y826990D01*
X1125549Y826882D01*
X1125615Y826786D01*
X1125689Y826703D01*
X1124311D01*
X1124385Y826786D01*
X1124451Y826882D01*
X1124509Y826990D01*
X1124560Y827112D01*
X1124603Y827247D01*
X1124638Y827396D01*
X1124665Y827557D01*
X1124684Y827731D01*
X1124700Y828119D01*
X1125300D01*
X1125304Y827918D01*
D02*
G37*
G36*
X1111490Y827016D02*
X1111405Y827009D01*
X1111314Y826986D01*
X1111214Y826948D01*
X1111107Y826895D01*
X1110993Y826825D01*
X1110872Y826741D01*
X1110606Y826525D01*
X1110463Y826393D01*
X1110312Y826246D01*
X1109746Y826812D01*
X1109893Y826963D01*
X1110241Y827372D01*
X1110325Y827493D01*
X1110395Y827607D01*
X1110448Y827714D01*
X1110486Y827814D01*
X1110509Y827905D01*
X1110516Y827990D01*
X1111490Y827016D01*
D02*
G37*
G36*
X1119991Y825879D02*
X1120012Y825765D01*
X1120047Y825647D01*
X1120098Y825525D01*
X1120163Y825399D01*
X1120243Y825269D01*
X1120338Y825136D01*
X1120447Y824999D01*
X1120710Y824714D01*
X1120286Y824290D01*
X1120142Y824429D01*
X1119864Y824662D01*
X1119731Y824757D01*
X1119601Y824837D01*
X1119475Y824902D01*
X1119353Y824953D01*
X1119235Y824988D01*
X1119121Y825010D01*
X1119010Y825016D01*
X1119984Y825990D01*
X1119991Y825879D01*
D02*
G37*
G36*
X1060028Y817217D02*
X1059979Y817136D01*
X1059935Y817038D01*
X1059898Y816925D01*
X1059866Y816795D01*
X1059840Y816650D01*
X1059805Y816309D01*
X1059797Y816115D01*
X1059794Y815904D01*
X1058994D01*
X1058991Y816115D01*
X1058947Y816650D01*
X1058922Y816795D01*
X1058890Y816925D01*
X1058852Y817038D01*
X1058809Y817136D01*
X1058760Y817217D01*
X1058705Y817281D01*
X1060083D01*
X1060028Y817217D01*
D02*
G37*
G36*
X1031905Y813432D02*
X1031929Y813363D01*
X1031969Y813283D01*
X1032025Y813192D01*
X1032097Y813090D01*
X1032290Y812854D01*
X1032548Y812575D01*
X1032702Y812419D01*
X1031995Y811712D01*
X1031839Y811865D01*
X1031323Y812316D01*
X1031222Y812388D01*
X1031131Y812444D01*
X1031051Y812484D01*
X1030982Y812508D01*
X1030923Y812516D01*
X1031898Y813490D01*
X1031905Y813432D01*
D02*
G37*
G36*
X1052494Y717440D02*
X1052539Y716756D01*
X1052560Y716633D01*
X1052585Y716529D01*
X1052613Y716444D01*
X1052645Y716379D01*
X1052681Y716332D01*
X1051303D01*
X1051339Y716379D01*
X1051371Y716444D01*
X1051400Y716529D01*
X1051424Y716633D01*
X1051445Y716756D01*
X1051475Y717060D01*
X1051490Y717440D01*
X1051492Y717658D01*
X1052492D01*
X1052494Y717440D01*
D02*
G37*
G36*
X1048556Y717499D02*
X1048600Y716964D01*
X1048626Y716818D01*
X1048658Y716688D01*
X1048695Y716575D01*
X1048738Y716478D01*
X1048788Y716397D01*
X1048843Y716332D01*
X1047465D01*
X1047519Y716397D01*
X1047569Y716478D01*
X1047612Y716575D01*
X1047649Y716688D01*
X1047681Y716818D01*
X1047707Y716964D01*
X1047742Y717304D01*
X1047751Y717499D01*
X1047754Y717710D01*
X1048553D01*
X1048556Y717499D01*
D02*
G37*
G36*
X1038985Y702392D02*
X1038919Y702296D01*
X1038861Y702187D01*
X1038810Y702065D01*
X1038767Y701930D01*
X1038732Y701782D01*
X1038705Y701621D01*
X1038686Y701447D01*
X1038670Y701059D01*
X1038070D01*
X1038066Y701259D01*
X1038035Y701621D01*
X1038008Y701782D01*
X1037973Y701930D01*
X1037930Y702065D01*
X1037880Y702187D01*
X1037821Y702296D01*
X1037755Y702392D01*
X1037681Y702475D01*
X1039059D01*
X1038985Y702392D01*
D02*
G37*
G36*
X1042929Y702214D02*
X1042863Y702118D01*
X1042804Y702010D01*
X1042754Y701888D01*
X1042711Y701753D01*
X1042676Y701605D01*
X1042649Y701443D01*
X1042629Y701269D01*
X1042614Y700881D01*
X1042014D01*
X1042010Y701082D01*
X1041979Y701443D01*
X1041951Y701605D01*
X1041916Y701753D01*
X1041873Y701888D01*
X1041823Y702010D01*
X1041765Y702118D01*
X1041698Y702214D01*
X1041625Y702297D01*
X1043003D01*
X1042929Y702214D01*
D02*
G37*
G36*
X1104526Y683688D02*
X1104379Y683537D01*
X1104031Y683128D01*
X1103946Y683007D01*
X1103877Y682893D01*
X1103823Y682786D01*
X1103785Y682687D01*
X1103763Y682594D01*
X1103756Y682510D01*
X1102781Y683484D01*
X1102866Y683491D01*
X1102958Y683514D01*
X1103057Y683552D01*
X1103164Y683605D01*
X1103278Y683675D01*
X1103400Y683759D01*
X1103665Y683976D01*
X1103809Y684107D01*
X1103960Y684254D01*
X1104526Y683688D01*
D02*
G37*
G36*
X1083150Y683352D02*
X1083003Y683200D01*
X1082759Y682919D01*
X1082663Y682790D01*
X1082584Y682670D01*
X1082522Y682557D01*
X1082477Y682451D01*
X1082449Y682354D01*
X1082438Y682264D01*
X1082444Y682182D01*
X1081314Y682971D01*
X1081396Y682991D01*
X1081485Y683025D01*
X1081582Y683073D01*
X1081686Y683136D01*
X1081798Y683212D01*
X1082046Y683407D01*
X1082181Y683526D01*
X1082473Y683806D01*
X1083150Y683352D01*
D02*
G37*
G36*
X1102762Y681516D02*
X1102677Y681509D01*
X1102585Y681486D01*
X1102486Y681448D01*
X1102379Y681395D01*
X1102265Y681325D01*
X1102143Y681241D01*
X1101878Y681025D01*
X1101735Y680893D01*
X1101583Y680746D01*
X1101018Y681312D01*
X1101165Y681463D01*
X1101512Y681872D01*
X1101597Y681993D01*
X1101666Y682107D01*
X1101720Y682214D01*
X1101758Y682313D01*
X1101781Y682406D01*
X1101787Y682490D01*
X1102762Y681516D01*
D02*
G37*
G36*
X1030898Y677781D02*
X1030758Y677634D01*
X1030527Y677356D01*
X1030436Y677223D01*
X1030361Y677095D01*
X1030302Y676971D01*
X1030260Y676852D01*
X1030235Y676737D01*
X1030225Y676626D01*
X1030232Y676520D01*
X1029136Y677356D01*
X1029249Y677376D01*
X1029366Y677410D01*
X1029486Y677456D01*
X1029608Y677515D01*
X1029735Y677588D01*
X1029864Y677673D01*
X1029996Y677772D01*
X1030271Y678007D01*
X1030414Y678145D01*
X1030898Y677781D01*
D02*
G37*
G36*
X1125982Y673688D02*
X1125835Y673537D01*
X1125488Y673128D01*
X1125403Y673007D01*
X1125334Y672893D01*
X1125280Y672786D01*
X1125242Y672686D01*
X1125220Y672594D01*
X1125212Y672510D01*
X1124238Y673484D01*
X1124323Y673491D01*
X1124415Y673514D01*
X1124514Y673552D01*
X1124621Y673605D01*
X1124735Y673675D01*
X1124857Y673759D01*
X1125122Y673976D01*
X1125266Y674107D01*
X1125417Y674254D01*
X1125982Y673688D01*
D02*
G37*
G36*
X1124218Y671516D02*
X1124134Y671509D01*
X1124042Y671486D01*
X1123942Y671448D01*
X1123836Y671395D01*
X1123722Y671325D01*
X1123600Y671241D01*
X1123335Y671025D01*
X1123191Y670893D01*
X1123040Y670746D01*
X1122474Y671312D01*
X1122621Y671463D01*
X1122969Y671872D01*
X1123054Y671993D01*
X1123123Y672107D01*
X1123177Y672214D01*
X1123215Y672313D01*
X1123237Y672405D01*
X1123244Y672490D01*
X1124218Y671516D01*
D02*
G37*
D18*
X1051992Y715629D02*
Y792421D01*
X1030913Y813500D02*
X1051992Y792421D01*
X937368Y601957D02*
X937853Y602441D01*
X937368Y601789D02*
Y601957D01*
X930373Y594794D02*
X937368Y601789D01*
X930373Y594794D02*
Y594794D01*
X923080Y587500D02*
X930373Y594794D01*
X836500Y558000D02*
X866000Y587500D01*
X923080D01*
X869000Y584000D02*
X925177D01*
X935000Y593823D01*
X839740Y554740D02*
X869000Y584000D01*
X798323Y554740D02*
X839740D01*
X817000Y558000D02*
X836500D01*
D80*
X793000Y552870D02*
D03*
X929295Y634016D02*
D03*
X1066992Y629881D02*
D03*
X985000Y658000D02*
D03*
X979214Y659500D02*
D03*
X1038500Y632000D02*
D03*
X1048153Y715629D02*
D03*
X937046Y620236D02*
D03*
X935000Y593823D02*
D03*
X1038370Y703177D02*
D03*
X1081477Y682000D02*
D03*
X967445Y598500D02*
D03*
X1047529Y642041D02*
D03*
X1054000Y637953D02*
D03*
X1051992Y715629D02*
D03*
X1042314Y703000D02*
D03*
X970750Y647000D02*
D03*
X1014500Y628000D02*
D03*
X959743Y668579D02*
D03*
X954701Y653701D02*
D03*
X937853Y602441D02*
D03*
X980500Y584000D02*
D03*
X962000Y674000D02*
D03*
X951107Y675039D02*
D03*
X988000Y647000D02*
D03*
X967500D02*
D03*
X1044157Y631843D02*
D03*
X974000Y647000D02*
D03*
X994441Y644685D02*
D03*
X1059394Y817984D02*
D03*
X1111500Y833000D02*
D03*
Y828000D02*
D03*
X1042445Y852905D02*
D03*
Y847906D02*
D03*
X1006441Y864709D02*
D03*
X1030913Y813500D02*
D03*
X1119000Y826000D02*
D03*
X1058000Y596664D02*
D03*
X945500Y765228D02*
D03*
X935500Y743772D02*
D03*
X1026296Y676374D02*
D03*
X869000Y690000D02*
D03*
X874500Y716500D02*
D03*
X858488Y736500D02*
D03*
X1125000Y826000D02*
D03*
X904500Y893138D02*
D03*
X917500Y903843D02*
D03*
Y907500D02*
D03*
X914000Y897862D02*
D03*
X896461Y879500D02*
D03*
X1124228Y672500D02*
D03*
X1088000Y625000D02*
D03*
X1097055D02*
D03*
X1009000Y555500D02*
D03*
Y535000D02*
D03*
Y545250D02*
D03*
X969658Y535000D02*
D03*
X1102772Y682500D02*
D03*
X1111000Y610500D02*
D03*
X917595Y567646D02*
D03*
Y551687D02*
D03*
X1015407Y604620D02*
D03*
X1049907Y614120D02*
D03*
X1017500Y609500D02*
D03*
X1012500D02*
D03*
X1032657Y614120D02*
D03*
X1044157Y622389D02*
D03*
X907473Y748500D02*
D03*
X1029258Y676379D02*
D03*
X894720Y694000D02*
D03*
X907236Y843086D02*
D03*
X817000Y558000D02*
D03*
X798323Y554740D02*
D03*
D137*
X956339Y664792D02*
X1011208D01*
X1044157Y631843D01*
X894000Y727131D02*
X956339Y664792D01*
X1007794Y662706D02*
X1038500Y632000D01*
X891000Y724723D02*
X953016Y662706D01*
X1007794D01*
X893236Y620236D02*
X937046D01*
X913616Y897478D02*
X913616Y897478D01*
X1006500Y831779D02*
Y864709D01*
X891000Y724723D02*
X891000Y866000D01*
X1102772Y682500D02*
X1109116Y688844D01*
X1062313Y642041D02*
X1102772Y682500D01*
X904000Y733878D02*
Y855500D01*
X922095Y873595D01*
Y904395D01*
X891000Y866000D02*
X896461Y871461D01*
X1048153Y715629D02*
Y790126D01*
X1006500Y831779D02*
X1048153Y790126D01*
X964756Y584000D02*
X980500D01*
X932443Y551687D02*
X964756Y584000D01*
X1047529Y642041D02*
X1062313D01*
X1115279Y794762D02*
Y829220D01*
X1127500Y675772D02*
Y782542D01*
X1115279Y794762D02*
X1127500Y782542D01*
X1109116Y688844D02*
Y825616D01*
X1018000Y671570D02*
Y680976D01*
X945500Y753476D02*
Y765228D01*
Y753476D02*
X1018000Y680976D01*
X935500Y743772D02*
X935723Y743548D01*
X1042361Y637953D02*
X1054000D01*
X935723Y743548D02*
X936766D01*
X1042361Y637953D01*
X1047529Y642041D02*
Y642041D01*
X1018000Y671570D02*
X1047529Y642041D01*
X901000Y730909D02*
X959743Y672166D01*
Y668579D02*
Y672166D01*
X894000Y727131D02*
Y863500D01*
X962000Y674000D02*
Y675878D01*
X904000Y733878D02*
X962000Y675878D01*
X901000Y730909D02*
Y858000D01*
X918990Y907500D02*
X922095Y904395D01*
X901000Y858000D02*
X918943Y875943D01*
Y902399D01*
X917500Y903843D02*
X918943Y902399D01*
X907236Y748736D02*
X907473Y748500D01*
X907236Y748736D02*
Y843086D01*
X798000Y568500D02*
X841500D01*
X893236Y620236D01*
X793000Y552870D02*
Y563500D01*
X798000Y568500D01*
X1111500Y833000D02*
X1115279Y829220D01*
X1109116Y825616D02*
X1111500Y828000D01*
X1081477Y682244D02*
X1097945Y698712D01*
X1059394Y815106D02*
X1097945Y776555D01*
Y698712D02*
Y776555D01*
X1081477Y682000D02*
Y682244D01*
X1124228Y672500D02*
X1127500Y675772D01*
X1112228Y660500D02*
X1124228Y672500D01*
X951107Y675039D02*
Y675039D01*
X897500Y728646D02*
Y860000D01*
Y728646D02*
X951107Y675039D01*
X917500Y907500D02*
X918990D01*
X935629Y566684D02*
X967445Y598500D01*
X917595Y567646D02*
X917685D01*
X918647Y566684D01*
X935629D01*
X917595Y551687D02*
X932443D01*
X1059394Y815106D02*
Y817984D01*
X916500Y879000D02*
Y895362D01*
X914000Y897862D02*
X916500Y895362D01*
X914000Y897862D02*
X914000D01*
X897500Y860000D02*
X916500Y879000D01*
X896461Y871461D02*
Y879500D01*
X894000Y863500D02*
X904500Y874000D01*
Y893138D01*
X1071049Y637953D02*
X1093596Y660500D01*
X1112228D01*
X1054000Y637953D02*
X1071049D01*
D140*
X1005255Y660745D02*
X1043152Y622848D01*
X979585Y659500D02*
X980830Y660745D01*
X1005255D01*
X990500Y621004D02*
X993108Y618396D01*
X1045632D02*
X1049907Y614120D01*
X993108Y618396D02*
X1045632D01*
X990500Y621004D02*
Y652500D01*
X1038165Y616500D02*
X1058000Y596664D01*
X988000Y621000D02*
X992500Y616500D01*
X1038165D01*
X985000Y658000D02*
X990500Y652500D01*
X898013Y642487D02*
X920824D01*
X929295Y634016D01*
X967500Y628371D02*
Y647000D01*
Y628371D02*
X986371Y609500D01*
X974000Y633000D02*
X992880Y614120D01*
X974000Y633000D02*
Y647000D01*
X971000Y633544D02*
X992044Y612500D01*
X971000Y633544D02*
Y647000D01*
X997815Y644685D02*
X1014500Y628000D01*
X994441Y644685D02*
X997815D01*
X988000Y621000D02*
Y647000D01*
X986371Y609500D02*
X1012500D01*
X992880Y614120D02*
X1032657D01*
X1014500Y612500D02*
X1017500Y609500D01*
X992044Y612500D02*
X1014500D01*
X954701Y638726D02*
X988806Y604620D01*
X954701Y638726D02*
Y653701D01*
X988806Y604620D02*
X1015407D01*
X874500Y711500D02*
Y716616D01*
X1119000Y826000D02*
X1122000Y823000D01*
X1126130D01*
X1042314Y686204D02*
Y703000D01*
X1030204Y674095D02*
X1042314Y686204D01*
X1038370Y685677D02*
Y703177D01*
X1029258Y676565D02*
X1038370Y685677D01*
X1026296Y676110D02*
X1028312Y674095D01*
X1026296Y676110D02*
Y676374D01*
X1028312Y674095D02*
X1030204D01*
X1041500Y565000D02*
X1062500Y586000D01*
Y625389D01*
X1066992Y629881D01*
X1009000Y535000D02*
X1055000D01*
X1008887D02*
X1009000D01*
X1106000Y586000D02*
Y594108D01*
X1055000Y535000D02*
X1106000Y586000D01*
X1013640Y549890D02*
X1040890D01*
X1101500Y610500D02*
X1111000D01*
X1040890Y549890D02*
X1101500Y610500D01*
X1039500Y555500D02*
X1088000Y604000D01*
X1009000Y555500D02*
X1039500D01*
X1088000Y604000D02*
Y625000D01*
X1006500Y565000D02*
X1041500D01*
X1029258Y676379D02*
Y676565D01*
X1009000Y545250D02*
X1013640Y549890D01*
X1043787Y622389D02*
X1044157D01*
X1043327Y622848D02*
X1043787Y622389D01*
X1043152Y622848D02*
X1043327D01*
X979214Y659500D02*
X979585D01*
X976500Y535000D02*
X1006500Y565000D01*
X969658Y535000D02*
X976500D01*
X1107055Y615000D02*
X1112000D01*
X1097055Y625000D02*
X1107055Y615000D01*
X870000Y670500D02*
X898013Y642487D01*
X1106000Y594108D02*
X1114000Y602108D01*
X1112000Y615000D02*
X1114000Y613000D01*
Y602108D02*
Y613000D01*
X858488Y736500D02*
X863000D01*
X894720Y694000D02*
Y704779D01*
X863000Y736500D02*
X894720Y704779D01*
X870000Y670500D02*
Y689000D01*
X1129130Y826000D02*
Y831870D01*
X1126130Y823000D02*
X1129130Y826000D01*
X1116500Y844500D02*
X1129130Y831870D01*
X1064500Y841500D02*
X1114686D01*
X1125000Y826000D02*
Y831186D01*
X1114686Y841500D02*
X1125000Y831186D01*
X1065905Y844500D02*
X1116500D01*
X1042445Y852905D02*
X1057500D01*
X1065905Y844500D01*
X1058095Y847906D02*
X1064500Y841500D01*
X1042445Y847906D02*
X1058095D01*
X866500Y703500D02*
X874500Y711500D01*
X866500Y698159D02*
Y703500D01*
X869000Y690000D02*
Y695658D01*
X866500Y698159D02*
X869000Y695658D01*
Y690000D02*
X870000Y689000D01*
M02*
