G04*
G04 #@! TF.GenerationSoftware,Altium Limited,Altium Designer,20.2.5 (213)*
G04*
G04 Layer_Physical_Order=7*
G04 Layer_Color=16776960*
%FSLAX25Y25*%
%MOIN*%
G70*
G04*
G04 #@! TF.SameCoordinates,0EDA941F-9717-4D80-9818-445CF3A130AC*
G04*
G04*
G04 #@! TF.FilePolarity,Positive*
G04*
G01*
G75*
%ADD80C,0.01968*%
G36*
X967288Y919954D02*
X969754Y919464D01*
X972160Y918734D01*
X974483Y917772D01*
X976701Y916586D01*
X978791Y915190D01*
X980735Y913594D01*
X981624Y912706D01*
X981624Y912706D01*
X981721Y912770D01*
X993829Y900178D01*
X993795Y900137D01*
X993795Y900137D01*
X994705Y899271D01*
X996646Y897678D01*
X998734Y896282D01*
X1000949Y895099D01*
X1003269Y894138D01*
X1005672Y893409D01*
X1008136Y892919D01*
X1010635Y892673D01*
X1011890Y892642D01*
X1011890Y892591D01*
X1112500Y892642D01*
X1113667D01*
X1116169Y892395D01*
X1118635Y891905D01*
X1121041Y891175D01*
X1123364Y890213D01*
X1125581Y889027D01*
X1127672Y887630D01*
X1129616Y886035D01*
X1131394Y884258D01*
X1132989Y882314D01*
X1134386Y880223D01*
X1135571Y878006D01*
X1136533Y875683D01*
X1137263Y873277D01*
X1137753Y870811D01*
X1138000Y868308D01*
Y867051D01*
Y552102D01*
Y550845D01*
X1137753Y548343D01*
X1137263Y545877D01*
X1136533Y543471D01*
X1135571Y541148D01*
X1134386Y538930D01*
X1132989Y536840D01*
X1131394Y534896D01*
X1129616Y533118D01*
X1127672Y531523D01*
X1125581Y530126D01*
X1123364Y528941D01*
X1121041Y527979D01*
X1118635Y527249D01*
X1116169Y526758D01*
X1113667Y526512D01*
X768633D01*
X766130Y526758D01*
X763664Y527249D01*
X761258Y527979D01*
X758935Y528941D01*
X756718Y530126D01*
X754627Y531523D01*
X752683Y533118D01*
X750906Y534896D01*
X749310Y536840D01*
X747914Y538930D01*
X746728Y541148D01*
X745766Y543471D01*
X745036Y545877D01*
X744546Y548343D01*
X744299Y550845D01*
Y552102D01*
Y894610D01*
Y895867D01*
X744546Y898370D01*
X745036Y900836D01*
X745766Y903242D01*
X746728Y905565D01*
X747914Y907782D01*
X749310Y909873D01*
X750906Y911817D01*
X752683Y913594D01*
X754627Y915190D01*
X756718Y916586D01*
X758935Y917772D01*
X761258Y918734D01*
X763664Y919464D01*
X766130Y919954D01*
X768633Y920201D01*
X964786D01*
X967288Y919954D01*
D02*
G37*
%LPC*%
G36*
X909000Y914859D02*
X908671Y914793D01*
X908393Y914607D01*
X908207Y914329D01*
X908141Y914000D01*
X908207Y913671D01*
X908393Y913393D01*
X908671Y913207D01*
X909000Y913141D01*
X909329Y913207D01*
X909607Y913393D01*
X909793Y913671D01*
X909859Y914000D01*
X909793Y914329D01*
X909607Y914607D01*
X909329Y914793D01*
X909000Y914859D01*
D02*
G37*
G36*
X951752Y916352D02*
X948209D01*
X947381Y916187D01*
X946679Y915719D01*
X946210Y915017D01*
X946045Y914189D01*
Y910252D01*
X946210Y909424D01*
X946679Y908722D01*
X947381Y908253D01*
X948209Y908089D01*
X951752D01*
X952580Y908253D01*
X953282Y908722D01*
X953751Y909424D01*
X953783Y909587D01*
X954006Y909679D01*
X954614Y910146D01*
X955080Y910753D01*
X955373Y911461D01*
X955474Y912220D01*
X955373Y912980D01*
X955080Y913688D01*
X954614Y914295D01*
X954006Y914762D01*
X953783Y914854D01*
X953751Y915017D01*
X953282Y915719D01*
X952580Y916187D01*
X951752Y916352D01*
D02*
G37*
G36*
X926555D02*
X923012D01*
X922184Y916187D01*
X921482Y915719D01*
X921013Y915017D01*
X920981Y914854D01*
X920757Y914762D01*
X920150Y914295D01*
X919683Y913688D01*
X919390Y912980D01*
X919290Y912220D01*
X919390Y911461D01*
X919683Y910753D01*
X920150Y910146D01*
X920757Y909679D01*
X920981Y909587D01*
X921013Y909424D01*
X921482Y908722D01*
X922184Y908253D01*
X923012Y908089D01*
X926555D01*
X927383Y908253D01*
X928085Y908722D01*
X928554Y909424D01*
X928718Y910252D01*
Y914189D01*
X928554Y915017D01*
X928085Y915719D01*
X927383Y916187D01*
X926555Y916352D01*
D02*
G37*
G36*
X892433D02*
X888890D01*
X888062Y916187D01*
X887360Y915719D01*
X886891Y915017D01*
X886726Y914189D01*
Y910252D01*
X886891Y909424D01*
X887360Y908722D01*
X888062Y908253D01*
X888890Y908089D01*
X892433D01*
X893261Y908253D01*
X893963Y908722D01*
X894432Y909424D01*
X894464Y909587D01*
X894687Y909679D01*
X895295Y910146D01*
X895761Y910753D01*
X896055Y911461D01*
X896155Y912220D01*
X896055Y912980D01*
X895761Y913688D01*
X895295Y914295D01*
X894687Y914762D01*
X894464Y914854D01*
X894432Y915017D01*
X893963Y915719D01*
X893261Y916187D01*
X892433Y916352D01*
D02*
G37*
G36*
X867236D02*
X863693D01*
X862865Y916187D01*
X862163Y915719D01*
X861694Y915017D01*
X861662Y914854D01*
X861438Y914762D01*
X860831Y914295D01*
X860365Y913688D01*
X860071Y912980D01*
X859971Y912220D01*
X860071Y911461D01*
X860365Y910753D01*
X860831Y910146D01*
X861438Y909679D01*
X861662Y909587D01*
X861694Y909424D01*
X862163Y908722D01*
X862865Y908253D01*
X863693Y908089D01*
X867236D01*
X868064Y908253D01*
X868766Y908722D01*
X869235Y909424D01*
X869399Y910252D01*
Y914189D01*
X869235Y915017D01*
X868766Y915719D01*
X868064Y916187D01*
X867236Y916352D01*
D02*
G37*
G36*
X917500Y908860D02*
X916979Y908757D01*
X916538Y908462D01*
X916243Y908021D01*
X916140Y907500D01*
X916243Y906979D01*
X916538Y906538D01*
X916979Y906243D01*
X917500Y906140D01*
X918021Y906243D01*
X918462Y906538D01*
X918757Y906979D01*
X918860Y907500D01*
X918757Y908021D01*
X918462Y908462D01*
X918021Y908757D01*
X917500Y908860D01*
D02*
G37*
G36*
X904768Y907762D02*
X904247Y907658D01*
X903806Y907364D01*
X903511Y906922D01*
X903407Y906402D01*
X903511Y905881D01*
X903806Y905440D01*
X904247Y905145D01*
X904768Y905041D01*
X905288Y905145D01*
X905730Y905440D01*
X906025Y905881D01*
X906128Y906402D01*
X906025Y906922D01*
X905730Y907364D01*
X905288Y907658D01*
X904768Y907762D01*
D02*
G37*
G36*
X898500Y905484D02*
X897726Y905330D01*
X897493Y905174D01*
X898500Y904168D01*
X899507Y905174D01*
X899274Y905330D01*
X898500Y905484D01*
D02*
G37*
G36*
X917500Y905203D02*
X916979Y905099D01*
X916538Y904805D01*
X916243Y904363D01*
X916140Y903843D01*
X916243Y903322D01*
X916538Y902881D01*
X916979Y902586D01*
X917500Y902482D01*
X918021Y902586D01*
X918462Y902881D01*
X918757Y903322D01*
X918860Y903843D01*
X918757Y904363D01*
X918462Y904805D01*
X918021Y905099D01*
X917500Y905203D01*
D02*
G37*
G36*
X900214Y904467D02*
X899207Y903461D01*
X900214Y902454D01*
X900369Y902686D01*
X900523Y903461D01*
X900369Y904235D01*
X900214Y904467D01*
D02*
G37*
G36*
X896786Y904467D02*
X896631Y904235D01*
X896477Y903461D01*
X896631Y902686D01*
X896786Y902454D01*
X897793Y903461D01*
X896786Y904467D01*
D02*
G37*
G36*
X898500Y902754D02*
X897493Y901747D01*
X897726Y901591D01*
X898500Y901437D01*
X899274Y901591D01*
X899507Y901747D01*
X898500Y902754D01*
D02*
G37*
G36*
X947224Y904823D02*
X946388Y904712D01*
X945608Y904389D01*
X944939Y903876D01*
X944425Y903207D01*
X944103Y902427D01*
X943992Y901591D01*
X944103Y900754D01*
X944425Y899975D01*
X944939Y899305D01*
X945608Y898792D01*
X946388Y898469D01*
X947224Y898359D01*
X948061Y898469D01*
X948840Y898792D01*
X949510Y899305D01*
X950023Y899975D01*
X950346Y900754D01*
X950456Y901591D01*
X950346Y902427D01*
X950023Y903207D01*
X949510Y903876D01*
X948840Y904389D01*
X948061Y904712D01*
X947224Y904823D01*
D02*
G37*
G36*
X927539D02*
X926703Y904712D01*
X925923Y904389D01*
X925254Y903876D01*
X924740Y903207D01*
X924417Y902427D01*
X924307Y901591D01*
X924417Y900754D01*
X924740Y899975D01*
X925254Y899305D01*
X925923Y898792D01*
X926703Y898469D01*
X927539Y898359D01*
X928376Y898469D01*
X929155Y898792D01*
X929825Y899305D01*
X930338Y899975D01*
X930661Y900754D01*
X930771Y901591D01*
X930661Y902427D01*
X930338Y903207D01*
X929825Y903876D01*
X929155Y904389D01*
X928376Y904712D01*
X927539Y904823D01*
D02*
G37*
G36*
X887906D02*
X887069Y904712D01*
X886290Y904389D01*
X885620Y903876D01*
X885106Y903207D01*
X884784Y902427D01*
X884674Y901591D01*
X884784Y900754D01*
X885106Y899975D01*
X885620Y899305D01*
X886290Y898792D01*
X887069Y898469D01*
X887906Y898359D01*
X888742Y898469D01*
X889522Y898792D01*
X890191Y899305D01*
X890705Y899975D01*
X891027Y900754D01*
X891138Y901591D01*
X891027Y902427D01*
X890705Y903207D01*
X890191Y903876D01*
X889522Y904389D01*
X888742Y904712D01*
X887906Y904823D01*
D02*
G37*
G36*
X868221D02*
X867384Y904712D01*
X866605Y904389D01*
X865935Y903876D01*
X865421Y903207D01*
X865099Y902427D01*
X864989Y901591D01*
X865099Y900754D01*
X865421Y899975D01*
X865935Y899305D01*
X866605Y898792D01*
X867384Y898469D01*
X868221Y898359D01*
X869057Y898469D01*
X869837Y898792D01*
X870506Y899305D01*
X871019Y899975D01*
X871342Y900754D01*
X871452Y901591D01*
X871342Y902427D01*
X871019Y903207D01*
X870506Y903876D01*
X869837Y904389D01*
X869057Y904712D01*
X868221Y904823D01*
D02*
G37*
G36*
X898500Y899900D02*
X897979Y899796D01*
X897538Y899501D01*
X897243Y899060D01*
X897140Y898539D01*
X897243Y898019D01*
X897538Y897577D01*
X897979Y897283D01*
X898500Y897179D01*
X899021Y897283D01*
X899462Y897577D01*
X899757Y898019D01*
X899860Y898539D01*
X899757Y899060D01*
X899462Y899501D01*
X899021Y899796D01*
X898500Y899900D01*
D02*
G37*
G36*
X914000Y899223D02*
X913479Y899119D01*
X913038Y898824D01*
X912743Y898383D01*
X912640Y897862D01*
X912743Y897342D01*
X913038Y896900D01*
X913479Y896605D01*
X914000Y896502D01*
X914521Y896605D01*
X914962Y896900D01*
X915257Y897342D01*
X915360Y897862D01*
X915257Y898383D01*
X914962Y898824D01*
X914521Y899119D01*
X914000Y899223D01*
D02*
G37*
G36*
X878000Y897360D02*
X877479Y897257D01*
X877038Y896962D01*
X876743Y896521D01*
X876640Y896000D01*
X876743Y895479D01*
X877038Y895038D01*
X877479Y894743D01*
X878000Y894640D01*
X878521Y894743D01*
X878962Y895038D01*
X879257Y895479D01*
X879360Y896000D01*
X879257Y896521D01*
X878962Y896962D01*
X878521Y897257D01*
X878000Y897360D01*
D02*
G37*
G36*
X873500Y893763D02*
X872726Y893609D01*
X872493Y893454D01*
X873500Y892447D01*
X874507Y893454D01*
X874274Y893609D01*
X873500Y893763D01*
D02*
G37*
G36*
X914000Y894498D02*
X913479Y894395D01*
X913038Y894100D01*
X912743Y893658D01*
X912640Y893138D01*
X912743Y892617D01*
X913038Y892176D01*
X913479Y891881D01*
X914000Y891777D01*
X914521Y891881D01*
X914962Y892176D01*
X915257Y892617D01*
X915360Y893138D01*
X915257Y893658D01*
X914962Y894100D01*
X914521Y894395D01*
X914000Y894498D01*
D02*
G37*
G36*
X904500D02*
X903979Y894395D01*
X903538Y894100D01*
X903243Y893658D01*
X903140Y893138D01*
X903243Y892617D01*
X903538Y892176D01*
X903979Y891881D01*
X904500Y891777D01*
X905021Y891881D01*
X905462Y892176D01*
X905757Y892617D01*
X905860Y893138D01*
X905757Y893658D01*
X905462Y894100D01*
X905021Y894395D01*
X904500Y894498D01*
D02*
G37*
G36*
X909396Y894463D02*
X908875Y894360D01*
X908434Y894065D01*
X908139Y893624D01*
X908035Y893103D01*
X908139Y892582D01*
X908434Y892141D01*
X908875Y891846D01*
X909396Y891743D01*
X909916Y891846D01*
X910358Y892141D01*
X910653Y892582D01*
X910756Y893103D01*
X910653Y893624D01*
X910358Y894065D01*
X909916Y894360D01*
X909396Y894463D01*
D02*
G37*
G36*
X875214Y892747D02*
X874207Y891740D01*
X875214Y890734D01*
X875369Y890966D01*
X875523Y891740D01*
X875369Y892514D01*
X875214Y892747D01*
D02*
G37*
G36*
X871786Y892747D02*
X871631Y892514D01*
X871477Y891740D01*
X871631Y890966D01*
X871786Y890734D01*
X872793Y891740D01*
X871786Y892747D01*
D02*
G37*
G36*
X873500Y891033D02*
X872493Y890026D01*
X872726Y889871D01*
X873500Y889717D01*
X874274Y889871D01*
X874507Y890026D01*
X873500Y891033D01*
D02*
G37*
G36*
X942000Y891360D02*
X941479Y891257D01*
X941038Y890962D01*
X940743Y890521D01*
X940640Y890000D01*
X940743Y889479D01*
X941038Y889038D01*
X941479Y888743D01*
X942000Y888640D01*
X942521Y888743D01*
X942962Y889038D01*
X943257Y889479D01*
X943360Y890000D01*
X943257Y890521D01*
X942962Y890962D01*
X942521Y891257D01*
X942000Y891360D01*
D02*
G37*
G36*
X864500Y890821D02*
X863979Y890718D01*
X863538Y890423D01*
X863243Y889981D01*
X863140Y889461D01*
X863243Y888940D01*
X863538Y888499D01*
X863979Y888204D01*
X864500Y888100D01*
X865021Y888204D01*
X865462Y888499D01*
X865757Y888940D01*
X865860Y889461D01*
X865757Y889981D01*
X865462Y890423D01*
X865021Y890718D01*
X864500Y890821D01*
D02*
G37*
G36*
X937322Y889360D02*
X936801Y889257D01*
X936360Y888962D01*
X936065Y888521D01*
X935961Y888000D01*
X936065Y887479D01*
X936360Y887038D01*
X936801Y886743D01*
X937322Y886640D01*
X937842Y886743D01*
X938284Y887038D01*
X938579Y887479D01*
X938682Y888000D01*
X938579Y888521D01*
X938284Y888962D01*
X937842Y889257D01*
X937322Y889360D01*
D02*
G37*
G36*
X1111343Y889266D02*
X1110822Y889162D01*
X1110381Y888867D01*
X1110086Y888426D01*
X1109982Y887906D01*
X1110086Y887385D01*
X1110381Y886944D01*
X1110822Y886649D01*
X1111343Y886545D01*
X1111863Y886649D01*
X1112304Y886944D01*
X1112599Y887385D01*
X1112703Y887906D01*
X1112599Y888426D01*
X1112304Y888867D01*
X1111863Y889162D01*
X1111343Y889266D01*
D02*
G37*
G36*
X1042445D02*
X1041924Y889162D01*
X1041483Y888867D01*
X1041188Y888426D01*
X1041084Y887906D01*
X1041188Y887385D01*
X1041483Y886944D01*
X1041924Y886649D01*
X1042445Y886545D01*
X1042966Y886649D01*
X1043407Y886944D01*
X1043702Y887385D01*
X1043805Y887906D01*
X1043702Y888426D01*
X1043407Y888867D01*
X1042966Y889162D01*
X1042445Y889266D01*
D02*
G37*
G36*
X1024075Y887416D02*
X1023554Y887312D01*
X1023113Y887017D01*
X1022818Y886576D01*
X1022714Y886055D01*
X1022818Y885534D01*
X1023113Y885093D01*
X1023554Y884798D01*
X1024075Y884695D01*
X1024595Y884798D01*
X1025037Y885093D01*
X1025332Y885534D01*
X1025435Y886055D01*
X1025332Y886576D01*
X1025037Y887017D01*
X1024595Y887312D01*
X1024075Y887416D01*
D02*
G37*
G36*
X769890Y906809D02*
X767981Y906659D01*
X766120Y906212D01*
X764352Y905479D01*
X762720Y904479D01*
X761264Y903236D01*
X760021Y901780D01*
X759021Y900148D01*
X758288Y898380D01*
X757841Y896519D01*
X757691Y894610D01*
X757841Y892702D01*
X758288Y890841D01*
X759021Y889072D01*
X760021Y887440D01*
X761264Y885985D01*
X762720Y884741D01*
X764352Y883741D01*
X766120Y883009D01*
X767981Y882562D01*
X769890Y882412D01*
X771798Y882562D01*
X773659Y883009D01*
X775428Y883741D01*
X777060Y884741D01*
X778515Y885985D01*
X779759Y887440D01*
X780759Y889072D01*
X781491Y890841D01*
X781938Y892702D01*
X782088Y894610D01*
X781938Y896519D01*
X781491Y898380D01*
X780759Y900148D01*
X779759Y901780D01*
X778515Y903236D01*
X777060Y904479D01*
X775428Y905479D01*
X773659Y906212D01*
X771798Y906659D01*
X769890Y906809D01*
D02*
G37*
G36*
X966740Y906809D02*
X964832Y906658D01*
X962971Y906212D01*
X961202Y905479D01*
X959570Y904479D01*
X958114Y903236D01*
X956871Y901780D01*
X955871Y900148D01*
X955139Y898380D01*
X954692Y896518D01*
X954541Y894610D01*
X954692Y892702D01*
X955139Y890840D01*
X955871Y889072D01*
X956871Y887440D01*
X958114Y885984D01*
X959570Y884741D01*
X961202Y883741D01*
X962971Y883008D01*
X964832Y882562D01*
X966740Y882411D01*
X968648Y882562D01*
X970510Y883008D01*
X972278Y883741D01*
X973910Y884741D01*
X975366Y885984D01*
X976609Y887440D01*
X977609Y889072D01*
X978342Y890840D01*
X978789Y892702D01*
X978939Y894610D01*
X978789Y896518D01*
X978342Y898380D01*
X977609Y900148D01*
X976609Y901780D01*
X975366Y903236D01*
X973910Y904479D01*
X972278Y905479D01*
X970510Y906212D01*
X968648Y906658D01*
X966740Y906809D01*
D02*
G37*
G36*
X1111343Y884266D02*
X1110822Y884162D01*
X1110381Y883867D01*
X1110086Y883426D01*
X1109982Y882905D01*
X1110086Y882385D01*
X1110381Y881944D01*
X1110822Y881649D01*
X1111343Y881545D01*
X1111863Y881649D01*
X1112304Y881944D01*
X1112599Y882385D01*
X1112703Y882905D01*
X1112599Y883426D01*
X1112304Y883867D01*
X1111863Y884162D01*
X1111343Y884266D01*
D02*
G37*
G36*
X1024075Y881779D02*
X1023301Y881625D01*
X1023068Y881470D01*
X1024075Y880463D01*
X1025082Y881470D01*
X1024849Y881625D01*
X1024075Y881779D01*
D02*
G37*
G36*
X1025789Y880763D02*
X1024782Y879756D01*
X1025789Y878749D01*
X1025944Y878982D01*
X1026098Y879756D01*
X1025944Y880530D01*
X1025789Y880763D01*
D02*
G37*
G36*
X1022361Y880763D02*
X1022206Y880530D01*
X1022052Y879756D01*
X1022206Y878982D01*
X1022361Y878749D01*
X1023368Y879756D01*
X1022361Y880763D01*
D02*
G37*
G36*
X896461Y880860D02*
X895940Y880757D01*
X895499Y880462D01*
X895204Y880021D01*
X895100Y879500D01*
X895204Y878979D01*
X895499Y878538D01*
X895940Y878243D01*
X896461Y878140D01*
X896981Y878243D01*
X897423Y878538D01*
X897717Y878979D01*
X897821Y879500D01*
X897717Y880021D01*
X897423Y880462D01*
X896981Y880757D01*
X896461Y880860D01*
D02*
G37*
G36*
X891378Y880854D02*
X890858Y880751D01*
X890416Y880456D01*
X890121Y880015D01*
X890018Y879494D01*
X890121Y878973D01*
X890416Y878532D01*
X890858Y878237D01*
X891378Y878134D01*
X891899Y878237D01*
X892340Y878532D01*
X892635Y878973D01*
X892739Y879494D01*
X892635Y880015D01*
X892340Y880456D01*
X891899Y880751D01*
X891378Y880854D01*
D02*
G37*
G36*
X1024075Y879049D02*
X1023068Y878042D01*
X1023301Y877887D01*
X1024075Y877733D01*
X1024849Y877887D01*
X1025082Y878042D01*
X1024075Y879049D01*
D02*
G37*
G36*
X875528Y878523D02*
X874753Y878369D01*
X874521Y878214D01*
X875528Y877207D01*
X876534Y878214D01*
X876302Y878369D01*
X875528Y878523D01*
D02*
G37*
G36*
X1111343Y879266D02*
X1110822Y879162D01*
X1110381Y878867D01*
X1110086Y878426D01*
X1109982Y877905D01*
X1110086Y877385D01*
X1110381Y876944D01*
X1110822Y876649D01*
X1111343Y876545D01*
X1111863Y876649D01*
X1112304Y876944D01*
X1112599Y877385D01*
X1112703Y877905D01*
X1112599Y878426D01*
X1112304Y878867D01*
X1111863Y879162D01*
X1111343Y879266D01*
D02*
G37*
G36*
X877241Y877507D02*
X876235Y876500D01*
X877241Y875493D01*
X877397Y875726D01*
X877551Y876500D01*
X877397Y877274D01*
X877241Y877507D01*
D02*
G37*
G36*
X873814Y877507D02*
X873658Y877274D01*
X873504Y876500D01*
X873658Y875726D01*
X873814Y875493D01*
X874821Y876500D01*
X873814Y877507D01*
D02*
G37*
G36*
X870213Y877860D02*
X869692Y877757D01*
X869251Y877462D01*
X868956Y877021D01*
X868852Y876500D01*
X868956Y875979D01*
X869251Y875538D01*
X869692Y875243D01*
X870213Y875140D01*
X870733Y875243D01*
X871175Y875538D01*
X871469Y875979D01*
X871573Y876500D01*
X871469Y877021D01*
X871175Y877462D01*
X870733Y877757D01*
X870213Y877860D01*
D02*
G37*
G36*
X984157Y877360D02*
X983637Y877257D01*
X983195Y876962D01*
X982901Y876521D01*
X982797Y876000D01*
X982901Y875479D01*
X983195Y875038D01*
X983637Y874743D01*
X984157Y874640D01*
X984678Y874743D01*
X985119Y875038D01*
X985414Y875479D01*
X985518Y876000D01*
X985414Y876521D01*
X985119Y876962D01*
X984678Y877257D01*
X984157Y877360D01*
D02*
G37*
G36*
X875528Y875793D02*
X874521Y874786D01*
X874753Y874631D01*
X875528Y874477D01*
X876302Y874631D01*
X876534Y874786D01*
X875528Y875793D01*
D02*
G37*
G36*
X1042445Y874266D02*
X1041924Y874162D01*
X1041483Y873867D01*
X1041188Y873426D01*
X1041084Y872906D01*
X1041188Y872385D01*
X1041483Y871944D01*
X1041924Y871649D01*
X1042445Y871545D01*
X1042966Y871649D01*
X1043407Y871944D01*
X1043702Y872385D01*
X1043805Y872906D01*
X1043702Y873426D01*
X1043407Y873867D01*
X1042966Y874162D01*
X1042445Y874266D01*
D02*
G37*
G36*
X1127900Y871795D02*
X1127125Y871641D01*
X1126893Y871485D01*
X1127900Y870479D01*
X1128906Y871485D01*
X1128674Y871641D01*
X1127900Y871795D01*
D02*
G37*
G36*
X885984Y873118D02*
X885464Y873015D01*
X885022Y872720D01*
X884727Y872278D01*
X884624Y871758D01*
X884727Y871237D01*
X885022Y870796D01*
X885464Y870501D01*
X885984Y870397D01*
X886505Y870501D01*
X886946Y870796D01*
X887241Y871237D01*
X887345Y871758D01*
X887241Y872278D01*
X886946Y872720D01*
X886505Y873015D01*
X885984Y873118D01*
D02*
G37*
G36*
X1129613Y870778D02*
X1128607Y869772D01*
X1129613Y868765D01*
X1129769Y868997D01*
X1129923Y869772D01*
X1129769Y870546D01*
X1129613Y870778D01*
D02*
G37*
G36*
X1126186Y870778D02*
X1126031Y870546D01*
X1125877Y869772D01*
X1126031Y868997D01*
X1126186Y868765D01*
X1127192Y869772D01*
X1126186Y870778D01*
D02*
G37*
G36*
X999500Y871482D02*
X998979Y871379D01*
X998538Y871084D01*
X998243Y870643D01*
X998140Y870122D01*
X998243Y869601D01*
X998538Y869160D01*
X998979Y868865D01*
X999500Y868762D01*
X1000021Y868865D01*
X1000462Y869160D01*
X1000757Y869601D01*
X1000860Y870122D01*
X1000757Y870643D01*
X1000462Y871084D01*
X1000021Y871379D01*
X999500Y871482D01*
D02*
G37*
G36*
X1127900Y869065D02*
X1126893Y868058D01*
X1127125Y867902D01*
X1127900Y867749D01*
X1128674Y867902D01*
X1128906Y868058D01*
X1127900Y869065D01*
D02*
G37*
G36*
X1018000Y868700D02*
X1017226Y868546D01*
X1016993Y868391D01*
X1018000Y867384D01*
X1019007Y868391D01*
X1018774Y868546D01*
X1018000Y868700D01*
D02*
G37*
G36*
X1019714Y867684D02*
X1018707Y866677D01*
X1019714Y865670D01*
X1019869Y865903D01*
X1020023Y866677D01*
X1019869Y867451D01*
X1019714Y867684D01*
D02*
G37*
G36*
X1016286Y867684D02*
X1016131Y867451D01*
X1015977Y866677D01*
X1016131Y865903D01*
X1016286Y865670D01*
X1017293Y866677D01*
X1016286Y867684D01*
D02*
G37*
G36*
X846423Y875722D02*
X835979D01*
Y865278D01*
X846423D01*
Y875722D01*
D02*
G37*
G36*
X822500Y875767D02*
X821137Y875588D01*
X819866Y875061D01*
X818776Y874224D01*
X817939Y873133D01*
X817412Y871863D01*
X817233Y870500D01*
X817412Y869137D01*
X817939Y867867D01*
X818776Y866776D01*
X819866Y865939D01*
X821137Y865412D01*
X822500Y865233D01*
X823863Y865412D01*
X825134Y865939D01*
X826224Y866776D01*
X827061Y867867D01*
X827588Y869137D01*
X827767Y870500D01*
X827588Y871863D01*
X827061Y873133D01*
X826224Y874224D01*
X825134Y875061D01*
X823863Y875588D01*
X822500Y875767D01*
D02*
G37*
G36*
X803799D02*
X802436Y875588D01*
X801166Y875061D01*
X800075Y874224D01*
X799238Y873133D01*
X798712Y871863D01*
X798532Y870500D01*
X798712Y869137D01*
X799238Y867867D01*
X800075Y866776D01*
X801166Y865939D01*
X802436Y865412D01*
X803799Y865233D01*
X805162Y865412D01*
X806433Y865939D01*
X807524Y866776D01*
X808361Y867867D01*
X808887Y869137D01*
X809066Y870500D01*
X808887Y871863D01*
X808361Y873133D01*
X807524Y874224D01*
X806433Y875061D01*
X805162Y875588D01*
X803799Y875767D01*
D02*
G37*
G36*
X1024980Y867742D02*
X1024460Y867639D01*
X1024018Y867344D01*
X1023724Y866903D01*
X1023620Y866382D01*
X1023724Y865861D01*
X1024018Y865420D01*
X1024460Y865125D01*
X1024980Y865022D01*
X1025501Y865125D01*
X1025942Y865420D01*
X1026237Y865861D01*
X1026341Y866382D01*
X1026237Y866903D01*
X1025942Y867344D01*
X1025501Y867639D01*
X1024980Y867742D01*
D02*
G37*
G36*
X1018000Y865970D02*
X1016993Y864963D01*
X1017226Y864808D01*
X1018000Y864654D01*
X1018774Y864808D01*
X1019007Y864963D01*
X1018000Y865970D01*
D02*
G37*
G36*
X1011559Y866069D02*
X1011038Y865965D01*
X1010597Y865671D01*
X1010302Y865229D01*
X1010199Y864709D01*
X1010302Y864188D01*
X1010597Y863747D01*
X1011038Y863452D01*
X1011559Y863348D01*
X1012080Y863452D01*
X1012521Y863747D01*
X1012816Y864188D01*
X1012919Y864709D01*
X1012816Y865229D01*
X1012521Y865671D01*
X1012080Y865965D01*
X1011559Y866069D01*
D02*
G37*
G36*
X1006441D02*
X1005920Y865965D01*
X1005479Y865671D01*
X1005184Y865229D01*
X1005081Y864709D01*
X1005184Y864188D01*
X1005479Y863747D01*
X1005920Y863452D01*
X1006441Y863348D01*
X1006962Y863452D01*
X1007403Y863747D01*
X1007698Y864188D01*
X1007801Y864709D01*
X1007698Y865229D01*
X1007403Y865671D01*
X1006962Y865965D01*
X1006441Y866069D01*
D02*
G37*
G36*
X1073744Y864183D02*
X1073300Y864095D01*
X1072924Y863844D01*
X1072673Y863467D01*
X1072584Y863024D01*
X1072673Y862580D01*
X1072924Y862204D01*
X1073300Y861952D01*
X1073744Y861864D01*
X1074188Y861952D01*
X1074564Y862204D01*
X1074815Y862580D01*
X1074904Y863024D01*
X1074815Y863467D01*
X1074564Y863844D01*
X1074188Y864095D01*
X1073744Y864183D01*
D02*
G37*
G36*
X1068232D02*
X1067789Y864095D01*
X1067412Y863844D01*
X1067161Y863467D01*
X1067073Y863024D01*
X1067161Y862580D01*
X1067412Y862204D01*
X1067789Y861952D01*
X1068232Y861864D01*
X1068676Y861952D01*
X1069052Y862204D01*
X1069304Y862580D01*
X1069392Y863024D01*
X1069304Y863467D01*
X1069052Y863844D01*
X1068676Y864095D01*
X1068232Y864183D01*
D02*
G37*
G36*
X871000Y864171D02*
X870479Y864068D01*
X870038Y863773D01*
X869743Y863332D01*
X869640Y862811D01*
X869743Y862290D01*
X870038Y861849D01*
X870479Y861554D01*
X871000Y861451D01*
X871521Y861554D01*
X871962Y861849D01*
X872257Y862290D01*
X872360Y862811D01*
X872257Y863332D01*
X871962Y863773D01*
X871521Y864068D01*
X871000Y864171D01*
D02*
G37*
G36*
X1076500Y861427D02*
X1076056Y861339D01*
X1075680Y861088D01*
X1075429Y860711D01*
X1075340Y860268D01*
X1075429Y859824D01*
X1075680Y859448D01*
X1076056Y859196D01*
X1076500Y859108D01*
X1076944Y859196D01*
X1077320Y859448D01*
X1077571Y859824D01*
X1077660Y860268D01*
X1077571Y860711D01*
X1077320Y861088D01*
X1076944Y861339D01*
X1076500Y861427D01*
D02*
G37*
G36*
X1070988D02*
X1070544Y861339D01*
X1070168Y861088D01*
X1069917Y860711D01*
X1069829Y860268D01*
X1069917Y859824D01*
X1070168Y859448D01*
X1070544Y859196D01*
X1070988Y859108D01*
X1071432Y859196D01*
X1071808Y859448D01*
X1072060Y859824D01*
X1072148Y860268D01*
X1072060Y860711D01*
X1071808Y861088D01*
X1071432Y861339D01*
X1070988Y861427D01*
D02*
G37*
G36*
X1065476D02*
X1065033Y861339D01*
X1064656Y861088D01*
X1064405Y860711D01*
X1064317Y860268D01*
X1064405Y859824D01*
X1064656Y859448D01*
X1065033Y859196D01*
X1065476Y859108D01*
X1065920Y859196D01*
X1066296Y859448D01*
X1066548Y859824D01*
X1066636Y860268D01*
X1066548Y860711D01*
X1066296Y861088D01*
X1065920Y861339D01*
X1065476Y861427D01*
D02*
G37*
G36*
X1073744Y858671D02*
X1073300Y858583D01*
X1072924Y858332D01*
X1072673Y857956D01*
X1072584Y857512D01*
X1072673Y857068D01*
X1072924Y856692D01*
X1073300Y856440D01*
X1073744Y856352D01*
X1074188Y856440D01*
X1074564Y856692D01*
X1074815Y857068D01*
X1074904Y857512D01*
X1074815Y857956D01*
X1074564Y858332D01*
X1074188Y858583D01*
X1073744Y858671D01*
D02*
G37*
G36*
X1068232D02*
X1067789Y858583D01*
X1067412Y858332D01*
X1067161Y857956D01*
X1067073Y857512D01*
X1067161Y857068D01*
X1067412Y856692D01*
X1067789Y856440D01*
X1068232Y856352D01*
X1068676Y856440D01*
X1069052Y856692D01*
X1069304Y857068D01*
X1069392Y857512D01*
X1069304Y857956D01*
X1069052Y858332D01*
X1068676Y858583D01*
X1068232Y858671D01*
D02*
G37*
G36*
X1076500Y855916D02*
X1076056Y855827D01*
X1075680Y855576D01*
X1075429Y855200D01*
X1075340Y854756D01*
X1075429Y854312D01*
X1075680Y853936D01*
X1076056Y853685D01*
X1076500Y853596D01*
X1076944Y853685D01*
X1077320Y853936D01*
X1077571Y854312D01*
X1077660Y854756D01*
X1077571Y855200D01*
X1077320Y855576D01*
X1076944Y855827D01*
X1076500Y855916D01*
D02*
G37*
G36*
X1070988D02*
X1070544Y855827D01*
X1070168Y855576D01*
X1069917Y855200D01*
X1069829Y854756D01*
X1069917Y854312D01*
X1070168Y853936D01*
X1070544Y853685D01*
X1070988Y853596D01*
X1071432Y853685D01*
X1071808Y853936D01*
X1072060Y854312D01*
X1072148Y854756D01*
X1072060Y855200D01*
X1071808Y855576D01*
X1071432Y855827D01*
X1070988Y855916D01*
D02*
G37*
G36*
X1065476D02*
X1065033Y855827D01*
X1064656Y855576D01*
X1064405Y855200D01*
X1064317Y854756D01*
X1064405Y854312D01*
X1064656Y853936D01*
X1065033Y853685D01*
X1065476Y853596D01*
X1065920Y853685D01*
X1066296Y853936D01*
X1066548Y854312D01*
X1066636Y854756D01*
X1066548Y855200D01*
X1066296Y855576D01*
X1065920Y855827D01*
X1065476Y855916D01*
D02*
G37*
G36*
X985750Y855954D02*
X985229Y855850D01*
X984788Y855555D01*
X984493Y855114D01*
X984389Y854593D01*
X984493Y854072D01*
X984788Y853631D01*
X985229Y853336D01*
X985750Y853233D01*
X986270Y853336D01*
X986712Y853631D01*
X987007Y854072D01*
X987110Y854593D01*
X987007Y855114D01*
X986712Y855555D01*
X986270Y855850D01*
X985750Y855954D01*
D02*
G37*
G36*
X887953Y855444D02*
X887432Y855340D01*
X886991Y855046D01*
X886696Y854604D01*
X886592Y854084D01*
X886696Y853563D01*
X886991Y853122D01*
X887432Y852827D01*
X887953Y852723D01*
X888473Y852827D01*
X888915Y853122D01*
X889210Y853563D01*
X889313Y854084D01*
X889210Y854604D01*
X888915Y855046D01*
X888473Y855340D01*
X887953Y855444D01*
D02*
G37*
G36*
X882047Y855313D02*
X881527Y855210D01*
X881085Y854915D01*
X880790Y854473D01*
X880687Y853953D01*
X880790Y853432D01*
X881085Y852991D01*
X881527Y852696D01*
X882047Y852592D01*
X882568Y852696D01*
X883009Y852991D01*
X883304Y853432D01*
X883408Y853953D01*
X883304Y854473D01*
X883009Y854915D01*
X882568Y855210D01*
X882047Y855313D01*
D02*
G37*
G36*
X1042445Y854266D02*
X1041924Y854162D01*
X1041483Y853867D01*
X1041188Y853426D01*
X1041084Y852905D01*
X1041188Y852385D01*
X1041483Y851944D01*
X1041924Y851649D01*
X1042445Y851545D01*
X1042966Y851649D01*
X1043407Y851944D01*
X1043702Y852385D01*
X1043805Y852905D01*
X1043702Y853426D01*
X1043407Y853867D01*
X1042966Y854162D01*
X1042445Y854266D01*
D02*
G37*
G36*
X1073744Y853160D02*
X1073300Y853071D01*
X1072924Y852820D01*
X1072673Y852444D01*
X1072584Y852000D01*
X1072673Y851556D01*
X1072924Y851180D01*
X1073300Y850929D01*
X1073744Y850840D01*
X1074188Y850929D01*
X1074564Y851180D01*
X1074815Y851556D01*
X1074904Y852000D01*
X1074815Y852444D01*
X1074564Y852820D01*
X1074188Y853071D01*
X1073744Y853160D01*
D02*
G37*
G36*
X1068232D02*
X1067789Y853071D01*
X1067412Y852820D01*
X1067161Y852444D01*
X1067073Y852000D01*
X1067161Y851556D01*
X1067412Y851180D01*
X1067789Y850929D01*
X1068232Y850840D01*
X1068676Y850929D01*
X1069052Y851180D01*
X1069304Y851556D01*
X1069392Y852000D01*
X1069304Y852444D01*
X1069052Y852820D01*
X1068676Y853071D01*
X1068232Y853160D01*
D02*
G37*
G36*
X887953Y849408D02*
X887432Y849304D01*
X886991Y849009D01*
X886696Y848568D01*
X886592Y848047D01*
X886696Y847527D01*
X886991Y847085D01*
X887432Y846790D01*
X887953Y846687D01*
X888473Y846790D01*
X888915Y847085D01*
X889210Y847527D01*
X889313Y848047D01*
X889210Y848568D01*
X888915Y849009D01*
X888473Y849304D01*
X887953Y849408D01*
D02*
G37*
G36*
X882047D02*
X881527Y849304D01*
X881085Y849009D01*
X880790Y848568D01*
X880687Y848047D01*
X880790Y847527D01*
X881085Y847085D01*
X881527Y846790D01*
X882047Y846687D01*
X882568Y846790D01*
X883009Y847085D01*
X883304Y847527D01*
X883408Y848047D01*
X883304Y848568D01*
X883009Y849009D01*
X882568Y849304D01*
X882047Y849408D01*
D02*
G37*
G36*
X1042445Y849266D02*
X1041924Y849162D01*
X1041483Y848867D01*
X1041188Y848426D01*
X1041084Y847906D01*
X1041188Y847385D01*
X1041483Y846944D01*
X1041924Y846649D01*
X1042445Y846545D01*
X1042966Y846649D01*
X1043407Y846944D01*
X1043702Y847385D01*
X1043805Y847906D01*
X1043702Y848426D01*
X1043407Y848867D01*
X1042966Y849162D01*
X1042445Y849266D01*
D02*
G37*
G36*
X866000Y845661D02*
X865226Y845507D01*
X864993Y845352D01*
X866000Y844345D01*
X867007Y845352D01*
X866774Y845507D01*
X866000Y845661D01*
D02*
G37*
G36*
X1128087Y844295D02*
X1127313Y844141D01*
X1127080Y843985D01*
X1128087Y842979D01*
X1129094Y843985D01*
X1128861Y844141D01*
X1128087Y844295D01*
D02*
G37*
G36*
X867714Y844645D02*
X866707Y843638D01*
X867714Y842631D01*
X867869Y842864D01*
X868023Y843638D01*
X867869Y844412D01*
X867714Y844645D01*
D02*
G37*
G36*
X864286Y844645D02*
X864131Y844412D01*
X863977Y843638D01*
X864131Y842864D01*
X864286Y842631D01*
X865293Y843638D01*
X864286Y844645D01*
D02*
G37*
G36*
X907236Y844447D02*
X906716Y844343D01*
X906275Y844048D01*
X905980Y843607D01*
X905876Y843086D01*
X905980Y842566D01*
X906275Y842124D01*
X906716Y841829D01*
X907236Y841726D01*
X907757Y841829D01*
X908198Y842124D01*
X908493Y842566D01*
X908597Y843086D01*
X908493Y843607D01*
X908198Y844048D01*
X907757Y844343D01*
X907236Y844447D01*
D02*
G37*
G36*
X866000Y842931D02*
X864993Y841924D01*
X865226Y841769D01*
X866000Y841615D01*
X866774Y841769D01*
X867007Y841924D01*
X866000Y842931D01*
D02*
G37*
G36*
X1129801Y843278D02*
X1128794Y842272D01*
X1129801Y841265D01*
X1129956Y841497D01*
X1130110Y842272D01*
X1129956Y843046D01*
X1129801Y843278D01*
D02*
G37*
G36*
X1126373Y843278D02*
X1126218Y843046D01*
X1126064Y842272D01*
X1126218Y841497D01*
X1126373Y841265D01*
X1127380Y842272D01*
X1126373Y843278D01*
D02*
G37*
G36*
X784452Y843755D02*
X783932Y843651D01*
X783491Y843356D01*
X783196Y842915D01*
X783092Y842394D01*
X783196Y841874D01*
X783491Y841432D01*
X783932Y841137D01*
X784452Y841034D01*
X784973Y841137D01*
X785414Y841432D01*
X785709Y841874D01*
X785813Y842394D01*
X785709Y842915D01*
X785414Y843356D01*
X784973Y843651D01*
X784452Y843755D01*
D02*
G37*
G36*
X794199Y843470D02*
X793679Y843367D01*
X793237Y843072D01*
X792942Y842630D01*
X792839Y842110D01*
X792942Y841589D01*
X793237Y841148D01*
X793679Y840853D01*
X794199Y840749D01*
X794720Y840853D01*
X795161Y841148D01*
X795456Y841589D01*
X795560Y842110D01*
X795456Y842630D01*
X795161Y843072D01*
X794720Y843367D01*
X794199Y843470D01*
D02*
G37*
G36*
X1128087Y841565D02*
X1127080Y840558D01*
X1127313Y840403D01*
X1128087Y840248D01*
X1128861Y840403D01*
X1129094Y840558D01*
X1128087Y841565D01*
D02*
G37*
G36*
X876000Y839860D02*
X875479Y839757D01*
X875038Y839462D01*
X874743Y839021D01*
X874640Y838500D01*
X874743Y837979D01*
X875038Y837538D01*
X875479Y837243D01*
X876000Y837140D01*
X876521Y837243D01*
X876962Y837538D01*
X877257Y837979D01*
X877360Y838500D01*
X877257Y839021D01*
X876962Y839462D01*
X876521Y839757D01*
X876000Y839860D01*
D02*
G37*
G36*
X872000D02*
X871479Y839757D01*
X871038Y839462D01*
X870743Y839021D01*
X870640Y838500D01*
X870743Y837979D01*
X871038Y837538D01*
X871479Y837243D01*
X872000Y837140D01*
X872521Y837243D01*
X872962Y837538D01*
X873257Y837979D01*
X873360Y838500D01*
X873257Y839021D01*
X872962Y839462D01*
X872521Y839757D01*
X872000Y839860D01*
D02*
G37*
G36*
X1111500Y839360D02*
X1110979Y839257D01*
X1110538Y838962D01*
X1110243Y838521D01*
X1110140Y838000D01*
X1110243Y837479D01*
X1110538Y837038D01*
X1110979Y836743D01*
X1111500Y836640D01*
X1112021Y836743D01*
X1112462Y837038D01*
X1112757Y837479D01*
X1112860Y838000D01*
X1112757Y838521D01*
X1112462Y838962D01*
X1112021Y839257D01*
X1111500Y839360D01*
D02*
G37*
G36*
X755500Y837211D02*
X754979Y837107D01*
X754538Y836812D01*
X754243Y836371D01*
X754140Y835850D01*
X754243Y835330D01*
X754538Y834888D01*
X754979Y834593D01*
X755500Y834490D01*
X756021Y834593D01*
X756462Y834888D01*
X756757Y835330D01*
X756860Y835850D01*
X756757Y836371D01*
X756462Y836812D01*
X756021Y837107D01*
X755500Y837211D01*
D02*
G37*
G36*
X860492Y834998D02*
X859972Y834895D01*
X859530Y834600D01*
X859235Y834158D01*
X859132Y833638D01*
X859235Y833117D01*
X859530Y832676D01*
X859972Y832381D01*
X860492Y832277D01*
X861013Y832381D01*
X861454Y832676D01*
X861749Y833117D01*
X861852Y833638D01*
X861749Y834158D01*
X861454Y834600D01*
X861013Y834895D01*
X860492Y834998D01*
D02*
G37*
G36*
X781521Y834519D02*
X781001Y834416D01*
X780559Y834121D01*
X780264Y833680D01*
X780161Y833159D01*
X780264Y832638D01*
X780559Y832197D01*
X781001Y831902D01*
X781521Y831799D01*
X782042Y831902D01*
X782483Y832197D01*
X782778Y832638D01*
X782882Y833159D01*
X782778Y833680D01*
X782483Y834121D01*
X782042Y834416D01*
X781521Y834519D01*
D02*
G37*
G36*
X1111500Y834360D02*
X1110979Y834257D01*
X1110538Y833962D01*
X1110243Y833521D01*
X1110140Y833000D01*
X1110243Y832479D01*
X1110538Y832038D01*
X1110979Y831743D01*
X1111500Y831640D01*
X1112021Y831743D01*
X1112462Y832038D01*
X1112757Y832479D01*
X1112860Y833000D01*
X1112757Y833521D01*
X1112462Y833962D01*
X1112021Y834257D01*
X1111500Y834360D01*
D02*
G37*
G36*
Y829360D02*
X1110979Y829257D01*
X1110538Y828962D01*
X1110243Y828521D01*
X1110140Y828000D01*
X1110243Y827479D01*
X1110538Y827038D01*
X1110979Y826743D01*
X1111500Y826640D01*
X1112021Y826743D01*
X1112462Y827038D01*
X1112757Y827479D01*
X1112860Y828000D01*
X1112757Y828521D01*
X1112462Y828962D01*
X1112021Y829257D01*
X1111500Y829360D01*
D02*
G37*
G36*
X1042445Y829266D02*
X1041924Y829162D01*
X1041483Y828867D01*
X1041188Y828426D01*
X1041084Y827905D01*
X1041188Y827385D01*
X1041483Y826944D01*
X1041924Y826649D01*
X1042445Y826545D01*
X1042966Y826649D01*
X1043407Y826944D01*
X1043702Y827385D01*
X1043805Y827905D01*
X1043702Y828426D01*
X1043407Y828867D01*
X1042966Y829162D01*
X1042445Y829266D01*
D02*
G37*
G36*
X822952Y827451D02*
X822432Y827348D01*
X821990Y827053D01*
X821696Y826612D01*
X821592Y826091D01*
X821696Y825570D01*
X821990Y825129D01*
X822432Y824834D01*
X822952Y824731D01*
X823473Y824834D01*
X823914Y825129D01*
X824209Y825570D01*
X824313Y826091D01*
X824209Y826612D01*
X823914Y827053D01*
X823473Y827348D01*
X822952Y827451D01*
D02*
G37*
G36*
X1125000Y827360D02*
X1124479Y827257D01*
X1124038Y826962D01*
X1123743Y826521D01*
X1123640Y826000D01*
X1123743Y825479D01*
X1124038Y825038D01*
X1124479Y824743D01*
X1125000Y824640D01*
X1125521Y824743D01*
X1125962Y825038D01*
X1126257Y825479D01*
X1126360Y826000D01*
X1126257Y826521D01*
X1125962Y826962D01*
X1125521Y827257D01*
X1125000Y827360D01*
D02*
G37*
G36*
X1119000D02*
X1118479Y827257D01*
X1118038Y826962D01*
X1117743Y826521D01*
X1117640Y826000D01*
X1117743Y825479D01*
X1118038Y825038D01*
X1118479Y824743D01*
X1119000Y824640D01*
X1119521Y824743D01*
X1119962Y825038D01*
X1120257Y825479D01*
X1120360Y826000D01*
X1120257Y826521D01*
X1119962Y826962D01*
X1119521Y827257D01*
X1119000Y827360D01*
D02*
G37*
G36*
X788500Y826309D02*
X788056Y826221D01*
X787680Y825970D01*
X787429Y825593D01*
X787340Y825150D01*
X787429Y824706D01*
X787680Y824330D01*
X788056Y824078D01*
X788500Y823990D01*
X788944Y824078D01*
X789320Y824330D01*
X789571Y824706D01*
X789660Y825150D01*
X789571Y825593D01*
X789320Y825970D01*
X788944Y826221D01*
X788500Y826309D01*
D02*
G37*
G36*
X775190Y825174D02*
X774669Y825070D01*
X774228Y824775D01*
X773933Y824334D01*
X773829Y823813D01*
X773933Y823293D01*
X774228Y822851D01*
X774669Y822556D01*
X775190Y822453D01*
X775710Y822556D01*
X776152Y822851D01*
X776446Y823293D01*
X776550Y823813D01*
X776446Y824334D01*
X776152Y824775D01*
X775710Y825070D01*
X775190Y825174D01*
D02*
G37*
G36*
X1111500Y824360D02*
X1110979Y824257D01*
X1110538Y823962D01*
X1110243Y823521D01*
X1110140Y823000D01*
X1110243Y822479D01*
X1110538Y822038D01*
X1110979Y821743D01*
X1111500Y821640D01*
X1112021Y821743D01*
X1112462Y822038D01*
X1112757Y822479D01*
X1112860Y823000D01*
X1112757Y823521D01*
X1112462Y823962D01*
X1112021Y824257D01*
X1111500Y824360D01*
D02*
G37*
G36*
X806315Y824278D02*
X805794Y824175D01*
X805353Y823880D01*
X805058Y823438D01*
X804954Y822918D01*
X805058Y822397D01*
X805353Y821956D01*
X805794Y821661D01*
X806315Y821557D01*
X806835Y821661D01*
X807277Y821956D01*
X807572Y822397D01*
X807675Y822918D01*
X807572Y823438D01*
X807277Y823880D01*
X806835Y824175D01*
X806315Y824278D01*
D02*
G37*
G36*
X1042445Y824266D02*
X1041924Y824162D01*
X1041483Y823867D01*
X1041188Y823426D01*
X1041084Y822906D01*
X1041188Y822385D01*
X1041483Y821944D01*
X1041924Y821649D01*
X1042445Y821545D01*
X1042966Y821649D01*
X1043407Y821944D01*
X1043702Y822385D01*
X1043805Y822906D01*
X1043702Y823426D01*
X1043407Y823867D01*
X1042966Y824162D01*
X1042445Y824266D01*
D02*
G37*
G36*
X791650Y823160D02*
X791206Y823071D01*
X790830Y822820D01*
X790578Y822444D01*
X790490Y822000D01*
X790578Y821556D01*
X790830Y821180D01*
X791206Y820929D01*
X791650Y820840D01*
X792093Y820929D01*
X792470Y821180D01*
X792721Y821556D01*
X792809Y822000D01*
X792721Y822444D01*
X792470Y822820D01*
X792093Y823071D01*
X791650Y823160D01*
D02*
G37*
G36*
X788500D02*
X788056Y823071D01*
X787680Y822820D01*
X787429Y822444D01*
X787340Y822000D01*
X787429Y821556D01*
X787680Y821180D01*
X788056Y820929D01*
X788500Y820840D01*
X788944Y820929D01*
X789320Y821180D01*
X789571Y821556D01*
X789660Y822000D01*
X789571Y822444D01*
X789320Y822820D01*
X788944Y823071D01*
X788500Y823160D01*
D02*
G37*
G36*
X785350D02*
X784907Y823071D01*
X784530Y822820D01*
X784279Y822444D01*
X784191Y822000D01*
X784279Y821556D01*
X784530Y821180D01*
X784907Y820929D01*
X785350Y820840D01*
X785794Y820929D01*
X786170Y821180D01*
X786422Y821556D01*
X786510Y822000D01*
X786422Y822444D01*
X786170Y822820D01*
X785794Y823071D01*
X785350Y823160D01*
D02*
G37*
G36*
X788500Y820010D02*
X788056Y819922D01*
X787680Y819670D01*
X787429Y819294D01*
X787340Y818850D01*
X787429Y818407D01*
X787680Y818030D01*
X788056Y817779D01*
X788500Y817691D01*
X788944Y817779D01*
X789320Y818030D01*
X789571Y818407D01*
X789660Y818850D01*
X789571Y819294D01*
X789320Y819670D01*
X788944Y819922D01*
X788500Y820010D01*
D02*
G37*
G36*
X1059394Y819345D02*
X1058873Y819241D01*
X1058432Y818946D01*
X1058137Y818505D01*
X1058033Y817984D01*
X1058137Y817464D01*
X1058432Y817022D01*
X1058873Y816727D01*
X1059394Y816624D01*
X1059914Y816727D01*
X1060356Y817022D01*
X1060651Y817464D01*
X1060754Y817984D01*
X1060651Y818505D01*
X1060356Y818946D01*
X1059914Y819241D01*
X1059394Y819345D01*
D02*
G37*
G36*
X768000Y818439D02*
X767479Y818336D01*
X767038Y818041D01*
X766743Y817599D01*
X766640Y817079D01*
X766743Y816558D01*
X767038Y816117D01*
X767479Y815822D01*
X768000Y815718D01*
X768521Y815822D01*
X768962Y816117D01*
X769257Y816558D01*
X769360Y817079D01*
X769257Y817599D01*
X768962Y818041D01*
X768521Y818336D01*
X768000Y818439D01*
D02*
G37*
G36*
X1128212Y816425D02*
X1127438Y816271D01*
X1127205Y816115D01*
X1128212Y815109D01*
X1129219Y816115D01*
X1128986Y816271D01*
X1128212Y816425D01*
D02*
G37*
G36*
X1129926Y815408D02*
X1128919Y814402D01*
X1129926Y813395D01*
X1130081Y813627D01*
X1130235Y814402D01*
X1130081Y815176D01*
X1129926Y815408D01*
D02*
G37*
G36*
X1126498Y815408D02*
X1126343Y815176D01*
X1126189Y814402D01*
X1126343Y813627D01*
X1126498Y813395D01*
X1127505Y814402D01*
X1126498Y815408D01*
D02*
G37*
G36*
X1128212Y813694D02*
X1127205Y812688D01*
X1127438Y812532D01*
X1128212Y812378D01*
X1128986Y812532D01*
X1129219Y812688D01*
X1128212Y813694D01*
D02*
G37*
G36*
X1030913Y814860D02*
X1030393Y814757D01*
X1029951Y814462D01*
X1029657Y814021D01*
X1029553Y813500D01*
X1029657Y812979D01*
X1029951Y812538D01*
X1030393Y812243D01*
X1030913Y812140D01*
X1031434Y812243D01*
X1031875Y812538D01*
X1032170Y812979D01*
X1032274Y813500D01*
X1032170Y814021D01*
X1031875Y814462D01*
X1031434Y814757D01*
X1030913Y814860D01*
D02*
G37*
G36*
X1044221Y812303D02*
X1043446Y812149D01*
X1043214Y811993D01*
X1044221Y810987D01*
X1045227Y811993D01*
X1044995Y812149D01*
X1044221Y812303D01*
D02*
G37*
G36*
X805452Y813058D02*
X804932Y812954D01*
X804490Y812659D01*
X804196Y812218D01*
X804092Y811697D01*
X804196Y811177D01*
X804490Y810735D01*
X804932Y810441D01*
X805452Y810337D01*
X805973Y810441D01*
X806414Y810735D01*
X806709Y811177D01*
X806813Y811697D01*
X806709Y812218D01*
X806414Y812659D01*
X805973Y812954D01*
X805452Y813058D01*
D02*
G37*
G36*
X752000Y812998D02*
X751479Y812895D01*
X751038Y812600D01*
X750743Y812158D01*
X750640Y811638D01*
X750743Y811117D01*
X751038Y810676D01*
X751479Y810381D01*
X752000Y810277D01*
X752521Y810381D01*
X752962Y810676D01*
X753257Y811117D01*
X753360Y811638D01*
X753257Y812158D01*
X752962Y812600D01*
X752521Y812895D01*
X752000Y812998D01*
D02*
G37*
G36*
X1045934Y811286D02*
X1044928Y810279D01*
X1045934Y809273D01*
X1046090Y809505D01*
X1046244Y810279D01*
X1046090Y811054D01*
X1045934Y811286D01*
D02*
G37*
G36*
X1042507Y811286D02*
X1042351Y811054D01*
X1042197Y810279D01*
X1042351Y809505D01*
X1042507Y809273D01*
X1043513Y810279D01*
X1042507Y811286D01*
D02*
G37*
G36*
X1044221Y809572D02*
X1043214Y808566D01*
X1043446Y808410D01*
X1044221Y808256D01*
X1044995Y808410D01*
X1045227Y808566D01*
X1044221Y809572D01*
D02*
G37*
G36*
X983500Y809900D02*
X982979Y809796D01*
X982538Y809501D01*
X982243Y809060D01*
X982140Y808539D01*
X982243Y808019D01*
X982538Y807577D01*
X982979Y807283D01*
X983500Y807179D01*
X984021Y807283D01*
X984462Y807577D01*
X984757Y808019D01*
X984860Y808539D01*
X984757Y809060D01*
X984462Y809501D01*
X984021Y809796D01*
X983500Y809900D01*
D02*
G37*
G36*
X793374Y809873D02*
X792853Y809769D01*
X792412Y809474D01*
X792117Y809033D01*
X792013Y808512D01*
X792117Y807992D01*
X792412Y807550D01*
X792853Y807255D01*
X793374Y807152D01*
X793894Y807255D01*
X794336Y807550D01*
X794630Y807992D01*
X794734Y808512D01*
X794630Y809033D01*
X794336Y809474D01*
X793894Y809769D01*
X793374Y809873D01*
D02*
G37*
G36*
X886000Y808161D02*
X885226Y808007D01*
X884993Y807852D01*
X886000Y806845D01*
X887007Y807852D01*
X886774Y808007D01*
X886000Y808161D01*
D02*
G37*
G36*
X876000D02*
X875226Y808007D01*
X874993Y807852D01*
X876000Y806845D01*
X877007Y807852D01*
X876774Y808007D01*
X876000Y808161D01*
D02*
G37*
G36*
X1096372Y809278D02*
X1095851Y809174D01*
X1095410Y808879D01*
X1095115Y808438D01*
X1095011Y807917D01*
X1095115Y807397D01*
X1095410Y806955D01*
X1095851Y806660D01*
X1096372Y806557D01*
X1096892Y806660D01*
X1097334Y806955D01*
X1097628Y807397D01*
X1097732Y807917D01*
X1097628Y808438D01*
X1097334Y808879D01*
X1096892Y809174D01*
X1096372Y809278D01*
D02*
G37*
G36*
X1091450D02*
X1090930Y809174D01*
X1090488Y808879D01*
X1090193Y808438D01*
X1090090Y807917D01*
X1090193Y807397D01*
X1090488Y806955D01*
X1090930Y806660D01*
X1091450Y806557D01*
X1091971Y806660D01*
X1092412Y806955D01*
X1092707Y807397D01*
X1092811Y807917D01*
X1092707Y808438D01*
X1092412Y808879D01*
X1091971Y809174D01*
X1091450Y809278D01*
D02*
G37*
G36*
X824575Y806749D02*
X823801Y806595D01*
X823568Y806440D01*
X824575Y805433D01*
X825581Y806440D01*
X825349Y806595D01*
X824575Y806749D01*
D02*
G37*
G36*
X819224D02*
X818450Y806595D01*
X818218Y806440D01*
X819224Y805433D01*
X820231Y806440D01*
X819999Y806595D01*
X819224Y806749D01*
D02*
G37*
G36*
X814038D02*
X813264Y806595D01*
X813031Y806440D01*
X814038Y805433D01*
X815045Y806440D01*
X814812Y806595D01*
X814038Y806749D01*
D02*
G37*
G36*
X808714D02*
X807940Y806595D01*
X807707Y806440D01*
X808714Y805433D01*
X809721Y806440D01*
X809488Y806595D01*
X808714Y806749D01*
D02*
G37*
G36*
X887714Y807145D02*
X886707Y806138D01*
X887714Y805131D01*
X887869Y805364D01*
X888023Y806138D01*
X887869Y806912D01*
X887714Y807145D01*
D02*
G37*
G36*
X877714D02*
X876707Y806138D01*
X877714Y805131D01*
X877869Y805364D01*
X878023Y806138D01*
X877869Y806912D01*
X877714Y807145D01*
D02*
G37*
G36*
X884286Y807145D02*
X884131Y806912D01*
X883977Y806138D01*
X884131Y805364D01*
X884286Y805131D01*
X885293Y806138D01*
X884286Y807145D01*
D02*
G37*
G36*
X874286D02*
X874131Y806912D01*
X873977Y806138D01*
X874131Y805364D01*
X874286Y805131D01*
X875293Y806138D01*
X874286Y807145D01*
D02*
G37*
G36*
X886000Y805431D02*
X884993Y804424D01*
X885226Y804269D01*
X886000Y804115D01*
X886774Y804269D01*
X887007Y804424D01*
X886000Y805431D01*
D02*
G37*
G36*
X876000D02*
X874993Y804424D01*
X875226Y804269D01*
X876000Y804115D01*
X876774Y804269D01*
X877007Y804424D01*
X876000Y805431D01*
D02*
G37*
G36*
X826289Y805733D02*
X825282Y804726D01*
X826289Y803719D01*
X826444Y803952D01*
X826598Y804726D01*
X826444Y805500D01*
X826289Y805733D01*
D02*
G37*
G36*
X820938D02*
X819932Y804726D01*
X820938Y803719D01*
X821093Y803952D01*
X821247Y804726D01*
X821093Y805500D01*
X820938Y805733D01*
D02*
G37*
G36*
X815752D02*
X814745Y804726D01*
X815752Y803719D01*
X815907Y803952D01*
X816061Y804726D01*
X815907Y805500D01*
X815752Y805733D01*
D02*
G37*
G36*
X810428D02*
X809421Y804726D01*
X810428Y803719D01*
X810583Y803952D01*
X810737Y804726D01*
X810583Y805500D01*
X810428Y805733D01*
D02*
G37*
G36*
X822861Y805733D02*
X822706Y805500D01*
X822552Y804726D01*
X822706Y803952D01*
X822861Y803719D01*
X823868Y804726D01*
X822861Y805733D01*
D02*
G37*
G36*
X817511D02*
X817355Y805500D01*
X817201Y804726D01*
X817355Y803952D01*
X817511Y803719D01*
X818517Y804726D01*
X817511Y805733D01*
D02*
G37*
G36*
X812324D02*
X812169Y805500D01*
X812015Y804726D01*
X812169Y803952D01*
X812324Y803719D01*
X813331Y804726D01*
X812324Y805733D01*
D02*
G37*
G36*
X807000D02*
X806845Y805500D01*
X806691Y804726D01*
X806845Y803952D01*
X807000Y803719D01*
X808007Y804726D01*
X807000Y805733D01*
D02*
G37*
G36*
X1049354Y806081D02*
X1048834Y805977D01*
X1048392Y805682D01*
X1048098Y805241D01*
X1047994Y804720D01*
X1048098Y804200D01*
X1048392Y803759D01*
X1048834Y803464D01*
X1049354Y803360D01*
X1049875Y803464D01*
X1050316Y803759D01*
X1050611Y804200D01*
X1050715Y804720D01*
X1050611Y805241D01*
X1050316Y805682D01*
X1049875Y805977D01*
X1049354Y806081D01*
D02*
G37*
G36*
X824575Y804019D02*
X823568Y803012D01*
X823801Y802857D01*
X824575Y802703D01*
X825349Y802857D01*
X825581Y803012D01*
X824575Y804019D01*
D02*
G37*
G36*
X819224D02*
X818218Y803012D01*
X818450Y802857D01*
X819224Y802703D01*
X819999Y802857D01*
X820231Y803012D01*
X819224Y804019D01*
D02*
G37*
G36*
X814038D02*
X813031Y803012D01*
X813264Y802857D01*
X814038Y802703D01*
X814812Y802857D01*
X815045Y803012D01*
X814038Y804019D01*
D02*
G37*
G36*
X808714D02*
X807707Y803012D01*
X807940Y802857D01*
X808714Y802703D01*
X809488Y802857D01*
X809721Y803012D01*
X808714Y804019D01*
D02*
G37*
G36*
X935130Y804518D02*
X934609Y804414D01*
X934168Y804119D01*
X933873Y803678D01*
X933770Y803158D01*
X933873Y802637D01*
X934168Y802195D01*
X934609Y801901D01*
X935130Y801797D01*
X935651Y801901D01*
X936092Y802195D01*
X936387Y802637D01*
X936490Y803158D01*
X936387Y803678D01*
X936092Y804119D01*
X935651Y804414D01*
X935130Y804518D01*
D02*
G37*
G36*
X803988Y802023D02*
X803214Y801869D01*
X802981Y801714D01*
X803988Y800707D01*
X804995Y801714D01*
X804762Y801869D01*
X803988Y802023D01*
D02*
G37*
G36*
X1096413Y802719D02*
X1095893Y802615D01*
X1095451Y802320D01*
X1095157Y801879D01*
X1095053Y801358D01*
X1095157Y800838D01*
X1095451Y800396D01*
X1095893Y800101D01*
X1096413Y799998D01*
X1096934Y800101D01*
X1097375Y800396D01*
X1097670Y800838D01*
X1097774Y801358D01*
X1097670Y801879D01*
X1097375Y802320D01*
X1096934Y802615D01*
X1096413Y802719D01*
D02*
G37*
G36*
X1060587D02*
X1060066Y802615D01*
X1059625Y802320D01*
X1059330Y801879D01*
X1059226Y801358D01*
X1059330Y800838D01*
X1059625Y800396D01*
X1060066Y800101D01*
X1060587Y799998D01*
X1061107Y800101D01*
X1061549Y800396D01*
X1061843Y800838D01*
X1061947Y801358D01*
X1061843Y801879D01*
X1061549Y802320D01*
X1061107Y802615D01*
X1060587Y802719D01*
D02*
G37*
G36*
X805702Y801007D02*
X804695Y800000D01*
X805702Y798993D01*
X805857Y799226D01*
X806011Y800000D01*
X805857Y800774D01*
X805702Y801007D01*
D02*
G37*
G36*
X802274Y801007D02*
X802119Y800774D01*
X801965Y800000D01*
X802119Y799226D01*
X802274Y798993D01*
X803281Y800000D01*
X802274Y801007D01*
D02*
G37*
G36*
X935130Y799866D02*
X934356Y799712D01*
X934123Y799556D01*
X935130Y798550D01*
X936137Y799556D01*
X935904Y799712D01*
X935130Y799866D01*
D02*
G37*
G36*
X803988Y799293D02*
X802981Y798286D01*
X803214Y798131D01*
X803988Y797977D01*
X804762Y798131D01*
X804995Y798286D01*
X803988Y799293D01*
D02*
G37*
G36*
X1131125Y799628D02*
X1130604Y799525D01*
X1130163Y799230D01*
X1129868Y798788D01*
X1129765Y798268D01*
X1129868Y797747D01*
X1130163Y797306D01*
X1130604Y797011D01*
X1131125Y796907D01*
X1131646Y797011D01*
X1132087Y797306D01*
X1132382Y797747D01*
X1132485Y798268D01*
X1132382Y798788D01*
X1132087Y799230D01*
X1131646Y799525D01*
X1131125Y799628D01*
D02*
G37*
G36*
X1125062D02*
X1124542Y799525D01*
X1124101Y799230D01*
X1123806Y798788D01*
X1123702Y798268D01*
X1123806Y797747D01*
X1124101Y797306D01*
X1124542Y797011D01*
X1125062Y796907D01*
X1125583Y797011D01*
X1126024Y797306D01*
X1126319Y797747D01*
X1126423Y798268D01*
X1126319Y798788D01*
X1126024Y799230D01*
X1125583Y799525D01*
X1125062Y799628D01*
D02*
G37*
G36*
X1119000D02*
X1118479Y799525D01*
X1118038Y799230D01*
X1117743Y798788D01*
X1117640Y798268D01*
X1117743Y797747D01*
X1118038Y797306D01*
X1118479Y797011D01*
X1119000Y796907D01*
X1119521Y797011D01*
X1119962Y797306D01*
X1120257Y797747D01*
X1120360Y798268D01*
X1120257Y798788D01*
X1119962Y799230D01*
X1119521Y799525D01*
X1119000Y799628D01*
D02*
G37*
G36*
X936844Y798849D02*
X935837Y797843D01*
X936844Y796836D01*
X936999Y797068D01*
X937153Y797843D01*
X936999Y798617D01*
X936844Y798849D01*
D02*
G37*
G36*
X933416Y798849D02*
X933261Y798617D01*
X933107Y797843D01*
X933261Y797068D01*
X933416Y796836D01*
X934423Y797843D01*
X933416Y798849D01*
D02*
G37*
G36*
X935130Y797135D02*
X934123Y796129D01*
X934356Y795973D01*
X935130Y795819D01*
X935904Y795973D01*
X936137Y796129D01*
X935130Y797135D01*
D02*
G37*
G36*
X803988Y796523D02*
X803214Y796369D01*
X802981Y796214D01*
X803988Y795207D01*
X804995Y796214D01*
X804762Y796369D01*
X803988Y796523D01*
D02*
G37*
G36*
X1030913Y797002D02*
X1030393Y796899D01*
X1029951Y796604D01*
X1029657Y796162D01*
X1029553Y795642D01*
X1029657Y795121D01*
X1029951Y794680D01*
X1030393Y794385D01*
X1030913Y794281D01*
X1031434Y794385D01*
X1031875Y794680D01*
X1032170Y795121D01*
X1032274Y795642D01*
X1032170Y796162D01*
X1031875Y796604D01*
X1031434Y796899D01*
X1030913Y797002D01*
D02*
G37*
G36*
X995087D02*
X994566Y796899D01*
X994125Y796604D01*
X993830Y796162D01*
X993726Y795642D01*
X993830Y795121D01*
X994125Y794680D01*
X994566Y794385D01*
X995087Y794281D01*
X995607Y794385D01*
X996049Y794680D01*
X996343Y795121D01*
X996447Y795642D01*
X996343Y796162D01*
X996049Y796604D01*
X995607Y796899D01*
X995087Y797002D01*
D02*
G37*
G36*
X805702Y795507D02*
X804695Y794500D01*
X805702Y793493D01*
X805857Y793726D01*
X806011Y794500D01*
X805857Y795274D01*
X805702Y795507D01*
D02*
G37*
G36*
X802274Y795507D02*
X802119Y795274D01*
X801965Y794500D01*
X802119Y793726D01*
X802274Y793493D01*
X803281Y794500D01*
X802274Y795507D01*
D02*
G37*
G36*
X863118Y795900D02*
X862597Y795796D01*
X862156Y795501D01*
X861861Y795060D01*
X861758Y794539D01*
X861861Y794019D01*
X862156Y793577D01*
X862597Y793283D01*
X863118Y793179D01*
X863639Y793283D01*
X864080Y793577D01*
X864375Y794019D01*
X864478Y794539D01*
X864375Y795060D01*
X864080Y795501D01*
X863639Y795796D01*
X863118Y795900D01*
D02*
G37*
G36*
X847882D02*
X847361Y795796D01*
X846920Y795501D01*
X846625Y795060D01*
X846521Y794539D01*
X846625Y794019D01*
X846920Y793577D01*
X847361Y793283D01*
X847882Y793179D01*
X848403Y793283D01*
X848844Y793577D01*
X849139Y794019D01*
X849242Y794539D01*
X849139Y795060D01*
X848844Y795501D01*
X848403Y795796D01*
X847882Y795900D01*
D02*
G37*
G36*
X809303Y795860D02*
X808782Y795757D01*
X808341Y795462D01*
X808046Y795021D01*
X807943Y794500D01*
X808046Y793979D01*
X808341Y793538D01*
X808782Y793243D01*
X809303Y793140D01*
X809824Y793243D01*
X810265Y793538D01*
X810560Y793979D01*
X810664Y794500D01*
X810560Y795021D01*
X810265Y795462D01*
X809824Y795757D01*
X809303Y795860D01*
D02*
G37*
G36*
X803988Y793793D02*
X802981Y792786D01*
X803214Y792631D01*
X803988Y792477D01*
X804762Y792631D01*
X804995Y792786D01*
X803988Y793793D01*
D02*
G37*
G36*
X1057000Y790360D02*
X1056479Y790257D01*
X1056038Y789962D01*
X1055743Y789521D01*
X1055640Y789000D01*
X1055743Y788479D01*
X1056038Y788038D01*
X1056479Y787743D01*
X1057000Y787640D01*
X1057521Y787743D01*
X1057962Y788038D01*
X1058257Y788479D01*
X1058360Y789000D01*
X1058257Y789521D01*
X1057962Y789962D01*
X1057521Y790257D01*
X1057000Y790360D01*
D02*
G37*
G36*
X1045000Y788523D02*
X1044226Y788369D01*
X1043993Y788214D01*
X1045000Y787207D01*
X1046007Y788214D01*
X1045774Y788369D01*
X1045000Y788523D01*
D02*
G37*
G36*
X793500Y789695D02*
X792979Y789592D01*
X792538Y789297D01*
X792243Y788855D01*
X792140Y788335D01*
X792243Y787814D01*
X792538Y787373D01*
X792979Y787078D01*
X793500Y786974D01*
X794021Y787078D01*
X794462Y787373D01*
X794757Y787814D01*
X794860Y788335D01*
X794757Y788855D01*
X794462Y789297D01*
X794021Y789592D01*
X793500Y789695D01*
D02*
G37*
G36*
X1018357Y787476D02*
X1017583Y787322D01*
X1017350Y787167D01*
X1018357Y786160D01*
X1019363Y787167D01*
X1019131Y787322D01*
X1018357Y787476D01*
D02*
G37*
G36*
X1004842D02*
X1004068Y787322D01*
X1003836Y787167D01*
X1004842Y786160D01*
X1005849Y787167D01*
X1005617Y787322D01*
X1004842Y787476D01*
D02*
G37*
G36*
X1046714Y787507D02*
X1045707Y786500D01*
X1046714Y785493D01*
X1046869Y785726D01*
X1047023Y786500D01*
X1046869Y787274D01*
X1046714Y787507D01*
D02*
G37*
G36*
X1043286Y787507D02*
X1043131Y787274D01*
X1042977Y786500D01*
X1043131Y785726D01*
X1043286Y785493D01*
X1044293Y786500D01*
X1043286Y787507D01*
D02*
G37*
G36*
X815000Y787360D02*
X814479Y787257D01*
X814038Y786962D01*
X813743Y786521D01*
X813640Y786000D01*
X813743Y785479D01*
X814038Y785038D01*
X814479Y784743D01*
X815000Y784640D01*
X815521Y784743D01*
X815962Y785038D01*
X816257Y785479D01*
X816360Y786000D01*
X816257Y786521D01*
X815962Y786962D01*
X815521Y787257D01*
X815000Y787360D01*
D02*
G37*
G36*
X1045000Y785793D02*
X1043993Y784786D01*
X1044226Y784631D01*
X1045000Y784477D01*
X1045774Y784631D01*
X1046007Y784786D01*
X1045000Y785793D01*
D02*
G37*
G36*
X1020070Y786459D02*
X1019064Y785453D01*
X1020070Y784446D01*
X1020226Y784679D01*
X1020380Y785453D01*
X1020226Y786227D01*
X1020070Y786459D01*
D02*
G37*
G36*
X1006556D02*
X1005550Y785453D01*
X1006556Y784446D01*
X1006712Y784679D01*
X1006866Y785453D01*
X1006712Y786227D01*
X1006556Y786459D01*
D02*
G37*
G36*
X1016643Y786459D02*
X1016488Y786227D01*
X1016334Y785453D01*
X1016488Y784679D01*
X1016643Y784446D01*
X1017650Y785453D01*
X1016643Y786459D01*
D02*
G37*
G36*
X1003129D02*
X1002973Y786227D01*
X1002819Y785453D01*
X1002973Y784679D01*
X1003129Y784446D01*
X1004135Y785453D01*
X1003129Y786459D01*
D02*
G37*
G36*
X1031392Y786813D02*
X1030872Y786710D01*
X1030430Y786415D01*
X1030135Y785973D01*
X1030032Y785453D01*
X1030135Y784932D01*
X1030430Y784491D01*
X1030872Y784196D01*
X1031392Y784092D01*
X1031913Y784196D01*
X1032354Y784491D01*
X1032649Y784932D01*
X1032753Y785453D01*
X1032649Y785973D01*
X1032354Y786415D01*
X1031913Y786710D01*
X1031392Y786813D01*
D02*
G37*
G36*
X1023672D02*
X1023151Y786710D01*
X1022710Y786415D01*
X1022415Y785973D01*
X1022311Y785453D01*
X1022415Y784932D01*
X1022710Y784491D01*
X1023151Y784196D01*
X1023672Y784092D01*
X1024192Y784196D01*
X1024634Y784491D01*
X1024928Y784932D01*
X1025032Y785453D01*
X1024928Y785973D01*
X1024634Y786415D01*
X1024192Y786710D01*
X1023672Y786813D01*
D02*
G37*
G36*
X1010658D02*
X1010137Y786710D01*
X1009696Y786415D01*
X1009401Y785973D01*
X1009297Y785453D01*
X1009401Y784932D01*
X1009696Y784491D01*
X1010137Y784196D01*
X1010658Y784092D01*
X1011178Y784196D01*
X1011619Y784491D01*
X1011914Y784932D01*
X1012018Y785453D01*
X1011914Y785973D01*
X1011619Y786415D01*
X1011178Y786710D01*
X1010658Y786813D01*
D02*
G37*
G36*
X1018357Y784746D02*
X1017350Y783739D01*
X1017583Y783584D01*
X1018357Y783430D01*
X1019131Y783584D01*
X1019363Y783739D01*
X1018357Y784746D01*
D02*
G37*
G36*
X1004842D02*
X1003836Y783739D01*
X1004068Y783584D01*
X1004842Y783430D01*
X1005617Y783584D01*
X1005849Y783739D01*
X1004842Y784746D01*
D02*
G37*
G36*
X1096413Y785002D02*
X1095893Y784899D01*
X1095451Y784604D01*
X1095157Y784162D01*
X1095053Y783642D01*
X1095157Y783121D01*
X1095451Y782680D01*
X1095893Y782385D01*
X1096413Y782281D01*
X1096934Y782385D01*
X1097375Y782680D01*
X1097670Y783121D01*
X1097774Y783642D01*
X1097670Y784162D01*
X1097375Y784604D01*
X1096934Y784899D01*
X1096413Y785002D01*
D02*
G37*
G36*
X1060587D02*
X1060066Y784899D01*
X1059625Y784604D01*
X1059330Y784162D01*
X1059226Y783642D01*
X1059330Y783121D01*
X1059625Y782680D01*
X1060066Y782385D01*
X1060587Y782281D01*
X1061107Y782385D01*
X1061549Y782680D01*
X1061843Y783121D01*
X1061947Y783642D01*
X1061843Y784162D01*
X1061549Y784604D01*
X1061107Y784899D01*
X1060587Y785002D01*
D02*
G37*
G36*
X781000Y784018D02*
X780479Y783914D01*
X780038Y783619D01*
X779743Y783178D01*
X779640Y782657D01*
X779743Y782137D01*
X780038Y781696D01*
X780479Y781401D01*
X781000Y781297D01*
X781521Y781401D01*
X781962Y781696D01*
X782257Y782137D01*
X782360Y782657D01*
X782257Y783178D01*
X781962Y783619D01*
X781521Y783914D01*
X781000Y784018D01*
D02*
G37*
G36*
X984000Y781860D02*
X983479Y781757D01*
X983038Y781462D01*
X982743Y781021D01*
X982640Y780500D01*
X982743Y779979D01*
X983038Y779538D01*
X983479Y779243D01*
X984000Y779140D01*
X984521Y779243D01*
X984962Y779538D01*
X985257Y779979D01*
X985360Y780500D01*
X985257Y781021D01*
X984962Y781462D01*
X984521Y781757D01*
X984000Y781860D01*
D02*
G37*
G36*
X979000D02*
X978479Y781757D01*
X978038Y781462D01*
X977743Y781021D01*
X977640Y780500D01*
X977743Y779979D01*
X978038Y779538D01*
X978479Y779243D01*
X979000Y779140D01*
X979521Y779243D01*
X979962Y779538D01*
X980257Y779979D01*
X980360Y780500D01*
X980257Y781021D01*
X979962Y781462D01*
X979521Y781757D01*
X979000Y781860D01*
D02*
G37*
G36*
X815000D02*
X814479Y781757D01*
X814038Y781462D01*
X813743Y781021D01*
X813640Y780500D01*
X813743Y779979D01*
X814038Y779538D01*
X814479Y779243D01*
X815000Y779140D01*
X815521Y779243D01*
X815962Y779538D01*
X816257Y779979D01*
X816360Y780500D01*
X816257Y781021D01*
X815962Y781462D01*
X815521Y781757D01*
X815000Y781860D01*
D02*
G37*
G36*
X962500Y780860D02*
X961979Y780757D01*
X961538Y780462D01*
X961243Y780021D01*
X961140Y779500D01*
X961243Y778979D01*
X961538Y778538D01*
X961979Y778243D01*
X962500Y778140D01*
X963021Y778243D01*
X963462Y778538D01*
X963757Y778979D01*
X963860Y779500D01*
X963757Y780021D01*
X963462Y780462D01*
X963021Y780757D01*
X962500Y780860D01*
D02*
G37*
G36*
X995409Y779860D02*
X994889Y779757D01*
X994448Y779462D01*
X994153Y779021D01*
X994049Y778500D01*
X994153Y777979D01*
X994448Y777538D01*
X994889Y777243D01*
X995409Y777140D01*
X995930Y777243D01*
X996371Y777538D01*
X996666Y777979D01*
X996770Y778500D01*
X996666Y779021D01*
X996371Y779462D01*
X995930Y779757D01*
X995409Y779860D01*
D02*
G37*
G36*
X915000Y777523D02*
X914226Y777369D01*
X913993Y777214D01*
X915000Y776207D01*
X916007Y777214D01*
X915774Y777369D01*
X915000Y777523D01*
D02*
G37*
G36*
X916714Y776507D02*
X915707Y775500D01*
X916714Y774493D01*
X916869Y774726D01*
X917023Y775500D01*
X916869Y776274D01*
X916714Y776507D01*
D02*
G37*
G36*
X913286Y776507D02*
X913131Y776274D01*
X912977Y775500D01*
X913131Y774726D01*
X913286Y774493D01*
X914293Y775500D01*
X913286Y776507D01*
D02*
G37*
G36*
X915000Y774793D02*
X913993Y773786D01*
X914226Y773631D01*
X915000Y773477D01*
X915774Y773631D01*
X916007Y773786D01*
X915000Y774793D01*
D02*
G37*
G36*
X979661Y768860D02*
X979141Y768757D01*
X978699Y768462D01*
X978405Y768021D01*
X978301Y767500D01*
X978405Y766979D01*
X978699Y766538D01*
X979141Y766243D01*
X979661Y766140D01*
X980182Y766243D01*
X980623Y766538D01*
X980918Y766979D01*
X981022Y767500D01*
X980918Y768021D01*
X980623Y768462D01*
X980182Y768757D01*
X979661Y768860D01*
D02*
G37*
G36*
X945500Y766589D02*
X944979Y766485D01*
X944538Y766190D01*
X944243Y765749D01*
X944140Y765228D01*
X944243Y764708D01*
X944538Y764266D01*
X944979Y763972D01*
X945500Y763868D01*
X946021Y763972D01*
X946462Y764266D01*
X946757Y764708D01*
X946860Y765228D01*
X946757Y765749D01*
X946462Y766190D01*
X946021Y766485D01*
X945500Y766589D01*
D02*
G37*
G36*
X935500D02*
X934979Y766485D01*
X934538Y766190D01*
X934243Y765749D01*
X934140Y765228D01*
X934243Y764708D01*
X934538Y764266D01*
X934979Y763972D01*
X935500Y763868D01*
X936021Y763972D01*
X936462Y764266D01*
X936757Y764708D01*
X936860Y765228D01*
X936757Y765749D01*
X936462Y766190D01*
X936021Y766485D01*
X935500Y766589D01*
D02*
G37*
G36*
X844000Y765998D02*
X843479Y765895D01*
X843038Y765600D01*
X842743Y765158D01*
X842640Y764638D01*
X842743Y764117D01*
X843038Y763676D01*
X843479Y763381D01*
X844000Y763277D01*
X844521Y763381D01*
X844962Y763676D01*
X845257Y764117D01*
X845360Y764638D01*
X845257Y765158D01*
X844962Y765600D01*
X844521Y765895D01*
X844000Y765998D01*
D02*
G37*
G36*
X759000Y770828D02*
X758009Y770697D01*
X757086Y770315D01*
X756293Y769706D01*
X755685Y768914D01*
X755303Y767991D01*
X755172Y767000D01*
X755303Y766009D01*
X755685Y765086D01*
X756293Y764293D01*
X757086Y763685D01*
X758009Y763303D01*
X759000Y763172D01*
X759991Y763303D01*
X760914Y763685D01*
X761706Y764293D01*
X762315Y765086D01*
X762697Y766009D01*
X762828Y767000D01*
X762697Y767991D01*
X762315Y768914D01*
X761706Y769706D01*
X760914Y770315D01*
X759991Y770697D01*
X759000Y770828D01*
D02*
G37*
G36*
X780000Y769178D02*
X779125Y769063D01*
X778310Y768725D01*
X777611Y768188D01*
X777074Y767489D01*
X776736Y766674D01*
X776621Y765799D01*
X776736Y764925D01*
X777074Y764110D01*
X777611Y763410D01*
X778310Y762873D01*
X779125Y762535D01*
X780000Y762420D01*
X780874Y762535D01*
X781690Y762873D01*
X782389Y763410D01*
X782926Y764110D01*
X783264Y764925D01*
X783379Y765799D01*
X783264Y766674D01*
X782926Y767489D01*
X782389Y768188D01*
X781690Y768725D01*
X780874Y769063D01*
X780000Y769178D01*
D02*
G37*
G36*
X861957Y763360D02*
X861436Y763257D01*
X860995Y762962D01*
X860700Y762521D01*
X860596Y762000D01*
X860700Y761479D01*
X860995Y761038D01*
X861436Y760743D01*
X861957Y760640D01*
X862477Y760743D01*
X862919Y761038D01*
X863214Y761479D01*
X863317Y762000D01*
X863214Y762521D01*
X862919Y762962D01*
X862477Y763257D01*
X861957Y763360D01*
D02*
G37*
G36*
X841500Y758872D02*
X840979Y758769D01*
X840538Y758474D01*
X840243Y758032D01*
X840140Y757512D01*
X840243Y756991D01*
X840538Y756550D01*
X840979Y756255D01*
X841500Y756151D01*
X842021Y756255D01*
X842462Y756550D01*
X842757Y756991D01*
X842860Y757512D01*
X842757Y758032D01*
X842462Y758474D01*
X842021Y758769D01*
X841500Y758872D01*
D02*
G37*
G36*
X847000Y758860D02*
X846479Y758757D01*
X846038Y758462D01*
X845743Y758021D01*
X845640Y757500D01*
X845743Y756979D01*
X846038Y756538D01*
X846479Y756243D01*
X847000Y756140D01*
X847521Y756243D01*
X847962Y756538D01*
X848257Y756979D01*
X848360Y757500D01*
X848257Y758021D01*
X847962Y758462D01*
X847521Y758757D01*
X847000Y758860D01*
D02*
G37*
G36*
X861169Y755360D02*
X860649Y755257D01*
X860207Y754962D01*
X859912Y754521D01*
X859809Y754000D01*
X859912Y753479D01*
X860207Y753038D01*
X860649Y752743D01*
X861169Y752640D01*
X861690Y752743D01*
X862131Y753038D01*
X862426Y753479D01*
X862530Y754000D01*
X862426Y754521D01*
X862131Y754962D01*
X861690Y755257D01*
X861169Y755360D01*
D02*
G37*
G36*
X1061500Y752523D02*
X1060726Y752369D01*
X1060493Y752214D01*
X1061500Y751207D01*
X1062507Y752214D01*
X1062274Y752369D01*
X1061500Y752523D01*
D02*
G37*
G36*
X833500Y753518D02*
X832979Y753414D01*
X832538Y753119D01*
X832243Y752678D01*
X832140Y752157D01*
X832243Y751637D01*
X832538Y751195D01*
X832979Y750901D01*
X833500Y750797D01*
X834021Y750901D01*
X834462Y751195D01*
X834757Y751637D01*
X834860Y752157D01*
X834757Y752678D01*
X834462Y753119D01*
X834021Y753414D01*
X833500Y753518D01*
D02*
G37*
G36*
X780000Y756973D02*
X779125Y756858D01*
X778310Y756521D01*
X777611Y755984D01*
X777074Y755284D01*
X776736Y754469D01*
X776621Y753594D01*
X776736Y752720D01*
X777074Y751905D01*
X777611Y751205D01*
X778310Y750668D01*
X779125Y750331D01*
X780000Y750216D01*
X780874Y750331D01*
X781690Y750668D01*
X782389Y751205D01*
X782926Y751905D01*
X783264Y752720D01*
X783379Y753594D01*
X783264Y754469D01*
X782926Y755284D01*
X782389Y755984D01*
X781690Y756521D01*
X780874Y756858D01*
X780000Y756973D01*
D02*
G37*
G36*
X759000Y757328D02*
X758009Y757197D01*
X757086Y756815D01*
X756293Y756207D01*
X755685Y755414D01*
X755303Y754491D01*
X755172Y753500D01*
X755303Y752509D01*
X755685Y751586D01*
X756293Y750794D01*
X757086Y750185D01*
X758009Y749803D01*
X759000Y749672D01*
X759991Y749803D01*
X760914Y750185D01*
X761706Y750794D01*
X762315Y751586D01*
X762697Y752509D01*
X762828Y753500D01*
X762697Y754491D01*
X762315Y755414D01*
X761706Y756207D01*
X760914Y756815D01*
X759991Y757197D01*
X759000Y757328D01*
D02*
G37*
G36*
X1063214Y751507D02*
X1062207Y750500D01*
X1063214Y749493D01*
X1063369Y749726D01*
X1063523Y750500D01*
X1063369Y751274D01*
X1063214Y751507D01*
D02*
G37*
G36*
X1059786Y751507D02*
X1059631Y751274D01*
X1059477Y750500D01*
X1059631Y749726D01*
X1059786Y749493D01*
X1060793Y750500D01*
X1059786Y751507D01*
D02*
G37*
G36*
X1061500Y749793D02*
X1060493Y748786D01*
X1060726Y748631D01*
X1061500Y748477D01*
X1062274Y748631D01*
X1062507Y748786D01*
X1061500Y749793D01*
D02*
G37*
G36*
X1102421Y749523D02*
X1101647Y749369D01*
X1101415Y749214D01*
X1102421Y748207D01*
X1103428Y749214D01*
X1103195Y749369D01*
X1102421Y749523D01*
D02*
G37*
G36*
X819732Y750360D02*
X819211Y750257D01*
X818770Y749962D01*
X818475Y749521D01*
X818371Y749000D01*
X818475Y748479D01*
X818770Y748038D01*
X819211Y747743D01*
X819732Y747640D01*
X820252Y747743D01*
X820694Y748038D01*
X820989Y748479D01*
X821092Y749000D01*
X820989Y749521D01*
X820694Y749962D01*
X820252Y750257D01*
X819732Y750360D01*
D02*
G37*
G36*
X907473Y749860D02*
X906952Y749757D01*
X906511Y749462D01*
X906216Y749021D01*
X906112Y748500D01*
X906216Y747979D01*
X906511Y747538D01*
X906952Y747243D01*
X907473Y747140D01*
X907994Y747243D01*
X908435Y747538D01*
X908730Y747979D01*
X908833Y748500D01*
X908730Y749021D01*
X908435Y749462D01*
X907994Y749757D01*
X907473Y749860D01*
D02*
G37*
G36*
X967000Y749518D02*
X966479Y749414D01*
X966038Y749119D01*
X965743Y748678D01*
X965640Y748158D01*
X965743Y747637D01*
X966038Y747195D01*
X966479Y746901D01*
X967000Y746797D01*
X967521Y746901D01*
X967962Y747195D01*
X968257Y747637D01*
X968360Y748158D01*
X968257Y748678D01*
X967962Y749119D01*
X967521Y749414D01*
X967000Y749518D01*
D02*
G37*
G36*
X1104135Y748507D02*
X1103128Y747500D01*
X1104135Y746493D01*
X1104290Y746726D01*
X1104444Y747500D01*
X1104290Y748274D01*
X1104135Y748507D01*
D02*
G37*
G36*
X1100708Y748507D02*
X1100552Y748274D01*
X1100398Y747500D01*
X1100552Y746726D01*
X1100708Y746493D01*
X1101714Y747500D01*
X1100708Y748507D01*
D02*
G37*
G36*
X1102421Y746793D02*
X1101415Y745786D01*
X1101647Y745631D01*
X1102421Y745477D01*
X1103195Y745631D01*
X1103428Y745786D01*
X1102421Y746793D01*
D02*
G37*
G36*
X860972Y747849D02*
X860452Y747745D01*
X860011Y747450D01*
X859716Y747009D01*
X859612Y746488D01*
X859716Y745968D01*
X860011Y745526D01*
X860452Y745231D01*
X860972Y745128D01*
X861493Y745231D01*
X861934Y745526D01*
X862229Y745968D01*
X862333Y746488D01*
X862229Y747009D01*
X861934Y747450D01*
X861493Y747745D01*
X860972Y747849D01*
D02*
G37*
G36*
X967000Y744866D02*
X966226Y744712D01*
X965993Y744556D01*
X967000Y743550D01*
X968007Y744556D01*
X967774Y744712D01*
X967000Y744866D01*
D02*
G37*
G36*
X790358Y745479D02*
X789837Y745376D01*
X789396Y745081D01*
X789101Y744639D01*
X788997Y744119D01*
X789101Y743598D01*
X789396Y743157D01*
X789837Y742862D01*
X790358Y742759D01*
X790878Y742862D01*
X791320Y743157D01*
X791614Y743598D01*
X791718Y744119D01*
X791614Y744639D01*
X791320Y745081D01*
X790878Y745376D01*
X790358Y745479D01*
D02*
G37*
G36*
X762060Y745241D02*
X761539Y745138D01*
X761098Y744843D01*
X760803Y744402D01*
X760700Y743881D01*
X760803Y743360D01*
X761098Y742919D01*
X761539Y742624D01*
X762060Y742521D01*
X762581Y742624D01*
X763022Y742919D01*
X763317Y743360D01*
X763420Y743881D01*
X763317Y744402D01*
X763022Y744843D01*
X762581Y745138D01*
X762060Y745241D01*
D02*
G37*
G36*
X940500Y745132D02*
X939979Y745028D01*
X939538Y744734D01*
X939243Y744292D01*
X939140Y743772D01*
X939243Y743251D01*
X939538Y742810D01*
X939979Y742515D01*
X940500Y742411D01*
X941021Y742515D01*
X941462Y742810D01*
X941757Y743251D01*
X941860Y743772D01*
X941757Y744292D01*
X941462Y744734D01*
X941021Y745028D01*
X940500Y745132D01*
D02*
G37*
G36*
X935500D02*
X934979Y745028D01*
X934538Y744734D01*
X934243Y744292D01*
X934140Y743772D01*
X934243Y743251D01*
X934538Y742810D01*
X934979Y742515D01*
X935500Y742411D01*
X936021Y742515D01*
X936462Y742810D01*
X936757Y743251D01*
X936860Y743772D01*
X936757Y744292D01*
X936462Y744734D01*
X936021Y745028D01*
X935500Y745132D01*
D02*
G37*
G36*
X1059500Y745018D02*
X1058979Y744914D01*
X1058538Y744619D01*
X1058243Y744178D01*
X1058140Y743657D01*
X1058243Y743137D01*
X1058538Y742696D01*
X1058979Y742401D01*
X1059500Y742297D01*
X1060021Y742401D01*
X1060462Y742696D01*
X1060757Y743137D01*
X1060860Y743657D01*
X1060757Y744178D01*
X1060462Y744619D01*
X1060021Y744914D01*
X1059500Y745018D01*
D02*
G37*
G36*
X968714Y743849D02*
X967707Y742842D01*
X968714Y741836D01*
X968869Y742068D01*
X969023Y742842D01*
X968869Y743617D01*
X968714Y743849D01*
D02*
G37*
G36*
X965286Y743849D02*
X965131Y743617D01*
X964977Y742842D01*
X965131Y742068D01*
X965286Y741836D01*
X966293Y742842D01*
X965286Y743849D01*
D02*
G37*
G36*
X777122Y744278D02*
X776602Y744174D01*
X776160Y743879D01*
X775865Y743438D01*
X775762Y742917D01*
X775865Y742397D01*
X776160Y741955D01*
X776602Y741660D01*
X777122Y741557D01*
X777643Y741660D01*
X778084Y741955D01*
X778379Y742397D01*
X778482Y742917D01*
X778379Y743438D01*
X778084Y743879D01*
X777643Y744174D01*
X777122Y744278D01*
D02*
G37*
G36*
X967000Y742135D02*
X965993Y741129D01*
X966226Y740973D01*
X967000Y740819D01*
X967774Y740973D01*
X968007Y741129D01*
X967000Y742135D01*
D02*
G37*
G36*
X1054500Y737023D02*
X1053726Y736869D01*
X1053493Y736714D01*
X1054500Y735707D01*
X1055507Y736714D01*
X1055274Y736869D01*
X1054500Y737023D01*
D02*
G37*
G36*
X858488Y737860D02*
X857968Y737757D01*
X857526Y737462D01*
X857231Y737021D01*
X857128Y736500D01*
X857231Y735979D01*
X857526Y735538D01*
X857968Y735243D01*
X858488Y735140D01*
X859009Y735243D01*
X859450Y735538D01*
X859745Y735979D01*
X859849Y736500D01*
X859745Y737021D01*
X859450Y737462D01*
X859009Y737757D01*
X858488Y737860D01*
D02*
G37*
G36*
X1056214Y736007D02*
X1055207Y735000D01*
X1056214Y733993D01*
X1056369Y734226D01*
X1056523Y735000D01*
X1056369Y735774D01*
X1056214Y736007D01*
D02*
G37*
G36*
X1052786Y736007D02*
X1052631Y735774D01*
X1052477Y735000D01*
X1052631Y734226D01*
X1052786Y733993D01*
X1053793Y735000D01*
X1052786Y736007D01*
D02*
G37*
G36*
X1090000Y736360D02*
X1089479Y736257D01*
X1089038Y735962D01*
X1088743Y735521D01*
X1088640Y735000D01*
X1088743Y734479D01*
X1089038Y734038D01*
X1089479Y733743D01*
X1090000Y733640D01*
X1090521Y733743D01*
X1090962Y734038D01*
X1091257Y734479D01*
X1091360Y735000D01*
X1091257Y735521D01*
X1090962Y735962D01*
X1090521Y736257D01*
X1090000Y736360D01*
D02*
G37*
G36*
X1054500Y734293D02*
X1053493Y733286D01*
X1053726Y733131D01*
X1054500Y732977D01*
X1055274Y733131D01*
X1055507Y733286D01*
X1054500Y734293D01*
D02*
G37*
G36*
X1081173Y734860D02*
X1080653Y734757D01*
X1080211Y734462D01*
X1079916Y734021D01*
X1079813Y733500D01*
X1079916Y732979D01*
X1080211Y732538D01*
X1080653Y732243D01*
X1081173Y732140D01*
X1081694Y732243D01*
X1082135Y732538D01*
X1082430Y732979D01*
X1082534Y733500D01*
X1082430Y734021D01*
X1082135Y734462D01*
X1081694Y734757D01*
X1081173Y734860D01*
D02*
G37*
G36*
X884500Y733031D02*
X883726Y732877D01*
X883493Y732722D01*
X884500Y731715D01*
X885507Y732722D01*
X885274Y732877D01*
X884500Y733031D01*
D02*
G37*
G36*
X874500Y732860D02*
X873979Y732757D01*
X873538Y732462D01*
X873243Y732021D01*
X873140Y731500D01*
X873243Y730979D01*
X873538Y730538D01*
X873979Y730243D01*
X874500Y730140D01*
X875021Y730243D01*
X875462Y730538D01*
X875757Y730979D01*
X875860Y731500D01*
X875757Y732021D01*
X875462Y732462D01*
X875021Y732757D01*
X874500Y732860D01*
D02*
G37*
G36*
X858488D02*
X857968Y732757D01*
X857526Y732462D01*
X857231Y732021D01*
X857128Y731500D01*
X857231Y730979D01*
X857526Y730538D01*
X857968Y730243D01*
X858488Y730140D01*
X859009Y730243D01*
X859450Y730538D01*
X859745Y730979D01*
X859849Y731500D01*
X859745Y732021D01*
X859450Y732462D01*
X859009Y732757D01*
X858488Y732860D01*
D02*
G37*
G36*
X886214Y732015D02*
X885207Y731008D01*
X886214Y730001D01*
X886369Y730234D01*
X886523Y731008D01*
X886369Y731782D01*
X886214Y732015D01*
D02*
G37*
G36*
X882786Y732015D02*
X882631Y731782D01*
X882477Y731008D01*
X882631Y730234D01*
X882786Y730001D01*
X883793Y731008D01*
X882786Y732015D01*
D02*
G37*
G36*
X803227Y731725D02*
X802706Y731621D01*
X802265Y731326D01*
X801970Y730885D01*
X801866Y730365D01*
X801970Y729844D01*
X802265Y729403D01*
X802706Y729108D01*
X803227Y729004D01*
X803747Y729108D01*
X804189Y729403D01*
X804484Y729844D01*
X804587Y730365D01*
X804484Y730885D01*
X804189Y731326D01*
X803747Y731621D01*
X803227Y731725D01*
D02*
G37*
G36*
X884500Y730301D02*
X883493Y729294D01*
X883726Y729139D01*
X884500Y728985D01*
X885274Y729139D01*
X885507Y729294D01*
X884500Y730301D01*
D02*
G37*
G36*
X1077000Y729860D02*
X1076479Y729757D01*
X1076038Y729462D01*
X1075743Y729021D01*
X1075640Y728500D01*
X1075743Y727979D01*
X1076038Y727538D01*
X1076479Y727243D01*
X1077000Y727140D01*
X1077521Y727243D01*
X1077962Y727538D01*
X1078257Y727979D01*
X1078360Y728500D01*
X1078257Y729021D01*
X1077962Y729462D01*
X1077521Y729757D01*
X1077000Y729860D01*
D02*
G37*
G36*
X965981Y727938D02*
X965207Y727784D01*
X964974Y727629D01*
X965981Y726622D01*
X966987Y727629D01*
X966755Y727784D01*
X965981Y727938D01*
D02*
G37*
G36*
X1044804Y728688D02*
X1044284Y728584D01*
X1043842Y728290D01*
X1043547Y727848D01*
X1043444Y727328D01*
X1043547Y726807D01*
X1043842Y726366D01*
X1044284Y726071D01*
X1044804Y725967D01*
X1045325Y726071D01*
X1045766Y726366D01*
X1046061Y726807D01*
X1046165Y727328D01*
X1046061Y727848D01*
X1045766Y728290D01*
X1045325Y728584D01*
X1044804Y728688D01*
D02*
G37*
G36*
X1041402D02*
X1040882Y728584D01*
X1040440Y728290D01*
X1040145Y727848D01*
X1040042Y727328D01*
X1040145Y726807D01*
X1040440Y726366D01*
X1040882Y726071D01*
X1041402Y725967D01*
X1041923Y726071D01*
X1042364Y726366D01*
X1042659Y726807D01*
X1042762Y727328D01*
X1042659Y727848D01*
X1042364Y728290D01*
X1041923Y728584D01*
X1041402Y728688D01*
D02*
G37*
G36*
X858488Y727860D02*
X857968Y727757D01*
X857526Y727462D01*
X857231Y727021D01*
X857128Y726500D01*
X857231Y725979D01*
X857526Y725538D01*
X857968Y725243D01*
X858488Y725140D01*
X859009Y725243D01*
X859450Y725538D01*
X859745Y725979D01*
X859849Y726500D01*
X859745Y727021D01*
X859450Y727462D01*
X859009Y727757D01*
X858488Y727860D01*
D02*
G37*
G36*
X967694Y726922D02*
X966688Y725915D01*
X967694Y724908D01*
X967850Y725141D01*
X968004Y725915D01*
X967850Y726689D01*
X967694Y726922D01*
D02*
G37*
G36*
X964267Y726922D02*
X964112Y726689D01*
X963958Y725915D01*
X964112Y725141D01*
X964267Y724908D01*
X965274Y725915D01*
X964267Y726922D01*
D02*
G37*
G36*
X960666Y727275D02*
X960145Y727172D01*
X959704Y726877D01*
X959409Y726436D01*
X959305Y725915D01*
X959409Y725394D01*
X959704Y724953D01*
X960145Y724658D01*
X960666Y724555D01*
X961186Y724658D01*
X961628Y724953D01*
X961923Y725394D01*
X962026Y725915D01*
X961923Y726436D01*
X961628Y726877D01*
X961186Y727172D01*
X960666Y727275D01*
D02*
G37*
G36*
X965981Y725208D02*
X964974Y724201D01*
X965207Y724046D01*
X965981Y723892D01*
X966755Y724046D01*
X966987Y724201D01*
X965981Y725208D01*
D02*
G37*
G36*
X1037064Y724766D02*
X1036543Y724663D01*
X1036102Y724368D01*
X1035807Y723926D01*
X1035703Y723406D01*
X1035807Y722885D01*
X1036102Y722444D01*
X1036543Y722149D01*
X1037064Y722046D01*
X1037584Y722149D01*
X1038026Y722444D01*
X1038321Y722885D01*
X1038424Y723406D01*
X1038321Y723926D01*
X1038026Y724368D01*
X1037584Y724663D01*
X1037064Y724766D01*
D02*
G37*
G36*
X1069138Y724360D02*
X1068617Y724257D01*
X1068176Y723962D01*
X1067881Y723521D01*
X1067777Y723000D01*
X1067881Y722479D01*
X1068176Y722038D01*
X1068617Y721743D01*
X1069138Y721640D01*
X1069658Y721743D01*
X1070100Y722038D01*
X1070395Y722479D01*
X1070498Y723000D01*
X1070395Y723521D01*
X1070100Y723962D01*
X1069658Y724257D01*
X1069138Y724360D01*
D02*
G37*
G36*
X1042000D02*
X1041479Y724257D01*
X1041038Y723962D01*
X1040743Y723521D01*
X1040640Y723000D01*
X1040743Y722479D01*
X1041038Y722038D01*
X1041479Y721743D01*
X1042000Y721640D01*
X1042521Y721743D01*
X1042962Y722038D01*
X1043257Y722479D01*
X1043360Y723000D01*
X1043257Y723521D01*
X1042962Y723962D01*
X1042521Y724257D01*
X1042000Y724360D01*
D02*
G37*
G36*
X1058500Y723519D02*
X1057979Y723416D01*
X1057538Y723121D01*
X1057243Y722680D01*
X1057140Y722159D01*
X1057243Y721638D01*
X1057538Y721197D01*
X1057979Y720902D01*
X1058500Y720798D01*
X1059021Y720902D01*
X1059462Y721197D01*
X1059757Y721638D01*
X1059860Y722159D01*
X1059757Y722680D01*
X1059462Y723121D01*
X1059021Y723416D01*
X1058500Y723519D01*
D02*
G37*
G36*
X972500Y722167D02*
X971979Y722064D01*
X971538Y721769D01*
X971243Y721328D01*
X971140Y720807D01*
X971243Y720287D01*
X971538Y719845D01*
X971979Y719550D01*
X972500Y719447D01*
X973021Y719550D01*
X973462Y719845D01*
X973757Y720287D01*
X973860Y720807D01*
X973757Y721328D01*
X973462Y721769D01*
X973021Y722064D01*
X972500Y722167D01*
D02*
G37*
G36*
X1101673Y721250D02*
X1101153Y721147D01*
X1100711Y720852D01*
X1100416Y720410D01*
X1100313Y719890D01*
X1100416Y719369D01*
X1100711Y718928D01*
X1101153Y718633D01*
X1101673Y718529D01*
X1102194Y718633D01*
X1102635Y718928D01*
X1102930Y719369D01*
X1103034Y719890D01*
X1102930Y720410D01*
X1102635Y720852D01*
X1102194Y721147D01*
X1101673Y721250D01*
D02*
G37*
G36*
X975116Y719187D02*
X974595Y719084D01*
X974154Y718789D01*
X973859Y718348D01*
X973755Y717827D01*
X973859Y717306D01*
X974154Y716865D01*
X974595Y716570D01*
X975116Y716467D01*
X975636Y716570D01*
X976078Y716865D01*
X976373Y717306D01*
X976476Y717827D01*
X976373Y718348D01*
X976078Y718789D01*
X975636Y719084D01*
X975116Y719187D01*
D02*
G37*
G36*
X874500Y717860D02*
X873979Y717757D01*
X873538Y717462D01*
X873243Y717021D01*
X873140Y716500D01*
X873243Y715979D01*
X873538Y715538D01*
X873979Y715243D01*
X874500Y715140D01*
X875021Y715243D01*
X875462Y715538D01*
X875757Y715979D01*
X875860Y716500D01*
X875757Y717021D01*
X875462Y717462D01*
X875021Y717757D01*
X874500Y717860D01*
D02*
G37*
G36*
X1051992Y716990D02*
X1051472Y716886D01*
X1051030Y716591D01*
X1050735Y716150D01*
X1050632Y715629D01*
X1050735Y715109D01*
X1051030Y714667D01*
X1051472Y714372D01*
X1051992Y714269D01*
X1052513Y714372D01*
X1052954Y714667D01*
X1053249Y715109D01*
X1053353Y715629D01*
X1053249Y716150D01*
X1052954Y716591D01*
X1052513Y716886D01*
X1051992Y716990D01*
D02*
G37*
G36*
X1048153D02*
X1047633Y716886D01*
X1047192Y716591D01*
X1046897Y716150D01*
X1046793Y715629D01*
X1046897Y715109D01*
X1047192Y714667D01*
X1047633Y714372D01*
X1048153Y714269D01*
X1048674Y714372D01*
X1049115Y714667D01*
X1049410Y715109D01*
X1049514Y715629D01*
X1049410Y716150D01*
X1049115Y716591D01*
X1048674Y716886D01*
X1048153Y716990D01*
D02*
G37*
G36*
X1062850Y715384D02*
X1062330Y715280D01*
X1061889Y714986D01*
X1061594Y714544D01*
X1061490Y714024D01*
X1061594Y713503D01*
X1061889Y713062D01*
X1062330Y712767D01*
X1062850Y712663D01*
X1063371Y712767D01*
X1063812Y713062D01*
X1064107Y713503D01*
X1064211Y714024D01*
X1064107Y714544D01*
X1063812Y714986D01*
X1063371Y715280D01*
X1062850Y715384D01*
D02*
G37*
G36*
X1087850Y715360D02*
X1087330Y715257D01*
X1086889Y714962D01*
X1086594Y714521D01*
X1086490Y714000D01*
X1086594Y713479D01*
X1086889Y713038D01*
X1087330Y712743D01*
X1087850Y712640D01*
X1088371Y712743D01*
X1088812Y713038D01*
X1089107Y713479D01*
X1089211Y714000D01*
X1089107Y714521D01*
X1088812Y714962D01*
X1088371Y715257D01*
X1087850Y715360D01*
D02*
G37*
G36*
X951500Y714860D02*
X950979Y714757D01*
X950538Y714462D01*
X950243Y714021D01*
X950140Y713500D01*
X950243Y712979D01*
X950538Y712538D01*
X950979Y712243D01*
X951500Y712140D01*
X952021Y712243D01*
X952462Y712538D01*
X952757Y712979D01*
X952860Y713500D01*
X952757Y714021D01*
X952462Y714462D01*
X952021Y714757D01*
X951500Y714860D01*
D02*
G37*
G36*
X816953Y713632D02*
X816432Y713528D01*
X815991Y713234D01*
X815696Y712792D01*
X815592Y712272D01*
X815696Y711751D01*
X815991Y711310D01*
X816267Y711125D01*
X816179Y710598D01*
X815946Y710442D01*
X816953Y709435D01*
X817959Y710442D01*
X817727Y710598D01*
X817638Y711125D01*
X817915Y711310D01*
X818210Y711751D01*
X818313Y712272D01*
X818210Y712792D01*
X817915Y713234D01*
X817473Y713528D01*
X816953Y713632D01*
D02*
G37*
G36*
X818666Y709735D02*
X817660Y708728D01*
X818666Y707722D01*
X818822Y707954D01*
X818976Y708728D01*
X818822Y709503D01*
X818666Y709735D01*
D02*
G37*
G36*
X815239Y709735D02*
X815084Y709503D01*
X814930Y708728D01*
X815084Y707954D01*
X815239Y707722D01*
X816246Y708728D01*
X815239Y709735D01*
D02*
G37*
G36*
X816953Y708021D02*
X815946Y707015D01*
X816179Y706859D01*
X816953Y706705D01*
X817727Y706859D01*
X817959Y707015D01*
X816953Y708021D01*
D02*
G37*
G36*
X811000Y708203D02*
X810479Y708099D01*
X810038Y707804D01*
X809743Y707363D01*
X809640Y706843D01*
X809743Y706322D01*
X810038Y705881D01*
X810479Y705586D01*
X811000Y705482D01*
X811521Y705586D01*
X811962Y705881D01*
X812257Y706322D01*
X812360Y706843D01*
X812257Y707363D01*
X811962Y707804D01*
X811521Y708099D01*
X811000Y708203D01*
D02*
G37*
G36*
X791913Y708002D02*
X791393Y707899D01*
X790951Y707604D01*
X790657Y707162D01*
X790553Y706642D01*
X790657Y706121D01*
X790951Y705680D01*
X791393Y705385D01*
X791913Y705281D01*
X792434Y705385D01*
X792875Y705680D01*
X793170Y706121D01*
X793274Y706642D01*
X793170Y707162D01*
X792875Y707604D01*
X792434Y707899D01*
X791913Y708002D01*
D02*
G37*
G36*
X756087D02*
X755566Y707899D01*
X755125Y707604D01*
X754830Y707162D01*
X754726Y706642D01*
X754830Y706121D01*
X755125Y705680D01*
X755566Y705385D01*
X756087Y705281D01*
X756607Y705385D01*
X757049Y705680D01*
X757343Y706121D01*
X757447Y706642D01*
X757343Y707162D01*
X757049Y707604D01*
X756607Y707899D01*
X756087Y708002D01*
D02*
G37*
G36*
X1038370Y704538D02*
X1037850Y704434D01*
X1037408Y704139D01*
X1037113Y703698D01*
X1037010Y703177D01*
X1037113Y702657D01*
X1037408Y702215D01*
X1037850Y701921D01*
X1038370Y701817D01*
X1038891Y701921D01*
X1039332Y702215D01*
X1039627Y702657D01*
X1039731Y703177D01*
X1039627Y703698D01*
X1039332Y704139D01*
X1038891Y704434D01*
X1038370Y704538D01*
D02*
G37*
G36*
X1042314Y704360D02*
X1041793Y704257D01*
X1041352Y703962D01*
X1041057Y703521D01*
X1040953Y703000D01*
X1041057Y702479D01*
X1041352Y702038D01*
X1041793Y701743D01*
X1042314Y701640D01*
X1042834Y701743D01*
X1043276Y702038D01*
X1043570Y702479D01*
X1043674Y703000D01*
X1043570Y703521D01*
X1043276Y703962D01*
X1042834Y704257D01*
X1042314Y704360D01*
D02*
G37*
G36*
X877500Y703360D02*
X876979Y703257D01*
X876538Y702962D01*
X876243Y702521D01*
X876140Y702000D01*
X876243Y701479D01*
X876538Y701038D01*
X876979Y700743D01*
X877500Y700640D01*
X878021Y700743D01*
X878462Y701038D01*
X878757Y701479D01*
X878860Y702000D01*
X878757Y702521D01*
X878462Y702962D01*
X878021Y703257D01*
X877500Y703360D01*
D02*
G37*
G36*
X967445Y702860D02*
X966924Y702757D01*
X966483Y702462D01*
X966188Y702021D01*
X966084Y701500D01*
X966188Y700979D01*
X966483Y700538D01*
X966924Y700243D01*
X967445Y700140D01*
X967966Y700243D01*
X968407Y700538D01*
X968702Y700979D01*
X968805Y701500D01*
X968702Y702021D01*
X968407Y702462D01*
X967966Y702757D01*
X967445Y702860D01*
D02*
G37*
G36*
X1045992Y701655D02*
X1045472Y701552D01*
X1045030Y701257D01*
X1044735Y700815D01*
X1044632Y700295D01*
X1044735Y699774D01*
X1045030Y699333D01*
X1045472Y699038D01*
X1045992Y698934D01*
X1046513Y699038D01*
X1046954Y699333D01*
X1047249Y699774D01*
X1047353Y700295D01*
X1047249Y700815D01*
X1046954Y701257D01*
X1046513Y701552D01*
X1045992Y701655D01*
D02*
G37*
G36*
X975116Y701360D02*
X974595Y701257D01*
X974154Y700962D01*
X973859Y700521D01*
X973755Y700000D01*
X973859Y699479D01*
X974154Y699038D01*
X974595Y698743D01*
X975116Y698640D01*
X975636Y698743D01*
X976078Y699038D01*
X976373Y699479D01*
X976476Y700000D01*
X976373Y700521D01*
X976078Y700962D01*
X975636Y701257D01*
X975116Y701360D01*
D02*
G37*
G36*
X1131500Y700892D02*
X1130979Y700788D01*
X1130538Y700493D01*
X1130243Y700052D01*
X1130140Y699532D01*
X1130243Y699011D01*
X1130538Y698570D01*
X1130979Y698275D01*
X1131500Y698171D01*
X1132021Y698275D01*
X1132462Y698570D01*
X1132757Y699011D01*
X1132860Y699532D01*
X1132757Y700052D01*
X1132462Y700493D01*
X1132021Y700788D01*
X1131500Y700892D01*
D02*
G37*
G36*
X870500Y702346D02*
X869602Y702167D01*
X868841Y701659D01*
X868333Y700898D01*
X868154Y700000D01*
X868333Y699102D01*
X868841Y698341D01*
X869602Y697833D01*
X870500Y697654D01*
X871398Y697833D01*
X872159Y698341D01*
X872667Y699102D01*
X872846Y700000D01*
X872667Y700898D01*
X872159Y701659D01*
X871398Y702167D01*
X870500Y702346D01*
D02*
G37*
G36*
X862500D02*
X861602Y702167D01*
X860841Y701659D01*
X860333Y700898D01*
X860154Y700000D01*
X860333Y699102D01*
X860841Y698341D01*
X861602Y697833D01*
X862500Y697654D01*
X863398Y697833D01*
X864159Y698341D01*
X864667Y699102D01*
X864846Y700000D01*
X864667Y700898D01*
X864159Y701659D01*
X863398Y702167D01*
X862500Y702346D01*
D02*
G37*
G36*
X897279Y696023D02*
X896505Y695869D01*
X895849Y695431D01*
X895778Y695324D01*
X895287Y695226D01*
X895241Y695257D01*
X894720Y695360D01*
X894200Y695257D01*
X893758Y694962D01*
X893464Y694521D01*
X893360Y694000D01*
X893464Y693479D01*
X893758Y693038D01*
X894200Y692743D01*
X894720Y692640D01*
X895241Y692743D01*
X895287Y692774D01*
X895778Y692676D01*
X895849Y692569D01*
X896505Y692131D01*
X897279Y691977D01*
X898054Y692131D01*
X898286Y692286D01*
X896926Y693646D01*
X897279Y694000D01*
X896926Y694353D01*
X898286Y695714D01*
X898054Y695869D01*
X897279Y696023D01*
D02*
G37*
G36*
X1131500Y696240D02*
X1130726Y696086D01*
X1130493Y695930D01*
X1131500Y694924D01*
X1132507Y695930D01*
X1132274Y696086D01*
X1131500Y696240D01*
D02*
G37*
G36*
X1133214Y695223D02*
X1132207Y694216D01*
X1133214Y693210D01*
X1133369Y693442D01*
X1133523Y694216D01*
X1133369Y694991D01*
X1133214Y695223D01*
D02*
G37*
G36*
X1129786Y695223D02*
X1129631Y694991D01*
X1129477Y694216D01*
X1129631Y693442D01*
X1129786Y693210D01*
X1130793Y694216D01*
X1129786Y695223D01*
D02*
G37*
G36*
X898993Y695007D02*
X897987Y694000D01*
X898993Y692993D01*
X899149Y693226D01*
X899303Y694000D01*
X899149Y694774D01*
X898993Y695007D01*
D02*
G37*
G36*
X1131500Y693509D02*
X1130493Y692503D01*
X1130726Y692347D01*
X1131500Y692193D01*
X1132274Y692347D01*
X1132507Y692503D01*
X1131500Y693509D01*
D02*
G37*
G36*
X1077811Y693333D02*
X1077290Y693229D01*
X1076849Y692934D01*
X1076554Y692493D01*
X1076451Y691972D01*
X1076554Y691452D01*
X1076849Y691011D01*
X1077290Y690716D01*
X1077811Y690612D01*
X1078332Y690716D01*
X1078773Y691011D01*
X1079068Y691452D01*
X1079171Y691972D01*
X1079068Y692493D01*
X1078773Y692934D01*
X1078332Y693229D01*
X1077811Y693333D01*
D02*
G37*
G36*
X915000Y690523D02*
X914226Y690369D01*
X913993Y690214D01*
X915000Y689207D01*
X916007Y690214D01*
X915774Y690369D01*
X915000Y690523D01*
D02*
G37*
G36*
X869000Y691360D02*
X868479Y691257D01*
X868038Y690962D01*
X867743Y690521D01*
X867640Y690000D01*
X867743Y689479D01*
X868038Y689038D01*
X868479Y688743D01*
X869000Y688640D01*
X869521Y688743D01*
X869962Y689038D01*
X870257Y689479D01*
X870360Y690000D01*
X870257Y690521D01*
X869962Y690962D01*
X869521Y691257D01*
X869000Y691360D01*
D02*
G37*
G36*
X864000D02*
X863479Y691257D01*
X863038Y690962D01*
X862743Y690521D01*
X862640Y690000D01*
X862743Y689479D01*
X863038Y689038D01*
X863479Y688743D01*
X864000Y688640D01*
X864521Y688743D01*
X864962Y689038D01*
X865257Y689479D01*
X865360Y690000D01*
X865257Y690521D01*
X864962Y690962D01*
X864521Y691257D01*
X864000Y691360D01*
D02*
G37*
G36*
X1048153Y690360D02*
X1047633Y690257D01*
X1047192Y689962D01*
X1046897Y689521D01*
X1046793Y689000D01*
X1046897Y688479D01*
X1047192Y688038D01*
X1047633Y687743D01*
X1048153Y687640D01*
X1048674Y687743D01*
X1049115Y688038D01*
X1049410Y688479D01*
X1049514Y689000D01*
X1049410Y689521D01*
X1049115Y689962D01*
X1048674Y690257D01*
X1048153Y690360D01*
D02*
G37*
G36*
X916714Y689507D02*
X915707Y688500D01*
X916714Y687493D01*
X916869Y687726D01*
X917023Y688500D01*
X916869Y689274D01*
X916714Y689507D01*
D02*
G37*
G36*
X913286Y689507D02*
X913131Y689274D01*
X912977Y688500D01*
X913131Y687726D01*
X913286Y687493D01*
X914293Y688500D01*
X913286Y689507D01*
D02*
G37*
G36*
X876500Y697569D02*
X875188Y697396D01*
X873966Y696889D01*
X872916Y696084D01*
X872110Y695034D01*
X871604Y693812D01*
X871432Y692500D01*
X871604Y691188D01*
X872110Y689966D01*
X872916Y688916D01*
X873966Y688110D01*
X875188Y687604D01*
X876500Y687431D01*
X877812Y687604D01*
X879034Y688110D01*
X880084Y688916D01*
X880890Y689966D01*
X881396Y691188D01*
X881569Y692500D01*
X881396Y693812D01*
X880890Y695034D01*
X880084Y696084D01*
X879034Y696889D01*
X877812Y697396D01*
X876500Y697569D01*
D02*
G37*
G36*
X856500D02*
X855188Y697396D01*
X853966Y696889D01*
X852916Y696084D01*
X852110Y695034D01*
X851604Y693812D01*
X851431Y692500D01*
X851604Y691188D01*
X852110Y689966D01*
X852916Y688916D01*
X853966Y688110D01*
X855188Y687604D01*
X856500Y687431D01*
X857812Y687604D01*
X859034Y688110D01*
X860084Y688916D01*
X860890Y689966D01*
X861396Y691188D01*
X861569Y692500D01*
X861396Y693812D01*
X860890Y695034D01*
X860084Y696084D01*
X859034Y696889D01*
X857812Y697396D01*
X856500Y697569D01*
D02*
G37*
G36*
X915000Y687793D02*
X913993Y686786D01*
X914226Y686631D01*
X915000Y686477D01*
X915774Y686631D01*
X916007Y686786D01*
X915000Y687793D01*
D02*
G37*
G36*
X1102772Y688860D02*
X1102251Y688757D01*
X1101810Y688462D01*
X1101515Y688021D01*
X1101411Y687500D01*
X1101515Y686979D01*
X1101810Y686538D01*
X1102251Y686243D01*
X1102772Y686140D01*
X1103292Y686243D01*
X1103734Y686538D01*
X1104029Y686979D01*
X1104132Y687500D01*
X1104029Y688021D01*
X1103734Y688462D01*
X1103292Y688757D01*
X1102772Y688860D01*
D02*
G37*
G36*
X1072231Y688560D02*
X1071710Y688456D01*
X1071269Y688161D01*
X1070974Y687720D01*
X1070870Y687199D01*
X1070974Y686679D01*
X1071269Y686237D01*
X1071710Y685943D01*
X1072231Y685839D01*
X1072751Y685943D01*
X1073193Y686237D01*
X1073487Y686679D01*
X1073591Y687199D01*
X1073487Y687720D01*
X1073193Y688161D01*
X1072751Y688456D01*
X1072231Y688560D01*
D02*
G37*
G36*
X1077362Y686537D02*
X1076842Y686434D01*
X1076400Y686139D01*
X1076105Y685698D01*
X1076002Y685177D01*
X1076105Y684656D01*
X1076400Y684215D01*
X1076842Y683920D01*
X1077362Y683817D01*
X1077883Y683920D01*
X1078324Y684215D01*
X1078619Y684656D01*
X1078723Y685177D01*
X1078619Y685698D01*
X1078324Y686139D01*
X1077883Y686434D01*
X1077362Y686537D01*
D02*
G37*
G36*
X915000Y685055D02*
X914479Y684952D01*
X914038Y684657D01*
X913743Y684216D01*
X913640Y683695D01*
X913743Y683174D01*
X914038Y682733D01*
X914479Y682438D01*
X915000Y682335D01*
X915521Y682438D01*
X915962Y682733D01*
X916257Y683174D01*
X916360Y683695D01*
X916257Y684216D01*
X915962Y684657D01*
X915521Y684952D01*
X915000Y685055D01*
D02*
G37*
G36*
X1124228Y683860D02*
X1123708Y683757D01*
X1123266Y683462D01*
X1122972Y683021D01*
X1122868Y682500D01*
X1122972Y681979D01*
X1123266Y681538D01*
X1123708Y681243D01*
X1124228Y681140D01*
X1124749Y681243D01*
X1125190Y681538D01*
X1125485Y681979D01*
X1125589Y682500D01*
X1125485Y683021D01*
X1125190Y683462D01*
X1124749Y683757D01*
X1124228Y683860D01*
D02*
G37*
G36*
X1102772D02*
X1102251Y683757D01*
X1101810Y683462D01*
X1101515Y683021D01*
X1101411Y682500D01*
X1101515Y681979D01*
X1101810Y681538D01*
X1102251Y681243D01*
X1102772Y681140D01*
X1103292Y681243D01*
X1103734Y681538D01*
X1104029Y681979D01*
X1104132Y682500D01*
X1104029Y683021D01*
X1103734Y683462D01*
X1103292Y683757D01*
X1102772Y683860D01*
D02*
G37*
G36*
X1081477Y683360D02*
X1080957Y683257D01*
X1080515Y682962D01*
X1080220Y682521D01*
X1080117Y682000D01*
X1080220Y681479D01*
X1080515Y681038D01*
X1080957Y680743D01*
X1081477Y680640D01*
X1081998Y680743D01*
X1082439Y681038D01*
X1082734Y681479D01*
X1082838Y682000D01*
X1082734Y682521D01*
X1082439Y682962D01*
X1081998Y683257D01*
X1081477Y683360D01*
D02*
G37*
G36*
X994779Y682081D02*
X994259Y681977D01*
X993818Y681682D01*
X993523Y681241D01*
X993419Y680721D01*
X993523Y680200D01*
X993818Y679759D01*
X994259Y679464D01*
X994779Y679360D01*
X995300Y679464D01*
X995741Y679759D01*
X996036Y680200D01*
X996140Y680721D01*
X996036Y681241D01*
X995741Y681682D01*
X995300Y681977D01*
X994779Y682081D01*
D02*
G37*
G36*
X930500Y680860D02*
X929979Y680757D01*
X929538Y680462D01*
X929243Y680021D01*
X929140Y679500D01*
X929243Y678979D01*
X929538Y678538D01*
X929979Y678243D01*
X930500Y678140D01*
X931021Y678243D01*
X931462Y678538D01*
X931757Y678979D01*
X931860Y679500D01*
X931757Y680021D01*
X931462Y680462D01*
X931021Y680757D01*
X930500Y680860D01*
D02*
G37*
G36*
X866500Y682346D02*
X865602Y682167D01*
X864841Y681659D01*
X864333Y680898D01*
X864154Y680000D01*
X864333Y679102D01*
X864841Y678341D01*
X865602Y677833D01*
X866500Y677654D01*
X867398Y677833D01*
X868159Y678341D01*
X868667Y679102D01*
X868846Y680000D01*
X868667Y680898D01*
X868159Y681659D01*
X867398Y682167D01*
X866500Y682346D01*
D02*
G37*
G36*
X1082063Y678775D02*
X1081289Y678621D01*
X1081056Y678466D01*
X1082063Y677459D01*
X1083070Y678466D01*
X1082837Y678621D01*
X1082063Y678775D01*
D02*
G37*
G36*
X1012000Y677700D02*
X1011479Y677597D01*
X1011038Y677302D01*
X1011029Y677288D01*
X1010467Y677229D01*
X1010444Y677244D01*
X1010025Y677524D01*
X1009505Y677627D01*
X1008984Y677524D01*
X1008543Y677229D01*
X1008248Y676788D01*
X1008144Y676267D01*
X1008248Y675746D01*
X1008543Y675305D01*
X1008984Y675010D01*
X1009505Y674907D01*
X1010025Y675010D01*
X1010467Y675305D01*
X1010476Y675319D01*
X1011038Y675378D01*
X1011061Y675363D01*
X1011479Y675083D01*
X1012000Y674979D01*
X1012521Y675083D01*
X1012962Y675378D01*
X1013257Y675819D01*
X1013360Y676340D01*
X1013257Y676860D01*
X1012962Y677302D01*
X1012521Y677597D01*
X1012000Y677700D01*
D02*
G37*
G36*
X1029258Y677739D02*
X1028737Y677636D01*
X1028296Y677341D01*
X1028048Y676970D01*
X1027782Y676930D01*
X1027505Y676967D01*
X1027258Y677336D01*
X1026817Y677631D01*
X1026296Y677734D01*
X1025776Y677631D01*
X1025334Y677336D01*
X1025040Y676895D01*
X1024936Y676374D01*
X1025040Y675853D01*
X1025334Y675412D01*
X1025776Y675117D01*
X1026296Y675013D01*
X1026817Y675117D01*
X1027258Y675412D01*
X1027506Y675783D01*
X1027772Y675823D01*
X1028050Y675786D01*
X1028296Y675417D01*
X1028737Y675122D01*
X1029258Y675019D01*
X1029778Y675122D01*
X1030220Y675417D01*
X1030515Y675858D01*
X1030618Y676379D01*
X1030515Y676900D01*
X1030220Y677341D01*
X1029778Y677636D01*
X1029258Y677739D01*
D02*
G37*
G36*
X915268Y677838D02*
X914493Y677684D01*
X914261Y677529D01*
X915268Y676522D01*
X916274Y677529D01*
X916042Y677684D01*
X915268Y677838D01*
D02*
G37*
G36*
X1124228Y678860D02*
X1123708Y678757D01*
X1123266Y678462D01*
X1122972Y678021D01*
X1122868Y677500D01*
X1122972Y676979D01*
X1123266Y676538D01*
X1123708Y676243D01*
X1124228Y676140D01*
X1124749Y676243D01*
X1125190Y676538D01*
X1125485Y676979D01*
X1125589Y677500D01*
X1125485Y678021D01*
X1125190Y678462D01*
X1124749Y678757D01*
X1124228Y678860D01*
D02*
G37*
G36*
X1102772D02*
X1102251Y678757D01*
X1101810Y678462D01*
X1101515Y678021D01*
X1101411Y677500D01*
X1101515Y676979D01*
X1101810Y676538D01*
X1102251Y676243D01*
X1102772Y676140D01*
X1103292Y676243D01*
X1103734Y676538D01*
X1104029Y676979D01*
X1104132Y677500D01*
X1104029Y678021D01*
X1103734Y678462D01*
X1103292Y678757D01*
X1102772Y678860D01*
D02*
G37*
G36*
X994852D02*
X994332Y678757D01*
X993890Y678462D01*
X993596Y678021D01*
X993492Y677500D01*
X993596Y676979D01*
X993890Y676538D01*
X994332Y676243D01*
X994852Y676140D01*
X995373Y676243D01*
X995814Y676538D01*
X996109Y676979D01*
X996213Y677500D01*
X996109Y678021D01*
X995814Y678462D01*
X995373Y678757D01*
X994852Y678860D01*
D02*
G37*
G36*
X1044333Y678683D02*
X1043812Y678580D01*
X1043371Y678285D01*
X1043076Y677843D01*
X1042973Y677323D01*
X1043076Y676802D01*
X1043371Y676361D01*
X1043812Y676066D01*
X1044333Y675962D01*
X1044854Y676066D01*
X1045295Y676361D01*
X1045590Y676802D01*
X1045693Y677323D01*
X1045590Y677843D01*
X1045295Y678285D01*
X1044854Y678580D01*
X1044333Y678683D01*
D02*
G37*
G36*
X1083777Y677759D02*
X1082770Y676752D01*
X1083777Y675745D01*
X1083932Y675978D01*
X1084086Y676752D01*
X1083932Y677526D01*
X1083777Y677759D01*
D02*
G37*
G36*
X1080349Y677759D02*
X1080194Y677526D01*
X1080040Y676752D01*
X1080194Y675978D01*
X1080349Y675745D01*
X1081356Y676752D01*
X1080349Y677759D01*
D02*
G37*
G36*
X831933Y689785D02*
X830557Y689604D01*
X829275Y689073D01*
X828174Y688228D01*
X827329Y687127D01*
X826797Y685845D01*
X826616Y684469D01*
Y680532D01*
X826797Y679155D01*
X827329Y677873D01*
X828174Y676772D01*
X829275Y675927D01*
X830557Y675396D01*
X831933Y675215D01*
X833309Y675396D01*
X834591Y675927D01*
X835693Y676772D01*
X836537Y677873D01*
X837069Y679155D01*
X837250Y680532D01*
Y684469D01*
X837069Y685845D01*
X836537Y687127D01*
X835693Y688228D01*
X834591Y689073D01*
X833309Y689604D01*
X831933Y689785D01*
D02*
G37*
G36*
X876500Y685069D02*
X875188Y684896D01*
X873966Y684389D01*
X872916Y683584D01*
X872110Y682534D01*
X871604Y681312D01*
X871432Y680000D01*
X871604Y678688D01*
X872110Y677466D01*
X872916Y676416D01*
X873966Y675610D01*
X875188Y675104D01*
X876500Y674931D01*
X877812Y675104D01*
X879034Y675610D01*
X880084Y676416D01*
X880890Y677466D01*
X881396Y678688D01*
X881569Y680000D01*
X881396Y681312D01*
X880890Y682534D01*
X880084Y683584D01*
X879034Y684389D01*
X877812Y684896D01*
X876500Y685069D01*
D02*
G37*
G36*
X856500D02*
X855188Y684896D01*
X853966Y684389D01*
X852916Y683584D01*
X852110Y682534D01*
X851604Y681312D01*
X851431Y680000D01*
X851604Y678688D01*
X852110Y677466D01*
X852916Y676416D01*
X853966Y675610D01*
X855188Y675104D01*
X856500Y674931D01*
X857812Y675104D01*
X859034Y675610D01*
X860084Y676416D01*
X860890Y677466D01*
X861396Y678688D01*
X861569Y680000D01*
X861396Y681312D01*
X860890Y682534D01*
X860084Y683584D01*
X859034Y684389D01*
X857812Y684896D01*
X856500Y685069D01*
D02*
G37*
G36*
X916982Y676822D02*
X915975Y675815D01*
X916982Y674808D01*
X917137Y675041D01*
X917291Y675815D01*
X917137Y676589D01*
X916982Y676822D01*
D02*
G37*
G36*
X913554Y676822D02*
X913399Y676589D01*
X913245Y675815D01*
X913399Y675041D01*
X913554Y674808D01*
X914561Y675815D01*
X913554Y676822D01*
D02*
G37*
G36*
X1082063Y676045D02*
X1081056Y675038D01*
X1081289Y674883D01*
X1082063Y674729D01*
X1082837Y674883D01*
X1083070Y675038D01*
X1082063Y676045D01*
D02*
G37*
G36*
X915268Y675108D02*
X914261Y674101D01*
X914493Y673946D01*
X915268Y673792D01*
X916042Y673946D01*
X916274Y674101D01*
X915268Y675108D01*
D02*
G37*
G36*
X951107Y676399D02*
X950587Y676295D01*
X950145Y676000D01*
X949850Y675559D01*
X949747Y675039D01*
X949850Y674518D01*
X950145Y674077D01*
X950587Y673782D01*
X951107Y673678D01*
X951628Y673782D01*
X952069Y674077D01*
X952364Y674518D01*
X952468Y675039D01*
X952364Y675559D01*
X952069Y676000D01*
X951628Y676295D01*
X951107Y676399D01*
D02*
G37*
G36*
X994740Y675518D02*
X994220Y675414D01*
X993778Y675119D01*
X993483Y674678D01*
X993380Y674157D01*
X993483Y673637D01*
X993778Y673196D01*
X994220Y672901D01*
X994740Y672797D01*
X995261Y672901D01*
X995702Y673196D01*
X995997Y673637D01*
X996101Y674157D01*
X995997Y674678D01*
X995702Y675119D01*
X995261Y675414D01*
X994740Y675518D01*
D02*
G37*
G36*
X962000Y675360D02*
X961479Y675257D01*
X961038Y674962D01*
X960743Y674521D01*
X960640Y674000D01*
X960743Y673479D01*
X961038Y673038D01*
X961479Y672743D01*
X962000Y672640D01*
X962521Y672743D01*
X962962Y673038D01*
X963257Y673479D01*
X963360Y674000D01*
X963257Y674521D01*
X962962Y674962D01*
X962521Y675257D01*
X962000Y675360D01*
D02*
G37*
G36*
X1124228Y673860D02*
X1123708Y673757D01*
X1123266Y673462D01*
X1122972Y673021D01*
X1122868Y672500D01*
X1122972Y671979D01*
X1123266Y671538D01*
X1123708Y671243D01*
X1124228Y671140D01*
X1124749Y671243D01*
X1125190Y671538D01*
X1125485Y671979D01*
X1125589Y672500D01*
X1125485Y673021D01*
X1125190Y673462D01*
X1124749Y673757D01*
X1124228Y673860D01*
D02*
G37*
G36*
X1102772D02*
X1102251Y673757D01*
X1101810Y673462D01*
X1101515Y673021D01*
X1101411Y672500D01*
X1101515Y671979D01*
X1101810Y671538D01*
X1102251Y671243D01*
X1102772Y671140D01*
X1103292Y671243D01*
X1103734Y671538D01*
X1104029Y671979D01*
X1104132Y672500D01*
X1104029Y673021D01*
X1103734Y673462D01*
X1103292Y673757D01*
X1102772Y673860D01*
D02*
G37*
G36*
X1082063Y672797D02*
X1081542Y672694D01*
X1081101Y672399D01*
X1080806Y671958D01*
X1080703Y671437D01*
X1080806Y670916D01*
X1081101Y670475D01*
X1081542Y670180D01*
X1082063Y670077D01*
X1082584Y670180D01*
X1083025Y670475D01*
X1083320Y670916D01*
X1083423Y671437D01*
X1083320Y671958D01*
X1083025Y672399D01*
X1082584Y672694D01*
X1082063Y672797D01*
D02*
G37*
G36*
X994779Y672175D02*
X994259Y672072D01*
X993818Y671777D01*
X993523Y671336D01*
X993419Y670815D01*
X993523Y670294D01*
X993818Y669853D01*
X994259Y669558D01*
X994779Y669455D01*
X995300Y669558D01*
X995741Y669853D01*
X996036Y670294D01*
X996140Y670815D01*
X996036Y671336D01*
X995741Y671777D01*
X995300Y672072D01*
X994779Y672175D01*
D02*
G37*
G36*
X915268Y671860D02*
X914747Y671757D01*
X914306Y671462D01*
X914011Y671021D01*
X913907Y670500D01*
X914011Y669979D01*
X914306Y669538D01*
X914747Y669243D01*
X915268Y669140D01*
X915788Y669243D01*
X916230Y669538D01*
X916525Y669979D01*
X916628Y670500D01*
X916525Y671021D01*
X916230Y671462D01*
X915788Y671757D01*
X915268Y671860D01*
D02*
G37*
G36*
X904500Y670860D02*
X903979Y670757D01*
X903538Y670462D01*
X903243Y670021D01*
X903140Y669500D01*
X903243Y668979D01*
X903538Y668538D01*
X903979Y668243D01*
X904500Y668140D01*
X905021Y668243D01*
X905462Y668538D01*
X905757Y668979D01*
X905860Y669500D01*
X905757Y670021D01*
X905462Y670462D01*
X905021Y670757D01*
X904500Y670860D01*
D02*
G37*
G36*
X1054043Y670809D02*
X1053523Y670706D01*
X1053081Y670411D01*
X1052787Y669969D01*
X1052683Y669449D01*
X1052787Y668928D01*
X1053081Y668487D01*
X1053523Y668192D01*
X1054043Y668088D01*
X1054564Y668192D01*
X1055005Y668487D01*
X1055300Y668928D01*
X1055404Y669449D01*
X1055300Y669969D01*
X1055005Y670411D01*
X1054564Y670706D01*
X1054043Y670809D01*
D02*
G37*
G36*
X959743Y669940D02*
X959223Y669836D01*
X958781Y669541D01*
X958486Y669100D01*
X958383Y668579D01*
X958486Y668059D01*
X958781Y667617D01*
X959223Y667322D01*
X959743Y667219D01*
X960264Y667322D01*
X960705Y667617D01*
X961000Y668059D01*
X961104Y668579D01*
X961000Y669100D01*
X960705Y669541D01*
X960264Y669836D01*
X959743Y669940D01*
D02*
G37*
G36*
X994779Y668833D02*
X994259Y668729D01*
X993818Y668434D01*
X993523Y667993D01*
X993419Y667472D01*
X993523Y666952D01*
X993818Y666510D01*
X994259Y666216D01*
X994779Y666112D01*
X995300Y666216D01*
X995741Y666510D01*
X996036Y666952D01*
X996140Y667472D01*
X996036Y667993D01*
X995741Y668434D01*
X995300Y668729D01*
X994779Y668833D01*
D02*
G37*
G36*
X915268Y666181D02*
X914493Y666027D01*
X914261Y665871D01*
X915268Y664865D01*
X916274Y665871D01*
X916042Y666027D01*
X915268Y666181D01*
D02*
G37*
G36*
X1050740Y666860D02*
X1050220Y666757D01*
X1049778Y666462D01*
X1049483Y666021D01*
X1049380Y665500D01*
X1049483Y664979D01*
X1049778Y664538D01*
X1050220Y664243D01*
X1050740Y664140D01*
X1051261Y664243D01*
X1051702Y664538D01*
X1051997Y664979D01*
X1052100Y665500D01*
X1051997Y666021D01*
X1051702Y666462D01*
X1051261Y666757D01*
X1050740Y666860D01*
D02*
G37*
G36*
X916982Y665164D02*
X915975Y664157D01*
X916982Y663151D01*
X917137Y663383D01*
X917291Y664157D01*
X917137Y664932D01*
X916982Y665164D01*
D02*
G37*
G36*
X913554Y665164D02*
X913399Y664932D01*
X913245Y664157D01*
X913399Y663383D01*
X913554Y663151D01*
X914561Y664157D01*
X913554Y665164D01*
D02*
G37*
G36*
X915268Y663450D02*
X914261Y662444D01*
X914493Y662288D01*
X915268Y662134D01*
X916042Y662288D01*
X916274Y662444D01*
X915268Y663450D01*
D02*
G37*
G36*
X1050786Y662951D02*
X1050266Y662848D01*
X1049824Y662553D01*
X1049529Y662112D01*
X1049426Y661591D01*
X1049529Y661070D01*
X1049824Y660629D01*
X1050266Y660334D01*
X1050786Y660231D01*
X1051307Y660334D01*
X1051748Y660629D01*
X1052043Y661070D01*
X1052147Y661591D01*
X1052043Y662112D01*
X1051748Y662553D01*
X1051307Y662848D01*
X1050786Y662951D01*
D02*
G37*
G36*
X956897Y661282D02*
X956376Y661179D01*
X955935Y660884D01*
X955640Y660443D01*
X955537Y659922D01*
X955640Y659401D01*
X955935Y658960D01*
X956376Y658665D01*
X956897Y658562D01*
X957418Y658665D01*
X957859Y658960D01*
X958154Y659401D01*
X958257Y659922D01*
X958154Y660443D01*
X957859Y660884D01*
X957418Y661179D01*
X956897Y661282D01*
D02*
G37*
G36*
X979214Y660860D02*
X978694Y660757D01*
X978252Y660462D01*
X977957Y660021D01*
X977854Y659500D01*
X977957Y658979D01*
X978252Y658538D01*
X978694Y658243D01*
X979214Y658140D01*
X979735Y658243D01*
X980176Y658538D01*
X980471Y658979D01*
X980575Y659500D01*
X980471Y660021D01*
X980176Y660462D01*
X979735Y660757D01*
X979214Y660860D01*
D02*
G37*
G36*
X915268Y660203D02*
X914747Y660099D01*
X914306Y659804D01*
X914011Y659363D01*
X913907Y658843D01*
X914011Y658322D01*
X914306Y657881D01*
X914747Y657586D01*
X915268Y657482D01*
X915788Y657586D01*
X916230Y657881D01*
X916525Y658322D01*
X916628Y658843D01*
X916525Y659363D01*
X916230Y659804D01*
X915788Y660099D01*
X915268Y660203D01*
D02*
G37*
G36*
X994441Y659415D02*
X993920Y659312D01*
X993479Y659017D01*
X993184Y658576D01*
X993081Y658055D01*
X993184Y657535D01*
X993479Y657093D01*
X993920Y656798D01*
X994441Y656695D01*
X994961Y656798D01*
X995403Y657093D01*
X995698Y657535D01*
X995801Y658055D01*
X995698Y658576D01*
X995403Y659017D01*
X994961Y659312D01*
X994441Y659415D01*
D02*
G37*
G36*
X985000Y659360D02*
X984479Y659257D01*
X984038Y658962D01*
X983743Y658521D01*
X983640Y658000D01*
X983743Y657479D01*
X984038Y657038D01*
X984479Y656743D01*
X985000Y656640D01*
X985521Y656743D01*
X985962Y657038D01*
X986257Y657479D01*
X986360Y658000D01*
X986257Y658521D01*
X985962Y658962D01*
X985521Y659257D01*
X985000Y659360D01*
D02*
G37*
G36*
X904500D02*
X903979Y659257D01*
X903538Y658962D01*
X903243Y658521D01*
X903140Y658000D01*
X903243Y657479D01*
X903538Y657038D01*
X903979Y656743D01*
X904500Y656640D01*
X905021Y656743D01*
X905462Y657038D01*
X905757Y657479D01*
X905860Y658000D01*
X905757Y658521D01*
X905462Y658962D01*
X905021Y659257D01*
X904500Y659360D01*
D02*
G37*
G36*
X1050780Y658860D02*
X1050259Y658757D01*
X1049818Y658462D01*
X1049523Y658021D01*
X1049419Y657500D01*
X1049523Y656979D01*
X1049818Y656538D01*
X1050259Y656243D01*
X1050780Y656140D01*
X1051300Y656243D01*
X1051742Y656538D01*
X1052036Y656979D01*
X1052140Y657500D01*
X1052036Y658021D01*
X1051742Y658462D01*
X1051300Y658757D01*
X1050780Y658860D01*
D02*
G37*
G36*
X1067331Y657030D02*
X1066810Y656926D01*
X1066369Y656631D01*
X1066074Y656190D01*
X1065970Y655669D01*
X1066074Y655149D01*
X1066369Y654707D01*
X1066810Y654412D01*
X1067331Y654309D01*
X1067851Y654412D01*
X1068293Y654707D01*
X1068588Y655149D01*
X1068691Y655669D01*
X1068588Y656190D01*
X1068293Y656631D01*
X1067851Y656926D01*
X1067331Y657030D01*
D02*
G37*
G36*
X915268Y654681D02*
X914493Y654527D01*
X914261Y654371D01*
X915268Y653365D01*
X916274Y654371D01*
X916042Y654527D01*
X915268Y654681D01*
D02*
G37*
G36*
X994480Y656073D02*
X993960Y655969D01*
X993518Y655675D01*
X993223Y655233D01*
X993120Y654713D01*
X993223Y654192D01*
X993518Y653751D01*
X993960Y653456D01*
X994480Y653352D01*
X995001Y653456D01*
X995442Y653751D01*
X995737Y654192D01*
X995841Y654713D01*
X995737Y655233D01*
X995442Y655675D01*
X995001Y655969D01*
X994480Y656073D01*
D02*
G37*
G36*
X1050780Y655360D02*
X1050259Y655257D01*
X1049818Y654962D01*
X1049523Y654521D01*
X1049419Y654000D01*
X1049523Y653479D01*
X1049818Y653038D01*
X1050259Y652743D01*
X1050780Y652640D01*
X1051300Y652743D01*
X1051742Y653038D01*
X1052036Y653479D01*
X1052140Y654000D01*
X1052036Y654521D01*
X1051742Y654962D01*
X1051300Y655257D01*
X1050780Y655360D01*
D02*
G37*
G36*
X961000D02*
X960479Y655257D01*
X960038Y654962D01*
X959743Y654521D01*
X959640Y654000D01*
X959743Y653479D01*
X960038Y653038D01*
X960479Y652743D01*
X961000Y652640D01*
X961521Y652743D01*
X961962Y653038D01*
X962257Y653479D01*
X962360Y654000D01*
X962257Y654521D01*
X961962Y654962D01*
X961521Y655257D01*
X961000Y655360D01*
D02*
G37*
G36*
X954701Y655061D02*
X954180Y654958D01*
X953739Y654663D01*
X953444Y654221D01*
X953340Y653701D01*
X953444Y653180D01*
X953739Y652739D01*
X954180Y652444D01*
X954701Y652340D01*
X955221Y652444D01*
X955663Y652739D01*
X955958Y653180D01*
X956061Y653701D01*
X955958Y654221D01*
X955663Y654663D01*
X955221Y654958D01*
X954701Y655061D01*
D02*
G37*
G36*
X916982Y653664D02*
X915975Y652658D01*
X916982Y651651D01*
X917137Y651883D01*
X917291Y652658D01*
X917137Y653432D01*
X916982Y653664D01*
D02*
G37*
G36*
X913554Y653664D02*
X913399Y653432D01*
X913245Y652658D01*
X913399Y651883D01*
X913554Y651651D01*
X914561Y652658D01*
X913554Y653664D01*
D02*
G37*
G36*
X931114Y652476D02*
X930340Y652322D01*
X930108Y652167D01*
X931114Y651160D01*
X932121Y652167D01*
X931889Y652322D01*
X931114Y652476D01*
D02*
G37*
G36*
X915268Y651950D02*
X914261Y650944D01*
X914493Y650788D01*
X915268Y650634D01*
X916042Y650788D01*
X916274Y650944D01*
X915268Y651950D01*
D02*
G37*
G36*
X831933Y664785D02*
X830557Y664604D01*
X829275Y664073D01*
X828174Y663228D01*
X827329Y662127D01*
X826797Y660845D01*
X826616Y659469D01*
Y655532D01*
X826797Y654155D01*
X827329Y652873D01*
X828174Y651772D01*
X829275Y650927D01*
X830557Y650396D01*
X831933Y650215D01*
X833309Y650396D01*
X834591Y650927D01*
X835693Y651772D01*
X836537Y652873D01*
X837069Y654155D01*
X837250Y655532D01*
Y659469D01*
X837069Y660845D01*
X836537Y662127D01*
X835693Y663228D01*
X834591Y664073D01*
X833309Y664604D01*
X831933Y664785D01*
D02*
G37*
G36*
X994441Y652731D02*
X993920Y652627D01*
X993479Y652332D01*
X993184Y651891D01*
X993081Y651370D01*
X993184Y650849D01*
X993479Y650408D01*
X993920Y650113D01*
X994441Y650010D01*
X994961Y650113D01*
X995403Y650408D01*
X995698Y650849D01*
X995801Y651370D01*
X995698Y651891D01*
X995403Y652332D01*
X994961Y652627D01*
X994441Y652731D01*
D02*
G37*
G36*
X964000Y652360D02*
X963479Y652257D01*
X963038Y651962D01*
X962743Y651521D01*
X962640Y651000D01*
X962743Y650479D01*
X963038Y650038D01*
X963479Y649743D01*
X964000Y649640D01*
X964521Y649743D01*
X964962Y650038D01*
X965257Y650479D01*
X965360Y651000D01*
X965257Y651521D01*
X964962Y651962D01*
X964521Y652257D01*
X964000Y652360D01*
D02*
G37*
G36*
X932828Y651459D02*
X931822Y650453D01*
X932828Y649446D01*
X932983Y649679D01*
X933138Y650453D01*
X932983Y651227D01*
X932828Y651459D01*
D02*
G37*
G36*
X929401Y651459D02*
X929245Y651227D01*
X929091Y650453D01*
X929245Y649679D01*
X929401Y649446D01*
X930407Y650453D01*
X929401Y651459D01*
D02*
G37*
G36*
X931114Y649746D02*
X930108Y648739D01*
X930340Y648584D01*
X931114Y648430D01*
X931889Y648584D01*
X932121Y648739D01*
X931114Y649746D01*
D02*
G37*
G36*
X994441Y649388D02*
X993920Y649284D01*
X993479Y648989D01*
X993184Y648548D01*
X993081Y648028D01*
X993184Y647507D01*
X993479Y647066D01*
X993920Y646771D01*
X994441Y646667D01*
X994961Y646771D01*
X995403Y647066D01*
X995698Y647507D01*
X995801Y648028D01*
X995698Y648548D01*
X995403Y648989D01*
X994961Y649284D01*
X994441Y649388D01*
D02*
G37*
G36*
X904500Y648860D02*
X903979Y648757D01*
X903538Y648462D01*
X903243Y648021D01*
X903140Y647500D01*
X903243Y646979D01*
X903538Y646538D01*
X903979Y646243D01*
X904500Y646140D01*
X905021Y646243D01*
X905462Y646538D01*
X905757Y646979D01*
X905860Y647500D01*
X905757Y648021D01*
X905462Y648462D01*
X905021Y648757D01*
X904500Y648860D01*
D02*
G37*
G36*
X915268Y648703D02*
X914747Y648599D01*
X914306Y648305D01*
X914011Y647863D01*
X913907Y647342D01*
X914011Y646822D01*
X914306Y646381D01*
X914747Y646086D01*
X915268Y645982D01*
X915788Y646086D01*
X916230Y646381D01*
X916525Y646822D01*
X916628Y647342D01*
X916525Y647863D01*
X916230Y648305D01*
X915788Y648599D01*
X915268Y648703D01*
D02*
G37*
G36*
X988000Y648360D02*
X987479Y648257D01*
X987038Y647962D01*
X986743Y647521D01*
X986640Y647000D01*
X986743Y646479D01*
X987038Y646038D01*
X987479Y645743D01*
X988000Y645640D01*
X988521Y645743D01*
X988962Y646038D01*
X989257Y646479D01*
X989360Y647000D01*
X989257Y647521D01*
X988962Y647962D01*
X988521Y648257D01*
X988000Y648360D01*
D02*
G37*
G36*
X974000D02*
X973479Y648257D01*
X973038Y647962D01*
X972743Y647521D01*
X972640Y647000D01*
X972743Y646479D01*
X973038Y646038D01*
X973479Y645743D01*
X974000Y645640D01*
X974521Y645743D01*
X974962Y646038D01*
X975257Y646479D01*
X975360Y647000D01*
X975257Y647521D01*
X974962Y647962D01*
X974521Y648257D01*
X974000Y648360D01*
D02*
G37*
G36*
X970750D02*
X970229Y648257D01*
X969788Y647962D01*
X969493Y647521D01*
X969390Y647000D01*
X969493Y646479D01*
X969788Y646038D01*
X970229Y645743D01*
X970750Y645640D01*
X971271Y645743D01*
X971712Y646038D01*
X972007Y646479D01*
X972110Y647000D01*
X972007Y647521D01*
X971712Y647962D01*
X971271Y648257D01*
X970750Y648360D01*
D02*
G37*
G36*
X967500D02*
X966979Y648257D01*
X966538Y647962D01*
X966243Y647521D01*
X966140Y647000D01*
X966243Y646479D01*
X966538Y646038D01*
X966979Y645743D01*
X967500Y645640D01*
X968021Y645743D01*
X968462Y646038D01*
X968757Y646479D01*
X968860Y647000D01*
X968757Y647521D01*
X968462Y647962D01*
X968021Y648257D01*
X967500Y648360D01*
D02*
G37*
G36*
X931114Y646498D02*
X930594Y646395D01*
X930152Y646100D01*
X929858Y645658D01*
X929754Y645138D01*
X929858Y644617D01*
X930152Y644176D01*
X930594Y643881D01*
X931114Y643777D01*
X931635Y643881D01*
X932076Y644176D01*
X932371Y644617D01*
X932475Y645138D01*
X932371Y645658D01*
X932076Y646100D01*
X931635Y646395D01*
X931114Y646498D01*
D02*
G37*
G36*
X1071049Y646371D02*
X1070528Y646267D01*
X1070087Y645972D01*
X1069792Y645531D01*
X1069688Y645010D01*
X1069792Y644490D01*
X1070087Y644048D01*
X1070528Y643753D01*
X1071049Y643650D01*
X1071569Y643753D01*
X1072011Y644048D01*
X1072306Y644490D01*
X1072409Y645010D01*
X1072306Y645531D01*
X1072011Y645972D01*
X1071569Y646267D01*
X1071049Y646371D01*
D02*
G37*
G36*
X994441Y646045D02*
X993920Y645942D01*
X993479Y645647D01*
X993184Y645206D01*
X993081Y644685D01*
X993184Y644164D01*
X993479Y643723D01*
X993920Y643428D01*
X994441Y643325D01*
X994961Y643428D01*
X995403Y643723D01*
X995698Y644164D01*
X995801Y644685D01*
X995698Y645206D01*
X995403Y645647D01*
X994961Y645942D01*
X994441Y646045D01*
D02*
G37*
G36*
X1047529Y643401D02*
X1047009Y643298D01*
X1046567Y643003D01*
X1046272Y642561D01*
X1046169Y642041D01*
X1046272Y641520D01*
X1046567Y641079D01*
X1047009Y640784D01*
X1047529Y640681D01*
X1048050Y640784D01*
X1048491Y641079D01*
X1048786Y641520D01*
X1048890Y642041D01*
X1048786Y642561D01*
X1048491Y643003D01*
X1048050Y643298D01*
X1047529Y643401D01*
D02*
G37*
G36*
X1080907Y641775D02*
X1080132Y641621D01*
X1079900Y641466D01*
X1080907Y640459D01*
X1081913Y641466D01*
X1081681Y641621D01*
X1080907Y641775D01*
D02*
G37*
G36*
X994441Y642703D02*
X993920Y642599D01*
X993479Y642305D01*
X993184Y641863D01*
X993081Y641342D01*
X993184Y640822D01*
X993479Y640381D01*
X993920Y640086D01*
X994441Y639982D01*
X994961Y640086D01*
X995403Y640381D01*
X995698Y640822D01*
X995801Y641342D01*
X995698Y641863D01*
X995403Y642305D01*
X994961Y642599D01*
X994441Y642703D01*
D02*
G37*
G36*
X1082620Y640758D02*
X1081614Y639752D01*
X1082620Y638745D01*
X1082776Y638977D01*
X1082930Y639752D01*
X1082776Y640526D01*
X1082620Y640758D01*
D02*
G37*
G36*
X1079193Y640758D02*
X1079037Y640526D01*
X1078883Y639752D01*
X1079037Y638977D01*
X1079193Y638745D01*
X1080200Y639752D01*
X1079193Y640758D01*
D02*
G37*
G36*
X1080907Y639045D02*
X1079900Y638038D01*
X1080132Y637883D01*
X1080907Y637729D01*
X1081681Y637883D01*
X1081913Y638038D01*
X1080907Y639045D01*
D02*
G37*
G36*
X950630Y640360D02*
X950109Y640257D01*
X949668Y639962D01*
X949373Y639521D01*
X949269Y639000D01*
X949373Y638479D01*
X949668Y638038D01*
X950109Y637743D01*
X950630Y637640D01*
X951151Y637743D01*
X951592Y638038D01*
X951887Y638479D01*
X951990Y639000D01*
X951887Y639521D01*
X951592Y639962D01*
X951151Y640257D01*
X950630Y640360D01*
D02*
G37*
G36*
X908524Y640297D02*
X908003Y640194D01*
X907562Y639899D01*
X907267Y639458D01*
X907163Y638937D01*
X907267Y638416D01*
X907562Y637975D01*
X908003Y637680D01*
X908524Y637577D01*
X909044Y637680D01*
X909486Y637975D01*
X909781Y638416D01*
X909884Y638937D01*
X909781Y639458D01*
X909486Y639899D01*
X909044Y640194D01*
X908524Y640297D01*
D02*
G37*
G36*
X994441Y639360D02*
X993920Y639257D01*
X993479Y638962D01*
X993184Y638521D01*
X993081Y638000D01*
X993184Y637479D01*
X993479Y637038D01*
X993920Y636743D01*
X994441Y636640D01*
X994961Y636743D01*
X995403Y637038D01*
X995698Y637479D01*
X995801Y638000D01*
X995698Y638521D01*
X995403Y638962D01*
X994961Y639257D01*
X994441Y639360D01*
D02*
G37*
G36*
X1054000Y639313D02*
X1053479Y639210D01*
X1053038Y638915D01*
X1052743Y638473D01*
X1052640Y637953D01*
X1052743Y637432D01*
X1053038Y636991D01*
X1053479Y636696D01*
X1054000Y636592D01*
X1054521Y636696D01*
X1054962Y636991D01*
X1055257Y637432D01*
X1055360Y637953D01*
X1055257Y638473D01*
X1054962Y638915D01*
X1054521Y639210D01*
X1054000Y639313D01*
D02*
G37*
G36*
X931854Y635376D02*
X931334Y635273D01*
X930892Y634978D01*
X930875Y634952D01*
X930274D01*
X930257Y634978D01*
X929816Y635273D01*
X929295Y635376D01*
X928775Y635273D01*
X928333Y634978D01*
X928038Y634536D01*
X927935Y634016D01*
X928038Y633495D01*
X928333Y633054D01*
X928775Y632759D01*
X929295Y632655D01*
X929816Y632759D01*
X930257Y633054D01*
X930274Y633079D01*
X930875D01*
X930892Y633054D01*
X931334Y632759D01*
X931854Y632655D01*
X932375Y632759D01*
X932816Y633054D01*
X933111Y633495D01*
X933215Y634016D01*
X933111Y634536D01*
X932816Y634978D01*
X932375Y635273D01*
X931854Y635376D01*
D02*
G37*
G36*
X979859Y637146D02*
X979338Y637043D01*
X978897Y636748D01*
X978602Y636306D01*
X978498Y635786D01*
X978602Y635265D01*
X978897Y634824D01*
X979338Y634529D01*
X979859Y634425D01*
X980379Y634529D01*
X980820Y634824D01*
X981115Y635265D01*
X981219Y635786D01*
X981115Y636306D01*
X980820Y636748D01*
X980379Y637043D01*
X979859Y637146D01*
D02*
G37*
G36*
X994441Y636018D02*
X993920Y635914D01*
X993479Y635619D01*
X993184Y635178D01*
X993081Y634657D01*
X993184Y634137D01*
X993479Y633696D01*
X993920Y633401D01*
X994441Y633297D01*
X994961Y633401D01*
X995403Y633696D01*
X995698Y634137D01*
X995801Y634657D01*
X995698Y635178D01*
X995403Y635619D01*
X994961Y635914D01*
X994441Y636018D01*
D02*
G37*
G36*
X1080907Y635797D02*
X1080386Y635694D01*
X1079945Y635399D01*
X1079650Y634957D01*
X1079546Y634437D01*
X1079650Y633916D01*
X1079945Y633475D01*
X1080386Y633180D01*
X1080907Y633076D01*
X1081427Y633180D01*
X1081869Y633475D01*
X1082164Y633916D01*
X1082267Y634437D01*
X1082164Y634957D01*
X1081869Y635399D01*
X1081427Y635694D01*
X1080907Y635797D01*
D02*
G37*
G36*
X1054130Y635368D02*
X1053609Y635265D01*
X1053168Y634970D01*
X1052873Y634528D01*
X1052769Y634008D01*
X1052873Y633487D01*
X1053168Y633046D01*
X1053609Y632751D01*
X1054130Y632648D01*
X1054650Y632751D01*
X1055092Y633046D01*
X1055387Y633487D01*
X1055490Y634008D01*
X1055387Y634528D01*
X1055092Y634970D01*
X1054650Y635265D01*
X1054130Y635368D01*
D02*
G37*
G36*
X1038500Y633360D02*
X1037979Y633257D01*
X1037538Y632962D01*
X1037243Y632521D01*
X1037140Y632000D01*
X1037243Y631479D01*
X1037538Y631038D01*
X1037979Y630743D01*
X1038500Y630640D01*
X1039021Y630743D01*
X1039462Y631038D01*
X1039757Y631479D01*
X1039860Y632000D01*
X1039757Y632521D01*
X1039462Y632962D01*
X1039021Y633257D01*
X1038500Y633360D01*
D02*
G37*
G36*
X1044157Y633204D02*
X1043636Y633100D01*
X1043195Y632805D01*
X1042900Y632364D01*
X1042796Y631843D01*
X1042900Y631323D01*
X1043195Y630881D01*
X1043636Y630586D01*
X1044157Y630483D01*
X1044677Y630586D01*
X1045119Y630881D01*
X1045414Y631323D01*
X1045517Y631843D01*
X1045414Y632364D01*
X1045119Y632805D01*
X1044677Y633100D01*
X1044157Y633204D01*
D02*
G37*
G36*
X980405Y632992D02*
X979885Y632888D01*
X979443Y632593D01*
X979149Y632152D01*
X979045Y631631D01*
X979149Y631111D01*
X979443Y630669D01*
X979885Y630374D01*
X980405Y630271D01*
X980926Y630374D01*
X981367Y630669D01*
X981662Y631111D01*
X981766Y631631D01*
X981662Y632152D01*
X981367Y632593D01*
X980926Y632888D01*
X980405Y632992D01*
D02*
G37*
G36*
X994441Y632675D02*
X993920Y632572D01*
X993479Y632277D01*
X993184Y631836D01*
X993081Y631315D01*
X993184Y630794D01*
X993479Y630353D01*
X993920Y630058D01*
X994441Y629955D01*
X994961Y630058D01*
X995403Y630353D01*
X995698Y630794D01*
X995801Y631315D01*
X995698Y631836D01*
X995403Y632277D01*
X994961Y632572D01*
X994441Y632675D01*
D02*
G37*
G36*
X1066992Y631241D02*
X1066472Y631138D01*
X1066031Y630843D01*
X1065736Y630402D01*
X1065632Y629881D01*
X1065736Y629360D01*
X1066031Y628919D01*
X1066472Y628624D01*
X1066992Y628521D01*
X1067513Y628624D01*
X1067954Y628919D01*
X1068249Y629360D01*
X1068353Y629881D01*
X1068249Y630402D01*
X1067954Y630843D01*
X1067513Y631138D01*
X1066992Y631241D01*
D02*
G37*
G36*
X908524Y630455D02*
X908003Y630351D01*
X907562Y630056D01*
X907267Y629615D01*
X907163Y629095D01*
X907267Y628574D01*
X907562Y628132D01*
X908003Y627838D01*
X908524Y627734D01*
X909044Y627838D01*
X909486Y628132D01*
X909781Y628574D01*
X909884Y629095D01*
X909781Y629615D01*
X909486Y630056D01*
X909044Y630351D01*
X908524Y630455D01*
D02*
G37*
G36*
X1014500Y629360D02*
X1013979Y629257D01*
X1013538Y628962D01*
X1013243Y628521D01*
X1013140Y628000D01*
X1013243Y627479D01*
X1013538Y627038D01*
X1013979Y626743D01*
X1014500Y626640D01*
X1015021Y626743D01*
X1015462Y627038D01*
X1015757Y627479D01*
X1015860Y628000D01*
X1015757Y628521D01*
X1015462Y628962D01*
X1015021Y629257D01*
X1014500Y629360D01*
D02*
G37*
G36*
X994441Y629333D02*
X993920Y629229D01*
X993479Y628934D01*
X993184Y628493D01*
X993081Y627972D01*
X993184Y627452D01*
X993479Y627010D01*
X993920Y626716D01*
X994441Y626612D01*
X994961Y626716D01*
X995403Y627010D01*
X995698Y627452D01*
X995801Y627972D01*
X995698Y628493D01*
X995403Y628934D01*
X994961Y629229D01*
X994441Y629333D01*
D02*
G37*
G36*
X854855Y628567D02*
X854334Y628463D01*
X853893Y628168D01*
X853598Y627727D01*
X853494Y627206D01*
X853598Y626686D01*
X853893Y626244D01*
X854334Y625949D01*
X854855Y625846D01*
X855375Y625949D01*
X855817Y626244D01*
X856112Y626686D01*
X856215Y627206D01*
X856112Y627727D01*
X855817Y628168D01*
X855375Y628463D01*
X854855Y628567D01*
D02*
G37*
G36*
X964000Y626681D02*
X963479Y626578D01*
X963038Y626283D01*
X962743Y625842D01*
X962640Y625321D01*
X962743Y624800D01*
X963038Y624359D01*
X963479Y624064D01*
X964000Y623960D01*
X964521Y624064D01*
X964962Y624359D01*
X965257Y624800D01*
X965360Y625321D01*
X965257Y625842D01*
X964962Y626283D01*
X964521Y626578D01*
X964000Y626681D01*
D02*
G37*
G36*
X1097055Y626360D02*
X1096534Y626257D01*
X1096093Y625962D01*
X1095798Y625521D01*
X1095694Y625000D01*
X1095798Y624479D01*
X1096093Y624038D01*
X1096534Y623743D01*
X1097055Y623640D01*
X1097575Y623743D01*
X1098017Y624038D01*
X1098312Y624479D01*
X1098415Y625000D01*
X1098312Y625521D01*
X1098017Y625962D01*
X1097575Y626257D01*
X1097055Y626360D01*
D02*
G37*
G36*
X1088000D02*
X1087479Y626257D01*
X1087038Y625962D01*
X1086743Y625521D01*
X1086640Y625000D01*
X1086743Y624479D01*
X1087038Y624038D01*
X1087479Y623743D01*
X1088000Y623640D01*
X1088521Y623743D01*
X1088962Y624038D01*
X1089257Y624479D01*
X1089360Y625000D01*
X1089257Y625521D01*
X1088962Y625962D01*
X1088521Y626257D01*
X1088000Y626360D01*
D02*
G37*
G36*
X994441Y625990D02*
X993920Y625887D01*
X993479Y625592D01*
X993184Y625150D01*
X993081Y624630D01*
X993184Y624109D01*
X993479Y623668D01*
X993920Y623373D01*
X994441Y623270D01*
X994961Y623373D01*
X995403Y623668D01*
X995698Y624109D01*
X995801Y624630D01*
X995698Y625150D01*
X995403Y625592D01*
X994961Y625887D01*
X994441Y625990D01*
D02*
G37*
G36*
X934518Y625586D02*
X933997Y625482D01*
X933556Y625187D01*
X933261Y624746D01*
X933157Y624226D01*
X933261Y623705D01*
X933556Y623264D01*
X933997Y622969D01*
X934518Y622865D01*
X935038Y622969D01*
X935480Y623264D01*
X935775Y623705D01*
X935878Y624226D01*
X935775Y624746D01*
X935480Y625187D01*
X935038Y625482D01*
X934518Y625586D01*
D02*
G37*
G36*
X850138Y625132D02*
X849617Y625029D01*
X849176Y624734D01*
X848881Y624292D01*
X848777Y623772D01*
X848881Y623251D01*
X849176Y622810D01*
X849617Y622515D01*
X850138Y622411D01*
X850658Y622515D01*
X851100Y622810D01*
X851395Y623251D01*
X851498Y623772D01*
X851395Y624292D01*
X851100Y624734D01*
X850658Y625029D01*
X850138Y625132D01*
D02*
G37*
G36*
X861000Y625123D02*
X860479Y625019D01*
X860038Y624724D01*
X859743Y624283D01*
X859640Y623763D01*
X859743Y623242D01*
X860038Y622801D01*
X860479Y622506D01*
X861000Y622402D01*
X861521Y622506D01*
X861962Y622801D01*
X862257Y623242D01*
X862360Y623763D01*
X862257Y624283D01*
X861962Y624724D01*
X861521Y625019D01*
X861000Y625123D01*
D02*
G37*
G36*
X1044157Y623749D02*
X1043636Y623645D01*
X1043195Y623351D01*
X1042900Y622909D01*
X1042796Y622389D01*
X1042900Y621868D01*
X1043195Y621427D01*
X1043636Y621132D01*
X1044157Y621028D01*
X1044677Y621132D01*
X1045119Y621427D01*
X1045414Y621868D01*
X1045517Y622389D01*
X1045414Y622909D01*
X1045119Y623351D01*
X1044677Y623645D01*
X1044157Y623749D01*
D02*
G37*
G36*
X1067016Y623565D02*
X1066495Y623462D01*
X1066054Y623167D01*
X1065759Y622725D01*
X1065655Y622205D01*
X1065759Y621684D01*
X1066054Y621243D01*
X1066495Y620948D01*
X1067016Y620844D01*
X1067536Y620948D01*
X1067978Y621243D01*
X1068273Y621684D01*
X1068376Y622205D01*
X1068273Y622725D01*
X1067978Y623167D01*
X1067536Y623462D01*
X1067016Y623565D01*
D02*
G37*
G36*
X964000Y623360D02*
X963479Y623257D01*
X963038Y622962D01*
X962743Y622521D01*
X962640Y622000D01*
X962743Y621479D01*
X963038Y621038D01*
X963479Y620743D01*
X964000Y620640D01*
X964521Y620743D01*
X964962Y621038D01*
X965257Y621479D01*
X965360Y622000D01*
X965257Y622521D01*
X964962Y622962D01*
X964521Y623257D01*
X964000Y623360D01*
D02*
G37*
G36*
X994441Y622648D02*
X993920Y622544D01*
X993479Y622249D01*
X993184Y621808D01*
X993081Y621287D01*
X993184Y620767D01*
X993479Y620326D01*
X993920Y620031D01*
X994441Y619927D01*
X994961Y620031D01*
X995403Y620326D01*
X995698Y620767D01*
X995801Y621287D01*
X995698Y621808D01*
X995403Y622249D01*
X994961Y622544D01*
X994441Y622648D01*
D02*
G37*
G36*
X937046Y621597D02*
X936525Y621493D01*
X936084Y621198D01*
X935789Y620757D01*
X935686Y620236D01*
X935789Y619716D01*
X936084Y619274D01*
X936525Y618979D01*
X937046Y618876D01*
X937566Y618979D01*
X938008Y619274D01*
X938303Y619716D01*
X938406Y620236D01*
X938303Y620757D01*
X938008Y621198D01*
X937566Y621493D01*
X937046Y621597D01*
D02*
G37*
G36*
X1082200Y621099D02*
X1081679Y620995D01*
X1081238Y620701D01*
X1080943Y620259D01*
X1080839Y619739D01*
X1080943Y619218D01*
X1081238Y618777D01*
X1081679Y618482D01*
X1082200Y618378D01*
X1082720Y618482D01*
X1083162Y618777D01*
X1083456Y619218D01*
X1083560Y619739D01*
X1083456Y620259D01*
X1083162Y620701D01*
X1082720Y620995D01*
X1082200Y621099D01*
D02*
G37*
G36*
X1066921Y619628D02*
X1066401Y619525D01*
X1065959Y619230D01*
X1065664Y618788D01*
X1065561Y618268D01*
X1065664Y617747D01*
X1065959Y617306D01*
X1066401Y617011D01*
X1066921Y616907D01*
X1067442Y617011D01*
X1067883Y617306D01*
X1068178Y617747D01*
X1068282Y618268D01*
X1068178Y618788D01*
X1067883Y619230D01*
X1067442Y619525D01*
X1066921Y619628D01*
D02*
G37*
G36*
X1115000Y618329D02*
X1114479Y618225D01*
X1114038Y617930D01*
X1113743Y617489D01*
X1113640Y616968D01*
X1113743Y616448D01*
X1114038Y616007D01*
X1114479Y615712D01*
X1115000Y615608D01*
X1115521Y615712D01*
X1115962Y616007D01*
X1116257Y616448D01*
X1116360Y616968D01*
X1116257Y617489D01*
X1115962Y617930D01*
X1115521Y618225D01*
X1115000Y618329D01*
D02*
G37*
G36*
X854862Y618045D02*
X854342Y617942D01*
X853900Y617647D01*
X853605Y617206D01*
X853502Y616685D01*
X853605Y616164D01*
X853900Y615723D01*
X854342Y615428D01*
X854862Y615325D01*
X855383Y615428D01*
X855824Y615723D01*
X856119Y616164D01*
X856223Y616685D01*
X856119Y617206D01*
X855824Y617647D01*
X855383Y617942D01*
X854862Y618045D01*
D02*
G37*
G36*
X1082118Y616346D02*
X1081344Y616192D01*
X1081111Y616037D01*
X1082118Y615030D01*
X1083125Y616037D01*
X1082892Y616192D01*
X1082118Y616346D01*
D02*
G37*
G36*
X1083832Y615330D02*
X1082825Y614323D01*
X1083832Y613316D01*
X1083987Y613549D01*
X1084141Y614323D01*
X1083987Y615097D01*
X1083832Y615330D01*
D02*
G37*
G36*
X1080404Y615330D02*
X1080249Y615097D01*
X1080095Y614323D01*
X1080249Y613549D01*
X1080404Y613316D01*
X1081411Y614323D01*
X1080404Y615330D01*
D02*
G37*
G36*
X1049907Y615481D02*
X1049386Y615377D01*
X1048945Y615082D01*
X1048650Y614641D01*
X1048546Y614120D01*
X1048650Y613600D01*
X1048945Y613158D01*
X1049386Y612863D01*
X1049907Y612760D01*
X1050427Y612863D01*
X1050869Y613158D01*
X1051164Y613600D01*
X1051267Y614120D01*
X1051164Y614641D01*
X1050869Y615082D01*
X1050427Y615377D01*
X1049907Y615481D01*
D02*
G37*
G36*
X1032657D02*
X1032136Y615377D01*
X1031695Y615082D01*
X1031400Y614641D01*
X1031296Y614120D01*
X1031400Y613600D01*
X1031695Y613158D01*
X1032136Y612863D01*
X1032657Y612760D01*
X1033177Y612863D01*
X1033619Y613158D01*
X1033914Y613600D01*
X1034017Y614120D01*
X1033914Y614641D01*
X1033619Y615082D01*
X1033177Y615377D01*
X1032657Y615481D01*
D02*
G37*
G36*
X986657D02*
X986136Y615377D01*
X985695Y615082D01*
X985400Y614641D01*
X985296Y614120D01*
X985400Y613600D01*
X985695Y613158D01*
X986136Y612863D01*
X986657Y612760D01*
X987177Y612863D01*
X987619Y613158D01*
X987914Y613600D01*
X988017Y614120D01*
X987914Y614641D01*
X987619Y615082D01*
X987177Y615377D01*
X986657Y615481D01*
D02*
G37*
G36*
X1082118Y613616D02*
X1081111Y612609D01*
X1081344Y612454D01*
X1082118Y612300D01*
X1082892Y612454D01*
X1083125Y612609D01*
X1082118Y613616D01*
D02*
G37*
G36*
X969091Y612070D02*
X968571Y611966D01*
X968129Y611671D01*
X967834Y611230D01*
X967731Y610709D01*
X967834Y610189D01*
X968129Y609748D01*
X968571Y609453D01*
X969091Y609349D01*
X969612Y609453D01*
X970053Y609748D01*
X970348Y610189D01*
X970452Y610709D01*
X970348Y611230D01*
X970053Y611671D01*
X969612Y611966D01*
X969091Y612070D01*
D02*
G37*
G36*
X1111000Y611860D02*
X1110479Y611757D01*
X1110038Y611462D01*
X1109743Y611021D01*
X1109640Y610500D01*
X1109743Y609979D01*
X1110038Y609538D01*
X1110479Y609243D01*
X1111000Y609140D01*
X1111521Y609243D01*
X1111962Y609538D01*
X1112257Y609979D01*
X1112360Y610500D01*
X1112257Y611021D01*
X1111962Y611462D01*
X1111521Y611757D01*
X1111000Y611860D01*
D02*
G37*
G36*
X1017500Y610860D02*
X1016979Y610757D01*
X1016538Y610462D01*
X1016243Y610021D01*
X1016140Y609500D01*
X1016243Y608979D01*
X1016538Y608538D01*
X1016979Y608243D01*
X1017500Y608140D01*
X1018021Y608243D01*
X1018462Y608538D01*
X1018757Y608979D01*
X1018860Y609500D01*
X1018757Y610021D01*
X1018462Y610462D01*
X1018021Y610757D01*
X1017500Y610860D01*
D02*
G37*
G36*
X1012500D02*
X1011979Y610757D01*
X1011538Y610462D01*
X1011243Y610021D01*
X1011140Y609500D01*
X1011243Y608979D01*
X1011538Y608538D01*
X1011979Y608243D01*
X1012500Y608140D01*
X1013021Y608243D01*
X1013462Y608538D01*
X1013757Y608979D01*
X1013860Y609500D01*
X1013757Y610021D01*
X1013462Y610462D01*
X1013021Y610757D01*
X1012500Y610860D01*
D02*
G37*
G36*
X960640Y610101D02*
X960119Y609998D01*
X959678Y609703D01*
X959383Y609262D01*
X959279Y608741D01*
X959383Y608220D01*
X959678Y607779D01*
X960119Y607484D01*
X960640Y607381D01*
X961160Y607484D01*
X961602Y607779D01*
X961897Y608220D01*
X962000Y608741D01*
X961897Y609262D01*
X961602Y609703D01*
X961160Y609998D01*
X960640Y610101D01*
D02*
G37*
G36*
X903477Y608851D02*
X902956Y608748D01*
X902515Y608453D01*
X902220Y608012D01*
X902117Y607491D01*
X902220Y606970D01*
X902515Y606529D01*
X902956Y606234D01*
X903477Y606131D01*
X903998Y606234D01*
X904439Y606529D01*
X904734Y606970D01*
X904838Y607491D01*
X904734Y608012D01*
X904439Y608453D01*
X903998Y608748D01*
X903477Y608851D01*
D02*
G37*
G36*
X1067016Y608211D02*
X1066495Y608107D01*
X1066054Y607812D01*
X1065759Y607371D01*
X1065655Y606850D01*
X1065759Y606330D01*
X1066054Y605889D01*
X1066495Y605593D01*
X1067016Y605490D01*
X1067536Y605593D01*
X1067978Y605889D01*
X1068273Y606330D01*
X1068376Y606850D01*
X1068273Y607371D01*
X1067978Y607812D01*
X1067536Y608107D01*
X1067016Y608211D01*
D02*
G37*
G36*
X1077366Y606511D02*
X1076592Y606357D01*
X1076359Y606202D01*
X1077366Y605195D01*
X1078373Y606202D01*
X1078140Y606357D01*
X1077366Y606511D01*
D02*
G37*
G36*
X1121500Y607002D02*
X1120979Y606899D01*
X1120538Y606604D01*
X1120243Y606162D01*
X1120140Y605642D01*
X1120243Y605121D01*
X1120538Y604680D01*
X1120979Y604385D01*
X1121500Y604281D01*
X1122021Y604385D01*
X1122462Y604680D01*
X1122757Y605121D01*
X1122860Y605642D01*
X1122757Y606162D01*
X1122462Y606604D01*
X1122021Y606899D01*
X1121500Y607002D01*
D02*
G37*
G36*
X1079080Y605495D02*
X1078073Y604488D01*
X1079080Y603481D01*
X1079235Y603714D01*
X1079389Y604488D01*
X1079235Y605262D01*
X1079080Y605495D01*
D02*
G37*
G36*
X1075652Y605495D02*
X1075497Y605262D01*
X1075343Y604488D01*
X1075497Y603714D01*
X1075652Y603481D01*
X1076659Y604488D01*
X1075652Y605495D01*
D02*
G37*
G36*
X1015407Y605981D02*
X1014886Y605877D01*
X1014445Y605582D01*
X1014150Y605141D01*
X1014046Y604620D01*
X1014150Y604100D01*
X1014445Y603658D01*
X1014886Y603363D01*
X1015407Y603260D01*
X1015927Y603363D01*
X1016369Y603658D01*
X1016664Y604100D01*
X1016767Y604620D01*
X1016664Y605141D01*
X1016369Y605582D01*
X1015927Y605877D01*
X1015407Y605981D01*
D02*
G37*
G36*
X980907D02*
X980386Y605877D01*
X979945Y605582D01*
X979650Y605141D01*
X979546Y604620D01*
X979650Y604100D01*
X979945Y603658D01*
X980386Y603363D01*
X980907Y603260D01*
X981427Y603363D01*
X981869Y603658D01*
X982164Y604100D01*
X982267Y604620D01*
X982164Y605141D01*
X981869Y605582D01*
X981427Y605877D01*
X980907Y605981D01*
D02*
G37*
G36*
X1038407Y605860D02*
X1037886Y605757D01*
X1037445Y605462D01*
X1037150Y605021D01*
X1037046Y604500D01*
X1037150Y603979D01*
X1037445Y603538D01*
X1037886Y603243D01*
X1038407Y603140D01*
X1038927Y603243D01*
X1039369Y603538D01*
X1039664Y603979D01*
X1039767Y604500D01*
X1039664Y605021D01*
X1039369Y605462D01*
X1038927Y605757D01*
X1038407Y605860D01*
D02*
G37*
G36*
X969407D02*
X968886Y605757D01*
X968445Y605462D01*
X968150Y605021D01*
X968046Y604500D01*
X968150Y603979D01*
X968445Y603538D01*
X968886Y603243D01*
X969407Y603140D01*
X969927Y603243D01*
X970369Y603538D01*
X970664Y603979D01*
X970767Y604500D01*
X970664Y605021D01*
X970369Y605462D01*
X969927Y605757D01*
X969407Y605860D01*
D02*
G37*
G36*
X954862Y605203D02*
X954342Y605099D01*
X953900Y604805D01*
X953605Y604363D01*
X953502Y603842D01*
X953605Y603322D01*
X953900Y602881D01*
X954342Y602586D01*
X954862Y602482D01*
X955383Y602586D01*
X955824Y602881D01*
X956119Y603322D01*
X956223Y603842D01*
X956119Y604363D01*
X955824Y604805D01*
X955383Y605099D01*
X954862Y605203D01*
D02*
G37*
G36*
X1077366Y603781D02*
X1076359Y602774D01*
X1076592Y602619D01*
X1077366Y602465D01*
X1078140Y602619D01*
X1078373Y602774D01*
X1077366Y603781D01*
D02*
G37*
G36*
X937853Y603802D02*
X937332Y603698D01*
X936891Y603403D01*
X936596Y602962D01*
X936492Y602441D01*
X936596Y601921D01*
X936891Y601479D01*
X937332Y601185D01*
X937853Y601081D01*
X938373Y601185D01*
X938815Y601479D01*
X939109Y601921D01*
X939213Y602441D01*
X939109Y602962D01*
X938815Y603403D01*
X938373Y603698D01*
X937853Y603802D01*
D02*
G37*
G36*
X831933Y614785D02*
X830557Y614604D01*
X829275Y614073D01*
X828174Y613228D01*
X827329Y612127D01*
X826797Y610845D01*
X826616Y609469D01*
Y605532D01*
X826797Y604155D01*
X827329Y602873D01*
X828174Y601772D01*
X829275Y600927D01*
X830557Y600396D01*
X831933Y600215D01*
X833309Y600396D01*
X834591Y600927D01*
X835693Y601772D01*
X836537Y602873D01*
X837069Y604155D01*
X837250Y605532D01*
Y609469D01*
X837069Y610845D01*
X836537Y612127D01*
X835693Y613228D01*
X834591Y614073D01*
X833309Y614604D01*
X831933Y614785D01*
D02*
G37*
G36*
X1051371Y601001D02*
X1050850Y600898D01*
X1050409Y600603D01*
X1050114Y600162D01*
X1050010Y599641D01*
X1050114Y599120D01*
X1050409Y598679D01*
X1050850Y598384D01*
X1051371Y598280D01*
X1051892Y598384D01*
X1052333Y598679D01*
X1052628Y599120D01*
X1052731Y599641D01*
X1052628Y600162D01*
X1052333Y600603D01*
X1051892Y600898D01*
X1051371Y601001D01*
D02*
G37*
G36*
X1032452Y599860D02*
X1031931Y599757D01*
X1031489Y599462D01*
X1031195Y599021D01*
X1031091Y598500D01*
X1031195Y597979D01*
X1031489Y597538D01*
X1031931Y597243D01*
X1032452Y597140D01*
X1032972Y597243D01*
X1033413Y597538D01*
X1033708Y597979D01*
X1033812Y598500D01*
X1033708Y599021D01*
X1033413Y599462D01*
X1032972Y599757D01*
X1032452Y599860D01*
D02*
G37*
G36*
X1028500D02*
X1027979Y599757D01*
X1027538Y599462D01*
X1027243Y599021D01*
X1027140Y598500D01*
X1027243Y597979D01*
X1027538Y597538D01*
X1027979Y597243D01*
X1028500Y597140D01*
X1029021Y597243D01*
X1029462Y597538D01*
X1029757Y597979D01*
X1029860Y598500D01*
X1029757Y599021D01*
X1029462Y599462D01*
X1029021Y599757D01*
X1028500Y599860D01*
D02*
G37*
G36*
X1024713D02*
X1024192Y599757D01*
X1023751Y599462D01*
X1023456Y599021D01*
X1023353Y598500D01*
X1023456Y597979D01*
X1023751Y597538D01*
X1024192Y597243D01*
X1024713Y597140D01*
X1025234Y597243D01*
X1025675Y597538D01*
X1025970Y597979D01*
X1026073Y598500D01*
X1025970Y599021D01*
X1025675Y599462D01*
X1025234Y599757D01*
X1024713Y599860D01*
D02*
G37*
G36*
X1020595D02*
X1020074Y599757D01*
X1019633Y599462D01*
X1019338Y599021D01*
X1019234Y598500D01*
X1019338Y597979D01*
X1019633Y597538D01*
X1020074Y597243D01*
X1020595Y597140D01*
X1021115Y597243D01*
X1021556Y597538D01*
X1021851Y597979D01*
X1021955Y598500D01*
X1021851Y599021D01*
X1021556Y599462D01*
X1021115Y599757D01*
X1020595Y599860D01*
D02*
G37*
G36*
X1008784D02*
X1008263Y599757D01*
X1007821Y599462D01*
X1007527Y599021D01*
X1007423Y598500D01*
X1007527Y597979D01*
X1007821Y597538D01*
X1008263Y597243D01*
X1008784Y597140D01*
X1009304Y597243D01*
X1009745Y597538D01*
X1010040Y597979D01*
X1010144Y598500D01*
X1010040Y599021D01*
X1009745Y599462D01*
X1009304Y599757D01*
X1008784Y599860D01*
D02*
G37*
G36*
X1005000D02*
X1004479Y599757D01*
X1004038Y599462D01*
X1003743Y599021D01*
X1003640Y598500D01*
X1003743Y597979D01*
X1004038Y597538D01*
X1004479Y597243D01*
X1005000Y597140D01*
X1005521Y597243D01*
X1005962Y597538D01*
X1006257Y597979D01*
X1006360Y598500D01*
X1006257Y599021D01*
X1005962Y599462D01*
X1005521Y599757D01*
X1005000Y599860D01*
D02*
G37*
G36*
X1000909D02*
X1000389Y599757D01*
X999947Y599462D01*
X999653Y599021D01*
X999549Y598500D01*
X999653Y597979D01*
X999947Y597538D01*
X1000389Y597243D01*
X1000909Y597140D01*
X1001430Y597243D01*
X1001871Y597538D01*
X1002166Y597979D01*
X1002270Y598500D01*
X1002166Y599021D01*
X1001871Y599462D01*
X1001430Y599757D01*
X1000909Y599860D01*
D02*
G37*
G36*
X996972D02*
X996452Y599757D01*
X996010Y599462D01*
X995716Y599021D01*
X995612Y598500D01*
X995716Y597979D01*
X996010Y597538D01*
X996452Y597243D01*
X996972Y597140D01*
X997493Y597243D01*
X997934Y597538D01*
X998229Y597979D01*
X998333Y598500D01*
X998229Y599021D01*
X997934Y599462D01*
X997493Y599757D01*
X996972Y599860D01*
D02*
G37*
G36*
X993035D02*
X992515Y599757D01*
X992074Y599462D01*
X991779Y599021D01*
X991675Y598500D01*
X991779Y597979D01*
X992074Y597538D01*
X992515Y597243D01*
X993035Y597140D01*
X993556Y597243D01*
X993997Y597538D01*
X994292Y597979D01*
X994396Y598500D01*
X994292Y599021D01*
X993997Y599462D01*
X993556Y599757D01*
X993035Y599860D01*
D02*
G37*
G36*
X989098D02*
X988578Y599757D01*
X988136Y599462D01*
X987842Y599021D01*
X987738Y598500D01*
X987842Y597979D01*
X988136Y597538D01*
X988578Y597243D01*
X989098Y597140D01*
X989619Y597243D01*
X990060Y597538D01*
X990355Y597979D01*
X990459Y598500D01*
X990355Y599021D01*
X990060Y599462D01*
X989619Y599757D01*
X989098Y599860D01*
D02*
G37*
G36*
X985161D02*
X984641Y599757D01*
X984200Y599462D01*
X983905Y599021D01*
X983801Y598500D01*
X983905Y597979D01*
X984200Y597538D01*
X984641Y597243D01*
X985161Y597140D01*
X985682Y597243D01*
X986123Y597538D01*
X986418Y597979D01*
X986522Y598500D01*
X986418Y599021D01*
X986123Y599462D01*
X985682Y599757D01*
X985161Y599860D01*
D02*
G37*
G36*
X971333D02*
X970812Y599757D01*
X970371Y599462D01*
X970076Y599021D01*
X969972Y598500D01*
X970076Y597979D01*
X970371Y597538D01*
X970812Y597243D01*
X971333Y597140D01*
X971853Y597243D01*
X972295Y597538D01*
X972590Y597979D01*
X972693Y598500D01*
X972590Y599021D01*
X972295Y599462D01*
X971853Y599757D01*
X971333Y599860D01*
D02*
G37*
G36*
X967445D02*
X966924Y599757D01*
X966483Y599462D01*
X966188Y599021D01*
X966084Y598500D01*
X966188Y597979D01*
X966483Y597538D01*
X966924Y597243D01*
X967445Y597140D01*
X967966Y597243D01*
X968407Y597538D01*
X968702Y597979D01*
X968805Y598500D01*
X968702Y599021D01*
X968407Y599462D01*
X967966Y599757D01*
X967445Y599860D01*
D02*
G37*
G36*
X1058000Y598025D02*
X1057479Y597921D01*
X1057038Y597626D01*
X1056743Y597185D01*
X1056640Y596664D01*
X1056743Y596144D01*
X1057038Y595703D01*
X1057479Y595408D01*
X1058000Y595304D01*
X1058521Y595408D01*
X1058962Y595703D01*
X1059257Y596144D01*
X1059360Y596664D01*
X1059257Y597185D01*
X1058962Y597626D01*
X1058521Y597921D01*
X1058000Y598025D01*
D02*
G37*
G36*
X1120643Y595074D02*
X1119869Y594920D01*
X1119636Y594765D01*
X1120643Y593758D01*
X1121649Y594765D01*
X1121417Y594920D01*
X1120643Y595074D01*
D02*
G37*
G36*
X935000Y595183D02*
X934479Y595079D01*
X934038Y594784D01*
X933743Y594343D01*
X933640Y593823D01*
X933743Y593302D01*
X934038Y592861D01*
X934479Y592566D01*
X935000Y592462D01*
X935521Y592566D01*
X935962Y592861D01*
X936257Y593302D01*
X936360Y593823D01*
X936257Y594343D01*
X935962Y594784D01*
X935521Y595079D01*
X935000Y595183D01*
D02*
G37*
G36*
X923854Y595065D02*
X923334Y594962D01*
X922892Y594667D01*
X922598Y594225D01*
X922494Y593705D01*
X922598Y593184D01*
X922892Y592743D01*
X923334Y592448D01*
X923854Y592344D01*
X924375Y592448D01*
X924816Y592743D01*
X925111Y593184D01*
X925215Y593705D01*
X925111Y594225D01*
X924816Y594667D01*
X924375Y594962D01*
X923854Y595065D01*
D02*
G37*
G36*
X1122357Y594057D02*
X1121350Y593051D01*
X1122357Y592044D01*
X1122512Y592276D01*
X1122666Y593051D01*
X1122512Y593825D01*
X1122357Y594057D01*
D02*
G37*
G36*
X1118929Y594057D02*
X1118774Y593825D01*
X1118620Y593051D01*
X1118774Y592276D01*
X1118929Y592044D01*
X1119936Y593051D01*
X1118929Y594057D01*
D02*
G37*
G36*
X1120643Y592344D02*
X1119636Y591337D01*
X1119869Y591182D01*
X1120643Y591028D01*
X1121417Y591182D01*
X1121649Y591337D01*
X1120643Y592344D01*
D02*
G37*
G36*
X1111000Y591484D02*
X1110226Y591330D01*
X1109993Y591174D01*
X1111000Y590168D01*
X1112007Y591174D01*
X1111774Y591330D01*
X1111000Y591484D01*
D02*
G37*
G36*
X1112714Y590467D02*
X1111707Y589461D01*
X1112714Y588454D01*
X1112869Y588686D01*
X1113023Y589461D01*
X1112869Y590235D01*
X1112714Y590467D01*
D02*
G37*
G36*
X1109286Y590467D02*
X1109131Y590235D01*
X1108977Y589461D01*
X1109131Y588686D01*
X1109286Y588454D01*
X1110293Y589461D01*
X1109286Y590467D01*
D02*
G37*
G36*
X1111000Y588754D02*
X1109993Y587747D01*
X1110226Y587592D01*
X1111000Y587437D01*
X1111774Y587592D01*
X1112007Y587747D01*
X1111000Y588754D01*
D02*
G37*
G36*
X1089000Y588124D02*
X1088479Y588021D01*
X1088038Y587726D01*
X1087743Y587284D01*
X1087640Y586764D01*
X1087743Y586243D01*
X1088038Y585802D01*
X1088479Y585507D01*
X1089000Y585403D01*
X1089521Y585507D01*
X1089962Y585802D01*
X1090257Y586243D01*
X1090360Y586764D01*
X1090257Y587284D01*
X1089962Y587726D01*
X1089521Y588021D01*
X1089000Y588124D01*
D02*
G37*
G36*
X1012720Y587640D02*
X1012200Y587536D01*
X1011759Y587242D01*
X1011464Y586800D01*
X1011360Y586279D01*
X1011464Y585759D01*
X1011759Y585318D01*
X1012200Y585023D01*
X1012720Y584919D01*
X1013241Y585023D01*
X1013682Y585318D01*
X1013977Y585759D01*
X1014081Y586279D01*
X1013977Y586800D01*
X1013682Y587242D01*
X1013241Y587536D01*
X1012720Y587640D01*
D02*
G37*
G36*
X998941D02*
X998420Y587536D01*
X997979Y587242D01*
X997684Y586800D01*
X997581Y586279D01*
X997684Y585759D01*
X997979Y585318D01*
X998420Y585023D01*
X998941Y584919D01*
X999461Y585023D01*
X999903Y585318D01*
X1000198Y585759D01*
X1000301Y586279D01*
X1000198Y586800D01*
X999903Y587242D01*
X999461Y587536D01*
X998941Y587640D01*
D02*
G37*
G36*
X1036672Y586688D02*
X1036152Y586584D01*
X1035711Y586290D01*
X1035416Y585848D01*
X1035312Y585328D01*
X1035416Y584807D01*
X1035711Y584366D01*
X1036152Y584071D01*
X1036672Y583967D01*
X1037193Y584071D01*
X1037634Y584366D01*
X1037929Y584807D01*
X1038033Y585328D01*
X1037929Y585848D01*
X1037634Y586290D01*
X1037193Y586584D01*
X1036672Y586688D01*
D02*
G37*
G36*
X1032345D02*
X1031824Y586584D01*
X1031383Y586290D01*
X1031088Y585848D01*
X1030984Y585328D01*
X1031088Y584807D01*
X1031383Y584366D01*
X1031824Y584071D01*
X1032345Y583967D01*
X1032866Y584071D01*
X1033307Y584366D01*
X1033602Y584807D01*
X1033705Y585328D01*
X1033602Y585848D01*
X1033307Y586290D01*
X1032866Y586584D01*
X1032345Y586688D01*
D02*
G37*
G36*
X980500Y585360D02*
X979979Y585257D01*
X979538Y584962D01*
X979243Y584521D01*
X979140Y584000D01*
X979243Y583479D01*
X979538Y583038D01*
X979979Y582743D01*
X980500Y582640D01*
X981021Y582743D01*
X981462Y583038D01*
X981757Y583479D01*
X981860Y584000D01*
X981757Y584521D01*
X981462Y584962D01*
X981021Y585257D01*
X980500Y585360D01*
D02*
G37*
G36*
X1049177Y583360D02*
X1048657Y583257D01*
X1048215Y582962D01*
X1047920Y582521D01*
X1047817Y582000D01*
X1047920Y581479D01*
X1048215Y581038D01*
X1048657Y580743D01*
X1049177Y580640D01*
X1049698Y580743D01*
X1050139Y581038D01*
X1050434Y581479D01*
X1050538Y582000D01*
X1050434Y582521D01*
X1050139Y582962D01*
X1049698Y583257D01*
X1049177Y583360D01*
D02*
G37*
G36*
X1045201D02*
X1044680Y583257D01*
X1044239Y582962D01*
X1043944Y582521D01*
X1043840Y582000D01*
X1043944Y581479D01*
X1044239Y581038D01*
X1044680Y580743D01*
X1045201Y580640D01*
X1045721Y580743D01*
X1046163Y581038D01*
X1046458Y581479D01*
X1046561Y582000D01*
X1046458Y582521D01*
X1046163Y582962D01*
X1045721Y583257D01*
X1045201Y583360D01*
D02*
G37*
G36*
X1041224D02*
X1040704Y583257D01*
X1040263Y582962D01*
X1039968Y582521D01*
X1039864Y582000D01*
X1039968Y581479D01*
X1040263Y581038D01*
X1040704Y580743D01*
X1041224Y580640D01*
X1041745Y580743D01*
X1042186Y581038D01*
X1042481Y581479D01*
X1042585Y582000D01*
X1042481Y582521D01*
X1042186Y582962D01*
X1041745Y583257D01*
X1041224Y583360D01*
D02*
G37*
G36*
X1096260Y583301D02*
X1095739Y583198D01*
X1095298Y582903D01*
X1095003Y582462D01*
X1094899Y581941D01*
X1095003Y581420D01*
X1095298Y580979D01*
X1095739Y580684D01*
X1096260Y580581D01*
X1096780Y580684D01*
X1097222Y580979D01*
X1097517Y581420D01*
X1097620Y581941D01*
X1097517Y582462D01*
X1097222Y582903D01*
X1096780Y583198D01*
X1096260Y583301D01*
D02*
G37*
G36*
X1089000Y583203D02*
X1088479Y583099D01*
X1088038Y582804D01*
X1087743Y582363D01*
X1087640Y581843D01*
X1087743Y581322D01*
X1088038Y580881D01*
X1088479Y580586D01*
X1089000Y580482D01*
X1089521Y580586D01*
X1089962Y580881D01*
X1090257Y581322D01*
X1090360Y581843D01*
X1090257Y582363D01*
X1089962Y582804D01*
X1089521Y583099D01*
X1089000Y583203D01*
D02*
G37*
G36*
X1041224Y579023D02*
X1040450Y578869D01*
X1040218Y578714D01*
X1041224Y577707D01*
X1042231Y578714D01*
X1041999Y578869D01*
X1041224Y579023D01*
D02*
G37*
G36*
X1042938Y578007D02*
X1041932Y577000D01*
X1042938Y575993D01*
X1043093Y576226D01*
X1043248Y577000D01*
X1043093Y577774D01*
X1042938Y578007D01*
D02*
G37*
G36*
X1039511Y578007D02*
X1039355Y577774D01*
X1039201Y577000D01*
X1039355Y576226D01*
X1039511Y575993D01*
X1040517Y577000D01*
X1039511Y578007D01*
D02*
G37*
G36*
X831933Y589785D02*
X830557Y589604D01*
X829275Y589073D01*
X828174Y588228D01*
X827329Y587127D01*
X826797Y585845D01*
X826616Y584469D01*
Y580532D01*
X826797Y579155D01*
X827329Y577873D01*
X828174Y576772D01*
X829275Y575927D01*
X830557Y575396D01*
X831933Y575215D01*
X833309Y575396D01*
X834591Y575927D01*
X835693Y576772D01*
X836537Y577873D01*
X837069Y579155D01*
X837250Y580532D01*
Y584469D01*
X837069Y585845D01*
X836537Y587127D01*
X835693Y588228D01*
X834591Y589073D01*
X833309Y589604D01*
X831933Y589785D01*
D02*
G37*
G36*
X1041224Y576293D02*
X1040218Y575286D01*
X1040450Y575131D01*
X1041224Y574977D01*
X1041999Y575131D01*
X1042231Y575286D01*
X1041224Y576293D01*
D02*
G37*
G36*
X891500Y576161D02*
X890726Y576007D01*
X890493Y575852D01*
X891500Y574845D01*
X892507Y575852D01*
X892274Y576007D01*
X891500Y576161D01*
D02*
G37*
G36*
X917595Y575378D02*
X916820Y575223D01*
X916588Y575068D01*
X917595Y574061D01*
X918601Y575068D01*
X918369Y575223D01*
X917595Y575378D01*
D02*
G37*
G36*
X904405D02*
X903631Y575223D01*
X903399Y575068D01*
X904405Y574061D01*
X905412Y575068D01*
X905180Y575223D01*
X904405Y575378D01*
D02*
G37*
G36*
X893214Y575144D02*
X892207Y574138D01*
X893214Y573131D01*
X893369Y573364D01*
X893523Y574138D01*
X893369Y574912D01*
X893214Y575144D01*
D02*
G37*
G36*
X889786Y575144D02*
X889631Y574912D01*
X889477Y574138D01*
X889631Y573364D01*
X889786Y573131D01*
X890793Y574138D01*
X889786Y575144D01*
D02*
G37*
G36*
X919308Y574361D02*
X918302Y573354D01*
X919308Y572348D01*
X919464Y572580D01*
X919618Y573354D01*
X919464Y574128D01*
X919308Y574361D01*
D02*
G37*
G36*
X906119D02*
X905113Y573354D01*
X906119Y572348D01*
X906275Y572580D01*
X906429Y573354D01*
X906275Y574128D01*
X906119Y574361D01*
D02*
G37*
G36*
X915881Y574361D02*
X915725Y574128D01*
X915571Y573354D01*
X915725Y572580D01*
X915881Y572348D01*
X916887Y573354D01*
X915881Y574361D01*
D02*
G37*
G36*
X902692D02*
X902536Y574128D01*
X902382Y573354D01*
X902536Y572580D01*
X902692Y572348D01*
X903698Y573354D01*
X902692Y574361D01*
D02*
G37*
G36*
X891500Y573431D02*
X890493Y572424D01*
X890726Y572269D01*
X891500Y572115D01*
X892274Y572269D01*
X892507Y572424D01*
X891500Y573431D01*
D02*
G37*
G36*
X1041224Y573023D02*
X1040450Y572869D01*
X1040218Y572714D01*
X1041224Y571707D01*
X1042231Y572714D01*
X1041999Y572869D01*
X1041224Y573023D01*
D02*
G37*
G36*
X1022843D02*
X1022068Y572869D01*
X1021836Y572714D01*
X1022843Y571707D01*
X1023849Y572714D01*
X1023617Y572869D01*
X1022843Y573023D01*
D02*
G37*
G36*
X1016158D02*
X1015383Y572869D01*
X1015151Y572714D01*
X1016158Y571707D01*
X1017164Y572714D01*
X1016932Y572869D01*
X1016158Y573023D01*
D02*
G37*
G36*
X987842D02*
X987068Y572869D01*
X986836Y572714D01*
X987842Y571707D01*
X988849Y572714D01*
X988617Y572869D01*
X987842Y573023D01*
D02*
G37*
G36*
X965343D02*
X964568Y572869D01*
X964336Y572714D01*
X965343Y571707D01*
X966349Y572714D01*
X966117Y572869D01*
X965343Y573023D01*
D02*
G37*
G36*
X896522Y574210D02*
X896002Y574106D01*
X895560Y573811D01*
X895265Y573370D01*
X895162Y572850D01*
X895265Y572329D01*
X895560Y571888D01*
X896002Y571593D01*
X896522Y571489D01*
X897043Y571593D01*
X897484Y571888D01*
X897779Y572329D01*
X897882Y572850D01*
X897779Y573370D01*
X897484Y573811D01*
X897043Y574106D01*
X896522Y574210D01*
D02*
G37*
G36*
X917595Y572647D02*
X916588Y571640D01*
X916820Y571485D01*
X917595Y571331D01*
X918369Y571485D01*
X918601Y571640D01*
X917595Y572647D01*
D02*
G37*
G36*
X904405D02*
X903399Y571640D01*
X903631Y571485D01*
X904405Y571331D01*
X905180Y571485D01*
X905412Y571640D01*
X904405Y572647D01*
D02*
G37*
G36*
X1042938Y572007D02*
X1041932Y571000D01*
X1042938Y569993D01*
X1043093Y570226D01*
X1043248Y571000D01*
X1043093Y571774D01*
X1042938Y572007D01*
D02*
G37*
G36*
X1024556D02*
X1023550Y571000D01*
X1024556Y569993D01*
X1024712Y570226D01*
X1024866Y571000D01*
X1024712Y571774D01*
X1024556Y572007D01*
D02*
G37*
G36*
X1017871D02*
X1016865Y571000D01*
X1017871Y569993D01*
X1018027Y570226D01*
X1018181Y571000D01*
X1018027Y571774D01*
X1017871Y572007D01*
D02*
G37*
G36*
X989556D02*
X988550Y571000D01*
X989556Y569993D01*
X989712Y570226D01*
X989866Y571000D01*
X989712Y571774D01*
X989556Y572007D01*
D02*
G37*
G36*
X967056D02*
X966050Y571000D01*
X967056Y569993D01*
X967212Y570226D01*
X967366Y571000D01*
X967212Y571774D01*
X967056Y572007D01*
D02*
G37*
G36*
X1039511Y572007D02*
X1039355Y571774D01*
X1039201Y571000D01*
X1039355Y570226D01*
X1039511Y569993D01*
X1040517Y571000D01*
X1039511Y572007D01*
D02*
G37*
G36*
X1021129D02*
X1020973Y571774D01*
X1020819Y571000D01*
X1020973Y570226D01*
X1021129Y569993D01*
X1022135Y571000D01*
X1021129Y572007D01*
D02*
G37*
G36*
X1014444D02*
X1014288Y571774D01*
X1014134Y571000D01*
X1014288Y570226D01*
X1014444Y569993D01*
X1015450Y571000D01*
X1014444Y572007D01*
D02*
G37*
G36*
X986129D02*
X985973Y571774D01*
X985819Y571000D01*
X985973Y570226D01*
X986129Y569993D01*
X987135Y571000D01*
X986129Y572007D01*
D02*
G37*
G36*
X963629D02*
X963473Y571774D01*
X963319Y571000D01*
X963473Y570226D01*
X963629Y569993D01*
X964635Y571000D01*
X963629Y572007D01*
D02*
G37*
G36*
X1028158Y572360D02*
X1027637Y572257D01*
X1027195Y571962D01*
X1026901Y571521D01*
X1026797Y571000D01*
X1026901Y570479D01*
X1027195Y570038D01*
X1027637Y569743D01*
X1028158Y569640D01*
X1028678Y569743D01*
X1029119Y570038D01*
X1029414Y570479D01*
X1029518Y571000D01*
X1029414Y571521D01*
X1029119Y571962D01*
X1028678Y572257D01*
X1028158Y572360D01*
D02*
G37*
G36*
X1010843D02*
X1010322Y572257D01*
X1009881Y571962D01*
X1009586Y571521D01*
X1009482Y571000D01*
X1009586Y570479D01*
X1009881Y570038D01*
X1010322Y569743D01*
X1010843Y569640D01*
X1011363Y569743D01*
X1011804Y570038D01*
X1012099Y570479D01*
X1012203Y571000D01*
X1012099Y571521D01*
X1011804Y571962D01*
X1011363Y572257D01*
X1010843Y572360D01*
D02*
G37*
G36*
X993157D02*
X992637Y572257D01*
X992196Y571962D01*
X991901Y571521D01*
X991797Y571000D01*
X991901Y570479D01*
X992196Y570038D01*
X992637Y569743D01*
X993157Y569640D01*
X993678Y569743D01*
X994119Y570038D01*
X994414Y570479D01*
X994518Y571000D01*
X994414Y571521D01*
X994119Y571962D01*
X993678Y572257D01*
X993157Y572360D01*
D02*
G37*
G36*
X970658D02*
X970137Y572257D01*
X969695Y571962D01*
X969401Y571521D01*
X969297Y571000D01*
X969401Y570479D01*
X969695Y570038D01*
X970137Y569743D01*
X970658Y569640D01*
X971178Y569743D01*
X971619Y570038D01*
X971914Y570479D01*
X972018Y571000D01*
X971914Y571521D01*
X971619Y571962D01*
X971178Y572257D01*
X970658Y572360D01*
D02*
G37*
G36*
X861500Y571860D02*
X860979Y571757D01*
X860538Y571462D01*
X860243Y571021D01*
X860140Y570500D01*
X860243Y569979D01*
X860538Y569538D01*
X860979Y569243D01*
X861500Y569140D01*
X862021Y569243D01*
X862462Y569538D01*
X862757Y569979D01*
X862860Y570500D01*
X862757Y571021D01*
X862462Y571462D01*
X862021Y571757D01*
X861500Y571860D01*
D02*
G37*
G36*
X1041224Y570293D02*
X1040218Y569286D01*
X1040450Y569131D01*
X1041224Y568977D01*
X1041999Y569131D01*
X1042231Y569286D01*
X1041224Y570293D01*
D02*
G37*
G36*
X1022843D02*
X1021836Y569286D01*
X1022068Y569131D01*
X1022843Y568977D01*
X1023617Y569131D01*
X1023849Y569286D01*
X1022843Y570293D01*
D02*
G37*
G36*
X1016158D02*
X1015151Y569286D01*
X1015383Y569131D01*
X1016158Y568977D01*
X1016932Y569131D01*
X1017164Y569286D01*
X1016158Y570293D01*
D02*
G37*
G36*
X987842D02*
X986836Y569286D01*
X987068Y569131D01*
X987842Y568977D01*
X988617Y569131D01*
X988849Y569286D01*
X987842Y570293D01*
D02*
G37*
G36*
X965343D02*
X964336Y569286D01*
X964568Y569131D01*
X965343Y568977D01*
X966117Y569131D01*
X966349Y569286D01*
X965343Y570293D01*
D02*
G37*
G36*
X917595Y569006D02*
X917074Y568902D01*
X916633Y568608D01*
X916338Y568166D01*
X916234Y567646D01*
X916338Y567125D01*
X916633Y566684D01*
X917074Y566389D01*
X917595Y566285D01*
X918115Y566389D01*
X918556Y566684D01*
X918851Y567125D01*
X918955Y567646D01*
X918851Y568166D01*
X918556Y568608D01*
X918115Y568902D01*
X917595Y569006D01*
D02*
G37*
G36*
X891500Y566885D02*
X890726Y566731D01*
X890493Y566576D01*
X891500Y565569D01*
X892507Y566576D01*
X892274Y566731D01*
X891500Y566885D01*
D02*
G37*
G36*
X992862Y566023D02*
X992088Y565869D01*
X991856Y565714D01*
X992862Y564707D01*
X993869Y565714D01*
X993636Y565869D01*
X992862Y566023D01*
D02*
G37*
G36*
X893214Y565869D02*
X892207Y564862D01*
X893214Y563856D01*
X893369Y564088D01*
X893523Y564862D01*
X893369Y565636D01*
X893214Y565869D01*
D02*
G37*
G36*
X889786Y565869D02*
X889631Y565636D01*
X889477Y564862D01*
X889631Y564088D01*
X889786Y563856D01*
X890793Y564862D01*
X889786Y565869D01*
D02*
G37*
G36*
X994576Y565007D02*
X993569Y564000D01*
X994576Y562993D01*
X994731Y563226D01*
X994885Y564000D01*
X994731Y564774D01*
X994576Y565007D01*
D02*
G37*
G36*
X991148Y565007D02*
X990993Y564774D01*
X990839Y564000D01*
X990993Y563226D01*
X991148Y562993D01*
X992155Y564000D01*
X991148Y565007D01*
D02*
G37*
G36*
X891500Y564155D02*
X890493Y563148D01*
X890726Y562993D01*
X891500Y562839D01*
X892274Y562993D01*
X892507Y563148D01*
X891500Y564155D01*
D02*
G37*
G36*
X992862Y563293D02*
X991856Y562286D01*
X992088Y562131D01*
X992862Y561977D01*
X993636Y562131D01*
X993869Y562286D01*
X992862Y563293D01*
D02*
G37*
G36*
X813000Y563937D02*
X812479Y563834D01*
X812038Y563539D01*
X811743Y563097D01*
X811640Y562577D01*
X811743Y562056D01*
X812038Y561615D01*
X812479Y561320D01*
X813000Y561216D01*
X813521Y561320D01*
X813962Y561615D01*
X814257Y562056D01*
X814360Y562577D01*
X814257Y563097D01*
X813962Y563539D01*
X813521Y563834D01*
X813000Y563937D01*
D02*
G37*
G36*
X798103D02*
X797582Y563834D01*
X797141Y563539D01*
X796846Y563097D01*
X796743Y562577D01*
X796846Y562056D01*
X797141Y561615D01*
X797582Y561320D01*
X798103Y561216D01*
X798624Y561320D01*
X799065Y561615D01*
X799360Y562056D01*
X799463Y562577D01*
X799360Y563097D01*
X799065Y563539D01*
X798624Y563834D01*
X798103Y563937D01*
D02*
G37*
G36*
X1030842Y562523D02*
X1030068Y562369D01*
X1029836Y562214D01*
X1030842Y561207D01*
X1031849Y562214D01*
X1031617Y562369D01*
X1030842Y562523D01*
D02*
G37*
G36*
X1032556Y561507D02*
X1031550Y560500D01*
X1032556Y559493D01*
X1032712Y559726D01*
X1032866Y560500D01*
X1032712Y561274D01*
X1032556Y561507D01*
D02*
G37*
G36*
X1029129Y561507D02*
X1028973Y561274D01*
X1028819Y560500D01*
X1028973Y559726D01*
X1029129Y559493D01*
X1030135Y560500D01*
X1029129Y561507D01*
D02*
G37*
G36*
X1036158Y561860D02*
X1035637Y561757D01*
X1035196Y561462D01*
X1034901Y561021D01*
X1034797Y560500D01*
X1034901Y559979D01*
X1035196Y559538D01*
X1035637Y559243D01*
X1036158Y559140D01*
X1036678Y559243D01*
X1037119Y559538D01*
X1037414Y559979D01*
X1037518Y560500D01*
X1037414Y561021D01*
X1037119Y561462D01*
X1036678Y561757D01*
X1036158Y561860D01*
D02*
G37*
G36*
X861500Y561360D02*
X860979Y561257D01*
X860538Y560962D01*
X860243Y560521D01*
X860140Y560000D01*
X860243Y559479D01*
X860538Y559038D01*
X860979Y558743D01*
X861500Y558640D01*
X862021Y558743D01*
X862462Y559038D01*
X862757Y559479D01*
X862860Y560000D01*
X862757Y560521D01*
X862462Y560962D01*
X862021Y561257D01*
X861500Y561360D01*
D02*
G37*
G36*
X1030842Y559793D02*
X1029836Y558786D01*
X1030068Y558631D01*
X1030842Y558477D01*
X1031617Y558631D01*
X1031849Y558786D01*
X1030842Y559793D01*
D02*
G37*
G36*
X817000Y559360D02*
X816479Y559257D01*
X816038Y558962D01*
X815743Y558521D01*
X815640Y558000D01*
X815743Y557479D01*
X816038Y557038D01*
X816479Y556743D01*
X817000Y556640D01*
X817521Y556743D01*
X817962Y557038D01*
X818257Y557479D01*
X818360Y558000D01*
X818257Y558521D01*
X817962Y558962D01*
X817521Y559257D01*
X817000Y559360D01*
D02*
G37*
G36*
X1009000Y556860D02*
X1008479Y556757D01*
X1008038Y556462D01*
X1007743Y556021D01*
X1007640Y555500D01*
X1007743Y554979D01*
X1008038Y554538D01*
X1008479Y554243D01*
X1009000Y554140D01*
X1009521Y554243D01*
X1009962Y554538D01*
X1010257Y554979D01*
X1010360Y555500D01*
X1010257Y556021D01*
X1009962Y556462D01*
X1009521Y556757D01*
X1009000Y556860D01*
D02*
G37*
G36*
X798323Y556101D02*
X797802Y555997D01*
X797361Y555702D01*
X797066Y555261D01*
X796962Y554740D01*
X797066Y554220D01*
X797361Y553778D01*
X797802Y553483D01*
X798323Y553380D01*
X798843Y553483D01*
X799285Y553778D01*
X799580Y554220D01*
X799683Y554740D01*
X799580Y555261D01*
X799285Y555702D01*
X798843Y555997D01*
X798323Y556101D01*
D02*
G37*
G36*
X793000Y554230D02*
X792479Y554127D01*
X792038Y553832D01*
X791743Y553391D01*
X791640Y552870D01*
X791743Y552350D01*
X792038Y551908D01*
X792479Y551613D01*
X793000Y551510D01*
X793521Y551613D01*
X793962Y551908D01*
X794257Y552350D01*
X794360Y552870D01*
X794257Y553391D01*
X793962Y553832D01*
X793521Y554127D01*
X793000Y554230D01*
D02*
G37*
G36*
X917595Y553048D02*
X917074Y552944D01*
X916633Y552649D01*
X916338Y552208D01*
X916234Y551687D01*
X916338Y551167D01*
X916633Y550725D01*
X917074Y550430D01*
X917595Y550327D01*
X918115Y550430D01*
X918556Y550725D01*
X918851Y551167D01*
X918955Y551687D01*
X918851Y552208D01*
X918556Y552649D01*
X918115Y552944D01*
X917595Y553048D01*
D02*
G37*
G36*
X861500Y550360D02*
X860979Y550257D01*
X860538Y549962D01*
X860243Y549521D01*
X860140Y549000D01*
X860243Y548479D01*
X860538Y548038D01*
X860979Y547743D01*
X861500Y547640D01*
X862021Y547743D01*
X862462Y548038D01*
X862757Y548479D01*
X862860Y549000D01*
X862757Y549521D01*
X862462Y549962D01*
X862021Y550257D01*
X861500Y550360D01*
D02*
G37*
G36*
X896522Y548516D02*
X895748Y548362D01*
X895515Y548207D01*
X896522Y547200D01*
X897529Y548207D01*
X897296Y548362D01*
X896522Y548516D01*
D02*
G37*
G36*
X814406Y548362D02*
X813569Y548252D01*
X812790Y547929D01*
X812120Y547415D01*
X811607Y546746D01*
X811301Y546008D01*
X811147Y545949D01*
X810771Y545901D01*
X810643Y546092D01*
X810202Y546387D01*
X809681Y546490D01*
X809161Y546387D01*
X808719Y546092D01*
X808424Y545650D01*
X808321Y545130D01*
X808424Y544609D01*
X808719Y544168D01*
X809161Y543873D01*
X809681Y543770D01*
X810202Y543873D01*
X810643Y544168D01*
X810771Y544359D01*
X811147Y544311D01*
X811301Y544252D01*
X811607Y543514D01*
X812120Y542845D01*
X812790Y542331D01*
X813569Y542008D01*
X814406Y541898D01*
X815242Y542008D01*
X816022Y542331D01*
X816691Y542845D01*
X817204Y543514D01*
X817527Y544293D01*
X817638Y545130D01*
X817527Y545966D01*
X817204Y546746D01*
X816691Y547415D01*
X816022Y547929D01*
X815242Y548252D01*
X814406Y548362D01*
D02*
G37*
G36*
X898236Y547500D02*
X897229Y546493D01*
X898236Y545486D01*
X898391Y545719D01*
X898545Y546493D01*
X898391Y547267D01*
X898236Y547500D01*
D02*
G37*
G36*
X894808Y547500D02*
X894653Y547267D01*
X894499Y546493D01*
X894653Y545719D01*
X894808Y545486D01*
X895815Y546493D01*
X894808Y547500D01*
D02*
G37*
G36*
X917595Y547339D02*
X917074Y547235D01*
X916633Y546941D01*
X916338Y546499D01*
X916234Y545979D01*
X916338Y545458D01*
X916633Y545017D01*
X917074Y544722D01*
X917595Y544618D01*
X918115Y544722D01*
X918556Y545017D01*
X918851Y545458D01*
X918955Y545979D01*
X918851Y546499D01*
X918556Y546941D01*
X918115Y547235D01*
X917595Y547339D01*
D02*
G37*
G36*
X904405D02*
X903885Y547235D01*
X903444Y546941D01*
X903149Y546499D01*
X903045Y545979D01*
X903149Y545458D01*
X903444Y545017D01*
X903885Y544722D01*
X904405Y544618D01*
X904926Y544722D01*
X905367Y545017D01*
X905662Y545458D01*
X905766Y545979D01*
X905662Y546499D01*
X905367Y546941D01*
X904926Y547235D01*
X904405Y547339D01*
D02*
G37*
G36*
X896522Y545786D02*
X895515Y544779D01*
X895748Y544624D01*
X896522Y544470D01*
X897296Y544624D01*
X897529Y544779D01*
X896522Y545786D01*
D02*
G37*
G36*
X828862Y546994D02*
X828342Y546890D01*
X827900Y546595D01*
X827605Y546154D01*
X827502Y545633D01*
X827605Y545113D01*
X827900Y544671D01*
X828342Y544377D01*
X828862Y544273D01*
X829383Y544377D01*
X829824Y544671D01*
X830119Y545113D01*
X830223Y545633D01*
X830119Y546154D01*
X829824Y546595D01*
X829383Y546890D01*
X828862Y546994D01*
D02*
G37*
G36*
X1009000Y546610D02*
X1008479Y546507D01*
X1008038Y546212D01*
X1007743Y545771D01*
X1007640Y545250D01*
X1007743Y544729D01*
X1008038Y544288D01*
X1008479Y543993D01*
X1009000Y543890D01*
X1009521Y543993D01*
X1009962Y544288D01*
X1010257Y544729D01*
X1010360Y545250D01*
X1010257Y545771D01*
X1009962Y546212D01*
X1009521Y546507D01*
X1009000Y546610D01*
D02*
G37*
G36*
X1090819Y546123D02*
X1090298Y546019D01*
X1089857Y545724D01*
X1089562Y545283D01*
X1089458Y544762D01*
X1089562Y544242D01*
X1089857Y543800D01*
X1090298Y543505D01*
X1090819Y543402D01*
X1091339Y543505D01*
X1091781Y543800D01*
X1092076Y544242D01*
X1092179Y544762D01*
X1092076Y545283D01*
X1091781Y545724D01*
X1091339Y546019D01*
X1090819Y546123D01*
D02*
G37*
G36*
X1054992D02*
X1054471Y546019D01*
X1054030Y545724D01*
X1053735Y545283D01*
X1053632Y544762D01*
X1053735Y544242D01*
X1054030Y543800D01*
X1054471Y543505D01*
X1054992Y543402D01*
X1055513Y543505D01*
X1055954Y543800D01*
X1056249Y544242D01*
X1056353Y544762D01*
X1056249Y545283D01*
X1055954Y545724D01*
X1055513Y546019D01*
X1054992Y546123D01*
D02*
G37*
G36*
X794721Y548362D02*
X793884Y548252D01*
X793105Y547929D01*
X792435Y547415D01*
X791922Y546746D01*
X791599Y545966D01*
X791489Y545130D01*
X791599Y544293D01*
X791922Y543514D01*
X792435Y542845D01*
X793105Y542331D01*
X793884Y542008D01*
X794721Y541898D01*
X795557Y542008D01*
X796337Y542331D01*
X797006Y542845D01*
X797519Y543514D01*
X797842Y544293D01*
X797953Y545130D01*
X797842Y545966D01*
X797519Y546746D01*
X797006Y547415D01*
X796337Y547929D01*
X795557Y548252D01*
X794721Y548362D01*
D02*
G37*
G36*
X1036756Y545935D02*
X1036235Y545832D01*
X1035794Y545537D01*
X1035499Y545095D01*
X1035396Y544575D01*
X1035499Y544054D01*
X1035794Y543613D01*
X1036235Y543318D01*
X1036467Y543272D01*
X1036552Y543255D01*
Y542745D01*
X1036467Y542728D01*
X1036235Y542682D01*
X1035794Y542387D01*
X1035499Y541946D01*
X1035396Y541425D01*
X1035499Y540905D01*
X1035794Y540463D01*
X1036235Y540168D01*
X1036756Y540065D01*
X1037276Y540168D01*
X1037718Y540463D01*
X1038013Y540905D01*
X1038116Y541425D01*
X1038013Y541946D01*
X1037718Y542387D01*
X1037276Y542682D01*
X1037045Y542728D01*
X1036959Y542745D01*
Y543255D01*
X1037045Y543272D01*
X1037276Y543318D01*
X1037718Y543613D01*
X1038013Y544054D01*
X1038116Y544575D01*
X1038013Y545095D01*
X1037718Y545537D01*
X1037276Y545832D01*
X1036756Y545935D01*
D02*
G37*
G36*
X1031244Y542786D02*
X1030723Y542682D01*
X1030282Y542387D01*
X1029987Y541946D01*
X1029884Y541425D01*
X1029987Y540905D01*
X1030282Y540463D01*
X1030723Y540168D01*
X1031244Y540065D01*
X1031765Y540168D01*
X1032206Y540463D01*
X1032501Y540905D01*
X1032605Y541425D01*
X1032501Y541946D01*
X1032206Y542387D01*
X1031765Y542682D01*
X1031244Y542786D01*
D02*
G37*
G36*
X1112409Y564301D02*
X1110501Y564151D01*
X1108640Y563704D01*
X1106871Y562971D01*
X1105239Y561971D01*
X1103784Y560728D01*
X1102541Y559272D01*
X1101540Y557640D01*
X1100808Y555872D01*
X1100361Y554011D01*
X1100211Y552102D01*
X1100361Y550194D01*
X1100808Y548333D01*
X1101540Y546564D01*
X1102541Y544932D01*
X1103784Y543477D01*
X1105239Y542234D01*
X1106871Y541233D01*
X1108640Y540501D01*
X1110501Y540054D01*
X1112409Y539904D01*
X1114318Y540054D01*
X1116179Y540501D01*
X1117947Y541233D01*
X1119580Y542234D01*
X1121035Y543477D01*
X1122278Y544932D01*
X1123279Y546564D01*
X1124011Y548333D01*
X1124458Y550194D01*
X1124608Y552102D01*
X1124458Y554011D01*
X1124011Y555872D01*
X1123279Y557640D01*
X1122278Y559272D01*
X1121035Y560728D01*
X1119580Y561971D01*
X1117947Y562971D01*
X1116179Y563704D01*
X1114318Y564151D01*
X1112409Y564301D01*
D02*
G37*
G36*
X769890D02*
X767981Y564151D01*
X766120Y563704D01*
X764352Y562971D01*
X762720Y561971D01*
X761264Y560728D01*
X760021Y559272D01*
X759021Y557640D01*
X758288Y555872D01*
X757841Y554011D01*
X757691Y552102D01*
X757841Y550194D01*
X758288Y548333D01*
X759021Y546564D01*
X760021Y544932D01*
X761264Y543477D01*
X762720Y542234D01*
X764352Y541233D01*
X766120Y540501D01*
X767981Y540054D01*
X769890Y539904D01*
X771798Y540054D01*
X773659Y540501D01*
X775428Y541233D01*
X777060Y542234D01*
X778515Y543477D01*
X779759Y544932D01*
X780759Y546564D01*
X781491Y548333D01*
X781938Y550194D01*
X782088Y552102D01*
X781938Y554011D01*
X781491Y555872D01*
X780759Y557640D01*
X779759Y559272D01*
X778515Y560728D01*
X777060Y561971D01*
X775428Y562971D01*
X773659Y563704D01*
X771798Y564151D01*
X769890Y564301D01*
D02*
G37*
G36*
X861500Y540110D02*
X860979Y540007D01*
X860538Y539712D01*
X860243Y539271D01*
X860140Y538750D01*
X860243Y538229D01*
X860538Y537788D01*
X860979Y537493D01*
X861500Y537390D01*
X862021Y537493D01*
X862462Y537788D01*
X862757Y538229D01*
X862860Y538750D01*
X862757Y539271D01*
X862462Y539712D01*
X862021Y540007D01*
X861500Y540110D01*
D02*
G37*
G36*
X1009000Y536360D02*
X1008479Y536257D01*
X1008038Y535962D01*
X1007743Y535521D01*
X1007640Y535000D01*
X1007743Y534479D01*
X1008038Y534038D01*
X1008479Y533743D01*
X1009000Y533640D01*
X1009521Y533743D01*
X1009962Y534038D01*
X1010257Y534479D01*
X1010360Y535000D01*
X1010257Y535521D01*
X1009962Y535962D01*
X1009521Y536257D01*
X1009000Y536360D01*
D02*
G37*
G36*
X969658D02*
X969137Y536257D01*
X968696Y535962D01*
X968401Y535521D01*
X968297Y535000D01*
X968401Y534479D01*
X968696Y534038D01*
X969137Y533743D01*
X969658Y533640D01*
X970178Y533743D01*
X970619Y534038D01*
X970914Y534479D01*
X971018Y535000D01*
X970914Y535521D01*
X970619Y535962D01*
X970178Y536257D01*
X969658Y536360D01*
D02*
G37*
G36*
X818933Y538632D02*
X815390D01*
X814562Y538467D01*
X813860Y537998D01*
X813391Y537296D01*
X813227Y536469D01*
Y532531D01*
X813391Y531704D01*
X813860Y531002D01*
X814562Y530533D01*
X815390Y530368D01*
X818933D01*
X819761Y530533D01*
X820463Y531002D01*
X820932Y531704D01*
X820964Y531866D01*
X821187Y531959D01*
X821795Y532425D01*
X822262Y533033D01*
X822555Y533741D01*
X822655Y534500D01*
X822555Y535259D01*
X822262Y535967D01*
X821795Y536575D01*
X821187Y537041D01*
X820964Y537134D01*
X820932Y537296D01*
X820463Y537998D01*
X819761Y538467D01*
X818933Y538632D01*
D02*
G37*
G36*
X793736D02*
X790193D01*
X789365Y538467D01*
X788663Y537998D01*
X788194Y537296D01*
X788162Y537134D01*
X787938Y537041D01*
X787331Y536575D01*
X786865Y535967D01*
X786571Y535259D01*
X786471Y534500D01*
X786571Y533741D01*
X786865Y533033D01*
X787331Y532425D01*
X787938Y531959D01*
X788162Y531866D01*
X788194Y531704D01*
X788663Y531002D01*
X789365Y530533D01*
X790193Y530368D01*
X793736D01*
X794564Y530533D01*
X795266Y531002D01*
X795735Y531704D01*
X795899Y532531D01*
Y536469D01*
X795735Y537296D01*
X795266Y537998D01*
X794564Y538467D01*
X793736Y538632D01*
D02*
G37*
%LPD*%
D80*
X876000Y806138D02*
D03*
X886000D02*
D03*
X873500Y891740D02*
D03*
X1054500Y735000D02*
D03*
X1061500Y750500D02*
D03*
X808714Y804726D02*
D03*
X814038D02*
D03*
X819224D02*
D03*
X824575D02*
D03*
X965981Y725915D02*
D03*
X915268Y652658D02*
D03*
Y664157D02*
D03*
Y675815D02*
D03*
X931114Y650453D02*
D03*
X1022843Y571000D02*
D03*
X1016158D02*
D03*
X987842D02*
D03*
X965343D02*
D03*
X1080907Y639752D02*
D03*
X1082063Y676752D02*
D03*
X1120643Y593051D02*
D03*
X1111000Y589461D02*
D03*
X1131500Y694216D02*
D03*
X1041224Y577000D02*
D03*
X1024075Y879756D02*
D03*
X1018000Y866677D02*
D03*
X1128087Y842272D02*
D03*
X1127900Y869772D02*
D03*
X1128212Y814402D02*
D03*
X803988Y794500D02*
D03*
Y800000D02*
D03*
X866000Y843638D02*
D03*
X875528Y876500D02*
D03*
X898500Y903461D02*
D03*
X915000Y775500D02*
D03*
Y688500D02*
D03*
X1077366Y604488D02*
D03*
X1030842Y560500D02*
D03*
X816953Y708728D02*
D03*
X1044221Y810279D02*
D03*
X992862Y564000D02*
D03*
X1082118Y614323D02*
D03*
X935130Y797843D02*
D03*
X1041224Y571000D02*
D03*
X896522Y546493D02*
D03*
X917595Y573354D02*
D03*
X904405D02*
D03*
X891500Y574138D02*
D03*
Y564862D02*
D03*
X1018357Y785453D02*
D03*
X1004842D02*
D03*
X967000Y742842D02*
D03*
X1102421Y747500D02*
D03*
X1045000Y786500D02*
D03*
X897279Y694000D02*
D03*
X884500Y731008D02*
D03*
M02*
