G04*
G04 #@! TF.GenerationSoftware,Altium Limited,Altium Designer,20.2.5 (213)*
G04*
G04 Layer_Physical_Order=8*
G04 Layer_Color=16711680*
%FSLAX25Y25*%
%MOIN*%
G70*
G04*
G04 #@! TF.SameCoordinates,0EDA941F-9717-4D80-9818-445CF3A130AC*
G04*
G04*
G04 #@! TF.FilePolarity,Positive*
G04*
G01*
G75*
%ADD10C,0.00984*%
%ADD18C,0.01000*%
%ADD25R,0.03937X0.03543*%
%ADD30R,0.03543X0.03937*%
%ADD60R,0.02362X0.01575*%
%ADD80C,0.01968*%
%ADD87R,0.03347X0.02953*%
%ADD88R,0.02756X0.03543*%
%ADD89R,0.03543X0.03150*%
%ADD94R,0.03150X0.03543*%
%ADD99R,0.01378X0.01732*%
%ADD100R,0.02953X0.03347*%
%ADD104C,0.04921*%
%ADD105R,0.01732X0.01378*%
%ADD134R,0.05118X0.05512*%
%ADD137C,0.00800*%
%ADD138C,0.02000*%
%ADD140C,0.00600*%
G04:AMPARAMS|DCode=143|XSize=70.87mil|YSize=74.8mil|CornerRadius=17.72mil|HoleSize=0mil|Usage=FLASHONLY|Rotation=180.000|XOffset=0mil|YOffset=0mil|HoleType=Round|Shape=RoundedRectangle|*
%AMROUNDEDRECTD143*
21,1,0.07087,0.03937,0,0,180.0*
21,1,0.03543,0.07480,0,0,180.0*
1,1,0.03543,-0.01772,0.01968*
1,1,0.03543,0.01772,0.01968*
1,1,0.03543,0.01772,-0.01968*
1,1,0.03543,-0.01772,-0.01968*
%
%ADD143ROUNDEDRECTD143*%
%ADD144C,0.05709*%
%ADD145C,0.01575*%
%ADD146O,0.09843X0.13780*%
%ADD147C,0.06890*%
%ADD148R,0.09744X0.09744*%
%ADD149C,0.09744*%
%ADD150C,0.06000*%
%ADD151R,0.01181X0.04331*%
%ADD152R,0.09055X0.12205*%
%ADD153R,0.08346X0.05906*%
%ADD154R,0.03150X0.03937*%
%ADD155R,0.06693X0.10630*%
G04:AMPARAMS|DCode=156|XSize=34.65mil|YSize=10.63mil|CornerRadius=1.33mil|HoleSize=0mil|Usage=FLASHONLY|Rotation=0.000|XOffset=0mil|YOffset=0mil|HoleType=Round|Shape=RoundedRectangle|*
%AMROUNDEDRECTD156*
21,1,0.03465,0.00797,0,0,0.0*
21,1,0.03199,0.01063,0,0,0.0*
1,1,0.00266,0.01599,-0.00399*
1,1,0.00266,-0.01599,-0.00399*
1,1,0.00266,-0.01599,0.00399*
1,1,0.00266,0.01599,0.00399*
%
%ADD156ROUNDEDRECTD156*%
G04:AMPARAMS|DCode=157|XSize=29.92mil|YSize=10.63mil|CornerRadius=1.33mil|HoleSize=0mil|Usage=FLASHONLY|Rotation=0.000|XOffset=0mil|YOffset=0mil|HoleType=Round|Shape=RoundedRectangle|*
%AMROUNDEDRECTD157*
21,1,0.02992,0.00797,0,0,0.0*
21,1,0.02726,0.01063,0,0,0.0*
1,1,0.00266,0.01363,-0.00399*
1,1,0.00266,-0.01363,-0.00399*
1,1,0.00266,-0.01363,0.00399*
1,1,0.00266,0.01363,0.00399*
%
%ADD157ROUNDEDRECTD157*%
%ADD158R,0.03543X0.05118*%
%ADD159R,0.00394X0.00394*%
%ADD160C,0.01175*%
G36*
X909179Y917244D02*
X909348Y917230D01*
X909516Y917208D01*
X909683Y917177D01*
X909848Y917138D01*
X910011Y917090D01*
X910170Y917033D01*
X910327Y916968D01*
X910480Y916895D01*
X910629Y916814D01*
X910773Y916726D01*
X910913Y916630D01*
X911048Y916526D01*
X911177Y916416D01*
X911300Y916300D01*
X911416Y916177D01*
X911526Y916048D01*
X911630Y915913D01*
X911726Y915773D01*
X911814Y915629D01*
X911895Y915480D01*
X911968Y915327D01*
X912033Y915170D01*
X912090Y915011D01*
X912138Y914848D01*
X912177Y914683D01*
X912208Y914516D01*
X912230Y914348D01*
X912244Y914179D01*
X912248Y914020D01*
X911067D01*
X911064Y914118D01*
X911056Y914225D01*
X911042Y914332D01*
X911022Y914437D01*
X910997Y914542D01*
X910966Y914645D01*
X910930Y914747D01*
X910889Y914847D01*
X910843Y914944D01*
X910791Y915038D01*
X910735Y915130D01*
X910674Y915219D01*
X910608Y915304D01*
X910539Y915386D01*
X910464Y915464D01*
X910386Y915539D01*
X910304Y915609D01*
X910219Y915674D01*
X910130Y915735D01*
X910038Y915791D01*
X909944Y915843D01*
X909846Y915889D01*
X909747Y915930D01*
X909645Y915966D01*
X909542Y915997D01*
X909437Y916022D01*
X909332Y916042D01*
X909225Y916056D01*
X909118Y916064D01*
X909000Y916067D01*
X908892Y916064D01*
X908784Y916056D01*
X908677Y916041D01*
X908570Y916022D01*
X908465Y915996D01*
X908361Y915966D01*
X908259Y915930D01*
X908159Y915888D01*
X908062Y915842D01*
X907967Y915790D01*
X907874Y915734D01*
X907785Y915672D01*
X907699Y915606D01*
X907617Y915536D01*
X907539Y915462D01*
X907464Y915383D01*
X907394Y915301D01*
X907328Y915215D01*
X907267Y915126D01*
X907210Y915034D01*
X907158Y914938D01*
X907112Y914841D01*
X907070Y914741D01*
X907034Y914639D01*
X907003Y914535D01*
X906978Y914430D01*
X906958Y914323D01*
X906944Y914216D01*
X906936Y914108D01*
X906933Y914000D01*
X906936Y913892D01*
X906944Y913784D01*
X906958Y913677D01*
X906978Y913570D01*
X907003Y913465D01*
X907034Y913361D01*
X907070Y913259D01*
X907112Y913159D01*
X907158Y913062D01*
X907210Y912967D01*
X907267Y912874D01*
X907328Y912785D01*
X907394Y912699D01*
X907464Y912617D01*
X907539Y912539D01*
X907617Y912464D01*
X907699Y912394D01*
X907785Y912328D01*
X907874Y912267D01*
X907967Y912210D01*
X908062Y912158D01*
X908159Y912112D01*
X908259Y912070D01*
X908361Y912034D01*
X908465Y912004D01*
X908570Y911978D01*
X908677Y911959D01*
X908784Y911944D01*
X908892Y911936D01*
X909000Y911933D01*
X909118Y911936D01*
X909225Y911944D01*
X909332Y911958D01*
X909437Y911978D01*
X909542Y912003D01*
X909645Y912034D01*
X909747Y912070D01*
X909846Y912111D01*
X909944Y912157D01*
X910038Y912209D01*
X910130Y912265D01*
X910219Y912326D01*
X910304Y912391D01*
X910386Y912461D01*
X910464Y912536D01*
X910539Y912614D01*
X910608Y912696D01*
X910674Y912781D01*
X910735Y912870D01*
X910791Y912962D01*
X910843Y913056D01*
X910889Y913153D01*
X910930Y913253D01*
X910966Y913354D01*
X910997Y913458D01*
X911022Y913562D01*
X911042Y913668D01*
X911056Y913775D01*
X911064Y913883D01*
X911067Y913980D01*
X912248D01*
X912244Y913821D01*
X912230Y913652D01*
X912208Y913484D01*
X912177Y913317D01*
X912138Y913152D01*
X912090Y912990D01*
X912033Y912830D01*
X911968Y912673D01*
X911895Y912520D01*
X911814Y912371D01*
X911726Y912226D01*
X911630Y912087D01*
X911526Y911952D01*
X911416Y911823D01*
X911300Y911700D01*
X911177Y911584D01*
X911048Y911474D01*
X910913Y911370D01*
X910773Y911274D01*
X910629Y911186D01*
X910480Y911105D01*
X910327Y911032D01*
X910170Y910967D01*
X910011Y910910D01*
X909848Y910862D01*
X909683Y910823D01*
X909516Y910792D01*
X909348Y910770D01*
X909179Y910756D01*
X909000Y910752D01*
X908830Y910756D01*
X908661Y910770D01*
X908492Y910792D01*
X908325Y910823D01*
X908159Y910863D01*
X907996Y910911D01*
X907836Y910968D01*
X907679Y911033D01*
X907525Y911106D01*
X907376Y911187D01*
X907231Y911276D01*
X907091Y911372D01*
X906956Y911476D01*
X906827Y911586D01*
X906703Y911703D01*
X906586Y911827D01*
X906476Y911956D01*
X906372Y912091D01*
X906276Y912231D01*
X906187Y912376D01*
X906106Y912525D01*
X906033Y912679D01*
X905968Y912836D01*
X905911Y912996D01*
X905863Y913159D01*
X905823Y913325D01*
X905792Y913492D01*
X905770Y913661D01*
X905756Y913830D01*
X905752Y914000D01*
X905756Y914170D01*
X905770Y914340D01*
X905792Y914508D01*
X905823Y914675D01*
X905863Y914841D01*
X905911Y915004D01*
X905968Y915164D01*
X906033Y915321D01*
X906106Y915475D01*
X906187Y915624D01*
X906276Y915769D01*
X906372Y915909D01*
X906476Y916044D01*
X906586Y916173D01*
X906703Y916297D01*
X906827Y916414D01*
X906956Y916524D01*
X907091Y916628D01*
X907231Y916724D01*
X907376Y916813D01*
X907525Y916894D01*
X907679Y916967D01*
X907836Y917032D01*
X907996Y917089D01*
X908159Y917137D01*
X908325Y917177D01*
X908492Y917208D01*
X908661Y917230D01*
X908830Y917244D01*
X909000Y917248D01*
X909179Y917244D01*
D02*
G37*
G36*
X914411Y909684D02*
X914441Y909637D01*
X914491Y909596D01*
X914561Y909560D01*
X914651Y909529D01*
X914761Y909505D01*
X914891Y909485D01*
X915041Y909472D01*
X915401Y909461D01*
Y908461D01*
X915211Y908458D01*
X914891Y908436D01*
X914761Y908417D01*
X914651Y908392D01*
X914561Y908362D01*
X914491Y908326D01*
X914441Y908284D01*
X914411Y908238D01*
X914401Y908185D01*
Y909736D01*
X914411Y909684D01*
D02*
G37*
G36*
X903599Y908185D02*
X903589Y908238D01*
X903559Y908284D01*
X903509Y908326D01*
X903439Y908362D01*
X903349Y908392D01*
X903239Y908417D01*
X903109Y908436D01*
X902959Y908450D01*
X902599Y908461D01*
Y909461D01*
X902789Y909463D01*
X903109Y909485D01*
X903239Y909505D01*
X903349Y909529D01*
X903439Y909560D01*
X903509Y909596D01*
X903559Y909637D01*
X903589Y909684D01*
X903599Y909736D01*
Y908185D01*
D02*
G37*
G36*
X916479Y909105D02*
X916995Y908659D01*
X917097Y908590D01*
X917188Y908537D01*
X917268Y908501D01*
X917337Y908481D01*
X917396Y908479D01*
X916518Y907426D01*
X916507Y907480D01*
X916480Y907545D01*
X916436Y907622D01*
X916377Y907710D01*
X916302Y907809D01*
X916105Y908042D01*
X915691Y908476D01*
X916323Y909258D01*
X916479Y909105D01*
D02*
G37*
G36*
X914398Y906738D02*
X914423Y906670D01*
X914464Y906610D01*
X914521Y906558D01*
X914594Y906514D01*
X914684Y906478D01*
X914789Y906450D01*
X914910Y906430D01*
X915048Y906418D01*
X915201Y906414D01*
Y905614D01*
X914401Y905626D01*
X914389Y906814D01*
X914398Y906738D01*
D02*
G37*
G36*
X899005Y905833D02*
X899020Y905663D01*
X899045Y905513D01*
X899080Y905383D01*
X899125Y905273D01*
X899180Y905183D01*
X899245Y905113D01*
X899320Y905063D01*
X899405Y905033D01*
X899500Y905023D01*
X899018D01*
X899047Y904588D01*
X899068Y904465D01*
X899093Y904361D01*
X899121Y904276D01*
X899153Y904210D01*
X899189Y904163D01*
X897811D01*
X897847Y904210D01*
X897879Y904276D01*
X897907Y904361D01*
X897932Y904465D01*
X897953Y904588D01*
X897983Y904891D01*
X897988Y905023D01*
X897500D01*
X897595Y905033D01*
X897680Y905063D01*
X897755Y905113D01*
X897820Y905183D01*
X897875Y905273D01*
X897920Y905383D01*
X897955Y905513D01*
X897980Y905663D01*
X897995Y905833D01*
X898000Y906023D01*
X899000D01*
X899005Y905833D01*
D02*
G37*
G36*
X916463Y905449D02*
X916872Y905102D01*
X916993Y905017D01*
X917107Y904948D01*
X917214Y904894D01*
X917313Y904856D01*
X917406Y904834D01*
X917490Y904827D01*
X916516Y903852D01*
X916509Y903937D01*
X916486Y904029D01*
X916448Y904128D01*
X916395Y904235D01*
X916325Y904349D01*
X916241Y904471D01*
X916024Y904736D01*
X915893Y904880D01*
X915746Y905031D01*
X916312Y905596D01*
X916463Y905449D01*
D02*
G37*
G36*
X905492Y903059D02*
X905424Y903035D01*
X905364Y902995D01*
X905312Y902939D01*
X905268Y902867D01*
X905232Y902779D01*
X905204Y902675D01*
X905184Y902555D01*
X905172Y902419D01*
X905168Y902267D01*
X904368D01*
X904364Y902419D01*
X904352Y902555D01*
X904332Y902675D01*
X904304Y902779D01*
X904268Y902867D01*
X904224Y902939D01*
X904172Y902995D01*
X904112Y903035D01*
X904044Y903059D01*
X903968Y903067D01*
X905568D01*
X905492Y903059D01*
D02*
G37*
G36*
X914137Y903057D02*
X914052Y903027D01*
X913977Y902977D01*
X913912Y902907D01*
X913857Y902817D01*
X913812Y902707D01*
X913777Y902577D01*
X913752Y902427D01*
X913737Y902257D01*
X913732Y902067D01*
X912732D01*
X912727Y902257D01*
X912712Y902427D01*
X912687Y902577D01*
X912652Y902707D01*
X912607Y902817D01*
X912552Y902907D01*
X912487Y902977D01*
X912412Y903027D01*
X912327Y903057D01*
X912232Y903067D01*
X914232D01*
X914137Y903057D01*
D02*
G37*
G36*
X913737Y900135D02*
X913752Y899963D01*
X913777Y899812D01*
X913812Y899680D01*
X913857Y899569D01*
X913912Y899478D01*
X913977Y899407D01*
X914052Y899356D01*
X914137Y899325D01*
X914232Y899315D01*
X913820Y899317D01*
X913883Y898839D01*
X913047Y898107D01*
X912800Y899324D01*
X912339Y899327D01*
X912414Y899337D01*
X912480Y899367D01*
X912539Y899417D01*
X912591Y899487D01*
X912634Y899577D01*
X912669Y899687D01*
X912697Y899817D01*
X912716Y899967D01*
X912728Y900137D01*
X912732Y900327D01*
X913732D01*
X913737Y900135D01*
D02*
G37*
G36*
X905172Y899972D02*
X905184Y899834D01*
X905204Y899712D01*
X905232Y899607D01*
X905268Y899518D01*
X905312Y899444D01*
X905364Y899388D01*
X905424Y899347D01*
X905492Y899323D01*
X905568Y899315D01*
X903968D01*
X904044Y899323D01*
X904112Y899347D01*
X904172Y899388D01*
X904224Y899444D01*
X904268Y899518D01*
X904304Y899607D01*
X904332Y899712D01*
X904352Y899834D01*
X904364Y899972D01*
X904368Y900127D01*
X905168D01*
X905172Y899972D01*
D02*
G37*
G36*
X907629Y897062D02*
X907621Y897138D01*
X907597Y897206D01*
X907556Y897266D01*
X907499Y897318D01*
X907426Y897362D01*
X907337Y897398D01*
X907231Y897426D01*
X907109Y897446D01*
X906971Y897458D01*
X906889Y897460D01*
X906807Y897458D01*
X906669Y897446D01*
X906547Y897426D01*
X906441Y897398D01*
X906352Y897362D01*
X906279Y897318D01*
X906222Y897266D01*
X906182Y897206D01*
X906157Y897138D01*
X906149Y897062D01*
Y898662D01*
X906157Y898586D01*
X906182Y898518D01*
X906222Y898458D01*
X906279Y898406D01*
X906352Y898362D01*
X906441Y898326D01*
X906547Y898298D01*
X906669Y898278D01*
X906807Y898266D01*
X906889Y898264D01*
X906971Y898266D01*
X907109Y898278D01*
X907231Y898298D01*
X907337Y898326D01*
X907426Y898362D01*
X907499Y898406D01*
X907556Y898458D01*
X907597Y898518D01*
X907621Y898586D01*
X907629Y898662D01*
Y897062D01*
D02*
G37*
G36*
X894505Y895308D02*
X894520Y895135D01*
X894545Y894984D01*
X894580Y894852D01*
X894625Y894741D01*
X894680Y894650D01*
X894745Y894579D01*
X894820Y894528D01*
X894905Y894498D01*
X895000Y894488D01*
X893000D01*
X893095Y894498D01*
X893180Y894528D01*
X893255Y894579D01*
X893320Y894650D01*
X893375Y894741D01*
X893420Y894852D01*
X893455Y894984D01*
X893480Y895135D01*
X893495Y895308D01*
X893500Y895500D01*
X894500D01*
X894505Y895308D01*
D02*
G37*
G36*
X897464Y883490D02*
X897379Y883460D01*
X897304Y883410D01*
X897239Y883340D01*
X897184Y883250D01*
X897139Y883140D01*
X897104Y883010D01*
X897079Y882860D01*
X897064Y882690D01*
X897059Y882500D01*
X896059D01*
X896054Y882690D01*
X896039Y882860D01*
X896014Y883010D01*
X895979Y883140D01*
X895934Y883250D01*
X895879Y883340D01*
X895814Y883410D01*
X895739Y883460D01*
X895654Y883490D01*
X895559Y883500D01*
X897559D01*
X897464Y883490D01*
D02*
G37*
G36*
X892346D02*
X892261Y883460D01*
X892186Y883410D01*
X892121Y883340D01*
X892066Y883250D01*
X892021Y883140D01*
X891986Y883010D01*
X891961Y882860D01*
X891946Y882690D01*
X891941Y882500D01*
X890941D01*
X890936Y882690D01*
X890921Y882860D01*
X890896Y883010D01*
X890861Y883140D01*
X890816Y883250D01*
X890761Y883340D01*
X890696Y883410D01*
X890621Y883460D01*
X890536Y883490D01*
X890441Y883500D01*
X892441D01*
X892346Y883490D01*
D02*
G37*
G36*
X1111333Y881921D02*
X1111222Y881915D01*
X1111107Y881894D01*
X1110989Y881858D01*
X1110867Y881808D01*
X1110741Y881742D01*
X1110612Y881663D01*
X1110479Y881568D01*
X1110342Y881458D01*
X1110057Y881195D01*
X1109632Y881620D01*
X1109771Y881764D01*
X1110005Y882042D01*
X1110100Y882175D01*
X1110180Y882304D01*
X1110245Y882430D01*
X1110295Y882552D01*
X1110331Y882670D01*
X1110352Y882785D01*
X1110358Y882896D01*
X1111333Y881921D01*
D02*
G37*
G36*
X891946Y882067D02*
X891961Y881895D01*
X891986Y881744D01*
X892021Y881612D01*
X892066Y881501D01*
X892121Y881410D01*
X892186Y881339D01*
X892261Y881288D01*
X892346Y881258D01*
X892441Y881248D01*
X891944D01*
X892002Y880455D01*
X892024Y880351D01*
X892050Y880265D01*
X892078Y880199D01*
X892111Y880152D01*
X890735Y880239D01*
X890775Y880284D01*
X890809Y880349D01*
X890840Y880432D01*
X890867Y880535D01*
X890890Y880657D01*
X890908Y880799D01*
X890933Y881139D01*
X890935Y881248D01*
X890441D01*
X890536Y881258D01*
X890621Y881288D01*
X890696Y881339D01*
X890761Y881410D01*
X890816Y881501D01*
X890861Y881612D01*
X890896Y881744D01*
X890921Y881895D01*
X890936Y882067D01*
X890941Y882260D01*
X891941D01*
X891946Y882067D01*
D02*
G37*
G36*
X897064D02*
X897079Y881895D01*
X897104Y881744D01*
X897139Y881612D01*
X897184Y881501D01*
X897239Y881410D01*
X897304Y881339D01*
X897379Y881288D01*
X897464Y881258D01*
X897559Y881248D01*
X897061D01*
X897061Y881243D01*
X897116Y880434D01*
X897136Y880330D01*
X897160Y880244D01*
X897186Y880178D01*
X897216Y880130D01*
X895845Y880268D01*
X895886Y880312D01*
X895922Y880375D01*
X895954Y880458D01*
X895982Y880560D01*
X896006Y880682D01*
X896025Y880822D01*
X896050Y881162D01*
X896052Y881248D01*
X895559D01*
X895654Y881258D01*
X895739Y881288D01*
X895814Y881339D01*
X895879Y881410D01*
X895934Y881501D01*
X895979Y881612D01*
X896014Y881744D01*
X896039Y881895D01*
X896054Y882067D01*
X896059Y882260D01*
X897059D01*
X897064Y882067D01*
D02*
G37*
G36*
X1111333Y876921D02*
X1111222Y876915D01*
X1111107Y876894D01*
X1110989Y876858D01*
X1110867Y876808D01*
X1110741Y876742D01*
X1110612Y876663D01*
X1110479Y876568D01*
X1110342Y876458D01*
X1110057Y876195D01*
X1109632Y876620D01*
X1109771Y876764D01*
X1110005Y877042D01*
X1110100Y877175D01*
X1110180Y877304D01*
X1110245Y877430D01*
X1110295Y877552D01*
X1110331Y877670D01*
X1110352Y877785D01*
X1110358Y877896D01*
X1111333Y876921D01*
D02*
G37*
G36*
X931866Y809400D02*
X931860Y809457D01*
X931842Y809508D01*
X931812Y809553D01*
X931770Y809592D01*
X931716Y809625D01*
X931650Y809652D01*
X931572Y809673D01*
X931482Y809688D01*
X931380Y809697D01*
X931266Y809700D01*
Y810300D01*
X931380Y810303D01*
X931482Y810312D01*
X931572Y810327D01*
X931650Y810348D01*
X931716Y810375D01*
X931770Y810408D01*
X931812Y810447D01*
X931842Y810492D01*
X931860Y810543D01*
X931866Y810600D01*
Y809400D01*
D02*
G37*
G36*
X936142Y810624D02*
X936166Y810577D01*
X936206Y810536D01*
X936262Y810500D01*
X936334Y810469D01*
X936422Y810444D01*
X936526Y810425D01*
X936646Y810411D01*
X936782Y810403D01*
X936934Y810400D01*
Y809600D01*
X936782Y809597D01*
X936526Y809575D01*
X936422Y809556D01*
X936334Y809531D01*
X936262Y809500D01*
X936206Y809464D01*
X936166Y809423D01*
X936142Y809376D01*
X936134Y809323D01*
Y810677D01*
X936142Y810624D01*
D02*
G37*
G36*
X946404Y804472D02*
X946416Y804334D01*
X946436Y804212D01*
X946464Y804107D01*
X946500Y804018D01*
X946544Y803944D01*
X946596Y803888D01*
X946656Y803847D01*
X946724Y803823D01*
X946800Y803815D01*
X945200D01*
X945276Y803823D01*
X945344Y803847D01*
X945404Y803888D01*
X945456Y803944D01*
X945500Y804018D01*
X945536Y804107D01*
X945564Y804212D01*
X945584Y804334D01*
X945596Y804472D01*
X945600Y804627D01*
X946400D01*
X946404Y804472D01*
D02*
G37*
G36*
X933185Y803463D02*
X933231Y803463D01*
X933767Y803498D01*
X933906Y803518D01*
X934025Y803544D01*
X934124Y803574D01*
X934204Y803609D01*
X934264Y803648D01*
X934303Y803692D01*
X934579Y802342D01*
X934534Y802364D01*
X934470Y802385D01*
X934386Y802402D01*
X934283Y802418D01*
X934017Y802442D01*
X933474Y802459D01*
X933254Y802461D01*
X933185Y802744D01*
Y801961D01*
X933175Y802056D01*
X933145Y802141D01*
X933094Y802216D01*
X933023Y802281D01*
X932932Y802336D01*
X932821Y802381D01*
X932690Y802416D01*
X932538Y802441D01*
X932366Y802456D01*
X932173Y802461D01*
Y803461D01*
X932366Y803466D01*
X932538Y803481D01*
X932690Y803506D01*
X932821Y803541D01*
X932932Y803586D01*
X933023Y803641D01*
X933094Y803706D01*
X933145Y803781D01*
X933175Y803866D01*
X933185Y803961D01*
Y803463D01*
D02*
G37*
G36*
X930616Y803866D02*
X930646Y803781D01*
X930697Y803706D01*
X930768Y803641D01*
X930859Y803586D01*
X930970Y803541D01*
X931102Y803506D01*
X931254Y803481D01*
X931426Y803466D01*
X931618Y803461D01*
Y802461D01*
X931426Y802456D01*
X931254Y802441D01*
X931102Y802416D01*
X930970Y802381D01*
X930859Y802336D01*
X930768Y802281D01*
X930697Y802216D01*
X930646Y802141D01*
X930616Y802056D01*
X930606Y801961D01*
Y803961D01*
X930616Y803866D01*
D02*
G37*
G36*
X927099Y801398D02*
X926099Y801386D01*
Y802386D01*
X926290Y802391D01*
X926462Y802406D01*
X926613Y802431D01*
X926744Y802466D01*
X926856Y802511D01*
X926947Y802566D01*
X927018Y802631D01*
X927069Y802706D01*
X927100Y802791D01*
X927111Y802886D01*
X927099Y801398D01*
D02*
G37*
G36*
X933185Y798244D02*
X933260Y798245D01*
X933795Y798289D01*
X933941Y798315D01*
X934071Y798347D01*
X934184Y798384D01*
X934281Y798427D01*
X934362Y798477D01*
X934427Y798531D01*
Y797154D01*
X934362Y797208D01*
X934281Y797258D01*
X934184Y797301D01*
X934071Y797338D01*
X933941Y797370D01*
X933795Y797396D01*
X933455Y797431D01*
X933260Y797440D01*
X933185Y797441D01*
Y797043D01*
X933177Y797119D01*
X933153Y797187D01*
X933112Y797247D01*
X933055Y797298D01*
X932982Y797342D01*
X932893Y797378D01*
X932788Y797406D01*
X932666Y797427D01*
X932528Y797438D01*
X932373Y797442D01*
Y798243D01*
X932528Y798246D01*
X932666Y798258D01*
X932788Y798279D01*
X932893Y798307D01*
X932982Y798343D01*
X933055Y798386D01*
X933112Y798439D01*
X933153Y798498D01*
X933177Y798566D01*
X933185Y798642D01*
Y798244D01*
D02*
G37*
G36*
X930614Y798566D02*
X930638Y798498D01*
X930679Y798439D01*
X930736Y798386D01*
X930809Y798343D01*
X930898Y798307D01*
X931004Y798279D01*
X931126Y798258D01*
X931264Y798246D01*
X931418Y798243D01*
Y797442D01*
X931264Y797438D01*
X931126Y797427D01*
X931004Y797406D01*
X930898Y797378D01*
X930809Y797342D01*
X930736Y797298D01*
X930679Y797247D01*
X930638Y797187D01*
X930614Y797119D01*
X930606Y797043D01*
Y798642D01*
X930614Y798566D01*
D02*
G37*
G36*
X1131740Y797482D02*
X1131674Y797386D01*
X1131616Y797277D01*
X1131565Y797155D01*
X1131522Y797020D01*
X1131487Y796872D01*
X1131460Y796711D01*
X1131441Y796537D01*
X1131425Y796149D01*
X1130825D01*
X1130821Y796349D01*
X1130790Y796711D01*
X1130763Y796872D01*
X1130728Y797020D01*
X1130685Y797155D01*
X1130634Y797277D01*
X1130576Y797386D01*
X1130510Y797482D01*
X1130436Y797565D01*
X1131814D01*
X1131740Y797482D01*
D02*
G37*
G36*
X1125678D02*
X1125611Y797386D01*
X1125553Y797277D01*
X1125502Y797155D01*
X1125460Y797020D01*
X1125425Y796872D01*
X1125397Y796711D01*
X1125378Y796537D01*
X1125362Y796149D01*
X1124763D01*
X1124759Y796349D01*
X1124728Y796711D01*
X1124700Y796872D01*
X1124665Y797020D01*
X1124623Y797155D01*
X1124572Y797277D01*
X1124514Y797386D01*
X1124447Y797482D01*
X1124374Y797565D01*
X1125751D01*
X1125678Y797482D01*
D02*
G37*
G36*
X1119615D02*
X1119549Y797386D01*
X1119491Y797277D01*
X1119440Y797155D01*
X1119397Y797020D01*
X1119362Y796872D01*
X1119335Y796711D01*
X1119316Y796537D01*
X1119300Y796149D01*
X1118700D01*
X1118696Y796349D01*
X1118665Y796711D01*
X1118638Y796872D01*
X1118603Y797020D01*
X1118560Y797155D01*
X1118509Y797277D01*
X1118451Y797386D01*
X1118385Y797482D01*
X1118311Y797565D01*
X1119689D01*
X1119615Y797482D01*
D02*
G37*
G36*
X929582Y796469D02*
X929514Y796445D01*
X929454Y796405D01*
X929402Y796349D01*
X929358Y796277D01*
X929322Y796189D01*
X929294Y796085D01*
X929274Y795965D01*
X929262Y795829D01*
X929258Y795677D01*
X928458D01*
X928454Y795829D01*
X928442Y795965D01*
X928422Y796085D01*
X928394Y796189D01*
X928358Y796277D01*
X928314Y796349D01*
X928262Y796405D01*
X928202Y796445D01*
X928134Y796469D01*
X928058Y796477D01*
X929658D01*
X929582Y796469D01*
D02*
G37*
G36*
X946724Y796165D02*
X946656Y796141D01*
X946596Y796101D01*
X946544Y796045D01*
X946500Y795973D01*
X946464Y795885D01*
X946436Y795781D01*
X946416Y795661D01*
X946404Y795525D01*
X946400Y795373D01*
X945600D01*
X945596Y795525D01*
X945584Y795661D01*
X945564Y795781D01*
X945536Y795885D01*
X945500Y795973D01*
X945456Y796045D01*
X945404Y796101D01*
X945344Y796141D01*
X945276Y796165D01*
X945200Y796173D01*
X946800D01*
X946724Y796165D01*
D02*
G37*
G36*
X921010Y793569D02*
X921040Y793314D01*
X921090Y793089D01*
X921160Y792894D01*
X921250Y792729D01*
X921360Y792594D01*
X921490Y792489D01*
X921640Y792414D01*
X921810Y792369D01*
X922000Y792354D01*
X920500Y791354D01*
X919000Y792354D01*
X919190Y792369D01*
X919360Y792414D01*
X919510Y792489D01*
X919640Y792594D01*
X919750Y792729D01*
X919840Y792894D01*
X919910Y793089D01*
X919960Y793314D01*
X919990Y793569D01*
X920000Y793854D01*
X921000D01*
X921010Y793569D01*
D02*
G37*
G36*
X1053478Y788613D02*
X1053222Y788350D01*
X1052653Y787675D01*
X1052530Y787489D01*
X1052441Y787322D01*
X1052385Y787174D01*
X1052362Y787045D01*
X1052373Y786936D01*
X1052417Y786845D01*
X1051200Y788456D01*
X1051269Y788391D01*
X1051354Y788356D01*
X1051455Y788351D01*
X1051572Y788376D01*
X1051705Y788432D01*
X1051855Y788518D01*
X1052021Y788634D01*
X1052202Y788780D01*
X1052614Y789164D01*
X1053478Y788613D01*
D02*
G37*
G36*
X1056297Y788311D02*
X1056250Y788347D01*
X1056185Y788379D01*
X1056100Y788407D01*
X1055996Y788432D01*
X1055873Y788453D01*
X1055570Y788483D01*
X1055190Y788498D01*
X1054971Y788500D01*
Y789500D01*
X1055190Y789502D01*
X1055873Y789547D01*
X1055996Y789568D01*
X1056100Y789593D01*
X1056185Y789621D01*
X1056250Y789653D01*
X1056297Y789689D01*
Y788311D01*
D02*
G37*
G36*
X929260Y788553D02*
X929287Y788193D01*
X929303Y788105D01*
X929323Y788033D01*
X929346Y787977D01*
X929373Y787937D01*
X929403Y787913D01*
X929437Y787905D01*
X928280D01*
X928314Y787913D01*
X928344Y787937D01*
X928371Y787977D01*
X928394Y788033D01*
X928414Y788105D01*
X928430Y788193D01*
X928442Y788297D01*
X928456Y788553D01*
X928458Y788705D01*
X929258D01*
X929260Y788553D01*
D02*
G37*
G36*
X925422Y788715D02*
X925471Y787945D01*
X925485Y787915D01*
X925500Y787905D01*
X924343D01*
X924358Y787915D01*
X924371Y787945D01*
X924383Y787995D01*
X924393Y788065D01*
X924409Y788265D01*
X924421Y788905D01*
X925421D01*
X925422Y788715D01*
D02*
G37*
G36*
X917548D02*
X917597Y787945D01*
X917611Y787915D01*
X917626Y787905D01*
X916469D01*
X916484Y787915D01*
X916497Y787945D01*
X916509Y787995D01*
X916519Y788065D01*
X916535Y788265D01*
X916547Y788905D01*
X917547D01*
X917548Y788715D01*
D02*
G37*
G36*
X915382Y788391D02*
X915390Y788289D01*
X915404Y788199D01*
X915423Y788121D01*
X915448Y788055D01*
X915479Y788001D01*
X915515Y787959D01*
X915557Y787929D01*
X915604Y787911D01*
X915657Y787905D01*
X914500D01*
X914553Y787911D01*
X914600Y787929D01*
X914642Y787959D01*
X914678Y788001D01*
X914709Y788055D01*
X914734Y788121D01*
X914754Y788199D01*
X914768Y788289D01*
X914776Y788391D01*
X914779Y788505D01*
X915379D01*
X915382Y788391D01*
D02*
G37*
G36*
X926323Y786257D02*
X926500Y786252D01*
Y785252D01*
X926323Y785247D01*
Y784752D01*
X926313Y784847D01*
X926283Y784932D01*
X926232Y785007D01*
X926161Y785072D01*
X926070Y785127D01*
X925959Y785172D01*
X925909Y785185D01*
X925860Y785172D01*
X925750Y785127D01*
X925660Y785072D01*
X925590Y785007D01*
X925540Y784932D01*
X925510Y784847D01*
X925500Y784752D01*
Y785247D01*
X925311Y785252D01*
Y786252D01*
X925500Y786257D01*
Y786752D01*
X925510Y786657D01*
X925540Y786572D01*
X925590Y786497D01*
X925660Y786432D01*
X925750Y786377D01*
X925860Y786332D01*
X925909Y786319D01*
X925959Y786332D01*
X926070Y786377D01*
X926161Y786432D01*
X926232Y786497D01*
X926283Y786572D01*
X926313Y786657D01*
X926323Y786752D01*
Y786257D01*
D02*
G37*
G36*
X1045366Y785586D02*
X1045301Y785549D01*
X1045242Y785492D01*
X1045191Y785416D01*
X1045146Y785320D01*
X1045108Y785205D01*
X1045077Y785070D01*
X1045053Y784915D01*
X1045036Y784741D01*
X1045030Y784555D01*
X1045422D01*
X1045346Y784547D01*
X1045278Y784523D01*
X1045218Y784482D01*
X1045166Y784426D01*
X1045122Y784352D01*
X1045086Y784263D01*
X1045058Y784158D01*
X1045038Y784036D01*
X1045026Y783898D01*
X1045022Y783743D01*
X1044222D01*
X1044218Y783898D01*
X1044206Y784036D01*
X1044186Y784158D01*
X1044158Y784263D01*
X1044122Y784352D01*
X1044078Y784426D01*
X1044026Y784482D01*
X1043966Y784523D01*
X1043898Y784547D01*
X1043822Y784555D01*
X1044559D01*
X1044222Y784716D01*
X1044221Y784936D01*
X1044164Y785930D01*
X1044149Y785993D01*
X1044132Y786037D01*
X1045366Y785586D01*
D02*
G37*
G36*
X1050893Y784545D02*
X1050808Y784515D01*
X1050733Y784464D01*
X1050668Y784394D01*
X1050613Y784303D01*
X1050568Y784191D01*
X1050533Y784060D01*
X1050508Y783908D01*
X1050493Y783736D01*
X1050488Y783543D01*
X1049488D01*
X1049483Y783736D01*
X1049468Y783908D01*
X1049443Y784060D01*
X1049408Y784191D01*
X1049363Y784303D01*
X1049308Y784394D01*
X1049243Y784464D01*
X1049168Y784515D01*
X1049083Y784545D01*
X1048988Y784555D01*
X1050988D01*
X1050893Y784545D01*
D02*
G37*
G36*
X923478Y783593D02*
X923431Y783575D01*
X923389Y783545D01*
X923353Y783503D01*
X923322Y783449D01*
X923297Y783383D01*
X923278Y783305D01*
X923264Y783215D01*
X923256Y783113D01*
X923253Y782999D01*
X922653D01*
X922650Y783113D01*
X922642Y783215D01*
X922628Y783305D01*
X922608Y783383D01*
X922583Y783449D01*
X922552Y783503D01*
X922516Y783545D01*
X922474Y783575D01*
X922427Y783593D01*
X922374Y783599D01*
X923531D01*
X923478Y783593D01*
D02*
G37*
G36*
X921510D02*
X921463Y783575D01*
X921421Y783545D01*
X921385Y783503D01*
X921354Y783449D01*
X921329Y783383D01*
X921309Y783305D01*
X921295Y783215D01*
X921287Y783113D01*
X921284Y782999D01*
X920684D01*
X920681Y783113D01*
X920673Y783215D01*
X920659Y783305D01*
X920640Y783383D01*
X920615Y783449D01*
X920584Y783503D01*
X920548Y783545D01*
X920506Y783575D01*
X920459Y783593D01*
X920406Y783599D01*
X921563D01*
X921510Y783593D01*
D02*
G37*
G36*
X919541D02*
X919494Y783575D01*
X919452Y783545D01*
X919416Y783503D01*
X919385Y783449D01*
X919360Y783383D01*
X919341Y783305D01*
X919327Y783215D01*
X919318Y783113D01*
X919316Y782999D01*
X918716D01*
X918713Y783113D01*
X918705Y783215D01*
X918691Y783305D01*
X918671Y783383D01*
X918646Y783449D01*
X918616Y783503D01*
X918579Y783545D01*
X918538Y783575D01*
X918490Y783593D01*
X918437Y783599D01*
X919594D01*
X919541Y783593D01*
D02*
G37*
G36*
X1050493Y782901D02*
X1050508Y782729D01*
X1050533Y782577D01*
X1050568Y782445D01*
X1050613Y782334D01*
X1050668Y782243D01*
X1050733Y782172D01*
X1050808Y782122D01*
X1050893Y782091D01*
X1050988Y782081D01*
X1048988D01*
X1049083Y782091D01*
X1049168Y782122D01*
X1049243Y782172D01*
X1049308Y782243D01*
X1049363Y782334D01*
X1049408Y782445D01*
X1049443Y782577D01*
X1049468Y782729D01*
X1049483Y782901D01*
X1049488Y783093D01*
X1050488D01*
X1050493Y782901D01*
D02*
G37*
G36*
X1045026Y782739D02*
X1045038Y782601D01*
X1045058Y782479D01*
X1045086Y782373D01*
X1045122Y782284D01*
X1045166Y782211D01*
X1045218Y782154D01*
X1045278Y782114D01*
X1045346Y782089D01*
X1045422Y782081D01*
X1043822D01*
X1043898Y782089D01*
X1043966Y782114D01*
X1044026Y782154D01*
X1044078Y782211D01*
X1044122Y782284D01*
X1044158Y782373D01*
X1044186Y782479D01*
X1044206Y782601D01*
X1044218Y782739D01*
X1044222Y782893D01*
X1045022D01*
X1045026Y782739D01*
D02*
G37*
G36*
X1045346Y778578D02*
X1045278Y778553D01*
X1045218Y778513D01*
X1045166Y778456D01*
X1045122Y778383D01*
X1045086Y778293D01*
X1045058Y778188D01*
X1045038Y778066D01*
X1045026Y777928D01*
X1045022Y777774D01*
X1044222D01*
X1044218Y777928D01*
X1044206Y778066D01*
X1044186Y778188D01*
X1044158Y778293D01*
X1044122Y778383D01*
X1044078Y778456D01*
X1044026Y778513D01*
X1043966Y778553D01*
X1043898Y778578D01*
X1043822Y778586D01*
X1045422D01*
X1045346Y778578D01*
D02*
G37*
G36*
X996062Y777750D02*
X996030Y777685D01*
X996002Y777600D01*
X995977Y777496D01*
X995957Y777373D01*
X995926Y777070D01*
X995911Y776690D01*
X995909Y776471D01*
X994909D01*
X994908Y776690D01*
X994862Y777373D01*
X994841Y777496D01*
X994817Y777600D01*
X994788Y777685D01*
X994756Y777750D01*
X994720Y777797D01*
X996098D01*
X996062Y777750D01*
D02*
G37*
G36*
X1047091Y775963D02*
X1047141Y775193D01*
X1047154Y775163D01*
X1047169Y775153D01*
X1046012D01*
X1046027Y775163D01*
X1046040Y775193D01*
X1046052Y775243D01*
X1046062Y775313D01*
X1046078Y775513D01*
X1046091Y776153D01*
X1047091D01*
X1047091Y775963D01*
D02*
G37*
G36*
X1045024Y775801D02*
X1045051Y775441D01*
X1045067Y775353D01*
X1045086Y775281D01*
X1045109Y775225D01*
X1045136Y775185D01*
X1045167Y775161D01*
X1045201Y775153D01*
X1044044D01*
X1044077Y775161D01*
X1044108Y775185D01*
X1044135Y775225D01*
X1044158Y775281D01*
X1044177Y775353D01*
X1044193Y775441D01*
X1044206Y775545D01*
X1044220Y775801D01*
X1044222Y775953D01*
X1045022D01*
X1045024Y775801D01*
D02*
G37*
G36*
X995910Y775963D02*
X995960Y775193D01*
X995973Y775163D01*
X995988Y775153D01*
X994831D01*
X994846Y775163D01*
X994859Y775193D01*
X994871Y775243D01*
X994881Y775313D01*
X994897Y775513D01*
X994909Y776153D01*
X995909D01*
X995910Y775963D01*
D02*
G37*
G36*
X1043179Y770841D02*
X1043132Y770823D01*
X1043090Y770793D01*
X1043054Y770751D01*
X1043023Y770697D01*
X1042998Y770631D01*
X1042978Y770553D01*
X1042965Y770463D01*
X1042956Y770361D01*
X1042953Y770247D01*
X1042353D01*
X1042351Y770361D01*
X1042342Y770463D01*
X1042328Y770553D01*
X1042309Y770631D01*
X1042284Y770697D01*
X1042253Y770751D01*
X1042217Y770793D01*
X1042175Y770823D01*
X1042128Y770841D01*
X1042075Y770847D01*
X1043232D01*
X1043179Y770841D01*
D02*
G37*
G36*
X1041211D02*
X1041163Y770823D01*
X1041121Y770793D01*
X1041085Y770751D01*
X1041055Y770697D01*
X1041029Y770631D01*
X1041010Y770553D01*
X1040996Y770463D01*
X1040988Y770361D01*
X1040985Y770247D01*
X1040385D01*
X1040382Y770361D01*
X1040374Y770463D01*
X1040360Y770553D01*
X1040340Y770631D01*
X1040315Y770697D01*
X1040285Y770751D01*
X1040248Y770793D01*
X1040207Y770823D01*
X1040159Y770841D01*
X1040106Y770847D01*
X1041264D01*
X1041211Y770841D01*
D02*
G37*
G36*
X1039242D02*
X1039195Y770823D01*
X1039153Y770793D01*
X1039117Y770751D01*
X1039086Y770697D01*
X1039061Y770631D01*
X1039042Y770553D01*
X1039028Y770463D01*
X1039019Y770361D01*
X1039017Y770247D01*
X1038416D01*
X1038414Y770361D01*
X1038405Y770463D01*
X1038391Y770553D01*
X1038372Y770631D01*
X1038347Y770697D01*
X1038316Y770751D01*
X1038280Y770793D01*
X1038238Y770823D01*
X1038191Y770841D01*
X1038138Y770847D01*
X1039295D01*
X1039242Y770841D01*
D02*
G37*
G36*
X1037274D02*
X1037226Y770823D01*
X1037185Y770793D01*
X1037148Y770751D01*
X1037118Y770697D01*
X1037092Y770631D01*
X1037073Y770553D01*
X1037059Y770463D01*
X1037051Y770361D01*
X1037048Y770247D01*
X1036448D01*
X1036445Y770361D01*
X1036437Y770463D01*
X1036423Y770553D01*
X1036403Y770631D01*
X1036378Y770697D01*
X1036348Y770751D01*
X1036312Y770793D01*
X1036270Y770823D01*
X1036222Y770841D01*
X1036170Y770847D01*
X1037327D01*
X1037274Y770841D01*
D02*
G37*
G36*
X1035305D02*
X1035258Y770823D01*
X1035216Y770793D01*
X1035180Y770751D01*
X1035149Y770697D01*
X1035124Y770631D01*
X1035104Y770553D01*
X1035091Y770463D01*
X1035082Y770361D01*
X1035079Y770247D01*
X1034479D01*
X1034477Y770361D01*
X1034468Y770463D01*
X1034454Y770553D01*
X1034435Y770631D01*
X1034410Y770697D01*
X1034379Y770751D01*
X1034343Y770793D01*
X1034301Y770823D01*
X1034254Y770841D01*
X1034201Y770847D01*
X1035358D01*
X1035305Y770841D01*
D02*
G37*
G36*
X1033337D02*
X1033289Y770823D01*
X1033247Y770793D01*
X1033211Y770751D01*
X1033181Y770697D01*
X1033156Y770631D01*
X1033136Y770553D01*
X1033122Y770463D01*
X1033114Y770361D01*
X1033111Y770247D01*
X1032511D01*
X1032508Y770361D01*
X1032500Y770463D01*
X1032486Y770553D01*
X1032466Y770631D01*
X1032441Y770697D01*
X1032411Y770751D01*
X1032374Y770793D01*
X1032333Y770823D01*
X1032285Y770841D01*
X1032232Y770847D01*
X1033390D01*
X1033337Y770841D01*
D02*
G37*
G36*
X1031368D02*
X1031321Y770823D01*
X1031279Y770793D01*
X1031243Y770751D01*
X1031212Y770697D01*
X1031187Y770631D01*
X1031168Y770553D01*
X1031154Y770463D01*
X1031145Y770361D01*
X1031142Y770247D01*
X1030542D01*
X1030540Y770361D01*
X1030531Y770463D01*
X1030517Y770553D01*
X1030498Y770631D01*
X1030473Y770697D01*
X1030442Y770751D01*
X1030406Y770793D01*
X1030364Y770823D01*
X1030317Y770841D01*
X1030264Y770847D01*
X1031421D01*
X1031368Y770841D01*
D02*
G37*
G36*
X1029400D02*
X1029352Y770823D01*
X1029311Y770793D01*
X1029274Y770751D01*
X1029244Y770697D01*
X1029218Y770631D01*
X1029199Y770553D01*
X1029185Y770463D01*
X1029177Y770361D01*
X1029174Y770247D01*
X1028574D01*
X1028571Y770361D01*
X1028563Y770463D01*
X1028549Y770553D01*
X1028529Y770631D01*
X1028504Y770697D01*
X1028474Y770751D01*
X1028438Y770793D01*
X1028396Y770823D01*
X1028348Y770841D01*
X1028296Y770847D01*
X1029453D01*
X1029400Y770841D01*
D02*
G37*
G36*
X1027431D02*
X1027384Y770823D01*
X1027342Y770793D01*
X1027306Y770751D01*
X1027275Y770697D01*
X1027250Y770631D01*
X1027230Y770553D01*
X1027217Y770463D01*
X1027208Y770361D01*
X1027205Y770247D01*
X1026606D01*
X1026603Y770361D01*
X1026594Y770463D01*
X1026580Y770553D01*
X1026561Y770631D01*
X1026536Y770697D01*
X1026505Y770751D01*
X1026469Y770793D01*
X1026427Y770823D01*
X1026380Y770841D01*
X1026327Y770847D01*
X1027484D01*
X1027431Y770841D01*
D02*
G37*
G36*
X1025463D02*
X1025415Y770823D01*
X1025373Y770793D01*
X1025337Y770751D01*
X1025307Y770697D01*
X1025282Y770631D01*
X1025262Y770553D01*
X1025248Y770463D01*
X1025240Y770361D01*
X1025237Y770247D01*
X1024637D01*
X1024634Y770361D01*
X1024626Y770463D01*
X1024612Y770553D01*
X1024592Y770631D01*
X1024567Y770697D01*
X1024537Y770751D01*
X1024500Y770793D01*
X1024459Y770823D01*
X1024411Y770841D01*
X1024358Y770847D01*
X1025516D01*
X1025463Y770841D01*
D02*
G37*
G36*
X1023494D02*
X1023447Y770823D01*
X1023405Y770793D01*
X1023369Y770751D01*
X1023338Y770697D01*
X1023313Y770631D01*
X1023293Y770553D01*
X1023280Y770463D01*
X1023271Y770361D01*
X1023268Y770247D01*
X1022668D01*
X1022666Y770361D01*
X1022657Y770463D01*
X1022643Y770553D01*
X1022624Y770631D01*
X1022599Y770697D01*
X1022568Y770751D01*
X1022532Y770793D01*
X1022490Y770823D01*
X1022443Y770841D01*
X1022390Y770847D01*
X1023547D01*
X1023494Y770841D01*
D02*
G37*
G36*
X1021526D02*
X1021478Y770823D01*
X1021437Y770793D01*
X1021400Y770751D01*
X1021370Y770697D01*
X1021344Y770631D01*
X1021325Y770553D01*
X1021311Y770463D01*
X1021303Y770361D01*
X1021300Y770247D01*
X1020700D01*
X1020697Y770361D01*
X1020689Y770463D01*
X1020675Y770553D01*
X1020655Y770631D01*
X1020630Y770697D01*
X1020600Y770751D01*
X1020564Y770793D01*
X1020522Y770823D01*
X1020474Y770841D01*
X1020422Y770847D01*
X1021579D01*
X1021526Y770841D01*
D02*
G37*
G36*
X1019557D02*
X1019510Y770823D01*
X1019468Y770793D01*
X1019432Y770751D01*
X1019401Y770697D01*
X1019376Y770631D01*
X1019357Y770553D01*
X1019343Y770463D01*
X1019334Y770361D01*
X1019331Y770247D01*
X1018731D01*
X1018729Y770361D01*
X1018720Y770463D01*
X1018706Y770553D01*
X1018687Y770631D01*
X1018662Y770697D01*
X1018631Y770751D01*
X1018595Y770793D01*
X1018553Y770823D01*
X1018506Y770841D01*
X1018453Y770847D01*
X1019610D01*
X1019557Y770841D01*
D02*
G37*
G36*
X1017589D02*
X1017541Y770823D01*
X1017500Y770793D01*
X1017463Y770751D01*
X1017433Y770697D01*
X1017408Y770631D01*
X1017388Y770553D01*
X1017374Y770463D01*
X1017366Y770361D01*
X1017363Y770247D01*
X1016763D01*
X1016760Y770361D01*
X1016752Y770463D01*
X1016738Y770553D01*
X1016718Y770631D01*
X1016693Y770697D01*
X1016663Y770751D01*
X1016626Y770793D01*
X1016585Y770823D01*
X1016537Y770841D01*
X1016484Y770847D01*
X1017642D01*
X1017589Y770841D01*
D02*
G37*
G36*
X1015620D02*
X1015573Y770823D01*
X1015531Y770793D01*
X1015495Y770751D01*
X1015464Y770697D01*
X1015439Y770631D01*
X1015419Y770553D01*
X1015406Y770463D01*
X1015397Y770361D01*
X1015394Y770247D01*
X1014794D01*
X1014792Y770361D01*
X1014783Y770463D01*
X1014769Y770553D01*
X1014750Y770631D01*
X1014725Y770697D01*
X1014694Y770751D01*
X1014658Y770793D01*
X1014616Y770823D01*
X1014569Y770841D01*
X1014516Y770847D01*
X1015673D01*
X1015620Y770841D01*
D02*
G37*
G36*
X1013652D02*
X1013604Y770823D01*
X1013562Y770793D01*
X1013526Y770751D01*
X1013496Y770697D01*
X1013470Y770631D01*
X1013451Y770553D01*
X1013437Y770463D01*
X1013429Y770361D01*
X1013426Y770247D01*
X1012826D01*
X1012823Y770361D01*
X1012815Y770463D01*
X1012801Y770553D01*
X1012781Y770631D01*
X1012756Y770697D01*
X1012726Y770751D01*
X1012689Y770793D01*
X1012648Y770823D01*
X1012600Y770841D01*
X1012547Y770847D01*
X1013704D01*
X1013652Y770841D01*
D02*
G37*
G36*
X1011683D02*
X1011636Y770823D01*
X1011594Y770793D01*
X1011558Y770751D01*
X1011527Y770697D01*
X1011502Y770631D01*
X1011483Y770553D01*
X1011469Y770463D01*
X1011460Y770361D01*
X1011458Y770247D01*
X1010857D01*
X1010855Y770361D01*
X1010846Y770463D01*
X1010832Y770553D01*
X1010813Y770631D01*
X1010788Y770697D01*
X1010757Y770751D01*
X1010721Y770793D01*
X1010679Y770823D01*
X1010632Y770841D01*
X1010579Y770847D01*
X1011736D01*
X1011683Y770841D01*
D02*
G37*
G36*
X1009715D02*
X1009667Y770823D01*
X1009625Y770793D01*
X1009589Y770751D01*
X1009559Y770697D01*
X1009534Y770631D01*
X1009514Y770553D01*
X1009500Y770463D01*
X1009492Y770361D01*
X1009489Y770247D01*
X1008889D01*
X1008886Y770361D01*
X1008878Y770463D01*
X1008864Y770553D01*
X1008844Y770631D01*
X1008819Y770697D01*
X1008789Y770751D01*
X1008753Y770793D01*
X1008711Y770823D01*
X1008663Y770841D01*
X1008610Y770847D01*
X1009768D01*
X1009715Y770841D01*
D02*
G37*
G36*
X1007746D02*
X1007699Y770823D01*
X1007657Y770793D01*
X1007621Y770751D01*
X1007590Y770697D01*
X1007565Y770631D01*
X1007545Y770553D01*
X1007532Y770463D01*
X1007523Y770361D01*
X1007520Y770247D01*
X1006920D01*
X1006918Y770361D01*
X1006909Y770463D01*
X1006895Y770553D01*
X1006876Y770631D01*
X1006851Y770697D01*
X1006820Y770751D01*
X1006784Y770793D01*
X1006742Y770823D01*
X1006695Y770841D01*
X1006642Y770847D01*
X1007799D01*
X1007746Y770841D01*
D02*
G37*
G36*
X1005778D02*
X1005730Y770823D01*
X1005688Y770793D01*
X1005652Y770751D01*
X1005622Y770697D01*
X1005597Y770631D01*
X1005577Y770553D01*
X1005563Y770463D01*
X1005555Y770361D01*
X1005552Y770247D01*
X1004952D01*
X1004949Y770361D01*
X1004941Y770463D01*
X1004927Y770553D01*
X1004907Y770631D01*
X1004882Y770697D01*
X1004852Y770751D01*
X1004815Y770793D01*
X1004774Y770823D01*
X1004726Y770841D01*
X1004673Y770847D01*
X1005830D01*
X1005778Y770841D01*
D02*
G37*
G36*
X1003809D02*
X1003762Y770823D01*
X1003720Y770793D01*
X1003684Y770751D01*
X1003653Y770697D01*
X1003628Y770631D01*
X1003609Y770553D01*
X1003595Y770463D01*
X1003586Y770361D01*
X1003584Y770247D01*
X1002983D01*
X1002981Y770361D01*
X1002972Y770463D01*
X1002958Y770553D01*
X1002939Y770631D01*
X1002914Y770697D01*
X1002883Y770751D01*
X1002847Y770793D01*
X1002805Y770823D01*
X1002758Y770841D01*
X1002705Y770847D01*
X1003862D01*
X1003809Y770841D01*
D02*
G37*
G36*
X1001841D02*
X1001793Y770823D01*
X1001751Y770793D01*
X1001715Y770751D01*
X1001685Y770697D01*
X1001659Y770631D01*
X1001640Y770553D01*
X1001626Y770463D01*
X1001618Y770361D01*
X1001615Y770247D01*
X1001015D01*
X1001012Y770361D01*
X1001004Y770463D01*
X1000990Y770553D01*
X1000970Y770631D01*
X1000945Y770697D01*
X1000915Y770751D01*
X1000879Y770793D01*
X1000837Y770823D01*
X1000789Y770841D01*
X1000736Y770847D01*
X1001894D01*
X1001841Y770841D01*
D02*
G37*
G36*
X999872D02*
X999825Y770823D01*
X999783Y770793D01*
X999747Y770751D01*
X999716Y770697D01*
X999691Y770631D01*
X999671Y770553D01*
X999658Y770463D01*
X999649Y770361D01*
X999646Y770247D01*
X999047D01*
X999044Y770361D01*
X999035Y770463D01*
X999021Y770553D01*
X999002Y770631D01*
X998977Y770697D01*
X998946Y770751D01*
X998910Y770793D01*
X998868Y770823D01*
X998821Y770841D01*
X998768Y770847D01*
X999925D01*
X999872Y770841D01*
D02*
G37*
G36*
X997904D02*
X997856Y770823D01*
X997814Y770793D01*
X997778Y770751D01*
X997748Y770697D01*
X997723Y770631D01*
X997703Y770553D01*
X997689Y770463D01*
X997681Y770361D01*
X997678Y770247D01*
X997078D01*
X997075Y770361D01*
X997067Y770463D01*
X997053Y770553D01*
X997033Y770631D01*
X997008Y770697D01*
X996978Y770751D01*
X996941Y770793D01*
X996900Y770823D01*
X996852Y770841D01*
X996799Y770847D01*
X997956D01*
X997904Y770841D01*
D02*
G37*
G36*
X993967D02*
X993919Y770823D01*
X993877Y770793D01*
X993841Y770751D01*
X993811Y770697D01*
X993785Y770631D01*
X993766Y770553D01*
X993752Y770463D01*
X993744Y770361D01*
X993741Y770247D01*
X993141D01*
X993138Y770361D01*
X993130Y770463D01*
X993116Y770553D01*
X993096Y770631D01*
X993071Y770697D01*
X993041Y770751D01*
X993004Y770793D01*
X992963Y770823D01*
X992915Y770841D01*
X992862Y770847D01*
X994020D01*
X993967Y770841D01*
D02*
G37*
G36*
X991998D02*
X991951Y770823D01*
X991909Y770793D01*
X991873Y770751D01*
X991842Y770697D01*
X991817Y770631D01*
X991798Y770553D01*
X991784Y770463D01*
X991775Y770361D01*
X991772Y770247D01*
X991172D01*
X991170Y770361D01*
X991161Y770463D01*
X991147Y770553D01*
X991128Y770631D01*
X991103Y770697D01*
X991072Y770751D01*
X991036Y770793D01*
X990994Y770823D01*
X990947Y770841D01*
X990894Y770847D01*
X992051D01*
X991998Y770841D01*
D02*
G37*
G36*
X990030D02*
X989982Y770823D01*
X989940Y770793D01*
X989904Y770751D01*
X989874Y770697D01*
X989849Y770631D01*
X989829Y770553D01*
X989815Y770463D01*
X989807Y770361D01*
X989804Y770247D01*
X989204D01*
X989201Y770361D01*
X989193Y770463D01*
X989179Y770553D01*
X989159Y770631D01*
X989134Y770697D01*
X989104Y770751D01*
X989067Y770793D01*
X989026Y770823D01*
X988978Y770841D01*
X988925Y770847D01*
X990082D01*
X990030Y770841D01*
D02*
G37*
G36*
X988061D02*
X988014Y770823D01*
X987972Y770793D01*
X987936Y770751D01*
X987905Y770697D01*
X987880Y770631D01*
X987860Y770553D01*
X987847Y770463D01*
X987838Y770361D01*
X987835Y770247D01*
X987235D01*
X987233Y770361D01*
X987224Y770463D01*
X987210Y770553D01*
X987191Y770631D01*
X987166Y770697D01*
X987135Y770751D01*
X987099Y770793D01*
X987057Y770823D01*
X987010Y770841D01*
X986957Y770847D01*
X988114D01*
X988061Y770841D01*
D02*
G37*
G36*
X986093D02*
X986045Y770823D01*
X986003Y770793D01*
X985967Y770751D01*
X985937Y770697D01*
X985911Y770631D01*
X985892Y770553D01*
X985878Y770463D01*
X985870Y770361D01*
X985867Y770247D01*
X985267D01*
X985264Y770361D01*
X985256Y770463D01*
X985242Y770553D01*
X985222Y770631D01*
X985197Y770697D01*
X985167Y770751D01*
X985130Y770793D01*
X985089Y770823D01*
X985041Y770841D01*
X984988Y770847D01*
X986145D01*
X986093Y770841D01*
D02*
G37*
G36*
X982193Y770837D02*
X982180Y770807D01*
X982168Y770757D01*
X982158Y770687D01*
X982143Y770487D01*
X982130Y769847D01*
X981130D01*
X981129Y770037D01*
X981080Y770807D01*
X981066Y770837D01*
X981051Y770847D01*
X982209D01*
X982193Y770837D01*
D02*
G37*
G36*
X981450Y768581D02*
X981296Y768425D01*
X980845Y767910D01*
X980773Y767808D01*
X980717Y767717D01*
X980677Y767637D01*
X980653Y767568D01*
X980646Y767510D01*
X979671Y768484D01*
X979730Y768492D01*
X979799Y768515D01*
X979879Y768555D01*
X979970Y768612D01*
X980071Y768684D01*
X980307Y768877D01*
X980587Y769135D01*
X980742Y769288D01*
X981450Y768581D01*
D02*
G37*
G36*
X762462Y766434D02*
X762526Y765911D01*
X762635Y765396D01*
X762791Y764890D01*
X762992Y764391D01*
X763239Y763901D01*
X763532Y763418D01*
X763871Y762944D01*
X764256Y762478D01*
X764687Y762020D01*
X763980Y761313D01*
X763522Y761744D01*
X763056Y762129D01*
X762582Y762468D01*
X762099Y762761D01*
X761609Y763008D01*
X761110Y763209D01*
X760604Y763365D01*
X760089Y763474D01*
X759566Y763538D01*
X759034Y763555D01*
X762445Y766965D01*
X762462Y766434D01*
D02*
G37*
G36*
X767466Y746469D02*
X767481Y746297D01*
X767506Y746145D01*
X767541Y746013D01*
X767586Y745902D01*
X767641Y745811D01*
X767706Y745740D01*
X767781Y745690D01*
X767866Y745659D01*
X767961Y745649D01*
X765961D01*
X766056Y745659D01*
X766141Y745690D01*
X766216Y745740D01*
X766281Y745811D01*
X766336Y745902D01*
X766381Y746013D01*
X766416Y746145D01*
X766441Y746297D01*
X766456Y746469D01*
X766461Y746661D01*
X767461D01*
X767466Y746469D01*
D02*
G37*
G36*
X1095937Y745543D02*
X1095917Y745725D01*
X1095857Y745888D01*
X1095757Y746031D01*
X1095617Y746156D01*
X1095437Y746261D01*
X1095217Y746347D01*
X1094957Y746414D01*
X1094657Y746462D01*
X1094317Y746490D01*
X1093937Y746500D01*
Y748500D01*
X1094317Y748510D01*
X1094657Y748538D01*
X1094957Y748586D01*
X1095217Y748653D01*
X1095437Y748739D01*
X1095617Y748844D01*
X1095757Y748969D01*
X1095857Y749112D01*
X1095917Y749275D01*
X1095937Y749457D01*
Y745543D01*
D02*
G37*
G36*
X1091496Y749310D02*
X1091556Y749140D01*
X1091657Y748990D01*
X1091798Y748860D01*
X1091979Y748750D01*
X1092200Y748660D01*
X1092462Y748590D01*
X1092764Y748540D01*
X1093106Y748510D01*
X1093488Y748500D01*
Y746500D01*
X1093106Y746490D01*
X1092764Y746460D01*
X1092462Y746410D01*
X1092200Y746340D01*
X1091979Y746250D01*
X1091798Y746140D01*
X1091657Y746010D01*
X1091556Y745860D01*
X1091496Y745690D01*
X1091476Y745500D01*
Y749500D01*
X1091496Y749310D01*
D02*
G37*
G36*
X777120Y745452D02*
X776023D01*
X776022Y745452D01*
X776021Y745452D01*
X776020Y745453D01*
X776020Y745453D01*
X776019Y745453D01*
X776018Y745454D01*
X776017Y745454D01*
X776016Y745455D01*
X776016Y745455D01*
X776015Y745456D01*
X776581Y746021D01*
X777120Y745452D01*
D02*
G37*
G36*
X782476Y746325D02*
X782507Y746292D01*
X782546Y746264D01*
X782596Y746239D01*
X782655Y746218D01*
X782724Y746201D01*
X782802Y746187D01*
X782890Y746178D01*
X783094Y746170D01*
Y745570D01*
X782987Y745568D01*
X782802Y745553D01*
X782724Y745540D01*
X782655Y745522D01*
X782596Y745501D01*
X782546Y745476D01*
X782507Y745448D01*
X782476Y745415D01*
X782456Y745379D01*
Y746361D01*
X782476Y746325D01*
D02*
G37*
G36*
X774725Y746319D02*
X774763Y746281D01*
X774814Y746248D01*
X774878Y746219D01*
X774956Y746194D01*
X775046Y746174D01*
X775149Y746159D01*
X775266Y746147D01*
X775538Y746139D01*
Y745339D01*
X774700Y745379D01*
Y746361D01*
X774725Y746319D01*
D02*
G37*
G36*
X1102397Y745547D02*
X1102329Y745523D01*
X1102269Y745482D01*
X1102217Y745426D01*
X1102173Y745353D01*
X1102137Y745263D01*
X1102109Y745158D01*
X1102089Y745036D01*
X1102077Y744898D01*
X1102073Y744743D01*
X1101273D01*
X1101269Y744898D01*
X1101257Y745036D01*
X1101237Y745158D01*
X1101209Y745263D01*
X1101173Y745353D01*
X1101129Y745426D01*
X1101077Y745482D01*
X1101017Y745523D01*
X1100949Y745547D01*
X1100873Y745555D01*
X1102473D01*
X1102397Y745547D01*
D02*
G37*
G36*
X1098168Y746734D02*
X1098133Y746640D01*
X1098102Y746512D01*
X1098075Y746348D01*
X1098033Y745916D01*
X1098021Y745555D01*
X1098500D01*
X1098405Y745545D01*
X1098320Y745515D01*
X1098245Y745464D01*
X1098180Y745394D01*
X1098125Y745302D01*
X1098080Y745191D01*
X1098045Y745060D01*
X1098020Y744908D01*
X1098005Y744736D01*
X1098000Y744544D01*
X1097000D01*
X1096995Y744736D01*
X1096980Y744908D01*
X1096955Y745060D01*
X1096920Y745191D01*
X1096875Y745302D01*
X1096820Y745394D01*
X1096755Y745464D01*
X1096680Y745515D01*
X1096595Y745545D01*
X1096500Y745555D01*
X1096962D01*
X1096898Y746512D01*
X1096867Y746640D01*
X1096832Y746734D01*
X1096792Y746793D01*
X1098208D01*
X1098168Y746734D01*
D02*
G37*
G36*
X789216Y745690D02*
X789494Y745457D01*
X789627Y745362D01*
X789756Y745282D01*
X789882Y745217D01*
X790004Y745166D01*
X790123Y745130D01*
X790237Y745109D01*
X790348Y745103D01*
X789373Y744129D01*
X789367Y744240D01*
X789346Y744354D01*
X789310Y744472D01*
X789260Y744594D01*
X789195Y744720D01*
X789115Y744849D01*
X789020Y744983D01*
X788911Y745120D01*
X788648Y745405D01*
X789072Y745829D01*
X789216Y745690D01*
D02*
G37*
G36*
X777524Y744710D02*
X777570Y744079D01*
X777591Y743967D01*
X777615Y743874D01*
X777644Y743799D01*
X777677Y743742D01*
X777713Y743705D01*
X776531D01*
X776568Y743742D01*
X776600Y743799D01*
X776629Y743874D01*
X776653Y743967D01*
X776674Y744079D01*
X776691Y744209D01*
X776714Y744525D01*
X776722Y744914D01*
X777522D01*
X777524Y744710D01*
D02*
G37*
G36*
X778878Y744626D02*
X778902Y744558D01*
X778943Y744498D01*
X779000Y744446D01*
X779073Y744402D01*
X779162Y744366D01*
X779268Y744338D01*
X779315Y744330D01*
X779392Y744334D01*
X779453Y744346D01*
X779498Y744360D01*
X779529Y744375D01*
X779544Y744393D01*
Y744305D01*
X779682Y744302D01*
Y743502D01*
X779544Y743498D01*
Y743410D01*
X779529Y743428D01*
X779498Y743443D01*
X779453Y743457D01*
X779392Y743469D01*
X779334Y743476D01*
X779268Y743466D01*
X779162Y743438D01*
X779073Y743402D01*
X779000Y743358D01*
X778943Y743306D01*
X778902Y743246D01*
X778878Y743178D01*
X778870Y743102D01*
Y743498D01*
X778707Y743502D01*
Y744302D01*
X778859Y744303D01*
X778870Y744303D01*
Y744702D01*
X778878Y744626D01*
D02*
G37*
G36*
X1070201Y744548D02*
X1070101Y744512D01*
X1070013Y744453D01*
X1069937Y744371D01*
X1069872Y744266D01*
X1069819Y744136D01*
X1069778Y743984D01*
X1069749Y743807D01*
X1069731Y743608D01*
X1069725Y743384D01*
X1068550D01*
X1068544Y743608D01*
X1068527Y743807D01*
X1068497Y743984D01*
X1068456Y744136D01*
X1068403Y744266D01*
X1068339Y744371D01*
X1068262Y744453D01*
X1068174Y744512D01*
X1068074Y744548D01*
X1067963Y744559D01*
X1070313D01*
X1070201Y744548D01*
D02*
G37*
G36*
X1057555Y744245D02*
X1057752Y744246D01*
X1058715Y744310D01*
X1058766Y744327D01*
X1058797Y744347D01*
Y742969D01*
X1058766Y742988D01*
X1058715Y743005D01*
X1058641Y743020D01*
X1058547Y743033D01*
X1058293Y743054D01*
X1057555Y743069D01*
Y742483D01*
X1057544Y742594D01*
X1057508Y742694D01*
X1057449Y742782D01*
X1057366Y742859D01*
X1057259Y742923D01*
X1057128Y742976D01*
X1056974Y743017D01*
X1056796Y743047D01*
X1056594Y743064D01*
X1056369Y743070D01*
Y744245D01*
X1056594Y744251D01*
X1056796Y744269D01*
X1056974Y744298D01*
X1057128Y744339D01*
X1057259Y744392D01*
X1057366Y744456D01*
X1057449Y744533D01*
X1057508Y744621D01*
X1057544Y744721D01*
X1057555Y744833D01*
Y744245D01*
D02*
G37*
G36*
X768522Y744775D02*
X768552Y744690D01*
X768603Y744615D01*
X768673Y744550D01*
X768764Y744495D01*
X768876Y744450D01*
X769007Y744415D01*
X769159Y744390D01*
X769331Y744375D01*
X769523Y744370D01*
Y743370D01*
X769331Y743365D01*
X769159Y743350D01*
X769007Y743325D01*
X768876Y743290D01*
X768764Y743245D01*
X768673Y743190D01*
X768603Y743125D01*
X768552Y743050D01*
X768522Y742965D01*
X768511Y742870D01*
Y744870D01*
X768522Y744775D01*
D02*
G37*
G36*
X773746Y743384D02*
X774244D01*
X774149Y743374D01*
X774064Y743344D01*
X773989Y743293D01*
X773924Y743222D01*
X773869Y743131D01*
X773824Y743020D01*
X773797Y742917D01*
X773824Y742815D01*
X773869Y742703D01*
X773924Y742612D01*
X773989Y742542D01*
X774064Y742491D01*
X774149Y742461D01*
X774244Y742451D01*
X773746D01*
X773744Y742372D01*
X772744D01*
X772742Y742451D01*
X772244D01*
X772339Y742461D01*
X772424Y742491D01*
X772499Y742542D01*
X772564Y742612D01*
X772619Y742703D01*
X772664Y742815D01*
X772691Y742917D01*
X772664Y743020D01*
X772619Y743131D01*
X772564Y743222D01*
X772499Y743293D01*
X772424Y743344D01*
X772339Y743374D01*
X772244Y743384D01*
X772742D01*
X772744Y743463D01*
X773744D01*
X773746Y743384D01*
D02*
G37*
G36*
X782476Y742388D02*
X782507Y742355D01*
X782546Y742327D01*
X782596Y742302D01*
X782655Y742281D01*
X782724Y742264D01*
X782802Y742250D01*
X782890Y742241D01*
X783094Y742233D01*
Y741633D01*
X782987Y741631D01*
X782802Y741616D01*
X782724Y741603D01*
X782655Y741585D01*
X782596Y741564D01*
X782546Y741539D01*
X782507Y741511D01*
X782476Y741478D01*
X782456Y741442D01*
Y742424D01*
X782476Y742388D01*
D02*
G37*
G36*
X777756Y742150D02*
X777707Y742069D01*
X777664Y741971D01*
X777626Y741858D01*
X777594Y741728D01*
X777568Y741583D01*
X777534Y741242D01*
X777525Y741048D01*
X777522Y740837D01*
X776722D01*
X776719Y741048D01*
X776676Y741583D01*
X776650Y741728D01*
X776618Y741858D01*
X776580Y741971D01*
X776537Y742069D01*
X776488Y742150D01*
X776433Y742214D01*
X777811D01*
X777756Y742150D01*
D02*
G37*
G36*
X1069731Y741111D02*
X1069749Y740909D01*
X1069778Y740731D01*
X1069819Y740577D01*
X1069872Y740446D01*
X1069937Y740339D01*
X1070013Y740256D01*
X1070101Y740197D01*
X1070201Y740161D01*
X1070313Y740149D01*
X1067963D01*
X1068074Y740161D01*
X1068174Y740197D01*
X1068262Y740256D01*
X1068339Y740339D01*
X1068403Y740446D01*
X1068456Y740577D01*
X1068497Y740731D01*
X1068527Y740909D01*
X1068544Y741111D01*
X1068550Y741336D01*
X1069725D01*
X1069731Y741111D01*
D02*
G37*
G36*
X776379Y740370D02*
X777476D01*
X777474Y740365D01*
X777460Y740348D01*
X777398Y740281D01*
X776936Y739813D01*
X776379Y740370D01*
X776376Y740370D01*
X776373Y740371D01*
X776371Y740371D01*
X776369Y740372D01*
X776368Y740372D01*
X776368Y740373D01*
X776368Y740375D01*
X776368Y740376D01*
X776369Y740377D01*
X776371Y740379D01*
X776379Y740370D01*
D02*
G37*
G36*
X782477Y740417D02*
X782505Y740382D01*
X782541Y740351D01*
X782585Y740324D01*
X782636Y740301D01*
X782695Y740283D01*
X782762Y740269D01*
X782836Y740258D01*
X782918Y740252D01*
X783008Y740250D01*
Y739650D01*
X782916Y739648D01*
X782757Y739634D01*
X782690Y739622D01*
X782630Y739606D01*
X782579Y739586D01*
X782536Y739564D01*
X782501Y739537D01*
X782474Y739507D01*
X782456Y739473D01*
Y740456D01*
X782477Y740417D01*
D02*
G37*
G36*
X775538Y739696D02*
X775395Y739694D01*
X775149Y739676D01*
X775046Y739660D01*
X774956Y739640D01*
X774878Y739616D01*
X774814Y739587D01*
X774763Y739554D01*
X774725Y739516D01*
X774700Y739473D01*
Y740456D01*
X774705Y740463D01*
X774728Y740470D01*
X774768Y740476D01*
X774826Y740482D01*
X775231Y740494D01*
X775538Y740496D01*
Y739696D01*
D02*
G37*
G36*
X1067685Y737168D02*
X1067673Y737279D01*
X1067638Y737379D01*
X1067579Y737467D01*
X1067496Y737543D01*
X1067389Y737608D01*
X1067258Y737661D01*
X1067104Y737702D01*
X1066926Y737732D01*
X1066724Y737749D01*
X1066498Y737755D01*
Y738930D01*
X1066724Y738936D01*
X1066926Y738953D01*
X1067104Y738983D01*
X1067258Y739024D01*
X1067389Y739077D01*
X1067496Y739142D01*
X1067579Y739218D01*
X1067638Y739306D01*
X1067673Y739406D01*
X1067685Y739517D01*
Y737168D01*
D02*
G37*
G36*
X1061456Y739406D02*
X1061492Y739306D01*
X1061551Y739218D01*
X1061634Y739142D01*
X1061741Y739077D01*
X1061872Y739024D01*
X1062026Y738983D01*
X1062204Y738953D01*
X1062406Y738936D01*
X1062632Y738930D01*
Y737755D01*
X1062406Y737749D01*
X1062204Y737732D01*
X1062026Y737702D01*
X1061872Y737661D01*
X1061741Y737608D01*
X1061634Y737543D01*
X1061551Y737467D01*
X1061492Y737379D01*
X1061456Y737279D01*
X1061444Y737168D01*
Y739517D01*
X1061456Y739406D01*
D02*
G37*
G36*
X1057555Y737168D02*
X1057544Y737279D01*
X1057508Y737379D01*
X1057449Y737467D01*
X1057366Y737543D01*
X1057259Y737608D01*
X1057128Y737661D01*
X1056974Y737702D01*
X1056796Y737732D01*
X1056594Y737749D01*
X1056369Y737755D01*
Y738930D01*
X1056594Y738936D01*
X1056796Y738953D01*
X1056974Y738983D01*
X1057128Y739024D01*
X1057259Y739077D01*
X1057366Y739142D01*
X1057449Y739218D01*
X1057508Y739306D01*
X1057544Y739406D01*
X1057555Y739517D01*
Y737168D01*
D02*
G37*
G36*
X1074767Y736841D02*
X1074682Y736810D01*
X1074607Y736760D01*
X1074542Y736689D01*
X1074487Y736598D01*
X1074442Y736486D01*
X1074407Y736355D01*
X1074382Y736203D01*
X1074367Y736031D01*
X1074362Y735839D01*
X1073362D01*
X1073357Y736031D01*
X1073342Y736203D01*
X1073317Y736355D01*
X1073282Y736486D01*
X1073237Y736598D01*
X1073182Y736689D01*
X1073117Y736760D01*
X1073042Y736810D01*
X1072957Y736841D01*
X1072862Y736851D01*
X1074862D01*
X1074767Y736841D01*
D02*
G37*
G36*
X1090991Y734905D02*
X1091014Y734813D01*
X1091052Y734714D01*
X1091105Y734607D01*
X1091175Y734493D01*
X1091259Y734372D01*
X1091475Y734106D01*
X1091607Y733963D01*
X1091754Y733812D01*
X1091188Y733246D01*
X1091037Y733393D01*
X1090628Y733741D01*
X1090507Y733825D01*
X1090393Y733895D01*
X1090286Y733948D01*
X1090187Y733986D01*
X1090094Y734009D01*
X1090010Y734016D01*
X1090984Y734990D01*
X1090991Y734905D01*
D02*
G37*
G36*
X1093231Y731596D02*
X1093243Y731458D01*
X1093263Y731337D01*
X1093291Y731231D01*
X1093327Y731142D01*
X1093371Y731069D01*
X1093423Y731012D01*
X1093483Y730971D01*
X1093551Y730947D01*
X1093627Y730939D01*
X1092027D01*
X1092103Y730947D01*
X1092171Y730971D01*
X1092231Y731012D01*
X1092283Y731069D01*
X1092327Y731142D01*
X1092363Y731231D01*
X1092391Y731337D01*
X1092411Y731458D01*
X1092423Y731596D01*
X1092427Y731751D01*
X1093227D01*
X1093231Y731596D01*
D02*
G37*
G36*
X1081807Y732732D02*
X1081758Y732651D01*
X1081715Y732554D01*
X1081677Y732441D01*
X1081645Y732311D01*
X1081619Y732165D01*
X1081585Y731825D01*
X1081576Y731634D01*
X1081577Y731596D01*
X1081589Y731458D01*
X1081609Y731337D01*
X1081637Y731231D01*
X1081673Y731142D01*
X1081717Y731069D01*
X1081769Y731012D01*
X1081829Y730971D01*
X1081897Y730947D01*
X1081973Y730939D01*
X1080373D01*
X1080449Y730947D01*
X1080517Y730971D01*
X1080577Y731012D01*
X1080629Y731069D01*
X1080673Y731142D01*
X1080709Y731231D01*
X1080737Y731337D01*
X1080757Y731458D01*
X1080769Y731596D01*
X1080770Y731633D01*
X1080727Y732165D01*
X1080701Y732311D01*
X1080669Y732441D01*
X1080632Y732554D01*
X1080588Y732651D01*
X1080539Y732732D01*
X1080484Y732797D01*
X1081862D01*
X1081807Y732732D01*
D02*
G37*
G36*
X1045107Y731227D02*
X1045116Y731125D01*
X1045131Y731035D01*
X1045152Y730957D01*
X1045179Y730891D01*
X1045212Y730837D01*
X1045251Y730795D01*
X1045296Y730765D01*
X1045347Y730747D01*
X1045404Y730741D01*
X1044204D01*
X1044261Y730747D01*
X1044312Y730765D01*
X1044357Y730795D01*
X1044396Y730837D01*
X1044429Y730891D01*
X1044456Y730957D01*
X1044477Y731035D01*
X1044492Y731125D01*
X1044501Y731227D01*
X1044504Y731341D01*
X1045104D01*
X1045107Y731227D01*
D02*
G37*
G36*
X1041705D02*
X1041714Y731125D01*
X1041729Y731035D01*
X1041750Y730957D01*
X1041777Y730891D01*
X1041810Y730837D01*
X1041849Y730795D01*
X1041894Y730765D01*
X1041945Y730747D01*
X1042002Y730741D01*
X1040802D01*
X1040859Y730747D01*
X1040910Y730765D01*
X1040955Y730795D01*
X1040994Y730837D01*
X1041027Y730891D01*
X1041054Y730957D01*
X1041075Y731035D01*
X1041090Y731125D01*
X1041099Y731227D01*
X1041102Y731341D01*
X1041702D01*
X1041705Y731227D01*
D02*
G37*
G36*
X1038303D02*
X1038312Y731125D01*
X1038327Y731035D01*
X1038348Y730957D01*
X1038375Y730891D01*
X1038408Y730837D01*
X1038447Y730795D01*
X1038492Y730765D01*
X1038543Y730747D01*
X1038600Y730741D01*
X1037400D01*
X1037457Y730747D01*
X1037508Y730765D01*
X1037553Y730795D01*
X1037592Y730837D01*
X1037625Y730891D01*
X1037652Y730957D01*
X1037673Y731035D01*
X1037688Y731125D01*
X1037697Y731227D01*
X1037700Y731341D01*
X1038300D01*
X1038303Y731227D01*
D02*
G37*
G36*
X1081897Y729896D02*
X1081829Y729871D01*
X1081769Y729831D01*
X1081717Y729774D01*
X1081673Y729701D01*
X1081637Y729611D01*
X1081609Y729506D01*
X1081598Y729437D01*
X1081609Y729368D01*
X1081637Y729262D01*
X1081673Y729173D01*
X1081717Y729100D01*
X1081769Y729043D01*
X1081829Y729003D01*
X1081897Y728978D01*
X1081973Y728970D01*
X1080373D01*
X1080449Y728978D01*
X1080517Y729003D01*
X1080577Y729043D01*
X1080629Y729100D01*
X1080673Y729173D01*
X1080709Y729262D01*
X1080737Y729368D01*
X1080749Y729437D01*
X1080737Y729506D01*
X1080709Y729611D01*
X1080673Y729701D01*
X1080629Y729774D01*
X1080577Y729831D01*
X1080517Y729871D01*
X1080449Y729896D01*
X1080373Y729904D01*
X1081973D01*
X1081897Y729896D01*
D02*
G37*
G36*
Y727927D02*
X1081829Y727903D01*
X1081769Y727862D01*
X1081717Y727805D01*
X1081673Y727732D01*
X1081637Y727643D01*
X1081609Y727537D01*
X1081598Y727468D01*
X1081609Y727400D01*
X1081637Y727294D01*
X1081673Y727205D01*
X1081717Y727132D01*
X1081769Y727075D01*
X1081829Y727034D01*
X1081897Y727010D01*
X1081973Y727002D01*
X1080373D01*
X1080449Y727010D01*
X1080517Y727034D01*
X1080577Y727075D01*
X1080629Y727132D01*
X1080673Y727205D01*
X1080709Y727294D01*
X1080737Y727400D01*
X1080749Y727468D01*
X1080737Y727537D01*
X1080709Y727643D01*
X1080673Y727732D01*
X1080629Y727805D01*
X1080577Y727862D01*
X1080517Y727903D01*
X1080449Y727927D01*
X1080373Y727935D01*
X1081973D01*
X1081897Y727927D01*
D02*
G37*
G36*
X1102077Y727610D02*
X1102089Y727472D01*
X1102109Y727350D01*
X1102137Y727245D01*
X1102173Y727155D01*
X1102217Y727082D01*
X1102269Y727026D01*
X1102329Y726985D01*
X1102397Y726961D01*
X1102473Y726952D01*
X1100873D01*
X1100949Y726961D01*
X1101017Y726985D01*
X1101077Y727026D01*
X1101129Y727082D01*
X1101173Y727155D01*
X1101209Y727245D01*
X1101237Y727350D01*
X1101257Y727472D01*
X1101269Y727610D01*
X1101273Y727764D01*
X1102073D01*
X1102077Y727610D01*
D02*
G37*
G36*
X1093329Y727935D02*
X1093827D01*
X1093732Y727925D01*
X1093647Y727895D01*
X1093572Y727844D01*
X1093507Y727773D01*
X1093452Y727682D01*
X1093407Y727571D01*
X1093379Y727468D01*
X1093407Y727366D01*
X1093452Y727255D01*
X1093507Y727164D01*
X1093572Y727093D01*
X1093647Y727042D01*
X1093732Y727012D01*
X1093827Y727002D01*
X1093329D01*
X1093327Y726923D01*
X1092327D01*
X1092325Y727002D01*
X1091827D01*
X1091922Y727012D01*
X1092007Y727042D01*
X1092082Y727093D01*
X1092147Y727164D01*
X1092202Y727255D01*
X1092247Y727366D01*
X1092274Y727468D01*
X1092247Y727571D01*
X1092202Y727682D01*
X1092147Y727773D01*
X1092082Y727844D01*
X1092007Y727895D01*
X1091922Y727925D01*
X1091827Y727935D01*
X1092325D01*
X1092327Y728014D01*
X1093327D01*
X1093329Y727935D01*
D02*
G37*
G36*
X1077615Y727714D02*
X1077549Y727619D01*
X1077491Y727510D01*
X1077440Y727388D01*
X1077397Y727253D01*
X1077362Y727105D01*
X1077335Y726943D01*
X1077316Y726769D01*
X1077300Y726381D01*
X1076700D01*
X1076696Y726582D01*
X1076665Y726943D01*
X1076638Y727105D01*
X1076603Y727253D01*
X1076560Y727388D01*
X1076509Y727510D01*
X1076451Y727619D01*
X1076385Y727714D01*
X1076311Y727797D01*
X1077689D01*
X1077615Y727714D01*
D02*
G37*
G36*
X1074367Y725469D02*
X1074382Y725297D01*
X1074407Y725145D01*
X1074442Y725014D01*
X1074487Y724902D01*
X1074542Y724811D01*
X1074607Y724740D01*
X1074682Y724690D01*
X1074767Y724659D01*
X1074862Y724649D01*
X1072862D01*
X1072957Y724659D01*
X1073042Y724690D01*
X1073117Y724740D01*
X1073182Y724811D01*
X1073237Y724902D01*
X1073282Y725014D01*
X1073317Y725145D01*
X1073342Y725297D01*
X1073357Y725469D01*
X1073362Y725661D01*
X1074362D01*
X1074367Y725469D01*
D02*
G37*
G36*
X1094534Y724990D02*
X1094565Y724974D01*
X1094610Y724960D01*
X1094671Y724949D01*
X1094747Y724938D01*
X1094945Y724924D01*
X1095356Y724916D01*
Y724116D01*
X1095204Y724115D01*
X1094671Y724083D01*
X1094610Y724071D01*
X1094565Y724057D01*
X1094534Y724042D01*
X1094519Y724025D01*
Y725007D01*
X1094534Y724990D01*
D02*
G37*
G36*
X1079481Y724025D02*
X1079461Y724061D01*
X1079430Y724093D01*
X1079391Y724122D01*
X1079341Y724147D01*
X1079282Y724168D01*
X1079214Y724185D01*
X1079135Y724198D01*
X1079047Y724208D01*
X1078843Y724216D01*
Y724816D01*
X1078950Y724818D01*
X1079135Y724833D01*
X1079214Y724846D01*
X1079282Y724863D01*
X1079341Y724885D01*
X1079391Y724909D01*
X1079430Y724938D01*
X1079461Y724971D01*
X1079481Y725007D01*
Y724025D01*
D02*
G37*
G36*
X1099729Y723716D02*
X1099721Y723792D01*
X1099696Y723860D01*
X1099656Y723920D01*
X1099599Y723972D01*
X1099526Y724016D01*
X1099436Y724052D01*
X1099331Y724080D01*
X1099209Y724100D01*
X1099071Y724112D01*
X1098917Y724116D01*
Y724916D01*
X1099071Y724920D01*
X1099209Y724932D01*
X1099331Y724952D01*
X1099436Y724980D01*
X1099526Y725016D01*
X1099599Y725060D01*
X1099656Y725112D01*
X1099696Y725172D01*
X1099721Y725240D01*
X1099729Y725316D01*
Y723716D01*
D02*
G37*
G36*
X1046031Y723077D02*
X1045955Y723076D01*
X1045776Y723062D01*
X1045733Y723053D01*
X1045697Y723042D01*
X1045669Y723030D01*
X1045650Y723015D01*
X1045638Y722999D01*
X1045634Y722980D01*
Y723677D01*
X1046031D01*
Y723077D01*
D02*
G37*
G36*
X1075325Y723452D02*
X1075355Y723367D01*
X1075406Y723292D01*
X1075476Y723227D01*
X1075568Y723172D01*
X1075679Y723127D01*
X1075811Y723092D01*
X1075962Y723067D01*
X1076134Y723052D01*
X1076327Y723047D01*
Y722047D01*
X1076134Y722042D01*
X1075962Y722027D01*
X1075811Y722002D01*
X1075679Y721967D01*
X1075568Y721922D01*
X1075476Y721867D01*
X1075406Y721802D01*
X1075355Y721727D01*
X1075325Y721642D01*
X1075315Y721547D01*
Y723547D01*
X1075325Y723452D01*
D02*
G37*
G36*
X1081586Y720053D02*
X1081518Y720029D01*
X1081458Y719988D01*
X1081406Y719931D01*
X1081362Y719858D01*
X1081326Y719769D01*
X1081298Y719663D01*
X1081278Y719542D01*
X1081266Y719404D01*
X1081262Y719249D01*
X1080462D01*
X1080458Y719404D01*
X1080446Y719542D01*
X1080426Y719663D01*
X1080398Y719769D01*
X1080362Y719858D01*
X1080318Y719931D01*
X1080266Y719988D01*
X1080206Y720029D01*
X1080138Y720053D01*
X1080062Y720061D01*
X1081662D01*
X1081586Y720053D01*
D02*
G37*
G36*
X1093732Y720051D02*
X1093647Y720021D01*
X1093572Y719970D01*
X1093507Y719899D01*
X1093452Y719808D01*
X1093407Y719697D01*
X1093372Y719565D01*
X1093347Y719414D01*
X1093332Y719242D01*
X1093327Y719049D01*
X1092327D01*
X1092322Y719242D01*
X1092307Y719414D01*
X1092282Y719565D01*
X1092247Y719697D01*
X1092202Y719808D01*
X1092147Y719899D01*
X1092082Y719970D01*
X1092007Y720021D01*
X1091922Y720051D01*
X1091827Y720061D01*
X1093827D01*
X1093732Y720051D01*
D02*
G37*
G36*
X1093332Y717552D02*
X1093347Y717380D01*
X1093372Y717228D01*
X1093407Y717096D01*
X1093452Y716985D01*
X1093507Y716894D01*
X1093572Y716823D01*
X1093647Y716772D01*
X1093732Y716742D01*
X1093827Y716732D01*
X1091827D01*
X1091922Y716742D01*
X1092007Y716772D01*
X1092082Y716823D01*
X1092147Y716894D01*
X1092202Y716985D01*
X1092247Y717096D01*
X1092282Y717228D01*
X1092307Y717380D01*
X1092322Y717552D01*
X1092327Y717744D01*
X1093327D01*
X1093332Y717552D01*
D02*
G37*
G36*
X1081266Y716331D02*
X1081278Y716192D01*
X1081298Y716071D01*
X1081326Y715965D01*
X1081362Y715876D01*
X1081406Y715803D01*
X1081458Y715746D01*
X1081518Y715705D01*
X1081586Y715681D01*
X1081662Y715673D01*
X1080062D01*
X1080138Y715681D01*
X1080206Y715705D01*
X1080266Y715746D01*
X1080318Y715803D01*
X1080362Y715876D01*
X1080398Y715965D01*
X1080426Y716071D01*
X1080446Y716192D01*
X1080458Y716331D01*
X1080462Y716485D01*
X1081262D01*
X1081266Y716331D01*
D02*
G37*
G36*
X952097Y715464D02*
X952099Y715254D01*
X952151Y714566D01*
X952176Y714432D01*
X952204Y714314D01*
X952237Y714211D01*
X952274Y714123D01*
X952316Y714051D01*
X950965Y714326D01*
X951029Y714378D01*
X951085Y714448D01*
X951134Y714535D01*
X951178Y714640D01*
X951214Y714763D01*
X951244Y714904D01*
X951267Y715062D01*
X951293Y715432D01*
X951297Y715644D01*
X952097Y715464D01*
D02*
G37*
G36*
X1074673Y713224D02*
X1074665Y713300D01*
X1074641Y713368D01*
X1074601Y713428D01*
X1074545Y713480D01*
X1074473Y713524D01*
X1074385Y713560D01*
X1074281Y713588D01*
X1074161Y713608D01*
X1074025Y713620D01*
X1073873Y713624D01*
Y714424D01*
X1074025Y714428D01*
X1074161Y714440D01*
X1074281Y714460D01*
X1074385Y714488D01*
X1074473Y714524D01*
X1074545Y714568D01*
X1074601Y714620D01*
X1074641Y714680D01*
X1074665Y714748D01*
X1074673Y714824D01*
Y713224D01*
D02*
G37*
G36*
X1071693Y714748D02*
X1071717Y714680D01*
X1071758Y714620D01*
X1071815Y714568D01*
X1071888Y714524D01*
X1071977Y714488D01*
X1072083Y714460D01*
X1072204Y714440D01*
X1072342Y714428D01*
X1072497Y714424D01*
Y713624D01*
X1072342Y713620D01*
X1072204Y713608D01*
X1072083Y713588D01*
X1071977Y713560D01*
X1071888Y713524D01*
X1071815Y713480D01*
X1071758Y713428D01*
X1071717Y713368D01*
X1071693Y713300D01*
X1071685Y713224D01*
Y714824D01*
X1071693Y714748D01*
D02*
G37*
G36*
X817720Y712906D02*
X817801Y712857D01*
X817899Y712813D01*
X818012Y712776D01*
X818142Y712744D01*
X818287Y712718D01*
X818628Y712683D01*
X818822Y712675D01*
X819033Y712672D01*
Y711872D01*
X818822Y711869D01*
X818287Y711825D01*
X818142Y711799D01*
X818012Y711768D01*
X817899Y711730D01*
X817801Y711687D01*
X817720Y711638D01*
X817656Y711583D01*
Y712961D01*
X817720Y712906D01*
D02*
G37*
G36*
X1046173Y702242D02*
X1046207Y701881D01*
X1046236Y701723D01*
X1046274Y701579D01*
X1046320Y701449D01*
X1046375Y701335D01*
X1046437Y701235D01*
X1046508Y701149D01*
X1046588Y701078D01*
X1045221Y700906D01*
X1045287Y701000D01*
X1045346Y701105D01*
X1045399Y701222D01*
X1045444Y701350D01*
X1045482Y701490D01*
X1045514Y701642D01*
X1045538Y701805D01*
X1045566Y702167D01*
X1045569Y702365D01*
X1046169Y702444D01*
X1046173Y702242D01*
D02*
G37*
G36*
X1072840Y687986D02*
X1072948Y687939D01*
X1073068Y687897D01*
X1073198Y687861D01*
X1073340Y687831D01*
X1073658Y687786D01*
X1073834Y687772D01*
X1074220Y687761D01*
X1074395Y687161D01*
X1074191Y687157D01*
X1073833Y687122D01*
X1073678Y687091D01*
X1073539Y687051D01*
X1073417Y687003D01*
X1073311Y686946D01*
X1073221Y686880D01*
X1073148Y686806D01*
X1073091Y686722D01*
X1072744Y688039D01*
X1072840Y687986D01*
D02*
G37*
G36*
X1078136Y685807D02*
X1078233Y685742D01*
X1078343Y685685D01*
X1078466Y685635D01*
X1078602Y685593D01*
X1078751Y685558D01*
X1078913Y685531D01*
X1079087Y685512D01*
X1079474Y685497D01*
X1079487Y684897D01*
X1079286Y684893D01*
X1078925Y684861D01*
X1078764Y684834D01*
X1078617Y684798D01*
X1078482Y684755D01*
X1078362Y684703D01*
X1078254Y684644D01*
X1078160Y684577D01*
X1078079Y684502D01*
X1078051Y685880D01*
X1078136Y685807D01*
D02*
G37*
G36*
X994057Y684430D02*
X994290Y684231D01*
X994390Y684159D01*
X994481Y684106D01*
X994560Y684072D01*
X994629Y684056D01*
X994688Y684059D01*
X994736Y684081D01*
X994774Y684122D01*
X994115Y683108D01*
X994137Y683163D01*
X994141Y683230D01*
X994124Y683308D01*
X994089Y683398D01*
X994034Y683498D01*
X993959Y683610D01*
X993865Y683733D01*
X993619Y684012D01*
X993466Y684169D01*
X993925Y684558D01*
X994057Y684430D01*
D02*
G37*
G36*
X1029561Y680239D02*
X1029570Y680137D01*
X1029585Y680047D01*
X1029606Y679969D01*
X1029633Y679903D01*
X1029666Y679849D01*
X1029705Y679807D01*
X1029750Y679777D01*
X1029801Y679759D01*
X1029858Y679753D01*
X1028658D01*
X1028715Y679759D01*
X1028766Y679777D01*
X1028811Y679807D01*
X1028850Y679849D01*
X1028883Y679903D01*
X1028910Y679969D01*
X1028931Y680047D01*
X1028946Y680137D01*
X1028955Y680239D01*
X1028958Y680353D01*
X1029558D01*
X1029561Y680239D01*
D02*
G37*
G36*
X1012303D02*
X1012312Y680137D01*
X1012327Y680047D01*
X1012348Y679969D01*
X1012375Y679903D01*
X1012408Y679849D01*
X1012447Y679807D01*
X1012492Y679777D01*
X1012543Y679759D01*
X1012600Y679753D01*
X1011400D01*
X1011457Y679759D01*
X1011508Y679777D01*
X1011553Y679807D01*
X1011592Y679849D01*
X1011625Y679903D01*
X1011652Y679969D01*
X1011673Y680047D01*
X1011688Y680137D01*
X1011697Y680239D01*
X1011700Y680353D01*
X1012300D01*
X1012303Y680239D01*
D02*
G37*
G36*
X1009492D02*
X1009501Y680137D01*
X1009516Y680047D01*
X1009537Y679969D01*
X1009564Y679903D01*
X1009597Y679849D01*
X1009636Y679807D01*
X1009681Y679777D01*
X1009732Y679759D01*
X1009789Y679753D01*
X1008823D01*
X1008836Y679759D01*
X1008847Y679777D01*
X1008857Y679807D01*
X1008865Y679849D01*
X1008873Y679903D01*
X1008883Y680047D01*
X1008889Y680353D01*
X1009489D01*
X1009492Y680239D01*
D02*
G37*
G36*
X1026599Y680234D02*
X1026608Y680132D01*
X1026623Y680042D01*
X1026644Y679964D01*
X1026671Y679898D01*
X1026704Y679844D01*
X1026743Y679802D01*
X1026788Y679772D01*
X1026839Y679754D01*
X1026896Y679748D01*
X1025696D01*
X1025753Y679754D01*
X1025804Y679772D01*
X1025849Y679802D01*
X1025888Y679844D01*
X1025921Y679898D01*
X1025948Y679964D01*
X1025969Y680042D01*
X1025984Y680132D01*
X1025993Y680234D01*
X1025996Y680348D01*
X1026596D01*
X1026599Y680234D01*
D02*
G37*
G36*
X991775Y678662D02*
X991784Y678558D01*
X991799Y678467D01*
X991820Y678388D01*
X991847Y678321D01*
X991880Y678265D01*
X991919Y678222D01*
X991964Y678191D01*
X992015Y678172D01*
X992072Y678165D01*
X991366Y678177D01*
X991172Y678777D01*
X991772D01*
X991775Y678662D01*
D02*
G37*
G36*
X991366Y673558D02*
X991360Y673615D01*
X991342Y673666D01*
X991312Y673710D01*
X991270Y673749D01*
X991216Y673782D01*
X991150Y673809D01*
X991072Y673831D01*
X990982Y673845D01*
X990880Y673854D01*
X990766Y673857D01*
Y674458D01*
X990880Y674461D01*
X990982Y674470D01*
X991072Y674484D01*
X991150Y674506D01*
X991216Y674533D01*
X991270Y674566D01*
X991312Y674605D01*
X991342Y674649D01*
X991360Y674700D01*
X991366Y674757D01*
Y673558D01*
D02*
G37*
G36*
Y670215D02*
X991360Y670272D01*
X991342Y670323D01*
X991312Y670368D01*
X991270Y670407D01*
X991216Y670440D01*
X991150Y670467D01*
X991072Y670488D01*
X990982Y670503D01*
X990880Y670512D01*
X990766Y670515D01*
Y671115D01*
X990880Y671118D01*
X990982Y671127D01*
X991072Y671142D01*
X991150Y671163D01*
X991216Y671190D01*
X991270Y671223D01*
X991312Y671262D01*
X991342Y671307D01*
X991360Y671358D01*
X991366Y671415D01*
Y670215D01*
D02*
G37*
G36*
Y666872D02*
X991360Y666929D01*
X991342Y666980D01*
X991312Y667025D01*
X991270Y667064D01*
X991216Y667097D01*
X991150Y667124D01*
X991072Y667145D01*
X990982Y667160D01*
X990880Y667169D01*
X990766Y667172D01*
Y667772D01*
X990880Y667775D01*
X990982Y667784D01*
X991072Y667799D01*
X991150Y667820D01*
X991216Y667847D01*
X991270Y667880D01*
X991312Y667919D01*
X991342Y667964D01*
X991360Y668015D01*
X991366Y668072D01*
Y666872D01*
D02*
G37*
G36*
X1047366Y664900D02*
X1047360Y664957D01*
X1047342Y665008D01*
X1047312Y665053D01*
X1047270Y665092D01*
X1047216Y665125D01*
X1047150Y665152D01*
X1047072Y665173D01*
X1046982Y665188D01*
X1046880Y665197D01*
X1046766Y665200D01*
Y665800D01*
X1046880Y665803D01*
X1046982Y665812D01*
X1047072Y665827D01*
X1047150Y665848D01*
X1047216Y665875D01*
X1047270Y665908D01*
X1047312Y665947D01*
X1047342Y665992D01*
X1047360Y666043D01*
X1047366Y666100D01*
Y664900D01*
D02*
G37*
G36*
Y660993D02*
X1047360Y661050D01*
X1047342Y661101D01*
X1047312Y661146D01*
X1047270Y661185D01*
X1047216Y661218D01*
X1047150Y661245D01*
X1047072Y661266D01*
X1046982Y661281D01*
X1046880Y661290D01*
X1046766Y661293D01*
Y661893D01*
X1046880Y661896D01*
X1046982Y661904D01*
X1047072Y661918D01*
X1047150Y661938D01*
X1047216Y661964D01*
X1047270Y661995D01*
X1047312Y662032D01*
X1047342Y662075D01*
X1047360Y662123D01*
X1047366Y662177D01*
Y660993D01*
D02*
G37*
G36*
X997680Y659218D02*
X997694Y659026D01*
X997706Y658948D01*
X997722Y658882D01*
X997741Y658828D01*
X997764Y658786D01*
X997791Y658756D01*
X997821Y658738D01*
X997854Y658732D01*
X996778Y658720D01*
X996835Y658727D01*
X996886Y658746D01*
X996931Y658777D01*
X996970Y658820D01*
X997003Y658875D01*
X997030Y658942D01*
X997051Y659021D01*
X997066Y659113D01*
X997075Y659216D01*
X997078Y659332D01*
X997678D01*
X997680Y659218D01*
D02*
G37*
G36*
X1047366Y656900D02*
X1047360Y656957D01*
X1047342Y657008D01*
X1047312Y657053D01*
X1047270Y657092D01*
X1047216Y657125D01*
X1047150Y657152D01*
X1047072Y657173D01*
X1046982Y657188D01*
X1046880Y657197D01*
X1046766Y657200D01*
Y657800D01*
X1046880Y657803D01*
X1046982Y657812D01*
X1047072Y657827D01*
X1047150Y657848D01*
X1047216Y657875D01*
X1047270Y657908D01*
X1047312Y657947D01*
X1047342Y657992D01*
X1047360Y658043D01*
X1047366Y658100D01*
Y656900D01*
D02*
G37*
G36*
X997860Y655256D02*
X997878Y655205D01*
X997908Y655160D01*
X997950Y655121D01*
X998004Y655088D01*
X998070Y655061D01*
X998148Y655040D01*
X998238Y655025D01*
X998340Y655016D01*
X998454Y655013D01*
Y654413D01*
X998340Y654410D01*
X998238Y654401D01*
X998148Y654386D01*
X998070Y654365D01*
X998004Y654338D01*
X997950Y654305D01*
X997908Y654266D01*
X997878Y654221D01*
X997860Y654170D01*
X997854Y654113D01*
Y655313D01*
X997860Y655256D01*
D02*
G37*
G36*
X1047366Y653400D02*
X1047360Y653457D01*
X1047342Y653508D01*
X1047312Y653553D01*
X1047270Y653592D01*
X1047216Y653625D01*
X1047150Y653652D01*
X1047072Y653673D01*
X1046982Y653688D01*
X1046880Y653697D01*
X1046766Y653700D01*
Y654300D01*
X1046880Y654303D01*
X1046982Y654312D01*
X1047072Y654327D01*
X1047150Y654348D01*
X1047216Y654375D01*
X1047270Y654408D01*
X1047312Y654447D01*
X1047342Y654492D01*
X1047360Y654543D01*
X1047366Y654600D01*
Y653400D01*
D02*
G37*
G36*
X997860Y651913D02*
X997878Y651862D01*
X997908Y651817D01*
X997950Y651778D01*
X998004Y651745D01*
X998070Y651718D01*
X998148Y651697D01*
X998238Y651682D01*
X998340Y651673D01*
X998454Y651670D01*
Y651070D01*
X998340Y651067D01*
X998238Y651058D01*
X998148Y651043D01*
X998070Y651022D01*
X998004Y650995D01*
X997950Y650962D01*
X997908Y650923D01*
X997878Y650878D01*
X997860Y650827D01*
X997854Y650770D01*
Y651970D01*
X997860Y651913D01*
D02*
G37*
G36*
Y648571D02*
X997878Y648520D01*
X997908Y648475D01*
X997950Y648436D01*
X998004Y648403D01*
X998070Y648376D01*
X998148Y648355D01*
X998238Y648340D01*
X998340Y648331D01*
X998454Y648328D01*
Y647728D01*
X998340Y647725D01*
X998238Y647716D01*
X998148Y647701D01*
X998070Y647680D01*
X998004Y647653D01*
X997950Y647620D01*
X997908Y647581D01*
X997878Y647536D01*
X997860Y647485D01*
X997854Y647428D01*
Y648628D01*
X997860Y648571D01*
D02*
G37*
G36*
Y645043D02*
X997878Y644992D01*
X997908Y644947D01*
X997950Y644908D01*
X998004Y644875D01*
X998070Y644848D01*
X998148Y644827D01*
X998238Y644812D01*
X998340Y644803D01*
X998454Y644800D01*
Y644200D01*
X998340Y644198D01*
X998148Y644183D01*
X998070Y644169D01*
X998004Y644152D01*
X997950Y644131D01*
X997908Y644106D01*
X997878Y644077D01*
X997860Y644044D01*
X997854Y644008D01*
Y645100D01*
X997860Y645043D01*
D02*
G37*
G36*
Y641886D02*
X997878Y641834D01*
X997908Y641789D01*
X997950Y641750D01*
X998004Y641717D01*
X998070Y641690D01*
X998148Y641670D01*
X998238Y641654D01*
X998340Y641645D01*
X998454Y641643D01*
Y641043D01*
X998340Y641040D01*
X998238Y641031D01*
X998148Y641015D01*
X998070Y640995D01*
X998004Y640968D01*
X997950Y640935D01*
X997908Y640896D01*
X997878Y640850D01*
X997860Y640800D01*
X997854Y640742D01*
Y641943D01*
X997860Y641886D01*
D02*
G37*
G36*
Y638543D02*
X997878Y638492D01*
X997908Y638447D01*
X997950Y638408D01*
X998004Y638375D01*
X998070Y638348D01*
X998148Y638327D01*
X998238Y638312D01*
X998340Y638303D01*
X998454Y638300D01*
Y637700D01*
X998340Y637697D01*
X998238Y637688D01*
X998148Y637673D01*
X998070Y637652D01*
X998004Y637625D01*
X997950Y637592D01*
X997908Y637553D01*
X997878Y637508D01*
X997860Y637457D01*
X997854Y637400D01*
Y638600D01*
X997860Y638543D01*
D02*
G37*
G36*
X932257Y635885D02*
X932301Y635351D01*
X932327Y635205D01*
X932358Y635075D01*
X932396Y634962D01*
X932439Y634864D01*
X932488Y634783D01*
X932543Y634719D01*
X931165D01*
X931220Y634783D01*
X931269Y634864D01*
X931313Y634962D01*
X931350Y635075D01*
X931382Y635205D01*
X931408Y635351D01*
X931443Y635691D01*
X931451Y635885D01*
X931454Y636096D01*
X932254D01*
X932257Y635885D01*
D02*
G37*
G36*
X980849Y635665D02*
X980870Y635550D01*
X980906Y635432D01*
X980956Y635310D01*
X981022Y635184D01*
X981102Y635055D01*
X981196Y634922D01*
X981306Y634785D01*
X981569Y634500D01*
X981145Y634075D01*
X981000Y634214D01*
X980723Y634448D01*
X980589Y634543D01*
X980460Y634623D01*
X980334Y634688D01*
X980212Y634738D01*
X980094Y634774D01*
X979979Y634795D01*
X979868Y634801D01*
X980843Y635776D01*
X980849Y635665D01*
D02*
G37*
G36*
X997860Y635201D02*
X997878Y635149D01*
X997908Y635105D01*
X997950Y635066D01*
X998004Y635033D01*
X998070Y635006D01*
X998148Y634984D01*
X998238Y634970D01*
X998340Y634961D01*
X998454Y634958D01*
Y634358D01*
X998340Y634354D01*
X998238Y634345D01*
X998148Y634331D01*
X998070Y634309D01*
X998004Y634282D01*
X997950Y634249D01*
X997908Y634210D01*
X997878Y634165D01*
X997860Y634115D01*
X997854Y634058D01*
Y635257D01*
X997860Y635201D01*
D02*
G37*
G36*
Y631858D02*
X997878Y631807D01*
X997908Y631762D01*
X997950Y631723D01*
X998004Y631690D01*
X998070Y631663D01*
X998148Y631642D01*
X998238Y631627D01*
X998340Y631618D01*
X998454Y631615D01*
Y631015D01*
X998340Y631012D01*
X998238Y631003D01*
X998148Y630988D01*
X998070Y630967D01*
X998004Y630940D01*
X997950Y630907D01*
X997908Y630868D01*
X997878Y630823D01*
X997860Y630772D01*
X997854Y630715D01*
Y631915D01*
X997860Y631858D01*
D02*
G37*
G36*
X980649Y630678D02*
X980566Y630646D01*
X980492Y630594D01*
X980426Y630523D01*
X980369Y630433D01*
X980321Y630324D01*
X980282Y630195D01*
X980251Y630047D01*
X980229Y629879D01*
X980216Y629692D01*
X980212Y629485D01*
X979612Y629868D01*
X979611Y630085D01*
X979547Y631097D01*
X979529Y631169D01*
X979510Y631223D01*
X980649Y630678D01*
D02*
G37*
G36*
X997860Y628543D02*
X997878Y628492D01*
X997908Y628447D01*
X997950Y628408D01*
X998004Y628375D01*
X998070Y628348D01*
X998148Y628327D01*
X998238Y628312D01*
X998340Y628303D01*
X998454Y628300D01*
Y627700D01*
X998340Y627697D01*
X998238Y627688D01*
X998148Y627673D01*
X998070Y627652D01*
X998004Y627625D01*
X997950Y627592D01*
X997908Y627553D01*
X997878Y627508D01*
X997860Y627457D01*
X997854Y627400D01*
Y628600D01*
X997860Y628543D01*
D02*
G37*
G36*
X854152Y626517D02*
X854069Y626591D01*
X853973Y626657D01*
X853864Y626716D01*
X853742Y626766D01*
X853607Y626809D01*
X853459Y626844D01*
X853298Y626871D01*
X853124Y626891D01*
X852736Y626906D01*
Y627506D01*
X852936Y627510D01*
X853298Y627541D01*
X853459Y627568D01*
X853607Y627603D01*
X853742Y627646D01*
X853864Y627697D01*
X853973Y627755D01*
X854069Y627821D01*
X854152Y627895D01*
Y626517D01*
D02*
G37*
G36*
X855845Y627086D02*
X855866Y626971D01*
X855902Y626853D01*
X855952Y626731D01*
X856018Y626605D01*
X856098Y626476D01*
X856192Y626342D01*
X856302Y626205D01*
X856565Y625920D01*
X856141Y625496D01*
X855996Y625635D01*
X855719Y625869D01*
X855585Y625963D01*
X855456Y626043D01*
X855330Y626109D01*
X855208Y626159D01*
X855090Y626195D01*
X854975Y626216D01*
X854865Y626222D01*
X855839Y627197D01*
X855845Y627086D01*
D02*
G37*
G36*
X934804Y626149D02*
X934835Y625787D01*
X934863Y625627D01*
X934898Y625479D01*
X934942Y625345D01*
X934993Y625224D01*
X935052Y625116D01*
X935119Y625022D01*
X935194Y624941D01*
X933816Y624916D01*
X933889Y625000D01*
X933954Y625098D01*
X934012Y625208D01*
X934062Y625331D01*
X934104Y625467D01*
X934139Y625615D01*
X934165Y625777D01*
X934185Y625951D01*
X934200Y626338D01*
X934800Y626350D01*
X934804Y626149D01*
D02*
G37*
G36*
X960941Y625145D02*
X960950Y625041D01*
X960965Y624949D01*
X960986Y624869D01*
X961013Y624802D01*
X961046Y624747D01*
X961085Y624704D01*
X961130Y624674D01*
X961181Y624655D01*
X961238Y624649D01*
X960038D01*
X960095Y624655D01*
X960146Y624674D01*
X960191Y624704D01*
X960230Y624747D01*
X960263Y624802D01*
X960290Y624869D01*
X960311Y624949D01*
X960326Y625041D01*
X960335Y625145D01*
X960338Y625261D01*
X960938D01*
X960941Y625145D01*
D02*
G37*
G36*
X955165D02*
X955174Y625041D01*
X955189Y624949D01*
X955210Y624869D01*
X955237Y624802D01*
X955270Y624747D01*
X955309Y624704D01*
X955354Y624674D01*
X955405Y624655D01*
X955462Y624649D01*
X954262D01*
X954319Y624655D01*
X954370Y624674D01*
X954415Y624704D01*
X954454Y624747D01*
X954487Y624802D01*
X954514Y624869D01*
X954535Y624949D01*
X954550Y625041D01*
X954559Y625145D01*
X954562Y625261D01*
X955162D01*
X955165Y625145D01*
D02*
G37*
G36*
X964786Y625936D02*
X964882Y625870D01*
X964990Y625811D01*
X965112Y625761D01*
X965247Y625718D01*
X965396Y625683D01*
X965557Y625656D01*
X965731Y625636D01*
X966119Y625621D01*
Y625021D01*
X965918Y625017D01*
X965557Y624986D01*
X965396Y624959D01*
X965247Y624924D01*
X965112Y624881D01*
X964990Y624830D01*
X964882Y624772D01*
X964786Y624706D01*
X964703Y624632D01*
Y626010D01*
X964786Y625936D01*
D02*
G37*
G36*
X861304Y625681D02*
X861335Y625319D01*
X861362Y625158D01*
X861397Y625010D01*
X861440Y624875D01*
X861491Y624753D01*
X861549Y624644D01*
X861615Y624548D01*
X861689Y624466D01*
X860311D01*
X860385Y624548D01*
X860451Y624644D01*
X860509Y624753D01*
X860560Y624875D01*
X860603Y625010D01*
X860638Y625158D01*
X860665Y625319D01*
X860684Y625493D01*
X860700Y625881D01*
X861300D01*
X861304Y625681D01*
D02*
G37*
G36*
X997860Y625173D02*
X997878Y625122D01*
X997908Y625077D01*
X997950Y625038D01*
X998004Y625005D01*
X998070Y624978D01*
X998148Y624957D01*
X998238Y624942D01*
X998340Y624933D01*
X998454Y624930D01*
Y624330D01*
X998340Y624327D01*
X998238Y624318D01*
X998148Y624303D01*
X998070Y624282D01*
X998004Y624255D01*
X997950Y624222D01*
X997908Y624183D01*
X997878Y624138D01*
X997860Y624087D01*
X997854Y624030D01*
Y625230D01*
X997860Y625173D01*
D02*
G37*
G36*
X964786Y622615D02*
X964882Y622549D01*
X964990Y622491D01*
X965112Y622440D01*
X965247Y622397D01*
X965396Y622362D01*
X965557Y622335D01*
X965731Y622316D01*
X966119Y622300D01*
Y621700D01*
X965918Y621696D01*
X965557Y621665D01*
X965396Y621638D01*
X965247Y621603D01*
X965112Y621560D01*
X964990Y621509D01*
X964882Y621451D01*
X964786Y621385D01*
X964703Y621311D01*
Y622689D01*
X964786Y622615D01*
D02*
G37*
G36*
X961181Y621345D02*
X961130Y621326D01*
X961085Y621296D01*
X961046Y621253D01*
X961013Y621198D01*
X960986Y621131D01*
X960965Y621051D01*
X960950Y620959D01*
X960941Y620855D01*
X960938Y620739D01*
X960338D01*
X960335Y620855D01*
X960326Y620959D01*
X960311Y621051D01*
X960290Y621131D01*
X960263Y621198D01*
X960230Y621253D01*
X960191Y621296D01*
X960146Y621326D01*
X960095Y621345D01*
X960038Y621351D01*
X961238D01*
X961181Y621345D01*
D02*
G37*
G36*
X955405D02*
X955354Y621326D01*
X955309Y621296D01*
X955270Y621253D01*
X955237Y621198D01*
X955210Y621131D01*
X955189Y621051D01*
X955174Y620959D01*
X955165Y620855D01*
X955162Y620739D01*
X954562D01*
X954559Y620855D01*
X954550Y620959D01*
X954535Y621051D01*
X954514Y621131D01*
X954487Y621198D01*
X954454Y621253D01*
X954415Y621296D01*
X954370Y621326D01*
X954319Y621345D01*
X954262Y621351D01*
X955462D01*
X955405Y621345D01*
D02*
G37*
G36*
X997860Y621830D02*
X997878Y621779D01*
X997908Y621734D01*
X997950Y621695D01*
X998004Y621662D01*
X998070Y621635D01*
X998148Y621614D01*
X998238Y621599D01*
X998340Y621590D01*
X998454Y621587D01*
Y620987D01*
X998340Y620984D01*
X998238Y620975D01*
X998148Y620960D01*
X998070Y620939D01*
X998004Y620912D01*
X997950Y620879D01*
X997908Y620840D01*
X997878Y620795D01*
X997860Y620744D01*
X997854Y620687D01*
Y621887D01*
X997860Y621830D01*
D02*
G37*
G36*
X1044772Y621603D02*
X1044706Y621507D01*
X1044647Y621398D01*
X1044597Y621276D01*
X1044554Y621141D01*
X1044519Y620993D01*
X1044492Y620832D01*
X1044472Y620658D01*
X1044457Y620270D01*
X1043857D01*
X1043853Y620471D01*
X1043822Y620832D01*
X1043795Y620993D01*
X1043760Y621141D01*
X1043717Y621276D01*
X1043666Y621398D01*
X1043608Y621507D01*
X1043542Y621603D01*
X1043468Y621686D01*
X1044846D01*
X1044772Y621603D01*
D02*
G37*
G36*
X1044460Y616931D02*
X1044469Y616830D01*
X1044484Y616739D01*
X1044505Y616659D01*
X1044532Y616588D01*
X1044565Y616528D01*
X1044604Y616477D01*
X1044649Y616437D01*
X1044700Y616406D01*
X1044757Y616386D01*
X1043557D01*
X1043614Y616406D01*
X1043665Y616437D01*
X1043710Y616477D01*
X1043749Y616528D01*
X1043782Y616588D01*
X1043809Y616659D01*
X1043830Y616739D01*
X1043845Y616830D01*
X1043854Y616931D01*
X1043857Y617042D01*
X1044457D01*
X1044460Y616931D01*
D02*
G37*
G36*
X1007245Y615683D02*
X1007321Y615620D01*
X1007392Y615569D01*
X1007459Y615531D01*
X1007521Y615506D01*
X1007578Y615494D01*
X1007631Y615494D01*
X1007680Y615507D01*
X1007724Y615533D01*
X1007763Y615572D01*
X1007245Y614489D01*
X1007252Y614547D01*
X1007250Y614608D01*
X1007238Y614671D01*
X1007216Y614737D01*
X1007186Y614805D01*
X1007146Y614875D01*
X1007096Y614949D01*
X1007038Y615025D01*
X1006970Y615103D01*
X1006892Y615184D01*
X1007165Y615759D01*
X1007245Y615683D01*
D02*
G37*
G36*
X995696Y613965D02*
X995690Y614023D01*
X995672Y614074D01*
X995642Y614119D01*
X995601Y614158D01*
X995548Y614191D01*
X995483Y614218D01*
X995408Y614239D01*
X995320Y614254D01*
X995221Y614263D01*
X995111Y614266D01*
X995254Y614866D01*
X995365Y614869D01*
X995468Y614877D01*
X995562Y614890D01*
X995647Y614909D01*
X995724Y614933D01*
X995791Y614962D01*
X995850Y614997D01*
X995900Y615037D01*
X995940Y615083D01*
X995973Y615133D01*
X995696Y613965D01*
D02*
G37*
G36*
X1053257Y613458D02*
X1053238Y613516D01*
X1053209Y613567D01*
X1053170Y613612D01*
X1053120Y613652D01*
X1053060Y613685D01*
X1052990Y613712D01*
X1052910Y613733D01*
X1052820Y613748D01*
X1052719Y613757D01*
X1052608Y613760D01*
X1052623Y614360D01*
X1052734Y614363D01*
X1052835Y614372D01*
X1052926Y614387D01*
X1053007Y614408D01*
X1053079Y614435D01*
X1053140Y614467D01*
X1053191Y614506D01*
X1053233Y614551D01*
X1053264Y614602D01*
X1053286Y614658D01*
X1053257Y613458D01*
D02*
G37*
G36*
X1050728Y614688D02*
X1050819Y614619D01*
X1050923Y614559D01*
X1051042Y614506D01*
X1051174Y614461D01*
X1051320Y614425D01*
X1051480Y614397D01*
X1051654Y614376D01*
X1052042Y614360D01*
X1052004Y613760D01*
X1051805Y613756D01*
X1051443Y613727D01*
X1051281Y613701D01*
X1051131Y613667D01*
X1050993Y613627D01*
X1050868Y613579D01*
X1050755Y613523D01*
X1050655Y613460D01*
X1050566Y613390D01*
X1050651Y614765D01*
X1050728Y614688D01*
D02*
G37*
G36*
X1018880Y613066D02*
X1018852Y613120D01*
X1018815Y613168D01*
X1018769Y613211D01*
X1018713Y613248D01*
X1018648Y613279D01*
X1018574Y613304D01*
X1018490Y613324D01*
X1018397Y613338D01*
X1018295Y613347D01*
X1018184Y613350D01*
X1018097Y613950D01*
X1018207Y613953D01*
X1018307Y613962D01*
X1018396Y613977D01*
X1018474Y613999D01*
X1018540Y614026D01*
X1018596Y614059D01*
X1018641Y614099D01*
X1018675Y614145D01*
X1018697Y614196D01*
X1018709Y614254D01*
X1018880Y613066D01*
D02*
G37*
G36*
X973800Y611947D02*
X973747Y611976D01*
X973691Y611992D01*
X973631Y611997D01*
X973569Y611991D01*
X973504Y611973D01*
X973435Y611943D01*
X973364Y611901D01*
X973290Y611848D01*
X973212Y611784D01*
X973131Y611707D01*
X972727Y612151D01*
X972803Y612231D01*
X972868Y612309D01*
X972923Y612385D01*
X972966Y612457D01*
X972998Y612527D01*
X973018Y612594D01*
X973028Y612658D01*
X973027Y612719D01*
X973014Y612778D01*
X972990Y612833D01*
X973800Y611947D01*
D02*
G37*
G36*
X969877Y611325D02*
X969973Y611258D01*
X970082Y611200D01*
X970203Y611150D01*
X970339Y611107D01*
X970487Y611072D01*
X970648Y611045D01*
X970822Y611025D01*
X971210Y611010D01*
Y610409D01*
X971009Y610406D01*
X970648Y610374D01*
X970487Y610347D01*
X970339Y610312D01*
X970203Y610269D01*
X970082Y610219D01*
X969973Y610160D01*
X969877Y610094D01*
X969794Y610020D01*
Y611398D01*
X969877Y611325D01*
D02*
G37*
G36*
X1014210Y610786D02*
X1014071Y610641D01*
X1013838Y610364D01*
X1013743Y610231D01*
X1013663Y610101D01*
X1013598Y609975D01*
X1013547Y609853D01*
X1013511Y609735D01*
X1013490Y609621D01*
X1013484Y609510D01*
X1012510Y610484D01*
X1012621Y610491D01*
X1012735Y610511D01*
X1012853Y610547D01*
X1012975Y610598D01*
X1013101Y610663D01*
X1013231Y610743D01*
X1013364Y610838D01*
X1013501Y610947D01*
X1013786Y611210D01*
X1014210Y610786D01*
D02*
G37*
G36*
X960942Y610660D02*
X960973Y610298D01*
X961000Y610137D01*
X961035Y609989D01*
X961078Y609854D01*
X961129Y609732D01*
X961187Y609623D01*
X961253Y609528D01*
X961327Y609445D01*
X959949Y609443D01*
X960023Y609525D01*
X960089Y609621D01*
X960147Y609730D01*
X960198Y609853D01*
X960241Y609988D01*
X960276Y610136D01*
X960303Y610297D01*
X960322Y610471D01*
X960338Y610859D01*
X960938Y610860D01*
X960942Y610660D01*
D02*
G37*
G36*
X1018286Y610115D02*
X1018382Y610049D01*
X1018490Y609991D01*
X1018612Y609940D01*
X1018747Y609897D01*
X1018896Y609862D01*
X1019057Y609835D01*
X1019231Y609816D01*
X1019619Y609800D01*
Y609200D01*
X1019418Y609196D01*
X1019057Y609165D01*
X1018896Y609138D01*
X1018747Y609103D01*
X1018612Y609060D01*
X1018490Y609009D01*
X1018382Y608951D01*
X1018286Y608885D01*
X1018203Y608811D01*
Y610189D01*
X1018286Y610115D01*
D02*
G37*
G36*
X1004210Y607431D02*
X1004219Y607330D01*
X1004234Y607239D01*
X1004255Y607159D01*
X1004282Y607088D01*
X1004315Y607027D01*
X1004354Y606977D01*
X1004399Y606937D01*
X1004450Y606907D01*
X1004507Y606886D01*
X1003307D01*
X1003364Y606907D01*
X1003415Y606937D01*
X1003460Y606977D01*
X1003499Y607027D01*
X1003532Y607088D01*
X1003559Y607159D01*
X1003580Y607239D01*
X1003595Y607330D01*
X1003604Y607431D01*
X1003607Y607542D01*
X1004207D01*
X1004210Y607431D01*
D02*
G37*
G36*
X961327Y608037D02*
X961253Y607954D01*
X961187Y607858D01*
X961129Y607750D01*
X961078Y607628D01*
X961035Y607493D01*
X961000Y607345D01*
X960973Y607184D01*
X960953Y607010D01*
X960938Y606622D01*
X960338Y606623D01*
X960334Y606823D01*
X960303Y607185D01*
X960276Y607346D01*
X960241Y607494D01*
X960198Y607629D01*
X960147Y607751D01*
X960089Y607860D01*
X960023Y607957D01*
X959949Y608039D01*
X961327Y608037D01*
D02*
G37*
G36*
X1025048Y606787D02*
X1025126Y606722D01*
X1025201Y606668D01*
X1025273Y606626D01*
X1025342Y606595D01*
X1025408Y606576D01*
X1025471Y606568D01*
X1025532Y606571D01*
X1025589Y606586D01*
X1025644Y606612D01*
X1024795Y605763D01*
X1024821Y605818D01*
X1024836Y605875D01*
X1024839Y605935D01*
X1024831Y605999D01*
X1024812Y606065D01*
X1024781Y606134D01*
X1024739Y606206D01*
X1024685Y606281D01*
X1024620Y606358D01*
X1024543Y606439D01*
X1024968Y606863D01*
X1025048Y606787D01*
D02*
G37*
G36*
X955166Y605761D02*
X955197Y605399D01*
X955224Y605238D01*
X955259Y605090D01*
X955302Y604955D01*
X955353Y604833D01*
X955411Y604724D01*
X955477Y604628D01*
X955551Y604545D01*
X954173D01*
X954247Y604628D01*
X954313Y604724D01*
X954372Y604833D01*
X954422Y604955D01*
X954465Y605090D01*
X954500Y605238D01*
X954527Y605399D01*
X954547Y605573D01*
X954562Y605961D01*
X955162D01*
X955166Y605761D01*
D02*
G37*
G36*
X1060144Y602388D02*
X1060089Y602414D01*
X1060032Y602429D01*
X1059971Y602432D01*
X1059908Y602424D01*
X1059842Y602405D01*
X1059773Y602374D01*
X1059701Y602332D01*
X1059626Y602278D01*
X1059548Y602213D01*
X1059468Y602137D01*
X1059044Y602561D01*
X1059120Y602642D01*
X1059185Y602719D01*
X1059239Y602794D01*
X1059281Y602866D01*
X1059312Y602935D01*
X1059331Y603001D01*
X1059339Y603064D01*
X1059336Y603125D01*
X1059321Y603182D01*
X1059295Y603237D01*
X1060144Y602388D01*
D02*
G37*
G36*
X955477Y603057D02*
X955411Y602961D01*
X955353Y602852D01*
X955302Y602730D01*
X955259Y602595D01*
X955224Y602447D01*
X955197Y602286D01*
X955178Y602112D01*
X955162Y601724D01*
X954562D01*
X954558Y601924D01*
X954527Y602286D01*
X954500Y602447D01*
X954465Y602595D01*
X954422Y602730D01*
X954372Y602852D01*
X954313Y602961D01*
X954247Y603057D01*
X954173Y603140D01*
X955551D01*
X955477Y603057D01*
D02*
G37*
G36*
X1050674Y602156D02*
X1050625Y602121D01*
X1050581Y602076D01*
X1050544Y602022D01*
X1050512Y601959D01*
X1050486Y601886D01*
X1050465Y601803D01*
X1050451Y601711D01*
X1050442Y601609D01*
X1050439Y601498D01*
X1049839Y601440D01*
X1049836Y601551D01*
X1049827Y601651D01*
X1049812Y601741D01*
X1049790Y601820D01*
X1049763Y601888D01*
X1049730Y601945D01*
X1049690Y601992D01*
X1049644Y602028D01*
X1049593Y602053D01*
X1049535Y602068D01*
X1050729Y602181D01*
X1050674Y602156D01*
D02*
G37*
G36*
X1050459Y600979D02*
X1050809Y600678D01*
X1050876Y600633D01*
X1050934Y600600D01*
X1050985Y600580D01*
X1051027Y600571D01*
X1051062Y600575D01*
X1050436Y599950D01*
X1050440Y599984D01*
X1050432Y600027D01*
X1050412Y600077D01*
X1050379Y600136D01*
X1050334Y600203D01*
X1050277Y600278D01*
X1050126Y600453D01*
X1049927Y600661D01*
X1050351Y601085D01*
X1050459Y600979D01*
D02*
G37*
G36*
X1058300Y598783D02*
X1058304Y598583D01*
X1058335Y598221D01*
X1058362Y598060D01*
X1058397Y597912D01*
X1058440Y597777D01*
X1058491Y597655D01*
X1058549Y597546D01*
X1058615Y597450D01*
X1058689Y597367D01*
X1057311Y597367D01*
X1057385Y597450D01*
X1057451Y597546D01*
X1057509Y597655D01*
X1057560Y597777D01*
X1057603Y597912D01*
X1057638Y598060D01*
X1057665Y598221D01*
X1057685Y598395D01*
X1057700Y598783D01*
X1058300Y598783D01*
D02*
G37*
G36*
X1049963Y582615D02*
X1050059Y582549D01*
X1050168Y582491D01*
X1050290Y582440D01*
X1050425Y582397D01*
X1050573Y582362D01*
X1050734Y582335D01*
X1050908Y582316D01*
X1051296Y582300D01*
Y581700D01*
X1051095Y581696D01*
X1050734Y581665D01*
X1050573Y581638D01*
X1050425Y581603D01*
X1050290Y581560D01*
X1050168Y581509D01*
X1050059Y581451D01*
X1049963Y581385D01*
X1049880Y581311D01*
Y582689D01*
X1049963Y582615D01*
D02*
G37*
G36*
X1046191Y581879D02*
X1046212Y581765D01*
X1046248Y581647D01*
X1046299Y581525D01*
X1046364Y581399D01*
X1046444Y581269D01*
X1046538Y581136D01*
X1046648Y580999D01*
X1046911Y580714D01*
X1046487Y580290D01*
X1046342Y580429D01*
X1046065Y580662D01*
X1045931Y580757D01*
X1045802Y580837D01*
X1045676Y580902D01*
X1045554Y580953D01*
X1045436Y580989D01*
X1045321Y581009D01*
X1045211Y581016D01*
X1046185Y581990D01*
X1046191Y581879D01*
D02*
G37*
G36*
X1042215Y581879D02*
X1042236Y581765D01*
X1042272Y581647D01*
X1042322Y581525D01*
X1042387Y581399D01*
X1042467Y581269D01*
X1042562Y581136D01*
X1042671Y580999D01*
X1042935Y580714D01*
X1042510Y580290D01*
X1042366Y580429D01*
X1042088Y580662D01*
X1041955Y580757D01*
X1041826Y580837D01*
X1041700Y580902D01*
X1041578Y580953D01*
X1041460Y580989D01*
X1041345Y581009D01*
X1041234Y581016D01*
X1042209Y581990D01*
X1042215Y581879D01*
D02*
G37*
G36*
X893155Y580043D02*
X893174Y579992D01*
X893204Y579947D01*
X893247Y579908D01*
X893302Y579875D01*
X893369Y579848D01*
X893449Y579827D01*
X893541Y579812D01*
X893645Y579803D01*
X893761Y579800D01*
Y579200D01*
X893645Y579197D01*
X893541Y579188D01*
X893449Y579173D01*
X893369Y579152D01*
X893302Y579125D01*
X893247Y579092D01*
X893204Y579053D01*
X893174Y579008D01*
X893155Y578957D01*
X893149Y578900D01*
Y580100D01*
X893155Y580043D01*
D02*
G37*
G36*
X889851Y578900D02*
X889845Y578957D01*
X889826Y579008D01*
X889796Y579053D01*
X889753Y579092D01*
X889698Y579125D01*
X889631Y579152D01*
X889551Y579173D01*
X889459Y579188D01*
X889355Y579197D01*
X889239Y579200D01*
Y579800D01*
X889355Y579803D01*
X889459Y579812D01*
X889551Y579827D01*
X889631Y579848D01*
X889698Y579875D01*
X889753Y579908D01*
X889796Y579947D01*
X889826Y579992D01*
X889845Y580043D01*
X889851Y580100D01*
Y578900D01*
D02*
G37*
G36*
X863210Y571786D02*
X863071Y571641D01*
X862838Y571364D01*
X862743Y571231D01*
X862663Y571101D01*
X862598Y570975D01*
X862547Y570853D01*
X862512Y570735D01*
X862490Y570621D01*
X862484Y570510D01*
X861510Y571484D01*
X861621Y571490D01*
X861735Y571512D01*
X861853Y571547D01*
X861975Y571598D01*
X862101Y571663D01*
X862231Y571743D01*
X862364Y571838D01*
X862501Y571947D01*
X862786Y572210D01*
X863210Y571786D01*
D02*
G37*
G36*
X893155Y560543D02*
X893174Y560492D01*
X893204Y560447D01*
X893247Y560408D01*
X893302Y560375D01*
X893369Y560348D01*
X893449Y560327D01*
X893541Y560312D01*
X893645Y560303D01*
X893761Y560300D01*
Y559700D01*
X893645Y559697D01*
X893541Y559688D01*
X893449Y559673D01*
X893369Y559652D01*
X893302Y559625D01*
X893247Y559592D01*
X893204Y559553D01*
X893174Y559508D01*
X893155Y559457D01*
X893149Y559400D01*
Y560600D01*
X893155Y560543D01*
D02*
G37*
G36*
X889851Y559400D02*
X889845Y559457D01*
X889826Y559508D01*
X889796Y559553D01*
X889753Y559592D01*
X889698Y559625D01*
X889631Y559652D01*
X889551Y559673D01*
X889459Y559688D01*
X889355Y559697D01*
X889239Y559700D01*
Y560300D01*
X889355Y560303D01*
X889459Y560312D01*
X889551Y560327D01*
X889631Y560348D01*
X889698Y560375D01*
X889753Y560408D01*
X889796Y560447D01*
X889826Y560492D01*
X889845Y560543D01*
X889851Y560600D01*
Y559400D01*
D02*
G37*
G36*
X862286Y560615D02*
X862381Y560549D01*
X862490Y560491D01*
X862612Y560440D01*
X862747Y560397D01*
X862895Y560362D01*
X863057Y560335D01*
X863231Y560316D01*
X863618Y560300D01*
Y559700D01*
X863418Y559696D01*
X863057Y559665D01*
X862895Y559638D01*
X862747Y559603D01*
X862612Y559560D01*
X862490Y559509D01*
X862381Y559451D01*
X862286Y559385D01*
X862203Y559311D01*
Y560689D01*
X862286Y560615D01*
D02*
G37*
G36*
X860359Y550571D02*
X860636Y550338D01*
X860769Y550243D01*
X860899Y550163D01*
X861025Y550098D01*
X861147Y550047D01*
X861265Y550011D01*
X861379Y549991D01*
X861490Y549984D01*
X860516Y549010D01*
X860509Y549121D01*
X860489Y549235D01*
X860453Y549353D01*
X860402Y549475D01*
X860337Y549601D01*
X860257Y549731D01*
X860162Y549864D01*
X860053Y550001D01*
X859790Y550286D01*
X860214Y550710D01*
X860359Y550571D01*
D02*
G37*
D10*
X909000Y914000D02*
D03*
D18*
X995409Y773000D02*
Y778500D01*
X891441Y879598D02*
X891539Y879500D01*
X767305Y743870D02*
X773244D01*
X913232Y897862D02*
Y903843D01*
X979661Y767500D02*
X981630Y769468D01*
Y773000D01*
X773244Y743870D02*
Y743902D01*
Y741933D02*
Y743870D01*
X1046591Y776170D02*
X1048913Y778492D01*
X1046591Y773000D02*
Y776170D01*
X1048913Y778492D02*
Y779259D01*
X1049988Y780333D01*
Y785831D02*
X1050657Y786500D01*
X1049988Y780333D02*
Y785831D01*
X1050657Y786500D02*
Y786697D01*
X1051929Y787968D01*
X1052126D01*
X1053158Y789000D01*
X1057000D01*
X1073862Y723000D02*
Y738500D01*
Y723000D02*
X1074315Y722547D01*
X1092827Y728453D02*
X1092858Y728484D01*
X1092827Y726484D02*
Y728453D01*
X1095327Y714024D02*
X1095850Y713500D01*
X1092858Y728484D02*
X1094896D01*
X1074315Y722547D02*
X1081173D01*
X1097500Y731088D02*
Y747500D01*
X1094896Y728484D02*
X1097500Y731088D01*
X1092827Y714024D02*
Y720579D01*
X924386Y801886D02*
X927783D01*
X928858Y802961D02*
X934933D01*
X927783Y801886D02*
X928858Y802961D01*
X920500Y798000D02*
X924386Y801886D01*
X920500Y791854D02*
Y798000D01*
Y791854D02*
X922953D01*
X918661D02*
X920500D01*
X917047Y785752D02*
Y790240D01*
X918661Y791854D01*
X924921Y785752D02*
Y789886D01*
X922953Y791854D02*
X924921Y789886D01*
Y785752D02*
X926890D01*
X934933Y802961D02*
X935130Y803158D01*
X935327Y802961D01*
X766961Y743902D02*
Y759039D01*
X759000Y767000D02*
X766961Y759039D01*
X891441Y879598D02*
Y885260D01*
X913232Y908961D02*
X915913D01*
X917374Y907500D01*
X917500D01*
X896559Y879598D02*
Y885260D01*
X896461Y879500D02*
X896559Y879598D01*
X901000Y908961D02*
X904768D01*
X898500Y903461D02*
Y906461D01*
X901000Y908961D01*
X894000Y893200D02*
Y905187D01*
X903136Y914323D02*
X906408D01*
X894000Y905187D02*
X903136Y914323D01*
D25*
X1059500Y738343D02*
D03*
Y743657D02*
D03*
X1101673Y719890D02*
D03*
Y725205D02*
D03*
X935130Y797843D02*
D03*
Y803158D02*
D03*
D30*
X1045343Y786500D02*
D03*
X1050657D02*
D03*
D60*
X913232Y903843D02*
D03*
X904768D02*
D03*
X913232Y906402D02*
D03*
X904768D02*
D03*
X913232Y908961D02*
D03*
X904768D02*
D03*
D80*
X860972Y746488D02*
D03*
X819732Y749000D02*
D03*
X994779Y680721D02*
D03*
X995409Y778500D02*
D03*
X994779Y667472D02*
D03*
X937322Y888000D02*
D03*
X908524Y629095D02*
D03*
Y638937D02*
D03*
X876000Y806138D02*
D03*
X886000D02*
D03*
X873500Y891740D02*
D03*
X864500Y889461D02*
D03*
X793000Y552870D02*
D03*
X809681Y545130D02*
D03*
X931854Y634016D02*
D03*
X929295D02*
D03*
X1050786Y661591D02*
D03*
X1050780Y657500D02*
D03*
Y654000D02*
D03*
X1020595Y598500D02*
D03*
X1032345Y585328D02*
D03*
X1045201Y582000D02*
D03*
X1066992Y629881D02*
D03*
X1037064Y723406D02*
D03*
X1066921Y618268D02*
D03*
X994779Y670815D02*
D03*
X985000Y658000D02*
D03*
X964000Y622000D02*
D03*
X996972Y598500D02*
D03*
X1058500Y722159D02*
D03*
X1041402Y727328D02*
D03*
X962500Y779500D02*
D03*
X979000Y780500D02*
D03*
X979214Y659500D02*
D03*
X993035Y598500D02*
D03*
X1028500D02*
D03*
X1038500Y632000D02*
D03*
X1048153Y715629D02*
D03*
X1045992Y700295D02*
D03*
X956897Y659922D02*
D03*
X937046Y620236D02*
D03*
X935000Y593823D02*
D03*
X1008784Y598500D02*
D03*
X1038370Y703177D02*
D03*
X1041224Y582000D02*
D03*
X1050740Y665500D02*
D03*
X1081477Y682000D02*
D03*
X1009505Y676267D02*
D03*
X980405Y631631D02*
D03*
X967445Y598500D02*
D03*
X1032452D02*
D03*
X1067016Y606850D02*
D03*
X1047529Y642041D02*
D03*
X950630Y639000D02*
D03*
X960640Y608741D02*
D03*
X985161Y598500D02*
D03*
X1054043Y669449D02*
D03*
X951500Y713500D02*
D03*
X964000Y651000D02*
D03*
X1051371Y599641D02*
D03*
X1054000Y637953D02*
D03*
X1051992Y715629D02*
D03*
X1042314Y703000D02*
D03*
X972500Y720807D02*
D03*
X964000Y625321D02*
D03*
X970750Y647000D02*
D03*
X1014500Y628000D02*
D03*
X994441Y641342D02*
D03*
X1054130Y634008D02*
D03*
X1012000Y676340D02*
D03*
X975116Y717827D02*
D03*
X969407Y604500D02*
D03*
X1077362Y685177D02*
D03*
X984000Y780500D02*
D03*
X959743Y668579D02*
D03*
X954701Y653701D02*
D03*
X954862Y603842D02*
D03*
X937853Y602441D02*
D03*
X980500Y584000D02*
D03*
X1005000Y598500D02*
D03*
X1049177Y582000D02*
D03*
X1038407Y604500D02*
D03*
X1067016Y622205D02*
D03*
X962000Y674000D02*
D03*
X980907Y604620D02*
D03*
X969091Y610709D02*
D03*
X971333Y598500D02*
D03*
X998941Y586279D02*
D03*
X1071049Y645010D02*
D03*
X1042000Y723000D02*
D03*
X951107Y675039D02*
D03*
X979859Y635786D02*
D03*
X1012720Y586279D02*
D03*
X975116Y700000D02*
D03*
X961000Y654000D02*
D03*
X986657Y614120D02*
D03*
X989098Y598500D02*
D03*
X1024713D02*
D03*
X1077000Y728500D02*
D03*
X1067331Y655669D02*
D03*
X1044333Y677323D02*
D03*
X1072231Y687199D02*
D03*
X967445Y701500D02*
D03*
X930500Y679500D02*
D03*
X988000Y647000D02*
D03*
X967500D02*
D03*
X1000909Y598500D02*
D03*
X1044157Y631843D02*
D03*
X1048153Y689000D02*
D03*
X1044804Y727328D02*
D03*
X974000Y647000D02*
D03*
X994441Y621287D02*
D03*
Y634657D02*
D03*
Y631315D02*
D03*
Y658055D02*
D03*
Y651370D02*
D03*
X994480Y654713D02*
D03*
X994441Y648028D02*
D03*
Y644685D02*
D03*
Y638000D02*
D03*
Y627972D02*
D03*
Y624630D02*
D03*
X934518Y624226D02*
D03*
X1111500Y838000D02*
D03*
X1042445Y872906D02*
D03*
Y827905D02*
D03*
X1111343Y882905D02*
D03*
X1042445Y822906D02*
D03*
X1059394Y817984D02*
D03*
X1111500Y833000D02*
D03*
X1111343Y877905D02*
D03*
Y887906D02*
D03*
X1111500Y828000D02*
D03*
X1042445Y852905D02*
D03*
X1111500Y823000D02*
D03*
X1042445Y847906D02*
D03*
Y887906D02*
D03*
X1054500Y735000D02*
D03*
X979661Y767500D02*
D03*
X1061500Y750500D02*
D03*
X1006441Y864709D02*
D03*
X999500Y870122D02*
D03*
X985750Y854593D02*
D03*
X1030913Y813500D02*
D03*
X1119000Y826000D02*
D03*
X1059500Y743657D02*
D03*
X808714Y804726D02*
D03*
X814038D02*
D03*
X819224D02*
D03*
X824575D02*
D03*
X1119000Y798268D02*
D03*
X1125062D02*
D03*
X1058000Y596664D02*
D03*
X967000Y748158D02*
D03*
X945500Y765228D02*
D03*
X965981Y725915D02*
D03*
X960666D02*
D03*
X935500Y743772D02*
D03*
X994740Y674157D02*
D03*
X994852Y677500D02*
D03*
X1077811Y691972D02*
D03*
X915268Y652658D02*
D03*
Y664157D02*
D03*
Y675815D02*
D03*
Y670500D02*
D03*
Y658843D02*
D03*
Y647342D02*
D03*
X931114Y650453D02*
D03*
Y645138D02*
D03*
X1022843Y571000D02*
D03*
X1028158D02*
D03*
X1016158D02*
D03*
X1010843D02*
D03*
X993157D02*
D03*
X987842D02*
D03*
X970658D02*
D03*
X965343D02*
D03*
X1026296Y676374D02*
D03*
X1080907Y639752D02*
D03*
X1082063Y676752D02*
D03*
Y671437D02*
D03*
X1120643Y593051D02*
D03*
X1111000Y589461D02*
D03*
X1089000Y586764D02*
D03*
X1121500Y605642D02*
D03*
X1131500Y694216D02*
D03*
Y699532D02*
D03*
X923854Y593705D02*
D03*
X828862Y545633D02*
D03*
X864000Y690000D02*
D03*
X869000D02*
D03*
X874500Y716500D02*
D03*
Y731500D02*
D03*
X877500Y702000D02*
D03*
X858488Y726500D02*
D03*
Y731500D02*
D03*
Y736500D02*
D03*
X903477Y607491D02*
D03*
X1041224Y577000D02*
D03*
X984157Y876000D02*
D03*
X1024075Y886055D02*
D03*
Y879756D02*
D03*
X1018000Y866677D02*
D03*
X1024980Y866382D02*
D03*
X1011559Y864709D02*
D03*
X1125000Y826000D02*
D03*
X1128087Y842272D02*
D03*
X1127900Y869772D02*
D03*
X1128212Y814402D02*
D03*
X1115000Y616968D02*
D03*
X1131125Y798268D02*
D03*
X755500Y835850D02*
D03*
X752000Y811638D02*
D03*
X768000Y817079D02*
D03*
X781000Y782657D02*
D03*
X793500Y788335D02*
D03*
X793374Y808512D02*
D03*
X806315Y822918D02*
D03*
X805452Y811697D02*
D03*
X822952Y826091D02*
D03*
X784452Y842394D02*
D03*
X794199Y842110D02*
D03*
X847882Y794539D02*
D03*
X863118D02*
D03*
X844000Y764638D02*
D03*
X809303Y794500D02*
D03*
X803988D02*
D03*
X815000Y786000D02*
D03*
Y780500D02*
D03*
X803988Y800000D02*
D03*
X847000Y757500D02*
D03*
X841500Y757512D02*
D03*
X833500Y752157D02*
D03*
X915000Y683695D02*
D03*
X878000Y896000D02*
D03*
X882047Y848047D02*
D03*
Y853953D02*
D03*
X860492Y833638D02*
D03*
X866000Y843638D02*
D03*
X871000Y862811D02*
D03*
X875528Y876500D02*
D03*
X870213D02*
D03*
X872000Y838500D02*
D03*
X876000D02*
D03*
X898500Y903461D02*
D03*
X904768Y906402D02*
D03*
X898500Y898539D02*
D03*
X904500Y893138D02*
D03*
X917500Y903843D02*
D03*
Y907500D02*
D03*
X914000Y897862D02*
D03*
X915000Y775500D02*
D03*
X1096260Y581941D02*
D03*
X1089000Y581843D02*
D03*
X896461Y879500D02*
D03*
X887953Y848047D02*
D03*
Y854084D02*
D03*
X915000Y688500D02*
D03*
X1077366Y604488D02*
D03*
X1036756Y544575D02*
D03*
Y541425D02*
D03*
X1031244D02*
D03*
X1030842Y560500D02*
D03*
X1036158D02*
D03*
X909396Y893103D02*
D03*
X1082200Y619739D02*
D03*
X1091450Y807917D02*
D03*
X1096413Y801358D02*
D03*
X1096372Y807917D02*
D03*
X1096413Y783642D02*
D03*
X983500Y808539D02*
D03*
X1124228Y672500D02*
D03*
X1102772Y687500D02*
D03*
X1124228Y677500D02*
D03*
X1102772D02*
D03*
Y672500D02*
D03*
X1080907Y634437D02*
D03*
X1088000Y625000D02*
D03*
X1097055D02*
D03*
X1009000Y555500D02*
D03*
Y535000D02*
D03*
Y545250D02*
D03*
X969658Y535000D02*
D03*
X861500Y538750D02*
D03*
Y549000D02*
D03*
Y560000D02*
D03*
X904500Y658000D02*
D03*
Y647500D02*
D03*
Y669500D02*
D03*
X791913Y706642D02*
D03*
X756087D02*
D03*
X816953Y712272D02*
D03*
Y708728D02*
D03*
X885984Y871758D02*
D03*
X891378Y879494D02*
D03*
X777122Y742917D02*
D03*
X762060Y743881D02*
D03*
X775190Y823813D02*
D03*
X781521Y833159D02*
D03*
X1044221Y810279D02*
D03*
X1049354Y804720D02*
D03*
X1036672Y585328D02*
D03*
X854862Y616685D02*
D03*
X850138Y623772D02*
D03*
X811000Y706843D02*
D03*
X790358Y744119D02*
D03*
X854855Y627206D02*
D03*
X803227Y730365D02*
D03*
X861500Y570500D02*
D03*
X861000Y623763D02*
D03*
X861169Y754000D02*
D03*
X861957Y762000D02*
D03*
X992862Y564000D02*
D03*
X1082118Y614323D02*
D03*
X1102772Y682500D02*
D03*
X1060587Y801358D02*
D03*
Y783642D02*
D03*
X914000Y893138D02*
D03*
X935130Y797843D02*
D03*
Y803158D02*
D03*
X1041224Y571000D02*
D03*
X1111000Y610500D02*
D03*
X896522Y546493D02*
D03*
X904405Y545979D02*
D03*
X917595D02*
D03*
Y567646D02*
D03*
Y551687D02*
D03*
Y573354D02*
D03*
X904405D02*
D03*
X896522Y572850D02*
D03*
X891500Y574138D02*
D03*
X1015407Y604620D02*
D03*
X1049907Y614120D02*
D03*
X1017500Y609500D02*
D03*
X891500Y564862D02*
D03*
X1012500Y609500D02*
D03*
X1032657Y614120D02*
D03*
X1044157Y622389D02*
D03*
X1054992Y544762D02*
D03*
X1090819D02*
D03*
X935500Y765228D02*
D03*
X942000Y890000D02*
D03*
X1031392Y785453D02*
D03*
X1023672D02*
D03*
X1018357D02*
D03*
X1010658D02*
D03*
X1004842D02*
D03*
X995087Y795642D02*
D03*
X1030913D02*
D03*
X940500Y743772D02*
D03*
X967000Y742842D02*
D03*
X907473Y748500D02*
D03*
X1102421Y747500D02*
D03*
X1062850Y714024D02*
D03*
X1069138Y723000D02*
D03*
X1081173Y733500D02*
D03*
X1124228Y682500D02*
D03*
X1087850Y714000D02*
D03*
X1101673Y719890D02*
D03*
X1029258Y676379D02*
D03*
X1045000Y786500D02*
D03*
X1057000Y789000D02*
D03*
X897279Y694000D02*
D03*
X884500Y731008D02*
D03*
X1090000Y735000D02*
D03*
X894720Y694000D02*
D03*
X907236Y843086D02*
D03*
X817000Y558000D02*
D03*
X798323Y554740D02*
D03*
X798103Y562577D02*
D03*
X813000D02*
D03*
D87*
X946000Y797638D02*
D03*
Y802362D02*
D03*
X909278Y893138D02*
D03*
Y897862D02*
D03*
X914000D02*
D03*
Y893138D02*
D03*
X891500Y578862D02*
D03*
Y574138D02*
D03*
Y560138D02*
D03*
Y564862D02*
D03*
X904500Y893138D02*
D03*
Y897862D02*
D03*
D88*
X896559Y885260D02*
D03*
X891441D02*
D03*
X894000Y892740D02*
D03*
D89*
X928858Y802961D02*
D03*
Y798039D02*
D03*
X898500Y903461D02*
D03*
Y898539D02*
D03*
D94*
X762039Y743902D02*
D03*
X766961D02*
D03*
X1049988Y780333D02*
D03*
X1045067D02*
D03*
X891539Y879500D02*
D03*
X896461D02*
D03*
D99*
X1038000Y729887D02*
D03*
Y727328D02*
D03*
X994779Y680721D02*
D03*
Y683280D02*
D03*
X1041402Y727328D02*
D03*
Y729887D02*
D03*
X1044804D02*
D03*
Y727328D02*
D03*
X1012000Y678899D02*
D03*
Y676340D02*
D03*
X1009500Y678899D02*
D03*
Y676340D02*
D03*
X1026296Y678894D02*
D03*
Y676334D02*
D03*
X1029258Y678899D02*
D03*
Y676340D02*
D03*
D100*
X1069138Y738500D02*
D03*
X1073862D02*
D03*
X1073862Y723000D02*
D03*
X1069138D02*
D03*
X1080862Y714024D02*
D03*
X1076138D02*
D03*
D104*
X980907Y604500D02*
D03*
X1049907D02*
D03*
X1061407D02*
D03*
X1038407D02*
D03*
X969407D02*
D03*
X1055657Y614000D02*
D03*
X1044157D02*
D03*
X1032657D02*
D03*
X986657D02*
D03*
X975157D02*
D03*
X1015407Y604500D02*
D03*
X1003907D02*
D03*
X992407D02*
D03*
X1026907D02*
D03*
X1021157Y614000D02*
D03*
X1009657D02*
D03*
X998157D02*
D03*
D105*
X994441Y651370D02*
D03*
X997000D02*
D03*
X994441Y648028D02*
D03*
X997000D02*
D03*
X994441Y627972D02*
D03*
X997000D02*
D03*
X994779Y667472D02*
D03*
X992220D02*
D03*
X1044779Y723000D02*
D03*
X1042220D02*
D03*
X935279Y810000D02*
D03*
X932720D02*
D03*
X997000Y658055D02*
D03*
X994441D02*
D03*
X997000Y654713D02*
D03*
X994441D02*
D03*
X992220Y674157D02*
D03*
X994779D02*
D03*
X992220Y670815D02*
D03*
X994779D02*
D03*
X992220Y677500D02*
D03*
X994779D02*
D03*
X997000Y644685D02*
D03*
X994441D02*
D03*
X997000Y631315D02*
D03*
X994441D02*
D03*
X997000Y634657D02*
D03*
X994441D02*
D03*
X997000Y638000D02*
D03*
X994441D02*
D03*
X997000Y641342D02*
D03*
X994441D02*
D03*
X997000Y621287D02*
D03*
X994441D02*
D03*
X997000Y624630D02*
D03*
X994441D02*
D03*
X1048221Y661500D02*
D03*
X1050780D02*
D03*
X1048221Y657500D02*
D03*
X1050780D02*
D03*
X1048221Y654000D02*
D03*
X1050780D02*
D03*
X1048221Y665500D02*
D03*
X1050780D02*
D03*
D134*
X1087850Y714000D02*
D03*
X1094150D02*
D03*
X1062850Y714024D02*
D03*
X1069150D02*
D03*
D137*
X1092827Y724516D02*
X1101673D01*
X1044837Y780563D02*
X1045000Y780726D01*
X1044622Y780348D02*
X1044837Y780563D01*
X1044622Y773000D02*
Y780348D01*
X931854Y634016D02*
Y639500D01*
X927519Y643836D02*
X931854Y639500D01*
X946000Y785000D02*
X951697Y779303D01*
Y713625D02*
Y779303D01*
X946000Y785000D02*
Y797638D01*
Y802362D02*
Y806000D01*
X942000Y810000D02*
X946000Y806000D01*
X935279Y810000D02*
X942000D01*
X1044837Y780563D02*
X1045067Y780333D01*
X1044622Y780778D02*
X1044837Y780563D01*
X1069150Y714024D02*
X1076138D01*
X1068677D02*
X1069150D01*
X816953Y712272D02*
X829228D01*
X844500Y675500D02*
Y697000D01*
X829228Y712272D02*
X844500Y697000D01*
X876164Y643836D02*
X927519D01*
X844500Y675500D02*
X876164Y643836D01*
X1090000Y735000D02*
X1092827Y732173D01*
X1044622Y786122D02*
X1045000Y786500D01*
X1044622Y780778D02*
Y786122D01*
X1092827Y730421D02*
Y732173D01*
X1081173Y730421D02*
Y733500D01*
Y726484D02*
Y728453D01*
Y730421D01*
X1101673Y724516D02*
Y746752D01*
X1102421Y747500D01*
X1080862Y714024D02*
Y720347D01*
X928858Y785752D02*
Y798039D01*
X929055Y797843D02*
X935130D01*
X928858Y798039D02*
X929055Y797843D01*
X934646Y797157D02*
X935130Y797642D01*
X773376Y740096D02*
X776653D01*
X777122Y740565D01*
Y742917D01*
Y744914D01*
X773376Y745739D02*
X776298D01*
X777122Y744914D01*
X778106Y743902D02*
X781000D01*
X773244Y739965D02*
X773376Y740096D01*
X773244Y745870D02*
X773376Y745739D01*
X777122Y742917D02*
X778106Y743902D01*
X904500Y897862D02*
X909278D01*
X913232Y906402D02*
X913620Y906014D01*
X915328D01*
X917500Y903843D01*
X904500Y897862D02*
X904768Y898130D01*
Y903843D01*
D138*
X1087327Y747500D02*
X1097500D01*
D140*
X1091697Y685197D02*
X1110000Y703500D01*
X1107500Y819500D02*
X1110000Y817000D01*
Y703500D02*
Y817000D01*
X1088461Y687461D02*
X1107000Y706000D01*
X1105000Y816000D02*
X1107000Y814000D01*
Y706000D02*
Y814000D01*
X1105000Y816000D02*
Y876563D01*
X1077382Y685197D02*
X1091697D01*
X985500Y670500D02*
X988528Y667472D01*
X985500Y768500D02*
X985567Y768567D01*
X985500Y670500D02*
Y768500D01*
X987500Y672657D02*
X989342Y670815D01*
X987500Y767500D02*
X987535Y767535D01*
X987500Y672657D02*
Y767500D01*
X989500Y674509D02*
X989851Y674157D01*
X989500Y766500D02*
X989504Y766504D01*
X989851Y674157D02*
X992220D01*
X989500Y674509D02*
Y766500D01*
X991472Y678071D02*
Y773000D01*
X992043Y677500D02*
X992220D01*
X991472Y678071D02*
X992043Y677500D01*
X993441Y684618D02*
Y773000D01*
X994779Y683280D02*
Y683457D01*
X994391Y683846D02*
X994779Y683457D01*
X994213Y683846D02*
X994391D01*
X993441Y684618D02*
X994213Y683846D01*
X997378Y657933D02*
Y773000D01*
X934500Y624243D02*
Y655500D01*
X919016Y670984D02*
X934500Y655500D01*
X1044958Y665500D02*
X1048221D01*
X1036500Y673958D02*
Y700500D01*
Y673958D02*
X1044958Y665500D01*
X1034500Y671500D02*
X1044407Y661593D01*
X1034500Y671500D02*
Y699500D01*
X1044407Y661593D02*
X1048502D01*
X1044000Y657500D02*
X1048221D01*
X1033102Y668399D02*
Y697898D01*
Y668399D02*
X1044000Y657500D01*
X1031542Y666458D02*
Y695958D01*
X1044000Y654000D02*
X1048221D01*
X1031542Y666458D02*
X1044000Y654000D01*
X997000Y654713D02*
X998550D01*
X999347Y655509D02*
Y773000D01*
X998550Y654713D02*
X999347Y655509D01*
X997000Y651370D02*
X999258D01*
X1001315Y653427D02*
Y773000D01*
X999258Y651370D02*
X1001315Y653427D01*
X997000Y651370D02*
X997000Y651370D01*
X996804Y648028D02*
X999200D01*
X1003284Y652111D02*
Y773000D01*
X999200Y648028D02*
X1003284Y652111D01*
X997185Y644500D02*
X999324D01*
X1005252Y650427D01*
Y773000D01*
X999630Y624630D02*
X1021702Y646702D01*
X997000Y624630D02*
X999630D01*
X1021702Y646702D02*
Y693596D01*
X997000Y644685D02*
X997185Y644500D01*
X997000Y641342D02*
X999343D01*
X1007220Y649220D02*
Y773000D01*
X999343Y641342D02*
X1007220Y649220D01*
X999500Y638000D02*
X1014510Y653010D01*
Y688939D01*
X997000Y638000D02*
X999500D01*
X996907Y634657D02*
X999658D01*
X1016308Y651308D02*
Y690200D01*
X999658Y634657D02*
X1016308Y651308D01*
X997005Y631315D02*
X999522D01*
X1018106Y649899D02*
Y691418D01*
X999522Y631315D02*
X1018106Y649899D01*
X999500Y628000D02*
X1020000Y648500D01*
X997024Y628000D02*
X999500D01*
X1020000Y648500D02*
Y692675D01*
X997000Y621287D02*
X999287D01*
X1023500Y645500D02*
Y695000D01*
X999287Y621287D02*
X1023500Y645500D01*
X992132Y618868D02*
X1003632D01*
X990710Y617745D02*
X999429D01*
X1003907Y613268D01*
X979912Y628543D02*
X990710Y617745D01*
X979912Y628543D02*
Y631138D01*
X980405Y631631D01*
X1003632Y618868D02*
X1008500Y614000D01*
X982798Y628202D02*
X992132Y618868D01*
X982798Y628202D02*
Y632847D01*
X979859Y635786D02*
X982798Y632847D01*
X975000Y614000D02*
X975157D01*
X969091Y610709D02*
X971709D01*
X975000Y614000D01*
X964000Y622000D02*
X973598D01*
X989976Y605622D01*
X990115D01*
X991238Y604500D02*
X992407D01*
X990115Y605622D02*
X991238Y604500D01*
X979859Y635786D02*
X979859D01*
X991434Y614566D02*
X997590D01*
X964000Y625321D02*
X980679D01*
X991434Y614566D01*
X997590D02*
X998157Y614000D01*
X954862Y604500D02*
Y623000D01*
Y642661D01*
X954533Y604171D02*
X954862Y604500D01*
X920984Y676539D02*
X954862Y642661D01*
X960638Y623000D02*
Y642862D01*
Y608741D02*
Y623000D01*
X922953Y680547D02*
X960638Y642862D01*
Y608741D02*
X960640D01*
X934500Y624243D02*
X934518Y624226D01*
X1003907Y604500D02*
Y613268D01*
X1047457Y724803D02*
Y731543D01*
Y724629D02*
Y724803D01*
X960638Y595638D02*
Y608741D01*
X1044804Y729887D02*
Y731696D01*
X1040685Y735815D02*
Y773000D01*
X1040685Y735815D02*
X1044804Y731696D01*
X1038717Y735000D02*
Y772717D01*
X1041402Y729887D02*
Y732598D01*
X1039000Y735000D02*
X1041402Y732598D01*
X1042653Y736346D02*
X1047457Y731543D01*
X1042653Y736346D02*
Y773000D01*
X1038000Y729887D02*
Y733000D01*
X1036748Y734252D02*
X1038000Y733000D01*
X1036748Y734252D02*
Y773000D01*
X1038717D02*
X1039000Y772717D01*
X989504Y766504D02*
Y773000D01*
X987535Y767535D02*
Y773000D01*
X985567Y768567D02*
Y773000D01*
X1011158Y689342D02*
X1012000Y688500D01*
Y678899D02*
Y688500D01*
X1011158Y689342D02*
Y773000D01*
X1009189Y679210D02*
Y773000D01*
X1009189Y679210D02*
X1009500Y678899D01*
X1013126Y690323D02*
X1014510Y688939D01*
X1013126Y690323D02*
Y773000D01*
X1015094Y691413D02*
Y773000D01*
X1015094Y691413D02*
X1016308Y690200D01*
X1017063Y692461D02*
X1018106Y691418D01*
X1017063Y692461D02*
Y773000D01*
X1019032Y693643D02*
Y773000D01*
X1019032Y693643D02*
X1020000Y692675D01*
X1021000Y694298D02*
X1021702Y693596D01*
X1021000Y694298D02*
Y773000D01*
X1022968Y695532D02*
Y773000D01*
X1022968Y695532D02*
X1023500Y695000D01*
X1024937Y696563D02*
Y773000D01*
X1024937Y696563D02*
X1026296Y695204D01*
X1026906Y697594D02*
X1029258Y695242D01*
X1026906Y697594D02*
Y773000D01*
X1028874Y698626D02*
Y773000D01*
X1028874Y698626D02*
X1031542Y695958D01*
X1030842Y700157D02*
X1033102Y697898D01*
X1030842Y700157D02*
Y773000D01*
X1032811Y701189D02*
X1034500Y699500D01*
X1032811Y701189D02*
Y773000D01*
X1039716Y712784D02*
X1045869Y706631D01*
Y700418D02*
Y706631D01*
X1039716Y712784D02*
Y725284D01*
X1038000Y727150D02*
Y727328D01*
X1038627Y726373D02*
X1039716Y725284D01*
X1038000Y727150D02*
X1038627Y726524D01*
Y726373D02*
Y726524D01*
X1034779Y702220D02*
Y773000D01*
X1045869Y700418D02*
X1045992Y700295D01*
X1034779Y702220D02*
X1036500Y700500D01*
X858000Y552500D02*
Y609000D01*
Y552500D02*
X861500Y549000D01*
X858000Y609000D02*
X858152Y609152D01*
X1110000Y697500D02*
X1119000Y706500D01*
Y798268D01*
X1125062Y706563D02*
Y798268D01*
X922953Y680547D02*
Y785752D01*
X1058000Y596665D02*
Y601093D01*
X1058000Y596664D02*
X1058000Y596665D01*
Y601093D02*
X1061407Y604500D01*
X915079Y785752D02*
Y796039D01*
Y784271D02*
Y785752D01*
X1050139Y600873D02*
Y604268D01*
X1051371Y599641D02*
Y599641D01*
X1050139Y600873D02*
X1051371Y599641D01*
X1049907Y604500D02*
X1050139Y604268D01*
X1114000Y695500D02*
X1125062Y706563D01*
X1114000Y631500D02*
Y695500D01*
X1110000Y631500D02*
Y697500D01*
X1060500Y582000D02*
X1110000Y631500D01*
X1061500Y579000D02*
X1114000Y631500D01*
X1062500Y576000D02*
X1117500Y631000D01*
Y693000D02*
X1131125Y706625D01*
X1117500Y631000D02*
Y693000D01*
X1077362Y685177D02*
X1077382Y685197D01*
X1072492Y687461D02*
X1088461D01*
X1072231Y687199D02*
X1072492Y687461D01*
X988528Y667472D02*
X992093D01*
X989342Y670815D02*
X992220D01*
X787500Y661500D02*
X817500Y631500D01*
X857000D02*
X861000Y627500D01*
X817500Y631500D02*
X857000D01*
X785000Y659500D02*
Y737958D01*
Y659500D02*
X817294Y627206D01*
X854855D01*
X781000Y741933D02*
X784632D01*
X787500Y739065D01*
Y661500D02*
Y739065D01*
X781000Y739965D02*
X781015Y739950D01*
X783008D01*
X785000Y737958D01*
X861500Y570500D02*
X870500Y579500D01*
X936000D01*
X954862Y598362D01*
Y603842D01*
X920984Y676539D02*
Y785752D01*
X919016Y670984D02*
Y785752D01*
X1046031Y723377D02*
X1047457Y724803D01*
X1044779Y723000D02*
X1045156Y723377D01*
X1046031D01*
X1029258Y678899D02*
Y695242D01*
X1026296Y678894D02*
Y695204D01*
X1107500Y874063D02*
X1111343Y877905D01*
X1107500Y819500D02*
Y874063D01*
X1105000Y876563D02*
X1111343Y882905D01*
X1131125Y706625D02*
Y798268D01*
X1077000Y726079D02*
Y728500D01*
Y726079D02*
X1078563Y724516D01*
X1081173D01*
X1080862Y720347D02*
X1081094Y720579D01*
X1081173D01*
X1067500Y715201D02*
X1068677Y714024D01*
X1044157Y614000D02*
Y622389D01*
X1012500Y609500D02*
X1016650Y613650D01*
X1020807D01*
X1021157Y614000D01*
X1017500Y609500D02*
X1021907D01*
X1026907Y604500D01*
X1055597Y614060D02*
X1055657Y614000D01*
X1049967Y614060D02*
X1055597D01*
X1049907Y614120D02*
X1049967Y614060D01*
X1008500Y614000D02*
X1009657D01*
X925000Y560000D02*
X960638Y595638D01*
X861500Y560000D02*
X925000D01*
X915079Y796039D02*
X929039Y810000D01*
X854855Y627206D02*
X858152Y623909D01*
Y609152D02*
Y623909D01*
X861000Y623763D02*
Y627500D01*
X781000Y745870D02*
X788606D01*
X790358Y744119D01*
X1041224Y582000D02*
X1047224Y576000D01*
X1045201Y582000D02*
Y582000D01*
Y582000D02*
X1048201Y579000D01*
X1061500D01*
X1047224Y576000D02*
X1062500D01*
X1049177Y582000D02*
X1060500D01*
X929039Y810000D02*
X932720D01*
D143*
X817161Y534500D02*
D03*
X791965D02*
D03*
X890661Y912220D02*
D03*
X865465D02*
D03*
X924784D02*
D03*
X949980D02*
D03*
D144*
X794721Y545130D02*
D03*
X814406D02*
D03*
X868221Y901591D02*
D03*
X887906D02*
D03*
X947224D02*
D03*
X927539D02*
D03*
D145*
X1070988Y860268D02*
D03*
X1065476D02*
D03*
X1076500D02*
D03*
X1065476Y854756D02*
D03*
X1070988D02*
D03*
X1076500D02*
D03*
X1068232Y863024D02*
D03*
X1073744D02*
D03*
X1068232Y857512D02*
D03*
X1073744D02*
D03*
X1068232Y852000D02*
D03*
X1073744D02*
D03*
X785350Y822000D02*
D03*
X788500Y825150D02*
D03*
X791650Y822000D02*
D03*
X788500Y818850D02*
D03*
Y822000D02*
D03*
D146*
X831933Y682500D02*
D03*
Y582500D02*
D03*
Y657500D02*
D03*
Y607500D02*
D03*
D147*
X759000Y753500D02*
D03*
Y767000D02*
D03*
D148*
X841201Y870500D02*
D03*
D149*
X822500D02*
D03*
X803799D02*
D03*
D150*
X780000Y765799D02*
D03*
Y753594D02*
D03*
X1112409Y552102D02*
D03*
X769890D02*
D03*
Y894610D02*
D03*
X966740Y894610D02*
D03*
D151*
X1050528Y773000D02*
D03*
X1048559D02*
D03*
X1046591D02*
D03*
X1044622D02*
D03*
X1042653D02*
D03*
X1040685D02*
D03*
X1038717D02*
D03*
X1036748D02*
D03*
X1034779D02*
D03*
X1032811D02*
D03*
X1030842D02*
D03*
X1028874D02*
D03*
X1026906D02*
D03*
X1024937D02*
D03*
X1022968D02*
D03*
X1021000D02*
D03*
X1019032D02*
D03*
X1017063D02*
D03*
X1015094D02*
D03*
X1013126D02*
D03*
X1011158D02*
D03*
X1009189D02*
D03*
X1007220D02*
D03*
X1005252D02*
D03*
X1003284D02*
D03*
X1001315D02*
D03*
X999347D02*
D03*
X997378D02*
D03*
X995409D02*
D03*
X993441D02*
D03*
X991472D02*
D03*
X989504D02*
D03*
X987535D02*
D03*
X985567D02*
D03*
X983598D02*
D03*
X981630D02*
D03*
X979661D02*
D03*
X977693D02*
D03*
X975724D02*
D03*
X973756D02*
D03*
X928858Y785752D02*
D03*
X926890D02*
D03*
X924921D02*
D03*
X922953D02*
D03*
X920984D02*
D03*
X919016D02*
D03*
X917047D02*
D03*
X915079D02*
D03*
X913110D02*
D03*
X911142D02*
D03*
D152*
X1057102Y766307D02*
D03*
X967181D02*
D03*
X935433Y779059D02*
D03*
X904567D02*
D03*
D153*
X1087327Y747500D02*
D03*
X1070673D02*
D03*
D154*
X1097500D02*
D03*
X1102421D02*
D03*
D155*
X1087000Y725500D02*
D03*
D156*
X1092827Y720579D02*
D03*
Y722547D02*
D03*
Y724516D02*
D03*
Y726484D02*
D03*
Y728453D02*
D03*
Y730421D02*
D03*
X1081173D02*
D03*
Y728453D02*
D03*
Y726484D02*
D03*
Y724516D02*
D03*
Y722547D02*
D03*
Y720579D02*
D03*
D157*
X773244Y739965D02*
D03*
Y741933D02*
D03*
Y743902D02*
D03*
Y745870D02*
D03*
X781000D02*
D03*
Y743902D02*
D03*
Y741933D02*
D03*
Y739965D02*
D03*
D158*
X777122Y742917D02*
D03*
D159*
X909039Y916598D02*
D03*
D160*
X1056343Y743657D02*
X1059500D01*
X1050528Y749472D02*
Y773000D01*
Y749472D02*
X1056343Y743657D01*
X1068453Y748500D02*
X1071071D01*
X1059500Y738343D02*
X1068980D01*
X1056157D02*
X1059500D01*
X1068980D02*
X1069138Y738500D01*
X1048559Y745941D02*
X1056157Y738343D01*
X1069138Y738611D02*
Y745965D01*
X1048559Y745941D02*
Y773000D01*
X1067087Y749865D02*
X1068453Y748500D01*
X1069138Y745965D02*
X1070673Y747500D01*
M02*
