G04*
G04 #@! TF.GenerationSoftware,Altium Limited,Altium Designer,20.2.5 (213)*
G04*
G04 Layer_Color=8388736*
%FSLAX25Y25*%
%MOIN*%
G70*
G04*
G04 #@! TF.SameCoordinates,04ACB860-B9D4-4248-80BD-52411BCDF81E*
G04*
G04*
G04 #@! TF.FilePolarity,Negative*
G04*
G01*
G75*
%ADD19R,0.02362X0.03543*%
%ADD20R,0.03543X0.03937*%
G04:AMPARAMS|DCode=21|XSize=63.78mil|YSize=14.96mil|CornerRadius=2.35mil|HoleSize=0mil|Usage=FLASHONLY|Rotation=270.000|XOffset=0mil|YOffset=0mil|HoleType=Round|Shape=RoundedRectangle|*
%AMROUNDEDRECTD21*
21,1,0.06378,0.01025,0,0,270.0*
21,1,0.05907,0.01496,0,0,270.0*
1,1,0.00471,-0.00513,-0.02954*
1,1,0.00471,-0.00513,0.02954*
1,1,0.00471,0.00513,0.02954*
1,1,0.00471,0.00513,-0.02954*
%
%ADD21ROUNDEDRECTD21*%
G04:AMPARAMS|DCode=22|XSize=63.78mil|YSize=14.96mil|CornerRadius=2.35mil|HoleSize=0mil|Usage=FLASHONLY|Rotation=180.000|XOffset=0mil|YOffset=0mil|HoleType=Round|Shape=RoundedRectangle|*
%AMROUNDEDRECTD22*
21,1,0.06378,0.01025,0,0,180.0*
21,1,0.05907,0.01496,0,0,180.0*
1,1,0.00471,-0.02954,0.00513*
1,1,0.00471,0.02954,0.00513*
1,1,0.00471,0.02954,-0.00513*
1,1,0.00471,-0.02954,-0.00513*
%
%ADD22ROUNDEDRECTD22*%
%ADD23R,0.02756X0.06102*%
%ADD24R,0.03937X0.04331*%
%ADD25R,0.10000X0.17480*%
G04:AMPARAMS|DCode=26|XSize=37.8mil|YSize=14.57mil|CornerRadius=3.3mil|HoleSize=0mil|Usage=FLASHONLY|Rotation=0.000|XOffset=0mil|YOffset=0mil|HoleType=Round|Shape=RoundedRectangle|*
%AMROUNDEDRECTD26*
21,1,0.03780,0.00797,0,0,0.0*
21,1,0.03120,0.01457,0,0,0.0*
1,1,0.00659,0.01560,-0.00399*
1,1,0.00659,-0.01560,-0.00399*
1,1,0.00659,-0.01560,0.00399*
1,1,0.00659,0.01560,0.00399*
%
%ADD26ROUNDEDRECTD26*%
G04:AMPARAMS|DCode=27|XSize=59.06mil|YSize=86.61mil|CornerRadius=15.75mil|HoleSize=0mil|Usage=FLASHONLY|Rotation=90.000|XOffset=0mil|YOffset=0mil|HoleType=Round|Shape=RoundedRectangle|*
%AMROUNDEDRECTD27*
21,1,0.05906,0.05512,0,0,90.0*
21,1,0.02756,0.08661,0,0,90.0*
1,1,0.03150,0.02756,0.01378*
1,1,0.03150,0.02756,-0.01378*
1,1,0.03150,-0.02756,-0.01378*
1,1,0.03150,-0.02756,0.01378*
%
%ADD27ROUNDEDRECTD27*%
%ADD28R,0.05945X0.04764*%
%ADD29R,0.03937X0.03937*%
%ADD30R,0.06299X0.03937*%
%ADD31R,0.03937X0.06299*%
%ADD32R,0.03347X0.03740*%
%ADD33R,0.03740X0.01575*%
G04:AMPARAMS|DCode=34|XSize=37.01mil|YSize=14.17mil|CornerRadius=3.25mil|HoleSize=0mil|Usage=FLASHONLY|Rotation=90.000|XOffset=0mil|YOffset=0mil|HoleType=Round|Shape=RoundedRectangle|*
%AMROUNDEDRECTD34*
21,1,0.03701,0.00768,0,0,90.0*
21,1,0.03051,0.01417,0,0,90.0*
1,1,0.00650,0.00384,0.01526*
1,1,0.00650,0.00384,-0.01526*
1,1,0.00650,-0.00384,-0.01526*
1,1,0.00650,-0.00384,0.01526*
%
%ADD34ROUNDEDRECTD34*%
G04:AMPARAMS|DCode=35|XSize=37.01mil|YSize=14.17mil|CornerRadius=3.25mil|HoleSize=0mil|Usage=FLASHONLY|Rotation=0.000|XOffset=0mil|YOffset=0mil|HoleType=Round|Shape=RoundedRectangle|*
%AMROUNDEDRECTD35*
21,1,0.03701,0.00768,0,0,0.0*
21,1,0.03051,0.01417,0,0,0.0*
1,1,0.00650,0.01526,-0.00384*
1,1,0.00650,-0.01526,-0.00384*
1,1,0.00650,-0.01526,0.00384*
1,1,0.00650,0.01526,0.00384*
%
%ADD35ROUNDEDRECTD35*%
%ADD36R,0.08661X0.08661*%
%ADD37R,0.03740X0.03347*%
%ADD38R,0.02756X0.02913*%
%ADD39R,0.03937X0.03543*%
%ADD40R,0.02132X0.01778*%
%ADD41R,0.04331X0.03937*%
%ADD42R,0.11378X0.03307*%
%ADD43R,0.04134X0.04134*%
%ADD44R,0.04134X0.04134*%
%ADD45R,0.03150X0.03937*%
%ADD46R,0.01968X0.05709*%
%ADD47R,0.06299X0.07874*%
%ADD48R,0.01778X0.02132*%
G04:AMPARAMS|DCode=49|XSize=52.76mil|YSize=22.05mil|CornerRadius=6.5mil|HoleSize=0mil|Usage=FLASHONLY|Rotation=180.000|XOffset=0mil|YOffset=0mil|HoleType=Round|Shape=RoundedRectangle|*
%AMROUNDEDRECTD49*
21,1,0.05276,0.00906,0,0,180.0*
21,1,0.03976,0.02205,0,0,180.0*
1,1,0.01299,-0.01988,0.00453*
1,1,0.01299,0.01988,0.00453*
1,1,0.01299,0.01988,-0.00453*
1,1,0.01299,-0.01988,-0.00453*
%
%ADD49ROUNDEDRECTD49*%
%ADD50R,0.07677X0.13780*%
%ADD51R,0.05512X0.04724*%
%ADD52R,0.01575X0.03740*%
%ADD53R,0.10433X0.10433*%
%ADD54R,0.04724X0.05512*%
%ADD55R,0.07480X0.04331*%
%ADD56R,0.07480X0.02756*%
%ADD57C,0.05315*%
%ADD58R,0.06299X0.08740*%
%ADD59R,0.02913X0.02756*%
%ADD60R,0.06693X0.05315*%
%ADD61R,0.01772X0.02677*%
%ADD62R,0.02677X0.01772*%
%ADD63R,0.03937X0.03150*%
%ADD64R,0.05906X0.05512*%
%ADD65R,0.03347X0.05315*%
%ADD66R,0.02959X0.02762*%
%ADD67R,0.05906X0.11417*%
%ADD68R,0.11417X0.05906*%
%ADD69R,0.05512X0.05906*%
%ADD70C,0.07284*%
%ADD71C,0.02362*%
%ADD72C,0.11693*%
%ADD73C,0.01968*%
%ADD74C,0.08957*%
G04:AMPARAMS|DCode=75|XSize=74.8mil|YSize=78.74mil|CornerRadius=19.68mil|HoleSize=0mil|Usage=FLASHONLY|Rotation=180.000|XOffset=0mil|YOffset=0mil|HoleType=Round|Shape=RoundedRectangle|*
%AMROUNDEDRECTD75*
21,1,0.07480,0.03937,0,0,180.0*
21,1,0.03543,0.07874,0,0,180.0*
1,1,0.03937,-0.01772,0.01968*
1,1,0.03937,0.01772,0.01968*
1,1,0.03937,0.01772,-0.01968*
1,1,0.03937,-0.01772,-0.01968*
%
%ADD75ROUNDEDRECTD75*%
%ADD76C,0.06102*%
%ADD77R,0.10138X0.10138*%
%ADD78C,0.10138*%
%ADD79C,0.06394*%
D19*
X964295Y554639D02*
D03*
X957209D02*
D03*
X953665D02*
D03*
Y559364D02*
D03*
X957209D02*
D03*
X964295D02*
D03*
X960752D02*
D03*
Y554639D02*
D03*
D20*
X871232Y870000D02*
D03*
X866311D02*
D03*
X850539Y649700D02*
D03*
X855461D02*
D03*
X882461Y677600D02*
D03*
X877539D02*
D03*
X855461Y668300D02*
D03*
X850539D02*
D03*
X882461Y683800D02*
D03*
X877539D02*
D03*
X882461Y643500D02*
D03*
X877539D02*
D03*
Y659000D02*
D03*
X882461D02*
D03*
X971961Y719500D02*
D03*
X967039D02*
D03*
X1055333Y722479D02*
D03*
X1050412D02*
D03*
X1018554Y734339D02*
D03*
X1023475D02*
D03*
X1005539D02*
D03*
X1010461D02*
D03*
X992567Y576842D02*
D03*
X987646D02*
D03*
X1015961Y577000D02*
D03*
X1011039D02*
D03*
X1023039D02*
D03*
X1027961D02*
D03*
X965421Y577181D02*
D03*
X970343D02*
D03*
X1120643Y593051D02*
D03*
X1115722D02*
D03*
X1085129Y808417D02*
D03*
X1090051D02*
D03*
D21*
X951697Y708524D02*
D03*
X953665D02*
D03*
X955634D02*
D03*
X957602D02*
D03*
X961539D02*
D03*
X965476D02*
D03*
X967445D02*
D03*
X969413D02*
D03*
X971382D02*
D03*
X973350D02*
D03*
X975319D02*
D03*
X977287D02*
D03*
X979256D02*
D03*
X981224D02*
D03*
X983193D02*
D03*
X985161D02*
D03*
X987130D02*
D03*
X989098D02*
D03*
X991067D02*
D03*
X993035D02*
D03*
X995004D02*
D03*
X996972D02*
D03*
X998941D02*
D03*
X1000909D02*
D03*
X1002878D02*
D03*
X1004846D02*
D03*
X1006815D02*
D03*
X1008784D02*
D03*
X1010752D02*
D03*
X1012720D02*
D03*
X1014689D02*
D03*
X1016658D02*
D03*
X1018626D02*
D03*
X1020595D02*
D03*
X1022563D02*
D03*
X1024531D02*
D03*
X1026500D02*
D03*
X1028469D02*
D03*
X1030437D02*
D03*
X1032405D02*
D03*
X1034374D02*
D03*
X1036343D02*
D03*
X1038311D02*
D03*
X1040279D02*
D03*
X1042248D02*
D03*
X1044217D02*
D03*
X1046185D02*
D03*
X1048153D02*
D03*
X1050122D02*
D03*
X1052091D02*
D03*
Y592972D02*
D03*
X1050122D02*
D03*
X1048153D02*
D03*
X1046185D02*
D03*
X1044217D02*
D03*
X1042248D02*
D03*
X1040279D02*
D03*
X1038311D02*
D03*
X1036343D02*
D03*
X1034374D02*
D03*
X1032405D02*
D03*
X1030437D02*
D03*
X1028469D02*
D03*
X1026500D02*
D03*
X1024531D02*
D03*
X1022563D02*
D03*
X1020595D02*
D03*
X1018626D02*
D03*
X1016658D02*
D03*
X1014689D02*
D03*
X1012720D02*
D03*
X1010752D02*
D03*
X1008784D02*
D03*
X1006815D02*
D03*
X1004846D02*
D03*
X1002878D02*
D03*
X1000909D02*
D03*
X998941D02*
D03*
X996972D02*
D03*
X995004D02*
D03*
X993035D02*
D03*
X991067D02*
D03*
X989098D02*
D03*
X987130D02*
D03*
X985161D02*
D03*
X983193D02*
D03*
X981224D02*
D03*
X979256D02*
D03*
X977287D02*
D03*
X975319D02*
D03*
X973350D02*
D03*
X971382D02*
D03*
X969413D02*
D03*
X967445D02*
D03*
X965476D02*
D03*
X963508D02*
D03*
X961539D02*
D03*
X959571D02*
D03*
X957602D02*
D03*
X955634D02*
D03*
X953665D02*
D03*
X951697D02*
D03*
X963508Y708524D02*
D03*
X959571D02*
D03*
D22*
X1059669Y700945D02*
D03*
Y698976D02*
D03*
Y697008D02*
D03*
Y695039D02*
D03*
Y693071D02*
D03*
Y691102D02*
D03*
Y689134D02*
D03*
Y687165D02*
D03*
Y685197D02*
D03*
Y683228D02*
D03*
Y681260D02*
D03*
Y679291D02*
D03*
Y677323D02*
D03*
Y675354D02*
D03*
Y673386D02*
D03*
Y671417D02*
D03*
Y669449D02*
D03*
Y667480D02*
D03*
Y665512D02*
D03*
Y663543D02*
D03*
Y661575D02*
D03*
Y659606D02*
D03*
Y657638D02*
D03*
Y655669D02*
D03*
Y653701D02*
D03*
Y651732D02*
D03*
Y649764D02*
D03*
Y647795D02*
D03*
Y645827D02*
D03*
Y643858D02*
D03*
Y641890D02*
D03*
Y639921D02*
D03*
Y637953D02*
D03*
Y635984D02*
D03*
Y634016D02*
D03*
Y632047D02*
D03*
Y630079D02*
D03*
Y628110D02*
D03*
Y626142D02*
D03*
Y624173D02*
D03*
Y622205D02*
D03*
Y620236D02*
D03*
Y618268D02*
D03*
Y616299D02*
D03*
Y614331D02*
D03*
Y612362D02*
D03*
Y610394D02*
D03*
Y608425D02*
D03*
Y606457D02*
D03*
Y604488D02*
D03*
Y602520D02*
D03*
Y600551D02*
D03*
X944118D02*
D03*
Y602520D02*
D03*
Y604488D02*
D03*
Y606457D02*
D03*
Y608425D02*
D03*
Y610394D02*
D03*
Y612362D02*
D03*
Y614331D02*
D03*
Y616299D02*
D03*
Y618268D02*
D03*
Y620236D02*
D03*
Y622205D02*
D03*
Y624173D02*
D03*
Y626142D02*
D03*
Y628110D02*
D03*
Y630079D02*
D03*
Y632047D02*
D03*
Y634016D02*
D03*
Y635984D02*
D03*
Y637953D02*
D03*
Y639921D02*
D03*
Y641890D02*
D03*
Y643858D02*
D03*
Y645827D02*
D03*
Y647795D02*
D03*
Y649764D02*
D03*
Y651732D02*
D03*
Y653701D02*
D03*
Y655669D02*
D03*
Y657638D02*
D03*
Y659606D02*
D03*
Y661575D02*
D03*
Y663543D02*
D03*
Y665512D02*
D03*
Y667480D02*
D03*
Y669449D02*
D03*
Y671417D02*
D03*
Y673386D02*
D03*
Y675354D02*
D03*
Y677323D02*
D03*
Y679291D02*
D03*
Y681260D02*
D03*
Y683228D02*
D03*
Y685197D02*
D03*
Y687165D02*
D03*
Y689134D02*
D03*
Y691102D02*
D03*
Y693071D02*
D03*
Y695039D02*
D03*
Y697008D02*
D03*
Y698976D02*
D03*
Y700945D02*
D03*
D23*
X935500Y743772D02*
D03*
X940500D02*
D03*
X945500D02*
D03*
X950500D02*
D03*
X935500Y765228D02*
D03*
X940500D02*
D03*
X945500D02*
D03*
X950500D02*
D03*
D24*
X1055797Y728500D02*
D03*
X1050482D02*
D03*
X987307Y873000D02*
D03*
X992622D02*
D03*
X1023672Y740295D02*
D03*
X1018357D02*
D03*
X1010658Y740453D02*
D03*
X1005342D02*
D03*
X939976Y577000D02*
D03*
X934661D02*
D03*
X971930Y725802D02*
D03*
X966615D02*
D03*
X871528Y876500D02*
D03*
X866213D02*
D03*
X993157Y571000D02*
D03*
X987842D02*
D03*
X1028158D02*
D03*
X1022843D02*
D03*
X970658D02*
D03*
X965343D02*
D03*
X1010843D02*
D03*
X1016158D02*
D03*
X809303Y794500D02*
D03*
X803988D02*
D03*
X860972Y746488D02*
D03*
X855657D02*
D03*
X850342Y769500D02*
D03*
X855657D02*
D03*
X801342Y830500D02*
D03*
X806658D02*
D03*
D25*
X855500Y784500D02*
D03*
D26*
X863118Y791390D02*
D03*
Y789421D02*
D03*
Y787453D02*
D03*
Y785484D02*
D03*
Y783516D02*
D03*
Y781547D02*
D03*
Y779579D02*
D03*
Y777610D02*
D03*
X847882D02*
D03*
Y779579D02*
D03*
Y781547D02*
D03*
Y783516D02*
D03*
Y785484D02*
D03*
Y787453D02*
D03*
Y789421D02*
D03*
Y791390D02*
D03*
D27*
X1090819Y561858D02*
D03*
Y544142D02*
D03*
X1054992D02*
D03*
Y561858D02*
D03*
X1030413Y783642D02*
D03*
Y801358D02*
D03*
X994587D02*
D03*
Y783642D02*
D03*
X1060587D02*
D03*
Y801358D02*
D03*
X1096413D02*
D03*
Y783642D02*
D03*
X905587Y544142D02*
D03*
Y561858D02*
D03*
X941413D02*
D03*
Y544142D02*
D03*
D28*
X1120595Y831309D02*
D03*
Y825797D02*
D03*
X1132405Y831309D02*
D03*
Y825797D02*
D03*
X1120595Y767756D02*
D03*
Y762244D02*
D03*
X1132405Y767756D02*
D03*
Y762244D02*
D03*
Y698744D02*
D03*
Y704256D02*
D03*
X1120595Y698744D02*
D03*
Y704256D02*
D03*
D29*
X1070988Y857512D02*
D03*
X1065476D02*
D03*
X1076500D02*
D03*
X1065476Y852000D02*
D03*
X1070988D02*
D03*
X1076500D02*
D03*
X1065476Y863024D02*
D03*
X1070988D02*
D03*
X1076500D02*
D03*
D30*
X1042445Y887906D02*
D03*
Y882905D02*
D03*
Y877905D02*
D03*
Y872906D02*
D03*
Y867906D02*
D03*
Y862906D02*
D03*
Y857905D02*
D03*
Y852905D02*
D03*
Y847906D02*
D03*
Y842906D02*
D03*
Y837906D02*
D03*
Y832905D02*
D03*
Y827905D02*
D03*
Y822906D02*
D03*
X1111343D02*
D03*
Y827905D02*
D03*
Y832905D02*
D03*
Y837906D02*
D03*
Y842906D02*
D03*
Y847906D02*
D03*
Y852905D02*
D03*
Y857905D02*
D03*
Y862906D02*
D03*
Y877905D02*
D03*
Y882905D02*
D03*
Y887906D02*
D03*
Y867906D02*
D03*
Y872906D02*
D03*
D31*
X1049394Y817984D02*
D03*
X1054394D02*
D03*
X1059394D02*
D03*
X1064394D02*
D03*
X1069394D02*
D03*
X1074394D02*
D03*
X1079394D02*
D03*
X1084394D02*
D03*
X1089394D02*
D03*
X1094394D02*
D03*
X1099394D02*
D03*
X1104394D02*
D03*
D32*
X1106638Y699137D02*
D03*
X1111362D02*
D03*
X896756Y834886D02*
D03*
X901480D02*
D03*
X897122Y826000D02*
D03*
X901847D02*
D03*
X824138Y545633D02*
D03*
X828862D02*
D03*
X798103Y562577D02*
D03*
X802827D02*
D03*
X812862D02*
D03*
X808138D02*
D03*
X999008Y878575D02*
D03*
X1003732D02*
D03*
X1106638Y805500D02*
D03*
X1111362D02*
D03*
X1106638Y810500D02*
D03*
X1111362D02*
D03*
X1106638Y800500D02*
D03*
X1111362D02*
D03*
X1106638Y767468D02*
D03*
X1111362D02*
D03*
X1106638Y772000D02*
D03*
X1111362D02*
D03*
X977287Y564000D02*
D03*
X982012D02*
D03*
X1072642Y604488D02*
D03*
X1077366D02*
D03*
X1041224Y577000D02*
D03*
X1036500D02*
D03*
X992862Y564000D02*
D03*
X988138D02*
D03*
X1041224Y571000D02*
D03*
X1036500D02*
D03*
X1111362Y703870D02*
D03*
X1106638D02*
D03*
X1111362Y694603D02*
D03*
X1106638D02*
D03*
X1111362Y763000D02*
D03*
X1106638D02*
D03*
X775362Y790500D02*
D03*
X770638D02*
D03*
X814862Y731500D02*
D03*
X810138D02*
D03*
X801638Y822984D02*
D03*
X806362D02*
D03*
X772724Y817079D02*
D03*
X768000D02*
D03*
D33*
X892677Y850016D02*
D03*
Y848047D02*
D03*
X877323Y855921D02*
D03*
Y853953D02*
D03*
Y851984D02*
D03*
Y850016D02*
D03*
Y848047D02*
D03*
Y846079D02*
D03*
X892677D02*
D03*
Y851984D02*
D03*
Y853953D02*
D03*
Y855921D02*
D03*
D34*
X783579Y814382D02*
D03*
X785547D02*
D03*
X787516D02*
D03*
X789484D02*
D03*
X791453D02*
D03*
X793421D02*
D03*
Y829618D02*
D03*
X791453D02*
D03*
X789484D02*
D03*
X787516D02*
D03*
X785547D02*
D03*
X783579D02*
D03*
D35*
X780882Y826921D02*
D03*
Y824953D02*
D03*
Y822984D02*
D03*
Y821016D02*
D03*
Y819047D02*
D03*
Y817079D02*
D03*
X796118D02*
D03*
Y819047D02*
D03*
Y821016D02*
D03*
Y822984D02*
D03*
Y824953D02*
D03*
Y826921D02*
D03*
D36*
X788500Y822000D02*
D03*
D37*
X890000Y726138D02*
D03*
Y730862D02*
D03*
X808000Y552378D02*
D03*
Y557102D02*
D03*
X802631D02*
D03*
Y552378D02*
D03*
X778000Y837835D02*
D03*
Y842559D02*
D03*
X860492Y838362D02*
D03*
Y833638D02*
D03*
X762953Y797138D02*
D03*
Y801862D02*
D03*
X752000Y816362D02*
D03*
Y811638D02*
D03*
Y822638D02*
D03*
Y827362D02*
D03*
X866000Y843638D02*
D03*
Y848362D02*
D03*
X860492Y848441D02*
D03*
Y843717D02*
D03*
X1018000Y866677D02*
D03*
Y871402D02*
D03*
X803000Y734862D02*
D03*
Y730138D02*
D03*
X769476Y797138D02*
D03*
Y801862D02*
D03*
X884500Y736862D02*
D03*
Y732138D02*
D03*
X776000Y801862D02*
D03*
Y797138D02*
D03*
X770638Y784822D02*
D03*
Y780098D02*
D03*
X803075Y744998D02*
D03*
Y740274D02*
D03*
X793500Y788335D02*
D03*
Y793059D02*
D03*
X787500Y793000D02*
D03*
Y788276D02*
D03*
Y782362D02*
D03*
Y777638D02*
D03*
X844000Y769362D02*
D03*
Y764638D02*
D03*
D38*
X908524Y638937D02*
D03*
X911988D02*
D03*
Y629095D02*
D03*
X908524D02*
D03*
X927232Y593000D02*
D03*
X923768D02*
D03*
D39*
X882461Y611861D02*
D03*
Y606939D02*
D03*
X864500Y884539D02*
D03*
Y889461D02*
D03*
X958000Y747961D02*
D03*
Y743039D02*
D03*
X784500Y842461D02*
D03*
Y837539D02*
D03*
X921489Y675461D02*
D03*
Y670539D02*
D03*
X1075961Y673634D02*
D03*
Y678555D02*
D03*
X921489Y659039D02*
D03*
Y663961D02*
D03*
X937000Y650961D02*
D03*
Y646039D02*
D03*
X921489Y652461D02*
D03*
Y647539D02*
D03*
X1075000Y639461D02*
D03*
Y634539D02*
D03*
X1073000Y614039D02*
D03*
Y618961D02*
D03*
X871000Y857890D02*
D03*
Y862811D02*
D03*
X1111000Y589461D02*
D03*
Y584539D02*
D03*
X1089000Y586764D02*
D03*
Y581843D02*
D03*
X999500Y870122D02*
D03*
Y865201D02*
D03*
X1033000Y882039D02*
D03*
Y886961D02*
D03*
X981500Y797546D02*
D03*
Y802468D02*
D03*
D40*
X881279Y710000D02*
D03*
X878720D02*
D03*
X1044221Y810279D02*
D03*
X1046780D02*
D03*
X837220Y736500D02*
D03*
X839779D02*
D03*
D41*
X915268Y670500D02*
D03*
Y675815D02*
D03*
X967000Y742842D02*
D03*
Y748158D02*
D03*
X770500Y842150D02*
D03*
Y836835D02*
D03*
X915268Y652658D02*
D03*
Y647342D02*
D03*
Y664157D02*
D03*
Y658843D02*
D03*
X931114Y650453D02*
D03*
Y645138D02*
D03*
X1082063Y673437D02*
D03*
Y678752D02*
D03*
X1080907Y634437D02*
D03*
Y639752D02*
D03*
X1078618Y619138D02*
D03*
Y613823D02*
D03*
X865137Y862969D02*
D03*
Y857654D02*
D03*
X1024980Y866382D02*
D03*
Y871697D02*
D03*
X781000Y782657D02*
D03*
Y777343D02*
D03*
X833500Y751803D02*
D03*
Y746488D02*
D03*
X823000Y826157D02*
D03*
Y820842D02*
D03*
X794133Y836843D02*
D03*
Y842157D02*
D03*
X805500Y811764D02*
D03*
Y817079D02*
D03*
D42*
X858488Y736500D02*
D03*
X874512D02*
D03*
X858488Y731500D02*
D03*
X874512D02*
D03*
X858488Y726500D02*
D03*
X874512D02*
D03*
Y721500D02*
D03*
X858488Y716500D02*
D03*
X874512D02*
D03*
D43*
X1004323Y885500D02*
D03*
X998417D02*
D03*
X762953Y780534D02*
D03*
X757047D02*
D03*
X762953Y789575D02*
D03*
X757047D02*
D03*
X884075Y834886D02*
D03*
X889980D02*
D03*
X884031Y826000D02*
D03*
X889937D02*
D03*
D44*
X977287Y576953D02*
D03*
Y571047D02*
D03*
D45*
X870941Y884260D02*
D03*
X876059D02*
D03*
X873500Y891740D02*
D03*
X1009000Y872189D02*
D03*
X1011559Y864709D02*
D03*
X1006441D02*
D03*
D46*
X802004Y545130D02*
D03*
X799445D02*
D03*
X807122D02*
D03*
X809681D02*
D03*
X804563D02*
D03*
X878063Y901591D02*
D03*
X872945D02*
D03*
X875504D02*
D03*
X883181D02*
D03*
X880622D02*
D03*
X939941D02*
D03*
X942500D02*
D03*
X934823D02*
D03*
X932264D02*
D03*
X937382D02*
D03*
D47*
X800626Y534500D02*
D03*
X808500D02*
D03*
X874126Y912220D02*
D03*
X882000D02*
D03*
X941319D02*
D03*
X933445D02*
D03*
D48*
X812211Y554779D02*
D03*
Y552220D02*
D03*
X798323Y554779D02*
D03*
Y552220D02*
D03*
X1049394Y804720D02*
D03*
Y807279D02*
D03*
D49*
X819732Y737518D02*
D03*
Y740077D02*
D03*
Y742636D02*
D03*
Y745195D02*
D03*
X810401D02*
D03*
Y742636D02*
D03*
Y740077D02*
D03*
Y737518D02*
D03*
D50*
X824925Y762500D02*
D03*
X803075D02*
D03*
D51*
X763500Y836736D02*
D03*
Y842248D02*
D03*
D52*
X889921Y858677D02*
D03*
X887953D02*
D03*
X885984D02*
D03*
X884016D02*
D03*
X882047D02*
D03*
X880079D02*
D03*
Y843323D02*
D03*
X882047D02*
D03*
X884016D02*
D03*
X885984D02*
D03*
X887953D02*
D03*
X889921D02*
D03*
D53*
X885000Y851000D02*
D03*
D54*
X861169Y754000D02*
D03*
X855657D02*
D03*
D55*
X919819Y629102D02*
D03*
Y638945D02*
D03*
D56*
X814500Y819950D02*
D03*
Y826250D02*
D03*
D57*
X886500Y877783D02*
D03*
Y887000D02*
D03*
D58*
X836500Y778173D02*
D03*
Y794827D02*
D03*
D59*
X903477Y610956D02*
D03*
Y607491D02*
D03*
D60*
X927299Y610803D02*
D03*
X912339D02*
D03*
X927299Y602142D02*
D03*
X912339D02*
D03*
D61*
X1111032Y605642D02*
D03*
X1113000D02*
D03*
X1114968D02*
D03*
X1111032Y598358D02*
D03*
X1113000D02*
D03*
X1114968D02*
D03*
D62*
X1117626Y604953D02*
D03*
Y602984D02*
D03*
Y601016D02*
D03*
Y599047D02*
D03*
X1108374Y604953D02*
D03*
Y602984D02*
D03*
Y601016D02*
D03*
Y599047D02*
D03*
D63*
X1103740Y584500D02*
D03*
X1096260Y581941D02*
D03*
Y587059D02*
D03*
D64*
X1024075Y879756D02*
D03*
Y886055D02*
D03*
X755500Y835850D02*
D03*
Y842150D02*
D03*
D65*
X986815Y891996D02*
D03*
Y879004D02*
D03*
D66*
X936728Y570972D02*
D03*
X940272D02*
D03*
D67*
X815012Y783500D02*
D03*
X803988D02*
D03*
D68*
X844000Y757512D02*
D03*
Y746488D02*
D03*
D69*
X861957Y762000D02*
D03*
X855657D02*
D03*
D70*
X994000Y837500D02*
D03*
Y824000D02*
D03*
X904500Y759500D02*
D03*
X919000Y877000D02*
D03*
X932500Y877039D02*
D03*
X946000D02*
D03*
X1127500Y630500D02*
D03*
Y657500D02*
D03*
Y644000D02*
D03*
Y617000D02*
D03*
X876500Y567224D02*
D03*
X862500Y541000D02*
D03*
Y567224D02*
D03*
X876500Y541000D02*
D03*
X759000Y753500D02*
D03*
Y767000D02*
D03*
D71*
X909000Y914000D02*
D03*
X906500Y721000D02*
D03*
X1092827Y733500D02*
D03*
X1087000Y728453D02*
D03*
X815000Y762500D02*
D03*
X1075500Y760500D02*
D03*
X1084500Y702295D02*
D03*
X1091000Y635500D02*
D03*
X1061000Y583500D02*
D03*
X1002500Y559500D02*
D03*
X1021500Y552500D02*
D03*
X988000Y537500D02*
D03*
X841500Y541500D02*
D03*
X802000Y640000D02*
D03*
X831000Y708500D02*
D03*
X875641Y651472D02*
D03*
X960500Y653000D02*
D03*
X989383Y632099D02*
D03*
X1032500Y629000D02*
D03*
X1015000Y614500D02*
D03*
X1029500Y655500D02*
D03*
X975687Y677500D02*
D03*
X901847Y826000D02*
D03*
X901480Y834886D02*
D03*
X921035Y868730D02*
D03*
X906000Y798976D02*
D03*
X901500Y700500D02*
D03*
X1095889Y783117D02*
D03*
X1099673Y719890D02*
D03*
X1087850Y714000D02*
D03*
X1085500Y689000D02*
D03*
X1081173Y733500D02*
D03*
X1041784Y662749D02*
D03*
X1081000Y639079D02*
D03*
X1053442Y634167D02*
D03*
X998902Y641152D02*
D03*
X999000Y588646D02*
D03*
X958755Y659606D02*
D03*
X934067Y679625D02*
D03*
X1044500Y665229D02*
D03*
X993365Y618000D02*
D03*
X950441Y650179D02*
D03*
X994779Y667472D02*
D03*
X1069500Y674000D02*
D03*
X1039716Y725871D02*
D03*
X1020595Y598500D02*
D03*
X982831Y608425D02*
D03*
X1053325Y669400D02*
D03*
X1038370Y703177D02*
D03*
X963508Y691102D02*
D03*
X1049962Y588498D02*
D03*
X1005500Y657000D02*
D03*
X1027637Y584335D02*
D03*
X999000Y584500D02*
D03*
X922508Y683228D02*
D03*
X1049605Y641890D02*
D03*
X1048153Y689000D02*
D03*
X1009332Y676440D02*
D03*
X1017500Y598484D02*
D03*
X998902Y631707D02*
D03*
X961500Y669500D02*
D03*
X891267Y655900D02*
D03*
X1067331Y643000D02*
D03*
X1012000Y676340D02*
D03*
X1044762Y722103D02*
D03*
X998902Y636640D02*
D03*
X936427Y589284D02*
D03*
X933951Y634150D02*
D03*
X964500Y677213D02*
D03*
X891267Y662100D02*
D03*
X1074000Y653000D02*
D03*
X1045992Y700295D02*
D03*
X942280Y721000D02*
D03*
X1033454Y604954D02*
D03*
X1009159Y657086D02*
D03*
X1046000Y638000D02*
D03*
X1077164Y683000D02*
D03*
X1077000Y728500D02*
D03*
X1043570Y732681D02*
D03*
X972563Y682562D02*
D03*
X1024713Y598500D02*
D03*
X938500Y710500D02*
D03*
X1054188Y604677D02*
D03*
X1067592Y606748D02*
D03*
X1054500Y699000D02*
D03*
X1048153Y715629D02*
D03*
X954562Y675039D02*
D03*
X996972Y625360D02*
D03*
X846250Y634200D02*
D03*
X935004Y627054D02*
D03*
X1053442Y646058D02*
D03*
X1037000Y658500D02*
D03*
X1038992Y729738D02*
D03*
X949500Y713000D02*
D03*
X929500Y589284D02*
D03*
X963415Y604267D02*
D03*
X955260Y622000D02*
D03*
X1050323Y681260D02*
D03*
X1042314Y703000D02*
D03*
X969500Y693000D02*
D03*
X1011500Y601000D02*
D03*
X939140Y605981D02*
D03*
X951500Y678500D02*
D03*
X846250Y671400D02*
D03*
X1050122Y610394D02*
D03*
X1083000Y652500D02*
D03*
X937046Y620552D02*
D03*
X950143Y657452D02*
D03*
X1031500Y601547D02*
D03*
X1028500Y598500D02*
D03*
X975687Y669500D02*
D03*
X955500Y713625D02*
D03*
X954562Y694000D02*
D03*
X989050Y608473D02*
D03*
X937024Y660718D02*
D03*
X1069000Y630000D02*
D03*
X966000Y639500D02*
D03*
X985161Y599663D02*
D03*
X841452Y637300D02*
D03*
X954500Y648000D02*
D03*
X1066921Y618268D02*
D03*
X1064437Y659553D02*
D03*
X981630Y760370D02*
D03*
X956784Y702784D02*
D03*
X1012720Y587500D02*
D03*
X841452Y631100D02*
D03*
X950441Y661500D02*
D03*
X1039500Y631000D02*
D03*
Y660500D02*
D03*
X994779Y670815D02*
D03*
X948696Y640053D02*
D03*
X1067016Y622205D02*
D03*
X1069500Y686935D02*
D03*
X1077164Y692785D02*
D03*
X1065347Y697008D02*
D03*
X969500Y700500D02*
D03*
X993770Y587500D02*
D03*
X926039Y666217D02*
D03*
X1064490Y655539D02*
D03*
X1030413Y853944D02*
D03*
X1027257Y846000D02*
D03*
X935500Y765228D02*
D03*
Y743772D02*
D03*
X945500Y765228D02*
D03*
X940500Y743772D02*
D03*
X1061841Y728500D02*
D03*
X1050412Y728430D02*
D03*
X1111585Y822807D02*
D03*
X1057257Y789257D02*
D03*
X1059500Y743657D02*
D03*
X981630Y766979D02*
D03*
X847882Y794539D02*
D03*
X863118D02*
D03*
X994852Y690323D02*
D03*
X1026296Y676374D02*
D03*
X1029258Y676379D02*
D03*
X994852Y677500D02*
D03*
X995310Y783384D02*
D03*
X994740Y674157D02*
D03*
X906000Y803158D02*
D03*
X866000Y843638D02*
D03*
X1060587Y801358D02*
D03*
X1093872D02*
D03*
X1085129Y808417D02*
D03*
X1064394Y817984D02*
D03*
X1131500Y762000D02*
D03*
X1132000Y699000D02*
D03*
X1097500Y649764D02*
D03*
X905587Y544142D02*
D03*
X941413D02*
D03*
X936728Y570972D02*
D03*
X939976Y577000D02*
D03*
X943207Y895134D02*
D03*
X937866D02*
D03*
X992622Y873000D02*
D03*
X1111343Y887906D02*
D03*
X1111500Y828000D02*
D03*
X1042445Y822906D02*
D03*
Y827905D02*
D03*
X1111261Y872945D02*
D03*
X1111343Y882905D02*
D03*
X1059394Y817984D02*
D03*
X1111343Y877905D02*
D03*
X1111500Y833000D02*
D03*
X1111261Y867945D02*
D03*
X1111500Y838000D02*
D03*
X1111230Y857988D02*
D03*
X1042445Y887906D02*
D03*
X1102239Y645976D02*
D03*
X1032780Y571000D02*
D03*
X964584Y549000D02*
D03*
X960752Y544197D02*
D03*
X891500Y564862D02*
D03*
X828862Y545633D02*
D03*
X882461Y611861D02*
D03*
X903477Y607491D02*
D03*
X908524Y638937D02*
D03*
X877539Y643500D02*
D03*
X960752Y559364D02*
D03*
X953665Y554639D02*
D03*
X846250Y603200D02*
D03*
X923768Y593000D02*
D03*
X776000Y823500D02*
D03*
X782000Y832256D02*
D03*
X793374Y808512D02*
D03*
X890000Y736878D02*
D03*
X915268Y658843D02*
D03*
X998902Y649733D02*
D03*
X996987Y655110D02*
D03*
X998902Y645344D02*
D03*
X1077366Y604487D02*
D03*
X886700Y603200D02*
D03*
X1041174Y570949D02*
D03*
X891267Y643500D02*
D03*
X886700Y659000D02*
D03*
Y677600D02*
D03*
X1099500Y642000D02*
D03*
X1100421Y747500D02*
D03*
X891500Y574138D02*
D03*
X889209Y683800D02*
D03*
X837220Y736500D02*
D03*
X787500Y743438D02*
D03*
X847000Y757500D02*
D03*
X841500Y757512D02*
D03*
X861169Y754000D02*
D03*
X860972Y746488D02*
D03*
X1132405Y825797D02*
D03*
X841452Y624900D02*
D03*
Y655900D02*
D03*
X846250Y683800D02*
D03*
X841452Y606272D02*
D03*
X891267Y624835D02*
D03*
Y631165D02*
D03*
Y649700D02*
D03*
Y674500D02*
D03*
Y668300D02*
D03*
Y680700D02*
D03*
Y612500D02*
D03*
Y606300D02*
D03*
X886700Y621800D02*
D03*
X891267Y618700D02*
D03*
X886700Y615600D02*
D03*
Y609400D02*
D03*
X915268Y675815D02*
D03*
Y670500D02*
D03*
X855461Y649700D02*
D03*
X877539Y659000D02*
D03*
X908524Y629095D02*
D03*
X841452Y612500D02*
D03*
Y618700D02*
D03*
Y674500D02*
D03*
Y662100D02*
D03*
X846250Y646600D02*
D03*
X841452Y668300D02*
D03*
Y649700D02*
D03*
X846250Y615600D02*
D03*
Y677600D02*
D03*
X841452Y680700D02*
D03*
Y643500D02*
D03*
X886700Y634200D02*
D03*
Y646600D02*
D03*
Y628000D02*
D03*
X846250Y621800D02*
D03*
Y659065D02*
D03*
Y609400D02*
D03*
X858488Y731500D02*
D03*
X874500D02*
D03*
X967000Y748158D02*
D03*
X1036421Y577000D02*
D03*
X858488Y726500D02*
D03*
X817000Y558000D02*
D03*
X803000Y730138D02*
D03*
X819732Y749000D02*
D03*
X873500Y891740D02*
D03*
X864500Y889461D02*
D03*
X793000Y552870D02*
D03*
X809681Y545130D02*
D03*
X881279Y710000D02*
D03*
X1006441Y864709D02*
D03*
X999500Y870122D02*
D03*
X999008Y878575D02*
D03*
X808714Y804726D02*
D03*
X814038D02*
D03*
X819224D02*
D03*
X824575D02*
D03*
X971930Y725802D02*
D03*
X966615D02*
D03*
X915268Y652658D02*
D03*
Y664157D02*
D03*
Y647342D02*
D03*
X931114Y650453D02*
D03*
Y645138D02*
D03*
X1022843Y571000D02*
D03*
X1028158D02*
D03*
X1016158D02*
D03*
X1010843D02*
D03*
X993157D02*
D03*
X987842D02*
D03*
X970658D02*
D03*
X965343D02*
D03*
X1082063Y678752D02*
D03*
Y673437D02*
D03*
X1120643Y593051D02*
D03*
X1111000Y589461D02*
D03*
X1089000Y586764D02*
D03*
X1121500Y605642D02*
D03*
X1041224Y577000D02*
D03*
X1024075Y886055D02*
D03*
Y879756D02*
D03*
X1018000Y866677D02*
D03*
X1024980Y866382D02*
D03*
X1011559Y864709D02*
D03*
X1115000Y616968D02*
D03*
X755500Y835850D02*
D03*
X752000Y811638D02*
D03*
X768000Y817079D02*
D03*
X781000Y782657D02*
D03*
X793500Y788335D02*
D03*
X806315Y822918D02*
D03*
X805452Y811697D02*
D03*
X822952Y826091D02*
D03*
X784452Y842394D02*
D03*
X794199Y842110D02*
D03*
X844000Y764638D02*
D03*
X809303Y794500D02*
D03*
X803988D02*
D03*
X815000Y786000D02*
D03*
Y780500D02*
D03*
X803988Y800000D02*
D03*
X833500Y752157D02*
D03*
X878000Y896000D02*
D03*
X882047Y848047D02*
D03*
Y853953D02*
D03*
X860492Y833638D02*
D03*
X871000Y862811D02*
D03*
X871528Y876500D02*
D03*
X866213D02*
D03*
X898500Y903461D02*
D03*
X904768Y906402D02*
D03*
X898500Y898539D02*
D03*
X904500Y893138D02*
D03*
X914000Y897862D02*
D03*
X1096260Y581941D02*
D03*
X1089000Y581843D02*
D03*
X887953Y848047D02*
D03*
Y854084D02*
D03*
X909396Y893103D02*
D03*
X1078700Y619239D02*
D03*
X981500Y797546D02*
D03*
X1080907Y634437D02*
D03*
X885984Y871758D02*
D03*
X891378Y879494D02*
D03*
X777122Y742917D02*
D03*
X762060Y743881D02*
D03*
X1044221Y810279D02*
D03*
X1049354Y804720D02*
D03*
X934661Y577000D02*
D03*
X861957Y762000D02*
D03*
X992862Y564000D02*
D03*
X1078618Y613823D02*
D03*
X1060587Y783642D02*
D03*
X914000Y893138D02*
D03*
X1054992Y544762D02*
D03*
X1090819D02*
D03*
X1023672Y785453D02*
D03*
X1018357D02*
D03*
X1010658D02*
D03*
X1004842D02*
D03*
X1030413Y783642D02*
D03*
X967000Y742842D02*
D03*
X1062850Y714024D02*
D03*
X1069138Y723000D02*
D03*
X1045000Y786500D02*
D03*
X798323Y554740D02*
D03*
X798103Y562577D02*
D03*
X813000D02*
D03*
D72*
X1128500Y722504D02*
D03*
Y680496D02*
D03*
Y849504D02*
D03*
Y807496D02*
D03*
Y786004D02*
D03*
Y743996D02*
D03*
D73*
X785350Y822000D02*
D03*
X788500Y825150D02*
D03*
X791650Y822000D02*
D03*
X788500Y818850D02*
D03*
Y822000D02*
D03*
D74*
X793500Y590350D02*
D03*
Y669091D02*
D03*
D75*
X817161Y534500D02*
D03*
X791965D02*
D03*
X890661Y912220D02*
D03*
X865465D02*
D03*
X924784D02*
D03*
X949980D02*
D03*
D76*
X794721Y545130D02*
D03*
X814406D02*
D03*
X868221Y901591D02*
D03*
X887906D02*
D03*
X947224D02*
D03*
X927539D02*
D03*
D77*
X841201Y870500D02*
D03*
D78*
X822500D02*
D03*
X803799D02*
D03*
D79*
X780000Y765799D02*
D03*
Y753594D02*
D03*
X1112409Y552102D02*
D03*
X769890D02*
D03*
Y894610D02*
D03*
X966740Y894610D02*
D03*
M02*
