M48
;Layer_Color=9474304
;FILE_FORMAT=2:4
INCH,TZ
;TYPE=PLATED
T1F00S00C0.0079
T2F00S00C0.0118
T4F00S00C0.0300
T5F00S00C0.0335
T6F00S00C0.0472
T7F00S00C0.0571
T8F00S00C0.0650
;TYPE=NON_PLATED
T9F00S00C0.0197
T10F00S00C0.1130
T11F00S00C0.2362
%
T01
X106823Y85200
X107374
Y85751
X107099Y85476
X106823Y85751
X106548Y85476
Y86027
X106823Y86302
X107374
X107099Y86027
X107650
Y85476
X78850Y82515
Y82200
X78535
X79165
X78850Y81885
T02
X109626Y58194
X111100Y58946
X112064Y59305
X112150Y60564
X111500Y61697
X107870Y61924
X107862Y61382
X107737Y60449
X106759Y60675
X106692Y61827
X106702Y62220
X105012Y61039
X105419Y60468
X104996Y58850
X106100Y58350
X104122Y57700
X103642
X103278Y57100
X102816
X102284
X101616
X101084
X99316
X98784
X99286Y56400
X100250Y55950
X102150Y55250
X102764Y58433
X102850Y59850
X102471
X102059
X101750Y59848
X101150Y60100
X101272Y58750
X99900Y58865
Y58450
X99377Y58750
X98516Y59966
X98283Y60843
X98905Y60847
X99337Y61800
X101500Y61450
X103345Y60495
X103150Y60155
X104117Y57095
X105499Y54476
X109082
X108900Y58184
Y58676
X97066Y57100
X96534
X96075Y55936
X95367Y55464
X96458Y54900
X96075Y54420
X94141Y54414
X93998Y57700
X93914Y60598
X96341Y60427
X95526Y62200
X98800Y53750
X93673Y57097
X93466Y57700
X93643Y58928
X92950
X92377Y59300
X90348Y60749
X89127Y60630
Y61250
Y61870
Y62483
X88670Y62180
Y61560
Y60940
Y60320
X88246Y61186
X84625Y60940
Y60320
X84145Y60627
Y61250
Y61870
Y62490
X84625Y62180
Y61560
X84150Y54150
X82886Y54563
X80968Y54513
X81700Y55800
X81300Y56258
X79810
X79832Y55474
X79300Y55287
X89150Y56486
Y57414
X90559Y54414
X93705Y62055
X77712Y74292
X76206Y74388
X78750Y74344
X80300Y73014
X81973Y74900
X83350Y75216
X84150Y75751
X84700Y75750
X84400Y76464
X86196Y76200
X86117Y75400
X86097Y74649
X85849Y73150
Y72650
X87450Y73150
X89000Y73688
X90650Y72100
X90150Y70050
X88921Y68380
X89127Y68070
Y67450
Y66830
Y66210
Y65590
Y64970
Y64350
X88670Y64660
X87754Y64350
X87564Y65147
X87754Y65900
X88670
Y67760
X91527Y67582
Y67050
Y66416
Y65884
Y65266
Y64734
X90852Y63894
Y62909
X89127Y63117
X88670Y63420
Y62800
X84625Y63420
X84145Y63730
Y63110
Y64350
Y64970
Y65590
Y66210
Y66830
Y67450
Y68070
X84625Y68380
Y67760
Y67140
Y65907
Y64660
X85546Y64970
X80200Y64000
X83100Y70850
X83722Y73650
X81500Y76250
Y78050
X93550Y76523
Y74377
X93407Y67962
X92251Y68323
X92604Y66622
X93702Y66072
X93111Y65045
Y64514
X93395Y63415
X93500Y62705
X88128Y71000
X93850Y71050
X94950Y71300
X95550Y71363
X95678Y70278
X95456Y69400
X96351Y69110
X96950Y69300
Y70050
X97256Y68256
X97569Y67750
Y66950
X96150
X96450Y67721
X95456Y67504
X95150Y67850
X95044Y66150
X95014Y65745
X95044Y65018
X95450Y64800
X96050Y65300
X95876Y65961
X96600Y63950
X94870Y64005
X98938Y63210
X99890Y63171
Y63664
Y64115
Y64534
Y64973
X99699Y65511
X100550Y65700
X100916Y65709
X100933Y67644
X101200Y67634
X102630Y67637
X102926Y67638
X102950Y65550
X103700Y65850
X103950Y66050
X104178Y66275
X104450Y66523
X105332Y66940
X105032Y68126
X104815Y68900
X104599Y70029
X104231Y70300
X103837Y70318
X105450Y69900
X106535Y69701
X106950Y68694
X107716Y68300
X108206Y67875
Y67344
X106950Y67400
X106444Y65955
X106449Y65554
X107400Y65300
X108300Y65250
X108100Y63908
X108091Y63444
X109100Y63550
X106900Y63000
X106733Y64300
X105344Y64606
X104961Y64189
X104600Y63800
X105344Y63417
X103950Y63100
X103250Y62900
X99697Y62536
X99478Y66747
Y67081
X99474Y67416
X99485Y67750
Y69032
X97193Y72580
X96661
X96700Y74284
Y74816
X98163Y76037
Y76698
X94550Y76523
X94050Y74377
X94228Y72100
X103972Y72587
X103899Y72974
X104357Y73268
X105041Y72843
X106184Y72850
X106914Y72300
X107700Y72850
X108117Y73350
X108700Y72845
X109283Y73350
X108785Y71400
X108450Y70230
X108550Y68900
X107716Y69279
X106285Y71402
X104815Y71563
X104476Y72210
X105950Y74366
X107550Y76050
X110042Y74750
X109967Y71989
X113200Y69900
X113150Y76200
X110224Y64598
X109950Y64200
X109750Y64976
X109589Y78312
X109387Y80136
X111158Y82281
X111150Y82800
Y83300
Y83800
X111123Y85799
X111126Y86795
Y87295
X111134Y87791
Y88291
Y88791
X113241Y82580
X108513Y80842
X106439Y81798
X105939
X106059Y80136
X104935Y80472
X104422Y81028
X104244Y82291
Y82791
X102726Y84600
X103041Y85394
X102498Y86638
X101800Y86668
X101156Y86471
X100644
X99950Y87012
X99901Y87857
X99262Y87300
X102407Y87976
Y88606
X104244Y88791
X104500Y78650
X105726Y78926
X106059Y78364
X103041
X102367Y78545
X101836
X101066
X100484
X99531Y78338
X98150Y79755
X94321Y89513
X93787
X91400Y89314
X90940Y89310
X90450Y89314
X89850Y89854
Y90346
X90477Y90640
X91400Y89786
X92103Y86873
X88598Y87176
X89138Y87949
X87153Y87650
X86621
X86450Y88946
X87350Y89174
X87800Y89600
X87100Y86281
X88205Y85395
Y84805
X88795
Y85408
X86600Y84364
X86049Y83364
X86312Y79454
X84788
X82457Y80473
X81922
X81404
X80871
X80399Y80000
Y79450
X80930
X81500Y78600
X79350Y78833
X79337Y80851
X80545Y81170
X80631Y82292
X82295Y82609
X79420Y84211
X78445Y84239
X78200Y83226
X90148Y83489
X90185Y82600
X90600Y80316
Y79898
X78100Y78266
X77600Y82350
X76800Y81708
X75200Y81164
X75550Y83585
T04
X78000Y75359
Y76580
T05
X79472Y54513
X81441
X94722Y90159
X92754
X88791
X86822
T06
X112750Y61700
X87650Y56722
X86250
Y54100
X87650
X75900Y75350
Y76700
X90450Y75950
X112750Y65750
Y64400
Y63050
X99400Y82400
Y83750
X94600Y87704
X93250
X91900Y87700
T07
X79350Y59035
Y66909
T08
X80380Y87050
X82250
X84120
T09
X90900Y91400
T10
X112850Y68050
Y72250
Y74400
Y78600
Y80750
Y84950
T11
X111241Y55210
X76989
X96674Y89461
X76989Y89461
M30
