G04*
G04 #@! TF.GenerationSoftware,Altium Limited,Altium Designer,20.2.5 (213)*
G04*
G04 Layer_Physical_Order=6*
G04 Layer_Color=8388736*
%FSLAX25Y25*%
%MOIN*%
G70*
G04*
G04 #@! TF.SameCoordinates,04ACB860-B9D4-4248-80BD-52411BCDF81E*
G04*
G04*
G04 #@! TF.FilePolarity,Positive*
G04*
G01*
G75*
%ADD73C,0.01968*%
%ADD137C,0.06890*%
%ADD139C,0.01575*%
%ADD140C,0.08563*%
G04:AMPARAMS|DCode=141|XSize=70.87mil|YSize=74.8mil|CornerRadius=17.72mil|HoleSize=0mil|Usage=FLASHONLY|Rotation=180.000|XOffset=0mil|YOffset=0mil|HoleType=Round|Shape=RoundedRectangle|*
%AMROUNDEDRECTD141*
21,1,0.07087,0.03937,0,0,180.0*
21,1,0.03543,0.07480,0,0,180.0*
1,1,0.03543,-0.01772,0.01968*
1,1,0.03543,0.01772,0.01968*
1,1,0.03543,0.01772,-0.01968*
1,1,0.03543,-0.01772,-0.01968*
%
%ADD141ROUNDEDRECTD141*%
%ADD142C,0.05709*%
%ADD144C,0.09744*%
%ADD145C,0.06000*%
G36*
X967288Y919954D02*
X969754Y919464D01*
X972160Y918734D01*
X974483Y917772D01*
X976701Y916586D01*
X978791Y915190D01*
X980735Y913594D01*
X981624Y912706D01*
X981624Y912706D01*
X981721Y912770D01*
X993829Y900178D01*
X993795Y900137D01*
X993795Y900137D01*
X994705Y899271D01*
X996646Y897678D01*
X998734Y896282D01*
X1000949Y895099D01*
X1003269Y894138D01*
X1005672Y893409D01*
X1008136Y892919D01*
X1010635Y892673D01*
X1011890Y892642D01*
X1011890Y892591D01*
X1112500Y892642D01*
X1113667D01*
X1116169Y892395D01*
X1118635Y891905D01*
X1121041Y891175D01*
X1123364Y890213D01*
X1125581Y889027D01*
X1127672Y887630D01*
X1129616Y886035D01*
X1131394Y884258D01*
X1132989Y882314D01*
X1134386Y880223D01*
X1135571Y878006D01*
X1136533Y875683D01*
X1137263Y873277D01*
X1137753Y870811D01*
X1138000Y868308D01*
Y867051D01*
Y552102D01*
Y550845D01*
X1137753Y548343D01*
X1137263Y545877D01*
X1136533Y543471D01*
X1135571Y541148D01*
X1134386Y538930D01*
X1132989Y536840D01*
X1131394Y534896D01*
X1129616Y533118D01*
X1127672Y531523D01*
X1125581Y530126D01*
X1123364Y528941D01*
X1121041Y527979D01*
X1118635Y527249D01*
X1116169Y526758D01*
X1113667Y526512D01*
X768633D01*
X766130Y526758D01*
X763664Y527249D01*
X761258Y527979D01*
X758935Y528941D01*
X756718Y530126D01*
X754627Y531523D01*
X752683Y533118D01*
X750906Y534896D01*
X749310Y536840D01*
X747914Y538930D01*
X746728Y541148D01*
X745766Y543471D01*
X745036Y545877D01*
X744546Y548343D01*
X744299Y550845D01*
Y552102D01*
Y894610D01*
Y895867D01*
X744546Y898370D01*
X745036Y900836D01*
X745766Y903242D01*
X746728Y905565D01*
X747914Y907782D01*
X749310Y909873D01*
X750906Y911817D01*
X752683Y913594D01*
X754627Y915190D01*
X756718Y916586D01*
X758935Y917772D01*
X761258Y918734D01*
X763664Y919464D01*
X766130Y919954D01*
X768633Y920201D01*
X964786D01*
X967288Y919954D01*
D02*
G37*
%LPC*%
G36*
X909000Y915360D02*
X908479Y915257D01*
X908038Y914962D01*
X907743Y914521D01*
X907640Y914000D01*
X907743Y913479D01*
X908038Y913038D01*
X908479Y912743D01*
X909000Y912640D01*
X909521Y912743D01*
X909962Y913038D01*
X910257Y913479D01*
X910360Y914000D01*
X910257Y914521D01*
X909962Y914962D01*
X909521Y915257D01*
X909000Y915360D01*
D02*
G37*
G36*
X898500Y904821D02*
X897979Y904718D01*
X897538Y904423D01*
X897243Y903981D01*
X897140Y903461D01*
X897243Y902940D01*
X897538Y902499D01*
X897979Y902204D01*
X898500Y902100D01*
X899021Y902204D01*
X899462Y902499D01*
X899757Y902940D01*
X899860Y903461D01*
X899757Y903981D01*
X899462Y904423D01*
X899021Y904718D01*
X898500Y904821D01*
D02*
G37*
G36*
X914000Y899223D02*
X913479Y899119D01*
X913038Y898824D01*
X912743Y898383D01*
X912640Y897862D01*
X912743Y897342D01*
X913038Y896900D01*
X913479Y896605D01*
X914000Y896502D01*
X914521Y896605D01*
X914962Y896900D01*
X915257Y897342D01*
X915360Y897862D01*
X915257Y898383D01*
X914962Y898824D01*
X914521Y899119D01*
X914000Y899223D01*
D02*
G37*
G36*
X878000Y897360D02*
X877479Y897257D01*
X877038Y896962D01*
X876743Y896521D01*
X876640Y896000D01*
X876743Y895479D01*
X877038Y895038D01*
X877479Y894743D01*
X878000Y894640D01*
X878521Y894743D01*
X878962Y895038D01*
X879257Y895479D01*
X879360Y896000D01*
X879257Y896521D01*
X878962Y896962D01*
X878521Y897257D01*
X878000Y897360D01*
D02*
G37*
G36*
X943207Y896494D02*
X942686Y896391D01*
X942245Y896096D01*
X941950Y895654D01*
X941846Y895134D01*
X941950Y894613D01*
X942245Y894172D01*
X942686Y893877D01*
X943207Y893773D01*
X943727Y893877D01*
X944169Y894172D01*
X944464Y894613D01*
X944567Y895134D01*
X944464Y895654D01*
X944169Y896096D01*
X943727Y896391D01*
X943207Y896494D01*
D02*
G37*
G36*
X937866D02*
X937346Y896391D01*
X936904Y896096D01*
X936609Y895654D01*
X936506Y895134D01*
X936609Y894613D01*
X936904Y894172D01*
X937346Y893877D01*
X937866Y893773D01*
X938387Y893877D01*
X938828Y894172D01*
X939123Y894613D01*
X939227Y895134D01*
X939123Y895654D01*
X938828Y896096D01*
X938387Y896391D01*
X937866Y896494D01*
D02*
G37*
G36*
X904500Y894498D02*
X903979Y894395D01*
X903538Y894100D01*
X903243Y893658D01*
X903140Y893138D01*
X903243Y892617D01*
X903538Y892176D01*
X903979Y891881D01*
X904500Y891777D01*
X905021Y891881D01*
X905462Y892176D01*
X905757Y892617D01*
X905860Y893138D01*
X905757Y893658D01*
X905462Y894100D01*
X905021Y894395D01*
X904500Y894498D01*
D02*
G37*
G36*
X873500Y893100D02*
X872979Y892997D01*
X872538Y892702D01*
X872243Y892261D01*
X872140Y891740D01*
X872243Y891220D01*
X872538Y890778D01*
X872979Y890483D01*
X873500Y890380D01*
X874021Y890483D01*
X874462Y890778D01*
X874757Y891220D01*
X874860Y891740D01*
X874757Y892261D01*
X874462Y892702D01*
X874021Y892997D01*
X873500Y893100D01*
D02*
G37*
G36*
X769890Y906809D02*
X767981Y906659D01*
X766120Y906212D01*
X764352Y905479D01*
X762720Y904479D01*
X761264Y903236D01*
X760021Y901780D01*
X759021Y900148D01*
X758288Y898380D01*
X757841Y896519D01*
X757691Y894610D01*
X757841Y892702D01*
X758288Y890841D01*
X759021Y889072D01*
X760021Y887440D01*
X761264Y885985D01*
X762720Y884741D01*
X764352Y883741D01*
X766120Y883009D01*
X767981Y882562D01*
X769890Y882412D01*
X771798Y882562D01*
X773659Y883009D01*
X775428Y883741D01*
X777060Y884741D01*
X778515Y885985D01*
X779759Y887440D01*
X780759Y889072D01*
X781491Y890841D01*
X781938Y892702D01*
X782088Y894610D01*
X781938Y896519D01*
X781491Y898380D01*
X780759Y900148D01*
X779759Y901780D01*
X778515Y903236D01*
X777060Y904479D01*
X775428Y905479D01*
X773659Y906212D01*
X771798Y906659D01*
X769890Y906809D01*
D02*
G37*
G36*
X966740Y906809D02*
X964832Y906658D01*
X962971Y906212D01*
X961202Y905479D01*
X959570Y904479D01*
X958114Y903236D01*
X956871Y901780D01*
X955871Y900148D01*
X955139Y898380D01*
X954692Y896518D01*
X954541Y894610D01*
X954692Y892702D01*
X955139Y890840D01*
X955871Y889072D01*
X956871Y887440D01*
X958114Y885984D01*
X959570Y884741D01*
X961202Y883741D01*
X962971Y883008D01*
X964832Y882562D01*
X966740Y882411D01*
X968648Y882562D01*
X970510Y883008D01*
X972278Y883741D01*
X973910Y884741D01*
X975366Y885984D01*
X976609Y887440D01*
X977609Y889072D01*
X978342Y890840D01*
X978789Y892702D01*
X978939Y894610D01*
X978789Y896518D01*
X978342Y898380D01*
X977609Y900148D01*
X976609Y901780D01*
X975366Y903236D01*
X973910Y904479D01*
X972278Y905479D01*
X970510Y906212D01*
X968648Y906658D01*
X966740Y906809D01*
D02*
G37*
G36*
X1111343Y884266D02*
X1110822Y884162D01*
X1110381Y883867D01*
X1110086Y883426D01*
X1109982Y882905D01*
X1110086Y882385D01*
X1110381Y881944D01*
X1110822Y881649D01*
X1111343Y881545D01*
X1111863Y881649D01*
X1112304Y881944D01*
X1112599Y882385D01*
X1112703Y882905D01*
X1112599Y883426D01*
X1112304Y883867D01*
X1111863Y884162D01*
X1111343Y884266D01*
D02*
G37*
G36*
X1024075Y881116D02*
X1023554Y881013D01*
X1023113Y880718D01*
X1022818Y880276D01*
X1022714Y879756D01*
X1022818Y879235D01*
X1023113Y878794D01*
X1023554Y878499D01*
X1024075Y878395D01*
X1024595Y878499D01*
X1025037Y878794D01*
X1025332Y879235D01*
X1025435Y879756D01*
X1025332Y880276D01*
X1025037Y880718D01*
X1024595Y881013D01*
X1024075Y881116D01*
D02*
G37*
G36*
X1111343Y879266D02*
X1110822Y879162D01*
X1110381Y878867D01*
X1110086Y878426D01*
X1109982Y877905D01*
X1110086Y877385D01*
X1110381Y876944D01*
X1110822Y876649D01*
X1111343Y876545D01*
X1111863Y876649D01*
X1112304Y876944D01*
X1112599Y877385D01*
X1112703Y877905D01*
X1112599Y878426D01*
X1112304Y878867D01*
X1111863Y879162D01*
X1111343Y879266D01*
D02*
G37*
G36*
X871528Y877860D02*
X871007Y877757D01*
X870566Y877462D01*
X870271Y877021D01*
X870167Y876500D01*
X870271Y875979D01*
X870566Y875538D01*
X871007Y875243D01*
X871528Y875140D01*
X872048Y875243D01*
X872489Y875538D01*
X872784Y875979D01*
X872888Y876500D01*
X872784Y877021D01*
X872489Y877462D01*
X872048Y877757D01*
X871528Y877860D01*
D02*
G37*
G36*
X946000Y880867D02*
X945009Y880737D01*
X944086Y880354D01*
X943293Y879746D01*
X942685Y878953D01*
X942303Y878030D01*
X942172Y877039D01*
X942303Y876049D01*
X942685Y875126D01*
X943293Y874333D01*
X944086Y873725D01*
X945009Y873342D01*
X946000Y873212D01*
X946991Y873342D01*
X947914Y873725D01*
X948707Y874333D01*
X949315Y875126D01*
X949697Y876049D01*
X949828Y877039D01*
X949697Y878030D01*
X949315Y878953D01*
X948707Y879746D01*
X947914Y880354D01*
X946991Y880737D01*
X946000Y880867D01*
D02*
G37*
G36*
X932500D02*
X931509Y880737D01*
X930586Y880354D01*
X929793Y879746D01*
X929185Y878953D01*
X928803Y878030D01*
X928672Y877039D01*
X928803Y876049D01*
X929185Y875126D01*
X929793Y874333D01*
X930586Y873725D01*
X931509Y873342D01*
X932500Y873212D01*
X933491Y873342D01*
X934414Y873725D01*
X935207Y874333D01*
X935815Y875126D01*
X936197Y876049D01*
X936328Y877039D01*
X936197Y878030D01*
X935815Y878953D01*
X935207Y879746D01*
X934414Y880354D01*
X933491Y880737D01*
X932500Y880867D01*
D02*
G37*
G36*
X919000Y880828D02*
X918009Y880697D01*
X917086Y880315D01*
X916294Y879706D01*
X915685Y878914D01*
X915303Y877991D01*
X915172Y877000D01*
X915303Y876009D01*
X915685Y875086D01*
X916294Y874294D01*
X917086Y873685D01*
X918009Y873303D01*
X919000Y873172D01*
X919991Y873303D01*
X920914Y873685D01*
X921706Y874294D01*
X922315Y875086D01*
X922697Y876009D01*
X922828Y877000D01*
X922697Y877991D01*
X922315Y878914D01*
X921706Y879706D01*
X920914Y880315D01*
X919991Y880697D01*
X919000Y880828D01*
D02*
G37*
G36*
X1111261Y874306D02*
X1110741Y874202D01*
X1110299Y873907D01*
X1110005Y873466D01*
X1109901Y872945D01*
X1110005Y872425D01*
X1110299Y871983D01*
X1110741Y871688D01*
X1111261Y871585D01*
X1111782Y871688D01*
X1112223Y871983D01*
X1112518Y872425D01*
X1112622Y872945D01*
X1112518Y873466D01*
X1112223Y873907D01*
X1111782Y874202D01*
X1111261Y874306D01*
D02*
G37*
G36*
X885984Y873118D02*
X885464Y873015D01*
X885022Y872720D01*
X884727Y872278D01*
X884624Y871758D01*
X884727Y871237D01*
X885022Y870796D01*
X885464Y870501D01*
X885984Y870397D01*
X886505Y870501D01*
X886946Y870796D01*
X887241Y871237D01*
X887345Y871758D01*
X887241Y872278D01*
X886946Y872720D01*
X886505Y873015D01*
X885984Y873118D01*
D02*
G37*
G36*
X1111261Y869306D02*
X1110741Y869202D01*
X1110299Y868907D01*
X1110005Y868466D01*
X1109901Y867945D01*
X1110005Y867424D01*
X1110299Y866983D01*
X1110741Y866688D01*
X1111261Y866585D01*
X1111782Y866688D01*
X1112223Y866983D01*
X1112518Y867424D01*
X1112622Y867945D01*
X1112518Y868466D01*
X1112223Y868907D01*
X1111782Y869202D01*
X1111261Y869306D01*
D02*
G37*
G36*
X1018000Y868038D02*
X1017479Y867934D01*
X1017038Y867639D01*
X1016743Y867198D01*
X1016640Y866677D01*
X1016743Y866157D01*
X1017038Y865715D01*
X1017479Y865420D01*
X1018000Y865317D01*
X1018521Y865420D01*
X1018962Y865715D01*
X1019257Y866157D01*
X1019360Y866677D01*
X1019257Y867198D01*
X1018962Y867639D01*
X1018521Y867934D01*
X1018000Y868038D01*
D02*
G37*
G36*
X846423Y875722D02*
X835979D01*
Y865278D01*
X846423D01*
Y875722D01*
D02*
G37*
G36*
X822500Y875767D02*
X821137Y875588D01*
X819866Y875061D01*
X818776Y874224D01*
X817939Y873133D01*
X817412Y871863D01*
X817233Y870500D01*
X817412Y869137D01*
X817939Y867867D01*
X818776Y866776D01*
X819866Y865939D01*
X821137Y865412D01*
X822500Y865233D01*
X823863Y865412D01*
X825134Y865939D01*
X826224Y866776D01*
X827061Y867867D01*
X827588Y869137D01*
X827767Y870500D01*
X827588Y871863D01*
X827061Y873133D01*
X826224Y874224D01*
X825134Y875061D01*
X823863Y875588D01*
X822500Y875767D01*
D02*
G37*
G36*
X1006441Y866069D02*
X1005920Y865965D01*
X1005479Y865671D01*
X1005184Y865229D01*
X1005081Y864709D01*
X1005184Y864188D01*
X1005479Y863747D01*
X1005920Y863452D01*
X1006441Y863348D01*
X1006962Y863452D01*
X1007403Y863747D01*
X1007698Y864188D01*
X1007801Y864709D01*
X1007698Y865229D01*
X1007403Y865671D01*
X1006962Y865965D01*
X1006441Y866069D01*
D02*
G37*
G36*
X1111230Y859349D02*
X1110709Y859245D01*
X1110268Y858950D01*
X1109973Y858509D01*
X1109869Y857988D01*
X1109973Y857468D01*
X1110268Y857027D01*
X1110709Y856732D01*
X1111230Y856628D01*
X1111750Y856732D01*
X1112192Y857027D01*
X1112487Y857468D01*
X1112590Y857988D01*
X1112487Y858509D01*
X1112192Y858950D01*
X1111750Y859245D01*
X1111230Y859349D01*
D02*
G37*
G36*
X1030413Y855305D02*
X1029893Y855201D01*
X1029451Y854906D01*
X1029157Y854465D01*
X1029053Y853944D01*
X1029157Y853424D01*
X1029451Y852982D01*
X1029893Y852687D01*
X1030413Y852584D01*
X1030934Y852687D01*
X1031375Y852982D01*
X1031670Y853424D01*
X1031774Y853944D01*
X1031670Y854465D01*
X1031375Y854906D01*
X1030934Y855201D01*
X1030413Y855305D01*
D02*
G37*
G36*
X1027257Y847360D02*
X1026736Y847257D01*
X1026295Y846962D01*
X1026000Y846521D01*
X1025896Y846000D01*
X1026000Y845479D01*
X1026295Y845038D01*
X1026736Y844743D01*
X1027257Y844640D01*
X1027777Y844743D01*
X1028219Y845038D01*
X1028514Y845479D01*
X1028617Y846000D01*
X1028514Y846521D01*
X1028219Y846962D01*
X1027777Y847257D01*
X1027257Y847360D01*
D02*
G37*
G36*
X1128500Y855533D02*
X1127324Y855417D01*
X1126193Y855074D01*
X1125151Y854517D01*
X1124237Y853767D01*
X1123487Y852853D01*
X1122930Y851811D01*
X1122587Y850680D01*
X1122471Y849504D01*
X1122587Y848328D01*
X1122930Y847197D01*
X1123487Y846155D01*
X1124237Y845241D01*
X1125151Y844491D01*
X1126193Y843934D01*
X1127324Y843591D01*
X1128500Y843475D01*
X1129676Y843591D01*
X1130807Y843934D01*
X1131849Y844491D01*
X1132763Y845241D01*
X1133513Y846155D01*
X1134070Y847197D01*
X1134413Y848328D01*
X1134529Y849504D01*
X1134413Y850680D01*
X1134070Y851811D01*
X1133513Y852853D01*
X1132763Y853767D01*
X1131849Y854517D01*
X1130807Y855074D01*
X1129676Y855417D01*
X1128500Y855533D01*
D02*
G37*
G36*
X866000Y844998D02*
X865479Y844895D01*
X865038Y844600D01*
X864743Y844158D01*
X864640Y843638D01*
X864743Y843117D01*
X865038Y842676D01*
X865479Y842381D01*
X866000Y842277D01*
X866521Y842381D01*
X866962Y842676D01*
X867257Y843117D01*
X867360Y843638D01*
X867257Y844158D01*
X866962Y844600D01*
X866521Y844895D01*
X866000Y844998D01*
D02*
G37*
G36*
X1111500Y839360D02*
X1110979Y839257D01*
X1110538Y838962D01*
X1110243Y838521D01*
X1110140Y838000D01*
X1110243Y837479D01*
X1110538Y837038D01*
X1110979Y836743D01*
X1111500Y836640D01*
X1112021Y836743D01*
X1112462Y837038D01*
X1112757Y837479D01*
X1112860Y838000D01*
X1112757Y838521D01*
X1112462Y838962D01*
X1112021Y839257D01*
X1111500Y839360D01*
D02*
G37*
G36*
X994000Y841328D02*
X993009Y841197D01*
X992086Y840815D01*
X991294Y840207D01*
X990685Y839414D01*
X990303Y838491D01*
X990172Y837500D01*
X990303Y836509D01*
X990685Y835586D01*
X991294Y834793D01*
X992086Y834185D01*
X993009Y833803D01*
X994000Y833672D01*
X994991Y833803D01*
X995914Y834185D01*
X996706Y834793D01*
X997315Y835586D01*
X997697Y836509D01*
X997828Y837500D01*
X997697Y838491D01*
X997315Y839414D01*
X996706Y840207D01*
X995914Y840815D01*
X994991Y841197D01*
X994000Y841328D01*
D02*
G37*
G36*
X901480Y836246D02*
X900960Y836143D01*
X900518Y835848D01*
X900224Y835406D01*
X900120Y834886D01*
X900224Y834365D01*
X900518Y833924D01*
X900960Y833629D01*
X901480Y833525D01*
X902001Y833629D01*
X902442Y833924D01*
X902737Y834365D01*
X902841Y834886D01*
X902737Y835406D01*
X902442Y835848D01*
X902001Y836143D01*
X901480Y836246D01*
D02*
G37*
G36*
X1111500Y834360D02*
X1110979Y834257D01*
X1110538Y833962D01*
X1110243Y833521D01*
X1110140Y833000D01*
X1110243Y832479D01*
X1110538Y832038D01*
X1110979Y831743D01*
X1111500Y831640D01*
X1112021Y831743D01*
X1112462Y832038D01*
X1112757Y832479D01*
X1112860Y833000D01*
X1112757Y833521D01*
X1112462Y833962D01*
X1112021Y834257D01*
X1111500Y834360D01*
D02*
G37*
G36*
X782000Y833616D02*
X781479Y833513D01*
X781038Y833218D01*
X780743Y832777D01*
X780640Y832256D01*
X780743Y831735D01*
X781038Y831294D01*
X781479Y830999D01*
X782000Y830896D01*
X782521Y830999D01*
X782962Y831294D01*
X783257Y831735D01*
X783360Y832256D01*
X783257Y832777D01*
X782962Y833218D01*
X782521Y833513D01*
X782000Y833616D01*
D02*
G37*
G36*
X1111500Y829360D02*
X1110979Y829257D01*
X1110538Y828962D01*
X1110243Y828521D01*
X1110140Y828000D01*
X1110243Y827479D01*
X1110538Y827038D01*
X1110979Y826743D01*
X1111500Y826640D01*
X1112021Y826743D01*
X1112462Y827038D01*
X1112757Y827479D01*
X1112860Y828000D01*
X1112757Y828521D01*
X1112462Y828962D01*
X1112021Y829257D01*
X1111500Y829360D01*
D02*
G37*
G36*
X1042445Y829266D02*
X1041924Y829162D01*
X1041483Y828867D01*
X1041188Y828426D01*
X1041084Y827905D01*
X1041188Y827385D01*
X1041483Y826944D01*
X1041924Y826649D01*
X1042445Y826545D01*
X1042966Y826649D01*
X1043407Y826944D01*
X1043702Y827385D01*
X1043805Y827905D01*
X1043702Y828426D01*
X1043407Y828867D01*
X1042966Y829162D01*
X1042445Y829266D01*
D02*
G37*
G36*
X901847Y827360D02*
X901326Y827257D01*
X900885Y826962D01*
X900590Y826521D01*
X900486Y826000D01*
X900590Y825479D01*
X900885Y825038D01*
X901326Y824743D01*
X901847Y824640D01*
X902367Y824743D01*
X902808Y825038D01*
X903103Y825479D01*
X903207Y826000D01*
X903103Y826521D01*
X902808Y826962D01*
X902367Y827257D01*
X901847Y827360D01*
D02*
G37*
G36*
X1132405Y827157D02*
X1131885Y827054D01*
X1131444Y826759D01*
X1131149Y826318D01*
X1131045Y825797D01*
X1131149Y825276D01*
X1131444Y824835D01*
X1131885Y824540D01*
X1132405Y824436D01*
X1132926Y824540D01*
X1133367Y824835D01*
X1133662Y825276D01*
X1133766Y825797D01*
X1133662Y826318D01*
X1133367Y826759D01*
X1132926Y827054D01*
X1132405Y827157D01*
D02*
G37*
G36*
X776000Y824860D02*
X775479Y824757D01*
X775038Y824462D01*
X774743Y824021D01*
X774640Y823500D01*
X774743Y822979D01*
X775038Y822538D01*
X775479Y822243D01*
X776000Y822140D01*
X776521Y822243D01*
X776962Y822538D01*
X777257Y822979D01*
X777360Y823500D01*
X777257Y824021D01*
X776962Y824462D01*
X776521Y824757D01*
X776000Y824860D01*
D02*
G37*
G36*
X1042445Y824266D02*
X1041924Y824162D01*
X1041483Y823867D01*
X1041188Y823426D01*
X1041084Y822906D01*
X1041188Y822385D01*
X1041483Y821944D01*
X1041924Y821649D01*
X1042445Y821545D01*
X1042966Y821649D01*
X1043407Y821944D01*
X1043702Y822385D01*
X1043805Y822906D01*
X1043702Y823426D01*
X1043407Y823867D01*
X1042966Y824162D01*
X1042445Y824266D01*
D02*
G37*
G36*
X1111585Y824168D02*
X1111064Y824064D01*
X1110623Y823769D01*
X1110328Y823328D01*
X1110224Y822807D01*
X1110328Y822287D01*
X1110623Y821845D01*
X1111064Y821550D01*
X1111585Y821447D01*
X1112105Y821550D01*
X1112547Y821845D01*
X1112842Y822287D01*
X1112945Y822807D01*
X1112842Y823328D01*
X1112547Y823769D01*
X1112105Y824064D01*
X1111585Y824168D01*
D02*
G37*
G36*
X994000Y827828D02*
X993009Y827697D01*
X992086Y827315D01*
X991294Y826707D01*
X990685Y825914D01*
X990303Y824991D01*
X990172Y824000D01*
X990303Y823009D01*
X990685Y822086D01*
X991294Y821294D01*
X992086Y820685D01*
X993009Y820303D01*
X994000Y820172D01*
X994991Y820303D01*
X995914Y820685D01*
X996706Y821294D01*
X997315Y822086D01*
X997697Y823009D01*
X997828Y824000D01*
X997697Y824991D01*
X997315Y825914D01*
X996706Y826707D01*
X995914Y827315D01*
X994991Y827697D01*
X994000Y827828D01*
D02*
G37*
G36*
X1064394Y819345D02*
X1063873Y819241D01*
X1063432Y818946D01*
X1063137Y818505D01*
X1063033Y817984D01*
X1063137Y817464D01*
X1063432Y817022D01*
X1063873Y816727D01*
X1064394Y816624D01*
X1064914Y816727D01*
X1065356Y817022D01*
X1065650Y817464D01*
X1065754Y817984D01*
X1065650Y818505D01*
X1065356Y818946D01*
X1064914Y819241D01*
X1064394Y819345D01*
D02*
G37*
G36*
X1059394D02*
X1058873Y819241D01*
X1058432Y818946D01*
X1058137Y818505D01*
X1058033Y817984D01*
X1058137Y817464D01*
X1058432Y817022D01*
X1058873Y816727D01*
X1059394Y816624D01*
X1059914Y816727D01*
X1060356Y817022D01*
X1060651Y817464D01*
X1060754Y817984D01*
X1060651Y818505D01*
X1060356Y818946D01*
X1059914Y819241D01*
X1059394Y819345D01*
D02*
G37*
G36*
X1044221Y811640D02*
X1043700Y811536D01*
X1043258Y811242D01*
X1042964Y810800D01*
X1042860Y810279D01*
X1042964Y809759D01*
X1043258Y809318D01*
X1043700Y809023D01*
X1044221Y808919D01*
X1044741Y809023D01*
X1045182Y809318D01*
X1045477Y809759D01*
X1045581Y810279D01*
X1045477Y810800D01*
X1045182Y811242D01*
X1044741Y811536D01*
X1044221Y811640D01*
D02*
G37*
G36*
X793374Y809873D02*
X792853Y809769D01*
X792412Y809474D01*
X792117Y809033D01*
X792013Y808512D01*
X792117Y807992D01*
X792412Y807550D01*
X792853Y807255D01*
X793374Y807152D01*
X793894Y807255D01*
X794336Y807550D01*
X794630Y807992D01*
X794734Y808512D01*
X794630Y809033D01*
X794336Y809474D01*
X793894Y809769D01*
X793374Y809873D01*
D02*
G37*
G36*
X824575Y806086D02*
X824054Y805983D01*
X823613Y805688D01*
X823318Y805246D01*
X823214Y804726D01*
X823318Y804205D01*
X823613Y803764D01*
X824054Y803469D01*
X824575Y803365D01*
X825095Y803469D01*
X825537Y803764D01*
X825832Y804205D01*
X825935Y804726D01*
X825832Y805246D01*
X825537Y805688D01*
X825095Y805983D01*
X824575Y806086D01*
D02*
G37*
G36*
X819224D02*
X818704Y805983D01*
X818262Y805688D01*
X817968Y805246D01*
X817864Y804726D01*
X817968Y804205D01*
X818262Y803764D01*
X818704Y803469D01*
X819224Y803365D01*
X819745Y803469D01*
X820186Y803764D01*
X820481Y804205D01*
X820585Y804726D01*
X820481Y805246D01*
X820186Y805688D01*
X819745Y805983D01*
X819224Y806086D01*
D02*
G37*
G36*
X814038D02*
X813517Y805983D01*
X813076Y805688D01*
X812781Y805246D01*
X812678Y804726D01*
X812781Y804205D01*
X813076Y803764D01*
X813517Y803469D01*
X814038Y803365D01*
X814559Y803469D01*
X815000Y803764D01*
X815295Y804205D01*
X815398Y804726D01*
X815295Y805246D01*
X815000Y805688D01*
X814559Y805983D01*
X814038Y806086D01*
D02*
G37*
G36*
X808714D02*
X808193Y805983D01*
X807752Y805688D01*
X807457Y805246D01*
X807354Y804726D01*
X807457Y804205D01*
X807752Y803764D01*
X808193Y803469D01*
X808714Y803365D01*
X809235Y803469D01*
X809676Y803764D01*
X809971Y804205D01*
X810074Y804726D01*
X809971Y805246D01*
X809676Y805688D01*
X809235Y805983D01*
X808714Y806086D01*
D02*
G37*
G36*
X906000Y804518D02*
X905479Y804414D01*
X905038Y804119D01*
X904743Y803678D01*
X904640Y803158D01*
X904743Y802637D01*
X905038Y802195D01*
X905479Y801901D01*
X906000Y801797D01*
X906521Y801901D01*
X906962Y802195D01*
X907257Y802637D01*
X907360Y803158D01*
X907257Y803678D01*
X906962Y804119D01*
X906521Y804414D01*
X906000Y804518D01*
D02*
G37*
G36*
X1128500Y813525D02*
X1127324Y813409D01*
X1126193Y813066D01*
X1125151Y812509D01*
X1124237Y811759D01*
X1123487Y810845D01*
X1122930Y809803D01*
X1122587Y808672D01*
X1122471Y807496D01*
X1122587Y806320D01*
X1122930Y805189D01*
X1123487Y804147D01*
X1124237Y803233D01*
X1125151Y802483D01*
X1126193Y801926D01*
X1127324Y801583D01*
X1128500Y801467D01*
X1129676Y801583D01*
X1130807Y801926D01*
X1131849Y802483D01*
X1132763Y803233D01*
X1133513Y804147D01*
X1134070Y805189D01*
X1134413Y806320D01*
X1134529Y807496D01*
X1134413Y808672D01*
X1134070Y809803D01*
X1133513Y810845D01*
X1132763Y811759D01*
X1131849Y812509D01*
X1130807Y813066D01*
X1129676Y813409D01*
X1128500Y813525D01*
D02*
G37*
G36*
X1093872Y802719D02*
X1093351Y802615D01*
X1092910Y802320D01*
X1092615Y801879D01*
X1092511Y801358D01*
X1092615Y800838D01*
X1092910Y800396D01*
X1093351Y800101D01*
X1093872Y799998D01*
X1094392Y800101D01*
X1094833Y800396D01*
X1095128Y800838D01*
X1095232Y801358D01*
X1095128Y801879D01*
X1094833Y802320D01*
X1094392Y802615D01*
X1093872Y802719D01*
D02*
G37*
G36*
X1060587D02*
X1060066Y802615D01*
X1059625Y802320D01*
X1059330Y801879D01*
X1059226Y801358D01*
X1059330Y800838D01*
X1059625Y800396D01*
X1060066Y800101D01*
X1060587Y799998D01*
X1061107Y800101D01*
X1061549Y800396D01*
X1061843Y800838D01*
X1061947Y801358D01*
X1061843Y801879D01*
X1061549Y802320D01*
X1061107Y802615D01*
X1060587Y802719D01*
D02*
G37*
G36*
X803988Y801360D02*
X803468Y801257D01*
X803026Y800962D01*
X802731Y800521D01*
X802628Y800000D01*
X802731Y799479D01*
X803026Y799038D01*
X803468Y798743D01*
X803988Y798640D01*
X804509Y798743D01*
X804950Y799038D01*
X805245Y799479D01*
X805349Y800000D01*
X805245Y800521D01*
X804950Y800962D01*
X804509Y801257D01*
X803988Y801360D01*
D02*
G37*
G36*
X863118Y795900D02*
X862597Y795796D01*
X862156Y795501D01*
X861861Y795060D01*
X861758Y794539D01*
X861861Y794019D01*
X862156Y793577D01*
X862597Y793283D01*
X863118Y793179D01*
X863639Y793283D01*
X864080Y793577D01*
X864375Y794019D01*
X864478Y794539D01*
X864375Y795060D01*
X864080Y795501D01*
X863639Y795796D01*
X863118Y795900D01*
D02*
G37*
G36*
X847882D02*
X847361Y795796D01*
X846920Y795501D01*
X846625Y795060D01*
X846521Y794539D01*
X846625Y794019D01*
X846920Y793577D01*
X847361Y793283D01*
X847882Y793179D01*
X848403Y793283D01*
X848844Y793577D01*
X849139Y794019D01*
X849242Y794539D01*
X849139Y795060D01*
X848844Y795501D01*
X848403Y795796D01*
X847882Y795900D01*
D02*
G37*
G36*
X803988Y795860D02*
X803468Y795757D01*
X803026Y795462D01*
X802731Y795021D01*
X802628Y794500D01*
X802731Y793979D01*
X803026Y793538D01*
X803468Y793243D01*
X803988Y793140D01*
X804509Y793243D01*
X804950Y793538D01*
X805245Y793979D01*
X805349Y794500D01*
X805245Y795021D01*
X804950Y795462D01*
X804509Y795757D01*
X803988Y795860D01*
D02*
G37*
G36*
X1045000Y787860D02*
X1044479Y787757D01*
X1044038Y787462D01*
X1043743Y787021D01*
X1043640Y786500D01*
X1043743Y785979D01*
X1044038Y785538D01*
X1044479Y785243D01*
X1045000Y785140D01*
X1045521Y785243D01*
X1045962Y785538D01*
X1046257Y785979D01*
X1046360Y786500D01*
X1046257Y787021D01*
X1045962Y787462D01*
X1045521Y787757D01*
X1045000Y787860D01*
D02*
G37*
G36*
X1018357Y786813D02*
X1017836Y786710D01*
X1017395Y786415D01*
X1017100Y785973D01*
X1016996Y785453D01*
X1017100Y784932D01*
X1017395Y784491D01*
X1017836Y784196D01*
X1018357Y784092D01*
X1018877Y784196D01*
X1019319Y784491D01*
X1019614Y784932D01*
X1019717Y785453D01*
X1019614Y785973D01*
X1019319Y786415D01*
X1018877Y786710D01*
X1018357Y786813D01*
D02*
G37*
G36*
X1004842D02*
X1004322Y786710D01*
X1003881Y786415D01*
X1003586Y785973D01*
X1003482Y785453D01*
X1003586Y784932D01*
X1003881Y784491D01*
X1004322Y784196D01*
X1004842Y784092D01*
X1005363Y784196D01*
X1005805Y784491D01*
X1006099Y784932D01*
X1006203Y785453D01*
X1006099Y785973D01*
X1005805Y786415D01*
X1005363Y786710D01*
X1004842Y786813D01*
D02*
G37*
G36*
X1128500Y792033D02*
X1127324Y791917D01*
X1126193Y791574D01*
X1125151Y791017D01*
X1124237Y790267D01*
X1123487Y789353D01*
X1122930Y788311D01*
X1122587Y787180D01*
X1122471Y786004D01*
X1122587Y784828D01*
X1122930Y783697D01*
X1123487Y782655D01*
X1124237Y781741D01*
X1125151Y780991D01*
X1126193Y780434D01*
X1127324Y780091D01*
X1128500Y779975D01*
X1129676Y780091D01*
X1130807Y780434D01*
X1131849Y780991D01*
X1132763Y781741D01*
X1133513Y782655D01*
X1134070Y783697D01*
X1134413Y784828D01*
X1134529Y786004D01*
X1134413Y787180D01*
X1134070Y788311D01*
X1133513Y789353D01*
X1132763Y790267D01*
X1131849Y791017D01*
X1130807Y791574D01*
X1129676Y791917D01*
X1128500Y792033D01*
D02*
G37*
G36*
X945500Y766589D02*
X944979Y766485D01*
X944538Y766190D01*
X944243Y765749D01*
X944140Y765228D01*
X944243Y764708D01*
X944538Y764266D01*
X944979Y763972D01*
X945500Y763868D01*
X946021Y763972D01*
X946462Y764266D01*
X946757Y764708D01*
X946860Y765228D01*
X946757Y765749D01*
X946462Y766190D01*
X946021Y766485D01*
X945500Y766589D01*
D02*
G37*
G36*
X759000Y770828D02*
X758009Y770697D01*
X757086Y770315D01*
X756293Y769706D01*
X755685Y768914D01*
X755303Y767991D01*
X755172Y767000D01*
X755303Y766009D01*
X755685Y765086D01*
X756293Y764293D01*
X757086Y763685D01*
X758009Y763303D01*
X759000Y763172D01*
X759991Y763303D01*
X760914Y763685D01*
X761706Y764293D01*
X762315Y765086D01*
X762697Y766009D01*
X762828Y767000D01*
X762697Y767991D01*
X762315Y768914D01*
X761706Y769706D01*
X760914Y770315D01*
X759991Y770697D01*
X759000Y770828D01*
D02*
G37*
G36*
X780000Y769178D02*
X779125Y769063D01*
X778310Y768725D01*
X777611Y768188D01*
X777074Y767489D01*
X776736Y766674D01*
X776621Y765799D01*
X776736Y764925D01*
X777074Y764110D01*
X777611Y763410D01*
X778310Y762873D01*
X779125Y762535D01*
X780000Y762420D01*
X780874Y762535D01*
X781690Y762873D01*
X782389Y763410D01*
X782926Y764110D01*
X783264Y764925D01*
X783379Y765799D01*
X783264Y766674D01*
X782926Y767489D01*
X782389Y768188D01*
X781690Y768725D01*
X780874Y769063D01*
X780000Y769178D01*
D02*
G37*
G36*
X815000Y763860D02*
X814479Y763757D01*
X814038Y763462D01*
X813743Y763021D01*
X813640Y762500D01*
X813743Y761979D01*
X814038Y761538D01*
X814479Y761243D01*
X815000Y761140D01*
X815521Y761243D01*
X815962Y761538D01*
X816257Y761979D01*
X816360Y762500D01*
X816257Y763021D01*
X815962Y763462D01*
X815521Y763757D01*
X815000Y763860D01*
D02*
G37*
G36*
X1131500Y763360D02*
X1130979Y763257D01*
X1130538Y762962D01*
X1130243Y762521D01*
X1130140Y762000D01*
X1130243Y761479D01*
X1130538Y761038D01*
X1130979Y760743D01*
X1131500Y760640D01*
X1132021Y760743D01*
X1132462Y761038D01*
X1132757Y761479D01*
X1132860Y762000D01*
X1132757Y762521D01*
X1132462Y762962D01*
X1132021Y763257D01*
X1131500Y763360D01*
D02*
G37*
G36*
X1075500Y761860D02*
X1074979Y761757D01*
X1074538Y761462D01*
X1074243Y761021D01*
X1074140Y760500D01*
X1074243Y759979D01*
X1074538Y759538D01*
X1074979Y759243D01*
X1075500Y759140D01*
X1076021Y759243D01*
X1076462Y759538D01*
X1076757Y759979D01*
X1076860Y760500D01*
X1076757Y761021D01*
X1076462Y761462D01*
X1076021Y761757D01*
X1075500Y761860D01*
D02*
G37*
G36*
X904500Y763328D02*
X903509Y763197D01*
X902586Y762815D01*
X901793Y762207D01*
X901185Y761414D01*
X900803Y760491D01*
X900672Y759500D01*
X900803Y758509D01*
X901185Y757586D01*
X901793Y756793D01*
X902586Y756185D01*
X903509Y755803D01*
X904500Y755672D01*
X905491Y755803D01*
X906414Y756185D01*
X907207Y756793D01*
X907815Y757586D01*
X908197Y758509D01*
X908328Y759500D01*
X908197Y760491D01*
X907815Y761414D01*
X907207Y762207D01*
X906414Y762815D01*
X905491Y763197D01*
X904500Y763328D01*
D02*
G37*
G36*
X1100421Y748860D02*
X1099901Y748757D01*
X1099459Y748462D01*
X1099164Y748021D01*
X1099061Y747500D01*
X1099164Y746979D01*
X1099459Y746538D01*
X1099901Y746243D01*
X1100421Y746140D01*
X1100942Y746243D01*
X1101383Y746538D01*
X1101678Y746979D01*
X1101782Y747500D01*
X1101678Y748021D01*
X1101383Y748462D01*
X1100942Y748757D01*
X1100421Y748860D01*
D02*
G37*
G36*
X940500Y745132D02*
X939979Y745028D01*
X939538Y744734D01*
X939243Y744292D01*
X939140Y743772D01*
X939243Y743251D01*
X939538Y742810D01*
X939979Y742515D01*
X940500Y742411D01*
X941021Y742515D01*
X941462Y742810D01*
X941757Y743251D01*
X941860Y743772D01*
X941757Y744292D01*
X941462Y744734D01*
X941021Y745028D01*
X940500Y745132D01*
D02*
G37*
G36*
X935500D02*
X934979Y745028D01*
X934538Y744734D01*
X934243Y744292D01*
X934140Y743772D01*
X934243Y743251D01*
X934538Y742810D01*
X934979Y742515D01*
X935500Y742411D01*
X936021Y742515D01*
X936462Y742810D01*
X936757Y743251D01*
X936860Y743772D01*
X936757Y744292D01*
X936462Y744734D01*
X936021Y745028D01*
X935500Y745132D01*
D02*
G37*
G36*
X787500Y744798D02*
X786979Y744695D01*
X786538Y744400D01*
X786243Y743959D01*
X786140Y743438D01*
X786243Y742917D01*
X786538Y742476D01*
X786979Y742181D01*
X787500Y742077D01*
X788021Y742181D01*
X788462Y742476D01*
X788757Y742917D01*
X788860Y743438D01*
X788757Y743959D01*
X788462Y744400D01*
X788021Y744695D01*
X787500Y744798D01*
D02*
G37*
G36*
X967000Y744203D02*
X966479Y744099D01*
X966038Y743805D01*
X965743Y743363D01*
X965640Y742842D01*
X965743Y742322D01*
X966038Y741881D01*
X966479Y741586D01*
X967000Y741482D01*
X967521Y741586D01*
X967962Y741881D01*
X968257Y742322D01*
X968360Y742842D01*
X968257Y743363D01*
X967962Y743805D01*
X967521Y744099D01*
X967000Y744203D01*
D02*
G37*
G36*
X1128500Y750025D02*
X1127324Y749909D01*
X1126193Y749566D01*
X1125151Y749009D01*
X1124237Y748259D01*
X1123487Y747345D01*
X1122930Y746303D01*
X1122587Y745172D01*
X1122471Y743996D01*
X1122587Y742820D01*
X1122930Y741689D01*
X1123487Y740647D01*
X1124237Y739733D01*
X1125151Y738983D01*
X1126193Y738426D01*
X1127324Y738083D01*
X1128500Y737967D01*
X1129676Y738083D01*
X1130807Y738426D01*
X1131849Y738983D01*
X1132763Y739733D01*
X1133513Y740647D01*
X1134070Y741689D01*
X1134413Y742820D01*
X1134529Y743996D01*
X1134413Y745172D01*
X1134070Y746303D01*
X1133513Y747345D01*
X1132763Y748259D01*
X1131849Y749009D01*
X1130807Y749566D01*
X1129676Y749909D01*
X1128500Y750025D01*
D02*
G37*
G36*
X890000Y738238D02*
X889479Y738135D01*
X889038Y737840D01*
X888743Y737399D01*
X888640Y736878D01*
X888743Y736357D01*
X889038Y735916D01*
X889479Y735621D01*
X890000Y735518D01*
X890521Y735621D01*
X890962Y735916D01*
X891257Y736357D01*
X891360Y736878D01*
X891257Y737399D01*
X890962Y737840D01*
X890521Y738135D01*
X890000Y738238D01*
D02*
G37*
G36*
X837220Y737860D02*
X836700Y737757D01*
X836259Y737462D01*
X835964Y737021D01*
X835860Y736500D01*
X835964Y735979D01*
X836259Y735538D01*
X836700Y735243D01*
X837220Y735140D01*
X837741Y735243D01*
X838182Y735538D01*
X838477Y735979D01*
X838581Y736500D01*
X838477Y737021D01*
X838182Y737462D01*
X837741Y737757D01*
X837220Y737860D01*
D02*
G37*
G36*
X1043570Y734042D02*
X1043049Y733938D01*
X1042608Y733643D01*
X1042313Y733202D01*
X1042209Y732681D01*
X1042313Y732161D01*
X1042608Y731719D01*
X1043049Y731424D01*
X1043570Y731321D01*
X1044090Y731424D01*
X1044532Y731719D01*
X1044827Y732161D01*
X1044930Y732681D01*
X1044827Y733202D01*
X1044532Y733643D01*
X1044090Y733938D01*
X1043570Y734042D01*
D02*
G37*
G36*
X874500Y732860D02*
X873979Y732757D01*
X873538Y732462D01*
X873243Y732021D01*
X873140Y731500D01*
X873243Y730979D01*
X873538Y730538D01*
X873979Y730243D01*
X874500Y730140D01*
X875021Y730243D01*
X875462Y730538D01*
X875757Y730979D01*
X875860Y731500D01*
X875757Y732021D01*
X875462Y732462D01*
X875021Y732757D01*
X874500Y732860D01*
D02*
G37*
G36*
X1038992Y731098D02*
X1038471Y730995D01*
X1038030Y730700D01*
X1037735Y730258D01*
X1037632Y729738D01*
X1037735Y729217D01*
X1038030Y728776D01*
X1038471Y728481D01*
X1038992Y728377D01*
X1039513Y728481D01*
X1039954Y728776D01*
X1040249Y729217D01*
X1040352Y729738D01*
X1040249Y730258D01*
X1039954Y730700D01*
X1039513Y730995D01*
X1038992Y731098D01*
D02*
G37*
G36*
X1077000Y729860D02*
X1076479Y729757D01*
X1076038Y729462D01*
X1075743Y729021D01*
X1075640Y728500D01*
X1075743Y727979D01*
X1076038Y727538D01*
X1076479Y727243D01*
X1077000Y727140D01*
X1077521Y727243D01*
X1077962Y727538D01*
X1078257Y727979D01*
X1078360Y728500D01*
X1078257Y729021D01*
X1077962Y729462D01*
X1077521Y729757D01*
X1077000Y729860D01*
D02*
G37*
G36*
X1050412Y729790D02*
X1049891Y729687D01*
X1049450Y729392D01*
X1049155Y728951D01*
X1049052Y728430D01*
X1049155Y727909D01*
X1049450Y727468D01*
X1049891Y727173D01*
X1050412Y727070D01*
X1050933Y727173D01*
X1051374Y727468D01*
X1051669Y727909D01*
X1051772Y728430D01*
X1051669Y728951D01*
X1051374Y729392D01*
X1050933Y729687D01*
X1050412Y729790D01*
D02*
G37*
G36*
X971930Y727163D02*
X971409Y727059D01*
X970968Y726764D01*
X970673Y726323D01*
X970569Y725802D01*
X970673Y725282D01*
X970968Y724840D01*
X971409Y724546D01*
X971930Y724442D01*
X972450Y724546D01*
X972892Y724840D01*
X973186Y725282D01*
X973290Y725802D01*
X973186Y726323D01*
X972892Y726764D01*
X972450Y727059D01*
X971930Y727163D01*
D02*
G37*
G36*
X1044762Y723463D02*
X1044241Y723360D01*
X1043800Y723065D01*
X1043505Y722623D01*
X1043402Y722103D01*
X1043505Y721582D01*
X1043800Y721141D01*
X1044241Y720846D01*
X1044762Y720742D01*
X1045282Y720846D01*
X1045724Y721141D01*
X1046019Y721582D01*
X1046122Y722103D01*
X1046019Y722623D01*
X1045724Y723065D01*
X1045282Y723360D01*
X1044762Y723463D01*
D02*
G37*
G36*
X942280Y722360D02*
X941759Y722257D01*
X941318Y721962D01*
X941023Y721521D01*
X940919Y721000D01*
X941023Y720479D01*
X941318Y720038D01*
X941759Y719743D01*
X942280Y719640D01*
X942800Y719743D01*
X943242Y720038D01*
X943536Y720479D01*
X943640Y721000D01*
X943536Y721521D01*
X943242Y721962D01*
X942800Y722257D01*
X942280Y722360D01*
D02*
G37*
G36*
X906500D02*
X905979Y722257D01*
X905538Y721962D01*
X905243Y721521D01*
X905140Y721000D01*
X905243Y720479D01*
X905538Y720038D01*
X905979Y719743D01*
X906500Y719640D01*
X907021Y719743D01*
X907462Y720038D01*
X907757Y720479D01*
X907860Y721000D01*
X907757Y721521D01*
X907462Y721962D01*
X907021Y722257D01*
X906500Y722360D01*
D02*
G37*
G36*
X1128500Y728533D02*
X1127324Y728417D01*
X1126193Y728074D01*
X1125151Y727517D01*
X1124237Y726767D01*
X1123487Y725853D01*
X1122930Y724811D01*
X1122587Y723680D01*
X1122471Y722504D01*
X1122587Y721328D01*
X1122930Y720197D01*
X1123487Y719155D01*
X1124237Y718241D01*
X1125151Y717491D01*
X1126193Y716934D01*
X1127324Y716591D01*
X1128500Y716475D01*
X1129676Y716591D01*
X1130807Y716934D01*
X1131849Y717491D01*
X1132763Y718241D01*
X1133513Y719155D01*
X1134070Y720197D01*
X1134413Y721328D01*
X1134529Y722504D01*
X1134413Y723680D01*
X1134070Y724811D01*
X1133513Y725853D01*
X1132763Y726767D01*
X1131849Y727517D01*
X1130807Y728074D01*
X1129676Y728417D01*
X1128500Y728533D01*
D02*
G37*
G36*
X1048153Y716990D02*
X1047633Y716886D01*
X1047192Y716591D01*
X1046897Y716150D01*
X1046793Y715629D01*
X1046897Y715109D01*
X1047192Y714667D01*
X1047633Y714372D01*
X1048153Y714269D01*
X1048674Y714372D01*
X1049115Y714667D01*
X1049410Y715109D01*
X1049514Y715629D01*
X1049410Y716150D01*
X1049115Y716591D01*
X1048674Y716886D01*
X1048153Y716990D01*
D02*
G37*
G36*
X955500Y714986D02*
X954979Y714882D01*
X954538Y714587D01*
X954243Y714146D01*
X954140Y713625D01*
X954243Y713105D01*
X954538Y712663D01*
X954979Y712368D01*
X955500Y712265D01*
X956021Y712368D01*
X956462Y712663D01*
X956757Y713105D01*
X956860Y713625D01*
X956757Y714146D01*
X956462Y714587D01*
X956021Y714882D01*
X955500Y714986D01*
D02*
G37*
G36*
X949500Y714360D02*
X948979Y714257D01*
X948538Y713962D01*
X948243Y713521D01*
X948140Y713000D01*
X948243Y712479D01*
X948538Y712038D01*
X948979Y711743D01*
X949500Y711640D01*
X950021Y711743D01*
X950462Y712038D01*
X950757Y712479D01*
X950860Y713000D01*
X950757Y713521D01*
X950462Y713962D01*
X950021Y714257D01*
X949500Y714360D01*
D02*
G37*
G36*
X938500Y711860D02*
X937979Y711757D01*
X937538Y711462D01*
X937243Y711021D01*
X937140Y710500D01*
X937243Y709979D01*
X937538Y709538D01*
X937979Y709243D01*
X938500Y709140D01*
X939021Y709243D01*
X939462Y709538D01*
X939757Y709979D01*
X939860Y710500D01*
X939757Y711021D01*
X939462Y711462D01*
X939021Y711757D01*
X938500Y711860D01*
D02*
G37*
G36*
X881279Y711360D02*
X880759Y711257D01*
X880318Y710962D01*
X880023Y710521D01*
X879919Y710000D01*
X880023Y709479D01*
X880318Y709038D01*
X880759Y708743D01*
X881279Y708640D01*
X881800Y708743D01*
X882242Y709038D01*
X882536Y709479D01*
X882640Y710000D01*
X882536Y710521D01*
X882242Y710962D01*
X881800Y711257D01*
X881279Y711360D01*
D02*
G37*
G36*
X831000Y709860D02*
X830479Y709757D01*
X830038Y709462D01*
X829743Y709021D01*
X829640Y708500D01*
X829743Y707979D01*
X830038Y707538D01*
X830479Y707243D01*
X831000Y707140D01*
X831521Y707243D01*
X831962Y707538D01*
X832257Y707979D01*
X832360Y708500D01*
X832257Y709021D01*
X831962Y709462D01*
X831521Y709757D01*
X831000Y709860D01*
D02*
G37*
G36*
X1038370Y704538D02*
X1037850Y704434D01*
X1037408Y704139D01*
X1037113Y703698D01*
X1037010Y703177D01*
X1037113Y702657D01*
X1037408Y702215D01*
X1037850Y701921D01*
X1038370Y701817D01*
X1038891Y701921D01*
X1039332Y702215D01*
X1039627Y702657D01*
X1039731Y703177D01*
X1039627Y703698D01*
X1039332Y704139D01*
X1038891Y704434D01*
X1038370Y704538D01*
D02*
G37*
G36*
X1042314Y704360D02*
X1041793Y704257D01*
X1041352Y703962D01*
X1041057Y703521D01*
X1040953Y703000D01*
X1041057Y702479D01*
X1041352Y702038D01*
X1041793Y701743D01*
X1042314Y701640D01*
X1042834Y701743D01*
X1043276Y702038D01*
X1043570Y702479D01*
X1043674Y703000D01*
X1043570Y703521D01*
X1043276Y703962D01*
X1042834Y704257D01*
X1042314Y704360D01*
D02*
G37*
G36*
X956784Y704145D02*
X956264Y704041D01*
X955822Y703746D01*
X955527Y703305D01*
X955424Y702784D01*
X955527Y702264D01*
X955822Y701822D01*
X956264Y701527D01*
X956784Y701424D01*
X957305Y701527D01*
X957746Y701822D01*
X958041Y702264D01*
X958145Y702784D01*
X958041Y703305D01*
X957746Y703746D01*
X957305Y704041D01*
X956784Y704145D01*
D02*
G37*
G36*
X1084500Y703656D02*
X1083979Y703552D01*
X1083538Y703257D01*
X1083243Y702816D01*
X1083140Y702295D01*
X1083243Y701775D01*
X1083538Y701333D01*
X1083979Y701038D01*
X1084500Y700935D01*
X1085021Y701038D01*
X1085462Y701333D01*
X1085757Y701775D01*
X1085860Y702295D01*
X1085757Y702816D01*
X1085462Y703257D01*
X1085021Y703552D01*
X1084500Y703656D01*
D02*
G37*
G36*
X969500Y701860D02*
X968979Y701757D01*
X968538Y701462D01*
X968243Y701021D01*
X968140Y700500D01*
X968243Y699979D01*
X968538Y699538D01*
X968979Y699243D01*
X969500Y699140D01*
X970021Y699243D01*
X970462Y699538D01*
X970757Y699979D01*
X970860Y700500D01*
X970757Y701021D01*
X970462Y701462D01*
X970021Y701757D01*
X969500Y701860D01*
D02*
G37*
G36*
X901500D02*
X900979Y701757D01*
X900538Y701462D01*
X900243Y701021D01*
X900140Y700500D01*
X900243Y699979D01*
X900538Y699538D01*
X900979Y699243D01*
X901500Y699140D01*
X902021Y699243D01*
X902462Y699538D01*
X902757Y699979D01*
X902860Y700500D01*
X902757Y701021D01*
X902462Y701462D01*
X902021Y701757D01*
X901500Y701860D01*
D02*
G37*
G36*
X1045992Y701655D02*
X1045472Y701552D01*
X1045030Y701257D01*
X1044735Y700815D01*
X1044632Y700295D01*
X1044735Y699774D01*
X1045030Y699333D01*
X1045472Y699038D01*
X1045992Y698934D01*
X1046513Y699038D01*
X1046954Y699333D01*
X1047249Y699774D01*
X1047353Y700295D01*
X1047249Y700815D01*
X1046954Y701257D01*
X1046513Y701552D01*
X1045992Y701655D01*
D02*
G37*
G36*
X1132000Y700360D02*
X1131479Y700257D01*
X1131038Y699962D01*
X1130743Y699521D01*
X1130640Y699000D01*
X1130743Y698479D01*
X1131038Y698038D01*
X1131479Y697743D01*
X1132000Y697640D01*
X1132521Y697743D01*
X1132962Y698038D01*
X1133257Y698479D01*
X1133360Y699000D01*
X1133257Y699521D01*
X1132962Y699962D01*
X1132521Y700257D01*
X1132000Y700360D01*
D02*
G37*
G36*
X1054500D02*
X1053979Y700257D01*
X1053538Y699962D01*
X1053243Y699521D01*
X1053140Y699000D01*
X1053243Y698479D01*
X1053538Y698038D01*
X1053979Y697743D01*
X1054500Y697640D01*
X1055021Y697743D01*
X1055462Y698038D01*
X1055757Y698479D01*
X1055860Y699000D01*
X1055757Y699521D01*
X1055462Y699962D01*
X1055021Y700257D01*
X1054500Y700360D01*
D02*
G37*
G36*
X1065347Y698368D02*
X1064826Y698265D01*
X1064385Y697970D01*
X1064090Y697529D01*
X1063986Y697008D01*
X1064090Y696487D01*
X1064385Y696046D01*
X1064826Y695751D01*
X1065347Y695647D01*
X1065868Y695751D01*
X1066309Y696046D01*
X1066604Y696487D01*
X1066707Y697008D01*
X1066604Y697529D01*
X1066309Y697970D01*
X1065868Y698265D01*
X1065347Y698368D01*
D02*
G37*
G36*
X954562Y695360D02*
X954042Y695257D01*
X953601Y694962D01*
X953306Y694521D01*
X953202Y694000D01*
X953306Y693479D01*
X953601Y693038D01*
X954042Y692743D01*
X954562Y692640D01*
X955083Y692743D01*
X955524Y693038D01*
X955819Y693479D01*
X955923Y694000D01*
X955819Y694521D01*
X955524Y694962D01*
X955083Y695257D01*
X954562Y695360D01*
D02*
G37*
G36*
X969500Y694360D02*
X968979Y694257D01*
X968538Y693962D01*
X968243Y693521D01*
X968140Y693000D01*
X968243Y692479D01*
X968538Y692038D01*
X968979Y691743D01*
X969500Y691640D01*
X970021Y691743D01*
X970462Y692038D01*
X970757Y692479D01*
X970860Y693000D01*
X970757Y693521D01*
X970462Y693962D01*
X970021Y694257D01*
X969500Y694360D01*
D02*
G37*
G36*
X1077164Y694146D02*
X1076644Y694042D01*
X1076202Y693747D01*
X1075908Y693306D01*
X1075804Y692785D01*
X1075908Y692265D01*
X1076202Y691823D01*
X1076644Y691529D01*
X1077164Y691425D01*
X1077685Y691529D01*
X1078126Y691823D01*
X1078421Y692265D01*
X1078525Y692785D01*
X1078421Y693306D01*
X1078126Y693747D01*
X1077685Y694042D01*
X1077164Y694146D01*
D02*
G37*
G36*
X963508Y692463D02*
X962987Y692359D01*
X962546Y692064D01*
X962251Y691623D01*
X962148Y691102D01*
X962251Y690582D01*
X962546Y690140D01*
X962987Y689846D01*
X963508Y689742D01*
X964028Y689846D01*
X964470Y690140D01*
X964765Y690582D01*
X964868Y691102D01*
X964765Y691623D01*
X964470Y692064D01*
X964028Y692359D01*
X963508Y692463D01*
D02*
G37*
G36*
X994852Y691683D02*
X994332Y691580D01*
X993890Y691285D01*
X993596Y690843D01*
X993492Y690323D01*
X993596Y689802D01*
X993890Y689361D01*
X994332Y689066D01*
X994852Y688962D01*
X995373Y689066D01*
X995814Y689361D01*
X996109Y689802D01*
X996213Y690323D01*
X996109Y690843D01*
X995814Y691285D01*
X995373Y691580D01*
X994852Y691683D01*
D02*
G37*
G36*
X1085500Y690360D02*
X1084979Y690257D01*
X1084538Y689962D01*
X1084243Y689521D01*
X1084140Y689000D01*
X1084243Y688479D01*
X1084538Y688038D01*
X1084979Y687743D01*
X1085500Y687640D01*
X1086021Y687743D01*
X1086462Y688038D01*
X1086757Y688479D01*
X1086860Y689000D01*
X1086757Y689521D01*
X1086462Y689962D01*
X1086021Y690257D01*
X1085500Y690360D01*
D02*
G37*
G36*
X1048153D02*
X1047633Y690257D01*
X1047192Y689962D01*
X1046897Y689521D01*
X1046793Y689000D01*
X1046897Y688479D01*
X1047192Y688038D01*
X1047633Y687743D01*
X1048153Y687640D01*
X1048674Y687743D01*
X1049115Y688038D01*
X1049410Y688479D01*
X1049514Y689000D01*
X1049410Y689521D01*
X1049115Y689962D01*
X1048674Y690257D01*
X1048153Y690360D01*
D02*
G37*
G36*
X889209Y685160D02*
X888688Y685057D01*
X888247Y684762D01*
X887952Y684321D01*
X887849Y683800D01*
X887952Y683279D01*
X888247Y682838D01*
X888688Y682543D01*
X889209Y682440D01*
X889730Y682543D01*
X890171Y682838D01*
X890466Y683279D01*
X890569Y683800D01*
X890466Y684321D01*
X890171Y684762D01*
X889730Y685057D01*
X889209Y685160D01*
D02*
G37*
G36*
X922508Y684589D02*
X921987Y684485D01*
X921546Y684190D01*
X921251Y683749D01*
X921147Y683228D01*
X921251Y682708D01*
X921546Y682266D01*
X921987Y681972D01*
X922508Y681868D01*
X923028Y681972D01*
X923470Y682266D01*
X923765Y682708D01*
X923868Y683228D01*
X923765Y683749D01*
X923470Y684190D01*
X923028Y684485D01*
X922508Y684589D01*
D02*
G37*
G36*
X1077164Y684360D02*
X1076644Y684257D01*
X1076202Y683962D01*
X1075908Y683521D01*
X1075804Y683000D01*
X1075908Y682479D01*
X1076202Y682038D01*
X1076644Y681743D01*
X1077164Y681640D01*
X1077685Y681743D01*
X1078126Y682038D01*
X1078421Y682479D01*
X1078525Y683000D01*
X1078421Y683521D01*
X1078126Y683962D01*
X1077685Y684257D01*
X1077164Y684360D01*
D02*
G37*
G36*
X972563Y683923D02*
X972042Y683819D01*
X971601Y683524D01*
X971306Y683083D01*
X971202Y682562D01*
X971306Y682042D01*
X971601Y681601D01*
X972042Y681306D01*
X972563Y681202D01*
X973083Y681306D01*
X973524Y681601D01*
X973819Y682042D01*
X973923Y682562D01*
X973819Y683083D01*
X973524Y683524D01*
X973083Y683819D01*
X972563Y683923D01*
D02*
G37*
G36*
X1050323Y682620D02*
X1049802Y682517D01*
X1049361Y682222D01*
X1049066Y681780D01*
X1048962Y681260D01*
X1049066Y680739D01*
X1049361Y680298D01*
X1049802Y680003D01*
X1050323Y679899D01*
X1050843Y680003D01*
X1051285Y680298D01*
X1051580Y680739D01*
X1051683Y681260D01*
X1051580Y681780D01*
X1051285Y682222D01*
X1050843Y682517D01*
X1050323Y682620D01*
D02*
G37*
G36*
X891267Y682060D02*
X890746Y681957D01*
X890304Y681662D01*
X890010Y681221D01*
X889906Y680700D01*
X890010Y680179D01*
X890304Y679738D01*
X890746Y679443D01*
X891267Y679340D01*
X891787Y679443D01*
X892228Y679738D01*
X892523Y680179D01*
X892627Y680700D01*
X892523Y681221D01*
X892228Y681662D01*
X891787Y681957D01*
X891267Y682060D01*
D02*
G37*
G36*
X841452D02*
X840932Y681957D01*
X840490Y681662D01*
X840195Y681221D01*
X840092Y680700D01*
X840195Y680179D01*
X840490Y679738D01*
X840932Y679443D01*
X841452Y679340D01*
X841973Y679443D01*
X842414Y679738D01*
X842709Y680179D01*
X842813Y680700D01*
X842709Y681221D01*
X842414Y681662D01*
X841973Y681957D01*
X841452Y682060D01*
D02*
G37*
G36*
X934067Y680985D02*
X933547Y680882D01*
X933105Y680587D01*
X932810Y680146D01*
X932707Y679625D01*
X932810Y679104D01*
X933105Y678663D01*
X933547Y678368D01*
X934067Y678265D01*
X934588Y678368D01*
X935029Y678663D01*
X935324Y679104D01*
X935427Y679625D01*
X935324Y680146D01*
X935029Y680587D01*
X934588Y680882D01*
X934067Y680985D01*
D02*
G37*
G36*
X1082063Y680112D02*
X1081542Y680009D01*
X1081101Y679714D01*
X1080806Y679273D01*
X1080703Y678752D01*
X1080806Y678231D01*
X1081101Y677790D01*
X1081542Y677495D01*
X1082063Y677392D01*
X1082584Y677495D01*
X1083025Y677790D01*
X1083320Y678231D01*
X1083423Y678752D01*
X1083320Y679273D01*
X1083025Y679714D01*
X1082584Y680009D01*
X1082063Y680112D01*
D02*
G37*
G36*
X951500Y679860D02*
X950979Y679757D01*
X950538Y679462D01*
X950243Y679021D01*
X950140Y678500D01*
X950243Y677979D01*
X950538Y677538D01*
X950979Y677243D01*
X951500Y677140D01*
X952021Y677243D01*
X952462Y677538D01*
X952757Y677979D01*
X952860Y678500D01*
X952757Y679021D01*
X952462Y679462D01*
X952021Y679757D01*
X951500Y679860D01*
D02*
G37*
G36*
X1029258Y677739D02*
X1028737Y677636D01*
X1028296Y677341D01*
X1028048Y676970D01*
X1027782Y676930D01*
X1027505Y676967D01*
X1027258Y677336D01*
X1026817Y677631D01*
X1026296Y677734D01*
X1025776Y677631D01*
X1025334Y677336D01*
X1025040Y676895D01*
X1024936Y676374D01*
X1025040Y675853D01*
X1025334Y675412D01*
X1025776Y675117D01*
X1026296Y675013D01*
X1026817Y675117D01*
X1027258Y675412D01*
X1027506Y675783D01*
X1027772Y675823D01*
X1028050Y675786D01*
X1028296Y675417D01*
X1028737Y675122D01*
X1029258Y675019D01*
X1029778Y675122D01*
X1030220Y675417D01*
X1030515Y675858D01*
X1030618Y676379D01*
X1030515Y676900D01*
X1030220Y677341D01*
X1029778Y677636D01*
X1029258Y677739D01*
D02*
G37*
G36*
X886700Y678960D02*
X886179Y678857D01*
X885738Y678562D01*
X885443Y678121D01*
X885340Y677600D01*
X885443Y677079D01*
X885738Y676638D01*
X886179Y676343D01*
X886700Y676240D01*
X887221Y676343D01*
X887662Y676638D01*
X887957Y677079D01*
X888060Y677600D01*
X887957Y678121D01*
X887662Y678562D01*
X887221Y678857D01*
X886700Y678960D01*
D02*
G37*
G36*
X994852Y678860D02*
X994332Y678757D01*
X993890Y678462D01*
X993596Y678021D01*
X993492Y677500D01*
X993596Y676979D01*
X993890Y676538D01*
X994332Y676243D01*
X994852Y676140D01*
X995373Y676243D01*
X995814Y676538D01*
X996109Y676979D01*
X996213Y677500D01*
X996109Y678021D01*
X995814Y678462D01*
X995373Y678757D01*
X994852Y678860D01*
D02*
G37*
G36*
X975687D02*
X975167Y678757D01*
X974725Y678462D01*
X974430Y678021D01*
X974327Y677500D01*
X974430Y676979D01*
X974725Y676538D01*
X975167Y676243D01*
X975687Y676140D01*
X976208Y676243D01*
X976649Y676538D01*
X976944Y676979D01*
X977048Y677500D01*
X976944Y678021D01*
X976649Y678462D01*
X976208Y678757D01*
X975687Y678860D01*
D02*
G37*
G36*
X964500Y678573D02*
X963979Y678470D01*
X963538Y678175D01*
X963243Y677734D01*
X963140Y677213D01*
X963243Y676692D01*
X963538Y676251D01*
X963979Y675956D01*
X964500Y675853D01*
X965021Y675956D01*
X965462Y676251D01*
X965757Y676692D01*
X965860Y677213D01*
X965757Y677734D01*
X965462Y678175D01*
X965021Y678470D01*
X964500Y678573D01*
D02*
G37*
G36*
X1009332Y677800D02*
X1008811Y677697D01*
X1008370Y677402D01*
X1008075Y676960D01*
X1007971Y676440D01*
X1008075Y675919D01*
X1008370Y675478D01*
X1008811Y675183D01*
X1009332Y675079D01*
X1009853Y675183D01*
X1010294Y675478D01*
X1010332Y675535D01*
X1010933D01*
X1011038Y675378D01*
X1011479Y675083D01*
X1012000Y674979D01*
X1012521Y675083D01*
X1012962Y675378D01*
X1013257Y675819D01*
X1013360Y676340D01*
X1013257Y676860D01*
X1012962Y677302D01*
X1012521Y677597D01*
X1012000Y677700D01*
X1011479Y677597D01*
X1011038Y677302D01*
X1011000Y677245D01*
X1010399D01*
X1010294Y677402D01*
X1009853Y677697D01*
X1009332Y677800D01*
D02*
G37*
G36*
X1128500Y686525D02*
X1127324Y686409D01*
X1126193Y686066D01*
X1125151Y685509D01*
X1124237Y684759D01*
X1123487Y683845D01*
X1122930Y682803D01*
X1122587Y681672D01*
X1122471Y680496D01*
X1122587Y679320D01*
X1122930Y678189D01*
X1123487Y677147D01*
X1124237Y676233D01*
X1125151Y675483D01*
X1126193Y674926D01*
X1127324Y674583D01*
X1128500Y674467D01*
X1129676Y674583D01*
X1130807Y674926D01*
X1131849Y675483D01*
X1132763Y676233D01*
X1133513Y677147D01*
X1134070Y678189D01*
X1134413Y679320D01*
X1134529Y680496D01*
X1134413Y681672D01*
X1134070Y682803D01*
X1133513Y683845D01*
X1132763Y684759D01*
X1131849Y685509D01*
X1130807Y686066D01*
X1129676Y686409D01*
X1128500Y686525D01*
D02*
G37*
G36*
X915268Y677175D02*
X914747Y677072D01*
X914306Y676777D01*
X914011Y676336D01*
X913907Y675815D01*
X914011Y675294D01*
X914306Y674853D01*
X914747Y674558D01*
X915268Y674455D01*
X915788Y674558D01*
X916230Y674853D01*
X916525Y675294D01*
X916628Y675815D01*
X916525Y676336D01*
X916230Y676777D01*
X915788Y677072D01*
X915268Y677175D01*
D02*
G37*
G36*
X954562Y676399D02*
X954042Y676295D01*
X953601Y676000D01*
X953306Y675559D01*
X953202Y675039D01*
X953306Y674518D01*
X953601Y674077D01*
X954042Y673782D01*
X954562Y673678D01*
X955083Y673782D01*
X955524Y674077D01*
X955819Y674518D01*
X955923Y675039D01*
X955819Y675559D01*
X955524Y676000D01*
X955083Y676295D01*
X954562Y676399D01*
D02*
G37*
G36*
X891267Y675860D02*
X890746Y675757D01*
X890304Y675462D01*
X890010Y675021D01*
X889906Y674500D01*
X890010Y673979D01*
X890304Y673538D01*
X890746Y673243D01*
X891267Y673140D01*
X891787Y673243D01*
X892228Y673538D01*
X892523Y673979D01*
X892627Y674500D01*
X892523Y675021D01*
X892228Y675462D01*
X891787Y675757D01*
X891267Y675860D01*
D02*
G37*
G36*
X841452D02*
X840932Y675757D01*
X840490Y675462D01*
X840195Y675021D01*
X840092Y674500D01*
X840195Y673979D01*
X840490Y673538D01*
X840932Y673243D01*
X841452Y673140D01*
X841973Y673243D01*
X842414Y673538D01*
X842709Y673979D01*
X842813Y674500D01*
X842709Y675021D01*
X842414Y675462D01*
X841973Y675757D01*
X841452Y675860D01*
D02*
G37*
G36*
X994740Y675518D02*
X994220Y675414D01*
X993778Y675119D01*
X993483Y674678D01*
X993380Y674157D01*
X993483Y673637D01*
X993778Y673196D01*
X994220Y672901D01*
X994740Y672797D01*
X995261Y672901D01*
X995702Y673196D01*
X995997Y673637D01*
X996101Y674157D01*
X995997Y674678D01*
X995702Y675119D01*
X995261Y675414D01*
X994740Y675518D01*
D02*
G37*
G36*
X1069500Y675360D02*
X1068979Y675257D01*
X1068538Y674962D01*
X1068243Y674521D01*
X1068140Y674000D01*
X1068243Y673479D01*
X1068538Y673038D01*
X1068979Y672743D01*
X1069500Y672640D01*
X1070021Y672743D01*
X1070462Y673038D01*
X1070757Y673479D01*
X1070860Y674000D01*
X1070757Y674521D01*
X1070462Y674962D01*
X1070021Y675257D01*
X1069500Y675360D01*
D02*
G37*
G36*
X846250Y672760D02*
X845729Y672657D01*
X845288Y672362D01*
X844993Y671921D01*
X844890Y671400D01*
X844993Y670879D01*
X845288Y670438D01*
X845729Y670143D01*
X846250Y670040D01*
X846771Y670143D01*
X847212Y670438D01*
X847507Y670879D01*
X847610Y671400D01*
X847507Y671921D01*
X847212Y672362D01*
X846771Y672657D01*
X846250Y672760D01*
D02*
G37*
G36*
X994779Y672175D02*
X994259Y672072D01*
X993818Y671777D01*
X993523Y671336D01*
X993419Y670815D01*
X993523Y670294D01*
X993818Y669853D01*
X994259Y669558D01*
X994779Y669455D01*
X995300Y669558D01*
X995741Y669853D01*
X996036Y670294D01*
X996140Y670815D01*
X996036Y671336D01*
X995741Y671777D01*
X995300Y672072D01*
X994779Y672175D01*
D02*
G37*
G36*
X975687Y670860D02*
X975167Y670757D01*
X974725Y670462D01*
X974430Y670021D01*
X974327Y669500D01*
X974430Y668979D01*
X974725Y668538D01*
X975167Y668243D01*
X975687Y668140D01*
X976208Y668243D01*
X976649Y668538D01*
X976944Y668979D01*
X977048Y669500D01*
X976944Y670021D01*
X976649Y670462D01*
X976208Y670757D01*
X975687Y670860D01*
D02*
G37*
G36*
X961500D02*
X960979Y670757D01*
X960538Y670462D01*
X960243Y670021D01*
X960140Y669500D01*
X960243Y668979D01*
X960538Y668538D01*
X960979Y668243D01*
X961500Y668140D01*
X962021Y668243D01*
X962462Y668538D01*
X962757Y668979D01*
X962860Y669500D01*
X962757Y670021D01*
X962462Y670462D01*
X962021Y670757D01*
X961500Y670860D01*
D02*
G37*
G36*
X1053325Y670760D02*
X1052804Y670657D01*
X1052363Y670362D01*
X1052068Y669920D01*
X1051965Y669400D01*
X1052068Y668879D01*
X1052363Y668438D01*
X1052804Y668143D01*
X1053325Y668039D01*
X1053846Y668143D01*
X1054287Y668438D01*
X1054582Y668879D01*
X1054685Y669400D01*
X1054582Y669920D01*
X1054287Y670362D01*
X1053846Y670657D01*
X1053325Y670760D01*
D02*
G37*
G36*
X841452Y669660D02*
X840932Y669557D01*
X840490Y669262D01*
X840195Y668821D01*
X840092Y668300D01*
X840195Y667779D01*
X840490Y667338D01*
X840932Y667043D01*
X841452Y666940D01*
X841973Y667043D01*
X842414Y667338D01*
X842709Y667779D01*
X842813Y668300D01*
X842709Y668821D01*
X842414Y669262D01*
X841973Y669557D01*
X841452Y669660D01*
D02*
G37*
G36*
X994779Y668833D02*
X994259Y668729D01*
X993818Y668434D01*
X993523Y667993D01*
X993419Y667472D01*
X993523Y666952D01*
X993818Y666510D01*
X994259Y666216D01*
X994779Y666112D01*
X995300Y666216D01*
X995741Y666510D01*
X996036Y666952D01*
X996140Y667472D01*
X996036Y667993D01*
X995741Y668434D01*
X995300Y668729D01*
X994779Y668833D01*
D02*
G37*
G36*
X926039Y667578D02*
X925519Y667474D01*
X925077Y667179D01*
X924782Y666738D01*
X924679Y666217D01*
X924782Y665697D01*
X925077Y665255D01*
X925519Y664960D01*
X926039Y664857D01*
X926560Y664960D01*
X927001Y665255D01*
X927296Y665697D01*
X927400Y666217D01*
X927296Y666738D01*
X927001Y667179D01*
X926560Y667474D01*
X926039Y667578D01*
D02*
G37*
G36*
X1044500Y666589D02*
X1043979Y666486D01*
X1043538Y666191D01*
X1043243Y665750D01*
X1043140Y665229D01*
X1043243Y664708D01*
X1043538Y664267D01*
X1043979Y663972D01*
X1044500Y663869D01*
X1045021Y663972D01*
X1045462Y664267D01*
X1045757Y664708D01*
X1045860Y665229D01*
X1045757Y665750D01*
X1045462Y666191D01*
X1045021Y666486D01*
X1044500Y666589D01*
D02*
G37*
G36*
X915268Y665518D02*
X914747Y665414D01*
X914306Y665119D01*
X914011Y664678D01*
X913907Y664157D01*
X914011Y663637D01*
X914306Y663196D01*
X914747Y662901D01*
X915268Y662797D01*
X915788Y662901D01*
X916230Y663196D01*
X916525Y663637D01*
X916628Y664157D01*
X916525Y664678D01*
X916230Y665119D01*
X915788Y665414D01*
X915268Y665518D01*
D02*
G37*
G36*
X1041784Y664109D02*
X1041264Y664006D01*
X1040822Y663711D01*
X1040527Y663270D01*
X1040424Y662749D01*
X1040527Y662228D01*
X1040822Y661787D01*
X1041264Y661492D01*
X1041784Y661388D01*
X1042305Y661492D01*
X1042746Y661787D01*
X1043041Y662228D01*
X1043145Y662749D01*
X1043041Y663270D01*
X1042746Y663711D01*
X1042305Y664006D01*
X1041784Y664109D01*
D02*
G37*
G36*
X891267Y663460D02*
X890746Y663357D01*
X890304Y663062D01*
X890010Y662621D01*
X889906Y662100D01*
X890010Y661579D01*
X890304Y661138D01*
X890746Y660843D01*
X891267Y660740D01*
X891787Y660843D01*
X892228Y661138D01*
X892523Y661579D01*
X892627Y662100D01*
X892523Y662621D01*
X892228Y663062D01*
X891787Y663357D01*
X891267Y663460D01*
D02*
G37*
G36*
X841452D02*
X840932Y663357D01*
X840490Y663062D01*
X840195Y662621D01*
X840092Y662100D01*
X840195Y661579D01*
X840490Y661138D01*
X840932Y660843D01*
X841452Y660740D01*
X841973Y660843D01*
X842414Y661138D01*
X842709Y661579D01*
X842813Y662100D01*
X842709Y662621D01*
X842414Y663062D01*
X841973Y663357D01*
X841452Y663460D01*
D02*
G37*
G36*
X937024Y662078D02*
X936504Y661975D01*
X936062Y661680D01*
X935767Y661238D01*
X935664Y660718D01*
X935767Y660197D01*
X936062Y659756D01*
X936504Y659461D01*
X937024Y659357D01*
X937545Y659461D01*
X937986Y659756D01*
X938281Y660197D01*
X938385Y660718D01*
X938281Y661238D01*
X937986Y661680D01*
X937545Y661975D01*
X937024Y662078D01*
D02*
G37*
G36*
X1039500Y661860D02*
X1038979Y661757D01*
X1038538Y661462D01*
X1038243Y661021D01*
X1038140Y660500D01*
X1038243Y659979D01*
X1038538Y659538D01*
X1038979Y659243D01*
X1039500Y659140D01*
X1040021Y659243D01*
X1040462Y659538D01*
X1040757Y659979D01*
X1040860Y660500D01*
X1040757Y661021D01*
X1040462Y661462D01*
X1040021Y661757D01*
X1039500Y661860D01*
D02*
G37*
G36*
X958755Y660967D02*
X958235Y660863D01*
X957794Y660568D01*
X957499Y660127D01*
X957395Y659606D01*
X957499Y659086D01*
X957794Y658644D01*
X958235Y658350D01*
X958755Y658246D01*
X959276Y658350D01*
X959717Y658644D01*
X960012Y659086D01*
X960116Y659606D01*
X960012Y660127D01*
X959717Y660568D01*
X959276Y660863D01*
X958755Y660967D01*
D02*
G37*
G36*
X1064437Y660914D02*
X1063916Y660810D01*
X1063475Y660515D01*
X1063180Y660074D01*
X1063077Y659553D01*
X1063180Y659032D01*
X1063475Y658591D01*
X1063916Y658296D01*
X1064437Y658193D01*
X1064958Y658296D01*
X1065399Y658591D01*
X1065694Y659032D01*
X1065797Y659553D01*
X1065694Y660074D01*
X1065399Y660515D01*
X1064958Y660810D01*
X1064437Y660914D01*
D02*
G37*
G36*
X886700Y660360D02*
X886179Y660257D01*
X885738Y659962D01*
X885443Y659521D01*
X885340Y659000D01*
X885443Y658479D01*
X885738Y658038D01*
X886179Y657743D01*
X886700Y657640D01*
X887221Y657743D01*
X887662Y658038D01*
X887957Y658479D01*
X888060Y659000D01*
X887957Y659521D01*
X887662Y659962D01*
X887221Y660257D01*
X886700Y660360D01*
D02*
G37*
G36*
X1037000Y659860D02*
X1036479Y659757D01*
X1036038Y659462D01*
X1035743Y659021D01*
X1035640Y658500D01*
X1035743Y657979D01*
X1036038Y657538D01*
X1036479Y657243D01*
X1037000Y657140D01*
X1037521Y657243D01*
X1037962Y657538D01*
X1038257Y657979D01*
X1038360Y658500D01*
X1038257Y659021D01*
X1037962Y659462D01*
X1037521Y659757D01*
X1037000Y659860D01*
D02*
G37*
G36*
X950143Y658812D02*
X949623Y658709D01*
X949181Y658414D01*
X948887Y657973D01*
X948783Y657452D01*
X948887Y656931D01*
X949181Y656490D01*
X949623Y656195D01*
X950143Y656092D01*
X950664Y656195D01*
X951105Y656490D01*
X951400Y656931D01*
X951504Y657452D01*
X951400Y657973D01*
X951105Y658414D01*
X950664Y658709D01*
X950143Y658812D01*
D02*
G37*
G36*
X1009159Y658446D02*
X1008638Y658343D01*
X1008197Y658048D01*
X1007902Y657606D01*
X1007799Y657086D01*
X1007902Y656565D01*
X1008197Y656124D01*
X1008638Y655829D01*
X1009159Y655725D01*
X1009680Y655829D01*
X1010121Y656124D01*
X1010416Y656565D01*
X1010520Y657086D01*
X1010416Y657606D01*
X1010121Y658048D01*
X1009680Y658343D01*
X1009159Y658446D01*
D02*
G37*
G36*
X1005500Y658360D02*
X1004979Y658257D01*
X1004538Y657962D01*
X1004243Y657521D01*
X1004140Y657000D01*
X1004243Y656479D01*
X1004538Y656038D01*
X1004979Y655743D01*
X1005500Y655640D01*
X1006021Y655743D01*
X1006462Y656038D01*
X1006757Y656479D01*
X1006860Y657000D01*
X1006757Y657521D01*
X1006462Y657962D01*
X1006021Y658257D01*
X1005500Y658360D01*
D02*
G37*
G36*
X891267Y657260D02*
X890746Y657157D01*
X890304Y656862D01*
X890010Y656421D01*
X889906Y655900D01*
X890010Y655379D01*
X890304Y654938D01*
X890746Y654643D01*
X891267Y654540D01*
X891787Y654643D01*
X892228Y654938D01*
X892523Y655379D01*
X892627Y655900D01*
X892523Y656421D01*
X892228Y656862D01*
X891787Y657157D01*
X891267Y657260D01*
D02*
G37*
G36*
X841452D02*
X840932Y657157D01*
X840490Y656862D01*
X840195Y656421D01*
X840092Y655900D01*
X840195Y655379D01*
X840490Y654938D01*
X840932Y654643D01*
X841452Y654540D01*
X841973Y654643D01*
X842414Y654938D01*
X842709Y655379D01*
X842813Y655900D01*
X842709Y656421D01*
X842414Y656862D01*
X841973Y657157D01*
X841452Y657260D01*
D02*
G37*
G36*
X1029500Y656860D02*
X1028979Y656757D01*
X1028538Y656462D01*
X1028243Y656021D01*
X1028140Y655500D01*
X1028243Y654979D01*
X1028538Y654538D01*
X1028979Y654243D01*
X1029500Y654140D01*
X1030021Y654243D01*
X1030462Y654538D01*
X1030757Y654979D01*
X1030860Y655500D01*
X1030757Y656021D01*
X1030462Y656462D01*
X1030021Y656757D01*
X1029500Y656860D01*
D02*
G37*
G36*
X996987Y656470D02*
X996466Y656367D01*
X996025Y656072D01*
X995730Y655630D01*
X995627Y655110D01*
X995730Y654589D01*
X996025Y654148D01*
X996466Y653853D01*
X996987Y653750D01*
X997508Y653853D01*
X997949Y654148D01*
X998244Y654589D01*
X998347Y655110D01*
X998244Y655630D01*
X997949Y656072D01*
X997508Y656367D01*
X996987Y656470D01*
D02*
G37*
G36*
X1127500Y661328D02*
X1126509Y661197D01*
X1125586Y660815D01*
X1124794Y660207D01*
X1124185Y659414D01*
X1123803Y658491D01*
X1123672Y657500D01*
X1123803Y656509D01*
X1124185Y655586D01*
X1124794Y654794D01*
X1125586Y654185D01*
X1126509Y653803D01*
X1127500Y653672D01*
X1128491Y653803D01*
X1129414Y654185D01*
X1130206Y654794D01*
X1130815Y655586D01*
X1131197Y656509D01*
X1131328Y657500D01*
X1131197Y658491D01*
X1130815Y659414D01*
X1130206Y660207D01*
X1129414Y660815D01*
X1128491Y661197D01*
X1127500Y661328D01*
D02*
G37*
G36*
X1074000Y654360D02*
X1073479Y654257D01*
X1073038Y653962D01*
X1072743Y653521D01*
X1072640Y653000D01*
X1072743Y652479D01*
X1073038Y652038D01*
X1073479Y651743D01*
X1074000Y651640D01*
X1074521Y651743D01*
X1074962Y652038D01*
X1075257Y652479D01*
X1075360Y653000D01*
X1075257Y653521D01*
X1074962Y653962D01*
X1074521Y654257D01*
X1074000Y654360D01*
D02*
G37*
G36*
X960500D02*
X959979Y654257D01*
X959538Y653962D01*
X959243Y653521D01*
X959140Y653000D01*
X959243Y652479D01*
X959538Y652038D01*
X959979Y651743D01*
X960500Y651640D01*
X961021Y651743D01*
X961462Y652038D01*
X961757Y652479D01*
X961860Y653000D01*
X961757Y653521D01*
X961462Y653962D01*
X961021Y654257D01*
X960500Y654360D01*
D02*
G37*
G36*
X915268Y654018D02*
X914747Y653914D01*
X914306Y653619D01*
X914011Y653178D01*
X913907Y652658D01*
X914011Y652137D01*
X914306Y651695D01*
X914747Y651401D01*
X915268Y651297D01*
X915788Y651401D01*
X916230Y651695D01*
X916525Y652137D01*
X916628Y652658D01*
X916525Y653178D01*
X916230Y653619D01*
X915788Y653914D01*
X915268Y654018D01*
D02*
G37*
G36*
X1083000Y653860D02*
X1082479Y653757D01*
X1082038Y653462D01*
X1081743Y653021D01*
X1081640Y652500D01*
X1081743Y651979D01*
X1082038Y651538D01*
X1082479Y651243D01*
X1083000Y651140D01*
X1083521Y651243D01*
X1083962Y651538D01*
X1084257Y651979D01*
X1084360Y652500D01*
X1084257Y653021D01*
X1083962Y653462D01*
X1083521Y653757D01*
X1083000Y653860D01*
D02*
G37*
G36*
X875641Y652832D02*
X875120Y652729D01*
X874679Y652434D01*
X874384Y651992D01*
X874280Y651472D01*
X874384Y650951D01*
X874679Y650510D01*
X875120Y650215D01*
X875641Y650111D01*
X876161Y650215D01*
X876603Y650510D01*
X876898Y650951D01*
X877001Y651472D01*
X876898Y651992D01*
X876603Y652434D01*
X876161Y652729D01*
X875641Y652832D01*
D02*
G37*
G36*
X931114Y651813D02*
X930594Y651710D01*
X930152Y651415D01*
X929858Y650973D01*
X929754Y650453D01*
X929858Y649932D01*
X930152Y649491D01*
X930594Y649196D01*
X931114Y649092D01*
X931635Y649196D01*
X932076Y649491D01*
X932371Y649932D01*
X932475Y650453D01*
X932371Y650973D01*
X932076Y651415D01*
X931635Y651710D01*
X931114Y651813D01*
D02*
G37*
G36*
X950441Y651540D02*
X949920Y651436D01*
X949479Y651142D01*
X949184Y650700D01*
X949081Y650179D01*
X949184Y649659D01*
X949479Y649218D01*
X949920Y648923D01*
X950441Y648819D01*
X950961Y648923D01*
X951403Y649218D01*
X951698Y649659D01*
X951801Y650179D01*
X951698Y650700D01*
X951403Y651142D01*
X950961Y651436D01*
X950441Y651540D01*
D02*
G37*
G36*
X1097500Y651124D02*
X1096979Y651021D01*
X1096538Y650726D01*
X1096243Y650284D01*
X1096140Y649764D01*
X1096243Y649243D01*
X1096538Y648802D01*
X1096979Y648507D01*
X1097500Y648403D01*
X1098021Y648507D01*
X1098462Y648802D01*
X1098757Y649243D01*
X1098860Y649764D01*
X1098757Y650284D01*
X1098462Y650726D01*
X1098021Y651021D01*
X1097500Y651124D01*
D02*
G37*
G36*
X998902Y651093D02*
X998381Y650989D01*
X997940Y650695D01*
X997645Y650253D01*
X997541Y649733D01*
X997645Y649212D01*
X997940Y648771D01*
X998381Y648476D01*
X998902Y648372D01*
X999422Y648476D01*
X999864Y648771D01*
X1000159Y649212D01*
X1000262Y649733D01*
X1000159Y650253D01*
X999864Y650695D01*
X999422Y650989D01*
X998902Y651093D01*
D02*
G37*
G36*
X841452Y651060D02*
X840932Y650957D01*
X840490Y650662D01*
X840195Y650221D01*
X840092Y649700D01*
X840195Y649179D01*
X840490Y648738D01*
X840932Y648443D01*
X841452Y648340D01*
X841973Y648443D01*
X842414Y648738D01*
X842709Y649179D01*
X842813Y649700D01*
X842709Y650221D01*
X842414Y650662D01*
X841973Y650957D01*
X841452Y651060D01*
D02*
G37*
G36*
X954500Y649360D02*
X953979Y649257D01*
X953538Y648962D01*
X953243Y648521D01*
X953140Y648000D01*
X953243Y647479D01*
X953538Y647038D01*
X953979Y646743D01*
X954500Y646640D01*
X955021Y646743D01*
X955462Y647038D01*
X955757Y647479D01*
X955860Y648000D01*
X955757Y648521D01*
X955462Y648962D01*
X955021Y649257D01*
X954500Y649360D01*
D02*
G37*
G36*
X886700Y647960D02*
X886179Y647857D01*
X885738Y647562D01*
X885443Y647121D01*
X885340Y646600D01*
X885443Y646079D01*
X885738Y645638D01*
X886179Y645343D01*
X886700Y645240D01*
X887221Y645343D01*
X887662Y645638D01*
X887957Y646079D01*
X888060Y646600D01*
X887957Y647121D01*
X887662Y647562D01*
X887221Y647857D01*
X886700Y647960D01*
D02*
G37*
G36*
X846250D02*
X845729Y647857D01*
X845288Y647562D01*
X844993Y647121D01*
X844890Y646600D01*
X844993Y646079D01*
X845288Y645638D01*
X845729Y645343D01*
X846250Y645240D01*
X846771Y645343D01*
X847212Y645638D01*
X847507Y646079D01*
X847610Y646600D01*
X847507Y647121D01*
X847212Y647562D01*
X846771Y647857D01*
X846250Y647960D01*
D02*
G37*
G36*
X1053442Y647419D02*
X1052921Y647315D01*
X1052480Y647020D01*
X1052185Y646579D01*
X1052081Y646058D01*
X1052185Y645538D01*
X1052480Y645096D01*
X1052921Y644802D01*
X1053442Y644698D01*
X1053962Y644802D01*
X1054404Y645096D01*
X1054698Y645538D01*
X1054802Y646058D01*
X1054698Y646579D01*
X1054404Y647020D01*
X1053962Y647315D01*
X1053442Y647419D01*
D02*
G37*
G36*
X1102239Y647336D02*
X1101718Y647233D01*
X1101277Y646938D01*
X1100982Y646496D01*
X1100878Y645976D01*
X1100982Y645455D01*
X1101277Y645014D01*
X1101718Y644719D01*
X1102239Y644616D01*
X1102759Y644719D01*
X1103201Y645014D01*
X1103496Y645455D01*
X1103599Y645976D01*
X1103496Y646496D01*
X1103201Y646938D01*
X1102759Y647233D01*
X1102239Y647336D01*
D02*
G37*
G36*
X998902Y646705D02*
X998381Y646601D01*
X997940Y646306D01*
X997645Y645865D01*
X997541Y645344D01*
X997645Y644824D01*
X997940Y644382D01*
X998381Y644087D01*
X998902Y643984D01*
X999422Y644087D01*
X999864Y644382D01*
X1000159Y644824D01*
X1000262Y645344D01*
X1000159Y645865D01*
X999864Y646306D01*
X999422Y646601D01*
X998902Y646705D01*
D02*
G37*
G36*
X891267Y644860D02*
X890746Y644757D01*
X890304Y644462D01*
X890010Y644021D01*
X889906Y643500D01*
X890010Y642979D01*
X890304Y642538D01*
X890746Y642243D01*
X891267Y642140D01*
X891787Y642243D01*
X892228Y642538D01*
X892523Y642979D01*
X892627Y643500D01*
X892523Y644021D01*
X892228Y644462D01*
X891787Y644757D01*
X891267Y644860D01*
D02*
G37*
G36*
X1067331Y644360D02*
X1066810Y644257D01*
X1066369Y643962D01*
X1066074Y643521D01*
X1065970Y643000D01*
X1066074Y642479D01*
X1066369Y642038D01*
X1066810Y641743D01*
X1067331Y641640D01*
X1067851Y641743D01*
X1068293Y642038D01*
X1068588Y642479D01*
X1068691Y643000D01*
X1068588Y643521D01*
X1068293Y643962D01*
X1067851Y644257D01*
X1067331Y644360D01*
D02*
G37*
G36*
X1099500Y643360D02*
X1098979Y643257D01*
X1098538Y642962D01*
X1098243Y642521D01*
X1098140Y642000D01*
X1098243Y641479D01*
X1098538Y641038D01*
X1098979Y640743D01*
X1099500Y640640D01*
X1100021Y640743D01*
X1100462Y641038D01*
X1100757Y641479D01*
X1100860Y642000D01*
X1100757Y642521D01*
X1100462Y642962D01*
X1100021Y643257D01*
X1099500Y643360D01*
D02*
G37*
G36*
X1049605Y643250D02*
X1049084Y643147D01*
X1048643Y642852D01*
X1048348Y642410D01*
X1048245Y641890D01*
X1048348Y641369D01*
X1048643Y640928D01*
X1049084Y640633D01*
X1049605Y640529D01*
X1050126Y640633D01*
X1050567Y640928D01*
X1050862Y641369D01*
X1050965Y641890D01*
X1050862Y642410D01*
X1050567Y642852D01*
X1050126Y643147D01*
X1049605Y643250D01*
D02*
G37*
G36*
X1127500Y647828D02*
X1126509Y647697D01*
X1125586Y647315D01*
X1124794Y646706D01*
X1124185Y645914D01*
X1123803Y644991D01*
X1123672Y644000D01*
X1123803Y643009D01*
X1124185Y642086D01*
X1124794Y641293D01*
X1125586Y640685D01*
X1126509Y640303D01*
X1127500Y640172D01*
X1128491Y640303D01*
X1129414Y640685D01*
X1130206Y641293D01*
X1130815Y642086D01*
X1131197Y643009D01*
X1131328Y644000D01*
X1131197Y644991D01*
X1130815Y645914D01*
X1130206Y646706D01*
X1129414Y647315D01*
X1128491Y647697D01*
X1127500Y647828D01*
D02*
G37*
G36*
X998902Y642512D02*
X998381Y642409D01*
X997940Y642114D01*
X997645Y641673D01*
X997541Y641152D01*
X997645Y640631D01*
X997940Y640190D01*
X998381Y639895D01*
X998902Y639792D01*
X999422Y639895D01*
X999864Y640190D01*
X1000159Y640631D01*
X1000262Y641152D01*
X1000159Y641673D01*
X999864Y642114D01*
X999422Y642409D01*
X998902Y642512D01*
D02*
G37*
G36*
X802000Y641360D02*
X801479Y641257D01*
X801038Y640962D01*
X800743Y640521D01*
X800640Y640000D01*
X800743Y639479D01*
X801038Y639038D01*
X801479Y638743D01*
X802000Y638640D01*
X802521Y638743D01*
X802962Y639038D01*
X803257Y639479D01*
X803360Y640000D01*
X803257Y640521D01*
X802962Y640962D01*
X802521Y641257D01*
X802000Y641360D01*
D02*
G37*
G36*
X966000Y640860D02*
X965479Y640757D01*
X965038Y640462D01*
X964743Y640021D01*
X964640Y639500D01*
X964743Y638979D01*
X965038Y638538D01*
X965479Y638243D01*
X966000Y638140D01*
X966521Y638243D01*
X966962Y638538D01*
X967257Y638979D01*
X967360Y639500D01*
X967257Y640021D01*
X966962Y640462D01*
X966521Y640757D01*
X966000Y640860D01*
D02*
G37*
G36*
X1081000Y640440D02*
X1080479Y640336D01*
X1080038Y640041D01*
X1079743Y639600D01*
X1079640Y639079D01*
X1079743Y638559D01*
X1080038Y638117D01*
X1080479Y637822D01*
X1081000Y637719D01*
X1081521Y637822D01*
X1081962Y638117D01*
X1082257Y638559D01*
X1082360Y639079D01*
X1082257Y639600D01*
X1081962Y640041D01*
X1081521Y640336D01*
X1081000Y640440D01*
D02*
G37*
G36*
X1046000Y639360D02*
X1045479Y639257D01*
X1045038Y638962D01*
X1044743Y638521D01*
X1044640Y638000D01*
X1044743Y637479D01*
X1045038Y637038D01*
X1045479Y636743D01*
X1046000Y636640D01*
X1046521Y636743D01*
X1046962Y637038D01*
X1047257Y637479D01*
X1047360Y638000D01*
X1047257Y638521D01*
X1046962Y638962D01*
X1046521Y639257D01*
X1046000Y639360D01*
D02*
G37*
G36*
X841452Y638660D02*
X840932Y638557D01*
X840490Y638262D01*
X840195Y637821D01*
X840092Y637300D01*
X840195Y636779D01*
X840490Y636338D01*
X840932Y636043D01*
X841452Y635940D01*
X841973Y636043D01*
X842414Y636338D01*
X842709Y636779D01*
X842813Y637300D01*
X842709Y637821D01*
X842414Y638262D01*
X841973Y638557D01*
X841452Y638660D01*
D02*
G37*
G36*
X998902Y638000D02*
X998381Y637896D01*
X997940Y637602D01*
X997645Y637160D01*
X997541Y636640D01*
X997645Y636119D01*
X997940Y635678D01*
X998381Y635383D01*
X998902Y635279D01*
X999422Y635383D01*
X999864Y635678D01*
X1000159Y636119D01*
X1000262Y636640D01*
X1000159Y637160D01*
X999864Y637602D01*
X999422Y637896D01*
X998902Y638000D01*
D02*
G37*
G36*
X1091000Y636860D02*
X1090479Y636757D01*
X1090038Y636462D01*
X1089743Y636021D01*
X1089640Y635500D01*
X1089743Y634979D01*
X1090038Y634538D01*
X1090479Y634243D01*
X1091000Y634140D01*
X1091521Y634243D01*
X1091962Y634538D01*
X1092257Y634979D01*
X1092360Y635500D01*
X1092257Y636021D01*
X1091962Y636462D01*
X1091521Y636757D01*
X1091000Y636860D01*
D02*
G37*
G36*
X886700Y635560D02*
X886179Y635457D01*
X885738Y635162D01*
X885443Y634721D01*
X885340Y634200D01*
X885443Y633679D01*
X885738Y633238D01*
X886179Y632943D01*
X886700Y632840D01*
X887221Y632943D01*
X887662Y633238D01*
X887957Y633679D01*
X888060Y634200D01*
X887957Y634721D01*
X887662Y635162D01*
X887221Y635457D01*
X886700Y635560D01*
D02*
G37*
G36*
X846250D02*
X845729Y635457D01*
X845288Y635162D01*
X844993Y634721D01*
X844890Y634200D01*
X844993Y633679D01*
X845288Y633238D01*
X845729Y632943D01*
X846250Y632840D01*
X846771Y632943D01*
X847212Y633238D01*
X847507Y633679D01*
X847610Y634200D01*
X847507Y634721D01*
X847212Y635162D01*
X846771Y635457D01*
X846250Y635560D01*
D02*
G37*
G36*
X1053442Y635527D02*
X1052921Y635424D01*
X1052480Y635129D01*
X1052185Y634688D01*
X1052081Y634167D01*
X1052185Y633646D01*
X1052480Y633205D01*
X1052921Y632910D01*
X1053442Y632806D01*
X1053962Y632910D01*
X1054404Y633205D01*
X1054698Y633646D01*
X1054802Y634167D01*
X1054698Y634688D01*
X1054404Y635129D01*
X1053962Y635424D01*
X1053442Y635527D01*
D02*
G37*
G36*
X933951Y635510D02*
X933431Y635406D01*
X932989Y635112D01*
X932694Y634670D01*
X932591Y634150D01*
X932694Y633629D01*
X932989Y633188D01*
X933431Y632893D01*
X933951Y632789D01*
X934472Y632893D01*
X934913Y633188D01*
X935208Y633629D01*
X935312Y634150D01*
X935208Y634670D01*
X934913Y635112D01*
X934472Y635406D01*
X933951Y635510D01*
D02*
G37*
G36*
X989383Y633460D02*
X988862Y633356D01*
X988421Y633061D01*
X988126Y632620D01*
X988023Y632099D01*
X988126Y631578D01*
X988421Y631137D01*
X988862Y630842D01*
X989383Y630739D01*
X989904Y630842D01*
X990345Y631137D01*
X990640Y631578D01*
X990743Y632099D01*
X990640Y632620D01*
X990345Y633061D01*
X989904Y633356D01*
X989383Y633460D01*
D02*
G37*
G36*
X998902Y633067D02*
X998381Y632964D01*
X997940Y632669D01*
X997645Y632228D01*
X997541Y631707D01*
X997645Y631186D01*
X997940Y630745D01*
X998381Y630450D01*
X998902Y630347D01*
X999422Y630450D01*
X999864Y630745D01*
X1000159Y631186D01*
X1000262Y631707D01*
X1000159Y632228D01*
X999864Y632669D01*
X999422Y632964D01*
X998902Y633067D01*
D02*
G37*
G36*
X891267Y632526D02*
X890746Y632422D01*
X890304Y632127D01*
X890010Y631686D01*
X889906Y631165D01*
X890010Y630645D01*
X890304Y630203D01*
X890746Y629908D01*
X891267Y629805D01*
X891787Y629908D01*
X892228Y630203D01*
X892523Y630645D01*
X892627Y631165D01*
X892523Y631686D01*
X892228Y632127D01*
X891787Y632422D01*
X891267Y632526D01*
D02*
G37*
G36*
X841452Y632460D02*
X840932Y632357D01*
X840490Y632062D01*
X840195Y631621D01*
X840092Y631100D01*
X840195Y630579D01*
X840490Y630138D01*
X840932Y629843D01*
X841452Y629740D01*
X841973Y629843D01*
X842414Y630138D01*
X842709Y630579D01*
X842813Y631100D01*
X842709Y631621D01*
X842414Y632062D01*
X841973Y632357D01*
X841452Y632460D01*
D02*
G37*
G36*
X1039500Y632360D02*
X1038979Y632257D01*
X1038538Y631962D01*
X1038243Y631521D01*
X1038140Y631000D01*
X1038243Y630479D01*
X1038538Y630038D01*
X1038979Y629743D01*
X1039500Y629640D01*
X1040021Y629743D01*
X1040462Y630038D01*
X1040757Y630479D01*
X1040860Y631000D01*
X1040757Y631521D01*
X1040462Y631962D01*
X1040021Y632257D01*
X1039500Y632360D01*
D02*
G37*
G36*
X1069000Y631360D02*
X1068479Y631257D01*
X1068038Y630962D01*
X1067743Y630521D01*
X1067640Y630000D01*
X1067743Y629479D01*
X1068038Y629038D01*
X1068479Y628743D01*
X1069000Y628640D01*
X1069521Y628743D01*
X1069962Y629038D01*
X1070257Y629479D01*
X1070360Y630000D01*
X1070257Y630521D01*
X1069962Y630962D01*
X1069521Y631257D01*
X1069000Y631360D01*
D02*
G37*
G36*
X1032500Y630360D02*
X1031979Y630257D01*
X1031538Y629962D01*
X1031243Y629521D01*
X1031140Y629000D01*
X1031243Y628479D01*
X1031538Y628038D01*
X1031979Y627743D01*
X1032500Y627640D01*
X1033021Y627743D01*
X1033462Y628038D01*
X1033757Y628479D01*
X1033860Y629000D01*
X1033757Y629521D01*
X1033462Y629962D01*
X1033021Y630257D01*
X1032500Y630360D01*
D02*
G37*
G36*
X1127500Y634328D02*
X1126509Y634197D01*
X1125586Y633815D01*
X1124794Y633207D01*
X1124185Y632414D01*
X1123803Y631491D01*
X1123672Y630500D01*
X1123803Y629509D01*
X1124185Y628586D01*
X1124794Y627794D01*
X1125586Y627185D01*
X1126509Y626803D01*
X1127500Y626672D01*
X1128491Y626803D01*
X1129414Y627185D01*
X1130206Y627794D01*
X1130815Y628586D01*
X1131197Y629509D01*
X1131328Y630500D01*
X1131197Y631491D01*
X1130815Y632414D01*
X1130206Y633207D01*
X1129414Y633815D01*
X1128491Y634197D01*
X1127500Y634328D01*
D02*
G37*
G36*
X886700Y629360D02*
X886179Y629257D01*
X885738Y628962D01*
X885443Y628521D01*
X885340Y628000D01*
X885443Y627479D01*
X885738Y627038D01*
X886179Y626743D01*
X886700Y626640D01*
X887221Y626743D01*
X887662Y627038D01*
X887957Y627479D01*
X888060Y628000D01*
X887957Y628521D01*
X887662Y628962D01*
X887221Y629257D01*
X886700Y629360D01*
D02*
G37*
G36*
X935004Y628414D02*
X934484Y628311D01*
X934042Y628016D01*
X933747Y627574D01*
X933644Y627054D01*
X933747Y626533D01*
X934042Y626092D01*
X934484Y625797D01*
X935004Y625693D01*
X935525Y625797D01*
X935966Y626092D01*
X936261Y626533D01*
X936364Y627054D01*
X936261Y627574D01*
X935966Y628016D01*
X935525Y628311D01*
X935004Y628414D01*
D02*
G37*
G36*
X996972Y626721D02*
X996452Y626617D01*
X996010Y626322D01*
X995716Y625881D01*
X995612Y625360D01*
X995716Y624840D01*
X996010Y624398D01*
X996452Y624103D01*
X996972Y624000D01*
X997493Y624103D01*
X997934Y624398D01*
X998229Y624840D01*
X998333Y625360D01*
X998229Y625881D01*
X997934Y626322D01*
X997493Y626617D01*
X996972Y626721D01*
D02*
G37*
G36*
X841452Y626260D02*
X840932Y626157D01*
X840490Y625862D01*
X840195Y625421D01*
X840092Y624900D01*
X840195Y624379D01*
X840490Y623938D01*
X840932Y623643D01*
X841452Y623540D01*
X841973Y623643D01*
X842414Y623938D01*
X842709Y624379D01*
X842813Y624900D01*
X842709Y625421D01*
X842414Y625862D01*
X841973Y626157D01*
X841452Y626260D01*
D02*
G37*
G36*
X891267Y626195D02*
X890746Y626092D01*
X890304Y625797D01*
X890010Y625355D01*
X889906Y624835D01*
X890010Y624314D01*
X890304Y623873D01*
X890746Y623578D01*
X891267Y623474D01*
X891787Y623578D01*
X892228Y623873D01*
X892523Y624314D01*
X892627Y624835D01*
X892523Y625355D01*
X892228Y625797D01*
X891787Y626092D01*
X891267Y626195D01*
D02*
G37*
G36*
X1067016Y623565D02*
X1066495Y623462D01*
X1066054Y623167D01*
X1065759Y622725D01*
X1065655Y622205D01*
X1065759Y621684D01*
X1066054Y621243D01*
X1066495Y620948D01*
X1067016Y620844D01*
X1067536Y620948D01*
X1067978Y621243D01*
X1068273Y621684D01*
X1068376Y622205D01*
X1068273Y622725D01*
X1067978Y623167D01*
X1067536Y623462D01*
X1067016Y623565D01*
D02*
G37*
G36*
X955260Y623360D02*
X954739Y623257D01*
X954298Y622962D01*
X954003Y622521D01*
X953899Y622000D01*
X954003Y621479D01*
X954298Y621038D01*
X954739Y620743D01*
X955260Y620640D01*
X955780Y620743D01*
X956222Y621038D01*
X956517Y621479D01*
X956620Y622000D01*
X956517Y622521D01*
X956222Y622962D01*
X955780Y623257D01*
X955260Y623360D01*
D02*
G37*
G36*
X886700Y623160D02*
X886179Y623057D01*
X885738Y622762D01*
X885443Y622321D01*
X885340Y621800D01*
X885443Y621279D01*
X885738Y620838D01*
X886179Y620543D01*
X886700Y620440D01*
X887221Y620543D01*
X887662Y620838D01*
X887957Y621279D01*
X888060Y621800D01*
X887957Y622321D01*
X887662Y622762D01*
X887221Y623057D01*
X886700Y623160D01*
D02*
G37*
G36*
X846250D02*
X845729Y623057D01*
X845288Y622762D01*
X844993Y622321D01*
X844890Y621800D01*
X844993Y621279D01*
X845288Y620838D01*
X845729Y620543D01*
X846250Y620440D01*
X846771Y620543D01*
X847212Y620838D01*
X847507Y621279D01*
X847610Y621800D01*
X847507Y622321D01*
X847212Y622762D01*
X846771Y623057D01*
X846250Y623160D01*
D02*
G37*
G36*
X937046Y621912D02*
X936525Y621809D01*
X936084Y621514D01*
X935789Y621073D01*
X935686Y620552D01*
X935789Y620031D01*
X936084Y619590D01*
X936525Y619295D01*
X937046Y619192D01*
X937566Y619295D01*
X938008Y619590D01*
X938303Y620031D01*
X938406Y620552D01*
X938303Y621073D01*
X938008Y621514D01*
X937566Y621809D01*
X937046Y621912D01*
D02*
G37*
G36*
X891267Y620060D02*
X890746Y619957D01*
X890304Y619662D01*
X890010Y619221D01*
X889906Y618700D01*
X890010Y618179D01*
X890304Y617738D01*
X890746Y617443D01*
X891267Y617340D01*
X891787Y617443D01*
X892228Y617738D01*
X892523Y618179D01*
X892627Y618700D01*
X892523Y619221D01*
X892228Y619662D01*
X891787Y619957D01*
X891267Y620060D01*
D02*
G37*
G36*
X841452D02*
X840932Y619957D01*
X840490Y619662D01*
X840195Y619221D01*
X840092Y618700D01*
X840195Y618179D01*
X840490Y617738D01*
X840932Y617443D01*
X841452Y617340D01*
X841973Y617443D01*
X842414Y617738D01*
X842709Y618179D01*
X842813Y618700D01*
X842709Y619221D01*
X842414Y619662D01*
X841973Y619957D01*
X841452Y620060D01*
D02*
G37*
G36*
X993365Y619360D02*
X992845Y619257D01*
X992403Y618962D01*
X992109Y618521D01*
X992005Y618000D01*
X992109Y617479D01*
X992403Y617038D01*
X992845Y616743D01*
X993365Y616640D01*
X993886Y616743D01*
X994327Y617038D01*
X994622Y617479D01*
X994726Y618000D01*
X994622Y618521D01*
X994327Y618962D01*
X993886Y619257D01*
X993365Y619360D01*
D02*
G37*
G36*
X1115000Y618329D02*
X1114479Y618225D01*
X1114038Y617930D01*
X1113743Y617489D01*
X1113640Y616968D01*
X1113743Y616448D01*
X1114038Y616007D01*
X1114479Y615712D01*
X1115000Y615608D01*
X1115521Y615712D01*
X1115962Y616007D01*
X1116257Y616448D01*
X1116360Y616968D01*
X1116257Y617489D01*
X1115962Y617930D01*
X1115521Y618225D01*
X1115000Y618329D01*
D02*
G37*
G36*
X886700Y616960D02*
X886179Y616857D01*
X885738Y616562D01*
X885443Y616121D01*
X885340Y615600D01*
X885443Y615079D01*
X885738Y614638D01*
X886179Y614343D01*
X886700Y614240D01*
X887221Y614343D01*
X887662Y614638D01*
X887957Y615079D01*
X888060Y615600D01*
X887957Y616121D01*
X887662Y616562D01*
X887221Y616857D01*
X886700Y616960D01*
D02*
G37*
G36*
X846250D02*
X845729Y616857D01*
X845288Y616562D01*
X844993Y616121D01*
X844890Y615600D01*
X844993Y615079D01*
X845288Y614638D01*
X845729Y614343D01*
X846250Y614240D01*
X846771Y614343D01*
X847212Y614638D01*
X847507Y615079D01*
X847610Y615600D01*
X847507Y616121D01*
X847212Y616562D01*
X846771Y616857D01*
X846250Y616960D01*
D02*
G37*
G36*
X1127500Y620828D02*
X1126509Y620697D01*
X1125586Y620315D01*
X1124794Y619706D01*
X1124185Y618914D01*
X1123803Y617991D01*
X1123672Y617000D01*
X1123803Y616009D01*
X1124185Y615086D01*
X1124794Y614293D01*
X1125586Y613685D01*
X1126509Y613303D01*
X1127500Y613172D01*
X1128491Y613303D01*
X1129414Y613685D01*
X1130206Y614293D01*
X1130815Y615086D01*
X1131197Y616009D01*
X1131328Y617000D01*
X1131197Y617991D01*
X1130815Y618914D01*
X1130206Y619706D01*
X1129414Y620315D01*
X1128491Y620697D01*
X1127500Y620828D01*
D02*
G37*
G36*
X1015000Y615860D02*
X1014479Y615757D01*
X1014038Y615462D01*
X1013743Y615021D01*
X1013640Y614500D01*
X1013743Y613979D01*
X1014038Y613538D01*
X1014479Y613243D01*
X1015000Y613140D01*
X1015521Y613243D01*
X1015962Y613538D01*
X1016257Y613979D01*
X1016360Y614500D01*
X1016257Y615021D01*
X1015962Y615462D01*
X1015521Y615757D01*
X1015000Y615860D01*
D02*
G37*
G36*
X1078618Y615183D02*
X1078098Y615080D01*
X1077656Y614785D01*
X1077361Y614343D01*
X1077258Y613823D01*
X1077361Y613302D01*
X1077656Y612861D01*
X1078098Y612566D01*
X1078618Y612462D01*
X1079139Y612566D01*
X1079580Y612861D01*
X1079875Y613302D01*
X1079978Y613823D01*
X1079875Y614343D01*
X1079580Y614785D01*
X1079139Y615080D01*
X1078618Y615183D01*
D02*
G37*
G36*
X891267Y613860D02*
X890746Y613757D01*
X890304Y613462D01*
X890010Y613021D01*
X889906Y612500D01*
X890010Y611979D01*
X890304Y611538D01*
X890746Y611243D01*
X891267Y611140D01*
X891787Y611243D01*
X892228Y611538D01*
X892523Y611979D01*
X892627Y612500D01*
X892523Y613021D01*
X892228Y613462D01*
X891787Y613757D01*
X891267Y613860D01*
D02*
G37*
G36*
X841452D02*
X840932Y613757D01*
X840490Y613462D01*
X840195Y613021D01*
X840092Y612500D01*
X840195Y611979D01*
X840490Y611538D01*
X840932Y611243D01*
X841452Y611140D01*
X841973Y611243D01*
X842414Y611538D01*
X842709Y611979D01*
X842813Y612500D01*
X842709Y613021D01*
X842414Y613462D01*
X841973Y613757D01*
X841452Y613860D01*
D02*
G37*
G36*
X1050122Y611754D02*
X1049601Y611651D01*
X1049160Y611356D01*
X1048865Y610914D01*
X1048762Y610394D01*
X1048865Y609873D01*
X1049160Y609432D01*
X1049601Y609137D01*
X1050122Y609033D01*
X1050643Y609137D01*
X1051084Y609432D01*
X1051379Y609873D01*
X1051482Y610394D01*
X1051379Y610914D01*
X1051084Y611356D01*
X1050643Y611651D01*
X1050122Y611754D01*
D02*
G37*
G36*
X886700Y610760D02*
X886179Y610657D01*
X885738Y610362D01*
X885443Y609921D01*
X885340Y609400D01*
X885443Y608879D01*
X885738Y608438D01*
X886179Y608143D01*
X886700Y608040D01*
X887221Y608143D01*
X887662Y608438D01*
X887957Y608879D01*
X888060Y609400D01*
X887957Y609921D01*
X887662Y610362D01*
X887221Y610657D01*
X886700Y610760D01*
D02*
G37*
G36*
X846250D02*
X845729Y610657D01*
X845288Y610362D01*
X844993Y609921D01*
X844890Y609400D01*
X844993Y608879D01*
X845288Y608438D01*
X845729Y608143D01*
X846250Y608040D01*
X846771Y608143D01*
X847212Y608438D01*
X847507Y608879D01*
X847610Y609400D01*
X847507Y609921D01*
X847212Y610362D01*
X846771Y610657D01*
X846250Y610760D01*
D02*
G37*
G36*
X989050Y609833D02*
X988530Y609730D01*
X988088Y609435D01*
X987793Y608993D01*
X987690Y608473D01*
X987793Y607952D01*
X988088Y607511D01*
X988530Y607216D01*
X989050Y607112D01*
X989571Y607216D01*
X990012Y607511D01*
X990307Y607952D01*
X990411Y608473D01*
X990307Y608993D01*
X990012Y609435D01*
X989571Y609730D01*
X989050Y609833D01*
D02*
G37*
G36*
X982831Y609786D02*
X982311Y609682D01*
X981870Y609387D01*
X981575Y608946D01*
X981471Y608425D01*
X981575Y607905D01*
X981870Y607463D01*
X982311Y607168D01*
X982831Y607065D01*
X983352Y607168D01*
X983794Y607463D01*
X984088Y607905D01*
X984192Y608425D01*
X984088Y608946D01*
X983794Y609387D01*
X983352Y609682D01*
X982831Y609786D01*
D02*
G37*
G36*
X1067592Y608108D02*
X1067072Y608005D01*
X1066630Y607710D01*
X1066335Y607268D01*
X1066232Y606748D01*
X1066335Y606227D01*
X1066630Y605786D01*
X1067072Y605491D01*
X1067592Y605387D01*
X1068113Y605491D01*
X1068554Y605786D01*
X1068849Y606227D01*
X1068952Y606748D01*
X1068849Y607268D01*
X1068554Y607710D01*
X1068113Y608005D01*
X1067592Y608108D01*
D02*
G37*
G36*
X891267Y607660D02*
X890746Y607557D01*
X890304Y607262D01*
X890010Y606821D01*
X889906Y606300D01*
X890010Y605779D01*
X890304Y605338D01*
X890746Y605043D01*
X891267Y604940D01*
X891787Y605043D01*
X892228Y605338D01*
X892523Y605779D01*
X892627Y606300D01*
X892523Y606821D01*
X892228Y607262D01*
X891787Y607557D01*
X891267Y607660D01*
D02*
G37*
G36*
X841452Y607632D02*
X840932Y607529D01*
X840490Y607234D01*
X840195Y606793D01*
X840092Y606272D01*
X840195Y605752D01*
X840490Y605310D01*
X840932Y605015D01*
X841452Y604912D01*
X841973Y605015D01*
X842414Y605310D01*
X842709Y605752D01*
X842813Y606272D01*
X842709Y606793D01*
X842414Y607234D01*
X841973Y607529D01*
X841452Y607632D01*
D02*
G37*
G36*
X939140Y607342D02*
X938619Y607238D01*
X938178Y606944D01*
X937883Y606502D01*
X937779Y605981D01*
X937883Y605461D01*
X938178Y605020D01*
X938619Y604725D01*
X939140Y604621D01*
X939660Y604725D01*
X940102Y605020D01*
X940397Y605461D01*
X940500Y605981D01*
X940397Y606502D01*
X940102Y606944D01*
X939660Y607238D01*
X939140Y607342D01*
D02*
G37*
G36*
X1121500Y607002D02*
X1120979Y606899D01*
X1120538Y606604D01*
X1120243Y606162D01*
X1120140Y605642D01*
X1120243Y605121D01*
X1120538Y604680D01*
X1120979Y604385D01*
X1121500Y604281D01*
X1122021Y604385D01*
X1122462Y604680D01*
X1122757Y605121D01*
X1122860Y605642D01*
X1122757Y606162D01*
X1122462Y606604D01*
X1122021Y606899D01*
X1121500Y607002D01*
D02*
G37*
G36*
X1033454Y606315D02*
X1032934Y606211D01*
X1032492Y605916D01*
X1032197Y605475D01*
X1032094Y604954D01*
X1032197Y604433D01*
X1032492Y603992D01*
X1032934Y603697D01*
X1033454Y603594D01*
X1033975Y603697D01*
X1034416Y603992D01*
X1034711Y604433D01*
X1034814Y604954D01*
X1034711Y605475D01*
X1034416Y605916D01*
X1033975Y606211D01*
X1033454Y606315D01*
D02*
G37*
G36*
X1054188Y606037D02*
X1053668Y605933D01*
X1053226Y605639D01*
X1052932Y605197D01*
X1052828Y604677D01*
X1052932Y604156D01*
X1053226Y603715D01*
X1053668Y603420D01*
X1054188Y603316D01*
X1054709Y603420D01*
X1055150Y603715D01*
X1055445Y604156D01*
X1055549Y604677D01*
X1055445Y605197D01*
X1055150Y605639D01*
X1054709Y605933D01*
X1054188Y606037D01*
D02*
G37*
G36*
X1077366Y605847D02*
X1076846Y605744D01*
X1076404Y605449D01*
X1076110Y605007D01*
X1076006Y604487D01*
X1076110Y603966D01*
X1076404Y603525D01*
X1076846Y603230D01*
X1077366Y603126D01*
X1077887Y603230D01*
X1078328Y603525D01*
X1078623Y603966D01*
X1078727Y604487D01*
X1078623Y605007D01*
X1078328Y605449D01*
X1077887Y605744D01*
X1077366Y605847D01*
D02*
G37*
G36*
X963415Y605627D02*
X962894Y605524D01*
X962453Y605229D01*
X962158Y604787D01*
X962054Y604267D01*
X962158Y603746D01*
X962453Y603305D01*
X962894Y603010D01*
X963415Y602907D01*
X963935Y603010D01*
X964377Y603305D01*
X964672Y603746D01*
X964775Y604267D01*
X964672Y604787D01*
X964377Y605229D01*
X963935Y605524D01*
X963415Y605627D01*
D02*
G37*
G36*
X886700Y604560D02*
X886179Y604457D01*
X885738Y604162D01*
X885443Y603721D01*
X885340Y603200D01*
X885443Y602679D01*
X885738Y602238D01*
X886179Y601943D01*
X886700Y601840D01*
X887221Y601943D01*
X887662Y602238D01*
X887957Y602679D01*
X888060Y603200D01*
X887957Y603721D01*
X887662Y604162D01*
X887221Y604457D01*
X886700Y604560D01*
D02*
G37*
G36*
X1031500Y602908D02*
X1030979Y602804D01*
X1030538Y602509D01*
X1030243Y602068D01*
X1030140Y601547D01*
X1030243Y601027D01*
X1030538Y600586D01*
X1030979Y600291D01*
X1031500Y600187D01*
X1032021Y600291D01*
X1032462Y600586D01*
X1032757Y601027D01*
X1032860Y601547D01*
X1032757Y602068D01*
X1032462Y602509D01*
X1032021Y602804D01*
X1031500Y602908D01*
D02*
G37*
G36*
X1011500Y602360D02*
X1010979Y602257D01*
X1010538Y601962D01*
X1010243Y601521D01*
X1010140Y601000D01*
X1010243Y600479D01*
X1010538Y600038D01*
X1010979Y599743D01*
X1011500Y599640D01*
X1012021Y599743D01*
X1012462Y600038D01*
X1012757Y600479D01*
X1012860Y601000D01*
X1012757Y601521D01*
X1012462Y601962D01*
X1012021Y602257D01*
X1011500Y602360D01*
D02*
G37*
G36*
X1020595Y599860D02*
X1020074Y599757D01*
X1019633Y599462D01*
X1019338Y599021D01*
X1019301Y598834D01*
X1018791D01*
X1018757Y599005D01*
X1018462Y599446D01*
X1018021Y599741D01*
X1017500Y599845D01*
X1016979Y599741D01*
X1016538Y599446D01*
X1016243Y599005D01*
X1016140Y598484D01*
X1016243Y597964D01*
X1016538Y597522D01*
X1016979Y597227D01*
X1017500Y597124D01*
X1018021Y597227D01*
X1018462Y597522D01*
X1018757Y597964D01*
X1018794Y598150D01*
X1019304D01*
X1019338Y597979D01*
X1019633Y597538D01*
X1020074Y597243D01*
X1020595Y597140D01*
X1021115Y597243D01*
X1021556Y597538D01*
X1021851Y597979D01*
X1021955Y598500D01*
X1021851Y599021D01*
X1021556Y599462D01*
X1021115Y599757D01*
X1020595Y599860D01*
D02*
G37*
G36*
X985161Y601023D02*
X984641Y600920D01*
X984200Y600625D01*
X983905Y600183D01*
X983801Y599663D01*
X983905Y599142D01*
X984200Y598701D01*
X984641Y598406D01*
X985161Y598302D01*
X985682Y598406D01*
X986123Y598701D01*
X986418Y599142D01*
X986522Y599663D01*
X986418Y600183D01*
X986123Y600625D01*
X985682Y600920D01*
X985161Y601023D01*
D02*
G37*
G36*
X1028500Y599860D02*
X1027979Y599757D01*
X1027538Y599462D01*
X1027243Y599021D01*
X1027140Y598500D01*
X1027243Y597979D01*
X1027538Y597538D01*
X1027979Y597243D01*
X1028500Y597140D01*
X1029021Y597243D01*
X1029462Y597538D01*
X1029757Y597979D01*
X1029860Y598500D01*
X1029757Y599021D01*
X1029462Y599462D01*
X1029021Y599757D01*
X1028500Y599860D01*
D02*
G37*
G36*
X1024713D02*
X1024192Y599757D01*
X1023751Y599462D01*
X1023456Y599021D01*
X1023353Y598500D01*
X1023456Y597979D01*
X1023751Y597538D01*
X1024192Y597243D01*
X1024713Y597140D01*
X1025234Y597243D01*
X1025675Y597538D01*
X1025970Y597979D01*
X1026073Y598500D01*
X1025970Y599021D01*
X1025675Y599462D01*
X1025234Y599757D01*
X1024713Y599860D01*
D02*
G37*
G36*
X1120643Y594411D02*
X1120122Y594308D01*
X1119681Y594013D01*
X1119386Y593571D01*
X1119282Y593051D01*
X1119386Y592530D01*
X1119681Y592089D01*
X1120122Y591794D01*
X1120643Y591690D01*
X1121163Y591794D01*
X1121605Y592089D01*
X1121900Y592530D01*
X1122003Y593051D01*
X1121900Y593571D01*
X1121605Y594013D01*
X1121163Y594308D01*
X1120643Y594411D01*
D02*
G37*
G36*
X1111000Y590821D02*
X1110479Y590718D01*
X1110038Y590423D01*
X1109743Y589981D01*
X1109640Y589461D01*
X1109743Y588940D01*
X1110038Y588499D01*
X1110479Y588204D01*
X1111000Y588100D01*
X1111521Y588204D01*
X1111962Y588499D01*
X1112257Y588940D01*
X1112360Y589461D01*
X1112257Y589981D01*
X1111962Y590423D01*
X1111521Y590718D01*
X1111000Y590821D01*
D02*
G37*
G36*
X936427Y590645D02*
X935907Y590541D01*
X935466Y590246D01*
X935171Y589805D01*
X935067Y589284D01*
X935171Y588764D01*
X935466Y588322D01*
X935907Y588027D01*
X936427Y587924D01*
X936948Y588027D01*
X937389Y588322D01*
X937684Y588764D01*
X937788Y589284D01*
X937684Y589805D01*
X937389Y590246D01*
X936948Y590541D01*
X936427Y590645D01*
D02*
G37*
G36*
X929500D02*
X928979Y590541D01*
X928538Y590246D01*
X928243Y589805D01*
X928140Y589284D01*
X928243Y588764D01*
X928538Y588322D01*
X928979Y588027D01*
X929500Y587924D01*
X930021Y588027D01*
X930462Y588322D01*
X930757Y588764D01*
X930860Y589284D01*
X930757Y589805D01*
X930462Y590246D01*
X930021Y590541D01*
X929500Y590645D01*
D02*
G37*
G36*
X1049962Y589858D02*
X1049442Y589755D01*
X1049000Y589460D01*
X1048705Y589019D01*
X1048602Y588498D01*
X1048705Y587977D01*
X1049000Y587536D01*
X1049442Y587241D01*
X1049962Y587138D01*
X1050483Y587241D01*
X1050924Y587536D01*
X1051219Y587977D01*
X1051323Y588498D01*
X1051219Y589019D01*
X1050924Y589460D01*
X1050483Y589755D01*
X1049962Y589858D01*
D02*
G37*
G36*
X993770Y588860D02*
X993250Y588757D01*
X992808Y588462D01*
X992513Y588021D01*
X992410Y587500D01*
X992513Y586979D01*
X992808Y586538D01*
X993250Y586243D01*
X993770Y586140D01*
X994291Y586243D01*
X994732Y586538D01*
X995027Y586979D01*
X995131Y587500D01*
X995027Y588021D01*
X994732Y588462D01*
X994291Y588757D01*
X993770Y588860D01*
D02*
G37*
G36*
X793500Y595022D02*
X792291Y594863D01*
X791164Y594396D01*
X790197Y593654D01*
X789454Y592686D01*
X788988Y591560D01*
X788829Y590350D01*
X788988Y589141D01*
X789454Y588015D01*
X790197Y587047D01*
X791164Y586305D01*
X792291Y585838D01*
X793500Y585679D01*
X794709Y585838D01*
X795836Y586305D01*
X796803Y587047D01*
X797546Y588015D01*
X798012Y589141D01*
X798172Y590350D01*
X798012Y591560D01*
X797546Y592686D01*
X796803Y593654D01*
X795836Y594396D01*
X794709Y594863D01*
X793500Y595022D01*
D02*
G37*
G36*
X1089000Y588124D02*
X1088479Y588021D01*
X1088038Y587726D01*
X1087743Y587284D01*
X1087640Y586764D01*
X1087743Y586243D01*
X1088038Y585802D01*
X1088479Y585507D01*
X1089000Y585403D01*
X1089521Y585507D01*
X1089962Y585802D01*
X1090257Y586243D01*
X1090360Y586764D01*
X1090257Y587284D01*
X1089962Y587726D01*
X1089521Y588021D01*
X1089000Y588124D01*
D02*
G37*
G36*
X999000Y585860D02*
X998479Y585757D01*
X998038Y585462D01*
X997743Y585021D01*
X997640Y584500D01*
X997743Y583979D01*
X998038Y583538D01*
X998479Y583243D01*
X999000Y583140D01*
X999521Y583243D01*
X999962Y583538D01*
X1000257Y583979D01*
X1000360Y584500D01*
X1000257Y585021D01*
X999962Y585462D01*
X999521Y585757D01*
X999000Y585860D01*
D02*
G37*
G36*
X1061000Y584860D02*
X1060479Y584757D01*
X1060038Y584462D01*
X1059743Y584021D01*
X1059640Y583500D01*
X1059743Y582979D01*
X1060038Y582538D01*
X1060479Y582243D01*
X1061000Y582140D01*
X1061521Y582243D01*
X1061962Y582538D01*
X1062257Y582979D01*
X1062360Y583500D01*
X1062257Y584021D01*
X1061962Y584462D01*
X1061521Y584757D01*
X1061000Y584860D01*
D02*
G37*
G36*
X1041224Y578360D02*
X1040704Y578257D01*
X1040263Y577962D01*
X1039968Y577521D01*
X1039864Y577000D01*
X1039968Y576479D01*
X1040263Y576038D01*
X1040704Y575743D01*
X1041224Y575640D01*
X1041745Y575743D01*
X1042186Y576038D01*
X1042481Y576479D01*
X1042585Y577000D01*
X1042481Y577521D01*
X1042186Y577962D01*
X1041745Y578257D01*
X1041224Y578360D01*
D02*
G37*
G36*
X1036421D02*
X1035901Y578257D01*
X1035459Y577962D01*
X1035164Y577521D01*
X1035061Y577000D01*
X1035164Y576479D01*
X1035459Y576038D01*
X1035901Y575743D01*
X1036421Y575640D01*
X1036942Y575743D01*
X1037383Y576038D01*
X1037678Y576479D01*
X1037782Y577000D01*
X1037678Y577521D01*
X1037383Y577962D01*
X1036942Y578257D01*
X1036421Y578360D01*
D02*
G37*
G36*
X939976D02*
X939456Y578257D01*
X939014Y577962D01*
X938719Y577521D01*
X938616Y577000D01*
X938719Y576479D01*
X939014Y576038D01*
X939456Y575743D01*
X939976Y575640D01*
X940497Y575743D01*
X940938Y576038D01*
X941233Y576479D01*
X941337Y577000D01*
X941233Y577521D01*
X940938Y577962D01*
X940497Y578257D01*
X939976Y578360D01*
D02*
G37*
G36*
X891500Y575498D02*
X890979Y575395D01*
X890538Y575100D01*
X890243Y574658D01*
X890140Y574138D01*
X890243Y573617D01*
X890538Y573176D01*
X890979Y572881D01*
X891500Y572777D01*
X892021Y572881D01*
X892462Y573176D01*
X892757Y573617D01*
X892860Y574138D01*
X892757Y574658D01*
X892462Y575100D01*
X892021Y575395D01*
X891500Y575498D01*
D02*
G37*
G36*
X1032780Y572360D02*
X1032259Y572257D01*
X1031818Y571962D01*
X1031523Y571521D01*
X1031419Y571000D01*
X1031523Y570479D01*
X1031818Y570038D01*
X1032259Y569743D01*
X1032780Y569640D01*
X1033300Y569743D01*
X1033741Y570038D01*
X1034036Y570479D01*
X1034140Y571000D01*
X1034036Y571521D01*
X1033741Y571962D01*
X1033300Y572257D01*
X1032780Y572360D01*
D02*
G37*
G36*
X1022843D02*
X1022322Y572257D01*
X1021881Y571962D01*
X1021586Y571521D01*
X1021482Y571000D01*
X1021586Y570479D01*
X1021881Y570038D01*
X1022322Y569743D01*
X1022843Y569640D01*
X1023363Y569743D01*
X1023804Y570038D01*
X1024099Y570479D01*
X1024203Y571000D01*
X1024099Y571521D01*
X1023804Y571962D01*
X1023363Y572257D01*
X1022843Y572360D01*
D02*
G37*
G36*
X1016158D02*
X1015637Y572257D01*
X1015195Y571962D01*
X1014901Y571521D01*
X1014797Y571000D01*
X1014901Y570479D01*
X1015195Y570038D01*
X1015637Y569743D01*
X1016158Y569640D01*
X1016678Y569743D01*
X1017119Y570038D01*
X1017414Y570479D01*
X1017518Y571000D01*
X1017414Y571521D01*
X1017119Y571962D01*
X1016678Y572257D01*
X1016158Y572360D01*
D02*
G37*
G36*
X987842D02*
X987322Y572257D01*
X986881Y571962D01*
X986586Y571521D01*
X986482Y571000D01*
X986586Y570479D01*
X986881Y570038D01*
X987322Y569743D01*
X987842Y569640D01*
X988363Y569743D01*
X988805Y570038D01*
X989099Y570479D01*
X989203Y571000D01*
X989099Y571521D01*
X988805Y571962D01*
X988363Y572257D01*
X987842Y572360D01*
D02*
G37*
G36*
X965343D02*
X964822Y572257D01*
X964381Y571962D01*
X964086Y571521D01*
X963982Y571000D01*
X964086Y570479D01*
X964381Y570038D01*
X964822Y569743D01*
X965343Y569640D01*
X965863Y569743D01*
X966304Y570038D01*
X966599Y570479D01*
X966703Y571000D01*
X966599Y571521D01*
X966304Y571962D01*
X965863Y572257D01*
X965343Y572360D01*
D02*
G37*
G36*
X936728Y572333D02*
X936208Y572229D01*
X935766Y571934D01*
X935472Y571493D01*
X935368Y570972D01*
X935472Y570452D01*
X935766Y570011D01*
X936208Y569716D01*
X936728Y569612D01*
X937249Y569716D01*
X937690Y570011D01*
X937985Y570452D01*
X938089Y570972D01*
X937985Y571493D01*
X937690Y571934D01*
X937249Y572229D01*
X936728Y572333D01*
D02*
G37*
G36*
X1041174Y572310D02*
X1040653Y572206D01*
X1040212Y571911D01*
X1039917Y571470D01*
X1039813Y570949D01*
X1039917Y570429D01*
X1040212Y569987D01*
X1040653Y569692D01*
X1041174Y569589D01*
X1041694Y569692D01*
X1042136Y569987D01*
X1042430Y570429D01*
X1042534Y570949D01*
X1042430Y571470D01*
X1042136Y571911D01*
X1041694Y572206D01*
X1041174Y572310D01*
D02*
G37*
G36*
X891500Y566223D02*
X890979Y566119D01*
X890538Y565824D01*
X890243Y565383D01*
X890140Y564862D01*
X890243Y564342D01*
X890538Y563900D01*
X890979Y563605D01*
X891500Y563502D01*
X892021Y563605D01*
X892462Y563900D01*
X892757Y564342D01*
X892860Y564862D01*
X892757Y565383D01*
X892462Y565824D01*
X892021Y566119D01*
X891500Y566223D01*
D02*
G37*
G36*
X876500Y571052D02*
X875509Y570922D01*
X874586Y570539D01*
X873793Y569931D01*
X873185Y569138D01*
X872803Y568215D01*
X872672Y567224D01*
X872803Y566234D01*
X873185Y565311D01*
X873793Y564518D01*
X874586Y563910D01*
X875509Y563527D01*
X876500Y563397D01*
X877491Y563527D01*
X878414Y563910D01*
X879206Y564518D01*
X879815Y565311D01*
X880197Y566234D01*
X880328Y567224D01*
X880197Y568215D01*
X879815Y569138D01*
X879206Y569931D01*
X878414Y570539D01*
X877491Y570922D01*
X876500Y571052D01*
D02*
G37*
G36*
X862500D02*
X861509Y570922D01*
X860586Y570539D01*
X859793Y569931D01*
X859185Y569138D01*
X858803Y568215D01*
X858672Y567224D01*
X858803Y566234D01*
X859185Y565311D01*
X859793Y564518D01*
X860586Y563910D01*
X861509Y563527D01*
X862500Y563397D01*
X863491Y563527D01*
X864414Y563910D01*
X865207Y564518D01*
X865815Y565311D01*
X866197Y566234D01*
X866328Y567224D01*
X866197Y568215D01*
X865815Y569138D01*
X865207Y569931D01*
X864414Y570539D01*
X863491Y570922D01*
X862500Y571052D01*
D02*
G37*
G36*
X992862Y565360D02*
X992342Y565257D01*
X991900Y564962D01*
X991605Y564521D01*
X991502Y564000D01*
X991605Y563479D01*
X991900Y563038D01*
X992342Y562743D01*
X992862Y562640D01*
X993383Y562743D01*
X993824Y563038D01*
X994119Y563479D01*
X994223Y564000D01*
X994119Y564521D01*
X993824Y564962D01*
X993383Y565257D01*
X992862Y565360D01*
D02*
G37*
G36*
X1002500Y560860D02*
X1001979Y560757D01*
X1001538Y560462D01*
X1001243Y560021D01*
X1001140Y559500D01*
X1001243Y558979D01*
X1001538Y558538D01*
X1001979Y558243D01*
X1002500Y558140D01*
X1003021Y558243D01*
X1003462Y558538D01*
X1003757Y558979D01*
X1003860Y559500D01*
X1003757Y560021D01*
X1003462Y560462D01*
X1003021Y560757D01*
X1002500Y560860D01*
D02*
G37*
G36*
X817000Y559360D02*
X816479Y559257D01*
X816038Y558962D01*
X815743Y558521D01*
X815640Y558000D01*
X815743Y557479D01*
X816038Y557038D01*
X816479Y556743D01*
X817000Y556640D01*
X817521Y556743D01*
X817962Y557038D01*
X818257Y557479D01*
X818360Y558000D01*
X818257Y558521D01*
X817962Y558962D01*
X817521Y559257D01*
X817000Y559360D01*
D02*
G37*
G36*
X798323Y556101D02*
X797802Y555997D01*
X797361Y555702D01*
X797066Y555261D01*
X796962Y554740D01*
X797066Y554220D01*
X797361Y553778D01*
X797802Y553483D01*
X798323Y553380D01*
X798843Y553483D01*
X799285Y553778D01*
X799580Y554220D01*
X799683Y554740D01*
X799580Y555261D01*
X799285Y555702D01*
X798843Y555997D01*
X798323Y556101D01*
D02*
G37*
G36*
X953665Y556000D02*
X953145Y555896D01*
X952703Y555601D01*
X952409Y555160D01*
X952305Y554639D01*
X952409Y554119D01*
X952703Y553677D01*
X953145Y553382D01*
X953665Y553279D01*
X954186Y553382D01*
X954627Y553677D01*
X954922Y554119D01*
X955026Y554639D01*
X954922Y555160D01*
X954627Y555601D01*
X954186Y555896D01*
X953665Y556000D01*
D02*
G37*
G36*
X793000Y554230D02*
X792479Y554127D01*
X792038Y553832D01*
X791743Y553391D01*
X791640Y552870D01*
X791743Y552350D01*
X792038Y551908D01*
X792479Y551613D01*
X793000Y551510D01*
X793521Y551613D01*
X793962Y551908D01*
X794257Y552350D01*
X794360Y552870D01*
X794257Y553391D01*
X793962Y553832D01*
X793521Y554127D01*
X793000Y554230D01*
D02*
G37*
G36*
X1021500Y553860D02*
X1020979Y553757D01*
X1020538Y553462D01*
X1020243Y553021D01*
X1020140Y552500D01*
X1020243Y551979D01*
X1020538Y551538D01*
X1020979Y551243D01*
X1021500Y551140D01*
X1022021Y551243D01*
X1022462Y551538D01*
X1022757Y551979D01*
X1022860Y552500D01*
X1022757Y553021D01*
X1022462Y553462D01*
X1022021Y553757D01*
X1021500Y553860D01*
D02*
G37*
G36*
X964584Y550360D02*
X964063Y550257D01*
X963622Y549962D01*
X963327Y549521D01*
X963223Y549000D01*
X963327Y548479D01*
X963622Y548038D01*
X964063Y547743D01*
X964584Y547640D01*
X965104Y547743D01*
X965546Y548038D01*
X965841Y548479D01*
X965944Y549000D01*
X965841Y549521D01*
X965546Y549962D01*
X965104Y550257D01*
X964584Y550360D01*
D02*
G37*
G36*
X960752Y545557D02*
X960231Y545454D01*
X959790Y545159D01*
X959495Y544718D01*
X959392Y544197D01*
X959495Y543676D01*
X959790Y543235D01*
X960231Y542940D01*
X960752Y542837D01*
X961273Y542940D01*
X961714Y543235D01*
X962009Y543676D01*
X962112Y544197D01*
X962009Y544718D01*
X961714Y545159D01*
X961273Y545454D01*
X960752Y545557D01*
D02*
G37*
G36*
X814406Y548362D02*
X813569Y548252D01*
X812790Y547929D01*
X812120Y547415D01*
X811607Y546746D01*
X811284Y545966D01*
X811174Y545130D01*
X811284Y544293D01*
X811607Y543514D01*
X812120Y542845D01*
X812790Y542331D01*
X813569Y542008D01*
X814406Y541898D01*
X815242Y542008D01*
X816022Y542331D01*
X816691Y542845D01*
X817204Y543514D01*
X817527Y544293D01*
X817638Y545130D01*
X817527Y545966D01*
X817204Y546746D01*
X816691Y547415D01*
X816022Y547929D01*
X815242Y548252D01*
X814406Y548362D01*
D02*
G37*
G36*
X794721D02*
X793884Y548252D01*
X793105Y547929D01*
X792435Y547415D01*
X791922Y546746D01*
X791599Y545966D01*
X791489Y545130D01*
X791599Y544293D01*
X791922Y543514D01*
X792435Y542845D01*
X793105Y542331D01*
X793884Y542008D01*
X794721Y541898D01*
X795557Y542008D01*
X796337Y542331D01*
X797006Y542845D01*
X797519Y543514D01*
X797842Y544293D01*
X797953Y545130D01*
X797842Y545966D01*
X797519Y546746D01*
X797006Y547415D01*
X796337Y547929D01*
X795557Y548252D01*
X794721Y548362D01*
D02*
G37*
G36*
X841500Y542860D02*
X840979Y542757D01*
X840538Y542462D01*
X840243Y542021D01*
X840140Y541500D01*
X840243Y540979D01*
X840538Y540538D01*
X840979Y540243D01*
X841500Y540140D01*
X842021Y540243D01*
X842462Y540538D01*
X842757Y540979D01*
X842860Y541500D01*
X842757Y542021D01*
X842462Y542462D01*
X842021Y542757D01*
X841500Y542860D01*
D02*
G37*
G36*
X1112409Y564301D02*
X1110501Y564151D01*
X1108640Y563704D01*
X1106871Y562971D01*
X1105239Y561971D01*
X1103784Y560728D01*
X1102541Y559272D01*
X1101540Y557640D01*
X1100808Y555872D01*
X1100361Y554011D01*
X1100211Y552102D01*
X1100361Y550194D01*
X1100808Y548333D01*
X1101540Y546564D01*
X1102541Y544932D01*
X1103784Y543477D01*
X1105239Y542234D01*
X1106871Y541233D01*
X1108640Y540501D01*
X1110501Y540054D01*
X1112409Y539904D01*
X1114318Y540054D01*
X1116179Y540501D01*
X1117947Y541233D01*
X1119580Y542234D01*
X1121035Y543477D01*
X1122278Y544932D01*
X1123279Y546564D01*
X1124011Y548333D01*
X1124458Y550194D01*
X1124608Y552102D01*
X1124458Y554011D01*
X1124011Y555872D01*
X1123279Y557640D01*
X1122278Y559272D01*
X1121035Y560728D01*
X1119580Y561971D01*
X1117947Y562971D01*
X1116179Y563704D01*
X1114318Y564151D01*
X1112409Y564301D01*
D02*
G37*
G36*
X769890D02*
X767981Y564151D01*
X766120Y563704D01*
X764352Y562971D01*
X762720Y561971D01*
X761264Y560728D01*
X760021Y559272D01*
X759021Y557640D01*
X758288Y555872D01*
X757841Y554011D01*
X757691Y552102D01*
X757841Y550194D01*
X758288Y548333D01*
X759021Y546564D01*
X760021Y544932D01*
X761264Y543477D01*
X762720Y542234D01*
X764352Y541233D01*
X766120Y540501D01*
X767981Y540054D01*
X769890Y539904D01*
X771798Y540054D01*
X773659Y540501D01*
X775428Y541233D01*
X777060Y542234D01*
X778515Y543477D01*
X779759Y544932D01*
X780759Y546564D01*
X781491Y548333D01*
X781938Y550194D01*
X782088Y552102D01*
X781938Y554011D01*
X781491Y555872D01*
X780759Y557640D01*
X779759Y559272D01*
X778515Y560728D01*
X777060Y561971D01*
X775428Y562971D01*
X773659Y563704D01*
X771798Y564151D01*
X769890Y564301D01*
D02*
G37*
G36*
X876500Y544828D02*
X875509Y544697D01*
X874586Y544315D01*
X873793Y543707D01*
X873185Y542914D01*
X872803Y541991D01*
X872672Y541000D01*
X872803Y540009D01*
X873185Y539086D01*
X873793Y538294D01*
X874586Y537685D01*
X875509Y537303D01*
X876500Y537172D01*
X877491Y537303D01*
X878414Y537685D01*
X879206Y538294D01*
X879815Y539086D01*
X880197Y540009D01*
X880328Y541000D01*
X880197Y541991D01*
X879815Y542914D01*
X879206Y543707D01*
X878414Y544315D01*
X877491Y544697D01*
X876500Y544828D01*
D02*
G37*
G36*
X862500D02*
X861509Y544697D01*
X860586Y544315D01*
X859793Y543707D01*
X859185Y542914D01*
X858803Y541991D01*
X858672Y541000D01*
X858803Y540009D01*
X859185Y539086D01*
X859793Y538294D01*
X860586Y537685D01*
X861509Y537303D01*
X862500Y537172D01*
X863491Y537303D01*
X864414Y537685D01*
X865207Y538294D01*
X865815Y539086D01*
X866197Y540009D01*
X866328Y541000D01*
X866197Y541991D01*
X865815Y542914D01*
X865207Y543707D01*
X864414Y544315D01*
X863491Y544697D01*
X862500Y544828D01*
D02*
G37*
G36*
X988000Y538860D02*
X987479Y538757D01*
X987038Y538462D01*
X986743Y538021D01*
X986640Y537500D01*
X986743Y536979D01*
X987038Y536538D01*
X987479Y536243D01*
X988000Y536140D01*
X988521Y536243D01*
X988962Y536538D01*
X989257Y536979D01*
X989360Y537500D01*
X989257Y538021D01*
X988962Y538462D01*
X988521Y538757D01*
X988000Y538860D01*
D02*
G37*
G36*
X818933Y538632D02*
X815390D01*
X814562Y538467D01*
X813860Y537998D01*
X813391Y537296D01*
X813227Y536469D01*
Y532531D01*
X813391Y531704D01*
X813860Y531002D01*
X814562Y530533D01*
X815390Y530368D01*
X818933D01*
X819761Y530533D01*
X820463Y531002D01*
X820932Y531704D01*
X820964Y531866D01*
X821187Y531959D01*
X821795Y532425D01*
X822262Y533033D01*
X822555Y533741D01*
X822655Y534500D01*
X822555Y535259D01*
X822262Y535967D01*
X821795Y536575D01*
X821187Y537041D01*
X820964Y537134D01*
X820932Y537296D01*
X820463Y537998D01*
X819761Y538467D01*
X818933Y538632D01*
D02*
G37*
G36*
X793736D02*
X790193D01*
X789365Y538467D01*
X788663Y537998D01*
X788194Y537296D01*
X788162Y537134D01*
X787938Y537041D01*
X787331Y536575D01*
X786865Y535967D01*
X786571Y535259D01*
X786471Y534500D01*
X786571Y533741D01*
X786865Y533033D01*
X787331Y532425D01*
X787938Y531959D01*
X788162Y531866D01*
X788194Y531704D01*
X788663Y531002D01*
X789365Y530533D01*
X790193Y530368D01*
X793736D01*
X794564Y530533D01*
X795266Y531002D01*
X795735Y531704D01*
X795899Y532531D01*
Y536469D01*
X795735Y537296D01*
X795266Y537998D01*
X794564Y538467D01*
X793736Y538632D01*
D02*
G37*
%LPD*%
D73*
X1092827Y733500D02*
D03*
X1087000Y728453D02*
D03*
X921035Y868730D02*
D03*
X906000Y798976D02*
D03*
X1095889Y783117D02*
D03*
X1099673Y719890D02*
D03*
X1087850Y714000D02*
D03*
X1081173Y733500D02*
D03*
X999000Y588646D02*
D03*
X1039716Y725871D02*
D03*
X1027637Y584335D02*
D03*
X1066921Y618268D02*
D03*
X981630Y760370D02*
D03*
X1012720Y587500D02*
D03*
X950441Y661500D02*
D03*
X948696Y640053D02*
D03*
X1069500Y686935D02*
D03*
X1064490Y655539D02*
D03*
X935500Y765228D02*
D03*
X1061841Y728500D02*
D03*
X1057257Y789257D02*
D03*
X1059500Y743657D02*
D03*
X981630Y766979D02*
D03*
X995310Y783384D02*
D03*
X1085129Y808417D02*
D03*
X905587Y544142D02*
D03*
X941413D02*
D03*
X992622Y873000D02*
D03*
X1111343Y887906D02*
D03*
X1042445D02*
D03*
X828862Y545633D02*
D03*
X882461Y611861D02*
D03*
X903477Y607491D02*
D03*
X908524Y638937D02*
D03*
X877539Y643500D02*
D03*
X960752Y559364D02*
D03*
X846250Y603200D02*
D03*
X923768Y593000D02*
D03*
X915268Y658843D02*
D03*
X847000Y757500D02*
D03*
X841500Y757512D02*
D03*
X861169Y754000D02*
D03*
X860972Y746488D02*
D03*
X846250Y683800D02*
D03*
X891267Y649700D02*
D03*
Y668300D02*
D03*
X915268Y670500D02*
D03*
X855461Y649700D02*
D03*
X877539Y659000D02*
D03*
X908524Y629095D02*
D03*
X846250Y677600D02*
D03*
X841452Y643500D02*
D03*
X846250Y659065D02*
D03*
X858488Y731500D02*
D03*
X967000Y748158D02*
D03*
X858488Y726500D02*
D03*
X803000Y730138D02*
D03*
X819732Y749000D02*
D03*
X864500Y889461D02*
D03*
X809681Y545130D02*
D03*
X999500Y870122D02*
D03*
X999008Y878575D02*
D03*
X966615Y725802D02*
D03*
X915268Y647342D02*
D03*
X931114Y645138D02*
D03*
X1028158Y571000D02*
D03*
X1010843D02*
D03*
X993157D02*
D03*
X970658D02*
D03*
X1082063Y673437D02*
D03*
X1024075Y886055D02*
D03*
X1024980Y866382D02*
D03*
X1011559Y864709D02*
D03*
X755500Y835850D02*
D03*
X752000Y811638D02*
D03*
X768000Y817079D02*
D03*
X781000Y782657D02*
D03*
X793500Y788335D02*
D03*
X806315Y822918D02*
D03*
X805452Y811697D02*
D03*
X822952Y826091D02*
D03*
X784452Y842394D02*
D03*
X794199Y842110D02*
D03*
X844000Y764638D02*
D03*
X809303Y794500D02*
D03*
X815000Y786000D02*
D03*
Y780500D02*
D03*
X833500Y752157D02*
D03*
X882047Y848047D02*
D03*
Y853953D02*
D03*
X860492Y833638D02*
D03*
X871000Y862811D02*
D03*
X866213Y876500D02*
D03*
X904768Y906402D02*
D03*
X898500Y898539D02*
D03*
X1096260Y581941D02*
D03*
X1089000Y581843D02*
D03*
X887953Y848047D02*
D03*
Y854084D02*
D03*
X909396Y893103D02*
D03*
X1078700Y619239D02*
D03*
X981500Y797546D02*
D03*
X1080907Y634437D02*
D03*
X891378Y879494D02*
D03*
X777122Y742917D02*
D03*
X762060Y743881D02*
D03*
X1049354Y804720D02*
D03*
X934661Y577000D02*
D03*
X861957Y762000D02*
D03*
X1060587Y783642D02*
D03*
X914000Y893138D02*
D03*
X1054992Y544762D02*
D03*
X1090819D02*
D03*
X1023672Y785453D02*
D03*
X1010658D02*
D03*
X1030413Y783642D02*
D03*
X1062850Y714024D02*
D03*
X1069138Y723000D02*
D03*
X798103Y562577D02*
D03*
X813000D02*
D03*
D137*
X759000Y753500D02*
D03*
D139*
X1073744Y852000D02*
D03*
X1068232D02*
D03*
X1073744Y857512D02*
D03*
X1068232D02*
D03*
X1073744Y863024D02*
D03*
X1068232D02*
D03*
X1076500Y854756D02*
D03*
X1070988D02*
D03*
X1065476D02*
D03*
X1076500Y860268D02*
D03*
X1065476D02*
D03*
X1070988D02*
D03*
X785350Y822000D02*
D03*
X788500Y825150D02*
D03*
X791650Y822000D02*
D03*
X788500Y818850D02*
D03*
Y822000D02*
D03*
D140*
X793500Y669091D02*
D03*
D141*
X890661Y912220D02*
D03*
X865465D02*
D03*
X924784D02*
D03*
X949980D02*
D03*
D142*
X868221Y901591D02*
D03*
X887906D02*
D03*
X947224D02*
D03*
X927539D02*
D03*
D144*
X803799Y870500D02*
D03*
D145*
X780000Y753594D02*
D03*
M02*
