G04*
G04 #@! TF.GenerationSoftware,Altium Limited,Altium Designer,20.2.5 (213)*
G04*
G04 Layer_Physical_Order=3*
G04 Layer_Color=36540*
%FSLAX25Y25*%
%MOIN*%
G70*
G04*
G04 #@! TF.SameCoordinates,0EDA941F-9717-4D80-9818-445CF3A130AC*
G04*
G04*
G04 #@! TF.FilePolarity,Positive*
G04*
G01*
G75*
%ADD80C,0.01968*%
G04:AMPARAMS|DCode=143|XSize=70.87mil|YSize=74.8mil|CornerRadius=17.72mil|HoleSize=0mil|Usage=FLASHONLY|Rotation=180.000|XOffset=0mil|YOffset=0mil|HoleType=Round|Shape=RoundedRectangle|*
%AMROUNDEDRECTD143*
21,1,0.07087,0.03937,0,0,180.0*
21,1,0.03543,0.07480,0,0,180.0*
1,1,0.03543,-0.01772,0.01968*
1,1,0.03543,0.01772,0.01968*
1,1,0.03543,0.01772,-0.01968*
1,1,0.03543,-0.01772,-0.01968*
%
%ADD143ROUNDEDRECTD143*%
%ADD144C,0.05709*%
%ADD145C,0.01575*%
%ADD147C,0.06890*%
%ADD149C,0.09744*%
%ADD150C,0.06000*%
G36*
X967288Y919954D02*
X969754Y919464D01*
X972160Y918734D01*
X974483Y917772D01*
X976701Y916586D01*
X978791Y915190D01*
X980735Y913594D01*
X981624Y912706D01*
X981624Y912706D01*
X981721Y912770D01*
X993829Y900178D01*
X993795Y900137D01*
X993795Y900137D01*
X994705Y899271D01*
X996646Y897678D01*
X998734Y896282D01*
X1000949Y895099D01*
X1003269Y894138D01*
X1005672Y893409D01*
X1008136Y892919D01*
X1010635Y892673D01*
X1011890Y892642D01*
X1011890Y892591D01*
X1112500Y892642D01*
X1113667D01*
X1116169Y892395D01*
X1118635Y891905D01*
X1121041Y891175D01*
X1123364Y890213D01*
X1125581Y889027D01*
X1127672Y887630D01*
X1129616Y886035D01*
X1131394Y884258D01*
X1132989Y882314D01*
X1134386Y880223D01*
X1135571Y878006D01*
X1136533Y875683D01*
X1137263Y873277D01*
X1137753Y870811D01*
X1138000Y868308D01*
Y867051D01*
Y552102D01*
Y550845D01*
X1137753Y548343D01*
X1137263Y545877D01*
X1136533Y543471D01*
X1135571Y541148D01*
X1134386Y538930D01*
X1132989Y536840D01*
X1131394Y534896D01*
X1129616Y533118D01*
X1127672Y531523D01*
X1125581Y530126D01*
X1123364Y528941D01*
X1121041Y527979D01*
X1118635Y527249D01*
X1116169Y526758D01*
X1113667Y526512D01*
X768633D01*
X766130Y526758D01*
X763664Y527249D01*
X761258Y527979D01*
X758935Y528941D01*
X756718Y530126D01*
X754627Y531523D01*
X752683Y533118D01*
X750906Y534896D01*
X749310Y536840D01*
X747914Y538930D01*
X746728Y541148D01*
X745766Y543471D01*
X745036Y545877D01*
X744546Y548343D01*
X744299Y550845D01*
Y552102D01*
Y894610D01*
Y895867D01*
X744546Y898370D01*
X745036Y900836D01*
X745766Y903242D01*
X746728Y905565D01*
X747914Y907782D01*
X749310Y909873D01*
X750906Y911817D01*
X752683Y913594D01*
X754627Y915190D01*
X756718Y916586D01*
X758935Y917772D01*
X761258Y918734D01*
X763664Y919464D01*
X766130Y919954D01*
X768633Y920201D01*
X964786D01*
X967288Y919954D01*
D02*
G37*
%LPC*%
G36*
X909000Y914859D02*
X908671Y914793D01*
X908393Y914607D01*
X908207Y914329D01*
X908141Y914000D01*
X908207Y913671D01*
X908393Y913393D01*
X908671Y913207D01*
X909000Y913141D01*
X909329Y913207D01*
X909607Y913393D01*
X909793Y913671D01*
X909859Y914000D01*
X909793Y914329D01*
X909607Y914607D01*
X909329Y914793D01*
X909000Y914859D01*
D02*
G37*
G36*
X917500Y908860D02*
X916979Y908757D01*
X916538Y908462D01*
X916243Y908021D01*
X916140Y907500D01*
X916243Y906979D01*
X916538Y906538D01*
X916979Y906243D01*
X917500Y906140D01*
X918021Y906243D01*
X918462Y906538D01*
X918757Y906979D01*
X918860Y907500D01*
X918757Y908021D01*
X918462Y908462D01*
X918021Y908757D01*
X917500Y908860D01*
D02*
G37*
G36*
Y905203D02*
X916979Y905099D01*
X916538Y904805D01*
X916243Y904363D01*
X916140Y903843D01*
X916243Y903322D01*
X916538Y902881D01*
X916979Y902586D01*
X917500Y902482D01*
X918021Y902586D01*
X918462Y902881D01*
X918757Y903322D01*
X918860Y903843D01*
X918757Y904363D01*
X918462Y904805D01*
X918021Y905099D01*
X917500Y905203D01*
D02*
G37*
G36*
X898500Y904821D02*
X897979Y904718D01*
X897538Y904423D01*
X897243Y903981D01*
X897140Y903461D01*
X897243Y902940D01*
X897538Y902499D01*
X897979Y902204D01*
X898500Y902100D01*
X899021Y902204D01*
X899462Y902499D01*
X899757Y902940D01*
X899860Y903461D01*
X899757Y903981D01*
X899462Y904423D01*
X899021Y904718D01*
X898500Y904821D01*
D02*
G37*
G36*
X914000Y899223D02*
X913479Y899119D01*
X913038Y898824D01*
X912743Y898383D01*
X912640Y897862D01*
X912743Y897342D01*
X913038Y896900D01*
X913479Y896605D01*
X914000Y896502D01*
X914521Y896605D01*
X914962Y896900D01*
X915257Y897342D01*
X915360Y897862D01*
X915257Y898383D01*
X914962Y898824D01*
X914521Y899119D01*
X914000Y899223D01*
D02*
G37*
G36*
X878000Y897360D02*
X877479Y897257D01*
X877038Y896962D01*
X876743Y896521D01*
X876640Y896000D01*
X876743Y895479D01*
X877038Y895038D01*
X877479Y894743D01*
X878000Y894640D01*
X878521Y894743D01*
X878962Y895038D01*
X879257Y895479D01*
X879360Y896000D01*
X879257Y896521D01*
X878962Y896962D01*
X878521Y897257D01*
X878000Y897360D01*
D02*
G37*
G36*
X904500Y894498D02*
X903979Y894395D01*
X903538Y894100D01*
X903243Y893658D01*
X903140Y893138D01*
X903243Y892617D01*
X903538Y892176D01*
X903979Y891881D01*
X904500Y891777D01*
X905021Y891881D01*
X905462Y892176D01*
X905757Y892617D01*
X905860Y893138D01*
X905757Y893658D01*
X905462Y894100D01*
X905021Y894395D01*
X904500Y894498D01*
D02*
G37*
G36*
X873500Y893100D02*
X872979Y892997D01*
X872538Y892702D01*
X872243Y892261D01*
X872140Y891740D01*
X872243Y891220D01*
X872538Y890778D01*
X872979Y890483D01*
X873500Y890380D01*
X874021Y890483D01*
X874462Y890778D01*
X874757Y891220D01*
X874860Y891740D01*
X874757Y892261D01*
X874462Y892702D01*
X874021Y892997D01*
X873500Y893100D01*
D02*
G37*
G36*
X942000Y891360D02*
X941479Y891257D01*
X941038Y890962D01*
X940743Y890521D01*
X940640Y890000D01*
X940743Y889479D01*
X941038Y889038D01*
X941479Y888743D01*
X942000Y888640D01*
X942521Y888743D01*
X942962Y889038D01*
X943257Y889479D01*
X943360Y890000D01*
X943257Y890521D01*
X942962Y890962D01*
X942521Y891257D01*
X942000Y891360D01*
D02*
G37*
G36*
X937322Y889360D02*
X936801Y889257D01*
X936360Y888962D01*
X936065Y888521D01*
X935961Y888000D01*
X936065Y887479D01*
X936360Y887038D01*
X936801Y886743D01*
X937322Y886640D01*
X937842Y886743D01*
X938284Y887038D01*
X938579Y887479D01*
X938682Y888000D01*
X938579Y888521D01*
X938284Y888962D01*
X937842Y889257D01*
X937322Y889360D01*
D02*
G37*
G36*
X769890Y906809D02*
X767981Y906659D01*
X766120Y906212D01*
X764352Y905479D01*
X762720Y904479D01*
X761264Y903236D01*
X760021Y901780D01*
X759021Y900148D01*
X758288Y898380D01*
X757841Y896519D01*
X757691Y894610D01*
X757841Y892702D01*
X758288Y890841D01*
X759021Y889072D01*
X760021Y887440D01*
X761264Y885985D01*
X762720Y884741D01*
X764352Y883741D01*
X766120Y883009D01*
X767981Y882562D01*
X769890Y882412D01*
X771798Y882562D01*
X773659Y883009D01*
X775428Y883741D01*
X777060Y884741D01*
X778515Y885985D01*
X779759Y887440D01*
X780759Y889072D01*
X781491Y890841D01*
X781938Y892702D01*
X782088Y894610D01*
X781938Y896519D01*
X781491Y898380D01*
X780759Y900148D01*
X779759Y901780D01*
X778515Y903236D01*
X777060Y904479D01*
X775428Y905479D01*
X773659Y906212D01*
X771798Y906659D01*
X769890Y906809D01*
D02*
G37*
G36*
X966740Y906809D02*
X964832Y906658D01*
X962971Y906212D01*
X961202Y905479D01*
X959570Y904479D01*
X958114Y903236D01*
X956871Y901780D01*
X955871Y900148D01*
X955139Y898380D01*
X954692Y896518D01*
X954541Y894610D01*
X954692Y892702D01*
X955139Y890840D01*
X955871Y889072D01*
X956871Y887440D01*
X958114Y885984D01*
X959570Y884741D01*
X961202Y883741D01*
X962971Y883008D01*
X964832Y882562D01*
X966740Y882411D01*
X968648Y882562D01*
X970510Y883008D01*
X972278Y883741D01*
X973910Y884741D01*
X975366Y885984D01*
X976609Y887440D01*
X977609Y889072D01*
X978342Y890840D01*
X978789Y892702D01*
X978939Y894610D01*
X978789Y896518D01*
X978342Y898380D01*
X977609Y900148D01*
X976609Y901780D01*
X975366Y903236D01*
X973910Y904479D01*
X972278Y905479D01*
X970510Y906212D01*
X968648Y906658D01*
X966740Y906809D01*
D02*
G37*
G36*
X1111343Y884266D02*
X1110822Y884162D01*
X1110381Y883867D01*
X1110086Y883426D01*
X1109982Y882905D01*
X1110086Y882385D01*
X1110381Y881944D01*
X1110822Y881649D01*
X1111343Y881545D01*
X1111863Y881649D01*
X1112304Y881944D01*
X1112599Y882385D01*
X1112703Y882905D01*
X1112599Y883426D01*
X1112304Y883867D01*
X1111863Y884162D01*
X1111343Y884266D01*
D02*
G37*
G36*
X1024075Y881116D02*
X1023554Y881013D01*
X1023113Y880718D01*
X1022818Y880276D01*
X1022714Y879756D01*
X1022818Y879235D01*
X1023113Y878794D01*
X1023554Y878499D01*
X1024075Y878395D01*
X1024595Y878499D01*
X1025037Y878794D01*
X1025332Y879235D01*
X1025435Y879756D01*
X1025332Y880276D01*
X1025037Y880718D01*
X1024595Y881013D01*
X1024075Y881116D01*
D02*
G37*
G36*
X896461Y880860D02*
X895940Y880757D01*
X895499Y880462D01*
X895204Y880021D01*
X895100Y879500D01*
X895204Y878979D01*
X895499Y878538D01*
X895940Y878243D01*
X896461Y878140D01*
X896981Y878243D01*
X897423Y878538D01*
X897717Y878979D01*
X897821Y879500D01*
X897717Y880021D01*
X897423Y880462D01*
X896981Y880757D01*
X896461Y880860D01*
D02*
G37*
G36*
X1111343Y879266D02*
X1110822Y879162D01*
X1110381Y878867D01*
X1110086Y878426D01*
X1109982Y877905D01*
X1110086Y877385D01*
X1110381Y876944D01*
X1110822Y876649D01*
X1111343Y876545D01*
X1111863Y876649D01*
X1112304Y876944D01*
X1112599Y877385D01*
X1112703Y877905D01*
X1112599Y878426D01*
X1112304Y878867D01*
X1111863Y879162D01*
X1111343Y879266D01*
D02*
G37*
G36*
X875528Y877860D02*
X875007Y877757D01*
X874566Y877462D01*
X874271Y877021D01*
X874167Y876500D01*
X874271Y875979D01*
X874566Y875538D01*
X875007Y875243D01*
X875528Y875140D01*
X876048Y875243D01*
X876490Y875538D01*
X876784Y875979D01*
X876888Y876500D01*
X876784Y877021D01*
X876490Y877462D01*
X876048Y877757D01*
X875528Y877860D01*
D02*
G37*
G36*
X1042445Y874266D02*
X1041924Y874162D01*
X1041483Y873867D01*
X1041188Y873426D01*
X1041084Y872906D01*
X1041188Y872385D01*
X1041483Y871944D01*
X1041924Y871649D01*
X1042445Y871545D01*
X1042966Y871649D01*
X1043407Y871944D01*
X1043702Y872385D01*
X1043805Y872906D01*
X1043702Y873426D01*
X1043407Y873867D01*
X1042966Y874162D01*
X1042445Y874266D01*
D02*
G37*
G36*
X885984Y873118D02*
X885464Y873015D01*
X885022Y872720D01*
X884727Y872278D01*
X884624Y871758D01*
X884727Y871237D01*
X885022Y870796D01*
X885464Y870501D01*
X885984Y870397D01*
X886505Y870501D01*
X886946Y870796D01*
X887241Y871237D01*
X887345Y871758D01*
X887241Y872278D01*
X886946Y872720D01*
X886505Y873015D01*
X885984Y873118D01*
D02*
G37*
G36*
X1127900Y871132D02*
X1127379Y871029D01*
X1126938Y870734D01*
X1126643Y870292D01*
X1126539Y869772D01*
X1126643Y869251D01*
X1126938Y868810D01*
X1127379Y868515D01*
X1127900Y868411D01*
X1128420Y868515D01*
X1128862Y868810D01*
X1129156Y869251D01*
X1129260Y869772D01*
X1129156Y870292D01*
X1128862Y870734D01*
X1128420Y871029D01*
X1127900Y871132D01*
D02*
G37*
G36*
X1018000Y868038D02*
X1017479Y867934D01*
X1017038Y867639D01*
X1016743Y867198D01*
X1016640Y866677D01*
X1016743Y866157D01*
X1017038Y865715D01*
X1017479Y865420D01*
X1018000Y865317D01*
X1018521Y865420D01*
X1018962Y865715D01*
X1019257Y866157D01*
X1019360Y866677D01*
X1019257Y867198D01*
X1018962Y867639D01*
X1018521Y867934D01*
X1018000Y868038D01*
D02*
G37*
G36*
X846423Y875722D02*
X835979D01*
Y865278D01*
X846423D01*
Y875722D01*
D02*
G37*
G36*
X822500Y875767D02*
X821137Y875588D01*
X819866Y875061D01*
X818776Y874224D01*
X817939Y873133D01*
X817412Y871863D01*
X817233Y870500D01*
X817412Y869137D01*
X817939Y867867D01*
X818776Y866776D01*
X819866Y865939D01*
X821137Y865412D01*
X822500Y865233D01*
X823863Y865412D01*
X825134Y865939D01*
X826224Y866776D01*
X827061Y867867D01*
X827588Y869137D01*
X827767Y870500D01*
X827588Y871863D01*
X827061Y873133D01*
X826224Y874224D01*
X825134Y875061D01*
X823863Y875588D01*
X822500Y875767D01*
D02*
G37*
G36*
X1006441Y866069D02*
X1005920Y865965D01*
X1005479Y865671D01*
X1005184Y865229D01*
X1005081Y864709D01*
X1005184Y864188D01*
X1005479Y863747D01*
X1005920Y863452D01*
X1006441Y863348D01*
X1006962Y863452D01*
X1007403Y863747D01*
X1007698Y864188D01*
X1007801Y864709D01*
X1007698Y865229D01*
X1007403Y865671D01*
X1006962Y865965D01*
X1006441Y866069D01*
D02*
G37*
G36*
X1042445Y854266D02*
X1041924Y854162D01*
X1041483Y853867D01*
X1041188Y853426D01*
X1041084Y852905D01*
X1041188Y852385D01*
X1041483Y851944D01*
X1041924Y851649D01*
X1042445Y851545D01*
X1042966Y851649D01*
X1043407Y851944D01*
X1043702Y852385D01*
X1043805Y852905D01*
X1043702Y853426D01*
X1043407Y853867D01*
X1042966Y854162D01*
X1042445Y854266D01*
D02*
G37*
G36*
Y849266D02*
X1041924Y849162D01*
X1041483Y848867D01*
X1041188Y848426D01*
X1041084Y847906D01*
X1041188Y847385D01*
X1041483Y846944D01*
X1041924Y846649D01*
X1042445Y846545D01*
X1042966Y846649D01*
X1043407Y846944D01*
X1043702Y847385D01*
X1043805Y847906D01*
X1043702Y848426D01*
X1043407Y848867D01*
X1042966Y849162D01*
X1042445Y849266D01*
D02*
G37*
G36*
X866000Y844998D02*
X865479Y844895D01*
X865038Y844600D01*
X864743Y844158D01*
X864640Y843638D01*
X864743Y843117D01*
X865038Y842676D01*
X865479Y842381D01*
X866000Y842277D01*
X866521Y842381D01*
X866962Y842676D01*
X867257Y843117D01*
X867360Y843638D01*
X867257Y844158D01*
X866962Y844600D01*
X866521Y844895D01*
X866000Y844998D01*
D02*
G37*
G36*
X907236Y844447D02*
X906716Y844343D01*
X906275Y844048D01*
X905980Y843607D01*
X905876Y843086D01*
X905980Y842566D01*
X906275Y842124D01*
X906716Y841829D01*
X907236Y841726D01*
X907757Y841829D01*
X908198Y842124D01*
X908493Y842566D01*
X908597Y843086D01*
X908493Y843607D01*
X908198Y844048D01*
X907757Y844343D01*
X907236Y844447D01*
D02*
G37*
G36*
X1128087Y843632D02*
X1127567Y843528D01*
X1127125Y843234D01*
X1126830Y842792D01*
X1126727Y842272D01*
X1126830Y841751D01*
X1127125Y841310D01*
X1127567Y841015D01*
X1128087Y840911D01*
X1128608Y841015D01*
X1129049Y841310D01*
X1129344Y841751D01*
X1129447Y842272D01*
X1129344Y842792D01*
X1129049Y843234D01*
X1128608Y843528D01*
X1128087Y843632D01*
D02*
G37*
G36*
X876000Y839860D02*
X875479Y839757D01*
X875038Y839462D01*
X874743Y839021D01*
X874640Y838500D01*
X874743Y837979D01*
X875038Y837538D01*
X875479Y837243D01*
X876000Y837140D01*
X876521Y837243D01*
X876962Y837538D01*
X877257Y837979D01*
X877360Y838500D01*
X877257Y839021D01*
X876962Y839462D01*
X876521Y839757D01*
X876000Y839860D01*
D02*
G37*
G36*
X872000D02*
X871479Y839757D01*
X871038Y839462D01*
X870743Y839021D01*
X870640Y838500D01*
X870743Y837979D01*
X871038Y837538D01*
X871479Y837243D01*
X872000Y837140D01*
X872521Y837243D01*
X872962Y837538D01*
X873257Y837979D01*
X873360Y838500D01*
X873257Y839021D01*
X872962Y839462D01*
X872521Y839757D01*
X872000Y839860D01*
D02*
G37*
G36*
X1111500Y839360D02*
X1110979Y839257D01*
X1110538Y838962D01*
X1110243Y838521D01*
X1110140Y838000D01*
X1110243Y837479D01*
X1110538Y837038D01*
X1110979Y836743D01*
X1111500Y836640D01*
X1112021Y836743D01*
X1112462Y837038D01*
X1112757Y837479D01*
X1112860Y838000D01*
X1112757Y838521D01*
X1112462Y838962D01*
X1112021Y839257D01*
X1111500Y839360D01*
D02*
G37*
G36*
X781521Y834519D02*
X781001Y834416D01*
X780559Y834121D01*
X780264Y833680D01*
X780161Y833159D01*
X780264Y832638D01*
X780559Y832197D01*
X781001Y831902D01*
X781521Y831799D01*
X782042Y831902D01*
X782483Y832197D01*
X782778Y832638D01*
X782882Y833159D01*
X782778Y833680D01*
X782483Y834121D01*
X782042Y834416D01*
X781521Y834519D01*
D02*
G37*
G36*
X1111500Y834360D02*
X1110979Y834257D01*
X1110538Y833962D01*
X1110243Y833521D01*
X1110140Y833000D01*
X1110243Y832479D01*
X1110538Y832038D01*
X1110979Y831743D01*
X1111500Y831640D01*
X1112021Y831743D01*
X1112462Y832038D01*
X1112757Y832479D01*
X1112860Y833000D01*
X1112757Y833521D01*
X1112462Y833962D01*
X1112021Y834257D01*
X1111500Y834360D01*
D02*
G37*
G36*
Y829360D02*
X1110979Y829257D01*
X1110538Y828962D01*
X1110243Y828521D01*
X1110140Y828000D01*
X1110243Y827479D01*
X1110538Y827038D01*
X1110979Y826743D01*
X1111500Y826640D01*
X1112021Y826743D01*
X1112462Y827038D01*
X1112757Y827479D01*
X1112860Y828000D01*
X1112757Y828521D01*
X1112462Y828962D01*
X1112021Y829257D01*
X1111500Y829360D01*
D02*
G37*
G36*
X1042445Y829266D02*
X1041924Y829162D01*
X1041483Y828867D01*
X1041188Y828426D01*
X1041084Y827905D01*
X1041188Y827385D01*
X1041483Y826944D01*
X1041924Y826649D01*
X1042445Y826545D01*
X1042966Y826649D01*
X1043407Y826944D01*
X1043702Y827385D01*
X1043805Y827905D01*
X1043702Y828426D01*
X1043407Y828867D01*
X1042966Y829162D01*
X1042445Y829266D01*
D02*
G37*
G36*
X1125000Y827360D02*
X1124479Y827257D01*
X1124038Y826962D01*
X1123743Y826521D01*
X1123640Y826000D01*
X1123743Y825479D01*
X1124038Y825038D01*
X1124479Y824743D01*
X1125000Y824640D01*
X1125521Y824743D01*
X1125962Y825038D01*
X1126257Y825479D01*
X1126360Y826000D01*
X1126257Y826521D01*
X1125962Y826962D01*
X1125521Y827257D01*
X1125000Y827360D01*
D02*
G37*
G36*
X1119000D02*
X1118479Y827257D01*
X1118038Y826962D01*
X1117743Y826521D01*
X1117640Y826000D01*
X1117743Y825479D01*
X1118038Y825038D01*
X1118479Y824743D01*
X1119000Y824640D01*
X1119521Y824743D01*
X1119962Y825038D01*
X1120257Y825479D01*
X1120360Y826000D01*
X1120257Y826521D01*
X1119962Y826962D01*
X1119521Y827257D01*
X1119000Y827360D01*
D02*
G37*
G36*
X775190Y825174D02*
X774669Y825070D01*
X774228Y824775D01*
X773933Y824334D01*
X773829Y823813D01*
X773933Y823293D01*
X774228Y822851D01*
X774669Y822556D01*
X775190Y822453D01*
X775710Y822556D01*
X776152Y822851D01*
X776446Y823293D01*
X776550Y823813D01*
X776446Y824334D01*
X776152Y824775D01*
X775710Y825070D01*
X775190Y825174D01*
D02*
G37*
G36*
X1111500Y824360D02*
X1110979Y824257D01*
X1110538Y823962D01*
X1110243Y823521D01*
X1110140Y823000D01*
X1110243Y822479D01*
X1110538Y822038D01*
X1110979Y821743D01*
X1111500Y821640D01*
X1112021Y821743D01*
X1112462Y822038D01*
X1112757Y822479D01*
X1112860Y823000D01*
X1112757Y823521D01*
X1112462Y823962D01*
X1112021Y824257D01*
X1111500Y824360D01*
D02*
G37*
G36*
X1042445Y824266D02*
X1041924Y824162D01*
X1041483Y823867D01*
X1041188Y823426D01*
X1041084Y822906D01*
X1041188Y822385D01*
X1041483Y821944D01*
X1041924Y821649D01*
X1042445Y821545D01*
X1042966Y821649D01*
X1043407Y821944D01*
X1043702Y822385D01*
X1043805Y822906D01*
X1043702Y823426D01*
X1043407Y823867D01*
X1042966Y824162D01*
X1042445Y824266D01*
D02*
G37*
G36*
X1059394Y819345D02*
X1058873Y819241D01*
X1058432Y818946D01*
X1058137Y818505D01*
X1058033Y817984D01*
X1058137Y817464D01*
X1058432Y817022D01*
X1058873Y816727D01*
X1059394Y816624D01*
X1059914Y816727D01*
X1060356Y817022D01*
X1060651Y817464D01*
X1060754Y817984D01*
X1060651Y818505D01*
X1060356Y818946D01*
X1059914Y819241D01*
X1059394Y819345D01*
D02*
G37*
G36*
X1128212Y815762D02*
X1127691Y815658D01*
X1127250Y815364D01*
X1126955Y814922D01*
X1126852Y814402D01*
X1126955Y813881D01*
X1127250Y813440D01*
X1127691Y813145D01*
X1128212Y813041D01*
X1128733Y813145D01*
X1129174Y813440D01*
X1129469Y813881D01*
X1129572Y814402D01*
X1129469Y814922D01*
X1129174Y815364D01*
X1128733Y815658D01*
X1128212Y815762D01*
D02*
G37*
G36*
X1030913Y814860D02*
X1030393Y814757D01*
X1029951Y814462D01*
X1029657Y814021D01*
X1029553Y813500D01*
X1029657Y812979D01*
X1029951Y812538D01*
X1030393Y812243D01*
X1030913Y812140D01*
X1031434Y812243D01*
X1031875Y812538D01*
X1032170Y812979D01*
X1032274Y813500D01*
X1032170Y814021D01*
X1031875Y814462D01*
X1031434Y814757D01*
X1030913Y814860D01*
D02*
G37*
G36*
X1044221Y811640D02*
X1043700Y811536D01*
X1043258Y811242D01*
X1042964Y810800D01*
X1042860Y810279D01*
X1042964Y809759D01*
X1043258Y809318D01*
X1043700Y809023D01*
X1044221Y808919D01*
X1044741Y809023D01*
X1045182Y809318D01*
X1045477Y809759D01*
X1045581Y810279D01*
X1045477Y810800D01*
X1045182Y811242D01*
X1044741Y811536D01*
X1044221Y811640D01*
D02*
G37*
G36*
X793374Y809873D02*
X792853Y809769D01*
X792412Y809474D01*
X792117Y809033D01*
X792013Y808512D01*
X792117Y807992D01*
X792412Y807550D01*
X792853Y807255D01*
X793374Y807152D01*
X793894Y807255D01*
X794336Y807550D01*
X794630Y807992D01*
X794734Y808512D01*
X794630Y809033D01*
X794336Y809474D01*
X793894Y809769D01*
X793374Y809873D01*
D02*
G37*
G36*
X1096372Y809278D02*
X1095851Y809174D01*
X1095410Y808879D01*
X1095115Y808438D01*
X1095011Y807917D01*
X1095115Y807397D01*
X1095410Y806955D01*
X1095851Y806660D01*
X1096372Y806557D01*
X1096892Y806660D01*
X1097334Y806955D01*
X1097628Y807397D01*
X1097732Y807917D01*
X1097628Y808438D01*
X1097334Y808879D01*
X1096892Y809174D01*
X1096372Y809278D01*
D02*
G37*
G36*
X886000Y807498D02*
X885479Y807395D01*
X885038Y807100D01*
X884743Y806658D01*
X884640Y806138D01*
X884743Y805617D01*
X885038Y805176D01*
X885479Y804881D01*
X886000Y804777D01*
X886521Y804881D01*
X886962Y805176D01*
X887257Y805617D01*
X887360Y806138D01*
X887257Y806658D01*
X886962Y807100D01*
X886521Y807395D01*
X886000Y807498D01*
D02*
G37*
G36*
X876000D02*
X875479Y807395D01*
X875038Y807100D01*
X874743Y806658D01*
X874640Y806138D01*
X874743Y805617D01*
X875038Y805176D01*
X875479Y804881D01*
X876000Y804777D01*
X876521Y804881D01*
X876962Y805176D01*
X877257Y805617D01*
X877360Y806138D01*
X877257Y806658D01*
X876962Y807100D01*
X876521Y807395D01*
X876000Y807498D01*
D02*
G37*
G36*
X824575Y806086D02*
X824054Y805983D01*
X823613Y805688D01*
X823318Y805246D01*
X823214Y804726D01*
X823318Y804205D01*
X823613Y803764D01*
X824054Y803469D01*
X824575Y803365D01*
X825095Y803469D01*
X825537Y803764D01*
X825832Y804205D01*
X825935Y804726D01*
X825832Y805246D01*
X825537Y805688D01*
X825095Y805983D01*
X824575Y806086D01*
D02*
G37*
G36*
X819224D02*
X818704Y805983D01*
X818262Y805688D01*
X817968Y805246D01*
X817864Y804726D01*
X817968Y804205D01*
X818262Y803764D01*
X818704Y803469D01*
X819224Y803365D01*
X819745Y803469D01*
X820186Y803764D01*
X820481Y804205D01*
X820585Y804726D01*
X820481Y805246D01*
X820186Y805688D01*
X819745Y805983D01*
X819224Y806086D01*
D02*
G37*
G36*
X814038D02*
X813517Y805983D01*
X813076Y805688D01*
X812781Y805246D01*
X812678Y804726D01*
X812781Y804205D01*
X813076Y803764D01*
X813517Y803469D01*
X814038Y803365D01*
X814559Y803469D01*
X815000Y803764D01*
X815295Y804205D01*
X815398Y804726D01*
X815295Y805246D01*
X815000Y805688D01*
X814559Y805983D01*
X814038Y806086D01*
D02*
G37*
G36*
X808714D02*
X808193Y805983D01*
X807752Y805688D01*
X807457Y805246D01*
X807354Y804726D01*
X807457Y804205D01*
X807752Y803764D01*
X808193Y803469D01*
X808714Y803365D01*
X809235Y803469D01*
X809676Y803764D01*
X809971Y804205D01*
X810074Y804726D01*
X809971Y805246D01*
X809676Y805688D01*
X809235Y805983D01*
X808714Y806086D01*
D02*
G37*
G36*
X1096413Y802719D02*
X1095893Y802615D01*
X1095451Y802320D01*
X1095157Y801879D01*
X1095053Y801358D01*
X1095157Y800838D01*
X1095451Y800396D01*
X1095893Y800101D01*
X1096413Y799998D01*
X1096934Y800101D01*
X1097375Y800396D01*
X1097670Y800838D01*
X1097774Y801358D01*
X1097670Y801879D01*
X1097375Y802320D01*
X1096934Y802615D01*
X1096413Y802719D01*
D02*
G37*
G36*
X1060587D02*
X1060066Y802615D01*
X1059625Y802320D01*
X1059330Y801879D01*
X1059226Y801358D01*
X1059330Y800838D01*
X1059625Y800396D01*
X1060066Y800101D01*
X1060587Y799998D01*
X1061107Y800101D01*
X1061549Y800396D01*
X1061843Y800838D01*
X1061947Y801358D01*
X1061843Y801879D01*
X1061549Y802320D01*
X1061107Y802615D01*
X1060587Y802719D01*
D02*
G37*
G36*
X803988Y801360D02*
X803468Y801257D01*
X803026Y800962D01*
X802731Y800521D01*
X802628Y800000D01*
X802731Y799479D01*
X803026Y799038D01*
X803468Y798743D01*
X803988Y798640D01*
X804509Y798743D01*
X804950Y799038D01*
X805245Y799479D01*
X805349Y800000D01*
X805245Y800521D01*
X804950Y800962D01*
X804509Y801257D01*
X803988Y801360D01*
D02*
G37*
G36*
X1131125Y799628D02*
X1130604Y799525D01*
X1130163Y799230D01*
X1129868Y798788D01*
X1129765Y798268D01*
X1129868Y797747D01*
X1130163Y797306D01*
X1130604Y797011D01*
X1131125Y796907D01*
X1131646Y797011D01*
X1132087Y797306D01*
X1132382Y797747D01*
X1132485Y798268D01*
X1132382Y798788D01*
X1132087Y799230D01*
X1131646Y799525D01*
X1131125Y799628D01*
D02*
G37*
G36*
X1125062D02*
X1124542Y799525D01*
X1124101Y799230D01*
X1123806Y798788D01*
X1123702Y798268D01*
X1123806Y797747D01*
X1124101Y797306D01*
X1124542Y797011D01*
X1125062Y796907D01*
X1125583Y797011D01*
X1126024Y797306D01*
X1126319Y797747D01*
X1126423Y798268D01*
X1126319Y798788D01*
X1126024Y799230D01*
X1125583Y799525D01*
X1125062Y799628D01*
D02*
G37*
G36*
X1119000D02*
X1118479Y799525D01*
X1118038Y799230D01*
X1117743Y798788D01*
X1117640Y798268D01*
X1117743Y797747D01*
X1118038Y797306D01*
X1118479Y797011D01*
X1119000Y796907D01*
X1119521Y797011D01*
X1119962Y797306D01*
X1120257Y797747D01*
X1120360Y798268D01*
X1120257Y798788D01*
X1119962Y799230D01*
X1119521Y799525D01*
X1119000Y799628D01*
D02*
G37*
G36*
X935130Y799203D02*
X934609Y799099D01*
X934168Y798805D01*
X933873Y798363D01*
X933770Y797843D01*
X933873Y797322D01*
X934168Y796881D01*
X934609Y796586D01*
X935130Y796482D01*
X935651Y796586D01*
X936092Y796881D01*
X936387Y797322D01*
X936490Y797843D01*
X936387Y798363D01*
X936092Y798805D01*
X935651Y799099D01*
X935130Y799203D01*
D02*
G37*
G36*
X863118Y795900D02*
X862597Y795796D01*
X862156Y795501D01*
X861861Y795060D01*
X861758Y794539D01*
X861861Y794019D01*
X862156Y793577D01*
X862597Y793283D01*
X863118Y793179D01*
X863639Y793283D01*
X864080Y793577D01*
X864375Y794019D01*
X864478Y794539D01*
X864375Y795060D01*
X864080Y795501D01*
X863639Y795796D01*
X863118Y795900D01*
D02*
G37*
G36*
X847882D02*
X847361Y795796D01*
X846920Y795501D01*
X846625Y795060D01*
X846521Y794539D01*
X846625Y794019D01*
X846920Y793577D01*
X847361Y793283D01*
X847882Y793179D01*
X848403Y793283D01*
X848844Y793577D01*
X849139Y794019D01*
X849242Y794539D01*
X849139Y795060D01*
X848844Y795501D01*
X848403Y795796D01*
X847882Y795900D01*
D02*
G37*
G36*
X803988Y795860D02*
X803468Y795757D01*
X803026Y795462D01*
X802731Y795021D01*
X802628Y794500D01*
X802731Y793979D01*
X803026Y793538D01*
X803468Y793243D01*
X803988Y793140D01*
X804509Y793243D01*
X804950Y793538D01*
X805245Y793979D01*
X805349Y794500D01*
X805245Y795021D01*
X804950Y795462D01*
X804509Y795757D01*
X803988Y795860D01*
D02*
G37*
G36*
X1045000Y787860D02*
X1044479Y787757D01*
X1044038Y787462D01*
X1043743Y787021D01*
X1043640Y786500D01*
X1043743Y785979D01*
X1044038Y785538D01*
X1044479Y785243D01*
X1045000Y785140D01*
X1045521Y785243D01*
X1045962Y785538D01*
X1046257Y785979D01*
X1046360Y786500D01*
X1046257Y787021D01*
X1045962Y787462D01*
X1045521Y787757D01*
X1045000Y787860D01*
D02*
G37*
G36*
X1018357Y786813D02*
X1017836Y786710D01*
X1017395Y786415D01*
X1017100Y785973D01*
X1016996Y785453D01*
X1017100Y784932D01*
X1017395Y784491D01*
X1017836Y784196D01*
X1018357Y784092D01*
X1018877Y784196D01*
X1019319Y784491D01*
X1019614Y784932D01*
X1019717Y785453D01*
X1019614Y785973D01*
X1019319Y786415D01*
X1018877Y786710D01*
X1018357Y786813D01*
D02*
G37*
G36*
X1004842D02*
X1004322Y786710D01*
X1003881Y786415D01*
X1003586Y785973D01*
X1003482Y785453D01*
X1003586Y784932D01*
X1003881Y784491D01*
X1004322Y784196D01*
X1004842Y784092D01*
X1005363Y784196D01*
X1005805Y784491D01*
X1006099Y784932D01*
X1006203Y785453D01*
X1006099Y785973D01*
X1005805Y786415D01*
X1005363Y786710D01*
X1004842Y786813D01*
D02*
G37*
G36*
X984000Y781860D02*
X983479Y781757D01*
X983038Y781462D01*
X982743Y781021D01*
X982640Y780500D01*
X982743Y779979D01*
X983038Y779538D01*
X983479Y779243D01*
X984000Y779140D01*
X984521Y779243D01*
X984962Y779538D01*
X985257Y779979D01*
X985360Y780500D01*
X985257Y781021D01*
X984962Y781462D01*
X984521Y781757D01*
X984000Y781860D01*
D02*
G37*
G36*
X979000D02*
X978479Y781757D01*
X978038Y781462D01*
X977743Y781021D01*
X977640Y780500D01*
X977743Y779979D01*
X978038Y779538D01*
X978479Y779243D01*
X979000Y779140D01*
X979521Y779243D01*
X979962Y779538D01*
X980257Y779979D01*
X980360Y780500D01*
X980257Y781021D01*
X979962Y781462D01*
X979521Y781757D01*
X979000Y781860D01*
D02*
G37*
G36*
X915000Y776860D02*
X914479Y776757D01*
X914038Y776462D01*
X913743Y776021D01*
X913640Y775500D01*
X913743Y774979D01*
X914038Y774538D01*
X914479Y774243D01*
X915000Y774140D01*
X915521Y774243D01*
X915962Y774538D01*
X916257Y774979D01*
X916360Y775500D01*
X916257Y776021D01*
X915962Y776462D01*
X915521Y776757D01*
X915000Y776860D01*
D02*
G37*
G36*
X945500Y766589D02*
X944979Y766485D01*
X944538Y766190D01*
X944243Y765749D01*
X944140Y765228D01*
X944243Y764708D01*
X944538Y764266D01*
X944979Y763972D01*
X945500Y763868D01*
X946021Y763972D01*
X946462Y764266D01*
X946757Y764708D01*
X946860Y765228D01*
X946757Y765749D01*
X946462Y766190D01*
X946021Y766485D01*
X945500Y766589D01*
D02*
G37*
G36*
X759000Y770828D02*
X758009Y770697D01*
X757086Y770315D01*
X756293Y769706D01*
X755685Y768914D01*
X755303Y767991D01*
X755172Y767000D01*
X755303Y766009D01*
X755685Y765086D01*
X756293Y764293D01*
X757086Y763685D01*
X758009Y763303D01*
X759000Y763172D01*
X759991Y763303D01*
X760914Y763685D01*
X761706Y764293D01*
X762315Y765086D01*
X762697Y766009D01*
X762828Y767000D01*
X762697Y767991D01*
X762315Y768914D01*
X761706Y769706D01*
X760914Y770315D01*
X759991Y770697D01*
X759000Y770828D01*
D02*
G37*
G36*
X780000Y769178D02*
X779125Y769063D01*
X778310Y768725D01*
X777611Y768188D01*
X777074Y767489D01*
X776736Y766674D01*
X776621Y765799D01*
X776736Y764925D01*
X777074Y764110D01*
X777611Y763410D01*
X778310Y762873D01*
X779125Y762535D01*
X780000Y762420D01*
X780874Y762535D01*
X781690Y762873D01*
X782389Y763410D01*
X782926Y764110D01*
X783264Y764925D01*
X783379Y765799D01*
X783264Y766674D01*
X782926Y767489D01*
X782389Y768188D01*
X781690Y768725D01*
X780874Y769063D01*
X780000Y769178D01*
D02*
G37*
G36*
X1061500Y751860D02*
X1060979Y751757D01*
X1060538Y751462D01*
X1060243Y751021D01*
X1060140Y750500D01*
X1060243Y749979D01*
X1060538Y749538D01*
X1060979Y749243D01*
X1061500Y749140D01*
X1062021Y749243D01*
X1062462Y749538D01*
X1062757Y749979D01*
X1062860Y750500D01*
X1062757Y751021D01*
X1062462Y751462D01*
X1062021Y751757D01*
X1061500Y751860D01*
D02*
G37*
G36*
X907473Y749860D02*
X906952Y749757D01*
X906511Y749462D01*
X906216Y749021D01*
X906112Y748500D01*
X906216Y747979D01*
X906511Y747538D01*
X906952Y747243D01*
X907473Y747140D01*
X907994Y747243D01*
X908435Y747538D01*
X908730Y747979D01*
X908833Y748500D01*
X908730Y749021D01*
X908435Y749462D01*
X907994Y749757D01*
X907473Y749860D01*
D02*
G37*
G36*
X1102421Y748860D02*
X1101901Y748757D01*
X1101459Y748462D01*
X1101164Y748021D01*
X1101061Y747500D01*
X1101164Y746979D01*
X1101459Y746538D01*
X1101901Y746243D01*
X1102421Y746140D01*
X1102942Y746243D01*
X1103383Y746538D01*
X1103678Y746979D01*
X1103782Y747500D01*
X1103678Y748021D01*
X1103383Y748462D01*
X1102942Y748757D01*
X1102421Y748860D01*
D02*
G37*
G36*
X790358Y745479D02*
X789837Y745376D01*
X789396Y745081D01*
X789101Y744639D01*
X788997Y744119D01*
X789101Y743598D01*
X789396Y743157D01*
X789837Y742862D01*
X790358Y742759D01*
X790878Y742862D01*
X791320Y743157D01*
X791614Y743598D01*
X791718Y744119D01*
X791614Y744639D01*
X791320Y745081D01*
X790878Y745376D01*
X790358Y745479D01*
D02*
G37*
G36*
X940500Y745132D02*
X939979Y745028D01*
X939538Y744734D01*
X939243Y744292D01*
X939140Y743772D01*
X939243Y743251D01*
X939538Y742810D01*
X939979Y742515D01*
X940500Y742411D01*
X941021Y742515D01*
X941462Y742810D01*
X941757Y743251D01*
X941860Y743772D01*
X941757Y744292D01*
X941462Y744734D01*
X941021Y745028D01*
X940500Y745132D01*
D02*
G37*
G36*
X935500D02*
X934979Y745028D01*
X934538Y744734D01*
X934243Y744292D01*
X934140Y743772D01*
X934243Y743251D01*
X934538Y742810D01*
X934979Y742515D01*
X935500Y742411D01*
X936021Y742515D01*
X936462Y742810D01*
X936757Y743251D01*
X936860Y743772D01*
X936757Y744292D01*
X936462Y744734D01*
X936021Y745028D01*
X935500Y745132D01*
D02*
G37*
G36*
X967000Y744203D02*
X966479Y744099D01*
X966038Y743805D01*
X965743Y743363D01*
X965640Y742842D01*
X965743Y742322D01*
X966038Y741881D01*
X966479Y741586D01*
X967000Y741482D01*
X967521Y741586D01*
X967962Y741881D01*
X968257Y742322D01*
X968360Y742842D01*
X968257Y743363D01*
X967962Y743805D01*
X967521Y744099D01*
X967000Y744203D01*
D02*
G37*
G36*
X858488Y737860D02*
X857968Y737757D01*
X857526Y737462D01*
X857231Y737021D01*
X857128Y736500D01*
X857231Y735979D01*
X857526Y735538D01*
X857968Y735243D01*
X858488Y735140D01*
X859009Y735243D01*
X859450Y735538D01*
X859745Y735979D01*
X859849Y736500D01*
X859745Y737021D01*
X859450Y737462D01*
X859009Y737757D01*
X858488Y737860D01*
D02*
G37*
G36*
X1054500Y736360D02*
X1053979Y736257D01*
X1053538Y735962D01*
X1053243Y735521D01*
X1053140Y735000D01*
X1053243Y734479D01*
X1053538Y734038D01*
X1053979Y733743D01*
X1054500Y733640D01*
X1055021Y733743D01*
X1055462Y734038D01*
X1055757Y734479D01*
X1055860Y735000D01*
X1055757Y735521D01*
X1055462Y735962D01*
X1055021Y736257D01*
X1054500Y736360D01*
D02*
G37*
G36*
X874500Y732860D02*
X873979Y732757D01*
X873538Y732462D01*
X873243Y732021D01*
X873140Y731500D01*
X873243Y730979D01*
X873538Y730538D01*
X873979Y730243D01*
X874500Y730140D01*
X875021Y730243D01*
X875462Y730538D01*
X875757Y730979D01*
X875860Y731500D01*
X875757Y732021D01*
X875462Y732462D01*
X875021Y732757D01*
X874500Y732860D01*
D02*
G37*
G36*
X884500Y732369D02*
X883979Y732265D01*
X883538Y731970D01*
X883243Y731529D01*
X883140Y731008D01*
X883243Y730488D01*
X883538Y730046D01*
X883979Y729751D01*
X884500Y729648D01*
X885021Y729751D01*
X885462Y730046D01*
X885757Y730488D01*
X885860Y731008D01*
X885757Y731529D01*
X885462Y731970D01*
X885021Y732265D01*
X884500Y732369D01*
D02*
G37*
G36*
X1077000Y729860D02*
X1076479Y729757D01*
X1076038Y729462D01*
X1075743Y729021D01*
X1075640Y728500D01*
X1075743Y727979D01*
X1076038Y727538D01*
X1076479Y727243D01*
X1077000Y727140D01*
X1077521Y727243D01*
X1077962Y727538D01*
X1078257Y727979D01*
X1078360Y728500D01*
X1078257Y729021D01*
X1077962Y729462D01*
X1077521Y729757D01*
X1077000Y729860D01*
D02*
G37*
G36*
X1044804Y728688D02*
X1044284Y728584D01*
X1043842Y728290D01*
X1043547Y727848D01*
X1043444Y727328D01*
X1043547Y726807D01*
X1043842Y726366D01*
X1044284Y726071D01*
X1044804Y725967D01*
X1045325Y726071D01*
X1045766Y726366D01*
X1046061Y726807D01*
X1046165Y727328D01*
X1046061Y727848D01*
X1045766Y728290D01*
X1045325Y728584D01*
X1044804Y728688D01*
D02*
G37*
G36*
X1041402D02*
X1040882Y728584D01*
X1040440Y728290D01*
X1040145Y727848D01*
X1040042Y727328D01*
X1040145Y726807D01*
X1040440Y726366D01*
X1040882Y726071D01*
X1041402Y725967D01*
X1041923Y726071D01*
X1042364Y726366D01*
X1042659Y726807D01*
X1042762Y727328D01*
X1042659Y727848D01*
X1042364Y728290D01*
X1041923Y728584D01*
X1041402Y728688D01*
D02*
G37*
G36*
X965981Y727275D02*
X965460Y727172D01*
X965019Y726877D01*
X964724Y726436D01*
X964620Y725915D01*
X964724Y725394D01*
X965019Y724953D01*
X965460Y724658D01*
X965981Y724555D01*
X966501Y724658D01*
X966943Y724953D01*
X967238Y725394D01*
X967341Y725915D01*
X967238Y726436D01*
X966943Y726877D01*
X966501Y727172D01*
X965981Y727275D01*
D02*
G37*
G36*
X1042000Y724360D02*
X1041479Y724257D01*
X1041038Y723962D01*
X1040743Y723521D01*
X1040640Y723000D01*
X1040743Y722479D01*
X1041038Y722038D01*
X1041479Y721743D01*
X1042000Y721640D01*
X1042521Y721743D01*
X1042962Y722038D01*
X1043257Y722479D01*
X1043360Y723000D01*
X1043257Y723521D01*
X1042962Y723962D01*
X1042521Y724257D01*
X1042000Y724360D01*
D02*
G37*
G36*
X1058500Y723519D02*
X1057979Y723416D01*
X1057538Y723121D01*
X1057243Y722680D01*
X1057140Y722159D01*
X1057243Y721638D01*
X1057538Y721197D01*
X1057979Y720902D01*
X1058500Y720798D01*
X1059021Y720902D01*
X1059462Y721197D01*
X1059757Y721638D01*
X1059860Y722159D01*
X1059757Y722680D01*
X1059462Y723121D01*
X1059021Y723416D01*
X1058500Y723519D01*
D02*
G37*
G36*
X972500Y722167D02*
X971979Y722064D01*
X971538Y721769D01*
X971243Y721328D01*
X971140Y720807D01*
X971243Y720287D01*
X971538Y719845D01*
X971979Y719550D01*
X972500Y719447D01*
X973021Y719550D01*
X973462Y719845D01*
X973757Y720287D01*
X973860Y720807D01*
X973757Y721328D01*
X973462Y721769D01*
X973021Y722064D01*
X972500Y722167D01*
D02*
G37*
G36*
X975116Y719187D02*
X974595Y719084D01*
X974154Y718789D01*
X973859Y718348D01*
X973755Y717827D01*
X973859Y717306D01*
X974154Y716865D01*
X974595Y716570D01*
X975116Y716467D01*
X975636Y716570D01*
X976078Y716865D01*
X976373Y717306D01*
X976476Y717827D01*
X976373Y718348D01*
X976078Y718789D01*
X975636Y719084D01*
X975116Y719187D01*
D02*
G37*
G36*
X874500Y717860D02*
X873979Y717757D01*
X873538Y717462D01*
X873243Y717021D01*
X873140Y716500D01*
X873243Y715979D01*
X873538Y715538D01*
X873979Y715243D01*
X874500Y715140D01*
X875021Y715243D01*
X875462Y715538D01*
X875757Y715979D01*
X875860Y716500D01*
X875757Y717021D01*
X875462Y717462D01*
X875021Y717757D01*
X874500Y717860D01*
D02*
G37*
G36*
X1051992Y716990D02*
X1051472Y716886D01*
X1051030Y716591D01*
X1050735Y716150D01*
X1050632Y715629D01*
X1050735Y715109D01*
X1051030Y714667D01*
X1051472Y714372D01*
X1051992Y714269D01*
X1052513Y714372D01*
X1052954Y714667D01*
X1053249Y715109D01*
X1053353Y715629D01*
X1053249Y716150D01*
X1052954Y716591D01*
X1052513Y716886D01*
X1051992Y716990D01*
D02*
G37*
G36*
X1048153D02*
X1047633Y716886D01*
X1047192Y716591D01*
X1046897Y716150D01*
X1046793Y715629D01*
X1046897Y715109D01*
X1047192Y714667D01*
X1047633Y714372D01*
X1048153Y714269D01*
X1048674Y714372D01*
X1049115Y714667D01*
X1049410Y715109D01*
X1049514Y715629D01*
X1049410Y716150D01*
X1049115Y716591D01*
X1048674Y716886D01*
X1048153Y716990D01*
D02*
G37*
G36*
X951500Y714860D02*
X950979Y714757D01*
X950538Y714462D01*
X950243Y714021D01*
X950140Y713500D01*
X950243Y712979D01*
X950538Y712538D01*
X950979Y712243D01*
X951500Y712140D01*
X952021Y712243D01*
X952462Y712538D01*
X952757Y712979D01*
X952860Y713500D01*
X952757Y714021D01*
X952462Y714462D01*
X952021Y714757D01*
X951500Y714860D01*
D02*
G37*
G36*
X816953Y713632D02*
X816432Y713528D01*
X815991Y713234D01*
X815696Y712792D01*
X815592Y712272D01*
X815696Y711751D01*
X815991Y711310D01*
X816432Y711015D01*
X816953Y710911D01*
X817473Y711015D01*
X817915Y711310D01*
X818210Y711751D01*
X818313Y712272D01*
X818210Y712792D01*
X817915Y713234D01*
X817473Y713528D01*
X816953Y713632D01*
D02*
G37*
G36*
Y710089D02*
X816432Y709985D01*
X815991Y709690D01*
X815696Y709249D01*
X815592Y708728D01*
X815696Y708208D01*
X815991Y707766D01*
X816432Y707472D01*
X816953Y707368D01*
X817473Y707472D01*
X817915Y707766D01*
X818210Y708208D01*
X818313Y708728D01*
X818210Y709249D01*
X817915Y709690D01*
X817473Y709985D01*
X816953Y710089D01*
D02*
G37*
G36*
X1038370Y704538D02*
X1037850Y704434D01*
X1037408Y704139D01*
X1037113Y703698D01*
X1037010Y703177D01*
X1037113Y702657D01*
X1037408Y702215D01*
X1037850Y701921D01*
X1038370Y701817D01*
X1038891Y701921D01*
X1039332Y702215D01*
X1039627Y702657D01*
X1039731Y703177D01*
X1039627Y703698D01*
X1039332Y704139D01*
X1038891Y704434D01*
X1038370Y704538D01*
D02*
G37*
G36*
X1042314Y704360D02*
X1041793Y704257D01*
X1041352Y703962D01*
X1041057Y703521D01*
X1040953Y703000D01*
X1041057Y702479D01*
X1041352Y702038D01*
X1041793Y701743D01*
X1042314Y701640D01*
X1042834Y701743D01*
X1043276Y702038D01*
X1043570Y702479D01*
X1043674Y703000D01*
X1043570Y703521D01*
X1043276Y703962D01*
X1042834Y704257D01*
X1042314Y704360D01*
D02*
G37*
G36*
X1045992Y701655D02*
X1045472Y701552D01*
X1045030Y701257D01*
X1044735Y700815D01*
X1044632Y700295D01*
X1044735Y699774D01*
X1045030Y699333D01*
X1045472Y699038D01*
X1045992Y698934D01*
X1046513Y699038D01*
X1046954Y699333D01*
X1047249Y699774D01*
X1047353Y700295D01*
X1047249Y700815D01*
X1046954Y701257D01*
X1046513Y701552D01*
X1045992Y701655D01*
D02*
G37*
G36*
X975116Y701360D02*
X974595Y701257D01*
X974154Y700962D01*
X973859Y700521D01*
X973755Y700000D01*
X973859Y699479D01*
X974154Y699038D01*
X974595Y698743D01*
X975116Y698640D01*
X975636Y698743D01*
X976078Y699038D01*
X976373Y699479D01*
X976476Y700000D01*
X976373Y700521D01*
X976078Y700962D01*
X975636Y701257D01*
X975116Y701360D01*
D02*
G37*
G36*
X870500Y702346D02*
X869602Y702167D01*
X868841Y701659D01*
X868333Y700898D01*
X868154Y700000D01*
X868333Y699102D01*
X868841Y698341D01*
X869602Y697833D01*
X870500Y697654D01*
X871398Y697833D01*
X872159Y698341D01*
X872667Y699102D01*
X872846Y700000D01*
X872667Y700898D01*
X872159Y701659D01*
X871398Y702167D01*
X870500Y702346D01*
D02*
G37*
G36*
X862500D02*
X861602Y702167D01*
X860841Y701659D01*
X860333Y700898D01*
X860154Y700000D01*
X860333Y699102D01*
X860841Y698341D01*
X861602Y697833D01*
X862500Y697654D01*
X863398Y697833D01*
X864159Y698341D01*
X864667Y699102D01*
X864846Y700000D01*
X864667Y700898D01*
X864159Y701659D01*
X863398Y702167D01*
X862500Y702346D01*
D02*
G37*
G36*
X897279Y695360D02*
X896759Y695257D01*
X896318Y694962D01*
X896301Y694937D01*
X895699D01*
X895682Y694962D01*
X895241Y695257D01*
X894720Y695360D01*
X894200Y695257D01*
X893758Y694962D01*
X893464Y694521D01*
X893360Y694000D01*
X893464Y693479D01*
X893758Y693038D01*
X894200Y692743D01*
X894720Y692640D01*
X895241Y692743D01*
X895682Y693038D01*
X895699Y693063D01*
X896301D01*
X896318Y693038D01*
X896759Y692743D01*
X897279Y692640D01*
X897800Y692743D01*
X898242Y693038D01*
X898536Y693479D01*
X898640Y694000D01*
X898536Y694521D01*
X898242Y694962D01*
X897800Y695257D01*
X897279Y695360D01*
D02*
G37*
G36*
X1131500Y695577D02*
X1130979Y695473D01*
X1130538Y695179D01*
X1130243Y694737D01*
X1130140Y694216D01*
X1130243Y693696D01*
X1130538Y693255D01*
X1130979Y692960D01*
X1131500Y692856D01*
X1132021Y692960D01*
X1132462Y693255D01*
X1132757Y693696D01*
X1132860Y694216D01*
X1132757Y694737D01*
X1132462Y695179D01*
X1132021Y695473D01*
X1131500Y695577D01*
D02*
G37*
G36*
X1077811Y693333D02*
X1077290Y693229D01*
X1076849Y692934D01*
X1076554Y692493D01*
X1076451Y691972D01*
X1076554Y691452D01*
X1076849Y691011D01*
X1077290Y690716D01*
X1077811Y690612D01*
X1078332Y690716D01*
X1078773Y691011D01*
X1079068Y691452D01*
X1079171Y691972D01*
X1079068Y692493D01*
X1078773Y692934D01*
X1078332Y693229D01*
X1077811Y693333D01*
D02*
G37*
G36*
X869000Y691360D02*
X868479Y691257D01*
X868038Y690962D01*
X867743Y690521D01*
X867640Y690000D01*
X867743Y689479D01*
X868038Y689038D01*
X868479Y688743D01*
X869000Y688640D01*
X869521Y688743D01*
X869962Y689038D01*
X870257Y689479D01*
X870360Y690000D01*
X870257Y690521D01*
X869962Y690962D01*
X869521Y691257D01*
X869000Y691360D01*
D02*
G37*
G36*
X864000D02*
X863479Y691257D01*
X863038Y690962D01*
X862743Y690521D01*
X862640Y690000D01*
X862743Y689479D01*
X863038Y689038D01*
X863479Y688743D01*
X864000Y688640D01*
X864521Y688743D01*
X864962Y689038D01*
X865257Y689479D01*
X865360Y690000D01*
X865257Y690521D01*
X864962Y690962D01*
X864521Y691257D01*
X864000Y691360D01*
D02*
G37*
G36*
X1048153Y690360D02*
X1047633Y690257D01*
X1047192Y689962D01*
X1046897Y689521D01*
X1046793Y689000D01*
X1046897Y688479D01*
X1047192Y688038D01*
X1047633Y687743D01*
X1048153Y687640D01*
X1048674Y687743D01*
X1049115Y688038D01*
X1049410Y688479D01*
X1049514Y689000D01*
X1049410Y689521D01*
X1049115Y689962D01*
X1048674Y690257D01*
X1048153Y690360D01*
D02*
G37*
G36*
X876500Y697569D02*
X875188Y697396D01*
X873966Y696889D01*
X872916Y696084D01*
X872110Y695034D01*
X871604Y693812D01*
X871432Y692500D01*
X871604Y691188D01*
X872110Y689966D01*
X872916Y688916D01*
X873966Y688110D01*
X875188Y687604D01*
X876500Y687431D01*
X877812Y687604D01*
X879034Y688110D01*
X880084Y688916D01*
X880890Y689966D01*
X881396Y691188D01*
X881569Y692500D01*
X881396Y693812D01*
X880890Y695034D01*
X880084Y696084D01*
X879034Y696889D01*
X877812Y697396D01*
X876500Y697569D01*
D02*
G37*
G36*
X856500D02*
X855188Y697396D01*
X853966Y696889D01*
X852916Y696084D01*
X852110Y695034D01*
X851604Y693812D01*
X851431Y692500D01*
X851604Y691188D01*
X852110Y689966D01*
X852916Y688916D01*
X853966Y688110D01*
X855188Y687604D01*
X856500Y687431D01*
X857812Y687604D01*
X859034Y688110D01*
X860084Y688916D01*
X860890Y689966D01*
X861396Y691188D01*
X861569Y692500D01*
X861396Y693812D01*
X860890Y695034D01*
X860084Y696084D01*
X859034Y696889D01*
X857812Y697396D01*
X856500Y697569D01*
D02*
G37*
G36*
X915000Y689860D02*
X914479Y689757D01*
X914038Y689462D01*
X913743Y689021D01*
X913640Y688500D01*
X913743Y687979D01*
X914038Y687538D01*
X914479Y687243D01*
X915000Y687140D01*
X915521Y687243D01*
X915962Y687538D01*
X916257Y687979D01*
X916360Y688500D01*
X916257Y689021D01*
X915962Y689462D01*
X915521Y689757D01*
X915000Y689860D01*
D02*
G37*
G36*
X1102772Y688860D02*
X1102251Y688757D01*
X1101810Y688462D01*
X1101515Y688021D01*
X1101411Y687500D01*
X1101515Y686979D01*
X1101810Y686538D01*
X1102251Y686243D01*
X1102772Y686140D01*
X1103292Y686243D01*
X1103734Y686538D01*
X1104029Y686979D01*
X1104132Y687500D01*
X1104029Y688021D01*
X1103734Y688462D01*
X1103292Y688757D01*
X1102772Y688860D01*
D02*
G37*
G36*
X1072231Y688560D02*
X1071710Y688456D01*
X1071269Y688161D01*
X1070974Y687720D01*
X1070870Y687199D01*
X1070974Y686679D01*
X1071269Y686237D01*
X1071710Y685943D01*
X1072231Y685839D01*
X1072751Y685943D01*
X1073193Y686237D01*
X1073487Y686679D01*
X1073591Y687199D01*
X1073487Y687720D01*
X1073193Y688161D01*
X1072751Y688456D01*
X1072231Y688560D01*
D02*
G37*
G36*
X1077362Y686537D02*
X1076842Y686434D01*
X1076400Y686139D01*
X1076105Y685698D01*
X1076002Y685177D01*
X1076105Y684656D01*
X1076400Y684215D01*
X1076842Y683920D01*
X1077362Y683817D01*
X1077883Y683920D01*
X1078324Y684215D01*
X1078619Y684656D01*
X1078723Y685177D01*
X1078619Y685698D01*
X1078324Y686139D01*
X1077883Y686434D01*
X1077362Y686537D01*
D02*
G37*
G36*
X915000Y685055D02*
X914479Y684952D01*
X914038Y684657D01*
X913743Y684216D01*
X913640Y683695D01*
X913743Y683174D01*
X914038Y682733D01*
X914479Y682438D01*
X915000Y682335D01*
X915521Y682438D01*
X915962Y682733D01*
X916257Y683174D01*
X916360Y683695D01*
X916257Y684216D01*
X915962Y684657D01*
X915521Y684952D01*
X915000Y685055D01*
D02*
G37*
G36*
X1124228Y683860D02*
X1123708Y683757D01*
X1123266Y683462D01*
X1122972Y683021D01*
X1122868Y682500D01*
X1122972Y681979D01*
X1123266Y681538D01*
X1123708Y681243D01*
X1124228Y681140D01*
X1124749Y681243D01*
X1125190Y681538D01*
X1125485Y681979D01*
X1125589Y682500D01*
X1125485Y683021D01*
X1125190Y683462D01*
X1124749Y683757D01*
X1124228Y683860D01*
D02*
G37*
G36*
X1102772D02*
X1102251Y683757D01*
X1101810Y683462D01*
X1101515Y683021D01*
X1101411Y682500D01*
X1101515Y681979D01*
X1101810Y681538D01*
X1102251Y681243D01*
X1102772Y681140D01*
X1103292Y681243D01*
X1103734Y681538D01*
X1104029Y681979D01*
X1104132Y682500D01*
X1104029Y683021D01*
X1103734Y683462D01*
X1103292Y683757D01*
X1102772Y683860D01*
D02*
G37*
G36*
X1081477Y683360D02*
X1080957Y683257D01*
X1080515Y682962D01*
X1080220Y682521D01*
X1080117Y682000D01*
X1080220Y681479D01*
X1080515Y681038D01*
X1080957Y680743D01*
X1081477Y680640D01*
X1081998Y680743D01*
X1082439Y681038D01*
X1082734Y681479D01*
X1082838Y682000D01*
X1082734Y682521D01*
X1082439Y682962D01*
X1081998Y683257D01*
X1081477Y683360D01*
D02*
G37*
G36*
X994779Y682081D02*
X994259Y681977D01*
X993818Y681682D01*
X993523Y681241D01*
X993419Y680721D01*
X993523Y680200D01*
X993818Y679759D01*
X994259Y679464D01*
X994779Y679360D01*
X995300Y679464D01*
X995741Y679759D01*
X996036Y680200D01*
X996140Y680721D01*
X996036Y681241D01*
X995741Y681682D01*
X995300Y681977D01*
X994779Y682081D01*
D02*
G37*
G36*
X930500Y680860D02*
X929979Y680757D01*
X929538Y680462D01*
X929243Y680021D01*
X929140Y679500D01*
X929243Y678979D01*
X929538Y678538D01*
X929979Y678243D01*
X930500Y678140D01*
X931021Y678243D01*
X931462Y678538D01*
X931757Y678979D01*
X931860Y679500D01*
X931757Y680021D01*
X931462Y680462D01*
X931021Y680757D01*
X930500Y680860D01*
D02*
G37*
G36*
X866500Y682346D02*
X865602Y682167D01*
X864841Y681659D01*
X864333Y680898D01*
X864154Y680000D01*
X864333Y679102D01*
X864841Y678341D01*
X865602Y677833D01*
X866500Y677654D01*
X867398Y677833D01*
X868159Y678341D01*
X868667Y679102D01*
X868846Y680000D01*
X868667Y680898D01*
X868159Y681659D01*
X867398Y682167D01*
X866500Y682346D01*
D02*
G37*
G36*
X1012000Y677700D02*
X1011479Y677597D01*
X1011038Y677302D01*
X1011029Y677288D01*
X1010467Y677229D01*
X1010444Y677244D01*
X1010025Y677524D01*
X1009505Y677627D01*
X1008984Y677524D01*
X1008543Y677229D01*
X1008248Y676788D01*
X1008144Y676267D01*
X1008248Y675746D01*
X1008543Y675305D01*
X1008984Y675010D01*
X1009505Y674907D01*
X1010025Y675010D01*
X1010467Y675305D01*
X1010476Y675319D01*
X1011038Y675378D01*
X1011061Y675363D01*
X1011479Y675083D01*
X1012000Y674979D01*
X1012521Y675083D01*
X1012962Y675378D01*
X1013257Y675819D01*
X1013360Y676340D01*
X1013257Y676860D01*
X1012962Y677302D01*
X1012521Y677597D01*
X1012000Y677700D01*
D02*
G37*
G36*
X1029258Y677739D02*
X1028737Y677636D01*
X1028296Y677341D01*
X1028048Y676970D01*
X1027782Y676930D01*
X1027505Y676967D01*
X1027258Y677336D01*
X1026817Y677631D01*
X1026296Y677734D01*
X1025776Y677631D01*
X1025334Y677336D01*
X1025040Y676895D01*
X1024936Y676374D01*
X1025040Y675853D01*
X1025334Y675412D01*
X1025776Y675117D01*
X1026296Y675013D01*
X1026817Y675117D01*
X1027258Y675412D01*
X1027506Y675783D01*
X1027772Y675823D01*
X1028050Y675786D01*
X1028296Y675417D01*
X1028737Y675122D01*
X1029258Y675019D01*
X1029778Y675122D01*
X1030220Y675417D01*
X1030515Y675858D01*
X1030618Y676379D01*
X1030515Y676900D01*
X1030220Y677341D01*
X1029778Y677636D01*
X1029258Y677739D01*
D02*
G37*
G36*
X1124228Y678860D02*
X1123708Y678757D01*
X1123266Y678462D01*
X1122972Y678021D01*
X1122868Y677500D01*
X1122972Y676979D01*
X1123266Y676538D01*
X1123708Y676243D01*
X1124228Y676140D01*
X1124749Y676243D01*
X1125190Y676538D01*
X1125485Y676979D01*
X1125589Y677500D01*
X1125485Y678021D01*
X1125190Y678462D01*
X1124749Y678757D01*
X1124228Y678860D01*
D02*
G37*
G36*
X1102772D02*
X1102251Y678757D01*
X1101810Y678462D01*
X1101515Y678021D01*
X1101411Y677500D01*
X1101515Y676979D01*
X1101810Y676538D01*
X1102251Y676243D01*
X1102772Y676140D01*
X1103292Y676243D01*
X1103734Y676538D01*
X1104029Y676979D01*
X1104132Y677500D01*
X1104029Y678021D01*
X1103734Y678462D01*
X1103292Y678757D01*
X1102772Y678860D01*
D02*
G37*
G36*
X994852D02*
X994332Y678757D01*
X993890Y678462D01*
X993596Y678021D01*
X993492Y677500D01*
X993596Y676979D01*
X993890Y676538D01*
X994332Y676243D01*
X994852Y676140D01*
X995373Y676243D01*
X995814Y676538D01*
X996109Y676979D01*
X996213Y677500D01*
X996109Y678021D01*
X995814Y678462D01*
X995373Y678757D01*
X994852Y678860D01*
D02*
G37*
G36*
X1082063Y678112D02*
X1081542Y678009D01*
X1081101Y677714D01*
X1080806Y677273D01*
X1080703Y676752D01*
X1080806Y676231D01*
X1081101Y675790D01*
X1081542Y675495D01*
X1082063Y675392D01*
X1082584Y675495D01*
X1083025Y675790D01*
X1083320Y676231D01*
X1083423Y676752D01*
X1083320Y677273D01*
X1083025Y677714D01*
X1082584Y678009D01*
X1082063Y678112D01*
D02*
G37*
G36*
X831933Y689785D02*
X830557Y689604D01*
X829275Y689073D01*
X828174Y688228D01*
X827329Y687127D01*
X826797Y685845D01*
X826616Y684469D01*
Y680532D01*
X826797Y679155D01*
X827329Y677873D01*
X828174Y676772D01*
X829275Y675927D01*
X830557Y675396D01*
X831933Y675215D01*
X833309Y675396D01*
X834591Y675927D01*
X835693Y676772D01*
X836537Y677873D01*
X837069Y679155D01*
X837250Y680532D01*
Y684469D01*
X837069Y685845D01*
X836537Y687127D01*
X835693Y688228D01*
X834591Y689073D01*
X833309Y689604D01*
X831933Y689785D01*
D02*
G37*
G36*
X876500Y685069D02*
X875188Y684896D01*
X873966Y684389D01*
X872916Y683584D01*
X872110Y682534D01*
X871604Y681312D01*
X871432Y680000D01*
X871604Y678688D01*
X872110Y677466D01*
X872916Y676416D01*
X873966Y675610D01*
X875188Y675104D01*
X876500Y674931D01*
X877812Y675104D01*
X879034Y675610D01*
X880084Y676416D01*
X880890Y677466D01*
X881396Y678688D01*
X881569Y680000D01*
X881396Y681312D01*
X880890Y682534D01*
X880084Y683584D01*
X879034Y684389D01*
X877812Y684896D01*
X876500Y685069D01*
D02*
G37*
G36*
X856500D02*
X855188Y684896D01*
X853966Y684389D01*
X852916Y683584D01*
X852110Y682534D01*
X851604Y681312D01*
X851431Y680000D01*
X851604Y678688D01*
X852110Y677466D01*
X852916Y676416D01*
X853966Y675610D01*
X855188Y675104D01*
X856500Y674931D01*
X857812Y675104D01*
X859034Y675610D01*
X860084Y676416D01*
X860890Y677466D01*
X861396Y678688D01*
X861569Y680000D01*
X861396Y681312D01*
X860890Y682534D01*
X860084Y683584D01*
X859034Y684389D01*
X857812Y684896D01*
X856500Y685069D01*
D02*
G37*
G36*
X915268Y677175D02*
X914747Y677072D01*
X914306Y676777D01*
X914011Y676336D01*
X913907Y675815D01*
X914011Y675294D01*
X914306Y674853D01*
X914747Y674558D01*
X915268Y674455D01*
X915788Y674558D01*
X916230Y674853D01*
X916525Y675294D01*
X916628Y675815D01*
X916525Y676336D01*
X916230Y676777D01*
X915788Y677072D01*
X915268Y677175D01*
D02*
G37*
G36*
X951107Y676399D02*
X950587Y676295D01*
X950145Y676000D01*
X949850Y675559D01*
X949747Y675039D01*
X949850Y674518D01*
X950145Y674077D01*
X950587Y673782D01*
X951107Y673678D01*
X951628Y673782D01*
X952069Y674077D01*
X952364Y674518D01*
X952468Y675039D01*
X952364Y675559D01*
X952069Y676000D01*
X951628Y676295D01*
X951107Y676399D01*
D02*
G37*
G36*
X994740Y675518D02*
X994220Y675414D01*
X993778Y675119D01*
X993483Y674678D01*
X993380Y674157D01*
X993483Y673637D01*
X993778Y673196D01*
X994220Y672901D01*
X994740Y672797D01*
X995261Y672901D01*
X995702Y673196D01*
X995997Y673637D01*
X996101Y674157D01*
X995997Y674678D01*
X995702Y675119D01*
X995261Y675414D01*
X994740Y675518D01*
D02*
G37*
G36*
X962000Y675360D02*
X961479Y675257D01*
X961038Y674962D01*
X960743Y674521D01*
X960640Y674000D01*
X960743Y673479D01*
X961038Y673038D01*
X961479Y672743D01*
X962000Y672640D01*
X962521Y672743D01*
X962962Y673038D01*
X963257Y673479D01*
X963360Y674000D01*
X963257Y674521D01*
X962962Y674962D01*
X962521Y675257D01*
X962000Y675360D01*
D02*
G37*
G36*
X1124228Y673860D02*
X1123708Y673757D01*
X1123266Y673462D01*
X1122972Y673021D01*
X1122868Y672500D01*
X1122972Y671979D01*
X1123266Y671538D01*
X1123708Y671243D01*
X1124228Y671140D01*
X1124749Y671243D01*
X1125190Y671538D01*
X1125485Y671979D01*
X1125589Y672500D01*
X1125485Y673021D01*
X1125190Y673462D01*
X1124749Y673757D01*
X1124228Y673860D01*
D02*
G37*
G36*
X994779Y672175D02*
X994259Y672072D01*
X993818Y671777D01*
X993523Y671336D01*
X993419Y670815D01*
X993523Y670294D01*
X993818Y669853D01*
X994259Y669558D01*
X994779Y669455D01*
X995300Y669558D01*
X995741Y669853D01*
X996036Y670294D01*
X996140Y670815D01*
X996036Y671336D01*
X995741Y671777D01*
X995300Y672072D01*
X994779Y672175D01*
D02*
G37*
G36*
X904500Y670860D02*
X903979Y670757D01*
X903538Y670462D01*
X903243Y670021D01*
X903140Y669500D01*
X903243Y668979D01*
X903538Y668538D01*
X903979Y668243D01*
X904500Y668140D01*
X905021Y668243D01*
X905462Y668538D01*
X905757Y668979D01*
X905860Y669500D01*
X905757Y670021D01*
X905462Y670462D01*
X905021Y670757D01*
X904500Y670860D01*
D02*
G37*
G36*
X1054043Y670809D02*
X1053523Y670706D01*
X1053081Y670411D01*
X1052787Y669969D01*
X1052683Y669449D01*
X1052787Y668928D01*
X1053081Y668487D01*
X1053523Y668192D01*
X1054043Y668088D01*
X1054564Y668192D01*
X1055005Y668487D01*
X1055300Y668928D01*
X1055404Y669449D01*
X1055300Y669969D01*
X1055005Y670411D01*
X1054564Y670706D01*
X1054043Y670809D01*
D02*
G37*
G36*
X959743Y669940D02*
X959223Y669836D01*
X958781Y669541D01*
X958486Y669100D01*
X958383Y668579D01*
X958486Y668059D01*
X958781Y667617D01*
X959223Y667322D01*
X959743Y667219D01*
X960264Y667322D01*
X960705Y667617D01*
X961000Y668059D01*
X961104Y668579D01*
X961000Y669100D01*
X960705Y669541D01*
X960264Y669836D01*
X959743Y669940D01*
D02*
G37*
G36*
X994779Y668833D02*
X994259Y668729D01*
X993818Y668434D01*
X993523Y667993D01*
X993419Y667472D01*
X993523Y666952D01*
X993818Y666510D01*
X994259Y666216D01*
X994779Y666112D01*
X995300Y666216D01*
X995741Y666510D01*
X996036Y666952D01*
X996140Y667472D01*
X996036Y667993D01*
X995741Y668434D01*
X995300Y668729D01*
X994779Y668833D01*
D02*
G37*
G36*
X1050740Y666860D02*
X1050220Y666757D01*
X1049778Y666462D01*
X1049483Y666021D01*
X1049380Y665500D01*
X1049483Y664979D01*
X1049778Y664538D01*
X1050220Y664243D01*
X1050740Y664140D01*
X1051261Y664243D01*
X1051702Y664538D01*
X1051997Y664979D01*
X1052100Y665500D01*
X1051997Y666021D01*
X1051702Y666462D01*
X1051261Y666757D01*
X1050740Y666860D01*
D02*
G37*
G36*
X915268Y665518D02*
X914747Y665414D01*
X914306Y665119D01*
X914011Y664678D01*
X913907Y664157D01*
X914011Y663637D01*
X914306Y663196D01*
X914747Y662901D01*
X915268Y662797D01*
X915788Y662901D01*
X916230Y663196D01*
X916525Y663637D01*
X916628Y664157D01*
X916525Y664678D01*
X916230Y665119D01*
X915788Y665414D01*
X915268Y665518D01*
D02*
G37*
G36*
X1050786Y662951D02*
X1050266Y662848D01*
X1049824Y662553D01*
X1049529Y662112D01*
X1049426Y661591D01*
X1049529Y661070D01*
X1049824Y660629D01*
X1050266Y660334D01*
X1050786Y660231D01*
X1051307Y660334D01*
X1051748Y660629D01*
X1052043Y661070D01*
X1052147Y661591D01*
X1052043Y662112D01*
X1051748Y662553D01*
X1051307Y662848D01*
X1050786Y662951D01*
D02*
G37*
G36*
X979214Y660860D02*
X978694Y660757D01*
X978252Y660462D01*
X977957Y660021D01*
X977854Y659500D01*
X977957Y658979D01*
X978252Y658538D01*
X978694Y658243D01*
X979214Y658140D01*
X979735Y658243D01*
X980176Y658538D01*
X980471Y658979D01*
X980575Y659500D01*
X980471Y660021D01*
X980176Y660462D01*
X979735Y660757D01*
X979214Y660860D01*
D02*
G37*
G36*
X994441Y659415D02*
X993920Y659312D01*
X993479Y659017D01*
X993184Y658576D01*
X993081Y658055D01*
X993184Y657535D01*
X993479Y657093D01*
X993920Y656798D01*
X994441Y656695D01*
X994961Y656798D01*
X995403Y657093D01*
X995698Y657535D01*
X995801Y658055D01*
X995698Y658576D01*
X995403Y659017D01*
X994961Y659312D01*
X994441Y659415D01*
D02*
G37*
G36*
X985000Y659360D02*
X984479Y659257D01*
X984038Y658962D01*
X983743Y658521D01*
X983640Y658000D01*
X983743Y657479D01*
X984038Y657038D01*
X984479Y656743D01*
X985000Y656640D01*
X985521Y656743D01*
X985962Y657038D01*
X986257Y657479D01*
X986360Y658000D01*
X986257Y658521D01*
X985962Y658962D01*
X985521Y659257D01*
X985000Y659360D01*
D02*
G37*
G36*
X904500D02*
X903979Y659257D01*
X903538Y658962D01*
X903243Y658521D01*
X903140Y658000D01*
X903243Y657479D01*
X903538Y657038D01*
X903979Y656743D01*
X904500Y656640D01*
X905021Y656743D01*
X905462Y657038D01*
X905757Y657479D01*
X905860Y658000D01*
X905757Y658521D01*
X905462Y658962D01*
X905021Y659257D01*
X904500Y659360D01*
D02*
G37*
G36*
X1050780Y658860D02*
X1050259Y658757D01*
X1049818Y658462D01*
X1049523Y658021D01*
X1049419Y657500D01*
X1049523Y656979D01*
X1049818Y656538D01*
X1050259Y656243D01*
X1050780Y656140D01*
X1051300Y656243D01*
X1051742Y656538D01*
X1052036Y656979D01*
X1052140Y657500D01*
X1052036Y658021D01*
X1051742Y658462D01*
X1051300Y658757D01*
X1050780Y658860D01*
D02*
G37*
G36*
X994480Y656073D02*
X993960Y655969D01*
X993518Y655675D01*
X993223Y655233D01*
X993120Y654713D01*
X993223Y654192D01*
X993518Y653751D01*
X993960Y653456D01*
X994480Y653352D01*
X995001Y653456D01*
X995442Y653751D01*
X995737Y654192D01*
X995841Y654713D01*
X995737Y655233D01*
X995442Y655675D01*
X995001Y655969D01*
X994480Y656073D01*
D02*
G37*
G36*
X1050780Y655360D02*
X1050259Y655257D01*
X1049818Y654962D01*
X1049523Y654521D01*
X1049419Y654000D01*
X1049523Y653479D01*
X1049818Y653038D01*
X1050259Y652743D01*
X1050780Y652640D01*
X1051300Y652743D01*
X1051742Y653038D01*
X1052036Y653479D01*
X1052140Y654000D01*
X1052036Y654521D01*
X1051742Y654962D01*
X1051300Y655257D01*
X1050780Y655360D01*
D02*
G37*
G36*
X961000D02*
X960479Y655257D01*
X960038Y654962D01*
X959743Y654521D01*
X959640Y654000D01*
X959743Y653479D01*
X960038Y653038D01*
X960479Y652743D01*
X961000Y652640D01*
X961521Y652743D01*
X961962Y653038D01*
X962257Y653479D01*
X962360Y654000D01*
X962257Y654521D01*
X961962Y654962D01*
X961521Y655257D01*
X961000Y655360D01*
D02*
G37*
G36*
X954701Y655061D02*
X954180Y654958D01*
X953739Y654663D01*
X953444Y654221D01*
X953340Y653701D01*
X953444Y653180D01*
X953739Y652739D01*
X954180Y652444D01*
X954701Y652340D01*
X955221Y652444D01*
X955663Y652739D01*
X955958Y653180D01*
X956061Y653701D01*
X955958Y654221D01*
X955663Y654663D01*
X955221Y654958D01*
X954701Y655061D01*
D02*
G37*
G36*
X915268Y654018D02*
X914747Y653914D01*
X914306Y653619D01*
X914011Y653178D01*
X913907Y652658D01*
X914011Y652137D01*
X914306Y651695D01*
X914747Y651401D01*
X915268Y651297D01*
X915788Y651401D01*
X916230Y651695D01*
X916525Y652137D01*
X916628Y652658D01*
X916525Y653178D01*
X916230Y653619D01*
X915788Y653914D01*
X915268Y654018D01*
D02*
G37*
G36*
X831933Y664785D02*
X830557Y664604D01*
X829275Y664073D01*
X828174Y663228D01*
X827329Y662127D01*
X826797Y660845D01*
X826616Y659469D01*
Y655532D01*
X826797Y654155D01*
X827329Y652873D01*
X828174Y651772D01*
X829275Y650927D01*
X830557Y650396D01*
X831933Y650215D01*
X833309Y650396D01*
X834591Y650927D01*
X835693Y651772D01*
X836537Y652873D01*
X837069Y654155D01*
X837250Y655532D01*
Y659469D01*
X837069Y660845D01*
X836537Y662127D01*
X835693Y663228D01*
X834591Y664073D01*
X833309Y664604D01*
X831933Y664785D01*
D02*
G37*
G36*
X994441Y652731D02*
X993920Y652627D01*
X993479Y652332D01*
X993184Y651891D01*
X993081Y651370D01*
X993184Y650849D01*
X993479Y650408D01*
X993920Y650113D01*
X994441Y650010D01*
X994961Y650113D01*
X995403Y650408D01*
X995698Y650849D01*
X995801Y651370D01*
X995698Y651891D01*
X995403Y652332D01*
X994961Y652627D01*
X994441Y652731D01*
D02*
G37*
G36*
X964000Y652360D02*
X963479Y652257D01*
X963038Y651962D01*
X962743Y651521D01*
X962640Y651000D01*
X962743Y650479D01*
X963038Y650038D01*
X963479Y649743D01*
X964000Y649640D01*
X964521Y649743D01*
X964962Y650038D01*
X965257Y650479D01*
X965360Y651000D01*
X965257Y651521D01*
X964962Y651962D01*
X964521Y652257D01*
X964000Y652360D01*
D02*
G37*
G36*
X931114Y651813D02*
X930594Y651710D01*
X930152Y651415D01*
X929858Y650973D01*
X929754Y650453D01*
X929858Y649932D01*
X930152Y649491D01*
X930594Y649196D01*
X931114Y649092D01*
X931635Y649196D01*
X932076Y649491D01*
X932371Y649932D01*
X932475Y650453D01*
X932371Y650973D01*
X932076Y651415D01*
X931635Y651710D01*
X931114Y651813D01*
D02*
G37*
G36*
X994441Y649388D02*
X993920Y649284D01*
X993479Y648989D01*
X993184Y648548D01*
X993081Y648028D01*
X993184Y647507D01*
X993479Y647066D01*
X993920Y646771D01*
X994441Y646667D01*
X994961Y646771D01*
X995403Y647066D01*
X995698Y647507D01*
X995801Y648028D01*
X995698Y648548D01*
X995403Y648989D01*
X994961Y649284D01*
X994441Y649388D01*
D02*
G37*
G36*
X904500Y648860D02*
X903979Y648757D01*
X903538Y648462D01*
X903243Y648021D01*
X903140Y647500D01*
X903243Y646979D01*
X903538Y646538D01*
X903979Y646243D01*
X904500Y646140D01*
X905021Y646243D01*
X905462Y646538D01*
X905757Y646979D01*
X905860Y647500D01*
X905757Y648021D01*
X905462Y648462D01*
X905021Y648757D01*
X904500Y648860D01*
D02*
G37*
G36*
X988000Y648360D02*
X987479Y648257D01*
X987038Y647962D01*
X986743Y647521D01*
X986640Y647000D01*
X986743Y646479D01*
X987038Y646038D01*
X987479Y645743D01*
X988000Y645640D01*
X988521Y645743D01*
X988962Y646038D01*
X989257Y646479D01*
X989360Y647000D01*
X989257Y647521D01*
X988962Y647962D01*
X988521Y648257D01*
X988000Y648360D01*
D02*
G37*
G36*
X974000D02*
X973479Y648257D01*
X973038Y647962D01*
X972743Y647521D01*
X972640Y647000D01*
X972743Y646479D01*
X973038Y646038D01*
X973479Y645743D01*
X974000Y645640D01*
X974521Y645743D01*
X974962Y646038D01*
X975257Y646479D01*
X975360Y647000D01*
X975257Y647521D01*
X974962Y647962D01*
X974521Y648257D01*
X974000Y648360D01*
D02*
G37*
G36*
X970750D02*
X970229Y648257D01*
X969788Y647962D01*
X969493Y647521D01*
X969390Y647000D01*
X969493Y646479D01*
X969788Y646038D01*
X970229Y645743D01*
X970750Y645640D01*
X971271Y645743D01*
X971712Y646038D01*
X972007Y646479D01*
X972110Y647000D01*
X972007Y647521D01*
X971712Y647962D01*
X971271Y648257D01*
X970750Y648360D01*
D02*
G37*
G36*
X967500D02*
X966979Y648257D01*
X966538Y647962D01*
X966243Y647521D01*
X966140Y647000D01*
X966243Y646479D01*
X966538Y646038D01*
X966979Y645743D01*
X967500Y645640D01*
X968021Y645743D01*
X968462Y646038D01*
X968757Y646479D01*
X968860Y647000D01*
X968757Y647521D01*
X968462Y647962D01*
X968021Y648257D01*
X967500Y648360D01*
D02*
G37*
G36*
X1071049Y646371D02*
X1070528Y646267D01*
X1070087Y645972D01*
X1069792Y645531D01*
X1069688Y645010D01*
X1069792Y644490D01*
X1070087Y644048D01*
X1070528Y643753D01*
X1071049Y643650D01*
X1071569Y643753D01*
X1072011Y644048D01*
X1072306Y644490D01*
X1072409Y645010D01*
X1072306Y645531D01*
X1072011Y645972D01*
X1071569Y646267D01*
X1071049Y646371D01*
D02*
G37*
G36*
X994441Y646045D02*
X993920Y645942D01*
X993479Y645647D01*
X993184Y645206D01*
X993081Y644685D01*
X993184Y644164D01*
X993479Y643723D01*
X993920Y643428D01*
X994441Y643325D01*
X994961Y643428D01*
X995403Y643723D01*
X995698Y644164D01*
X995801Y644685D01*
X995698Y645206D01*
X995403Y645647D01*
X994961Y645942D01*
X994441Y646045D01*
D02*
G37*
G36*
X1047529Y643401D02*
X1047009Y643298D01*
X1046567Y643003D01*
X1046272Y642561D01*
X1046169Y642041D01*
X1046272Y641520D01*
X1046567Y641079D01*
X1047009Y640784D01*
X1047529Y640681D01*
X1048050Y640784D01*
X1048491Y641079D01*
X1048786Y641520D01*
X1048890Y642041D01*
X1048786Y642561D01*
X1048491Y643003D01*
X1048050Y643298D01*
X1047529Y643401D01*
D02*
G37*
G36*
X994441Y642703D02*
X993920Y642599D01*
X993479Y642305D01*
X993184Y641863D01*
X993081Y641342D01*
X993184Y640822D01*
X993479Y640381D01*
X993920Y640086D01*
X994441Y639982D01*
X994961Y640086D01*
X995403Y640381D01*
X995698Y640822D01*
X995801Y641342D01*
X995698Y641863D01*
X995403Y642305D01*
X994961Y642599D01*
X994441Y642703D01*
D02*
G37*
G36*
X1080907Y641112D02*
X1080386Y641009D01*
X1079945Y640714D01*
X1079650Y640272D01*
X1079546Y639752D01*
X1079650Y639231D01*
X1079945Y638790D01*
X1080386Y638495D01*
X1080907Y638391D01*
X1081427Y638495D01*
X1081869Y638790D01*
X1082164Y639231D01*
X1082267Y639752D01*
X1082164Y640272D01*
X1081869Y640714D01*
X1081427Y641009D01*
X1080907Y641112D01*
D02*
G37*
G36*
X994441Y639360D02*
X993920Y639257D01*
X993479Y638962D01*
X993184Y638521D01*
X993081Y638000D01*
X993184Y637479D01*
X993479Y637038D01*
X993920Y636743D01*
X994441Y636640D01*
X994961Y636743D01*
X995403Y637038D01*
X995698Y637479D01*
X995801Y638000D01*
X995698Y638521D01*
X995403Y638962D01*
X994961Y639257D01*
X994441Y639360D01*
D02*
G37*
G36*
X1054000Y639313D02*
X1053479Y639210D01*
X1053038Y638915D01*
X1052743Y638473D01*
X1052640Y637953D01*
X1052743Y637432D01*
X1053038Y636991D01*
X1053479Y636696D01*
X1054000Y636592D01*
X1054521Y636696D01*
X1054962Y636991D01*
X1055257Y637432D01*
X1055360Y637953D01*
X1055257Y638473D01*
X1054962Y638915D01*
X1054521Y639210D01*
X1054000Y639313D01*
D02*
G37*
G36*
X931854Y635376D02*
X931334Y635273D01*
X930892Y634978D01*
X930875Y634952D01*
X930274D01*
X930257Y634978D01*
X929816Y635273D01*
X929295Y635376D01*
X928775Y635273D01*
X928333Y634978D01*
X928038Y634536D01*
X927935Y634016D01*
X928038Y633495D01*
X928333Y633054D01*
X928775Y632759D01*
X929295Y632655D01*
X929816Y632759D01*
X930257Y633054D01*
X930274Y633079D01*
X930875D01*
X930892Y633054D01*
X931334Y632759D01*
X931854Y632655D01*
X932375Y632759D01*
X932816Y633054D01*
X933111Y633495D01*
X933215Y634016D01*
X933111Y634536D01*
X932816Y634978D01*
X932375Y635273D01*
X931854Y635376D01*
D02*
G37*
G36*
X979859Y637146D02*
X979338Y637043D01*
X978897Y636748D01*
X978602Y636306D01*
X978498Y635786D01*
X978602Y635265D01*
X978897Y634824D01*
X979338Y634529D01*
X979859Y634425D01*
X980379Y634529D01*
X980820Y634824D01*
X981115Y635265D01*
X981219Y635786D01*
X981115Y636306D01*
X980820Y636748D01*
X980379Y637043D01*
X979859Y637146D01*
D02*
G37*
G36*
X994441Y636018D02*
X993920Y635914D01*
X993479Y635619D01*
X993184Y635178D01*
X993081Y634657D01*
X993184Y634137D01*
X993479Y633696D01*
X993920Y633401D01*
X994441Y633297D01*
X994961Y633401D01*
X995403Y633696D01*
X995698Y634137D01*
X995801Y634657D01*
X995698Y635178D01*
X995403Y635619D01*
X994961Y635914D01*
X994441Y636018D01*
D02*
G37*
G36*
X1054130Y635368D02*
X1053609Y635265D01*
X1053168Y634970D01*
X1052873Y634528D01*
X1052769Y634008D01*
X1052873Y633487D01*
X1053168Y633046D01*
X1053609Y632751D01*
X1054130Y632648D01*
X1054650Y632751D01*
X1055092Y633046D01*
X1055387Y633487D01*
X1055490Y634008D01*
X1055387Y634528D01*
X1055092Y634970D01*
X1054650Y635265D01*
X1054130Y635368D01*
D02*
G37*
G36*
X1038500Y633360D02*
X1037979Y633257D01*
X1037538Y632962D01*
X1037243Y632521D01*
X1037140Y632000D01*
X1037243Y631479D01*
X1037538Y631038D01*
X1037979Y630743D01*
X1038500Y630640D01*
X1039021Y630743D01*
X1039462Y631038D01*
X1039757Y631479D01*
X1039860Y632000D01*
X1039757Y632521D01*
X1039462Y632962D01*
X1039021Y633257D01*
X1038500Y633360D01*
D02*
G37*
G36*
X1044157Y633204D02*
X1043636Y633100D01*
X1043195Y632805D01*
X1042900Y632364D01*
X1042796Y631843D01*
X1042900Y631323D01*
X1043195Y630881D01*
X1043636Y630586D01*
X1044157Y630483D01*
X1044677Y630586D01*
X1045119Y630881D01*
X1045414Y631323D01*
X1045517Y631843D01*
X1045414Y632364D01*
X1045119Y632805D01*
X1044677Y633100D01*
X1044157Y633204D01*
D02*
G37*
G36*
X980405Y632992D02*
X979885Y632888D01*
X979443Y632593D01*
X979149Y632152D01*
X979045Y631631D01*
X979149Y631111D01*
X979443Y630669D01*
X979885Y630374D01*
X980405Y630271D01*
X980926Y630374D01*
X981367Y630669D01*
X981662Y631111D01*
X981766Y631631D01*
X981662Y632152D01*
X981367Y632593D01*
X980926Y632888D01*
X980405Y632992D01*
D02*
G37*
G36*
X994441Y632675D02*
X993920Y632572D01*
X993479Y632277D01*
X993184Y631836D01*
X993081Y631315D01*
X993184Y630794D01*
X993479Y630353D01*
X993920Y630058D01*
X994441Y629955D01*
X994961Y630058D01*
X995403Y630353D01*
X995698Y630794D01*
X995801Y631315D01*
X995698Y631836D01*
X995403Y632277D01*
X994961Y632572D01*
X994441Y632675D01*
D02*
G37*
G36*
X1066992Y631241D02*
X1066472Y631138D01*
X1066031Y630843D01*
X1065736Y630402D01*
X1065632Y629881D01*
X1065736Y629360D01*
X1066031Y628919D01*
X1066472Y628624D01*
X1066992Y628521D01*
X1067513Y628624D01*
X1067954Y628919D01*
X1068249Y629360D01*
X1068353Y629881D01*
X1068249Y630402D01*
X1067954Y630843D01*
X1067513Y631138D01*
X1066992Y631241D01*
D02*
G37*
G36*
X1014500Y629360D02*
X1013979Y629257D01*
X1013538Y628962D01*
X1013243Y628521D01*
X1013140Y628000D01*
X1013243Y627479D01*
X1013538Y627038D01*
X1013979Y626743D01*
X1014500Y626640D01*
X1015021Y626743D01*
X1015462Y627038D01*
X1015757Y627479D01*
X1015860Y628000D01*
X1015757Y628521D01*
X1015462Y628962D01*
X1015021Y629257D01*
X1014500Y629360D01*
D02*
G37*
G36*
X994441Y629333D02*
X993920Y629229D01*
X993479Y628934D01*
X993184Y628493D01*
X993081Y627972D01*
X993184Y627452D01*
X993479Y627010D01*
X993920Y626716D01*
X994441Y626612D01*
X994961Y626716D01*
X995403Y627010D01*
X995698Y627452D01*
X995801Y627972D01*
X995698Y628493D01*
X995403Y628934D01*
X994961Y629229D01*
X994441Y629333D01*
D02*
G37*
G36*
X854855Y628567D02*
X854334Y628463D01*
X853893Y628168D01*
X853598Y627727D01*
X853494Y627206D01*
X853598Y626686D01*
X853893Y626244D01*
X854334Y625949D01*
X854855Y625846D01*
X855375Y625949D01*
X855817Y626244D01*
X856112Y626686D01*
X856215Y627206D01*
X856112Y627727D01*
X855817Y628168D01*
X855375Y628463D01*
X854855Y628567D01*
D02*
G37*
G36*
X964000Y626681D02*
X963479Y626578D01*
X963038Y626283D01*
X962743Y625842D01*
X962640Y625321D01*
X962743Y624800D01*
X963038Y624359D01*
X963479Y624064D01*
X964000Y623960D01*
X964521Y624064D01*
X964962Y624359D01*
X965257Y624800D01*
X965360Y625321D01*
X965257Y625842D01*
X964962Y626283D01*
X964521Y626578D01*
X964000Y626681D01*
D02*
G37*
G36*
X1097055Y626360D02*
X1096534Y626257D01*
X1096093Y625962D01*
X1095798Y625521D01*
X1095694Y625000D01*
X1095798Y624479D01*
X1096093Y624038D01*
X1096534Y623743D01*
X1097055Y623640D01*
X1097575Y623743D01*
X1098017Y624038D01*
X1098312Y624479D01*
X1098415Y625000D01*
X1098312Y625521D01*
X1098017Y625962D01*
X1097575Y626257D01*
X1097055Y626360D01*
D02*
G37*
G36*
X1088000D02*
X1087479Y626257D01*
X1087038Y625962D01*
X1086743Y625521D01*
X1086640Y625000D01*
X1086743Y624479D01*
X1087038Y624038D01*
X1087479Y623743D01*
X1088000Y623640D01*
X1088521Y623743D01*
X1088962Y624038D01*
X1089257Y624479D01*
X1089360Y625000D01*
X1089257Y625521D01*
X1088962Y625962D01*
X1088521Y626257D01*
X1088000Y626360D01*
D02*
G37*
G36*
X994441Y625990D02*
X993920Y625887D01*
X993479Y625592D01*
X993184Y625150D01*
X993081Y624630D01*
X993184Y624109D01*
X993479Y623668D01*
X993920Y623373D01*
X994441Y623270D01*
X994961Y623373D01*
X995403Y623668D01*
X995698Y624109D01*
X995801Y624630D01*
X995698Y625150D01*
X995403Y625592D01*
X994961Y625887D01*
X994441Y625990D01*
D02*
G37*
G36*
X934518Y625586D02*
X933997Y625482D01*
X933556Y625187D01*
X933261Y624746D01*
X933157Y624226D01*
X933261Y623705D01*
X933556Y623264D01*
X933997Y622969D01*
X934518Y622865D01*
X935038Y622969D01*
X935480Y623264D01*
X935775Y623705D01*
X935878Y624226D01*
X935775Y624746D01*
X935480Y625187D01*
X935038Y625482D01*
X934518Y625586D01*
D02*
G37*
G36*
X850138Y625132D02*
X849617Y625029D01*
X849176Y624734D01*
X848881Y624292D01*
X848777Y623772D01*
X848881Y623251D01*
X849176Y622810D01*
X849617Y622515D01*
X850138Y622411D01*
X850658Y622515D01*
X851100Y622810D01*
X851395Y623251D01*
X851498Y623772D01*
X851395Y624292D01*
X851100Y624734D01*
X850658Y625029D01*
X850138Y625132D01*
D02*
G37*
G36*
X861000Y625123D02*
X860479Y625019D01*
X860038Y624724D01*
X859743Y624283D01*
X859640Y623763D01*
X859743Y623242D01*
X860038Y622801D01*
X860479Y622506D01*
X861000Y622402D01*
X861521Y622506D01*
X861962Y622801D01*
X862257Y623242D01*
X862360Y623763D01*
X862257Y624283D01*
X861962Y624724D01*
X861521Y625019D01*
X861000Y625123D01*
D02*
G37*
G36*
X1044157Y623749D02*
X1043636Y623645D01*
X1043195Y623351D01*
X1042900Y622909D01*
X1042796Y622389D01*
X1042900Y621868D01*
X1043195Y621427D01*
X1043636Y621132D01*
X1044157Y621028D01*
X1044677Y621132D01*
X1045119Y621427D01*
X1045414Y621868D01*
X1045517Y622389D01*
X1045414Y622909D01*
X1045119Y623351D01*
X1044677Y623645D01*
X1044157Y623749D01*
D02*
G37*
G36*
X1067016Y623565D02*
X1066495Y623462D01*
X1066054Y623167D01*
X1065759Y622725D01*
X1065655Y622205D01*
X1065759Y621684D01*
X1066054Y621243D01*
X1066495Y620948D01*
X1067016Y620844D01*
X1067536Y620948D01*
X1067978Y621243D01*
X1068273Y621684D01*
X1068376Y622205D01*
X1068273Y622725D01*
X1067978Y623167D01*
X1067536Y623462D01*
X1067016Y623565D01*
D02*
G37*
G36*
X964000Y623360D02*
X963479Y623257D01*
X963038Y622962D01*
X962743Y622521D01*
X962640Y622000D01*
X962743Y621479D01*
X963038Y621038D01*
X963479Y620743D01*
X964000Y620640D01*
X964521Y620743D01*
X964962Y621038D01*
X965257Y621479D01*
X965360Y622000D01*
X965257Y622521D01*
X964962Y622962D01*
X964521Y623257D01*
X964000Y623360D01*
D02*
G37*
G36*
X994441Y622648D02*
X993920Y622544D01*
X993479Y622249D01*
X993184Y621808D01*
X993081Y621287D01*
X993184Y620767D01*
X993479Y620326D01*
X993920Y620031D01*
X994441Y619927D01*
X994961Y620031D01*
X995403Y620326D01*
X995698Y620767D01*
X995801Y621287D01*
X995698Y621808D01*
X995403Y622249D01*
X994961Y622544D01*
X994441Y622648D01*
D02*
G37*
G36*
X937046Y621597D02*
X936525Y621493D01*
X936084Y621198D01*
X935789Y620757D01*
X935686Y620236D01*
X935789Y619716D01*
X936084Y619274D01*
X936525Y618979D01*
X937046Y618876D01*
X937566Y618979D01*
X938008Y619274D01*
X938303Y619716D01*
X938406Y620236D01*
X938303Y620757D01*
X938008Y621198D01*
X937566Y621493D01*
X937046Y621597D01*
D02*
G37*
G36*
X1115000Y618329D02*
X1114479Y618225D01*
X1114038Y617930D01*
X1113743Y617489D01*
X1113640Y616968D01*
X1113743Y616448D01*
X1114038Y616007D01*
X1114479Y615712D01*
X1115000Y615608D01*
X1115521Y615712D01*
X1115962Y616007D01*
X1116257Y616448D01*
X1116360Y616968D01*
X1116257Y617489D01*
X1115962Y617930D01*
X1115521Y618225D01*
X1115000Y618329D01*
D02*
G37*
G36*
X854862Y618045D02*
X854342Y617942D01*
X853900Y617647D01*
X853605Y617206D01*
X853502Y616685D01*
X853605Y616164D01*
X853900Y615723D01*
X854342Y615428D01*
X854862Y615325D01*
X855383Y615428D01*
X855824Y615723D01*
X856119Y616164D01*
X856223Y616685D01*
X856119Y617206D01*
X855824Y617647D01*
X855383Y617942D01*
X854862Y618045D01*
D02*
G37*
G36*
X1082118Y615683D02*
X1081598Y615580D01*
X1081156Y615285D01*
X1080861Y614843D01*
X1080758Y614323D01*
X1080861Y613802D01*
X1081156Y613361D01*
X1081598Y613066D01*
X1082118Y612962D01*
X1082639Y613066D01*
X1083080Y613361D01*
X1083375Y613802D01*
X1083479Y614323D01*
X1083375Y614843D01*
X1083080Y615285D01*
X1082639Y615580D01*
X1082118Y615683D01*
D02*
G37*
G36*
X1049907Y615481D02*
X1049386Y615377D01*
X1048945Y615082D01*
X1048650Y614641D01*
X1048546Y614120D01*
X1048650Y613600D01*
X1048945Y613158D01*
X1049386Y612863D01*
X1049907Y612760D01*
X1050427Y612863D01*
X1050869Y613158D01*
X1051164Y613600D01*
X1051267Y614120D01*
X1051164Y614641D01*
X1050869Y615082D01*
X1050427Y615377D01*
X1049907Y615481D01*
D02*
G37*
G36*
X1032657D02*
X1032136Y615377D01*
X1031695Y615082D01*
X1031400Y614641D01*
X1031296Y614120D01*
X1031400Y613600D01*
X1031695Y613158D01*
X1032136Y612863D01*
X1032657Y612760D01*
X1033177Y612863D01*
X1033619Y613158D01*
X1033914Y613600D01*
X1034017Y614120D01*
X1033914Y614641D01*
X1033619Y615082D01*
X1033177Y615377D01*
X1032657Y615481D01*
D02*
G37*
G36*
X986657D02*
X986136Y615377D01*
X985695Y615082D01*
X985400Y614641D01*
X985296Y614120D01*
X985400Y613600D01*
X985695Y613158D01*
X986136Y612863D01*
X986657Y612760D01*
X987177Y612863D01*
X987619Y613158D01*
X987914Y613600D01*
X988017Y614120D01*
X987914Y614641D01*
X987619Y615082D01*
X987177Y615377D01*
X986657Y615481D01*
D02*
G37*
G36*
X969091Y612070D02*
X968571Y611966D01*
X968129Y611671D01*
X967834Y611230D01*
X967731Y610709D01*
X967834Y610189D01*
X968129Y609748D01*
X968571Y609453D01*
X969091Y609349D01*
X969612Y609453D01*
X970053Y609748D01*
X970348Y610189D01*
X970452Y610709D01*
X970348Y611230D01*
X970053Y611671D01*
X969612Y611966D01*
X969091Y612070D01*
D02*
G37*
G36*
X1111000Y611860D02*
X1110479Y611757D01*
X1110038Y611462D01*
X1109743Y611021D01*
X1109640Y610500D01*
X1109743Y609979D01*
X1110038Y609538D01*
X1110479Y609243D01*
X1111000Y609140D01*
X1111521Y609243D01*
X1111962Y609538D01*
X1112257Y609979D01*
X1112360Y610500D01*
X1112257Y611021D01*
X1111962Y611462D01*
X1111521Y611757D01*
X1111000Y611860D01*
D02*
G37*
G36*
X1017500Y610860D02*
X1016979Y610757D01*
X1016538Y610462D01*
X1016243Y610021D01*
X1016140Y609500D01*
X1016243Y608979D01*
X1016538Y608538D01*
X1016979Y608243D01*
X1017500Y608140D01*
X1018021Y608243D01*
X1018462Y608538D01*
X1018757Y608979D01*
X1018860Y609500D01*
X1018757Y610021D01*
X1018462Y610462D01*
X1018021Y610757D01*
X1017500Y610860D01*
D02*
G37*
G36*
X1012500D02*
X1011979Y610757D01*
X1011538Y610462D01*
X1011243Y610021D01*
X1011140Y609500D01*
X1011243Y608979D01*
X1011538Y608538D01*
X1011979Y608243D01*
X1012500Y608140D01*
X1013021Y608243D01*
X1013462Y608538D01*
X1013757Y608979D01*
X1013860Y609500D01*
X1013757Y610021D01*
X1013462Y610462D01*
X1013021Y610757D01*
X1012500Y610860D01*
D02*
G37*
G36*
X960640Y610101D02*
X960119Y609998D01*
X959678Y609703D01*
X959383Y609262D01*
X959279Y608741D01*
X959383Y608220D01*
X959678Y607779D01*
X960119Y607484D01*
X960640Y607381D01*
X961160Y607484D01*
X961602Y607779D01*
X961897Y608220D01*
X962000Y608741D01*
X961897Y609262D01*
X961602Y609703D01*
X961160Y609998D01*
X960640Y610101D01*
D02*
G37*
G36*
X1067016Y608211D02*
X1066495Y608107D01*
X1066054Y607812D01*
X1065759Y607371D01*
X1065655Y606850D01*
X1065759Y606330D01*
X1066054Y605889D01*
X1066495Y605593D01*
X1067016Y605490D01*
X1067536Y605593D01*
X1067978Y605889D01*
X1068273Y606330D01*
X1068376Y606850D01*
X1068273Y607371D01*
X1067978Y607812D01*
X1067536Y608107D01*
X1067016Y608211D01*
D02*
G37*
G36*
X1121500Y607002D02*
X1120979Y606899D01*
X1120538Y606604D01*
X1120243Y606162D01*
X1120140Y605642D01*
X1120243Y605121D01*
X1120538Y604680D01*
X1120979Y604385D01*
X1121500Y604281D01*
X1122021Y604385D01*
X1122462Y604680D01*
X1122757Y605121D01*
X1122860Y605642D01*
X1122757Y606162D01*
X1122462Y606604D01*
X1122021Y606899D01*
X1121500Y607002D01*
D02*
G37*
G36*
X1015407Y605981D02*
X1014886Y605877D01*
X1014445Y605582D01*
X1014150Y605141D01*
X1014046Y604620D01*
X1014150Y604100D01*
X1014445Y603658D01*
X1014886Y603363D01*
X1015407Y603260D01*
X1015927Y603363D01*
X1016369Y603658D01*
X1016664Y604100D01*
X1016767Y604620D01*
X1016664Y605141D01*
X1016369Y605582D01*
X1015927Y605877D01*
X1015407Y605981D01*
D02*
G37*
G36*
X980907D02*
X980386Y605877D01*
X979945Y605582D01*
X979650Y605141D01*
X979546Y604620D01*
X979650Y604100D01*
X979945Y603658D01*
X980386Y603363D01*
X980907Y603260D01*
X981427Y603363D01*
X981869Y603658D01*
X982164Y604100D01*
X982267Y604620D01*
X982164Y605141D01*
X981869Y605582D01*
X981427Y605877D01*
X980907Y605981D01*
D02*
G37*
G36*
X1038407Y605860D02*
X1037886Y605757D01*
X1037445Y605462D01*
X1037150Y605021D01*
X1037046Y604500D01*
X1037150Y603979D01*
X1037445Y603538D01*
X1037886Y603243D01*
X1038407Y603140D01*
X1038927Y603243D01*
X1039369Y603538D01*
X1039664Y603979D01*
X1039767Y604500D01*
X1039664Y605021D01*
X1039369Y605462D01*
X1038927Y605757D01*
X1038407Y605860D01*
D02*
G37*
G36*
X969407D02*
X968886Y605757D01*
X968445Y605462D01*
X968150Y605021D01*
X968046Y604500D01*
X968150Y603979D01*
X968445Y603538D01*
X968886Y603243D01*
X969407Y603140D01*
X969927Y603243D01*
X970369Y603538D01*
X970664Y603979D01*
X970767Y604500D01*
X970664Y605021D01*
X970369Y605462D01*
X969927Y605757D01*
X969407Y605860D01*
D02*
G37*
G36*
X1077366Y605849D02*
X1076845Y605745D01*
X1076404Y605450D01*
X1076109Y605009D01*
X1076006Y604488D01*
X1076109Y603968D01*
X1076404Y603526D01*
X1076845Y603231D01*
X1077366Y603128D01*
X1077887Y603231D01*
X1078328Y603526D01*
X1078623Y603968D01*
X1078726Y604488D01*
X1078623Y605009D01*
X1078328Y605450D01*
X1077887Y605745D01*
X1077366Y605849D01*
D02*
G37*
G36*
X954862Y605203D02*
X954342Y605099D01*
X953900Y604805D01*
X953605Y604363D01*
X953502Y603842D01*
X953605Y603322D01*
X953900Y602881D01*
X954342Y602586D01*
X954862Y602482D01*
X955383Y602586D01*
X955824Y602881D01*
X956119Y603322D01*
X956223Y603842D01*
X956119Y604363D01*
X955824Y604805D01*
X955383Y605099D01*
X954862Y605203D01*
D02*
G37*
G36*
X937853Y603802D02*
X937332Y603698D01*
X936891Y603403D01*
X936596Y602962D01*
X936492Y602441D01*
X936596Y601921D01*
X936891Y601479D01*
X937332Y601185D01*
X937853Y601081D01*
X938373Y601185D01*
X938815Y601479D01*
X939109Y601921D01*
X939213Y602441D01*
X939109Y602962D01*
X938815Y603403D01*
X938373Y603698D01*
X937853Y603802D01*
D02*
G37*
G36*
X831933Y614785D02*
X830557Y614604D01*
X829275Y614073D01*
X828174Y613228D01*
X827329Y612127D01*
X826797Y610845D01*
X826616Y609469D01*
Y605532D01*
X826797Y604155D01*
X827329Y602873D01*
X828174Y601772D01*
X829275Y600927D01*
X830557Y600396D01*
X831933Y600215D01*
X833309Y600396D01*
X834591Y600927D01*
X835693Y601772D01*
X836537Y602873D01*
X837069Y604155D01*
X837250Y605532D01*
Y609469D01*
X837069Y610845D01*
X836537Y612127D01*
X835693Y613228D01*
X834591Y614073D01*
X833309Y614604D01*
X831933Y614785D01*
D02*
G37*
G36*
X1051371Y601001D02*
X1050850Y600898D01*
X1050409Y600603D01*
X1050114Y600162D01*
X1050010Y599641D01*
X1050114Y599120D01*
X1050409Y598679D01*
X1050850Y598384D01*
X1051371Y598280D01*
X1051892Y598384D01*
X1052333Y598679D01*
X1052628Y599120D01*
X1052731Y599641D01*
X1052628Y600162D01*
X1052333Y600603D01*
X1051892Y600898D01*
X1051371Y601001D01*
D02*
G37*
G36*
X1028500Y599860D02*
X1027979Y599757D01*
X1027538Y599462D01*
X1027243Y599021D01*
X1027140Y598500D01*
X1027243Y597979D01*
X1027538Y597538D01*
X1027979Y597243D01*
X1028500Y597140D01*
X1029021Y597243D01*
X1029462Y597538D01*
X1029757Y597979D01*
X1029860Y598500D01*
X1029757Y599021D01*
X1029462Y599462D01*
X1029021Y599757D01*
X1028500Y599860D01*
D02*
G37*
G36*
X1024713D02*
X1024192Y599757D01*
X1023751Y599462D01*
X1023456Y599021D01*
X1023353Y598500D01*
X1023456Y597979D01*
X1023751Y597538D01*
X1024192Y597243D01*
X1024713Y597140D01*
X1025234Y597243D01*
X1025675Y597538D01*
X1025970Y597979D01*
X1026073Y598500D01*
X1025970Y599021D01*
X1025675Y599462D01*
X1025234Y599757D01*
X1024713Y599860D01*
D02*
G37*
G36*
X1020595D02*
X1020074Y599757D01*
X1019633Y599462D01*
X1019338Y599021D01*
X1019234Y598500D01*
X1019338Y597979D01*
X1019633Y597538D01*
X1020074Y597243D01*
X1020595Y597140D01*
X1021115Y597243D01*
X1021556Y597538D01*
X1021851Y597979D01*
X1021955Y598500D01*
X1021851Y599021D01*
X1021556Y599462D01*
X1021115Y599757D01*
X1020595Y599860D01*
D02*
G37*
G36*
X1008784D02*
X1008263Y599757D01*
X1007821Y599462D01*
X1007527Y599021D01*
X1007423Y598500D01*
X1007527Y597979D01*
X1007821Y597538D01*
X1008263Y597243D01*
X1008784Y597140D01*
X1009304Y597243D01*
X1009745Y597538D01*
X1010040Y597979D01*
X1010144Y598500D01*
X1010040Y599021D01*
X1009745Y599462D01*
X1009304Y599757D01*
X1008784Y599860D01*
D02*
G37*
G36*
X1005000D02*
X1004479Y599757D01*
X1004038Y599462D01*
X1003743Y599021D01*
X1003640Y598500D01*
X1003743Y597979D01*
X1004038Y597538D01*
X1004479Y597243D01*
X1005000Y597140D01*
X1005521Y597243D01*
X1005962Y597538D01*
X1006257Y597979D01*
X1006360Y598500D01*
X1006257Y599021D01*
X1005962Y599462D01*
X1005521Y599757D01*
X1005000Y599860D01*
D02*
G37*
G36*
X1000909D02*
X1000389Y599757D01*
X999947Y599462D01*
X999653Y599021D01*
X999549Y598500D01*
X999653Y597979D01*
X999947Y597538D01*
X1000389Y597243D01*
X1000909Y597140D01*
X1001430Y597243D01*
X1001871Y597538D01*
X1002166Y597979D01*
X1002270Y598500D01*
X1002166Y599021D01*
X1001871Y599462D01*
X1001430Y599757D01*
X1000909Y599860D01*
D02*
G37*
G36*
X996972D02*
X996452Y599757D01*
X996010Y599462D01*
X995716Y599021D01*
X995612Y598500D01*
X995716Y597979D01*
X996010Y597538D01*
X996452Y597243D01*
X996972Y597140D01*
X997493Y597243D01*
X997934Y597538D01*
X998229Y597979D01*
X998333Y598500D01*
X998229Y599021D01*
X997934Y599462D01*
X997493Y599757D01*
X996972Y599860D01*
D02*
G37*
G36*
X993035D02*
X992515Y599757D01*
X992074Y599462D01*
X991779Y599021D01*
X991675Y598500D01*
X991779Y597979D01*
X992074Y597538D01*
X992515Y597243D01*
X993035Y597140D01*
X993556Y597243D01*
X993997Y597538D01*
X994292Y597979D01*
X994396Y598500D01*
X994292Y599021D01*
X993997Y599462D01*
X993556Y599757D01*
X993035Y599860D01*
D02*
G37*
G36*
X989098D02*
X988578Y599757D01*
X988136Y599462D01*
X987842Y599021D01*
X987738Y598500D01*
X987842Y597979D01*
X988136Y597538D01*
X988578Y597243D01*
X989098Y597140D01*
X989619Y597243D01*
X990060Y597538D01*
X990355Y597979D01*
X990459Y598500D01*
X990355Y599021D01*
X990060Y599462D01*
X989619Y599757D01*
X989098Y599860D01*
D02*
G37*
G36*
X985161D02*
X984641Y599757D01*
X984200Y599462D01*
X983905Y599021D01*
X983801Y598500D01*
X983905Y597979D01*
X984200Y597538D01*
X984641Y597243D01*
X985161Y597140D01*
X985682Y597243D01*
X986123Y597538D01*
X986418Y597979D01*
X986522Y598500D01*
X986418Y599021D01*
X986123Y599462D01*
X985682Y599757D01*
X985161Y599860D01*
D02*
G37*
G36*
X967445D02*
X966924Y599757D01*
X966483Y599462D01*
X966188Y599021D01*
X966084Y598500D01*
X966188Y597979D01*
X966483Y597538D01*
X966924Y597243D01*
X967445Y597140D01*
X967966Y597243D01*
X968407Y597538D01*
X968702Y597979D01*
X968805Y598500D01*
X968702Y599021D01*
X968407Y599462D01*
X967966Y599757D01*
X967445Y599860D01*
D02*
G37*
G36*
X1058000Y598025D02*
X1057479Y597921D01*
X1057038Y597626D01*
X1056743Y597185D01*
X1056640Y596664D01*
X1056743Y596144D01*
X1057038Y595703D01*
X1057479Y595408D01*
X1058000Y595304D01*
X1058521Y595408D01*
X1058962Y595703D01*
X1059257Y596144D01*
X1059360Y596664D01*
X1059257Y597185D01*
X1058962Y597626D01*
X1058521Y597921D01*
X1058000Y598025D01*
D02*
G37*
G36*
X935000Y595183D02*
X934479Y595079D01*
X934038Y594784D01*
X933743Y594343D01*
X933640Y593823D01*
X933743Y593302D01*
X934038Y592861D01*
X934479Y592566D01*
X935000Y592462D01*
X935521Y592566D01*
X935962Y592861D01*
X936257Y593302D01*
X936360Y593823D01*
X936257Y594343D01*
X935962Y594784D01*
X935521Y595079D01*
X935000Y595183D01*
D02*
G37*
G36*
X1120643Y594411D02*
X1120122Y594308D01*
X1119681Y594013D01*
X1119386Y593571D01*
X1119282Y593051D01*
X1119386Y592530D01*
X1119681Y592089D01*
X1120122Y591794D01*
X1120643Y591690D01*
X1121163Y591794D01*
X1121605Y592089D01*
X1121900Y592530D01*
X1122003Y593051D01*
X1121900Y593571D01*
X1121605Y594013D01*
X1121163Y594308D01*
X1120643Y594411D01*
D02*
G37*
G36*
X1111000Y590821D02*
X1110479Y590718D01*
X1110038Y590423D01*
X1109743Y589981D01*
X1109640Y589461D01*
X1109743Y588940D01*
X1110038Y588499D01*
X1110479Y588204D01*
X1111000Y588100D01*
X1111521Y588204D01*
X1111962Y588499D01*
X1112257Y588940D01*
X1112360Y589461D01*
X1112257Y589981D01*
X1111962Y590423D01*
X1111521Y590718D01*
X1111000Y590821D01*
D02*
G37*
G36*
X1089000Y588124D02*
X1088479Y588021D01*
X1088038Y587726D01*
X1087743Y587284D01*
X1087640Y586764D01*
X1087743Y586243D01*
X1088038Y585802D01*
X1088479Y585507D01*
X1089000Y585403D01*
X1089521Y585507D01*
X1089962Y585802D01*
X1090257Y586243D01*
X1090360Y586764D01*
X1090257Y587284D01*
X1089962Y587726D01*
X1089521Y588021D01*
X1089000Y588124D01*
D02*
G37*
G36*
X1036672Y586688D02*
X1036152Y586584D01*
X1035711Y586290D01*
X1035416Y585848D01*
X1035312Y585328D01*
X1035416Y584807D01*
X1035711Y584366D01*
X1036152Y584071D01*
X1036672Y583967D01*
X1037193Y584071D01*
X1037634Y584366D01*
X1037929Y584807D01*
X1038033Y585328D01*
X1037929Y585848D01*
X1037634Y586290D01*
X1037193Y586584D01*
X1036672Y586688D01*
D02*
G37*
G36*
X1032345D02*
X1031824Y586584D01*
X1031383Y586290D01*
X1031088Y585848D01*
X1030984Y585328D01*
X1031088Y584807D01*
X1031383Y584366D01*
X1031824Y584071D01*
X1032345Y583967D01*
X1032866Y584071D01*
X1033307Y584366D01*
X1033602Y584807D01*
X1033705Y585328D01*
X1033602Y585848D01*
X1033307Y586290D01*
X1032866Y586584D01*
X1032345Y586688D01*
D02*
G37*
G36*
X980500Y585360D02*
X979979Y585257D01*
X979538Y584962D01*
X979243Y584521D01*
X979140Y584000D01*
X979243Y583479D01*
X979538Y583038D01*
X979979Y582743D01*
X980500Y582640D01*
X981021Y582743D01*
X981462Y583038D01*
X981757Y583479D01*
X981860Y584000D01*
X981757Y584521D01*
X981462Y584962D01*
X981021Y585257D01*
X980500Y585360D01*
D02*
G37*
G36*
X1049177Y583360D02*
X1048657Y583257D01*
X1048215Y582962D01*
X1047920Y582521D01*
X1047817Y582000D01*
X1047920Y581479D01*
X1048215Y581038D01*
X1048657Y580743D01*
X1049177Y580640D01*
X1049698Y580743D01*
X1050139Y581038D01*
X1050434Y581479D01*
X1050538Y582000D01*
X1050434Y582521D01*
X1050139Y582962D01*
X1049698Y583257D01*
X1049177Y583360D01*
D02*
G37*
G36*
X1045201D02*
X1044680Y583257D01*
X1044239Y582962D01*
X1043944Y582521D01*
X1043840Y582000D01*
X1043944Y581479D01*
X1044239Y581038D01*
X1044680Y580743D01*
X1045201Y580640D01*
X1045721Y580743D01*
X1046163Y581038D01*
X1046458Y581479D01*
X1046561Y582000D01*
X1046458Y582521D01*
X1046163Y582962D01*
X1045721Y583257D01*
X1045201Y583360D01*
D02*
G37*
G36*
X1041224D02*
X1040704Y583257D01*
X1040263Y582962D01*
X1039968Y582521D01*
X1039864Y582000D01*
X1039968Y581479D01*
X1040263Y581038D01*
X1040704Y580743D01*
X1041224Y580640D01*
X1041745Y580743D01*
X1042186Y581038D01*
X1042481Y581479D01*
X1042585Y582000D01*
X1042481Y582521D01*
X1042186Y582962D01*
X1041745Y583257D01*
X1041224Y583360D01*
D02*
G37*
G36*
Y578360D02*
X1040704Y578257D01*
X1040263Y577962D01*
X1039968Y577521D01*
X1039864Y577000D01*
X1039968Y576479D01*
X1040263Y576038D01*
X1040704Y575743D01*
X1041224Y575640D01*
X1041745Y575743D01*
X1042186Y576038D01*
X1042481Y576479D01*
X1042585Y577000D01*
X1042481Y577521D01*
X1042186Y577962D01*
X1041745Y578257D01*
X1041224Y578360D01*
D02*
G37*
G36*
X831933Y589785D02*
X830557Y589604D01*
X829275Y589073D01*
X828174Y588228D01*
X827329Y587127D01*
X826797Y585845D01*
X826616Y584469D01*
Y580532D01*
X826797Y579155D01*
X827329Y577873D01*
X828174Y576772D01*
X829275Y575927D01*
X830557Y575396D01*
X831933Y575215D01*
X833309Y575396D01*
X834591Y575927D01*
X835693Y576772D01*
X836537Y577873D01*
X837069Y579155D01*
X837250Y580532D01*
Y584469D01*
X837069Y585845D01*
X836537Y587127D01*
X835693Y588228D01*
X834591Y589073D01*
X833309Y589604D01*
X831933Y589785D01*
D02*
G37*
G36*
X891500Y575498D02*
X890979Y575395D01*
X890538Y575100D01*
X890243Y574658D01*
X890140Y574138D01*
X890243Y573617D01*
X890538Y573176D01*
X890979Y572881D01*
X891500Y572777D01*
X892021Y572881D01*
X892462Y573176D01*
X892757Y573617D01*
X892860Y574138D01*
X892757Y574658D01*
X892462Y575100D01*
X892021Y575395D01*
X891500Y575498D01*
D02*
G37*
G36*
X917595Y574715D02*
X917074Y574611D01*
X916633Y574316D01*
X916338Y573875D01*
X916234Y573354D01*
X916338Y572834D01*
X916633Y572392D01*
X917074Y572097D01*
X917595Y571994D01*
X918115Y572097D01*
X918556Y572392D01*
X918851Y572834D01*
X918955Y573354D01*
X918851Y573875D01*
X918556Y574316D01*
X918115Y574611D01*
X917595Y574715D01*
D02*
G37*
G36*
X904405D02*
X903885Y574611D01*
X903444Y574316D01*
X903149Y573875D01*
X903045Y573354D01*
X903149Y572834D01*
X903444Y572392D01*
X903885Y572097D01*
X904405Y571994D01*
X904926Y572097D01*
X905367Y572392D01*
X905662Y572834D01*
X905766Y573354D01*
X905662Y573875D01*
X905367Y574316D01*
X904926Y574611D01*
X904405Y574715D01*
D02*
G37*
G36*
X1041224Y572360D02*
X1040704Y572257D01*
X1040263Y571962D01*
X1039968Y571521D01*
X1039864Y571000D01*
X1039968Y570479D01*
X1040263Y570038D01*
X1040704Y569743D01*
X1041224Y569640D01*
X1041745Y569743D01*
X1042186Y570038D01*
X1042481Y570479D01*
X1042585Y571000D01*
X1042481Y571521D01*
X1042186Y571962D01*
X1041745Y572257D01*
X1041224Y572360D01*
D02*
G37*
G36*
X1022843D02*
X1022322Y572257D01*
X1021881Y571962D01*
X1021586Y571521D01*
X1021482Y571000D01*
X1021586Y570479D01*
X1021881Y570038D01*
X1022322Y569743D01*
X1022843Y569640D01*
X1023363Y569743D01*
X1023804Y570038D01*
X1024099Y570479D01*
X1024203Y571000D01*
X1024099Y571521D01*
X1023804Y571962D01*
X1023363Y572257D01*
X1022843Y572360D01*
D02*
G37*
G36*
X1016158D02*
X1015637Y572257D01*
X1015195Y571962D01*
X1014901Y571521D01*
X1014797Y571000D01*
X1014901Y570479D01*
X1015195Y570038D01*
X1015637Y569743D01*
X1016158Y569640D01*
X1016678Y569743D01*
X1017119Y570038D01*
X1017414Y570479D01*
X1017518Y571000D01*
X1017414Y571521D01*
X1017119Y571962D01*
X1016678Y572257D01*
X1016158Y572360D01*
D02*
G37*
G36*
X987842D02*
X987322Y572257D01*
X986881Y571962D01*
X986586Y571521D01*
X986482Y571000D01*
X986586Y570479D01*
X986881Y570038D01*
X987322Y569743D01*
X987842Y569640D01*
X988363Y569743D01*
X988805Y570038D01*
X989099Y570479D01*
X989203Y571000D01*
X989099Y571521D01*
X988805Y571962D01*
X988363Y572257D01*
X987842Y572360D01*
D02*
G37*
G36*
X965343D02*
X964822Y572257D01*
X964381Y571962D01*
X964086Y571521D01*
X963982Y571000D01*
X964086Y570479D01*
X964381Y570038D01*
X964822Y569743D01*
X965343Y569640D01*
X965863Y569743D01*
X966304Y570038D01*
X966599Y570479D01*
X966703Y571000D01*
X966599Y571521D01*
X966304Y571962D01*
X965863Y572257D01*
X965343Y572360D01*
D02*
G37*
G36*
X861500Y571860D02*
X860979Y571757D01*
X860538Y571462D01*
X860243Y571021D01*
X860140Y570500D01*
X860243Y569979D01*
X860538Y569538D01*
X860979Y569243D01*
X861500Y569140D01*
X862021Y569243D01*
X862462Y569538D01*
X862757Y569979D01*
X862860Y570500D01*
X862757Y571021D01*
X862462Y571462D01*
X862021Y571757D01*
X861500Y571860D01*
D02*
G37*
G36*
X917595Y569006D02*
X917074Y568902D01*
X916633Y568608D01*
X916338Y568166D01*
X916234Y567646D01*
X916338Y567125D01*
X916633Y566684D01*
X917074Y566389D01*
X917595Y566285D01*
X918115Y566389D01*
X918556Y566684D01*
X918851Y567125D01*
X918955Y567646D01*
X918851Y568166D01*
X918556Y568608D01*
X918115Y568902D01*
X917595Y569006D01*
D02*
G37*
G36*
X891500Y566223D02*
X890979Y566119D01*
X890538Y565824D01*
X890243Y565383D01*
X890140Y564862D01*
X890243Y564342D01*
X890538Y563900D01*
X890979Y563605D01*
X891500Y563502D01*
X892021Y563605D01*
X892462Y563900D01*
X892757Y564342D01*
X892860Y564862D01*
X892757Y565383D01*
X892462Y565824D01*
X892021Y566119D01*
X891500Y566223D01*
D02*
G37*
G36*
X992862Y565360D02*
X992342Y565257D01*
X991900Y564962D01*
X991605Y564521D01*
X991502Y564000D01*
X991605Y563479D01*
X991900Y563038D01*
X992342Y562743D01*
X992862Y562640D01*
X993383Y562743D01*
X993824Y563038D01*
X994119Y563479D01*
X994223Y564000D01*
X994119Y564521D01*
X993824Y564962D01*
X993383Y565257D01*
X992862Y565360D01*
D02*
G37*
G36*
X1030842Y561860D02*
X1030322Y561757D01*
X1029881Y561462D01*
X1029586Y561021D01*
X1029482Y560500D01*
X1029586Y559979D01*
X1029881Y559538D01*
X1030322Y559243D01*
X1030842Y559140D01*
X1031363Y559243D01*
X1031804Y559538D01*
X1032099Y559979D01*
X1032203Y560500D01*
X1032099Y561021D01*
X1031804Y561462D01*
X1031363Y561757D01*
X1030842Y561860D01*
D02*
G37*
G36*
X861500Y561360D02*
X860979Y561257D01*
X860538Y560962D01*
X860243Y560521D01*
X860140Y560000D01*
X860243Y559479D01*
X860538Y559038D01*
X860979Y558743D01*
X861500Y558640D01*
X862021Y558743D01*
X862462Y559038D01*
X862757Y559479D01*
X862860Y560000D01*
X862757Y560521D01*
X862462Y560962D01*
X862021Y561257D01*
X861500Y561360D01*
D02*
G37*
G36*
X817000Y559360D02*
X816479Y559257D01*
X816038Y558962D01*
X815743Y558521D01*
X815640Y558000D01*
X815743Y557479D01*
X816038Y557038D01*
X816479Y556743D01*
X817000Y556640D01*
X817521Y556743D01*
X817962Y557038D01*
X818257Y557479D01*
X818360Y558000D01*
X818257Y558521D01*
X817962Y558962D01*
X817521Y559257D01*
X817000Y559360D01*
D02*
G37*
G36*
X1009000Y556860D02*
X1008479Y556757D01*
X1008038Y556462D01*
X1007743Y556021D01*
X1007640Y555500D01*
X1007743Y554979D01*
X1008038Y554538D01*
X1008479Y554243D01*
X1009000Y554140D01*
X1009521Y554243D01*
X1009962Y554538D01*
X1010257Y554979D01*
X1010360Y555500D01*
X1010257Y556021D01*
X1009962Y556462D01*
X1009521Y556757D01*
X1009000Y556860D01*
D02*
G37*
G36*
X798323Y556101D02*
X797802Y555997D01*
X797361Y555702D01*
X797066Y555261D01*
X796962Y554740D01*
X797066Y554220D01*
X797361Y553778D01*
X797802Y553483D01*
X798323Y553380D01*
X798843Y553483D01*
X799285Y553778D01*
X799580Y554220D01*
X799683Y554740D01*
X799580Y555261D01*
X799285Y555702D01*
X798843Y555997D01*
X798323Y556101D01*
D02*
G37*
G36*
X793000Y554230D02*
X792479Y554127D01*
X792038Y553832D01*
X791743Y553391D01*
X791640Y552870D01*
X791743Y552350D01*
X792038Y551908D01*
X792479Y551613D01*
X793000Y551510D01*
X793521Y551613D01*
X793962Y551908D01*
X794257Y552350D01*
X794360Y552870D01*
X794257Y553391D01*
X793962Y553832D01*
X793521Y554127D01*
X793000Y554230D01*
D02*
G37*
G36*
X917595Y553048D02*
X917074Y552944D01*
X916633Y552649D01*
X916338Y552208D01*
X916234Y551687D01*
X916338Y551167D01*
X916633Y550725D01*
X917074Y550430D01*
X917595Y550327D01*
X918115Y550430D01*
X918556Y550725D01*
X918851Y551167D01*
X918955Y551687D01*
X918851Y552208D01*
X918556Y552649D01*
X918115Y552944D01*
X917595Y553048D01*
D02*
G37*
G36*
X861500Y550360D02*
X860979Y550257D01*
X860538Y549962D01*
X860243Y549521D01*
X860140Y549000D01*
X860243Y548479D01*
X860538Y548038D01*
X860979Y547743D01*
X861500Y547640D01*
X862021Y547743D01*
X862462Y548038D01*
X862757Y548479D01*
X862860Y549000D01*
X862757Y549521D01*
X862462Y549962D01*
X862021Y550257D01*
X861500Y550360D01*
D02*
G37*
G36*
X896522Y547853D02*
X896002Y547750D01*
X895560Y547455D01*
X895265Y547014D01*
X895162Y546493D01*
X895265Y545972D01*
X895560Y545531D01*
X896002Y545236D01*
X896522Y545133D01*
X897043Y545236D01*
X897484Y545531D01*
X897779Y545972D01*
X897882Y546493D01*
X897779Y547014D01*
X897484Y547455D01*
X897043Y547750D01*
X896522Y547853D01*
D02*
G37*
G36*
X1009000Y546610D02*
X1008479Y546507D01*
X1008038Y546212D01*
X1007743Y545771D01*
X1007640Y545250D01*
X1007743Y544729D01*
X1008038Y544288D01*
X1008479Y543993D01*
X1009000Y543890D01*
X1009521Y543993D01*
X1009962Y544288D01*
X1010257Y544729D01*
X1010360Y545250D01*
X1010257Y545771D01*
X1009962Y546212D01*
X1009521Y546507D01*
X1009000Y546610D01*
D02*
G37*
G36*
X814406Y548362D02*
X813569Y548252D01*
X812790Y547929D01*
X812120Y547415D01*
X811607Y546746D01*
X811284Y545966D01*
X811174Y545130D01*
X811284Y544293D01*
X811607Y543514D01*
X812120Y542845D01*
X812790Y542331D01*
X813569Y542008D01*
X814406Y541898D01*
X815242Y542008D01*
X816022Y542331D01*
X816691Y542845D01*
X817204Y543514D01*
X817527Y544293D01*
X817638Y545130D01*
X817527Y545966D01*
X817204Y546746D01*
X816691Y547415D01*
X816022Y547929D01*
X815242Y548252D01*
X814406Y548362D01*
D02*
G37*
G36*
X794721D02*
X793884Y548252D01*
X793105Y547929D01*
X792435Y547415D01*
X791922Y546746D01*
X791599Y545966D01*
X791489Y545130D01*
X791599Y544293D01*
X791922Y543514D01*
X792435Y542845D01*
X793105Y542331D01*
X793884Y542008D01*
X794721Y541898D01*
X795557Y542008D01*
X796337Y542331D01*
X797006Y542845D01*
X797519Y543514D01*
X797842Y544293D01*
X797953Y545130D01*
X797842Y545966D01*
X797519Y546746D01*
X797006Y547415D01*
X796337Y547929D01*
X795557Y548252D01*
X794721Y548362D01*
D02*
G37*
G36*
X1036756Y545935D02*
X1036235Y545832D01*
X1035794Y545537D01*
X1035499Y545095D01*
X1035396Y544575D01*
X1035499Y544054D01*
X1035794Y543613D01*
X1036235Y543318D01*
X1036467Y543272D01*
X1036552Y543255D01*
Y542745D01*
X1036467Y542728D01*
X1036235Y542682D01*
X1035794Y542387D01*
X1035499Y541946D01*
X1035396Y541425D01*
X1035499Y540905D01*
X1035794Y540463D01*
X1036235Y540168D01*
X1036756Y540065D01*
X1037276Y540168D01*
X1037718Y540463D01*
X1038013Y540905D01*
X1038116Y541425D01*
X1038013Y541946D01*
X1037718Y542387D01*
X1037276Y542682D01*
X1037045Y542728D01*
X1036959Y542745D01*
Y543255D01*
X1037045Y543272D01*
X1037276Y543318D01*
X1037718Y543613D01*
X1038013Y544054D01*
X1038116Y544575D01*
X1038013Y545095D01*
X1037718Y545537D01*
X1037276Y545832D01*
X1036756Y545935D01*
D02*
G37*
G36*
X1112409Y564301D02*
X1110501Y564151D01*
X1108640Y563704D01*
X1106871Y562971D01*
X1105239Y561971D01*
X1103784Y560728D01*
X1102541Y559272D01*
X1101540Y557640D01*
X1100808Y555872D01*
X1100361Y554011D01*
X1100211Y552102D01*
X1100361Y550194D01*
X1100808Y548333D01*
X1101540Y546564D01*
X1102541Y544932D01*
X1103784Y543477D01*
X1105239Y542234D01*
X1106871Y541233D01*
X1108640Y540501D01*
X1110501Y540054D01*
X1112409Y539904D01*
X1114318Y540054D01*
X1116179Y540501D01*
X1117947Y541233D01*
X1119580Y542234D01*
X1121035Y543477D01*
X1122278Y544932D01*
X1123279Y546564D01*
X1124011Y548333D01*
X1124458Y550194D01*
X1124608Y552102D01*
X1124458Y554011D01*
X1124011Y555872D01*
X1123279Y557640D01*
X1122278Y559272D01*
X1121035Y560728D01*
X1119580Y561971D01*
X1117947Y562971D01*
X1116179Y563704D01*
X1114318Y564151D01*
X1112409Y564301D01*
D02*
G37*
G36*
X769890D02*
X767981Y564151D01*
X766120Y563704D01*
X764352Y562971D01*
X762720Y561971D01*
X761264Y560728D01*
X760021Y559272D01*
X759021Y557640D01*
X758288Y555872D01*
X757841Y554011D01*
X757691Y552102D01*
X757841Y550194D01*
X758288Y548333D01*
X759021Y546564D01*
X760021Y544932D01*
X761264Y543477D01*
X762720Y542234D01*
X764352Y541233D01*
X766120Y540501D01*
X767981Y540054D01*
X769890Y539904D01*
X771798Y540054D01*
X773659Y540501D01*
X775428Y541233D01*
X777060Y542234D01*
X778515Y543477D01*
X779759Y544932D01*
X780759Y546564D01*
X781491Y548333D01*
X781938Y550194D01*
X782088Y552102D01*
X781938Y554011D01*
X781491Y555872D01*
X780759Y557640D01*
X779759Y559272D01*
X778515Y560728D01*
X777060Y561971D01*
X775428Y562971D01*
X773659Y563704D01*
X771798Y564151D01*
X769890Y564301D01*
D02*
G37*
G36*
X861500Y540110D02*
X860979Y540007D01*
X860538Y539712D01*
X860243Y539271D01*
X860140Y538750D01*
X860243Y538229D01*
X860538Y537788D01*
X860979Y537493D01*
X861500Y537390D01*
X862021Y537493D01*
X862462Y537788D01*
X862757Y538229D01*
X862860Y538750D01*
X862757Y539271D01*
X862462Y539712D01*
X862021Y540007D01*
X861500Y540110D01*
D02*
G37*
G36*
X1009000Y536360D02*
X1008479Y536257D01*
X1008038Y535962D01*
X1007743Y535521D01*
X1007640Y535000D01*
X1007743Y534479D01*
X1008038Y534038D01*
X1008479Y533743D01*
X1009000Y533640D01*
X1009521Y533743D01*
X1009962Y534038D01*
X1010257Y534479D01*
X1010360Y535000D01*
X1010257Y535521D01*
X1009962Y535962D01*
X1009521Y536257D01*
X1009000Y536360D01*
D02*
G37*
G36*
X969658D02*
X969137Y536257D01*
X968696Y535962D01*
X968401Y535521D01*
X968297Y535000D01*
X968401Y534479D01*
X968696Y534038D01*
X969137Y533743D01*
X969658Y533640D01*
X970178Y533743D01*
X970619Y534038D01*
X970914Y534479D01*
X971018Y535000D01*
X970914Y535521D01*
X970619Y535962D01*
X970178Y536257D01*
X969658Y536360D01*
D02*
G37*
G36*
X818933Y538632D02*
X815390D01*
X814562Y538467D01*
X813860Y537998D01*
X813391Y537296D01*
X813227Y536469D01*
Y532531D01*
X813391Y531704D01*
X813860Y531002D01*
X814562Y530533D01*
X815390Y530368D01*
X818933D01*
X819761Y530533D01*
X820463Y531002D01*
X820932Y531704D01*
X820964Y531866D01*
X821187Y531959D01*
X821795Y532425D01*
X822262Y533033D01*
X822555Y533741D01*
X822655Y534500D01*
X822555Y535259D01*
X822262Y535967D01*
X821795Y536575D01*
X821187Y537041D01*
X820964Y537134D01*
X820932Y537296D01*
X820463Y537998D01*
X819761Y538467D01*
X818933Y538632D01*
D02*
G37*
G36*
X793736D02*
X790193D01*
X789365Y538467D01*
X788663Y537998D01*
X788194Y537296D01*
X788162Y537134D01*
X787938Y537041D01*
X787331Y536575D01*
X786865Y535967D01*
X786571Y535259D01*
X786471Y534500D01*
X786571Y533741D01*
X786865Y533033D01*
X787331Y532425D01*
X787938Y531959D01*
X788162Y531866D01*
X788194Y531704D01*
X788663Y531002D01*
X789365Y530533D01*
X790193Y530368D01*
X793736D01*
X794564Y530533D01*
X795266Y531002D01*
X795735Y531704D01*
X795899Y532531D01*
Y536469D01*
X795735Y537296D01*
X795266Y537998D01*
X794564Y538467D01*
X793736Y538632D01*
D02*
G37*
%LPD*%
D80*
X860972Y746488D02*
D03*
X819732Y749000D02*
D03*
X995409Y778500D02*
D03*
X908524Y629095D02*
D03*
Y638937D02*
D03*
X864500Y889461D02*
D03*
X809681Y545130D02*
D03*
X1037064Y723406D02*
D03*
X1066921Y618268D02*
D03*
X962500Y779500D02*
D03*
X956897Y659922D02*
D03*
X1032452Y598500D02*
D03*
X950630Y639000D02*
D03*
X971333Y598500D02*
D03*
X998941Y586279D02*
D03*
X1012720D02*
D03*
X1067331Y655669D02*
D03*
X1044333Y677323D02*
D03*
X967445Y701500D02*
D03*
X1111343Y887906D02*
D03*
X1042445D02*
D03*
X979661Y767500D02*
D03*
X999500Y870122D02*
D03*
X985750Y854593D02*
D03*
X1059500Y743657D02*
D03*
X967000Y748158D02*
D03*
X960666Y725915D02*
D03*
X915268Y670500D02*
D03*
Y658843D02*
D03*
Y647342D02*
D03*
X931114Y645138D02*
D03*
X1028158Y571000D02*
D03*
X1010843D02*
D03*
X993157D02*
D03*
X970658D02*
D03*
X1082063Y671437D02*
D03*
X1131500Y699532D02*
D03*
X923854Y593705D02*
D03*
X828862Y545633D02*
D03*
X877500Y702000D02*
D03*
X858488Y726500D02*
D03*
Y731500D02*
D03*
X903477Y607491D02*
D03*
X984157Y876000D02*
D03*
X1024075Y886055D02*
D03*
X1024980Y866382D02*
D03*
X1011559Y864709D02*
D03*
X755500Y835850D02*
D03*
X752000Y811638D02*
D03*
X768000Y817079D02*
D03*
X781000Y782657D02*
D03*
X793500Y788335D02*
D03*
X806315Y822918D02*
D03*
X805452Y811697D02*
D03*
X822952Y826091D02*
D03*
X784452Y842394D02*
D03*
X794199Y842110D02*
D03*
X844000Y764638D02*
D03*
X809303Y794500D02*
D03*
X815000Y786000D02*
D03*
Y780500D02*
D03*
X847000Y757500D02*
D03*
X841500Y757512D02*
D03*
X833500Y752157D02*
D03*
X882047Y848047D02*
D03*
Y853953D02*
D03*
X860492Y833638D02*
D03*
X871000Y862811D02*
D03*
X870213Y876500D02*
D03*
X904768Y906402D02*
D03*
X898500Y898539D02*
D03*
X1096260Y581941D02*
D03*
X1089000Y581843D02*
D03*
X887953Y848047D02*
D03*
Y854084D02*
D03*
X1031244Y541425D02*
D03*
X1036158Y560500D02*
D03*
X909396Y893103D02*
D03*
X1082200Y619739D02*
D03*
X1091450Y807917D02*
D03*
X1096413Y783642D02*
D03*
X983500Y808539D02*
D03*
X1102772Y672500D02*
D03*
X1080907Y634437D02*
D03*
X791913Y706642D02*
D03*
X756087D02*
D03*
X891378Y879494D02*
D03*
X777122Y742917D02*
D03*
X762060Y743881D02*
D03*
X1049354Y804720D02*
D03*
X811000Y706843D02*
D03*
X803227Y730365D02*
D03*
X861169Y754000D02*
D03*
X861957Y762000D02*
D03*
X1060587Y783642D02*
D03*
X914000Y893138D02*
D03*
X935130Y803158D02*
D03*
X904405Y545979D02*
D03*
X917595D02*
D03*
X896522Y572850D02*
D03*
X1054992Y544762D02*
D03*
X1090819D02*
D03*
X935500Y765228D02*
D03*
X1031392Y785453D02*
D03*
X1023672D02*
D03*
X1010658D02*
D03*
X995087Y795642D02*
D03*
X1030913D02*
D03*
X1062850Y714024D02*
D03*
X1069138Y723000D02*
D03*
X1081173Y733500D02*
D03*
X1087850Y714000D02*
D03*
X1101673Y719890D02*
D03*
X1057000Y789000D02*
D03*
X1090000Y735000D02*
D03*
X798103Y562577D02*
D03*
X813000D02*
D03*
D143*
X890661Y912220D02*
D03*
X865465D02*
D03*
X924784D02*
D03*
X949980D02*
D03*
D144*
X868221Y901591D02*
D03*
X887906D02*
D03*
X947224D02*
D03*
X927539D02*
D03*
D145*
X1070988Y860268D02*
D03*
X1065476D02*
D03*
X1076500D02*
D03*
X1065476Y854756D02*
D03*
X1070988D02*
D03*
X1076500D02*
D03*
X1068232Y863024D02*
D03*
X1073744D02*
D03*
X1068232Y857512D02*
D03*
X1073744D02*
D03*
X1068232Y852000D02*
D03*
X1073744D02*
D03*
X785350Y822000D02*
D03*
X788500Y825150D02*
D03*
X791650Y822000D02*
D03*
X788500Y818850D02*
D03*
Y822000D02*
D03*
D147*
X759000Y753500D02*
D03*
D149*
X803799Y870500D02*
D03*
D150*
X780000Y753594D02*
D03*
M02*
