G04*
G04 #@! TF.GenerationSoftware,Altium Limited,Altium Designer,20.2.5 (213)*
G04*
G04 Layer_Color=32896*
%FSLAX25Y25*%
%MOIN*%
G70*
G04*
G04 #@! TF.SameCoordinates,0EDA941F-9717-4D80-9818-445CF3A130AC*
G04*
G04*
G04 #@! TF.FilePolarity,Positive*
G04*
G01*
G75*
%ADD10C,0.00984*%
%ADD11C,0.00787*%
%ADD14C,0.00394*%
%ADD16C,0.00591*%
%ADD17C,0.00500*%
%ADD19C,0.00900*%
D10*
X899612Y887031D02*
D03*
D11*
X1063646Y747500D02*
X1062858D01*
X1063646D01*
X1078614Y720579D02*
X1077827D01*
X1078614D01*
X769858Y739965D02*
X769071D01*
X769858D01*
X1062201Y753709D02*
Y771032D01*
X962083Y753709D02*
X1062201D01*
X962083D02*
Y771032D01*
X1104685Y744744D02*
Y745925D01*
X1095236Y744744D02*
X1104685D01*
X1095236D02*
Y745925D01*
X1099961Y744744D02*
Y750256D01*
X1095236Y749075D02*
Y750256D01*
X1104685D01*
Y749075D02*
Y750256D01*
X889669Y888213D02*
Y891658D01*
X891047D01*
X898331Y888213D02*
Y891658D01*
X896953D02*
X898331D01*
D14*
X998476Y651862D02*
Y652650D01*
X992965D02*
X998476D01*
X992965Y651862D02*
Y652650D01*
Y650091D02*
Y650878D01*
Y650091D02*
X998476D01*
Y650878D01*
Y648520D02*
Y649307D01*
X992965D02*
X998476D01*
X992965Y648520D02*
Y649307D01*
Y646748D02*
Y647535D01*
Y646748D02*
X998476D01*
Y647535D01*
X1038492Y731363D02*
X1039279D01*
Y725851D02*
Y731363D01*
X1038492Y725851D02*
X1039279D01*
X1036720D02*
X1037508D01*
X1036720D02*
Y731363D01*
X1037508D01*
X998476Y628465D02*
Y629252D01*
X992965D02*
X998476D01*
X992965Y628465D02*
Y629252D01*
Y626693D02*
Y627480D01*
Y626693D02*
X998476D01*
Y627480D01*
X993500Y684756D02*
X994287D01*
X993500Y679244D02*
Y684756D01*
Y679244D02*
X994287D01*
X995272D02*
X996059D01*
Y684756D01*
X995272D02*
X996059D01*
X990744Y666193D02*
Y666980D01*
Y666193D02*
X996256D01*
Y666980D01*
Y667965D02*
Y668752D01*
X990744D02*
X996256D01*
X990744Y667965D02*
Y668752D01*
X1040123Y731363D02*
X1040910D01*
X1040123Y725851D02*
Y731363D01*
Y725851D02*
X1040910D01*
X1041894D02*
X1042682D01*
Y731363D01*
X1041894D02*
X1042682D01*
X1045296D02*
X1046084D01*
Y725851D02*
Y731363D01*
X1045296Y725851D02*
X1046084D01*
X1043525D02*
X1044312D01*
X1043525D02*
Y731363D01*
X1044312D01*
X1046256Y721721D02*
Y722508D01*
X1040744Y721721D02*
X1046256D01*
X1040744D02*
Y722508D01*
Y723492D02*
Y724279D01*
X1046256D01*
Y723492D02*
Y724279D01*
X931244Y808720D02*
Y809508D01*
Y808720D02*
X936756D01*
Y809508D01*
Y810492D02*
Y811279D01*
X931244D02*
X936756D01*
X931244Y810492D02*
Y811279D01*
X940532Y767248D02*
Y784571D01*
X899469Y767248D02*
X940532D01*
X899469D02*
Y784571D01*
X1012492Y680375D02*
X1013280D01*
Y674863D02*
Y680375D01*
X1012492Y674863D02*
X1013280D01*
X1010720D02*
X1011508D01*
X1010720D02*
Y680375D01*
X1011508D01*
X1009992D02*
X1010779D01*
Y674863D02*
Y680375D01*
X1009992Y674863D02*
X1010779D01*
X1008220D02*
X1009008D01*
X1008220D02*
Y680375D01*
X1009008D01*
X998476Y656776D02*
Y657563D01*
X992965Y656776D02*
X998476D01*
X992965D02*
Y657563D01*
Y658547D02*
Y659335D01*
X998476D01*
Y658547D02*
Y659335D01*
Y653433D02*
Y654220D01*
X992965Y653433D02*
X998476D01*
X992965D02*
Y654220D01*
Y655205D02*
Y655992D01*
X998476D01*
Y655205D02*
Y655992D01*
X1026789Y680370D02*
X1027576D01*
Y674858D02*
Y680370D01*
X1026789Y674858D02*
X1027576D01*
X1025017D02*
X1025804D01*
X1025017D02*
Y680370D01*
X1025804D01*
X1029750Y680375D02*
X1030537D01*
Y674863D02*
Y680375D01*
X1029750Y674863D02*
X1030537D01*
X1027978D02*
X1028766D01*
X1027978D02*
Y680375D01*
X1028766D01*
X990744Y674650D02*
Y675437D01*
X996256D01*
Y674650D02*
Y675437D01*
Y672878D02*
Y673665D01*
X990744Y672878D02*
X996256D01*
X990744D02*
Y673665D01*
Y671307D02*
Y672094D01*
X996256D01*
Y671307D02*
Y672094D01*
Y669535D02*
Y670323D01*
X990744Y669535D02*
X996256D01*
X990744D02*
Y670323D01*
Y677992D02*
Y678780D01*
X996256D01*
Y677992D02*
Y678780D01*
Y676221D02*
Y677008D01*
X990744Y676221D02*
X996256D01*
X990744D02*
Y677008D01*
X998476Y643405D02*
Y644193D01*
X992965Y643405D02*
X998476D01*
X992965D02*
Y644193D01*
Y645177D02*
Y645965D01*
X998476D01*
Y645177D02*
Y645965D01*
Y630035D02*
Y630823D01*
X992965Y630035D02*
X998476D01*
X992965D02*
Y630823D01*
Y631807D02*
Y632594D01*
X998476D01*
Y631807D02*
Y632594D01*
Y633378D02*
Y634165D01*
X992965Y633378D02*
X998476D01*
X992965D02*
Y634165D01*
Y635150D02*
Y635937D01*
X998476D01*
Y635150D02*
Y635937D01*
Y636721D02*
Y637508D01*
X992965Y636721D02*
X998476D01*
X992965D02*
Y637508D01*
Y638492D02*
Y639280D01*
X998476D01*
Y638492D02*
Y639280D01*
Y640063D02*
Y640850D01*
X992965Y640063D02*
X998476D01*
X992965D02*
Y640850D01*
Y641835D02*
Y642622D01*
X998476D01*
Y641835D02*
Y642622D01*
Y620008D02*
Y620795D01*
X992965Y620008D02*
X998476D01*
X992965D02*
Y620795D01*
Y621779D02*
Y622567D01*
X998476D01*
Y621779D02*
Y622567D01*
Y623350D02*
Y624138D01*
X992965Y623350D02*
X998476D01*
X992965D02*
Y624138D01*
Y625122D02*
Y625910D01*
X998476D01*
Y625122D02*
Y625910D01*
X1046744Y661992D02*
Y662780D01*
X1052256D01*
Y661992D02*
Y662780D01*
Y660220D02*
Y661008D01*
X1046744Y660220D02*
X1052256D01*
X1046744D02*
Y661008D01*
Y657992D02*
Y658779D01*
X1052256D01*
Y657992D02*
Y658779D01*
Y656220D02*
Y657008D01*
X1046744Y656220D02*
X1052256D01*
X1046744D02*
Y657008D01*
Y654492D02*
Y655279D01*
X1052256D01*
Y654492D02*
Y655279D01*
Y652720D02*
Y653508D01*
X1046744Y652720D02*
X1052256D01*
X1046744D02*
Y653508D01*
Y665992D02*
Y666780D01*
X1052256D01*
Y665992D02*
Y666780D01*
Y664221D02*
Y665008D01*
X1046744Y664221D02*
X1052256D01*
X1046744D02*
Y665008D01*
D16*
X947575Y795276D02*
X948362D01*
Y804724D01*
X947575D02*
X948362D01*
X943638D02*
X944425D01*
X943638Y795276D02*
Y804724D01*
Y795276D02*
X944425D01*
X1056744Y746512D02*
X1057925D01*
X1056744Y735488D02*
Y746512D01*
Y735488D02*
X1057925D01*
X1061075D02*
X1062256D01*
Y746512D01*
X1061075D02*
X1062256D01*
X1076224Y736138D02*
Y736925D01*
X1066776Y736138D02*
X1076224D01*
X1066776D02*
Y736925D01*
Y740075D02*
Y740862D01*
X1076224D01*
Y740075D02*
Y740862D01*
X1066776Y724575D02*
Y725362D01*
X1076224D01*
Y724575D02*
Y725362D01*
Y720638D02*
Y721425D01*
X1066776Y720638D02*
X1076224D01*
X1066776D02*
Y721425D01*
X1073776Y715598D02*
Y716386D01*
X1083224D01*
Y715598D02*
Y716386D01*
Y711661D02*
Y712449D01*
X1073776Y711661D02*
X1083224D01*
X1073776D02*
Y712449D01*
X1097693Y710457D02*
Y712032D01*
X1084307Y710457D02*
X1097693D01*
X1084307D02*
Y712032D01*
Y715969D02*
Y717543D01*
X1097693D01*
Y715969D02*
Y717543D01*
X1098917Y717035D02*
X1100098D01*
X1098917D02*
Y728059D01*
X1100098D01*
X1103248D02*
X1104429D01*
Y717035D02*
Y728059D01*
X1103248Y717035D02*
X1104429D01*
X1072693Y710480D02*
Y712055D01*
X1059307Y710480D02*
X1072693D01*
X1059307D02*
Y712055D01*
Y715992D02*
Y717567D01*
X1072693D01*
Y715992D02*
Y717567D01*
X932374Y794988D02*
X933555D01*
X932374D02*
Y806012D01*
X933555D01*
X936705D02*
X937886D01*
Y794988D02*
Y806012D01*
X936705Y794988D02*
X937886D01*
X930630Y795776D02*
X931319D01*
Y805224D01*
X930630D02*
X931319D01*
X926398D02*
X927087D01*
X926398Y795776D02*
Y805224D01*
Y795776D02*
X927087D01*
X759776Y745673D02*
Y746362D01*
X769224D01*
Y745673D02*
Y746362D01*
Y741441D02*
Y742130D01*
X759776Y741441D02*
X769224D01*
X759776D02*
Y742130D01*
X910853Y890776D02*
X911640D01*
Y900224D01*
X910853D02*
X911640D01*
X906916D02*
X907703D01*
X906916Y890776D02*
Y900224D01*
Y890776D02*
X907703D01*
X911638D02*
X912425D01*
X911638D02*
Y900224D01*
X912425D01*
X915575D02*
X916362D01*
Y890776D02*
Y900224D01*
X915575Y890776D02*
X916362D01*
X889138Y581224D02*
X889925D01*
X889138Y571776D02*
Y581224D01*
Y571776D02*
X889925D01*
X893075D02*
X893862D01*
Y581224D01*
X893075D02*
X893862D01*
X893075Y557776D02*
X893862D01*
Y567224D01*
X893075D02*
X893862D01*
X889138D02*
X889925D01*
X889138Y557776D02*
Y567224D01*
Y557776D02*
X889925D01*
X1052252Y777873D02*
Y778562D01*
X1042803Y777873D02*
X1052252D01*
X1042803D02*
Y778562D01*
Y782105D02*
Y782794D01*
X1052252D01*
Y782105D02*
Y782794D01*
X1053512Y788075D02*
Y789256D01*
X1042488D02*
X1053512D01*
X1042488Y788075D02*
Y789256D01*
Y783744D02*
Y784925D01*
Y783744D02*
X1053512D01*
Y784925D01*
X889276Y881272D02*
Y881961D01*
X898724D01*
Y881272D02*
Y881961D01*
Y877039D02*
Y877728D01*
X889276Y877039D02*
X898724D01*
X889276D02*
Y877728D01*
X894000Y877039D02*
Y881961D01*
X900272Y905724D02*
X900961D01*
Y896276D02*
Y905724D01*
X900272Y896276D02*
X900961D01*
X896039D02*
X896728D01*
X896039D02*
Y905724D01*
X896728D01*
X906075Y890776D02*
X906862D01*
Y900224D01*
X906075D02*
X906862D01*
X902138D02*
X902925D01*
X902138Y890776D02*
Y900224D01*
Y890776D02*
X902925D01*
D17*
X1070476Y742461D02*
X1087524D01*
X1070476Y752539D02*
X1087524D01*
Y751713D02*
Y752539D01*
Y742461D02*
Y743287D01*
X1070476Y751713D02*
Y752539D01*
Y742461D02*
Y743287D01*
X1081685Y732213D02*
X1092315D01*
X1081685Y718787D02*
X1092315D01*
X772988Y738173D02*
X781256D01*
X772988Y747661D02*
X781256D01*
X902327Y901795D02*
Y918508D01*
X915673D01*
Y901795D02*
Y918508D01*
X902327Y901795D02*
X915673D01*
D19*
X1108600Y758233D02*
X1108267Y758399D01*
X1107767Y758899D01*
Y755400D01*
X1105034Y758899D02*
X1105534Y758733D01*
X1105867Y758233D01*
X1106034Y757400D01*
Y756900D01*
X1105867Y756067D01*
X1105534Y755567D01*
X1105034Y755400D01*
X1104701D01*
X1104201Y755567D01*
X1103868Y756067D01*
X1103701Y756900D01*
Y757400D01*
X1103868Y758233D01*
X1104201Y758733D01*
X1104701Y758899D01*
X1105034D01*
X1102918D02*
X1101585Y755400D01*
X1100252Y758899D02*
X1101585Y755400D01*
X1097052Y758899D02*
Y755400D01*
Y758899D02*
X1095886D01*
X1095386Y758733D01*
X1095053Y758399D01*
X1094886Y758066D01*
X1094720Y757566D01*
Y756733D01*
X1094886Y756233D01*
X1095053Y755900D01*
X1095386Y755567D01*
X1095886Y755400D01*
X1097052D01*
X1091437Y758066D02*
X1091604Y758399D01*
X1091937Y758733D01*
X1092270Y758899D01*
X1092937D01*
X1093270Y758733D01*
X1093603Y758399D01*
X1093770Y758066D01*
X1093937Y757566D01*
Y756733D01*
X1093770Y756233D01*
X1093603Y755900D01*
X1093270Y755567D01*
X1092937Y755400D01*
X1092270D01*
X1091937Y755567D01*
X1091604Y755900D01*
X1091437Y756233D01*
X1090454Y758899D02*
Y755400D01*
Y758899D02*
X1089287D01*
X1088788Y758733D01*
X1088454Y758399D01*
X1088288Y758066D01*
X1088121Y757566D01*
Y756733D01*
X1088288Y756233D01*
X1088454Y755900D01*
X1088788Y755567D01*
X1089287Y755400D01*
X1090454D01*
X1084838Y758066D02*
X1085005Y758399D01*
X1085338Y758733D01*
X1085672Y758899D01*
X1086338D01*
X1086671Y758733D01*
X1087005Y758399D01*
X1087171Y758066D01*
X1087338Y757566D01*
Y756733D01*
X1087171Y756233D01*
X1087005Y755900D01*
X1086671Y755567D01*
X1086338Y755400D01*
X1085672D01*
X1085338Y755567D01*
X1085005Y755900D01*
X1084838Y756233D01*
X1078606Y758066D02*
X1078773Y758399D01*
X1079106Y758733D01*
X1079440Y758899D01*
X1080106D01*
X1080439Y758733D01*
X1080773Y758399D01*
X1080939Y758066D01*
X1081106Y757566D01*
Y756733D01*
X1080939Y756233D01*
X1080773Y755900D01*
X1080439Y755567D01*
X1080106Y755400D01*
X1079440D01*
X1079106Y755567D01*
X1078773Y755900D01*
X1078606Y756233D01*
X1076624Y758899D02*
X1076957Y758733D01*
X1077290Y758399D01*
X1077457Y758066D01*
X1077623Y757566D01*
Y756733D01*
X1077457Y756233D01*
X1077290Y755900D01*
X1076957Y755567D01*
X1076624Y755400D01*
X1075957D01*
X1075624Y755567D01*
X1075290Y755900D01*
X1075124Y756233D01*
X1074957Y756733D01*
Y757566D01*
X1075124Y758066D01*
X1075290Y758399D01*
X1075624Y758733D01*
X1075957Y758899D01*
X1076624D01*
X1074141D02*
Y755400D01*
Y758899D02*
X1071808Y755400D01*
Y758899D02*
Y755400D01*
X1070841Y758899D02*
X1069508Y755400D01*
X1068175Y758899D02*
X1069508Y755400D01*
X942100Y885899D02*
Y882400D01*
X941200Y885066D02*
Y885233D01*
X941034Y885566D01*
X940867Y885733D01*
X940534Y885899D01*
X939867D01*
X939534Y885733D01*
X939367Y885566D01*
X939201Y885233D01*
Y884900D01*
X939367Y884566D01*
X939701Y884066D01*
X941367Y882400D01*
X939034D01*
X935918Y885399D02*
X936251Y885733D01*
X936751Y885899D01*
X937418D01*
X937918Y885733D01*
X938251Y885399D01*
Y885066D01*
X938084Y884733D01*
X937918Y884566D01*
X937584Y884400D01*
X936584Y884066D01*
X936251Y883900D01*
X936085Y883733D01*
X935918Y883400D01*
Y882900D01*
X936251Y882567D01*
X936751Y882400D01*
X937418D01*
X937918Y882567D01*
X938251Y882900D01*
X932385Y885899D02*
Y882400D01*
Y885899D02*
X931052Y882400D01*
X929719Y885899D02*
X931052Y882400D01*
X929719Y885899D02*
Y882400D01*
X928720Y885899D02*
Y882400D01*
X925487Y885066D02*
X925653Y885399D01*
X925987Y885733D01*
X926320Y885899D01*
X926987D01*
X927320Y885733D01*
X927653Y885399D01*
X927820Y885066D01*
X927986Y884566D01*
Y883733D01*
X927820Y883233D01*
X927653Y882900D01*
X927320Y882567D01*
X926987Y882400D01*
X926320D01*
X925987Y882567D01*
X925653Y882900D01*
X925487Y883233D01*
X924504Y885899D02*
Y882400D01*
Y885899D02*
X923004D01*
X922504Y885733D01*
X922338Y885566D01*
X922171Y885233D01*
Y884900D01*
X922338Y884566D01*
X922504Y884400D01*
X923004Y884233D01*
X924504D01*
X923337D02*
X922171Y882400D01*
X920388Y885899D02*
X920721Y885733D01*
X921054Y885399D01*
X921221Y885066D01*
X921388Y884566D01*
Y883733D01*
X921221Y883233D01*
X921054Y882900D01*
X920721Y882567D01*
X920388Y882400D01*
X919722D01*
X919388Y882567D01*
X919055Y882900D01*
X918888Y883233D01*
X918722Y883733D01*
Y884566D01*
X918888Y885066D01*
X919055Y885399D01*
X919388Y885733D01*
X919722Y885899D01*
X920388D01*
X917905Y884066D02*
X916405D01*
X915906Y884233D01*
X915739Y884400D01*
X915572Y884733D01*
Y885233D01*
X915739Y885566D01*
X915906Y885733D01*
X916405Y885899D01*
X917905D01*
Y882400D01*
X914789Y885899D02*
Y882400D01*
X912456Y885899D02*
Y882400D01*
X914789Y884233D02*
X912456D01*
X910490Y885899D02*
X910823Y885733D01*
X911157Y885399D01*
X911323Y885066D01*
X911490Y884566D01*
Y883733D01*
X911323Y883233D01*
X911157Y882900D01*
X910823Y882567D01*
X910490Y882400D01*
X909824D01*
X909490Y882567D01*
X909157Y882900D01*
X908990Y883233D01*
X908824Y883733D01*
Y884566D01*
X908990Y885066D01*
X909157Y885399D01*
X909490Y885733D01*
X909824Y885899D01*
X910490D01*
X908007D02*
Y882400D01*
Y885899D02*
X905674Y882400D01*
Y885899D02*
Y882400D01*
X902542Y885899D02*
X904708D01*
Y882400D01*
X902542D01*
X904708Y884233D02*
X903375D01*
X800230Y733454D02*
Y729955D01*
X798230D01*
X797514Y733454D02*
X797347Y733288D01*
X797181Y733454D01*
X797347Y733621D01*
X797514Y733454D01*
X797347Y732288D02*
Y729955D01*
X796564Y731455D02*
X793565D01*
X792532Y733454D02*
Y729955D01*
X790799Y733454D02*
X791132Y733288D01*
X791465Y732955D01*
X791632Y732621D01*
X791798Y732121D01*
Y731288D01*
X791632Y730788D01*
X791465Y730455D01*
X791132Y730122D01*
X790799Y729955D01*
X790132D01*
X789799Y730122D01*
X789466Y730455D01*
X789299Y730788D01*
X789132Y731288D01*
Y732121D01*
X789299Y732621D01*
X789466Y732955D01*
X789799Y733288D01*
X790132Y733454D01*
X790799D01*
X788316D02*
Y729955D01*
Y733454D02*
X785983Y729955D01*
Y733454D02*
Y729955D01*
X782267Y733454D02*
Y729955D01*
Y733454D02*
X780101D01*
X782267Y731788D02*
X780934D01*
X779701Y733454D02*
Y730955D01*
X779534Y730455D01*
X779201Y730122D01*
X778701Y729955D01*
X778368D01*
X777868Y730122D01*
X777535Y730455D01*
X777368Y730955D01*
Y733454D01*
X774235D02*
X776402D01*
Y729955D01*
X774235D01*
X776402Y731788D02*
X775069D01*
X773652Y733454D02*
Y729955D01*
X771653D01*
X766021Y732621D02*
X766187Y732955D01*
X766521Y733288D01*
X766854Y733454D01*
X767520D01*
X767853Y733288D01*
X768187Y732955D01*
X768353Y732621D01*
X768520Y732121D01*
Y731288D01*
X768353Y730788D01*
X768187Y730455D01*
X767853Y730122D01*
X767520Y729955D01*
X766854D01*
X766521Y730122D01*
X766187Y730455D01*
X766021Y730788D01*
Y731288D01*
X766854D02*
X766021D01*
X762555Y729955D02*
X763888Y733454D01*
X765221Y729955D01*
X764721Y731121D02*
X763055D01*
X761738Y733454D02*
Y730955D01*
X761572Y730455D01*
X761238Y730122D01*
X760738Y729955D01*
X760405D01*
X759905Y730122D01*
X759572Y730455D01*
X759405Y730955D01*
Y733454D01*
X755939Y732621D02*
X756106Y732955D01*
X756439Y733288D01*
X756773Y733454D01*
X757439D01*
X757772Y733288D01*
X758106Y732955D01*
X758272Y732621D01*
X758439Y732121D01*
Y731288D01*
X758272Y730788D01*
X758106Y730455D01*
X757772Y730122D01*
X757439Y729955D01*
X756773D01*
X756439Y730122D01*
X756106Y730455D01*
X755939Y730788D01*
Y731288D01*
X756773D02*
X755939D01*
X752973Y733454D02*
X755140D01*
Y729955D01*
X752973D01*
X755140Y731788D02*
X753806D01*
X947053Y793037D02*
Y789538D01*
X945053D01*
X942171Y792204D02*
X942337Y792537D01*
X942670Y792871D01*
X943004Y793037D01*
X943670D01*
X944003Y792871D01*
X944337Y792537D01*
X944503Y792204D01*
X944670Y791704D01*
Y790871D01*
X944503Y790371D01*
X944337Y790038D01*
X944003Y789705D01*
X943670Y789538D01*
X943004D01*
X942670Y789705D01*
X942337Y790038D01*
X942171Y790371D01*
X941187Y793037D02*
Y789538D01*
Y793037D02*
X940021D01*
X939521Y792871D01*
X939188Y792537D01*
X939021Y792204D01*
X938855Y791704D01*
Y790871D01*
X939021Y790371D01*
X939188Y790038D01*
X939521Y789705D01*
X940021Y789538D01*
X941187D01*
X935322Y792371D02*
X934989Y792537D01*
X934489Y793037D01*
Y789538D01*
X931756Y793037D02*
X932256Y792871D01*
X932589Y792371D01*
X932756Y791538D01*
Y791038D01*
X932589Y790205D01*
X932256Y789705D01*
X931756Y789538D01*
X931423D01*
X930923Y789705D01*
X930590Y790205D01*
X930423Y791038D01*
Y791538D01*
X930590Y792371D01*
X930923Y792871D01*
X931423Y793037D01*
X931756D01*
X926890Y791205D02*
X925391D01*
X924891Y791371D01*
X924724Y791538D01*
X924558Y791871D01*
Y792371D01*
X924724Y792704D01*
X924891Y792871D01*
X925391Y793037D01*
X926890D01*
Y789538D01*
X923774Y793037D02*
Y789538D01*
X923041Y793037D02*
Y789538D01*
Y793037D02*
X920708Y789538D01*
Y793037D02*
Y789538D01*
X914493Y792204D02*
X914660Y792537D01*
X914993Y792871D01*
X915326Y793037D01*
X915993D01*
X916326Y792871D01*
X916659Y792537D01*
X916826Y792204D01*
X916992Y791704D01*
Y790871D01*
X916826Y790371D01*
X916659Y790038D01*
X916326Y789705D01*
X915993Y789538D01*
X915326D01*
X914993Y789705D01*
X914660Y790038D01*
X914493Y790371D01*
X912510Y793037D02*
X912843Y792871D01*
X913177Y792537D01*
X913343Y792204D01*
X913510Y791704D01*
Y790871D01*
X913343Y790371D01*
X913177Y790038D01*
X912843Y789705D01*
X912510Y789538D01*
X911844D01*
X911510Y789705D01*
X911177Y790038D01*
X911010Y790371D01*
X910844Y790871D01*
Y791704D01*
X911010Y792204D01*
X911177Y792537D01*
X911510Y792871D01*
X911844Y793037D01*
X912510D01*
X910027D02*
Y789538D01*
Y793037D02*
X907695Y789538D01*
Y793037D02*
Y789538D01*
X906728Y793037D02*
Y789538D01*
Y793037D02*
X904395Y789538D01*
Y793037D02*
Y789538D01*
X901263Y793037D02*
X903429D01*
Y789538D01*
X901263D01*
X903429Y791371D02*
X902096D01*
X898180Y792204D02*
X898347Y792537D01*
X898680Y792871D01*
X899013Y793037D01*
X899680D01*
X900013Y792871D01*
X900346Y792537D01*
X900513Y792204D01*
X900679Y791704D01*
Y790871D01*
X900513Y790371D01*
X900346Y790038D01*
X900013Y789705D01*
X899680Y789538D01*
X899013D01*
X898680Y789705D01*
X898347Y790038D01*
X898180Y790371D01*
X896030Y793037D02*
Y789538D01*
X897197Y793037D02*
X894864D01*
X893448D02*
X893781Y792871D01*
X894114Y792537D01*
X894281Y792204D01*
X894447Y791704D01*
Y790871D01*
X894281Y790371D01*
X894114Y790038D01*
X893781Y789705D01*
X893448Y789538D01*
X892781D01*
X892448Y789705D01*
X892115Y790038D01*
X891948Y790371D01*
X891781Y790871D01*
Y791704D01*
X891948Y792204D01*
X892115Y792537D01*
X892448Y792871D01*
X892781Y793037D01*
X893448D01*
X890965D02*
Y789538D01*
Y793037D02*
X889465D01*
X888965Y792871D01*
X888799Y792704D01*
X888632Y792371D01*
Y792038D01*
X888799Y791704D01*
X888965Y791538D01*
X889465Y791371D01*
X890965D01*
X889798D02*
X888632Y789538D01*
X1039100Y782461D02*
Y778962D01*
X1037100D01*
X1034218Y781628D02*
X1034384Y781961D01*
X1034718Y782294D01*
X1035051Y782461D01*
X1035717D01*
X1036051Y782294D01*
X1036384Y781961D01*
X1036551Y781628D01*
X1036717Y781128D01*
Y780295D01*
X1036551Y779795D01*
X1036384Y779462D01*
X1036051Y779128D01*
X1035717Y778962D01*
X1035051D01*
X1034718Y779128D01*
X1034384Y779462D01*
X1034218Y779795D01*
X1033235Y782461D02*
Y778962D01*
Y782461D02*
X1032068D01*
X1031568Y782294D01*
X1031235Y781961D01*
X1031068Y781628D01*
X1030902Y781128D01*
Y780295D01*
X1031068Y779795D01*
X1031235Y779462D01*
X1031568Y779128D01*
X1032068Y778962D01*
X1033235D01*
X1025703Y782461D02*
X1027369Y780128D01*
X1024870D01*
X1025703Y782461D02*
Y778962D01*
X1023253Y782461D02*
X1023753Y782294D01*
X1024086Y781794D01*
X1024253Y780961D01*
Y780461D01*
X1024086Y779628D01*
X1023753Y779128D01*
X1023253Y778962D01*
X1022920D01*
X1022420Y779128D01*
X1022087Y779628D01*
X1021920Y780461D01*
Y780961D01*
X1022087Y781794D01*
X1022420Y782294D01*
X1022920Y782461D01*
X1023253D01*
X1018388Y780628D02*
X1016888D01*
X1016388Y780795D01*
X1016222Y780961D01*
X1016055Y781294D01*
Y781794D01*
X1016222Y782128D01*
X1016388Y782294D01*
X1016888Y782461D01*
X1018388D01*
Y778962D01*
X1015272Y782461D02*
Y778962D01*
X1014539Y782461D02*
Y778962D01*
Y782461D02*
X1012206Y778962D01*
Y782461D02*
Y778962D01*
X1005990Y781628D02*
X1006157Y781961D01*
X1006490Y782294D01*
X1006824Y782461D01*
X1007490D01*
X1007823Y782294D01*
X1008157Y781961D01*
X1008323Y781628D01*
X1008490Y781128D01*
Y780295D01*
X1008323Y779795D01*
X1008157Y779462D01*
X1007823Y779128D01*
X1007490Y778962D01*
X1006824D01*
X1006490Y779128D01*
X1006157Y779462D01*
X1005990Y779795D01*
X1004008Y782461D02*
X1004341Y782294D01*
X1004674Y781961D01*
X1004841Y781628D01*
X1005007Y781128D01*
Y780295D01*
X1004841Y779795D01*
X1004674Y779462D01*
X1004341Y779128D01*
X1004008Y778962D01*
X1003341D01*
X1003008Y779128D01*
X1002674Y779462D01*
X1002508Y779795D01*
X1002341Y780295D01*
Y781128D01*
X1002508Y781628D01*
X1002674Y781961D01*
X1003008Y782294D01*
X1003341Y782461D01*
X1004008D01*
X1001525D02*
Y778962D01*
Y782461D02*
X999192Y778962D01*
Y782461D02*
Y778962D01*
X998225Y782461D02*
Y778962D01*
Y782461D02*
X995893Y778962D01*
Y782461D02*
Y778962D01*
X992760Y782461D02*
X994926D01*
Y778962D01*
X992760D01*
X994926Y780795D02*
X993593D01*
X989677Y781628D02*
X989844Y781961D01*
X990177Y782294D01*
X990510Y782461D01*
X991177D01*
X991510Y782294D01*
X991844Y781961D01*
X992010Y781628D01*
X992177Y781128D01*
Y780295D01*
X992010Y779795D01*
X991844Y779462D01*
X991510Y779128D01*
X991177Y778962D01*
X990510D01*
X990177Y779128D01*
X989844Y779462D01*
X989677Y779795D01*
X987528Y782461D02*
Y778962D01*
X988694Y782461D02*
X986361D01*
X984945D02*
X985278Y782294D01*
X985612Y781961D01*
X985778Y781628D01*
X985945Y781128D01*
Y780295D01*
X985778Y779795D01*
X985612Y779462D01*
X985278Y779128D01*
X984945Y778962D01*
X984278D01*
X983945Y779128D01*
X983612Y779462D01*
X983445Y779795D01*
X983279Y780295D01*
Y781128D01*
X983445Y781628D01*
X983612Y781961D01*
X983945Y782294D01*
X984278Y782461D01*
X984945D01*
X982462D02*
Y778962D01*
Y782461D02*
X980962D01*
X980463Y782294D01*
X980296Y782128D01*
X980129Y781794D01*
Y781461D01*
X980296Y781128D01*
X980463Y780961D01*
X980962Y780795D01*
X982462D01*
X981296D02*
X980129Y778962D01*
M02*
