G04*
G04 #@! TF.GenerationSoftware,Altium Limited,Altium Designer,20.2.5 (213)*
G04*
G04 Layer_Color=16711935*
%FSLAX25Y25*%
%MOIN*%
G70*
G04*
G04 #@! TF.SameCoordinates,04ACB860-B9D4-4248-80BD-52411BCDF81E*
G04*
G04*
G04 #@! TF.FilePolarity,Positive*
G04*
G01*
G75*
%ADD10C,0.00787*%
%ADD11C,0.00500*%
%ADD14C,0.00394*%
%ADD15C,0.00787*%
%ADD17C,0.01000*%
%ADD170C,0.00197*%
D10*
X844299Y792453D02*
X843709Y793043D01*
X843118Y792453D01*
X843709Y791862D01*
X844299Y792453D01*
X1137917Y824616D02*
X1137130D01*
X1137917D01*
Y761063D02*
X1137130D01*
X1137917D01*
Y697563D02*
X1137130D01*
X1137917D01*
X1037130Y887906D02*
X1036343D01*
X1037130D01*
X777181Y826921D02*
X776394D01*
X777181D01*
X858882Y741559D02*
X858095D01*
X858882D01*
X1063646Y747500D02*
X1062858D01*
X1063646D01*
X1078614Y720579D02*
X1077827D01*
X1078614D01*
X769858Y739965D02*
X769071D01*
X769858D01*
X824909Y737420D02*
X824121D01*
X824909D01*
X842579Y850815D02*
X841791D01*
X842579D01*
X1062201Y753709D02*
Y771032D01*
X962083Y753709D02*
X1062201D01*
X962083D02*
Y771032D01*
X1062201D01*
X899469Y784571D02*
X940532D01*
X899469Y767248D02*
Y784571D01*
Y767248D02*
X940532D01*
Y784571D01*
D11*
X805219Y599780D02*
X806181Y600049D01*
X807137Y600339D01*
X808086Y600651D01*
X809029Y600983D01*
X809963Y601336D01*
X810890Y601710D01*
X811808Y602104D01*
X812718Y602518D01*
X813618Y602952D01*
X814508Y603405D01*
X815388Y603879D01*
X816257Y604371D01*
X817115Y604883D01*
X817962Y605413D01*
X818797Y605963D01*
X819619Y606530D01*
X820429Y607115D01*
X821225Y607718D01*
X822009Y608339D01*
X822778Y608976D01*
X823533Y609631D01*
X824273Y610302D01*
X824999Y610989D01*
X825709Y611692D01*
X826403Y612410D01*
X827081Y613144D01*
X827743Y613892D01*
X828389Y614655D01*
X829017Y615432D01*
X829628Y616223D01*
X830221Y617026D01*
X830797Y617843D01*
X831354Y618672D01*
X831893Y619514D01*
X832414Y620367D01*
X832915Y621231D01*
X833397Y622106D01*
X833860Y622992D01*
X834303Y623887D01*
X834726Y624792D01*
X835129Y625707D01*
X835512Y626630D01*
X835874Y627561D01*
X836216Y628500D01*
X836537Y629446D01*
X836837Y630399D01*
X837116Y631358D01*
X837373Y632324D01*
X837609Y633294D01*
X837824Y634270D01*
X838017Y635251D01*
X838189Y636235D01*
X838339Y637223D01*
X838467Y638214D01*
X838573Y639207D01*
X838657Y640203D01*
X838719Y641200D01*
X838759Y642198D01*
X838777Y643197D01*
X838773Y644197D01*
X838747Y645195D01*
X838699Y646193D01*
X838629Y647190D01*
X838537Y648185D01*
X838423Y649178D01*
X838287Y650167D01*
X838129Y651154D01*
X837950Y652137D01*
X837749Y653116D01*
X837526Y654090D01*
X837282Y655059D01*
X837016Y656022D01*
X836730Y656979D01*
X836422Y657930D01*
X836094Y658873D01*
X835744Y659809D01*
X835375Y660738D01*
X834984Y661657D01*
X834574Y662568D01*
X834144Y663470D01*
X833693Y664362D01*
X833224Y665244D01*
X832734Y666115D01*
X832226Y666975D01*
X831699Y667824D01*
X831153Y668661D01*
X830589Y669486D01*
X830007Y670298D01*
X829408Y671097D01*
X828790Y671882D01*
X828156Y672654D01*
X827504Y673412D01*
X826836Y674155D01*
X826152Y674883D01*
X825452Y675596D01*
X824736Y676293D01*
X824005Y676974D01*
X823260Y677639D01*
X822499Y678288D01*
X821725Y678919D01*
X820937Y679533D01*
X820135Y680130D01*
X819321Y680709D01*
X818494Y681270D01*
X817655Y681812D01*
X816804Y682336D01*
X815942Y682840D01*
X815069Y683326D01*
X814185Y683792D01*
X813291Y684239D01*
X812388Y684666D01*
X811475Y685072D01*
X810554Y685459D01*
X809624Y685825D01*
X808686Y686170D01*
X807742Y686495D01*
X806790Y686799D01*
X805831Y687082D01*
X804867Y687343D01*
X803897Y687583D01*
X802922Y687802D01*
X801943Y687999D01*
X800959Y688174D01*
X799972Y688328D01*
X798981Y688460D01*
X797988Y688570D01*
X796993Y688658D01*
X795996Y688724D01*
X794998Y688768D01*
X793999Y688790D01*
X793000Y688790D01*
X792001Y688768D01*
X791003Y688724D01*
X790006Y688658D01*
X789010Y688570D01*
X788017Y688460D01*
X787027Y688328D01*
X786040Y688174D01*
X785056Y687999D01*
X784077Y687802D01*
X783102Y687583D01*
X782132Y687343D01*
X781168Y687081D01*
X780209Y686798D01*
X779257Y686495D01*
X778312Y686170D01*
X777375Y685824D01*
X776445Y685458D01*
X775524Y685072D01*
X774611Y684665D01*
X773708Y684238D01*
X772814Y683792D01*
X771931Y683325D01*
X771057Y682840D01*
X770195Y682335D01*
X769344Y681811D01*
X768505Y681269D01*
X767678Y680708D01*
X766863Y680129D01*
X766062Y679533D01*
X765274Y678919D01*
X764500Y678287D01*
X763739Y677639D01*
X762994Y676974D01*
X762263Y676292D01*
X761547Y675595D01*
X760847Y674882D01*
X760163Y674154D01*
X759495Y673411D01*
X758844Y672653D01*
X758209Y671882D01*
X757592Y671096D01*
X756992Y670297D01*
X756410Y669485D01*
X755846Y668660D01*
X755300Y667823D01*
X754773Y666974D01*
X754265Y666114D01*
X753776Y665243D01*
X753306Y664361D01*
X752856Y663469D01*
X752425Y662567D01*
X752015Y661656D01*
X751625Y660737D01*
X751255Y659808D01*
X750906Y658872D01*
X750577Y657929D01*
X750270Y656978D01*
X749983Y656021D01*
X749718Y655058D01*
X749474Y654089D01*
X749251Y653115D01*
X749050Y652136D01*
X748871Y651153D01*
X748713Y650167D01*
X748577Y649177D01*
X748463Y648184D01*
X748371Y647189D01*
X748301Y646193D01*
X748253Y645195D01*
X748227Y644196D01*
X748223Y643197D01*
X748241Y642198D01*
X748281Y641199D01*
X748343Y640202D01*
X748427Y639207D01*
X748533Y638213D01*
X748661Y637222D01*
X748811Y636234D01*
X748983Y635250D01*
X749176Y634270D01*
X749391Y633294D01*
X749627Y632323D01*
X749885Y631358D01*
X750163Y630399D01*
X750463Y629445D01*
X750784Y628499D01*
X751126Y627560D01*
X751488Y626629D01*
X751871Y625706D01*
X752274Y624792D01*
X752697Y623887D01*
X753140Y622992D01*
X753603Y622106D01*
X754085Y621231D01*
X754587Y620367D01*
X755107Y619514D01*
X755646Y618672D01*
X756203Y617843D01*
X756779Y617026D01*
X757372Y616223D01*
X757983Y615432D01*
X758611Y614655D01*
X759257Y613892D01*
X759919Y613144D01*
X760597Y612410D01*
X761291Y611692D01*
X762001Y610989D01*
X762727Y610302D01*
X763467Y609631D01*
X764222Y608977D01*
X764991Y608339D01*
X765774Y607719D01*
X766571Y607115D01*
X767381Y606530D01*
X768203Y605963D01*
X769038Y605414D01*
X769884Y604883D01*
X770743Y604372D01*
X771612Y603879D01*
X772492Y603406D01*
X773382Y602952D01*
X774282Y602518D01*
X775191Y602104D01*
X776109Y601710D01*
X777036Y601336D01*
X777971Y600983D01*
X778913Y600651D01*
X779862Y600340D01*
X780818Y600049D01*
X781780Y599780D01*
X946776Y595630D02*
Y705866D01*
Y595630D02*
X1057012D01*
Y705866D01*
X946776D02*
X1057012D01*
X863571Y774461D02*
Y794539D01*
X847429Y774461D02*
Y794539D01*
Y774461D02*
X863571D01*
X847429Y794539D02*
X863571D01*
X903094Y902189D02*
Y917937D01*
X914905D01*
Y902189D02*
Y917937D01*
X903094Y902189D02*
X914905D01*
X1132799Y823238D02*
Y833868D01*
X1120201D02*
X1132799D01*
X1120201Y823238D02*
Y833868D01*
Y823238D02*
X1132799D01*
Y759685D02*
Y770315D01*
X1120201D02*
X1132799D01*
X1120201Y759685D02*
Y770315D01*
Y759685D02*
X1132799D01*
X1120201Y696185D02*
X1132799D01*
X1120201D02*
Y706815D01*
X1132799D01*
Y696185D02*
Y706815D01*
X1041461Y917394D02*
X1112327D01*
Y893772D02*
Y917394D01*
Y817000D02*
Y893772D01*
X1041461Y817000D02*
X1112327D01*
X1041461D02*
Y893772D01*
Y917394D01*
Y893772D02*
X1112327D01*
X780626Y814126D02*
X796374D01*
X780626Y829874D02*
X796374D01*
Y814126D02*
Y829874D01*
X780626Y814126D02*
Y829874D01*
X805291Y580272D02*
Y599799D01*
X781709Y580272D02*
X805291D01*
X781709D02*
Y599799D01*
X1070476Y742461D02*
X1087524D01*
Y752539D01*
X1070476D02*
X1087524D01*
X1070476Y742461D02*
Y752539D01*
X1092315Y719594D02*
Y731405D01*
X1081685Y719594D02*
Y731405D01*
X1092315D01*
X1081685Y719594D02*
X1092315D01*
X772988Y738784D02*
X781256D01*
X772988Y747051D02*
X781256D01*
X772988Y738784D02*
Y747051D01*
X781256Y738784D02*
Y747051D01*
X818265Y735648D02*
Y747065D01*
X811868Y735648D02*
X818265D01*
X811868D02*
Y747065D01*
X818265D01*
X827976Y749705D02*
Y775295D01*
X800024Y749705D02*
Y775295D01*
Y749705D02*
X827976D01*
X800024Y775295D02*
X827976D01*
X784508Y853492D02*
X860492D01*
X784508D02*
Y934004D01*
X860492D01*
Y853492D02*
Y934004D01*
X841539Y777976D02*
Y795024D01*
X831461Y777976D02*
X841539D01*
X831461D02*
Y795024D01*
X841539D01*
X1106898Y607118D02*
X1119102D01*
Y596882D02*
Y607118D01*
X1106898Y596882D02*
X1119102D01*
X1106898D02*
Y607118D01*
D14*
X964713Y557986D02*
X964152Y558758D01*
X963245Y558463D01*
Y557509D01*
X964152Y557214D01*
X964713Y557986D01*
X951268Y758831D02*
X951004Y759815D01*
X950284Y760535D01*
X949299Y760799D01*
X948315Y760535D01*
X947594Y759815D01*
X947331Y758831D01*
X947594Y757846D01*
X948315Y757126D01*
X949299Y756862D01*
X950284Y757126D01*
X951004Y757846D01*
X951268Y758831D01*
X952680Y554049D02*
Y559954D01*
X965279Y554049D02*
Y559954D01*
X952680Y554049D02*
X965279D01*
X952680Y559954D02*
X965279D01*
X865327Y868130D02*
X872217D01*
X865327Y871870D02*
X872217D01*
Y868130D02*
Y871870D01*
X865327Y868130D02*
Y871870D01*
X933158Y746626D02*
Y762374D01*
X952843Y746626D02*
Y762374D01*
X933158Y746626D02*
X952843D01*
X933158Y762374D02*
X952843D01*
X1056584Y726630D02*
Y730370D01*
X1049695Y726630D02*
Y730370D01*
Y726630D02*
X1056584D01*
X1049695Y730370D02*
X1056584D01*
X898134Y891461D02*
X898134Y891461D01*
X889866Y891461D02*
X898134D01*
X889866Y886539D02*
Y891461D01*
Y886539D02*
X896264D01*
X898134Y888409D01*
Y891461D01*
X986520Y874870D02*
X993410Y874870D01*
X986520Y871130D02*
X993410D01*
X986520D02*
X986520Y874870D01*
X993410Y874870D02*
X993410Y871130D01*
X1105555Y697267D02*
Y701007D01*
X1112445Y697267D02*
Y701007D01*
X1105555D02*
X1112445D01*
X1105555Y697267D02*
X1112445D01*
X888130Y725055D02*
X891870D01*
X888130Y731945D02*
X891870D01*
X888130Y725055D02*
Y731945D01*
X891870Y725055D02*
Y731945D01*
X908228Y637913D02*
X912284D01*
X908228D02*
Y639961D01*
X912284Y637913D02*
Y639961D01*
X908228D02*
X912284D01*
X884331Y605955D02*
Y612845D01*
X880591Y605955D02*
Y612845D01*
X884331D01*
X880591Y605955D02*
X884331D01*
X878760Y709350D02*
X881240D01*
X878760Y710650D02*
X881240D01*
Y709350D02*
Y710650D01*
X878760Y709350D02*
Y710650D01*
X913398Y669713D02*
X917138D01*
X913398Y676602D02*
X917138D01*
X913398Y669713D02*
Y676602D01*
X917138Y669713D02*
Y676602D01*
X955260Y621350D02*
X957740D01*
X955260Y622650D02*
X957740D01*
X955260Y621350D02*
Y622650D01*
X957740Y621350D02*
Y622650D01*
X849555Y647830D02*
Y651570D01*
X856445Y647830D02*
Y651570D01*
X849555D02*
X856445D01*
X849555Y647830D02*
X856445D01*
X883445Y675730D02*
Y679470D01*
X876555Y675730D02*
Y679470D01*
Y675730D02*
X883445D01*
X876555Y679470D02*
X883445D01*
X849555Y666430D02*
X856445D01*
X849555Y670170D02*
X856445D01*
Y666430D02*
Y670170D01*
X849555Y666430D02*
Y670170D01*
X883445Y681930D02*
Y685670D01*
X876555Y681930D02*
Y685670D01*
Y681930D02*
X883445D01*
X876555Y685670D02*
X883445D01*
Y641630D02*
Y645370D01*
X876555Y641630D02*
Y645370D01*
Y641630D02*
X883445D01*
X876555Y645370D02*
X883445D01*
X876555Y660870D02*
X883445D01*
X876555Y657130D02*
X883445D01*
X876555D02*
Y660870D01*
X883445Y657130D02*
Y660870D01*
X859748Y739000D02*
X873252D01*
Y714000D02*
Y739000D01*
X859748Y714000D02*
X873252D01*
X859748D02*
Y739000D01*
X873252D01*
Y714000D02*
Y739000D01*
X859748Y714000D02*
X873252D01*
X908228Y630118D02*
X912284D01*
Y628071D02*
Y630118D01*
X908228Y628071D02*
Y630118D01*
Y628071D02*
X912284D01*
X998221Y886024D02*
X999272Y887075D01*
X998221Y883925D02*
Y887075D01*
Y883925D02*
X1004520D01*
Y887075D01*
X998221D02*
X1004520D01*
X756850Y781057D02*
X757902Y782108D01*
X756850Y778959D02*
Y782108D01*
Y778959D02*
X763150D01*
Y782108D01*
X756850D02*
X763150D01*
X756850Y790098D02*
X757902Y791150D01*
X756850Y788000D02*
Y791150D01*
Y788000D02*
X763150D01*
Y791150D01*
X756850D02*
X763150D01*
X975713Y571902D02*
X976764Y570850D01*
X975713D02*
X978862D01*
Y577150D01*
X975713D02*
X978862D01*
X975713Y570850D02*
Y577150D01*
X889126Y833311D02*
X890177Y834362D01*
Y833311D02*
Y836461D01*
X883878D02*
X890177D01*
X883878Y833311D02*
Y836461D01*
Y833311D02*
X890177D01*
X889083Y824425D02*
X890134Y825476D01*
Y824425D02*
Y827575D01*
X883835D02*
X890134D01*
X883835Y824425D02*
Y827575D01*
Y824425D02*
X890134D01*
X895673Y833016D02*
Y836756D01*
X902563Y833016D02*
Y836756D01*
X895673D02*
X902563D01*
X895673Y833016D02*
X902563D01*
X896039Y824130D02*
Y827870D01*
X902929Y824130D02*
Y827870D01*
X896039D02*
X902929D01*
X896039Y824130D02*
X902929D01*
X869366Y887409D02*
Y890461D01*
Y887409D02*
X871236Y885539D01*
X877634D01*
Y890461D01*
X869366D02*
X877634D01*
X869366Y890461D02*
X869366Y890461D01*
X862630Y883555D02*
X866370D01*
X862630Y890445D02*
X866370D01*
X862630Y883555D02*
Y890445D01*
X866370Y883555D02*
Y890445D01*
X966055Y717630D02*
X972945D01*
X966055Y721370D02*
X972945D01*
Y717630D02*
Y721370D01*
X966055Y717630D02*
Y721370D01*
X1061370Y737555D02*
Y744445D01*
X1057630Y737555D02*
Y744445D01*
Y737555D02*
X1061370D01*
X1057630Y744445D02*
X1061370D01*
X811561Y554740D02*
X812860D01*
X811561Y552260D02*
X812860D01*
Y554740D01*
X811561Y552260D02*
Y554740D01*
X823055Y543763D02*
Y547503D01*
X829945Y543763D02*
Y547503D01*
X823055D02*
X829945D01*
X823055Y543763D02*
X829945D01*
X806130Y551295D02*
Y558185D01*
X809870Y551295D02*
Y558185D01*
X806130Y551295D02*
X809870D01*
X806130Y558185D02*
X809870D01*
X800760D02*
X804501D01*
X800760Y551295D02*
X804501D01*
Y558185D01*
X800760Y551295D02*
Y558185D01*
X797673Y554740D02*
X798972D01*
X797673Y552260D02*
X798972D01*
Y554740D01*
X797673Y552260D02*
Y554740D01*
X797020Y560707D02*
Y564447D01*
X803910Y560707D02*
Y564447D01*
X797020D02*
X803910D01*
X797020Y560707D02*
X803910D01*
X813945D02*
Y564447D01*
X807055Y560707D02*
Y564447D01*
Y560707D02*
X813945D01*
X807055Y564447D02*
X813945D01*
X1056318Y720609D02*
Y724349D01*
X1049428Y720609D02*
Y724349D01*
Y720609D02*
X1056318D01*
X1049428Y724349D02*
X1056318D01*
X1094516Y745630D02*
X1101406D01*
X1094516Y749370D02*
X1101406D01*
X1094516Y745630D02*
Y749370D01*
X1101406Y745630D02*
Y749370D01*
X1068055Y736630D02*
X1074945D01*
X1068055Y740370D02*
X1074945D01*
X1068055Y736630D02*
Y740370D01*
X1074945Y736630D02*
Y740370D01*
X1068055Y724870D02*
X1074945D01*
X1068055Y721130D02*
X1074945D01*
Y724870D01*
X1068055Y721130D02*
Y724870D01*
X1075055Y715894D02*
X1081945D01*
X1075055Y712153D02*
X1081945D01*
Y715894D01*
X1075055Y712153D02*
Y715894D01*
X1086669Y711244D02*
Y716756D01*
X1095331Y711244D02*
Y716756D01*
X1086669Y711244D02*
X1095331D01*
X1086669Y716756D02*
X1095331D01*
X1097803Y719102D02*
X1101543D01*
X1097803Y725992D02*
X1101543D01*
Y719102D02*
Y725992D01*
X1097803Y719102D02*
Y725992D01*
X1061669Y711268D02*
Y716780D01*
X1070331Y711268D02*
Y716780D01*
X1061669Y711268D02*
X1070331D01*
X1061669Y716780D02*
X1070331D01*
X939760Y721650D02*
X942240D01*
X939760Y720350D02*
X942240D01*
Y721650D01*
X939760Y720350D02*
Y721650D01*
X1017569Y736209D02*
X1024459D01*
X1017569Y732469D02*
X1024459D01*
X1017569D02*
Y736209D01*
X1024459Y732469D02*
Y736209D01*
Y738425D02*
Y742165D01*
X1017569Y738425D02*
Y742165D01*
Y738425D02*
X1024459D01*
X1017569Y742165D02*
X1024459D01*
X1004555Y736209D02*
X1011445D01*
X1004555Y732469D02*
X1011445D01*
X1004555D02*
Y736209D01*
X1011445Y732469D02*
Y736209D01*
Y738583D02*
Y742323D01*
X1004555Y738583D02*
Y742323D01*
Y738583D02*
X1011445D01*
X1004555Y742323D02*
X1011445D01*
X928945Y797130D02*
Y800870D01*
X922055Y797130D02*
Y800870D01*
X928945D01*
X922055Y797130D02*
X928945D01*
X922555Y791130D02*
X929445D01*
X922555Y794870D02*
X929445D01*
X922555Y791130D02*
Y794870D01*
X929445Y791130D02*
Y794870D01*
X933874Y575130D02*
X940764D01*
X933874Y578870D02*
X940764D01*
Y575130D02*
Y578870D01*
X933874Y575130D02*
Y578870D01*
X997925Y876705D02*
Y880445D01*
X1004815Y876705D02*
Y880445D01*
X997925D02*
X1004815D01*
X997925Y876705D02*
X1004815D01*
X1048744Y804760D02*
X1050043D01*
X1048744Y807240D02*
X1050043D01*
X1048744Y804760D02*
Y807240D01*
X1050043Y804760D02*
Y807240D01*
X1044260Y809630D02*
Y810929D01*
X1046740Y809630D02*
Y810929D01*
X1044260D02*
X1046740D01*
X1044260Y809630D02*
X1046740D01*
X959870Y742055D02*
Y748945D01*
X956130Y742055D02*
Y748945D01*
X959870D01*
X956130Y742055D02*
X959870D01*
X965130D02*
Y748945D01*
X968870Y742055D02*
Y748945D01*
X965130Y742055D02*
X968870D01*
X965130Y748945D02*
X968870D01*
X761055Y742031D02*
Y745772D01*
X767945Y742031D02*
Y745772D01*
X761055Y742031D02*
X767945D01*
X761055Y745772D02*
X767945D01*
X907408Y892055D02*
X911148D01*
X907408Y898945D02*
X911148D01*
Y892055D02*
Y898945D01*
X907408Y892055D02*
Y898945D01*
X912130Y892055D02*
Y898945D01*
X915870Y892055D02*
Y898945D01*
X912130D02*
X915870D01*
X912130Y892055D02*
X915870D01*
X760744Y835161D02*
X766256D01*
X760744Y843823D02*
X766256D01*
X760744Y835161D02*
Y843823D01*
X766256Y835161D02*
Y843823D01*
X772370Y836047D02*
Y842937D01*
X768630Y836047D02*
Y842937D01*
X772370D01*
X768630Y836047D02*
X772370D01*
X776130Y836752D02*
Y843642D01*
X779870Y836752D02*
Y843642D01*
X776130Y836752D02*
X779870D01*
X776130Y843642D02*
X779870D01*
X782630Y843445D02*
X786370D01*
X782630Y836555D02*
X786370D01*
Y843445D01*
X782630Y836555D02*
Y843445D01*
X889630Y579945D02*
X893370D01*
X889630Y573055D02*
X893370D01*
X889630D02*
Y579945D01*
X893370Y573055D02*
Y579945D01*
X889630Y559055D02*
X893370D01*
X889630Y565945D02*
X893370D01*
Y559055D02*
Y565945D01*
X889630Y559055D02*
Y565945D01*
X1050972Y778463D02*
Y782203D01*
X1044083Y778463D02*
Y782203D01*
X1050972D01*
X1044083Y778463D02*
X1050972D01*
X1044555Y784630D02*
X1051445D01*
X1044555Y788370D02*
X1051445D01*
X1044555Y784630D02*
Y788370D01*
X1051445Y784630D02*
Y788370D01*
X858622Y839445D02*
X862362D01*
X858622Y832555D02*
X862362D01*
Y839445D01*
X858622Y832555D02*
Y839445D01*
X892874Y843126D02*
Y858874D01*
X877126Y843126D02*
X892874D01*
X877126D02*
Y858874D01*
X892874D01*
X890905D02*
X892874Y856905D01*
X1105555Y803630D02*
Y807370D01*
X1112445Y803630D02*
Y807370D01*
X1105555D02*
X1112445D01*
X1105555Y803630D02*
X1112445D01*
X1105555Y808630D02*
Y812370D01*
X1112445Y808630D02*
Y812370D01*
X1105555D02*
X1112445D01*
X1105555Y808630D02*
X1112445D01*
X1105555Y798630D02*
Y802370D01*
X1112445Y798630D02*
Y802370D01*
X1105555D02*
X1112445D01*
X1105555Y798630D02*
X1112445D01*
X1105555Y765598D02*
Y769338D01*
X1112445Y765598D02*
Y769338D01*
X1105555D02*
X1112445D01*
X1105555Y765598D02*
X1112445D01*
X1105555Y770130D02*
Y773870D01*
X1112445Y770130D02*
Y773870D01*
X1105555D02*
X1112445D01*
X1105555Y770130D02*
X1112445D01*
X890555Y877630D02*
Y881370D01*
X897445Y877630D02*
Y881370D01*
X890555Y877630D02*
X897445D01*
X890555Y881370D02*
X897445D01*
X896630Y904445D02*
X900370D01*
X896630Y897555D02*
X900370D01*
X896630D02*
Y904445D01*
X900370Y897555D02*
Y904445D01*
X902630Y892055D02*
X906370D01*
X902630Y898945D02*
X906370D01*
Y892055D02*
Y898945D01*
X902630Y892055D02*
Y898945D01*
X761083Y796055D02*
X764823D01*
X761083Y802945D02*
X764823D01*
X761083Y796055D02*
Y802945D01*
X764823Y796055D02*
Y802945D01*
X862744Y751244D02*
Y756756D01*
X854083Y751244D02*
Y756756D01*
Y751244D02*
X862744D01*
X854083Y756756D02*
X862744D01*
X917138Y646555D02*
Y653445D01*
X913398Y646555D02*
Y653445D01*
X917138D01*
X913398Y646555D02*
X917138D01*
Y658055D02*
Y664945D01*
X913398Y658055D02*
Y664945D01*
X917138D01*
X913398Y658055D02*
X917138D01*
X750130Y817445D02*
X753870D01*
X750130Y810555D02*
X753870D01*
Y817445D01*
X750130Y810555D02*
Y817445D01*
Y821555D02*
X753870D01*
X750130Y828445D02*
X753870D01*
X750130Y821555D02*
Y828445D01*
X753870Y821555D02*
Y828445D01*
X923359Y669555D02*
Y676445D01*
X919619Y669555D02*
Y676445D01*
X923359D01*
X919619Y669555D02*
X923359D01*
X1074091Y672650D02*
X1077831D01*
X1074091Y679539D02*
X1077831D01*
X1074091Y672650D02*
Y679539D01*
X1077831Y672650D02*
Y679539D01*
X919619Y658055D02*
X923359D01*
X919619Y664945D02*
X923359D01*
X919619Y658055D02*
Y664945D01*
X923359Y658055D02*
Y664945D01*
X965827Y723932D02*
X972717D01*
X965827Y727672D02*
X972717D01*
Y723932D02*
Y727672D01*
X965827Y723932D02*
Y727672D01*
X993551Y574972D02*
Y578713D01*
X986661Y574972D02*
Y578713D01*
Y574972D02*
X993551D01*
X986661Y578713D02*
X993551D01*
X932985Y644350D02*
Y651240D01*
X929244Y644350D02*
Y651240D01*
X932985D01*
X929244Y644350D02*
X932985D01*
X916866Y640323D02*
X922772D01*
X916866Y627724D02*
Y640323D01*
Y627724D02*
X922772D01*
Y640323D01*
X810957Y818769D02*
Y827431D01*
X818043Y818769D02*
Y827431D01*
X810957Y818769D02*
X818043D01*
X810957Y827431D02*
X818043D01*
X872315Y874630D02*
Y878370D01*
X865425Y874630D02*
Y878370D01*
Y874630D02*
X872315D01*
X865425Y878370D02*
X872315D01*
X976205Y565870D02*
X983095D01*
X976205Y562130D02*
X983095D01*
X976205D02*
Y565870D01*
X983095Y562130D02*
Y565870D01*
X1010055Y575130D02*
X1016945D01*
X1010055Y578870D02*
X1016945D01*
Y575130D02*
Y578870D01*
X1010055Y575130D02*
Y578870D01*
X938870Y645055D02*
Y651945D01*
X935130Y645055D02*
Y651945D01*
X938870D01*
X935130Y645055D02*
X938870D01*
X993945Y569130D02*
Y572870D01*
X987055Y569130D02*
Y572870D01*
Y569130D02*
X993945D01*
X987055Y572870D02*
X993945D01*
X1080193Y672650D02*
X1083933D01*
X1080193Y679539D02*
X1083933D01*
X1080193Y672650D02*
Y679539D01*
X1083933Y672650D02*
Y679539D01*
X923359Y646555D02*
Y653445D01*
X919619Y646555D02*
Y653445D01*
X923359D01*
X919619Y646555D02*
X923359D01*
X1076870Y633555D02*
Y640445D01*
X1073130Y633555D02*
Y640445D01*
X1076870D01*
X1073130Y633555D02*
X1076870D01*
X1079037Y633649D02*
X1082777D01*
X1079037Y640539D02*
X1082777D01*
X1079037Y633649D02*
Y640539D01*
X1082777Y633649D02*
Y640539D01*
X902454Y611251D02*
X904501D01*
X902454Y607196D02*
X904501D01*
Y611251D01*
X902454Y607196D02*
Y611251D01*
X1071130Y613055D02*
Y619945D01*
X1074870Y613055D02*
Y619945D01*
X1071130Y613055D02*
X1074870D01*
X1071130Y619945D02*
X1074870D01*
X1076748Y619925D02*
X1080488D01*
X1076748Y613035D02*
X1080488D01*
Y619925D01*
X1076748Y613035D02*
Y619925D01*
X1071559Y606358D02*
X1078449D01*
X1071559Y602618D02*
X1078449D01*
X1071559D02*
Y606358D01*
X1078449Y602618D02*
Y606358D01*
X1022055Y578870D02*
X1028945D01*
X1022055Y575130D02*
X1028945D01*
X1022055D02*
Y578870D01*
X1028945Y575130D02*
Y578870D01*
Y569130D02*
Y572870D01*
X1022055Y569130D02*
Y572870D01*
Y569130D02*
X1028945D01*
X1022055Y572870D02*
X1028945D01*
X908106Y598205D02*
Y614740D01*
X931630Y598205D02*
Y614740D01*
X908008D02*
X931630D01*
X908106Y598205D02*
X931630D01*
X927528Y591976D02*
Y594024D01*
X923472Y591976D02*
Y594024D01*
Y591976D02*
X927528D01*
X923472Y594024D02*
X927528D01*
X964437Y579051D02*
X971327D01*
X964437Y575311D02*
X971327D01*
X964437D02*
Y579051D01*
X971327Y575311D02*
Y579051D01*
X971445Y569130D02*
Y572870D01*
X964555Y569130D02*
Y572870D01*
Y569130D02*
X971445D01*
X964555Y572870D02*
X971445D01*
X1035417Y575130D02*
X1042307D01*
X1035417Y578870D02*
X1042307D01*
Y575130D02*
Y578870D01*
X1035417Y575130D02*
Y578870D01*
X864130Y842555D02*
Y849445D01*
X867870Y842555D02*
Y849445D01*
X864130Y842555D02*
X867870D01*
X864130Y849445D02*
X867870D01*
X862362Y842634D02*
Y849524D01*
X858622Y842634D02*
Y849524D01*
X862362D01*
X858622Y842634D02*
X862362D01*
X869130Y856905D02*
Y863795D01*
X872870Y856905D02*
Y863795D01*
X869130Y856905D02*
X872870D01*
X869130Y863795D02*
X872870D01*
X863267Y863757D02*
X867008D01*
X863267Y856867D02*
X867008D01*
Y863757D01*
X863267Y856867D02*
Y863757D01*
X1010055Y569130D02*
Y572870D01*
X1016945Y569130D02*
Y572870D01*
X1010055D02*
X1016945D01*
X1010055Y569130D02*
X1016945D01*
X987055Y562130D02*
X993945D01*
X987055Y565870D02*
X993945D01*
Y562130D02*
Y565870D01*
X987055Y562130D02*
Y565870D01*
X1035417Y569130D02*
X1042307D01*
X1035417Y572870D02*
X1042307D01*
Y569130D02*
Y572870D01*
X1035417Y569130D02*
Y572870D01*
X1023110Y865594D02*
X1026850D01*
X1023110Y872484D02*
X1026850D01*
X1023110Y865594D02*
Y872484D01*
X1026850Y865594D02*
Y872484D01*
X1112870Y583555D02*
Y590445D01*
X1109130Y583555D02*
Y590445D01*
X1112870D01*
X1109130Y583555D02*
X1112870D01*
X1114737Y591181D02*
X1121627D01*
X1114737Y594921D02*
X1121627D01*
Y591181D02*
Y594921D01*
X1114737Y591181D02*
Y594921D01*
X1102461Y588634D02*
X1102461Y588634D01*
Y580366D02*
Y588634D01*
X1097539Y580366D02*
X1102461D01*
X1097539D02*
Y586764D01*
X1099409Y588634D01*
X1102461D01*
X1090870Y580858D02*
Y587748D01*
X1087130Y580858D02*
Y587748D01*
X1090870D01*
X1087130Y580858D02*
X1090870D01*
X1004866Y870909D02*
X1004866Y870909D01*
X1013134D01*
Y865988D02*
Y870909D01*
X1006736Y865988D02*
X1013134D01*
X1004866Y867858D02*
X1006736Y865988D01*
X1004866Y867858D02*
Y870909D01*
X1021319Y878575D02*
X1026831D01*
X1021319Y887236D02*
X1026831D01*
X1021319Y878575D02*
Y887236D01*
X1026831Y878575D02*
Y887236D01*
X1001370Y864217D02*
Y871106D01*
X997630Y864217D02*
Y871106D01*
X1001370D01*
X997630Y864217D02*
X1001370D01*
X1031130Y881055D02*
Y887945D01*
X1034870Y881055D02*
Y887945D01*
X1031130Y881055D02*
X1034870D01*
X1031130Y887945D02*
X1034870D01*
X1016130Y865594D02*
Y872484D01*
X1019870Y865594D02*
Y872484D01*
X1016130Y865594D02*
X1019870D01*
X1016130Y872484D02*
X1019870D01*
X983665Y882646D02*
X986126Y880185D01*
X983665Y880185D02*
X989965D01*
Y890815D01*
X983665D02*
X989965D01*
X983665Y880185D02*
Y890815D01*
X804870Y729055D02*
Y735945D01*
X801130Y729055D02*
Y735945D01*
X804870D01*
X801130Y729055D02*
X804870D01*
X767606Y796055D02*
Y802945D01*
X771347Y796055D02*
Y802945D01*
X767606Y796055D02*
X771347D01*
X767606Y802945D02*
X771347D01*
X837260Y737150D02*
X839740D01*
X837260Y735850D02*
X839740D01*
X837260D02*
Y737150D01*
X839740Y735850D02*
Y737150D01*
X886370Y731055D02*
Y737945D01*
X882630Y731055D02*
Y737945D01*
X886370D01*
X882630Y731055D02*
X886370D01*
X1105555Y702000D02*
X1112445D01*
X1105555Y705740D02*
X1112445D01*
Y702000D02*
Y705740D01*
X1105555Y702000D02*
Y705740D01*
Y692733D02*
X1112445D01*
X1105555Y696473D02*
X1112445D01*
Y692733D02*
Y696473D01*
X1105555Y692733D02*
Y696473D01*
X979630Y796562D02*
Y803452D01*
X983370Y796562D02*
Y803452D01*
X979630Y796562D02*
X983370D01*
X979630Y803452D02*
X983370D01*
X1084145Y810287D02*
X1091035D01*
X1084145Y806547D02*
X1091035D01*
X1084145D02*
Y810287D01*
X1091035Y806547D02*
Y810287D01*
X1105555Y761130D02*
X1112445D01*
X1105555Y764870D02*
X1112445D01*
Y761130D02*
Y764870D01*
X1105555Y761130D02*
Y764870D01*
X936236Y572154D02*
X940764D01*
X936236Y569791D02*
X940764D01*
X936236D02*
Y572154D01*
X940764Y569791D02*
Y572154D01*
X769555Y788630D02*
X776445D01*
X769555Y792370D02*
X776445D01*
Y788630D02*
Y792370D01*
X769555Y788630D02*
Y792370D01*
X777870Y796055D02*
Y802945D01*
X774130Y796055D02*
Y802945D01*
X777870D01*
X774130Y796055D02*
X777870D01*
X779130Y783445D02*
X782870D01*
X779130Y776555D02*
X782870D01*
Y783445D01*
X779130Y776555D02*
Y783445D01*
X772508Y779015D02*
Y785905D01*
X768768Y779015D02*
Y785905D01*
X772508D01*
X768768Y779015D02*
X772508D01*
X810091Y792630D02*
Y796370D01*
X803201Y792630D02*
Y796370D01*
Y792630D02*
X810091D01*
X803201Y796370D02*
X810091D01*
X816193Y778185D02*
Y788815D01*
X802807Y778185D02*
Y788815D01*
Y778185D02*
X816193D01*
X802807Y788815D02*
X816193D01*
X804945Y739191D02*
Y746081D01*
X801205Y739191D02*
Y746081D01*
X804945D01*
X801205Y739191D02*
X804945D01*
X809055Y729630D02*
X815945D01*
X809055Y733370D02*
X815945D01*
Y729630D02*
Y733370D01*
X809055Y729630D02*
Y733370D01*
X831630Y752591D02*
X835370D01*
X831630Y745701D02*
X835370D01*
Y752591D01*
X831630Y745701D02*
Y752591D01*
X838685Y758693D02*
X849315D01*
X838685Y745307D02*
X849315D01*
Y758693D01*
X838685Y745307D02*
Y758693D01*
X863138Y759244D02*
Y764756D01*
X854476Y759244D02*
Y764756D01*
Y759244D02*
X863138D01*
X854476Y764756D02*
X863138D01*
X861760Y744618D02*
Y748358D01*
X854870Y744618D02*
Y748358D01*
Y744618D02*
X861760D01*
X854870Y748358D02*
X861760D01*
X791630Y787252D02*
Y794142D01*
X795370Y787252D02*
Y794142D01*
X791630Y787252D02*
X795370D01*
X791630Y794142D02*
X795370D01*
X789370Y787193D02*
Y794083D01*
X785630Y787193D02*
Y794083D01*
X789370D01*
X785630Y787193D02*
X789370D01*
X849555Y767630D02*
Y771370D01*
X856445Y767630D02*
Y771370D01*
X849555D02*
X856445D01*
X849555Y767630D02*
X856445D01*
X789370Y776555D02*
Y783445D01*
X785630Y776555D02*
Y783445D01*
X789370D01*
X785630Y776555D02*
X789370D01*
X845870Y763555D02*
Y770445D01*
X842130Y763555D02*
Y770445D01*
X845870D01*
X842130Y763555D02*
X845870D01*
X821130Y826945D02*
X824870D01*
X821130Y820055D02*
X824870D01*
Y826945D01*
X821130Y820055D02*
Y826945D01*
X800555Y828630D02*
Y832370D01*
X807445Y828630D02*
Y832370D01*
X800555D02*
X807445D01*
X800555Y828630D02*
X807445D01*
X792263Y836055D02*
X796003D01*
X792263Y842945D02*
X796003D01*
X792263Y836055D02*
Y842945D01*
X796003Y836055D02*
Y842945D01*
X752744Y834669D02*
X758256D01*
X752744Y843331D02*
X758256D01*
X752744Y834669D02*
Y843331D01*
X758256Y834669D02*
Y843331D01*
X800555Y824854D02*
X807445D01*
X800555Y821114D02*
X807445D01*
X800555D02*
Y824854D01*
X807445Y821114D02*
Y824854D01*
X766917Y815209D02*
X773807D01*
X766917Y818949D02*
X773807D01*
Y815209D02*
Y818949D01*
X766917Y815209D02*
Y818949D01*
X803630Y810976D02*
X807370D01*
X803630Y817866D02*
X807370D01*
X803630Y810976D02*
Y817866D01*
X807370Y810976D02*
Y817866D01*
D15*
X1106113Y606528D02*
D03*
D17*
X1059177Y904598D02*
Y907931D01*
X1060843Y909597D01*
X1062509Y907931D01*
Y904598D01*
Y907098D01*
X1059177D01*
X1064176Y904598D02*
Y909597D01*
X1067508Y904598D01*
Y909597D01*
X1069174D02*
X1072506D01*
X1070840D01*
Y904598D01*
X1077505Y909597D02*
X1074172D01*
Y904598D01*
X1077505D01*
X1074172Y907098D02*
X1075838D01*
X1079171Y904598D02*
Y909597D01*
X1082503Y904598D01*
Y909597D01*
X1084169Y904598D02*
Y909597D01*
X1087501Y904598D01*
Y909597D01*
X1089167Y904598D02*
Y907931D01*
X1090834Y909597D01*
X1092500Y907931D01*
Y904598D01*
Y907098D01*
X1089167D01*
D170*
X994776Y881858D02*
Y889142D01*
Y881858D02*
X1007965D01*
Y889142D01*
X994776D02*
X1007965D01*
X753406Y776892D02*
Y784175D01*
Y776892D02*
X766595D01*
Y784175D01*
X753406D02*
X766595D01*
X753406Y785933D02*
Y793217D01*
Y785933D02*
X766595D01*
Y793217D01*
X753406D02*
X766595D01*
X973646Y567406D02*
X980929D01*
Y580594D01*
X973646D02*
X980929D01*
X973646Y567406D02*
Y580594D01*
X893622Y831244D02*
Y838528D01*
X880433D02*
X893622D01*
X880433Y831244D02*
Y838528D01*
Y831244D02*
X893622D01*
X893579Y822358D02*
Y829642D01*
X880390D02*
X893579D01*
X880390Y822358D02*
Y829642D01*
Y822358D02*
X893579D01*
M02*
