G04*
G04 #@! TF.GenerationSoftware,Altium Limited,Altium Designer,20.2.5 (213)*
G04*
G04 Layer_Color=32896*
%FSLAX25Y25*%
%MOIN*%
G70*
G04*
G04 #@! TF.SameCoordinates,04ACB860-B9D4-4248-80BD-52411BCDF81E*
G04*
G04*
G04 #@! TF.FilePolarity,Positive*
G04*
G01*
G75*
%ADD10C,0.00787*%
%ADD11C,0.00500*%
%ADD12C,0.00984*%
%ADD14C,0.00394*%
%ADD16C,0.00591*%
%ADD18C,0.00900*%
%ADD80C,0.00600*%
%ADD168C,0.00781*%
G36*
X839572Y610150D02*
Y608650D01*
X840572D01*
Y610150D01*
X839572D01*
D02*
G37*
G36*
X893428Y625650D02*
Y624150D01*
X892428D01*
Y625650D01*
X893428D01*
D02*
G37*
G36*
X839572Y641150D02*
Y639650D01*
X840572D01*
Y641150D01*
X839572D01*
D02*
G37*
G36*
Y672150D02*
Y670650D01*
X840572D01*
Y672150D01*
X839572D01*
D02*
G37*
G36*
X893428Y656650D02*
Y655150D01*
X892428D01*
Y656650D01*
X893428D01*
D02*
G37*
D10*
X1063646Y747500D02*
X1062858D01*
X1063646D01*
X1078614Y720579D02*
X1077827D01*
X1078614D01*
X769858Y739965D02*
X769071D01*
X769858D01*
X962083Y753709D02*
Y771032D01*
Y753709D02*
X1062201D01*
Y771032D01*
X896953Y891658D02*
X898331D01*
Y888213D02*
Y891658D01*
X889669D02*
X891047D01*
X889669Y888213D02*
Y891658D01*
X1102685Y744744D02*
Y745925D01*
X1093236Y744744D02*
X1102685D01*
X1093236D02*
Y745925D01*
X1097961Y744744D02*
Y750256D01*
X1093236Y749075D02*
Y750256D01*
X1102685D01*
Y749075D02*
Y750256D01*
D11*
X902327Y901795D02*
Y918508D01*
X915673D01*
Y901795D02*
Y918508D01*
X902327Y901795D02*
X915673D01*
X1070476Y742461D02*
X1087524D01*
X1070476Y752539D02*
X1087524D01*
Y751713D02*
Y752539D01*
Y742461D02*
Y743287D01*
X1070476Y751713D02*
Y752539D01*
Y742461D02*
Y743287D01*
X1081685Y732213D02*
X1092315D01*
X1081685Y718787D02*
X1092315D01*
X772988Y738173D02*
X781256D01*
X772988Y747661D02*
X781256D01*
D12*
X899612Y887031D02*
D03*
D14*
X959256Y622492D02*
Y623279D01*
X953744D02*
X959256D01*
X953744Y622492D02*
Y623279D01*
Y620720D02*
Y621508D01*
Y620720D02*
X959256D01*
Y621508D01*
X938244Y719721D02*
Y720508D01*
Y719721D02*
X943756D01*
Y720508D01*
Y721492D02*
Y722280D01*
X938244D02*
X943756D01*
X938244Y721492D02*
Y722280D01*
X940532Y767248D02*
Y784571D01*
X899469Y767248D02*
X940532D01*
X899469D02*
Y784571D01*
D16*
X1056744Y746512D02*
X1057925D01*
X1056744Y735488D02*
Y746512D01*
Y735488D02*
X1057925D01*
X1061075D02*
X1062256D01*
Y746512D01*
X1061075D02*
X1062256D01*
X1076224Y736138D02*
Y736925D01*
X1066776Y736138D02*
X1076224D01*
X1066776D02*
Y736925D01*
Y740075D02*
Y740862D01*
X1076224D01*
Y740075D02*
Y740862D01*
X1066776Y724575D02*
Y725362D01*
X1076224D01*
Y724575D02*
Y725362D01*
Y720638D02*
Y721425D01*
X1066776Y720638D02*
X1076224D01*
X1066776D02*
Y721425D01*
X1073776Y715598D02*
Y716386D01*
X1083224D01*
Y715598D02*
Y716386D01*
Y711661D02*
Y712449D01*
X1073776Y711661D02*
X1083224D01*
X1073776D02*
Y712449D01*
X1097693Y710457D02*
Y712032D01*
X1084307Y710457D02*
X1097693D01*
X1084307D02*
Y712032D01*
Y715969D02*
Y717543D01*
X1097693D01*
Y715969D02*
Y717543D01*
X1096917Y717035D02*
X1098098D01*
X1096917D02*
Y728059D01*
X1098098D01*
X1101248D02*
X1102429D01*
Y717035D02*
Y728059D01*
X1101248Y717035D02*
X1102429D01*
X1072693Y710480D02*
Y712055D01*
X1059307Y710480D02*
X1072693D01*
X1059307D02*
Y712055D01*
Y715992D02*
Y717567D01*
X1072693D01*
Y715992D02*
Y717567D01*
X931012Y796244D02*
Y797425D01*
X919988Y796244D02*
X931012D01*
X919988D02*
Y797425D01*
Y800575D02*
Y801756D01*
X931012D01*
Y800575D02*
Y801756D01*
X930724Y794772D02*
Y795461D01*
X921276D02*
X930724D01*
X921276Y794772D02*
Y795461D01*
Y790539D02*
Y791228D01*
Y790539D02*
X930724D01*
Y791228D01*
X759776Y745673D02*
Y746362D01*
X769224D01*
Y745673D02*
Y746362D01*
Y741441D02*
Y742130D01*
X759776Y741441D02*
X769224D01*
X759776D02*
Y742130D01*
X910853Y890776D02*
X911640D01*
Y900224D01*
X910853D02*
X911640D01*
X906916D02*
X907703D01*
X906916Y890776D02*
Y900224D01*
Y890776D02*
X907703D01*
X911638D02*
X912425D01*
X911638D02*
Y900224D01*
X912425D01*
X915575D02*
X916362D01*
Y890776D02*
Y900224D01*
X915575Y890776D02*
X916362D01*
X889138Y581224D02*
X889925D01*
X889138Y571776D02*
Y581224D01*
Y571776D02*
X889925D01*
X893075D02*
X893862D01*
Y581224D01*
X893075D02*
X893862D01*
X893075Y557776D02*
X893862D01*
Y567224D01*
X893075D02*
X893862D01*
X889138D02*
X889925D01*
X889138Y557776D02*
Y567224D01*
Y557776D02*
X889925D01*
X1052252Y777873D02*
Y778562D01*
X1042803Y777873D02*
X1052252D01*
X1042803D02*
Y778562D01*
Y782105D02*
Y782794D01*
X1052252D01*
Y782105D02*
Y782794D01*
X1053512Y788075D02*
Y789256D01*
X1042488D02*
X1053512D01*
X1042488Y788075D02*
Y789256D01*
Y783744D02*
Y784925D01*
Y783744D02*
X1053512D01*
Y784925D01*
X889276Y881272D02*
Y881961D01*
X898724D01*
Y881272D02*
Y881961D01*
Y877039D02*
Y877728D01*
X889276Y877039D02*
X898724D01*
X889276D02*
Y877728D01*
X894000Y877039D02*
Y881961D01*
X900272Y905724D02*
X900961D01*
Y896276D02*
Y905724D01*
X900272Y896276D02*
X900961D01*
X896039D02*
X896728D01*
X896039D02*
Y905724D01*
X896728D01*
X906075Y890776D02*
X906862D01*
Y900224D01*
X906075D02*
X906862D01*
X902138D02*
X902925D01*
X902138Y890776D02*
Y900224D01*
Y890776D02*
X902925D01*
D18*
X869600Y695899D02*
Y692400D01*
Y695899D02*
X868100D01*
X867600Y695733D01*
X867434Y695566D01*
X867267Y695233D01*
Y694900D01*
X867434Y694566D01*
X867600Y694400D01*
X868100Y694233D01*
X869600D01*
X868434D02*
X867267Y692400D01*
X863818D02*
X865151Y695899D01*
X866484Y692400D01*
X865984Y693566D02*
X864318D01*
X863001Y695899D02*
Y692400D01*
Y695899D02*
X861668Y692400D01*
X860335Y695899D02*
X861668Y692400D01*
X860335Y695899D02*
Y692400D01*
X1108600Y758233D02*
X1108267Y758399D01*
X1107767Y758899D01*
Y755400D01*
X1105034Y758899D02*
X1105534Y758733D01*
X1105867Y758233D01*
X1106034Y757400D01*
Y756900D01*
X1105867Y756067D01*
X1105534Y755567D01*
X1105034Y755400D01*
X1104701D01*
X1104201Y755567D01*
X1103868Y756067D01*
X1103701Y756900D01*
Y757400D01*
X1103868Y758233D01*
X1104201Y758733D01*
X1104701Y758899D01*
X1105034D01*
X1102918D02*
X1101585Y755400D01*
X1100252Y758899D02*
X1101585Y755400D01*
X1097052Y758899D02*
Y755400D01*
Y758899D02*
X1095886D01*
X1095386Y758733D01*
X1095053Y758399D01*
X1094886Y758066D01*
X1094720Y757566D01*
Y756733D01*
X1094886Y756233D01*
X1095053Y755900D01*
X1095386Y755567D01*
X1095886Y755400D01*
X1097052D01*
X1091437Y758066D02*
X1091604Y758399D01*
X1091937Y758733D01*
X1092270Y758899D01*
X1092937D01*
X1093270Y758733D01*
X1093603Y758399D01*
X1093770Y758066D01*
X1093937Y757566D01*
Y756733D01*
X1093770Y756233D01*
X1093603Y755900D01*
X1093270Y755567D01*
X1092937Y755400D01*
X1092270D01*
X1091937Y755567D01*
X1091604Y755900D01*
X1091437Y756233D01*
X1090454Y758899D02*
Y755400D01*
Y758899D02*
X1089287D01*
X1088788Y758733D01*
X1088454Y758399D01*
X1088288Y758066D01*
X1088121Y757566D01*
Y756733D01*
X1088288Y756233D01*
X1088454Y755900D01*
X1088788Y755567D01*
X1089287Y755400D01*
X1090454D01*
X1084838Y758066D02*
X1085005Y758399D01*
X1085338Y758733D01*
X1085672Y758899D01*
X1086338D01*
X1086671Y758733D01*
X1087005Y758399D01*
X1087171Y758066D01*
X1087338Y757566D01*
Y756733D01*
X1087171Y756233D01*
X1087005Y755900D01*
X1086671Y755567D01*
X1086338Y755400D01*
X1085672D01*
X1085338Y755567D01*
X1085005Y755900D01*
X1084838Y756233D01*
X1078606Y758066D02*
X1078773Y758399D01*
X1079106Y758733D01*
X1079440Y758899D01*
X1080106D01*
X1080439Y758733D01*
X1080773Y758399D01*
X1080939Y758066D01*
X1081106Y757566D01*
Y756733D01*
X1080939Y756233D01*
X1080773Y755900D01*
X1080439Y755567D01*
X1080106Y755400D01*
X1079440D01*
X1079106Y755567D01*
X1078773Y755900D01*
X1078606Y756233D01*
X1076624Y758899D02*
X1076957Y758733D01*
X1077290Y758399D01*
X1077457Y758066D01*
X1077623Y757566D01*
Y756733D01*
X1077457Y756233D01*
X1077290Y755900D01*
X1076957Y755567D01*
X1076624Y755400D01*
X1075957D01*
X1075624Y755567D01*
X1075290Y755900D01*
X1075124Y756233D01*
X1074957Y756733D01*
Y757566D01*
X1075124Y758066D01*
X1075290Y758399D01*
X1075624Y758733D01*
X1075957Y758899D01*
X1076624D01*
X1074141D02*
Y755400D01*
Y758899D02*
X1071808Y755400D01*
Y758899D02*
Y755400D01*
X1070841Y758899D02*
X1069508Y755400D01*
X1068175Y758899D02*
X1069508Y755400D01*
X942318Y887399D02*
Y883900D01*
X941418Y886566D02*
Y886733D01*
X941251Y887066D01*
X941085Y887233D01*
X940751Y887399D01*
X940085D01*
X939752Y887233D01*
X939585Y887066D01*
X939419Y886733D01*
Y886399D01*
X939585Y886066D01*
X939918Y885566D01*
X941585Y883900D01*
X939252D01*
X936136Y886899D02*
X936469Y887233D01*
X936969Y887399D01*
X937636D01*
X938135Y887233D01*
X938469Y886899D01*
Y886566D01*
X938302Y886233D01*
X938135Y886066D01*
X937802Y885900D01*
X936802Y885566D01*
X936469Y885400D01*
X936302Y885233D01*
X936136Y884900D01*
Y884400D01*
X936469Y884067D01*
X936969Y883900D01*
X937636D01*
X938135Y884067D01*
X938469Y884400D01*
X932603Y887399D02*
Y883900D01*
Y887399D02*
X931270Y883900D01*
X929937Y887399D02*
X931270Y883900D01*
X929937Y887399D02*
Y883900D01*
X928937Y887399D02*
Y883900D01*
X925705Y886566D02*
X925871Y886899D01*
X926205Y887233D01*
X926538Y887399D01*
X927204D01*
X927538Y887233D01*
X927871Y886899D01*
X928038Y886566D01*
X928204Y886066D01*
Y885233D01*
X928038Y884733D01*
X927871Y884400D01*
X927538Y884067D01*
X927204Y883900D01*
X926538D01*
X926205Y884067D01*
X925871Y884400D01*
X925705Y884733D01*
X924722Y887399D02*
Y883900D01*
Y887399D02*
X923222D01*
X922722Y887233D01*
X922555Y887066D01*
X922389Y886733D01*
Y886399D01*
X922555Y886066D01*
X922722Y885900D01*
X923222Y885733D01*
X924722D01*
X923555D02*
X922389Y883900D01*
X920606Y887399D02*
X920939Y887233D01*
X921272Y886899D01*
X921439Y886566D01*
X921606Y886066D01*
Y885233D01*
X921439Y884733D01*
X921272Y884400D01*
X920939Y884067D01*
X920606Y883900D01*
X919939D01*
X919606Y884067D01*
X919273Y884400D01*
X919106Y884733D01*
X918939Y885233D01*
Y886066D01*
X919106Y886566D01*
X919273Y886899D01*
X919606Y887233D01*
X919939Y887399D01*
X920606D01*
X918123Y885566D02*
X916623D01*
X916123Y885733D01*
X915957Y885900D01*
X915790Y886233D01*
Y886733D01*
X915957Y887066D01*
X916123Y887233D01*
X916623Y887399D01*
X918123D01*
Y883900D01*
X915007Y887399D02*
Y883900D01*
X912674Y887399D02*
Y883900D01*
X915007Y885733D02*
X912674D01*
X910708Y887399D02*
X911041Y887233D01*
X911374Y886899D01*
X911541Y886566D01*
X911708Y886066D01*
Y885233D01*
X911541Y884733D01*
X911374Y884400D01*
X911041Y884067D01*
X910708Y883900D01*
X910041D01*
X909708Y884067D01*
X909375Y884400D01*
X909208Y884733D01*
X909042Y885233D01*
Y886066D01*
X909208Y886566D01*
X909375Y886899D01*
X909708Y887233D01*
X910041Y887399D01*
X910708D01*
X908225D02*
Y883900D01*
Y887399D02*
X905892Y883900D01*
Y887399D02*
Y883900D01*
X902760Y887399D02*
X904926D01*
Y883900D01*
X902760D01*
X904926Y885733D02*
X903593D01*
X800230Y733454D02*
Y729955D01*
X798230D01*
X797514Y733454D02*
X797347Y733288D01*
X797181Y733454D01*
X797347Y733621D01*
X797514Y733454D01*
X797347Y732288D02*
Y729955D01*
X796564Y731455D02*
X793565D01*
X792532Y733454D02*
Y729955D01*
X790799Y733454D02*
X791132Y733288D01*
X791465Y732955D01*
X791632Y732621D01*
X791798Y732121D01*
Y731288D01*
X791632Y730788D01*
X791465Y730455D01*
X791132Y730122D01*
X790799Y729955D01*
X790132D01*
X789799Y730122D01*
X789466Y730455D01*
X789299Y730788D01*
X789132Y731288D01*
Y732121D01*
X789299Y732621D01*
X789466Y732955D01*
X789799Y733288D01*
X790132Y733454D01*
X790799D01*
X788316D02*
Y729955D01*
Y733454D02*
X785983Y729955D01*
Y733454D02*
Y729955D01*
X782267Y733454D02*
Y729955D01*
Y733454D02*
X780101D01*
X782267Y731788D02*
X780934D01*
X779701Y733454D02*
Y730955D01*
X779534Y730455D01*
X779201Y730122D01*
X778701Y729955D01*
X778368D01*
X777868Y730122D01*
X777535Y730455D01*
X777368Y730955D01*
Y733454D01*
X774235D02*
X776402D01*
Y729955D01*
X774235D01*
X776402Y731788D02*
X775069D01*
X773652Y733454D02*
Y729955D01*
X771653D01*
X766021Y732621D02*
X766187Y732955D01*
X766521Y733288D01*
X766854Y733454D01*
X767520D01*
X767853Y733288D01*
X768187Y732955D01*
X768353Y732621D01*
X768520Y732121D01*
Y731288D01*
X768353Y730788D01*
X768187Y730455D01*
X767853Y730122D01*
X767520Y729955D01*
X766854D01*
X766521Y730122D01*
X766187Y730455D01*
X766021Y730788D01*
Y731288D01*
X766854D02*
X766021D01*
X762555Y729955D02*
X763888Y733454D01*
X765221Y729955D01*
X764721Y731121D02*
X763055D01*
X761738Y733454D02*
Y730955D01*
X761572Y730455D01*
X761238Y730122D01*
X760738Y729955D01*
X760405D01*
X759905Y730122D01*
X759572Y730455D01*
X759405Y730955D01*
Y733454D01*
X755939Y732621D02*
X756106Y732955D01*
X756439Y733288D01*
X756773Y733454D01*
X757439D01*
X757772Y733288D01*
X758106Y732955D01*
X758272Y732621D01*
X758439Y732121D01*
Y731288D01*
X758272Y730788D01*
X758106Y730455D01*
X757772Y730122D01*
X757439Y729955D01*
X756773D01*
X756439Y730122D01*
X756106Y730455D01*
X755939Y730788D01*
Y731288D01*
X756773D02*
X755939D01*
X752973Y733454D02*
X755140D01*
Y729955D01*
X752973D01*
X755140Y731788D02*
X753806D01*
X944600Y810399D02*
Y806900D01*
X942600D01*
X939718Y809566D02*
X939884Y809899D01*
X940218Y810233D01*
X940551Y810399D01*
X941217D01*
X941551Y810233D01*
X941884Y809899D01*
X942050Y809566D01*
X942217Y809066D01*
Y808233D01*
X942050Y807733D01*
X941884Y807400D01*
X941551Y807067D01*
X941217Y806900D01*
X940551D01*
X940218Y807067D01*
X939884Y807400D01*
X939718Y807733D01*
X938735Y810399D02*
Y806900D01*
Y810399D02*
X937568D01*
X937068Y810233D01*
X936735Y809899D01*
X936568Y809566D01*
X936402Y809066D01*
Y808233D01*
X936568Y807733D01*
X936735Y807400D01*
X937068Y807067D01*
X937568Y806900D01*
X938735D01*
X932869Y809733D02*
X932536Y809899D01*
X932036Y810399D01*
Y806900D01*
X929303Y810399D02*
X929803Y810233D01*
X930136Y809733D01*
X930303Y808900D01*
Y808400D01*
X930136Y807567D01*
X929803Y807067D01*
X929303Y806900D01*
X928970D01*
X928470Y807067D01*
X928137Y807567D01*
X927970Y808400D01*
Y808900D01*
X928137Y809733D01*
X928470Y810233D01*
X928970Y810399D01*
X929303D01*
X924438Y808566D02*
X922938D01*
X922438Y808733D01*
X922272Y808900D01*
X922105Y809233D01*
Y809733D01*
X922272Y810066D01*
X922438Y810233D01*
X922938Y810399D01*
X924438D01*
Y806900D01*
X921322Y810399D02*
Y806900D01*
X920588Y810399D02*
Y806900D01*
Y810399D02*
X918256Y806900D01*
Y810399D02*
Y806900D01*
X912040Y809566D02*
X912207Y809899D01*
X912540Y810233D01*
X912873Y810399D01*
X913540D01*
X913873Y810233D01*
X914207Y809899D01*
X914373Y809566D01*
X914540Y809066D01*
Y808233D01*
X914373Y807733D01*
X914207Y807400D01*
X913873Y807067D01*
X913540Y806900D01*
X912873D01*
X912540Y807067D01*
X912207Y807400D01*
X912040Y807733D01*
X910057Y810399D02*
X910391Y810233D01*
X910724Y809899D01*
X910891Y809566D01*
X911057Y809066D01*
Y808233D01*
X910891Y807733D01*
X910724Y807400D01*
X910391Y807067D01*
X910057Y806900D01*
X909391D01*
X909058Y807067D01*
X908724Y807400D01*
X908558Y807733D01*
X908391Y808233D01*
Y809066D01*
X908558Y809566D01*
X908724Y809899D01*
X909058Y810233D01*
X909391Y810399D01*
X910057D01*
X907575D02*
Y806900D01*
Y810399D02*
X905242Y806900D01*
Y810399D02*
Y806900D01*
X904275Y810399D02*
Y806900D01*
Y810399D02*
X901943Y806900D01*
Y810399D02*
Y806900D01*
X898810Y810399D02*
X900976D01*
Y806900D01*
X898810D01*
X900976Y808733D02*
X899643D01*
X895727Y809566D02*
X895894Y809899D01*
X896227Y810233D01*
X896560Y810399D01*
X897227D01*
X897560Y810233D01*
X897893Y809899D01*
X898060Y809566D01*
X898227Y809066D01*
Y808233D01*
X898060Y807733D01*
X897893Y807400D01*
X897560Y807067D01*
X897227Y806900D01*
X896560D01*
X896227Y807067D01*
X895894Y807400D01*
X895727Y807733D01*
X893578Y810399D02*
Y806900D01*
X894744Y810399D02*
X892411D01*
X890995D02*
X891328Y810233D01*
X891661Y809899D01*
X891828Y809566D01*
X891995Y809066D01*
Y808233D01*
X891828Y807733D01*
X891661Y807400D01*
X891328Y807067D01*
X890995Y806900D01*
X890328D01*
X889995Y807067D01*
X889662Y807400D01*
X889495Y807733D01*
X889328Y808233D01*
Y809066D01*
X889495Y809566D01*
X889662Y809899D01*
X889995Y810233D01*
X890328Y810399D01*
X890995D01*
X888512D02*
Y806900D01*
Y810399D02*
X887012D01*
X886512Y810233D01*
X886346Y810066D01*
X886179Y809733D01*
Y809400D01*
X886346Y809066D01*
X886512Y808900D01*
X887012Y808733D01*
X888512D01*
X887346D02*
X886179Y806900D01*
X1043722Y795016D02*
Y791517D01*
X1041722D01*
X1038840Y794183D02*
X1039006Y794516D01*
X1039340Y794850D01*
X1039673Y795016D01*
X1040339D01*
X1040673Y794850D01*
X1041006Y794516D01*
X1041173Y794183D01*
X1041339Y793683D01*
Y792850D01*
X1041173Y792350D01*
X1041006Y792017D01*
X1040673Y791684D01*
X1040339Y791517D01*
X1039673D01*
X1039340Y791684D01*
X1039006Y792017D01*
X1038840Y792350D01*
X1037857Y795016D02*
Y791517D01*
Y795016D02*
X1036690D01*
X1036190Y794850D01*
X1035857Y794516D01*
X1035690Y794183D01*
X1035524Y793683D01*
Y792850D01*
X1035690Y792350D01*
X1035857Y792017D01*
X1036190Y791684D01*
X1036690Y791517D01*
X1037857D01*
X1030325Y795016D02*
X1031991Y792683D01*
X1029492D01*
X1030325Y795016D02*
Y791517D01*
X1027875Y795016D02*
X1028375Y794850D01*
X1028709Y794350D01*
X1028875Y793517D01*
Y793017D01*
X1028709Y792183D01*
X1028375Y791684D01*
X1027875Y791517D01*
X1027542D01*
X1027042Y791684D01*
X1026709Y792183D01*
X1026542Y793017D01*
Y793517D01*
X1026709Y794350D01*
X1027042Y794850D01*
X1027542Y795016D01*
X1027875D01*
X1023010Y793183D02*
X1021510D01*
X1021010Y793350D01*
X1020844Y793517D01*
X1020677Y793850D01*
Y794350D01*
X1020844Y794683D01*
X1021010Y794850D01*
X1021510Y795016D01*
X1023010D01*
Y791517D01*
X1019894Y795016D02*
Y791517D01*
X1019161Y795016D02*
Y791517D01*
Y795016D02*
X1016828Y791517D01*
Y795016D02*
Y791517D01*
X1010612Y794183D02*
X1010779Y794516D01*
X1011112Y794850D01*
X1011446Y795016D01*
X1012112D01*
X1012445Y794850D01*
X1012779Y794516D01*
X1012945Y794183D01*
X1013112Y793683D01*
Y792850D01*
X1012945Y792350D01*
X1012779Y792017D01*
X1012445Y791684D01*
X1012112Y791517D01*
X1011446D01*
X1011112Y791684D01*
X1010779Y792017D01*
X1010612Y792350D01*
X1008630Y795016D02*
X1008963Y794850D01*
X1009296Y794516D01*
X1009463Y794183D01*
X1009629Y793683D01*
Y792850D01*
X1009463Y792350D01*
X1009296Y792017D01*
X1008963Y791684D01*
X1008630Y791517D01*
X1007963D01*
X1007630Y791684D01*
X1007296Y792017D01*
X1007130Y792350D01*
X1006963Y792850D01*
Y793683D01*
X1007130Y794183D01*
X1007296Y794516D01*
X1007630Y794850D01*
X1007963Y795016D01*
X1008630D01*
X1006147D02*
Y791517D01*
Y795016D02*
X1003814Y791517D01*
Y795016D02*
Y791517D01*
X1002847Y795016D02*
Y791517D01*
Y795016D02*
X1000515Y791517D01*
Y795016D02*
Y791517D01*
X997382Y795016D02*
X999548D01*
Y791517D01*
X997382D01*
X999548Y793350D02*
X998215D01*
X994299Y794183D02*
X994466Y794516D01*
X994799Y794850D01*
X995133Y795016D01*
X995799D01*
X996132Y794850D01*
X996465Y794516D01*
X996632Y794183D01*
X996799Y793683D01*
Y792850D01*
X996632Y792350D01*
X996465Y792017D01*
X996132Y791684D01*
X995799Y791517D01*
X995133D01*
X994799Y791684D01*
X994466Y792017D01*
X994299Y792350D01*
X992150Y795016D02*
Y791517D01*
X993316Y795016D02*
X990983D01*
X989567D02*
X989900Y794850D01*
X990234Y794516D01*
X990400Y794183D01*
X990567Y793683D01*
Y792850D01*
X990400Y792350D01*
X990234Y792017D01*
X989900Y791684D01*
X989567Y791517D01*
X988900D01*
X988567Y791684D01*
X988234Y792017D01*
X988067Y792350D01*
X987901Y792850D01*
Y793683D01*
X988067Y794183D01*
X988234Y794516D01*
X988567Y794850D01*
X988900Y795016D01*
X989567D01*
X987084D02*
Y791517D01*
Y795016D02*
X985585D01*
X985085Y794850D01*
X984918Y794683D01*
X984751Y794350D01*
Y794017D01*
X984918Y793683D01*
X985085Y793517D01*
X985585Y793350D01*
X987084D01*
X985918D02*
X984751Y791517D01*
D80*
X845700Y686100D02*
Y688000D01*
X887300Y599000D02*
Y600900D01*
Y686100D02*
Y688000D01*
X845700D02*
X887300D01*
X845700Y599000D02*
Y600900D01*
Y599000D02*
X887300D01*
D168*
X890643Y691696D02*
Y687479D01*
X892400Y690642D02*
X888886Y688533D01*
Y690642D02*
X892400Y688533D01*
M02*
