G04*
G04 #@! TF.GenerationSoftware,Altium Limited,Altium Designer,20.2.5 (213)*
G04*
G04 Layer_Physical_Order=4*
G04 Layer_Color=6736896*
%FSLAX25Y25*%
%MOIN*%
G70*
G04*
G04 #@! TF.SameCoordinates,0EDA941F-9717-4D80-9818-445CF3A130AC*
G04*
G04*
G04 #@! TF.FilePolarity,Positive*
G04*
G01*
G75*
%ADD18C,0.01000*%
%ADD80C,0.01968*%
%ADD137C,0.00800*%
%ADD140C,0.00600*%
G36*
X878992Y895932D02*
X879016Y895863D01*
X879056Y895783D01*
X879112Y895692D01*
X879184Y895590D01*
X879377Y895354D01*
X879635Y895075D01*
X879788Y894919D01*
X879081Y894212D01*
X878925Y894365D01*
X878410Y894816D01*
X878308Y894888D01*
X878217Y894944D01*
X878137Y894985D01*
X878068Y895008D01*
X878010Y895016D01*
X878984Y895990D01*
X878992Y895932D01*
D02*
G37*
G36*
X942992Y889932D02*
X943015Y889863D01*
X943056Y889783D01*
X943112Y889692D01*
X943184Y889590D01*
X943377Y889354D01*
X943635Y889075D01*
X943788Y888919D01*
X943081Y888212D01*
X942925Y888365D01*
X942410Y888816D01*
X942308Y888888D01*
X942217Y888945D01*
X942137Y888984D01*
X942068Y889008D01*
X942010Y889016D01*
X942984Y889990D01*
X942992Y889932D01*
D02*
G37*
G36*
X938273Y887704D02*
X938286Y887635D01*
X938316Y887554D01*
X938364Y887463D01*
X938429Y887361D01*
X938512Y887248D01*
X938730Y886990D01*
X939018Y886689D01*
X938111Y886182D01*
X937954Y886337D01*
X937208Y886992D01*
X937151Y887023D01*
X937107Y887039D01*
X938277Y887763D01*
X938273Y887704D01*
D02*
G37*
G36*
X886486Y873568D02*
X886532Y872885D01*
X886552Y872762D01*
X886577Y872658D01*
X886605Y872573D01*
X886637Y872507D01*
X886673Y872461D01*
X885295D01*
X885331Y872507D01*
X885363Y872573D01*
X885392Y872658D01*
X885416Y872762D01*
X885437Y872885D01*
X885467Y873188D01*
X885482Y873568D01*
X885484Y873787D01*
X886484D01*
X886486Y873568D01*
D02*
G37*
G36*
X1043435Y872785D02*
X1043456Y872670D01*
X1043492Y872552D01*
X1043543Y872430D01*
X1043608Y872304D01*
X1043688Y872175D01*
X1043783Y872042D01*
X1043892Y871905D01*
X1044155Y871620D01*
X1043731Y871195D01*
X1043586Y871334D01*
X1043309Y871568D01*
X1043176Y871663D01*
X1043046Y871743D01*
X1042920Y871808D01*
X1042798Y871858D01*
X1042680Y871894D01*
X1042566Y871915D01*
X1042455Y871921D01*
X1043429Y872896D01*
X1043435Y872785D01*
D02*
G37*
G36*
X876634Y837732D02*
X876585Y837651D01*
X876542Y837554D01*
X876504Y837441D01*
X876472Y837311D01*
X876446Y837165D01*
X876412Y836825D01*
X876403Y836630D01*
X876400Y836420D01*
X875600D01*
X875597Y836630D01*
X875554Y837165D01*
X875528Y837311D01*
X875496Y837441D01*
X875458Y837554D01*
X875415Y837651D01*
X875366Y837732D01*
X875311Y837797D01*
X876689D01*
X876634Y837732D01*
D02*
G37*
G36*
X872634D02*
X872585Y837651D01*
X872542Y837554D01*
X872504Y837441D01*
X872472Y837311D01*
X872446Y837165D01*
X872412Y836825D01*
X872403Y836630D01*
X872400Y836420D01*
X871600D01*
X871597Y836630D01*
X871554Y837165D01*
X871528Y837311D01*
X871496Y837441D01*
X871458Y837554D01*
X871415Y837651D01*
X871366Y837732D01*
X871311Y837797D01*
X872689D01*
X872634Y837732D01*
D02*
G37*
G36*
X1112491Y837906D02*
X1112514Y837814D01*
X1112552Y837714D01*
X1112605Y837607D01*
X1112675Y837493D01*
X1112759Y837372D01*
X1112976Y837107D01*
X1113107Y836963D01*
X1113254Y836812D01*
X1112688Y836246D01*
X1112537Y836393D01*
X1112128Y836741D01*
X1112007Y836825D01*
X1111893Y836895D01*
X1111786Y836948D01*
X1111687Y836986D01*
X1111595Y837009D01*
X1111510Y837016D01*
X1112484Y837990D01*
X1112491Y837906D01*
D02*
G37*
G36*
X782289Y833793D02*
X782370Y833744D01*
X782467Y833701D01*
X782581Y833663D01*
X782710Y833631D01*
X782856Y833605D01*
X783196Y833571D01*
X783391Y833562D01*
X783602Y833559D01*
Y832759D01*
X783391Y832756D01*
X782856Y832713D01*
X782710Y832687D01*
X782581Y832655D01*
X782467Y832617D01*
X782370Y832574D01*
X782289Y832525D01*
X782224Y832470D01*
Y833848D01*
X782289Y833793D01*
D02*
G37*
G36*
X1041742Y827217D02*
X1041695Y827252D01*
X1041630Y827285D01*
X1041545Y827313D01*
X1041441Y827337D01*
X1041318Y827358D01*
X1041014Y827388D01*
X1040635Y827404D01*
X1040416Y827405D01*
Y828405D01*
X1040635Y828407D01*
X1041318Y828453D01*
X1041441Y828473D01*
X1041545Y828498D01*
X1041630Y828526D01*
X1041695Y828559D01*
X1041742Y828594D01*
Y827217D01*
D02*
G37*
G36*
X776934Y825026D02*
X776787Y824874D01*
X776440Y824465D01*
X776357Y824344D01*
X776288Y824230D01*
X776236Y824123D01*
X776199Y824024D01*
X776178Y823932D01*
X776173Y823847D01*
X775176Y824797D01*
X775260Y824806D01*
X775352Y824830D01*
X775451Y824870D01*
X775558Y824925D01*
X775672Y824995D01*
X775794Y825081D01*
X776059Y825298D01*
X776202Y825429D01*
X776353Y825576D01*
X776934Y825026D01*
D02*
G37*
G36*
X1041742Y822217D02*
X1041695Y822252D01*
X1041630Y822285D01*
X1041545Y822313D01*
X1041441Y822338D01*
X1041318Y822358D01*
X1041014Y822388D01*
X1040635Y822404D01*
X1040416Y822406D01*
Y823405D01*
X1040635Y823407D01*
X1041318Y823453D01*
X1041441Y823473D01*
X1041545Y823498D01*
X1041630Y823526D01*
X1041695Y823559D01*
X1041742Y823594D01*
Y822217D01*
D02*
G37*
G36*
X1111379Y822023D02*
X1111319Y822022D01*
X1111249Y822003D01*
X1111167Y821968D01*
X1111076Y821916D01*
X1110973Y821847D01*
X1110860Y821761D01*
X1110601Y821540D01*
X1110300Y821251D01*
X1109687Y822052D01*
X1109841Y822208D01*
X1110376Y822818D01*
X1110435Y822906D01*
X1110480Y822983D01*
X1110508Y823048D01*
X1110521Y823102D01*
X1111379Y822023D01*
D02*
G37*
G36*
X1098133Y809084D02*
X1097980Y808928D01*
X1097535Y808411D01*
X1097465Y808309D01*
X1097412Y808217D01*
X1097375Y808136D01*
X1097355Y808066D01*
X1097352Y808006D01*
X1096302Y808899D01*
X1096358Y808910D01*
X1096424Y808938D01*
X1096502Y808981D01*
X1096591Y809040D01*
X1096692Y809114D01*
X1096926Y809311D01*
X1097360Y809725D01*
X1098133Y809084D01*
D02*
G37*
G36*
X1097056Y807197D02*
X1097026Y807131D01*
X1097000Y807045D01*
X1096977Y806941D01*
X1096957Y806818D01*
X1096929Y806514D01*
X1096915Y806133D01*
X1096913Y805914D01*
X1095913Y805865D01*
X1095911Y806083D01*
X1095863Y806765D01*
X1095841Y806888D01*
X1095815Y806991D01*
X1095785Y807075D01*
X1095751Y807140D01*
X1095713Y807186D01*
X1097090Y807244D01*
X1097056Y807197D01*
D02*
G37*
G36*
X1096915Y803169D02*
X1096961Y802485D01*
X1096981Y802362D01*
X1097006Y802258D01*
X1097034Y802174D01*
X1097066Y802108D01*
X1097102Y802061D01*
X1095724D01*
X1095760Y802108D01*
X1095792Y802174D01*
X1095821Y802258D01*
X1095845Y802362D01*
X1095866Y802485D01*
X1095896Y802789D01*
X1095912Y803169D01*
X1095913Y803387D01*
X1096913D01*
X1096915Y803169D01*
D02*
G37*
G36*
X1095710Y800669D02*
X1095664Y800705D01*
X1095598Y800737D01*
X1095513Y800766D01*
X1095409Y800790D01*
X1095286Y800811D01*
X1094983Y800841D01*
X1094603Y800856D01*
X1094384Y800858D01*
Y801858D01*
X1094603Y801860D01*
X1095286Y801906D01*
X1095409Y801926D01*
X1095513Y801951D01*
X1095598Y801979D01*
X1095664Y802011D01*
X1095710Y802047D01*
Y800669D01*
D02*
G37*
G36*
X1061336Y802011D02*
X1061402Y801979D01*
X1061487Y801951D01*
X1061591Y801926D01*
X1061714Y801906D01*
X1062017Y801875D01*
X1062397Y801860D01*
X1062615Y801858D01*
Y800858D01*
X1062397Y800856D01*
X1061714Y800811D01*
X1061591Y800790D01*
X1061487Y800766D01*
X1061402Y800737D01*
X1061336Y800705D01*
X1061290Y800669D01*
Y802047D01*
X1061336Y802011D01*
D02*
G37*
G36*
X982963Y782107D02*
X983372Y781759D01*
X983493Y781675D01*
X983607Y781605D01*
X983714Y781552D01*
X983813Y781514D01*
X983906Y781491D01*
X983990Y781484D01*
X983016Y780510D01*
X983009Y780594D01*
X982986Y780686D01*
X982948Y780786D01*
X982895Y780893D01*
X982825Y781007D01*
X982741Y781128D01*
X982524Y781393D01*
X982393Y781537D01*
X982246Y781688D01*
X982812Y782254D01*
X982963Y782107D01*
D02*
G37*
G36*
X977963Y782107D02*
X978372Y781759D01*
X978493Y781675D01*
X978607Y781605D01*
X978714Y781552D01*
X978813Y781514D01*
X978905Y781491D01*
X978990Y781484D01*
X978016Y780510D01*
X978009Y780594D01*
X977986Y780687D01*
X977948Y780786D01*
X977895Y780893D01*
X977825Y781007D01*
X977741Y781128D01*
X977524Y781393D01*
X977393Y781537D01*
X977246Y781688D01*
X977812Y782254D01*
X977963Y782107D01*
D02*
G37*
G36*
X791348Y743998D02*
X791369Y743884D01*
X791405Y743765D01*
X791455Y743644D01*
X791521Y743518D01*
X791601Y743388D01*
X791695Y743255D01*
X791805Y743118D01*
X792068Y742833D01*
X791643Y742409D01*
X791499Y742548D01*
X791222Y742781D01*
X791088Y742876D01*
X790959Y742956D01*
X790833Y743021D01*
X790711Y743072D01*
X790593Y743107D01*
X790478Y743128D01*
X790368Y743135D01*
X791342Y744109D01*
X791348Y743998D01*
D02*
G37*
G36*
X941134Y743004D02*
X941085Y742923D01*
X941042Y742826D01*
X941004Y742712D01*
X940972Y742583D01*
X940946Y742437D01*
X940912Y742097D01*
X940903Y741902D01*
X940900Y741691D01*
X940100D01*
X940097Y741902D01*
X940054Y742437D01*
X940028Y742583D01*
X939996Y742712D01*
X939958Y742826D01*
X939915Y742923D01*
X939866Y743004D01*
X939811Y743069D01*
X941189D01*
X941134Y743004D01*
D02*
G37*
G36*
X874490Y730516D02*
X874379Y730510D01*
X874265Y730488D01*
X874147Y730453D01*
X874025Y730402D01*
X873899Y730337D01*
X873769Y730257D01*
X873636Y730162D01*
X873499Y730053D01*
X873214Y729790D01*
X872790Y730214D01*
X872929Y730359D01*
X873162Y730636D01*
X873257Y730769D01*
X873337Y730899D01*
X873402Y731025D01*
X873453Y731147D01*
X873489Y731265D01*
X873510Y731379D01*
X873516Y731490D01*
X874490Y730516D01*
D02*
G37*
G36*
X1058804Y724077D02*
X1058835Y723716D01*
X1058862Y723555D01*
X1058897Y723406D01*
X1058940Y723271D01*
X1058991Y723149D01*
X1059049Y723040D01*
X1059115Y722945D01*
X1059189Y722862D01*
X1057811D01*
X1057885Y722945D01*
X1057951Y723040D01*
X1058009Y723149D01*
X1058060Y723271D01*
X1058103Y723406D01*
X1058138Y723555D01*
X1058165Y723716D01*
X1058184Y723890D01*
X1058200Y724277D01*
X1058800D01*
X1058804Y724077D01*
D02*
G37*
G36*
X973268Y721441D02*
X973349Y721392D01*
X973446Y721349D01*
X973559Y721311D01*
X973689Y721279D01*
X973835Y721253D01*
X974175Y721219D01*
X974370Y721210D01*
X974580Y721207D01*
Y720407D01*
X974370Y720404D01*
X973835Y720361D01*
X973689Y720335D01*
X973559Y720303D01*
X973446Y720265D01*
X973349Y720222D01*
X973268Y720173D01*
X973203Y720118D01*
Y721496D01*
X973268Y721441D01*
D02*
G37*
G36*
X976110Y717773D02*
X976135Y717681D01*
X976175Y717582D01*
X976231Y717475D01*
X976302Y717361D01*
X976388Y717240D01*
X976606Y716975D01*
X976738Y716832D01*
X976885Y716681D01*
X976345Y716090D01*
X976193Y716237D01*
X975784Y716582D01*
X975663Y716666D01*
X975548Y716733D01*
X975442Y716785D01*
X975342Y716820D01*
X975251Y716840D01*
X975166Y716844D01*
X976099Y717858D01*
X976110Y717773D01*
D02*
G37*
G36*
X976107Y699905D02*
X976129Y699814D01*
X976167Y699714D01*
X976221Y699607D01*
X976290Y699493D01*
X976375Y699372D01*
X976591Y699107D01*
X976723Y698963D01*
X976870Y698812D01*
X976304Y698246D01*
X976153Y698393D01*
X975744Y698741D01*
X975622Y698825D01*
X975508Y698895D01*
X975402Y698948D01*
X975302Y698986D01*
X975210Y699009D01*
X975126Y699016D01*
X976100Y699990D01*
X976107Y699905D01*
D02*
G37*
G36*
X1077108Y691284D02*
X1077025Y691357D01*
X1076929Y691424D01*
X1076821Y691482D01*
X1076699Y691532D01*
X1076564Y691575D01*
X1076416Y691610D01*
X1076254Y691637D01*
X1076080Y691657D01*
X1075692Y691672D01*
Y692272D01*
X1075893Y692276D01*
X1076254Y692307D01*
X1076416Y692335D01*
X1076564Y692370D01*
X1076699Y692413D01*
X1076821Y692463D01*
X1076929Y692521D01*
X1077025Y692588D01*
X1077108Y692661D01*
Y691284D01*
D02*
G37*
G36*
X864304Y691918D02*
X864335Y691557D01*
X864362Y691396D01*
X864397Y691247D01*
X864440Y691112D01*
X864491Y690990D01*
X864549Y690881D01*
X864615Y690786D01*
X864689Y690703D01*
X863311D01*
X863385Y690786D01*
X863451Y690881D01*
X863509Y690990D01*
X863560Y691112D01*
X863603Y691247D01*
X863638Y691396D01*
X863665Y691557D01*
X863684Y691731D01*
X863700Y692119D01*
X864300D01*
X864304Y691918D01*
D02*
G37*
G36*
X1047451Y688311D02*
X1047368Y688385D01*
X1047272Y688451D01*
X1047163Y688509D01*
X1047041Y688560D01*
X1046906Y688603D01*
X1046758Y688638D01*
X1046597Y688665D01*
X1046423Y688684D01*
X1046035Y688700D01*
Y689300D01*
X1046235Y689304D01*
X1046597Y689335D01*
X1046758Y689362D01*
X1046906Y689397D01*
X1047041Y689440D01*
X1047163Y689491D01*
X1047272Y689549D01*
X1047368Y689615D01*
X1047451Y689689D01*
Y688311D01*
D02*
G37*
G36*
X864991Y689879D02*
X865012Y689765D01*
X865047Y689647D01*
X865098Y689525D01*
X865163Y689399D01*
X865243Y689269D01*
X865338Y689136D01*
X865447Y688999D01*
X865710Y688714D01*
X865286Y688290D01*
X865141Y688429D01*
X864864Y688662D01*
X864731Y688757D01*
X864601Y688837D01*
X864475Y688902D01*
X864353Y688953D01*
X864235Y688988D01*
X864121Y689010D01*
X864010Y689016D01*
X864984Y689990D01*
X864991Y689879D01*
D02*
G37*
G36*
X1101735Y689107D02*
X1102143Y688759D01*
X1102265Y688675D01*
X1102379Y688605D01*
X1102486Y688552D01*
X1102585Y688514D01*
X1102677Y688491D01*
X1102762Y688484D01*
X1101787Y687510D01*
X1101781Y687595D01*
X1101758Y687686D01*
X1101720Y687786D01*
X1101666Y687893D01*
X1101597Y688007D01*
X1101512Y688128D01*
X1101296Y688393D01*
X1101165Y688537D01*
X1101018Y688688D01*
X1101583Y689254D01*
X1101735Y689107D01*
D02*
G37*
G36*
X914297Y683006D02*
X914214Y683080D01*
X914118Y683146D01*
X914010Y683204D01*
X913888Y683255D01*
X913753Y683298D01*
X913605Y683333D01*
X913443Y683360D01*
X913269Y683379D01*
X912881Y683395D01*
Y683995D01*
X913082Y683999D01*
X913443Y684030D01*
X913605Y684057D01*
X913753Y684092D01*
X913888Y684135D01*
X914010Y684186D01*
X914118Y684244D01*
X914214Y684310D01*
X914297Y684384D01*
Y683006D01*
D02*
G37*
G36*
X1123191Y684107D02*
X1123600Y683759D01*
X1123722Y683675D01*
X1123836Y683605D01*
X1123942Y683552D01*
X1124042Y683514D01*
X1124134Y683491D01*
X1124218Y683484D01*
X1123244Y682510D01*
X1123237Y682594D01*
X1123215Y682686D01*
X1123177Y682786D01*
X1123123Y682893D01*
X1123054Y683007D01*
X1122969Y683128D01*
X1122753Y683393D01*
X1122621Y683537D01*
X1122474Y683688D01*
X1123040Y684254D01*
X1123191Y684107D01*
D02*
G37*
G36*
X996539Y681217D02*
X995680Y680323D01*
X995380Y681500D01*
X995452Y681459D01*
X995532Y681438D01*
X995621Y681438D01*
X995718Y681458D01*
X995824Y681499D01*
X995939Y681561D01*
X996063Y681643D01*
X996195Y681746D01*
X996336Y681869D01*
X996486Y682013D01*
X996539Y681217D01*
D02*
G37*
G36*
X930804Y681418D02*
X930835Y681057D01*
X930862Y680896D01*
X930897Y680747D01*
X930940Y680612D01*
X930991Y680490D01*
X931049Y680381D01*
X931115Y680286D01*
X931189Y680203D01*
X929811D01*
X929885Y680286D01*
X929951Y680381D01*
X930009Y680490D01*
X930060Y680612D01*
X930103Y680747D01*
X930138Y680896D01*
X930165Y681057D01*
X930184Y681231D01*
X930200Y681618D01*
X930800D01*
X930804Y681418D01*
D02*
G37*
G36*
X1101735Y679107D02*
X1102143Y678759D01*
X1102265Y678675D01*
X1102379Y678605D01*
X1102486Y678552D01*
X1102585Y678514D01*
X1102677Y678491D01*
X1102762Y678484D01*
X1101787Y677510D01*
X1101781Y677595D01*
X1101758Y677687D01*
X1101720Y677786D01*
X1101666Y677893D01*
X1101597Y678007D01*
X1101512Y678128D01*
X1101296Y678394D01*
X1101165Y678537D01*
X1101018Y678688D01*
X1101583Y679254D01*
X1101735Y679107D01*
D02*
G37*
G36*
X1123525Y676811D02*
X1123461Y676866D01*
X1123380Y676915D01*
X1123283Y676958D01*
X1123169Y676996D01*
X1123039Y677028D01*
X1122894Y677054D01*
X1122553Y677088D01*
X1122359Y677097D01*
X1122148Y677100D01*
Y677900D01*
X1122359Y677903D01*
X1122894Y677946D01*
X1123039Y677972D01*
X1123169Y678004D01*
X1123283Y678042D01*
X1123380Y678085D01*
X1123461Y678134D01*
X1123525Y678189D01*
Y676811D01*
D02*
G37*
G36*
X995638Y678115D02*
X995734Y678049D01*
X995843Y677991D01*
X995965Y677940D01*
X996100Y677897D01*
X996248Y677862D01*
X996409Y677835D01*
X996583Y677816D01*
X996971Y677800D01*
Y677200D01*
X996771Y677196D01*
X996409Y677165D01*
X996248Y677138D01*
X996100Y677103D01*
X995965Y677060D01*
X995843Y677009D01*
X995734Y676951D01*
X995638Y676885D01*
X995555Y676811D01*
Y678189D01*
X995638Y678115D01*
D02*
G37*
G36*
X950404Y674350D02*
X950322Y674424D01*
X950226Y674490D01*
X950117Y674548D01*
X949995Y674599D01*
X949860Y674641D01*
X949712Y674676D01*
X949551Y674704D01*
X949376Y674723D01*
X948989Y674739D01*
Y675339D01*
X949189Y675343D01*
X949551Y675374D01*
X949712Y675401D01*
X949860Y675436D01*
X949995Y675479D01*
X950117Y675529D01*
X950226Y675588D01*
X950322Y675654D01*
X950404Y675728D01*
Y674350D01*
D02*
G37*
G36*
X995653Y674562D02*
X995727Y674488D01*
X995818Y674422D01*
X995924Y674365D01*
X996047Y674317D01*
X996186Y674277D01*
X996342Y674247D01*
X996513Y674225D01*
X996700Y674212D01*
X996904Y674207D01*
X996737Y673607D01*
X996540Y673605D01*
X996013Y673562D01*
X995860Y673536D01*
X995586Y673467D01*
X995466Y673424D01*
X995356Y673375D01*
X995258Y673321D01*
X995595Y674645D01*
X995653Y674562D01*
D02*
G37*
G36*
X961990Y673016D02*
X961879Y673009D01*
X961765Y672989D01*
X961647Y672953D01*
X961525Y672902D01*
X961399Y672837D01*
X961269Y672757D01*
X961136Y672662D01*
X960999Y672553D01*
X960714Y672290D01*
X960290Y672714D01*
X960429Y672858D01*
X960662Y673136D01*
X960757Y673269D01*
X960837Y673399D01*
X960902Y673525D01*
X960953Y673647D01*
X960989Y673765D01*
X961010Y673879D01*
X961016Y673990D01*
X961990Y673016D01*
D02*
G37*
G36*
X1053340Y668760D02*
X1053258Y668834D01*
X1053162Y668900D01*
X1053053Y668958D01*
X1052931Y669009D01*
X1052796Y669052D01*
X1052648Y669087D01*
X1052487Y669114D01*
X1052312Y669133D01*
X1051925Y669149D01*
Y669749D01*
X1052125Y669753D01*
X1052487Y669784D01*
X1052648Y669811D01*
X1052796Y669846D01*
X1052931Y669889D01*
X1053053Y669939D01*
X1053162Y669998D01*
X1053258Y670064D01*
X1053340Y670138D01*
Y668760D01*
D02*
G37*
G36*
X959040Y667890D02*
X958957Y667964D01*
X958862Y668030D01*
X958753Y668089D01*
X958631Y668139D01*
X958496Y668182D01*
X958348Y668217D01*
X958187Y668244D01*
X958012Y668264D01*
X957625Y668279D01*
Y668879D01*
X957825Y668883D01*
X958187Y668914D01*
X958348Y668941D01*
X958496Y668976D01*
X958631Y669019D01*
X958753Y669070D01*
X958862Y669128D01*
X958957Y669194D01*
X959040Y669268D01*
Y667890D01*
D02*
G37*
G36*
X905490Y669379D02*
X905511Y669265D01*
X905547Y669147D01*
X905598Y669025D01*
X905663Y668899D01*
X905743Y668769D01*
X905838Y668636D01*
X905947Y668499D01*
X906210Y668214D01*
X905786Y667790D01*
X905641Y667929D01*
X905364Y668162D01*
X905231Y668257D01*
X905101Y668337D01*
X904975Y668402D01*
X904853Y668453D01*
X904735Y668489D01*
X904621Y668509D01*
X904510Y668516D01*
X905484Y669490D01*
X905490Y669379D01*
D02*
G37*
G36*
X995431Y657935D02*
X995452Y657820D01*
X995488Y657702D01*
X995539Y657580D01*
X995604Y657454D01*
X995684Y657325D01*
X995779Y657191D01*
X995888Y657054D01*
X996151Y656769D01*
X995727Y656345D01*
X995582Y656484D01*
X995305Y656717D01*
X995172Y656812D01*
X995042Y656892D01*
X994916Y656957D01*
X994794Y657008D01*
X994676Y657044D01*
X994562Y657065D01*
X994451Y657071D01*
X995425Y658045D01*
X995431Y657935D01*
D02*
G37*
G36*
X905490Y657879D02*
X905511Y657765D01*
X905547Y657647D01*
X905598Y657525D01*
X905663Y657399D01*
X905743Y657269D01*
X905838Y657136D01*
X905947Y656999D01*
X906210Y656714D01*
X905786Y656290D01*
X905641Y656429D01*
X905364Y656662D01*
X905231Y656757D01*
X905101Y656837D01*
X904975Y656902D01*
X904853Y656953D01*
X904735Y656988D01*
X904621Y657010D01*
X904510Y657016D01*
X905484Y657990D01*
X905490Y657879D01*
D02*
G37*
G36*
X962754Y655188D02*
X962607Y655037D01*
X962259Y654628D01*
X962175Y654507D01*
X962105Y654393D01*
X962052Y654286D01*
X962014Y654186D01*
X961991Y654095D01*
X961984Y654010D01*
X961010Y654984D01*
X961094Y654991D01*
X961187Y655014D01*
X961286Y655052D01*
X961393Y655105D01*
X961507Y655175D01*
X961628Y655259D01*
X961893Y655476D01*
X962037Y655607D01*
X962188Y655754D01*
X962754Y655188D01*
D02*
G37*
G36*
X995472Y654807D02*
X995514Y654691D01*
X995568Y654571D01*
X995633Y654449D01*
X995710Y654323D01*
X995799Y654195D01*
X996013Y653929D01*
X996137Y653792D01*
X996273Y653651D01*
X995950Y653125D01*
X995804Y653266D01*
X995525Y653496D01*
X995393Y653585D01*
X995266Y653656D01*
X995144Y653711D01*
X995027Y653748D01*
X994916Y653767D01*
X994809Y653770D01*
X994707Y653755D01*
X995442Y654920D01*
X995472Y654807D01*
D02*
G37*
G36*
X965754Y652188D02*
X965607Y652037D01*
X965259Y651628D01*
X965175Y651507D01*
X965105Y651393D01*
X965052Y651286D01*
X965014Y651187D01*
X964991Y651094D01*
X964984Y651010D01*
X964010Y651984D01*
X964095Y651991D01*
X964186Y652014D01*
X964286Y652052D01*
X964393Y652105D01*
X964507Y652175D01*
X964628Y652259D01*
X964894Y652476D01*
X965037Y652607D01*
X965188Y652754D01*
X965754Y652188D01*
D02*
G37*
G36*
X995431Y651249D02*
X995452Y651135D01*
X995488Y651017D01*
X995539Y650895D01*
X995604Y650769D01*
X995684Y650639D01*
X995779Y650506D01*
X995888Y650369D01*
X996151Y650084D01*
X995727Y649660D01*
X995582Y649799D01*
X995305Y650032D01*
X995172Y650127D01*
X995042Y650207D01*
X994916Y650272D01*
X994794Y650323D01*
X994676Y650359D01*
X994562Y650380D01*
X994451Y650386D01*
X995425Y651360D01*
X995431Y651249D01*
D02*
G37*
G36*
Y647907D02*
X995452Y647792D01*
X995488Y647674D01*
X995539Y647552D01*
X995604Y647426D01*
X995684Y647297D01*
X995779Y647164D01*
X995888Y647027D01*
X996151Y646742D01*
X995727Y646317D01*
X995582Y646456D01*
X995305Y646690D01*
X995172Y646785D01*
X995042Y646865D01*
X994916Y646930D01*
X994794Y646980D01*
X994676Y647016D01*
X994562Y647037D01*
X994451Y647043D01*
X995425Y648018D01*
X995431Y647907D01*
D02*
G37*
G36*
X1071816Y645644D02*
X1071897Y645595D01*
X1071994Y645552D01*
X1072108Y645514D01*
X1072238Y645482D01*
X1072383Y645456D01*
X1072724Y645422D01*
X1072918Y645413D01*
X1073129Y645410D01*
Y644610D01*
X1072918Y644607D01*
X1072383Y644564D01*
X1072238Y644538D01*
X1072108Y644506D01*
X1071994Y644469D01*
X1071897Y644425D01*
X1071816Y644376D01*
X1071752Y644321D01*
Y645699D01*
X1071816Y645644D01*
D02*
G37*
G36*
X1070346Y644321D02*
X1070281Y644376D01*
X1070200Y644425D01*
X1070103Y644469D01*
X1069989Y644506D01*
X1069860Y644538D01*
X1069714Y644564D01*
X1069374Y644599D01*
X1069179Y644607D01*
X1068968Y644610D01*
Y645410D01*
X1069179Y645413D01*
X1069714Y645456D01*
X1069860Y645482D01*
X1069989Y645514D01*
X1070103Y645552D01*
X1070200Y645595D01*
X1070281Y645644D01*
X1070346Y645699D01*
Y644321D01*
D02*
G37*
G36*
X995431Y637879D02*
X995452Y637765D01*
X995488Y637647D01*
X995539Y637525D01*
X995604Y637399D01*
X995684Y637269D01*
X995779Y637136D01*
X995888Y636999D01*
X996151Y636714D01*
X995727Y636290D01*
X995582Y636429D01*
X995305Y636662D01*
X995172Y636757D01*
X995042Y636837D01*
X994916Y636902D01*
X994794Y636953D01*
X994676Y636988D01*
X994562Y637009D01*
X994451Y637016D01*
X995425Y637990D01*
X995431Y637879D01*
D02*
G37*
G36*
Y634537D02*
X995452Y634422D01*
X995488Y634304D01*
X995539Y634182D01*
X995604Y634056D01*
X995684Y633927D01*
X995779Y633794D01*
X995888Y633657D01*
X996151Y633372D01*
X995727Y632947D01*
X995582Y633086D01*
X995305Y633320D01*
X995172Y633415D01*
X995042Y633495D01*
X994916Y633560D01*
X994794Y633610D01*
X994676Y633646D01*
X994562Y633667D01*
X994451Y633673D01*
X995425Y634648D01*
X995431Y634537D01*
D02*
G37*
G36*
X1054745Y633222D02*
X1054679Y633126D01*
X1054620Y633017D01*
X1054570Y632896D01*
X1054527Y632760D01*
X1054492Y632612D01*
X1054465Y632451D01*
X1054445Y632277D01*
X1054430Y631889D01*
X1053830D01*
X1053826Y632090D01*
X1053795Y632451D01*
X1053768Y632612D01*
X1053733Y632760D01*
X1053690Y632896D01*
X1053639Y633017D01*
X1053581Y633126D01*
X1053515Y633222D01*
X1053441Y633305D01*
X1054819D01*
X1054745Y633222D01*
D02*
G37*
G36*
X995431Y631194D02*
X995452Y631080D01*
X995488Y630962D01*
X995539Y630839D01*
X995604Y630714D01*
X995684Y630584D01*
X995779Y630451D01*
X995888Y630314D01*
X996151Y630029D01*
X995727Y629605D01*
X995582Y629744D01*
X995305Y629977D01*
X995172Y630072D01*
X995042Y630152D01*
X994916Y630217D01*
X994794Y630268D01*
X994676Y630303D01*
X994562Y630325D01*
X994451Y630331D01*
X995425Y631305D01*
X995431Y631194D01*
D02*
G37*
G36*
X1067778Y630496D02*
X1067874Y630430D01*
X1067983Y630372D01*
X1068105Y630321D01*
X1068240Y630278D01*
X1068388Y630243D01*
X1068549Y630216D01*
X1068723Y630197D01*
X1069111Y630181D01*
Y629581D01*
X1068911Y629577D01*
X1068549Y629546D01*
X1068388Y629519D01*
X1068240Y629484D01*
X1068105Y629441D01*
X1067983Y629390D01*
X1067874Y629332D01*
X1067778Y629266D01*
X1067695Y629192D01*
Y630570D01*
X1067778Y630496D01*
D02*
G37*
G36*
X855640Y627821D02*
X855736Y627755D01*
X855845Y627697D01*
X855967Y627646D01*
X856102Y627603D01*
X856250Y627568D01*
X856411Y627541D01*
X856586Y627522D01*
X856973Y627506D01*
Y626906D01*
X856773Y626902D01*
X856411Y626871D01*
X856250Y626844D01*
X856102Y626809D01*
X855967Y626766D01*
X855845Y626716D01*
X855736Y626657D01*
X855640Y626591D01*
X855558Y626517D01*
Y627895D01*
X855640Y627821D01*
D02*
G37*
G36*
X995431Y627852D02*
X995452Y627737D01*
X995488Y627619D01*
X995539Y627497D01*
X995604Y627371D01*
X995684Y627242D01*
X995779Y627109D01*
X995888Y626972D01*
X996151Y626687D01*
X995727Y626262D01*
X995582Y626401D01*
X995305Y626635D01*
X995172Y626729D01*
X995042Y626810D01*
X994916Y626875D01*
X994794Y626925D01*
X994676Y626961D01*
X994562Y626982D01*
X994451Y626988D01*
X995425Y627963D01*
X995431Y627852D01*
D02*
G37*
G36*
X995419Y624433D02*
X995433Y624320D01*
X995463Y624204D01*
X995508Y624083D01*
X995569Y623958D01*
X995646Y623830D01*
X995739Y623697D01*
X995847Y623559D01*
X996110Y623273D01*
X995650Y622884D01*
X995507Y623022D01*
X995231Y623257D01*
X995098Y623354D01*
X994968Y623438D01*
X994842Y623507D01*
X994719Y623563D01*
X994600Y623605D01*
X994484Y623633D01*
X994372Y623648D01*
X995421Y624541D01*
X995419Y624433D01*
D02*
G37*
G36*
X860990Y622778D02*
X860879Y622772D01*
X860765Y622751D01*
X860647Y622715D01*
X860525Y622665D01*
X860399Y622600D01*
X860269Y622520D01*
X860136Y622425D01*
X859999Y622316D01*
X859714Y622052D01*
X859290Y622477D01*
X859429Y622621D01*
X859662Y622899D01*
X859757Y623032D01*
X859837Y623161D01*
X859902Y623287D01*
X859953Y623409D01*
X859988Y623527D01*
X860009Y623642D01*
X860016Y623753D01*
X860990Y622778D01*
D02*
G37*
G36*
X1067801Y622820D02*
X1067897Y622754D01*
X1068006Y622695D01*
X1068128Y622645D01*
X1068263Y622602D01*
X1068411Y622567D01*
X1068572Y622540D01*
X1068747Y622520D01*
X1069134Y622505D01*
Y621905D01*
X1068934Y621901D01*
X1068572Y621870D01*
X1068411Y621842D01*
X1068263Y621807D01*
X1068128Y621765D01*
X1068006Y621714D01*
X1067897Y621656D01*
X1067801Y621590D01*
X1067719Y621516D01*
Y622894D01*
X1067801Y622820D01*
D02*
G37*
G36*
X995056Y620502D02*
X994990Y620406D01*
X994932Y620297D01*
X994881Y620175D01*
X994838Y620040D01*
X994803Y619892D01*
X994776Y619731D01*
X994757Y619557D01*
X994741Y619169D01*
X994141D01*
X994137Y619369D01*
X994106Y619731D01*
X994079Y619892D01*
X994044Y620040D01*
X994001Y620175D01*
X993950Y620297D01*
X993892Y620406D01*
X993826Y620502D01*
X993752Y620584D01*
X995130D01*
X995056Y620502D01*
D02*
G37*
G36*
X1113859Y618540D02*
X1114136Y618306D01*
X1114269Y618211D01*
X1114399Y618131D01*
X1114525Y618066D01*
X1114647Y618016D01*
X1114765Y617980D01*
X1114879Y617959D01*
X1114990Y617953D01*
X1114016Y616978D01*
X1114009Y617089D01*
X1113988Y617204D01*
X1113953Y617322D01*
X1113902Y617444D01*
X1113837Y617570D01*
X1113757Y617699D01*
X1113662Y617832D01*
X1113553Y617969D01*
X1113290Y618254D01*
X1113714Y618679D01*
X1113859Y618540D01*
D02*
G37*
G36*
X1110297Y609811D02*
X1110214Y609885D01*
X1110118Y609951D01*
X1110010Y610009D01*
X1109888Y610060D01*
X1109753Y610103D01*
X1109604Y610138D01*
X1109443Y610165D01*
X1109269Y610184D01*
X1108881Y610200D01*
Y610800D01*
X1109082Y610804D01*
X1109443Y610835D01*
X1109604Y610862D01*
X1109753Y610897D01*
X1109888Y610940D01*
X1110010Y610991D01*
X1110118Y611049D01*
X1110214Y611115D01*
X1110297Y611189D01*
Y609811D01*
D02*
G37*
G36*
X1068726Y608136D02*
X1068587Y607992D01*
X1068353Y607714D01*
X1068259Y607581D01*
X1068179Y607452D01*
X1068114Y607326D01*
X1068063Y607204D01*
X1068027Y607086D01*
X1068006Y606971D01*
X1068000Y606860D01*
X1067026Y607835D01*
X1067136Y607841D01*
X1067251Y607862D01*
X1067369Y607898D01*
X1067491Y607948D01*
X1067617Y608013D01*
X1067746Y608093D01*
X1067880Y608188D01*
X1068017Y608297D01*
X1068302Y608561D01*
X1068726Y608136D01*
D02*
G37*
G36*
X1120168Y607080D02*
X1120446Y606851D01*
X1120578Y606762D01*
X1120705Y606691D01*
X1120826Y606637D01*
X1120942Y606601D01*
X1121054Y606582D01*
X1121160Y606581D01*
X1121261Y606597D01*
X1120540Y605426D01*
X1120509Y605538D01*
X1120467Y605653D01*
X1120413Y605771D01*
X1120347Y605893D01*
X1120269Y606017D01*
X1120179Y606145D01*
X1119965Y606411D01*
X1119840Y606549D01*
X1119704Y606689D01*
X1120021Y607221D01*
X1120168Y607080D01*
D02*
G37*
G36*
X998716Y599713D02*
X998578Y599570D01*
X998343Y599294D01*
X998246Y599161D01*
X998163Y599031D01*
X998094Y598905D01*
X998039Y598782D01*
X997997Y598663D01*
X997969Y598547D01*
X997954Y598434D01*
X997058Y599481D01*
X997166Y599479D01*
X997278Y599493D01*
X997395Y599523D01*
X997516Y599569D01*
X997641Y599630D01*
X997769Y599707D01*
X997902Y599800D01*
X998040Y599908D01*
X998326Y600172D01*
X998716Y599713D01*
D02*
G37*
G36*
X994779D02*
X994641Y599570D01*
X994406Y599294D01*
X994310Y599161D01*
X994226Y599031D01*
X994157Y598905D01*
X994102Y598782D01*
X994060Y598663D01*
X994032Y598547D01*
X994018Y598434D01*
X993121Y599481D01*
X993229Y599479D01*
X993341Y599493D01*
X993458Y599523D01*
X993579Y599569D01*
X993703Y599630D01*
X993832Y599707D01*
X993966Y599800D01*
X994103Y599908D01*
X994389Y600172D01*
X994779Y599713D01*
D02*
G37*
G36*
X990842D02*
X990704Y599570D01*
X990469Y599294D01*
X990372Y599161D01*
X990289Y599031D01*
X990220Y598905D01*
X990165Y598782D01*
X990123Y598663D01*
X990095Y598547D01*
X990081Y598434D01*
X989184Y599481D01*
X989292Y599479D01*
X989404Y599493D01*
X989521Y599523D01*
X989642Y599569D01*
X989767Y599630D01*
X989895Y599707D01*
X990028Y599800D01*
X990166Y599908D01*
X990452Y600172D01*
X990842Y599713D01*
D02*
G37*
G36*
X1028804Y600418D02*
X1028835Y600057D01*
X1028862Y599895D01*
X1028897Y599747D01*
X1028940Y599612D01*
X1028991Y599490D01*
X1029049Y599381D01*
X1029115Y599286D01*
X1029189Y599203D01*
X1027811D01*
X1027885Y599286D01*
X1027951Y599381D01*
X1028009Y599490D01*
X1028060Y599612D01*
X1028103Y599747D01*
X1028138Y599895D01*
X1028165Y600057D01*
X1028184Y600231D01*
X1028200Y600619D01*
X1028800D01*
X1028804Y600418D01*
D02*
G37*
G36*
X1025017D02*
X1025048Y600057D01*
X1025075Y599895D01*
X1025110Y599747D01*
X1025153Y599612D01*
X1025204Y599490D01*
X1025262Y599381D01*
X1025328Y599286D01*
X1025402Y599203D01*
X1024024D01*
X1024098Y599286D01*
X1024164Y599381D01*
X1024222Y599490D01*
X1024273Y599612D01*
X1024316Y599747D01*
X1024351Y599895D01*
X1024378Y600057D01*
X1024397Y600231D01*
X1024413Y600619D01*
X1025013D01*
X1025017Y600418D01*
D02*
G37*
G36*
X1020898D02*
X1020930Y600057D01*
X1020957Y599895D01*
X1020992Y599747D01*
X1021035Y599612D01*
X1021085Y599490D01*
X1021143Y599381D01*
X1021210Y599286D01*
X1021284Y599203D01*
X1019905D01*
X1019979Y599286D01*
X1020046Y599381D01*
X1020104Y599490D01*
X1020154Y599612D01*
X1020197Y599747D01*
X1020232Y599895D01*
X1020259Y600057D01*
X1020279Y600231D01*
X1020294Y600619D01*
X1020895D01*
X1020898Y600418D01*
D02*
G37*
G36*
X1009087D02*
X1009118Y600057D01*
X1009146Y599895D01*
X1009181Y599747D01*
X1009223Y599612D01*
X1009274Y599490D01*
X1009332Y599381D01*
X1009398Y599286D01*
X1009472Y599203D01*
X1008095D01*
X1008168Y599286D01*
X1008235Y599381D01*
X1008293Y599490D01*
X1008343Y599612D01*
X1008386Y599747D01*
X1008421Y599895D01*
X1008449Y600057D01*
X1008468Y600231D01*
X1008484Y600619D01*
X1009083D01*
X1009087Y600418D01*
D02*
G37*
G36*
X1005304D02*
X1005335Y600057D01*
X1005362Y599895D01*
X1005397Y599747D01*
X1005440Y599612D01*
X1005491Y599490D01*
X1005549Y599381D01*
X1005615Y599286D01*
X1005689Y599203D01*
X1004311D01*
X1004385Y599286D01*
X1004451Y599381D01*
X1004509Y599490D01*
X1004560Y599612D01*
X1004603Y599747D01*
X1004638Y599895D01*
X1004665Y600057D01*
X1004684Y600231D01*
X1004700Y600619D01*
X1005300D01*
X1005304Y600418D01*
D02*
G37*
G36*
X1002506Y599959D02*
X1002366Y599812D01*
X1002136Y599533D01*
X1002046Y599401D01*
X1001974Y599274D01*
X1001919Y599152D01*
X1001881Y599034D01*
X1001861Y598922D01*
X1001857Y598814D01*
X1001871Y598712D01*
X1000717Y599465D01*
X1000830Y599494D01*
X1000947Y599534D01*
X1001066Y599586D01*
X1001188Y599651D01*
X1001314Y599727D01*
X1001443Y599815D01*
X1001709Y600028D01*
X1001847Y600152D01*
X1001988Y600289D01*
X1002506Y599959D01*
D02*
G37*
G36*
X986872Y599786D02*
X986733Y599642D01*
X986499Y599364D01*
X986404Y599231D01*
X986324Y599101D01*
X986259Y598975D01*
X986209Y598853D01*
X986173Y598735D01*
X986152Y598621D01*
X986146Y598510D01*
X985171Y599484D01*
X985282Y599490D01*
X985397Y599511D01*
X985515Y599547D01*
X985637Y599598D01*
X985763Y599663D01*
X985892Y599743D01*
X986025Y599838D01*
X986162Y599947D01*
X986447Y600210D01*
X986872Y599786D01*
D02*
G37*
G36*
X1088297Y586075D02*
X1088214Y586149D01*
X1088118Y586215D01*
X1088010Y586273D01*
X1087888Y586324D01*
X1087753Y586367D01*
X1087605Y586402D01*
X1087443Y586429D01*
X1087269Y586448D01*
X1086882Y586464D01*
Y587064D01*
X1087082Y587068D01*
X1087443Y587099D01*
X1087605Y587126D01*
X1087753Y587161D01*
X1087888Y587204D01*
X1088010Y587254D01*
X1088118Y587313D01*
X1088214Y587379D01*
X1088297Y587453D01*
Y586075D01*
D02*
G37*
G36*
X1034055Y586613D02*
X1033916Y586469D01*
X1033683Y586191D01*
X1033588Y586058D01*
X1033508Y585929D01*
X1033443Y585803D01*
X1033392Y585681D01*
X1033356Y585563D01*
X1033335Y585448D01*
X1033329Y585337D01*
X1032355Y586312D01*
X1032465Y586318D01*
X1032580Y586339D01*
X1032698Y586375D01*
X1032820Y586425D01*
X1032946Y586490D01*
X1033076Y586571D01*
X1033209Y586665D01*
X1033346Y586775D01*
X1033631Y587038D01*
X1034055Y586613D01*
D02*
G37*
G36*
X1032331Y584343D02*
X1032220Y584338D01*
X1032106Y584317D01*
X1031988Y584281D01*
X1031866Y584231D01*
X1031740Y584166D01*
X1031611Y584086D01*
X1031478Y583992D01*
X1031341Y583882D01*
X1031055Y583619D01*
X1030633Y584045D01*
X1030772Y584190D01*
X1031005Y584467D01*
X1031100Y584600D01*
X1031180Y584730D01*
X1031246Y584856D01*
X1031297Y584978D01*
X1031333Y585096D01*
X1031354Y585211D01*
X1031361Y585322D01*
X1032331Y584343D01*
D02*
G37*
G36*
X1036663Y584343D02*
X1036552Y584337D01*
X1036437Y584316D01*
X1036319Y584280D01*
X1036197Y584230D01*
X1036071Y584165D01*
X1035942Y584085D01*
X1035809Y583990D01*
X1035672Y583881D01*
X1035387Y583617D01*
X1034962Y584042D01*
X1035101Y584186D01*
X1035335Y584464D01*
X1035429Y584597D01*
X1035509Y584726D01*
X1035575Y584852D01*
X1035625Y584974D01*
X1035661Y585092D01*
X1035682Y585207D01*
X1035688Y585318D01*
X1036663Y584343D01*
D02*
G37*
G36*
X1037542Y545190D02*
X1037637Y545124D01*
X1037746Y545065D01*
X1037868Y545015D01*
X1038003Y544972D01*
X1038151Y544937D01*
X1038313Y544910D01*
X1038487Y544890D01*
X1038874Y544875D01*
Y544275D01*
X1038674Y544271D01*
X1038313Y544240D01*
X1038151Y544213D01*
X1038003Y544178D01*
X1037868Y544135D01*
X1037746Y544084D01*
X1037637Y544026D01*
X1037542Y543960D01*
X1037459Y543886D01*
Y545264D01*
X1037542Y545190D01*
D02*
G37*
G36*
Y542040D02*
X1037637Y541974D01*
X1037746Y541916D01*
X1037868Y541865D01*
X1038003Y541822D01*
X1038151Y541787D01*
X1038313Y541760D01*
X1038487Y541741D01*
X1038874Y541725D01*
Y541125D01*
X1038674Y541121D01*
X1038313Y541090D01*
X1038151Y541063D01*
X1038003Y541028D01*
X1037868Y540985D01*
X1037746Y540935D01*
X1037637Y540876D01*
X1037542Y540810D01*
X1037459Y540736D01*
Y542114D01*
X1037542Y542040D01*
D02*
G37*
G36*
X860359Y540321D02*
X860636Y540088D01*
X860769Y539993D01*
X860899Y539913D01*
X861025Y539848D01*
X861147Y539797D01*
X861265Y539761D01*
X861379Y539741D01*
X861490Y539734D01*
X860516Y538760D01*
X860509Y538871D01*
X860489Y538985D01*
X860453Y539103D01*
X860402Y539225D01*
X860337Y539351D01*
X860257Y539481D01*
X860162Y539614D01*
X860053Y539751D01*
X859790Y540036D01*
X860214Y540460D01*
X860359Y540321D01*
D02*
G37*
G36*
X862286Y539365D02*
X862381Y539299D01*
X862490Y539241D01*
X862612Y539190D01*
X862747Y539147D01*
X862895Y539112D01*
X863057Y539085D01*
X863231Y539066D01*
X863618Y539050D01*
Y538450D01*
X863418Y538446D01*
X863057Y538415D01*
X862895Y538388D01*
X862747Y538353D01*
X862612Y538310D01*
X862490Y538259D01*
X862381Y538201D01*
X862286Y538135D01*
X862203Y538061D01*
Y539439D01*
X862286Y539365D01*
D02*
G37*
D18*
X937322Y887678D02*
Y888000D01*
Y887678D02*
X1002094Y822906D01*
X1042445D01*
X1096413Y801358D02*
Y808071D01*
X1111343Y823000D02*
X1111500D01*
X1096413Y808071D02*
X1111343Y823000D01*
X1004095Y827905D02*
X1042445D01*
X942000Y890000D02*
X1004095Y827905D01*
X885984Y872258D02*
Y888016D01*
X878000Y896000D02*
Y896000D01*
Y896000D02*
X885984Y888016D01*
X1060587Y801358D02*
X1096413D01*
D80*
X994779Y680721D02*
D03*
X937322Y888000D02*
D03*
X1020595Y598500D02*
D03*
X1032345Y585328D02*
D03*
X1066992Y629881D02*
D03*
X996972Y598500D02*
D03*
X1058500Y722159D02*
D03*
X979000Y780500D02*
D03*
X993035Y598500D02*
D03*
X1028500D02*
D03*
X1008784D02*
D03*
X1067016Y606850D02*
D03*
X985161Y598500D02*
D03*
X1054043Y669449D02*
D03*
X964000Y651000D02*
D03*
X972500Y720807D02*
D03*
X1054130Y634008D02*
D03*
X975116Y717827D02*
D03*
X984000Y780500D02*
D03*
X959743Y668579D02*
D03*
X1005000Y598500D02*
D03*
X1067016Y622205D02*
D03*
X962000Y674000D02*
D03*
X1071049Y645010D02*
D03*
X951107Y675039D02*
D03*
X975116Y700000D02*
D03*
X961000Y654000D02*
D03*
X989098Y598500D02*
D03*
X1024713D02*
D03*
X930500Y679500D02*
D03*
X1000909Y598500D02*
D03*
X1048153Y689000D02*
D03*
X994441Y621287D02*
D03*
Y634657D02*
D03*
Y631315D02*
D03*
Y658055D02*
D03*
Y651370D02*
D03*
X994480Y654713D02*
D03*
X994441Y648028D02*
D03*
Y638000D02*
D03*
Y627972D02*
D03*
Y624630D02*
D03*
X1111500Y838000D02*
D03*
X1042445Y872906D02*
D03*
Y827905D02*
D03*
Y822906D02*
D03*
X1111500Y823000D02*
D03*
X994740Y674157D02*
D03*
X994852Y677500D02*
D03*
X1077811Y691972D02*
D03*
X1089000Y586764D02*
D03*
X1121500Y605642D02*
D03*
X864000Y690000D02*
D03*
X874500Y731500D02*
D03*
X1115000Y616968D02*
D03*
X915000Y683695D02*
D03*
X878000Y896000D02*
D03*
X872000Y838500D02*
D03*
X876000D02*
D03*
X1036756Y544575D02*
D03*
Y541425D02*
D03*
X1096413Y801358D02*
D03*
X1096372Y807917D02*
D03*
X1102772Y687500D02*
D03*
X1124228Y677500D02*
D03*
X1102772D02*
D03*
X861500Y538750D02*
D03*
X904500Y658000D02*
D03*
Y647500D02*
D03*
Y669500D02*
D03*
X885984Y871758D02*
D03*
X775190Y823813D02*
D03*
X781521Y833159D02*
D03*
X1036672Y585328D02*
D03*
X790358Y744119D02*
D03*
X854855Y627206D02*
D03*
X861000Y623763D02*
D03*
X1060587Y801358D02*
D03*
X1111000Y610500D02*
D03*
X942000Y890000D02*
D03*
X940500Y743772D02*
D03*
X1124228Y682500D02*
D03*
D137*
X781521Y833159D02*
X839841D01*
X920500Y752500D01*
Y726500D02*
Y752500D01*
X780626Y829284D02*
X837716D01*
X916500Y725500D02*
Y750500D01*
X837716Y829284D02*
X916500Y750500D01*
X940500Y716980D02*
Y743772D01*
Y716980D02*
X1012470Y645010D01*
X1071049D01*
X1111500Y838000D02*
X1115500Y834000D01*
X1111500Y838000D02*
X1111500D01*
X1115500Y697341D02*
Y834000D01*
Y697341D02*
X1128067Y684774D01*
X1071049Y645010D02*
X1088510D01*
X972500Y720807D02*
X978169D01*
X988476Y710500D02*
X1079772D01*
X978169Y720807D02*
X988476Y710500D01*
X975116Y717827D02*
X975173D01*
X985500Y707500D02*
X1077000D01*
X975173Y717827D02*
X985500Y707500D01*
X1079772Y710500D02*
X1102772Y687500D01*
X1077000Y707500D02*
X1099500Y685000D01*
X975116Y700000D02*
X979116Y696000D01*
X1084272D02*
X1102772Y677500D01*
X979116Y696000D02*
X1084272D01*
X1128067Y679962D02*
Y684774D01*
X1124228Y677500D02*
X1124284Y677556D01*
X1125661D01*
X1128067Y679962D01*
X1121000Y677500D02*
X1124228D01*
X971500Y658500D02*
Y675500D01*
X920500Y726500D02*
X971500Y675500D01*
X961000Y654000D02*
X967500Y660500D01*
X916500Y725500D02*
X967500Y674500D01*
Y660500D02*
Y674500D01*
X964000Y651000D02*
X971500Y658500D01*
X1088510Y645010D02*
X1121000Y677500D01*
X876000Y835000D02*
Y838500D01*
X891000Y820000D02*
X944500D01*
X876000Y835000D02*
X891000Y820000D01*
X944500D02*
X984000Y780500D01*
X984000D01*
X1121728Y685000D02*
X1124228Y682500D01*
X1124228D01*
X888500Y816000D02*
X943500D01*
X979000Y780500D01*
X1099500Y685000D02*
X1121728D01*
X775190Y823813D02*
Y823847D01*
X780626Y829284D01*
X872000Y832500D02*
X888500Y816000D01*
X872000Y832500D02*
Y838500D01*
D140*
X891500Y739500D02*
X930500Y700500D01*
X794977Y739500D02*
X891500D01*
X790358Y744119D02*
X794977Y739500D01*
X995490Y680592D02*
X1003898Y689000D01*
X995490Y673908D02*
X998541D01*
X1003000Y669449D01*
X1054043D01*
X994480Y654713D02*
X994787D01*
X1024713Y598500D02*
Y624787D01*
X994787Y654713D02*
X1024713Y624787D01*
X994441Y627972D02*
X998924Y623490D01*
X993035Y598393D02*
X998924Y604282D01*
Y623490D01*
X994441Y631315D02*
X1000841Y624915D01*
X996972Y598393D02*
X1000841Y602262D01*
Y624915D01*
X994441Y634657D02*
X1002958Y626141D01*
X1000909Y598786D02*
X1002958Y600835D01*
Y626141D01*
X1000909Y598500D02*
Y598786D01*
X989098Y598393D02*
X997000Y606295D01*
X994441Y624518D02*
X997000Y621959D01*
Y606295D02*
Y621959D01*
X994441Y607780D02*
Y621287D01*
X1028500Y598500D02*
Y623996D01*
X994441Y658055D02*
X1028500Y623996D01*
X1020595Y598500D02*
Y625216D01*
X994441Y651370D02*
X1020595Y625216D01*
X1008784Y598500D02*
Y633685D01*
X994441Y648028D02*
X1008784Y633685D01*
X1005000Y598500D02*
Y627441D01*
X994441Y638000D02*
X1005000Y627441D01*
X994441Y624518D02*
Y624630D01*
X985161Y598500D02*
X994441Y607780D01*
X1054476Y741524D02*
X1058500Y737500D01*
Y722159D02*
Y737500D01*
X1054476Y741524D02*
Y860874D01*
X1029345Y578000D02*
X1036672Y585328D01*
X922750Y538750D02*
X962000Y578000D01*
X1029345D01*
X907284Y581716D02*
X1028728D01*
X861794Y627206D02*
X907284Y581716D01*
X1028728D02*
X1032339Y585328D01*
X930500Y679500D02*
Y700500D01*
X918836Y643836D02*
X943579Y668579D01*
X959743D01*
X915000Y683695D02*
X915454D01*
X906508D02*
X915000D01*
X1005000Y598484D02*
Y598500D01*
X1008784Y598393D02*
Y598500D01*
X1020595Y598484D02*
Y598500D01*
X995352Y677500D02*
X999169D01*
X995240Y674157D02*
X995490Y673908D01*
X999169Y677500D02*
X1007169Y685500D01*
X1003898Y689000D02*
X1048153D01*
X959556Y671556D02*
X962000Y674000D01*
X927800Y667300D02*
X935539Y675039D01*
X951107D01*
X906700Y667300D02*
X927800D01*
X906641Y655860D02*
X923702D01*
X939398Y671556D02*
X959556D01*
X923702Y655860D02*
X939398Y671556D01*
X908664Y643836D02*
X918836D01*
X1067016Y606850D02*
X1070665Y610500D01*
X1111000D01*
X858000Y542250D02*
Y620763D01*
Y542250D02*
X861500Y538750D01*
X858000Y620763D02*
X861000Y623763D01*
X861500Y538750D02*
X922750D01*
X1042445Y872906D02*
X1054476Y860874D01*
X1007169Y685500D02*
X1050945D01*
X905413Y647087D02*
X908664Y643836D01*
X854855Y627206D02*
X861794D01*
X1052791Y586209D02*
X1056000Y583000D01*
X1036672Y585328D02*
X1036728D01*
X1037610Y586209D01*
X1052791D01*
X1056000Y555500D02*
Y583000D01*
X904500Y669500D02*
X906700Y667300D01*
X904500Y658000D02*
X906641Y655860D01*
X904500Y647500D02*
X904817D01*
X905230Y647087D01*
X905413D01*
X1057417Y691972D02*
X1077811D01*
X1050945Y685500D02*
X1057417Y691972D01*
X1059000Y554500D02*
Y583500D01*
X1036756Y541425D02*
X1045925D01*
X1059000Y554500D01*
X1052500Y590000D02*
X1059000Y583500D01*
X1037017Y590000D02*
X1052500D01*
X1032345Y585328D02*
X1037017Y590000D01*
X1036756Y544575D02*
X1045075D01*
X1056000Y555500D01*
X1032339Y585328D02*
X1032345D01*
X864000Y695659D02*
X866500Y698159D01*
X864000Y690000D02*
Y695659D01*
X866500Y698159D02*
Y723500D01*
X874271Y731271D01*
X867943Y686057D02*
X904145D01*
X864000Y690000D02*
X867943Y686057D01*
X904145D02*
X906508Y683695D01*
X1121176Y605642D02*
X1121500D01*
X1104613Y622205D02*
X1121176Y605642D01*
X1067016Y622205D02*
X1104613D01*
X1102087Y629881D02*
X1115000Y616968D01*
X1066992Y629881D02*
X1102087D01*
X1054130Y613870D02*
Y634008D01*
Y613870D02*
X1081236Y586764D01*
X1089000D01*
M02*
