G04*
G04 #@! TF.GenerationSoftware,Altium Limited,Altium Designer,20.2.5 (213)*
G04*
G04 Layer_Color=8388736*
%FSLAX25Y25*%
%MOIN*%
G70*
G04*
G04 #@! TF.SameCoordinates,C1AB7A55-160F-408B-B7C6-D50FE72A222F*
G04*
G04*
G04 #@! TF.FilePolarity,Positive*
G04*
G01*
G75*
%ADD18C,0.01000*%
%ADD80C,0.00600*%
%ADD169C,0.04724*%
D18*
X693000Y532512D02*
X695000Y526512D01*
X697000Y532512D01*
X695000Y920201D02*
X697000Y914201D01*
X693000D02*
X695000Y920201D01*
Y526512D02*
Y704162D01*
Y739351D02*
Y920201D01*
X694000Y526512D02*
X766528D01*
X694000Y920201D02*
X766528D01*
X744299Y494000D02*
X750299Y496000D01*
X744299Y494000D02*
X750299Y492000D01*
X1132000D02*
X1138000Y494000D01*
X1132000Y496000D02*
X1138000Y494000D01*
X744299D02*
X921955D01*
X957144D02*
X1138000D01*
X744299Y493000D02*
Y548740D01*
X1138000Y493000D02*
Y548740D01*
D80*
X698599Y705761D02*
Y707761D01*
Y706761D01*
X692601D01*
X693601Y705761D01*
Y710760D02*
X692601Y711760D01*
Y713759D01*
X693601Y714759D01*
X697599D01*
X698599Y713759D01*
Y711760D01*
X697599Y710760D01*
X693601D01*
Y716758D02*
X692601Y717758D01*
Y719757D01*
X693601Y720757D01*
X697599D01*
X698599Y719757D01*
Y717758D01*
X697599Y716758D01*
X693601D01*
X698599Y722756D02*
X697599D01*
Y723756D01*
X698599D01*
Y722756D01*
X693601Y727754D02*
X692601Y728754D01*
Y730753D01*
X693601Y731753D01*
X697599D01*
X698599Y730753D01*
Y728754D01*
X697599Y727754D01*
X693601D01*
Y733752D02*
X692601Y734752D01*
Y736751D01*
X693601Y737751D01*
X697599D01*
X698599Y736751D01*
Y734752D01*
X697599Y733752D01*
X693601D01*
X923555Y490401D02*
X925554D01*
X924555D01*
Y496399D01*
X923555Y495399D01*
X928553D02*
X929553Y496399D01*
X931552D01*
X932552Y495399D01*
Y491401D01*
X931552Y490401D01*
X929553D01*
X928553Y491401D01*
Y495399D01*
X934551D02*
X935551Y496399D01*
X937550D01*
X938550Y495399D01*
Y491401D01*
X937550Y490401D01*
X935551D01*
X934551Y491401D01*
Y495399D01*
X940549Y490401D02*
Y491401D01*
X941549D01*
Y490401D01*
X940549D01*
X945548Y495399D02*
X946547Y496399D01*
X948547D01*
X949546Y495399D01*
Y491401D01*
X948547Y490401D01*
X946547D01*
X945548Y491401D01*
Y495399D01*
X951546D02*
X952545Y496399D01*
X954545D01*
X955544Y495399D01*
Y491401D01*
X954545Y490401D01*
X952545D01*
X951546Y491401D01*
Y495399D01*
D169*
X981624Y912706D02*
X980900Y913402D01*
X980149Y914069D01*
X979372Y914707D01*
X978570Y915313D01*
X977746Y915888D01*
X976900Y916430D01*
X976033Y916938D01*
X975147Y917412D01*
X974242Y917850D01*
X973322Y918253D01*
X972386Y918619D01*
X971437Y918948D01*
X970475Y919240D01*
X969503Y919494D01*
X968521Y919709D01*
X967532Y919886D01*
X966537Y920023D01*
X965536Y920122D01*
X964533Y920181D01*
X963529Y920201D01*
X744299Y552102D02*
X744319Y551098D01*
X744378Y550095D01*
X744477Y549094D01*
X744614Y548099D01*
X744791Y547110D01*
X745006Y546128D01*
X745260Y545156D01*
X745552Y544194D01*
X745881Y543245D01*
X746247Y542309D01*
X746650Y541389D01*
X747088Y540485D01*
X747562Y539598D01*
X748070Y538731D01*
X748612Y537885D01*
X749187Y537061D01*
X749793Y536259D01*
X750431Y535483D01*
X751098Y534731D01*
X751794Y534007D01*
X752519Y533311D01*
X753270Y532643D01*
X754047Y532006D01*
X754848Y531399D01*
X755672Y530825D01*
X756519Y530283D01*
X757386Y529775D01*
X758272Y529301D01*
X759176Y528862D01*
X760097Y528460D01*
X761032Y528093D01*
X761982Y527764D01*
X762944Y527473D01*
X763916Y527219D01*
X764897Y527003D01*
X765886Y526827D01*
X766882Y526689D01*
X767882Y526591D01*
X768885Y526532D01*
X769890Y526512D01*
Y920201D02*
X768885Y920181D01*
X767882Y920122D01*
X766882Y920023D01*
X765886Y919886D01*
X764897Y919709D01*
X763916Y919494D01*
X762944Y919240D01*
X761982Y918948D01*
X761032Y918619D01*
X760097Y918253D01*
X759176Y917850D01*
X758272Y917412D01*
X757386Y916938D01*
X756519Y916430D01*
X755672Y915888D01*
X754848Y915313D01*
X754047Y914707D01*
X753270Y914069D01*
X752519Y913402D01*
X751794Y912706D01*
X751098Y911981D01*
X750431Y911230D01*
X749793Y910453D01*
X749187Y909652D01*
X748612Y908828D01*
X748070Y907981D01*
X747562Y907114D01*
X747088Y906228D01*
X746650Y905324D01*
X746247Y904403D01*
X745881Y903468D01*
X745552Y902518D01*
X745260Y901557D01*
X745006Y900584D01*
X744791Y899603D01*
X744614Y898613D01*
X744477Y897618D01*
X744378Y896618D01*
X744319Y895615D01*
X744299Y894610D01*
X993795Y900137D02*
X994520Y899441D01*
X995271Y898773D01*
X996047Y898136D01*
X996849Y897529D01*
X997673Y896955D01*
X998519Y896413D01*
X999386Y895905D01*
X1000272Y895431D01*
X1001177Y894992D01*
X1002097Y894590D01*
X1003033Y894223D01*
X1003983Y893894D01*
X1004944Y893602D01*
X1005916Y893349D01*
X1006898Y893134D01*
X1007887Y892957D01*
X1008883Y892819D01*
X1009883Y892721D01*
X1010886Y892661D01*
X1011890Y892642D01*
X1112409Y526512D02*
X1113414Y526532D01*
X1114417Y526591D01*
X1115417Y526689D01*
X1116413Y526827D01*
X1117402Y527003D01*
X1118384Y527219D01*
X1119356Y527473D01*
X1120317Y527764D01*
X1121267Y528093D01*
X1122202Y528460D01*
X1123123Y528862D01*
X1124027Y529301D01*
X1124914Y529775D01*
X1125780Y530283D01*
X1126627Y530825D01*
X1127451Y531399D01*
X1128252Y532006D01*
X1129029Y532643D01*
X1129780Y533311D01*
X1130505Y534007D01*
X1131201Y534731D01*
X1131869Y535483D01*
X1132506Y536259D01*
X1133113Y537061D01*
X1133687Y537885D01*
X1134229Y538731D01*
X1134737Y539598D01*
X1135211Y540485D01*
X1135649Y541389D01*
X1136052Y542309D01*
X1136418Y543245D01*
X1136747Y544194D01*
X1137039Y545156D01*
X1137293Y546128D01*
X1137508Y547110D01*
X1137685Y548099D01*
X1137823Y549094D01*
X1137921Y550095D01*
X1137980Y551098D01*
X1138000Y552102D01*
Y867051D02*
X1137980Y868056D01*
X1137921Y869059D01*
X1137823Y870059D01*
X1137685Y871054D01*
X1137508Y872044D01*
X1137293Y873025D01*
X1137039Y873997D01*
X1136747Y874959D01*
X1136418Y875908D01*
X1136052Y876844D01*
X1135649Y877765D01*
X1135211Y878669D01*
X1134737Y879555D01*
X1134229Y880422D01*
X1133687Y881269D01*
X1133113Y882093D01*
X1132506Y882894D01*
X1131869Y883671D01*
X1131201Y884422D01*
X1130505Y885146D01*
X1129780Y885843D01*
X1129029Y886510D01*
X1128252Y887148D01*
X1127451Y887754D01*
X1126627Y888329D01*
X1125780Y888871D01*
X1124914Y889379D01*
X1124027Y889853D01*
X1123123Y890291D01*
X1122202Y890694D01*
X1121267Y891060D01*
X1120317Y891389D01*
X1119356Y891681D01*
X1118384Y891935D01*
X1117402Y892150D01*
X1116413Y892327D01*
X1115417Y892464D01*
X1114417Y892563D01*
X1113414Y892622D01*
X1112409Y892642D01*
X744299Y552102D02*
Y894610D01*
X981500Y913000D02*
X994000Y900000D01*
X1138000Y552102D02*
Y866909D01*
X769890Y526512D02*
X1112409D01*
X1011890Y892591D02*
X1112500Y892642D01*
X769890Y920201D02*
X963528D01*
M02*
