G04*
G04 #@! TF.GenerationSoftware,Altium Limited,Altium Designer,20.2.5 (213)*
G04*
G04 Layer_Physical_Order=8*
G04 Layer_Color=16711680*
%FSLAX25Y25*%
%MOIN*%
G70*
G04*
G04 #@! TF.SameCoordinates,C1AB7A55-160F-408B-B7C6-D50FE72A222F*
G04*
G04*
G04 #@! TF.FilePolarity,Positive*
G04*
G01*
G75*
%ADD18C,0.01000*%
%ADD20R,0.03543X0.03937*%
%ADD39R,0.03937X0.03543*%
%ADD73C,0.01968*%
%ADD80C,0.00600*%
%ADD82R,0.03150X0.03543*%
%ADD93R,0.02953X0.03347*%
%ADD98R,0.03347X0.02953*%
%ADD100R,0.03543X0.03150*%
%ADD101R,0.01732X0.01378*%
%ADD105R,0.02756X0.03543*%
%ADD129R,0.05118X0.05512*%
%ADD130C,0.00800*%
%ADD131C,0.00700*%
%ADD133C,0.02000*%
%ADD137C,0.06890*%
%ADD138C,0.11299*%
%ADD139C,0.01575*%
%ADD140C,0.08563*%
G04:AMPARAMS|DCode=141|XSize=70.87mil|YSize=74.8mil|CornerRadius=17.72mil|HoleSize=0mil|Usage=FLASHONLY|Rotation=180.000|XOffset=0mil|YOffset=0mil|HoleType=Round|Shape=RoundedRectangle|*
%AMROUNDEDRECTD141*
21,1,0.07087,0.03937,0,0,180.0*
21,1,0.03543,0.07480,0,0,180.0*
1,1,0.03543,-0.01772,0.01968*
1,1,0.03543,0.01772,0.01968*
1,1,0.03543,0.01772,-0.01968*
1,1,0.03543,-0.01772,-0.01968*
%
%ADD141ROUNDEDRECTD141*%
%ADD142C,0.05709*%
%ADD143R,0.09744X0.09744*%
%ADD144C,0.09744*%
%ADD145C,0.06000*%
%ADD146R,0.09055X0.12205*%
%ADD147R,0.01181X0.04331*%
%ADD148R,0.02362X0.01575*%
%ADD149R,0.00394X0.00394*%
%ADD150R,0.04678X0.01997*%
%ADD151R,0.08346X0.05906*%
%ADD152R,0.03150X0.03937*%
%ADD153R,0.06693X0.10630*%
G04:AMPARAMS|DCode=154|XSize=34.65mil|YSize=10.63mil|CornerRadius=1.33mil|HoleSize=0mil|Usage=FLASHONLY|Rotation=0.000|XOffset=0mil|YOffset=0mil|HoleType=Round|Shape=RoundedRectangle|*
%AMROUNDEDRECTD154*
21,1,0.03465,0.00797,0,0,0.0*
21,1,0.03199,0.01063,0,0,0.0*
1,1,0.00266,0.01599,-0.00399*
1,1,0.00266,-0.01599,-0.00399*
1,1,0.00266,-0.01599,0.00399*
1,1,0.00266,0.01599,0.00399*
%
%ADD154ROUNDEDRECTD154*%
G04:AMPARAMS|DCode=155|XSize=29.92mil|YSize=10.63mil|CornerRadius=1.33mil|HoleSize=0mil|Usage=FLASHONLY|Rotation=0.000|XOffset=0mil|YOffset=0mil|HoleType=Round|Shape=RoundedRectangle|*
%AMROUNDEDRECTD155*
21,1,0.02992,0.00797,0,0,0.0*
21,1,0.02726,0.01063,0,0,0.0*
1,1,0.00266,0.01363,-0.00399*
1,1,0.00266,-0.01363,-0.00399*
1,1,0.00266,-0.01363,0.00399*
1,1,0.00266,0.01363,0.00399*
%
%ADD155ROUNDEDRECTD155*%
%ADD156R,0.03543X0.05118*%
%ADD157C,0.01175*%
G36*
X909179Y917244D02*
X909348Y917230D01*
X909516Y917208D01*
X909683Y917177D01*
X909848Y917138D01*
X910011Y917090D01*
X910170Y917033D01*
X910327Y916968D01*
X910480Y916895D01*
X910629Y916814D01*
X910773Y916726D01*
X910913Y916630D01*
X911048Y916526D01*
X911177Y916416D01*
X911300Y916300D01*
X911416Y916177D01*
X911526Y916048D01*
X911630Y915913D01*
X911726Y915773D01*
X911814Y915629D01*
X911895Y915480D01*
X911968Y915327D01*
X912033Y915170D01*
X912090Y915011D01*
X912138Y914848D01*
X912177Y914683D01*
X912208Y914516D01*
X912230Y914348D01*
X912244Y914179D01*
X912250Y913944D01*
X912247D01*
X912244Y913821D01*
X912230Y913652D01*
X912208Y913484D01*
X912177Y913317D01*
X912138Y913152D01*
X912090Y912990D01*
X912033Y912830D01*
X911968Y912673D01*
X911895Y912520D01*
X911814Y912371D01*
X911726Y912226D01*
X911630Y912087D01*
X911526Y911952D01*
X911416Y911823D01*
X911300Y911700D01*
X911177Y911584D01*
X911048Y911474D01*
X910913Y911370D01*
X910773Y911274D01*
X910629Y911186D01*
X910480Y911105D01*
X910327Y911032D01*
X910170Y910967D01*
X910011Y910910D01*
X909848Y910862D01*
X909683Y910823D01*
X909516Y910792D01*
X909348Y910770D01*
X909179Y910756D01*
X909000Y910752D01*
X908830Y910756D01*
X908661Y910770D01*
X908492Y910792D01*
X908325Y910823D01*
X908159Y910863D01*
X907996Y910911D01*
X907836Y910968D01*
X907679Y911033D01*
X907525Y911106D01*
X907376Y911187D01*
X907231Y911276D01*
X907091Y911372D01*
X906956Y911476D01*
X906827Y911586D01*
X906703Y911703D01*
X906586Y911827D01*
X906476Y911956D01*
X906372Y912091D01*
X906276Y912231D01*
X906187Y912376D01*
X906106Y912525D01*
X906033Y912679D01*
X905968Y912836D01*
X905911Y912996D01*
X905863Y913159D01*
X905823Y913325D01*
X905792Y913492D01*
X905770Y913661D01*
X905756Y913830D01*
X905752Y914000D01*
X905756Y914170D01*
X905770Y914340D01*
X905792Y914508D01*
X905823Y914675D01*
X905863Y914841D01*
X905911Y915004D01*
X905968Y915164D01*
X906033Y915321D01*
X906106Y915475D01*
X906187Y915624D01*
X906276Y915769D01*
X906372Y915909D01*
X906476Y916044D01*
X906586Y916173D01*
X906703Y916297D01*
X906827Y916414D01*
X906956Y916524D01*
X907091Y916628D01*
X907231Y916724D01*
X907376Y916813D01*
X907525Y916894D01*
X907679Y916967D01*
X907836Y917032D01*
X907996Y917089D01*
X908159Y917137D01*
X908325Y917177D01*
X908492Y917208D01*
X908661Y917230D01*
X908830Y917244D01*
X909000Y917248D01*
X909179Y917244D01*
D02*
G37*
G36*
X914409Y909665D02*
X914433Y909601D01*
X914473Y909545D01*
X914529Y909496D01*
X914601Y909455D01*
X914689Y909421D01*
X914793Y909394D01*
X914913Y909376D01*
X915049Y909364D01*
X915201Y909361D01*
Y908561D01*
X915049Y908557D01*
X914913Y908546D01*
X914793Y908527D01*
X914689Y908501D01*
X914601Y908467D01*
X914529Y908426D01*
X914473Y908377D01*
X914433Y908320D01*
X914409Y908257D01*
X914401Y908185D01*
Y909736D01*
X914409Y909665D01*
D02*
G37*
G36*
X903599Y908185D02*
X903589Y908238D01*
X903559Y908284D01*
X903509Y908326D01*
X903439Y908362D01*
X903349Y908392D01*
X903239Y908417D01*
X903109Y908436D01*
X902959Y908450D01*
X902599Y908461D01*
Y909461D01*
X902789Y909463D01*
X903109Y909485D01*
X903239Y909505D01*
X903349Y909529D01*
X903439Y909560D01*
X903509Y909596D01*
X903559Y909637D01*
X903589Y909684D01*
X903599Y909736D01*
Y908185D01*
D02*
G37*
G36*
X914398Y906992D02*
X914421Y906932D01*
X914460Y906878D01*
X914513Y906832D01*
X914583Y906793D01*
X914667Y906761D01*
X914766Y906737D01*
X914881Y906719D01*
X915011Y906708D01*
X915156Y906705D01*
Y905905D01*
X915013Y905902D01*
X914771Y905880D01*
X914673Y905860D01*
X914590Y905835D01*
X914522Y905804D01*
X914469Y905768D01*
X914432Y905726D01*
X914409Y905679D01*
X914401Y905626D01*
X914389Y907059D01*
X914398Y906992D01*
D02*
G37*
G36*
X899005Y905833D02*
X899020Y905663D01*
X899045Y905513D01*
X899080Y905383D01*
X899125Y905273D01*
X899180Y905183D01*
X899245Y905113D01*
X899320Y905063D01*
X899405Y905033D01*
X899500Y905023D01*
X899018D01*
X899047Y904588D01*
X899068Y904465D01*
X899093Y904361D01*
X899121Y904276D01*
X899153Y904210D01*
X899189Y904163D01*
X897811D01*
X897847Y904210D01*
X897879Y904276D01*
X897907Y904361D01*
X897932Y904465D01*
X897953Y904588D01*
X897983Y904891D01*
X897988Y905023D01*
X897500D01*
X897595Y905033D01*
X897680Y905063D01*
X897755Y905113D01*
X897820Y905183D01*
X897875Y905273D01*
X897920Y905383D01*
X897955Y905513D01*
X897980Y905663D01*
X897995Y905833D01*
X898000Y906023D01*
X899000D01*
X899005Y905833D01*
D02*
G37*
G36*
X905492Y903059D02*
X905424Y903035D01*
X905364Y902995D01*
X905312Y902939D01*
X905268Y902867D01*
X905232Y902779D01*
X905204Y902675D01*
X905184Y902555D01*
X905172Y902419D01*
X905168Y902267D01*
X904368D01*
X904364Y902419D01*
X904352Y902555D01*
X904332Y902675D01*
X904304Y902779D01*
X904268Y902867D01*
X904224Y902939D01*
X904172Y902995D01*
X904112Y903035D01*
X904044Y903059D01*
X903968Y903067D01*
X905568D01*
X905492Y903059D01*
D02*
G37*
G36*
X914137Y903057D02*
X914052Y903027D01*
X913977Y902977D01*
X913912Y902907D01*
X913857Y902817D01*
X913812Y902707D01*
X913777Y902577D01*
X913752Y902427D01*
X913737Y902257D01*
X913732Y902067D01*
X912732D01*
X912727Y902257D01*
X912712Y902427D01*
X912687Y902577D01*
X912652Y902707D01*
X912607Y902817D01*
X912552Y902907D01*
X912487Y902977D01*
X912412Y903027D01*
X912327Y903057D01*
X912232Y903067D01*
X914232D01*
X914137Y903057D01*
D02*
G37*
G36*
X913737Y900135D02*
X913752Y899963D01*
X913777Y899812D01*
X913812Y899680D01*
X913857Y899569D01*
X913912Y899478D01*
X913977Y899407D01*
X914052Y899356D01*
X914137Y899325D01*
X914232Y899315D01*
X913820Y899317D01*
X913883Y898839D01*
X913047Y898107D01*
X912800Y899324D01*
X912339Y899327D01*
X912414Y899337D01*
X912480Y899367D01*
X912539Y899417D01*
X912591Y899487D01*
X912634Y899577D01*
X912669Y899687D01*
X912697Y899817D01*
X912716Y899967D01*
X912728Y900137D01*
X912732Y900327D01*
X913732D01*
X913737Y900135D01*
D02*
G37*
G36*
X905172Y899972D02*
X905184Y899834D01*
X905204Y899712D01*
X905232Y899607D01*
X905268Y899518D01*
X905312Y899444D01*
X905364Y899388D01*
X905424Y899347D01*
X905492Y899323D01*
X905568Y899315D01*
X903968D01*
X904044Y899323D01*
X904112Y899347D01*
X904172Y899388D01*
X904224Y899444D01*
X904268Y899518D01*
X904304Y899607D01*
X904332Y899712D01*
X904352Y899834D01*
X904364Y899972D01*
X904368Y900127D01*
X905168D01*
X905172Y899972D01*
D02*
G37*
G36*
X907629Y897062D02*
X907621Y897138D01*
X907597Y897206D01*
X907556Y897266D01*
X907499Y897318D01*
X907426Y897362D01*
X907337Y897398D01*
X907231Y897426D01*
X907109Y897446D01*
X906971Y897458D01*
X906889Y897460D01*
X906807Y897458D01*
X906669Y897446D01*
X906547Y897426D01*
X906441Y897398D01*
X906352Y897362D01*
X906279Y897318D01*
X906222Y897266D01*
X906182Y897206D01*
X906157Y897138D01*
X906149Y897062D01*
Y898662D01*
X906157Y898586D01*
X906182Y898518D01*
X906222Y898458D01*
X906279Y898406D01*
X906352Y898362D01*
X906441Y898326D01*
X906547Y898298D01*
X906669Y898278D01*
X906807Y898266D01*
X906889Y898264D01*
X906971Y898266D01*
X907109Y898278D01*
X907231Y898298D01*
X907337Y898326D01*
X907426Y898362D01*
X907499Y898406D01*
X907556Y898458D01*
X907597Y898518D01*
X907621Y898586D01*
X907629Y898662D01*
Y897062D01*
D02*
G37*
G36*
X915657Y898287D02*
X915679Y898229D01*
X915717Y898177D01*
X915770Y898132D01*
X915838Y898095D01*
X915921Y898064D01*
X916019Y898040D01*
X916133Y898023D01*
X916261Y898012D01*
X916405Y898009D01*
Y897209D01*
X916261Y897205D01*
X916133Y897195D01*
X916019Y897178D01*
X915921Y897154D01*
X915838Y897123D01*
X915770Y897085D01*
X915717Y897041D01*
X915679Y896989D01*
X915657Y896931D01*
X915649Y896865D01*
Y897203D01*
X915016Y897163D01*
X914884Y897143D01*
X914668Y897091D01*
X914585Y897060D01*
X914517Y897025D01*
X914857Y898347D01*
X914904Y898283D01*
X914970Y898225D01*
X915054Y898174D01*
X915156Y898131D01*
X915277Y898093D01*
X915416Y898063D01*
X915573Y898039D01*
X915649Y898032D01*
Y898352D01*
X915657Y898287D01*
D02*
G37*
G36*
X894505Y895308D02*
X894520Y895135D01*
X894545Y894984D01*
X894580Y894852D01*
X894625Y894741D01*
X894680Y894650D01*
X894745Y894579D01*
X894820Y894528D01*
X894905Y894498D01*
X895000Y894488D01*
X893000D01*
X893095Y894498D01*
X893180Y894528D01*
X893255Y894579D01*
X893320Y894650D01*
X893375Y894741D01*
X893420Y894852D01*
X893455Y894984D01*
X893480Y895135D01*
X893495Y895308D01*
X893500Y895500D01*
X894500D01*
X894505Y895308D01*
D02*
G37*
G36*
X897283Y883492D02*
X897215Y883468D01*
X897155Y883428D01*
X897103Y883372D01*
X897059Y883300D01*
X897023Y883212D01*
X896995Y883108D01*
X896975Y882988D01*
X896963Y882852D01*
X896959Y882700D01*
X896159D01*
X896155Y882852D01*
X896143Y882988D01*
X896123Y883108D01*
X896095Y883212D01*
X896059Y883300D01*
X896015Y883372D01*
X895963Y883428D01*
X895903Y883468D01*
X895835Y883492D01*
X895759Y883500D01*
X897359D01*
X897283Y883492D01*
D02*
G37*
G36*
X892346Y883490D02*
X892261Y883460D01*
X892186Y883410D01*
X892121Y883340D01*
X892066Y883250D01*
X892021Y883140D01*
X891986Y883010D01*
X891961Y882860D01*
X891946Y882690D01*
X891941Y882500D01*
X890941D01*
X890936Y882690D01*
X890921Y882860D01*
X890896Y883010D01*
X890861Y883140D01*
X890816Y883250D01*
X890761Y883340D01*
X890696Y883410D01*
X890621Y883460D01*
X890536Y883490D01*
X890441Y883500D01*
X892441D01*
X892346Y883490D01*
D02*
G37*
G36*
X896963Y881905D02*
X896975Y881767D01*
X896995Y881645D01*
X897023Y881540D01*
X897059Y881451D01*
X897103Y881378D01*
X897155Y881321D01*
X897215Y881280D01*
X897283Y881256D01*
X897359Y881248D01*
X895759D01*
X895835Y881256D01*
X895903Y881280D01*
X895963Y881321D01*
X896015Y881378D01*
X896059Y881451D01*
X896095Y881540D01*
X896123Y881645D01*
X896143Y881767D01*
X896155Y881905D01*
X896159Y882060D01*
X896959D01*
X896963Y881905D01*
D02*
G37*
G36*
X1111333Y881921D02*
X1111222Y881915D01*
X1111107Y881894D01*
X1110989Y881858D01*
X1110867Y881808D01*
X1110741Y881742D01*
X1110612Y881663D01*
X1110479Y881568D01*
X1110342Y881458D01*
X1110057Y881195D01*
X1109632Y881620D01*
X1109771Y881764D01*
X1110005Y882042D01*
X1110100Y882175D01*
X1110180Y882304D01*
X1110245Y882430D01*
X1110295Y882552D01*
X1110331Y882670D01*
X1110352Y882785D01*
X1110358Y882896D01*
X1111333Y881921D01*
D02*
G37*
G36*
X891946Y882067D02*
X891961Y881895D01*
X891986Y881744D01*
X892021Y881612D01*
X892066Y881501D01*
X892121Y881410D01*
X892186Y881339D01*
X892261Y881288D01*
X892346Y881258D01*
X892441Y881248D01*
X891944D01*
X892002Y880455D01*
X892024Y880351D01*
X892050Y880265D01*
X892078Y880199D01*
X892111Y880152D01*
X890735Y880239D01*
X890775Y880284D01*
X890809Y880349D01*
X890840Y880432D01*
X890867Y880535D01*
X890890Y880657D01*
X890908Y880799D01*
X890933Y881139D01*
X890935Y881248D01*
X890441D01*
X890536Y881258D01*
X890621Y881288D01*
X890696Y881339D01*
X890761Y881410D01*
X890816Y881501D01*
X890861Y881612D01*
X890896Y881744D01*
X890921Y881895D01*
X890936Y882067D01*
X890941Y882260D01*
X891941D01*
X891946Y882067D01*
D02*
G37*
G36*
X932920Y883982D02*
X932981Y883391D01*
X933081Y882824D01*
X933222Y882280D01*
X933403Y881759D01*
X933624Y881261D01*
X933886Y880786D01*
X934187Y880334D01*
X934529Y879905D01*
X934911Y879500D01*
X930089D01*
X930471Y879905D01*
X930813Y880334D01*
X931114Y880786D01*
X931376Y881261D01*
X931597Y881759D01*
X931778Y882280D01*
X931919Y882824D01*
X932020Y883391D01*
X932080Y883982D01*
X932100Y884595D01*
X932900D01*
X932920Y883982D01*
D02*
G37*
G36*
X919409Y884554D02*
X919429Y883941D01*
X919490Y883352D01*
X919590Y882784D01*
X919731Y882240D01*
X919911Y881719D01*
X920132Y881220D01*
X920394Y880744D01*
X920695Y880291D01*
X921036Y879861D01*
X921418Y879454D01*
X916595Y879467D01*
X916978Y879871D01*
X917320Y880299D01*
X917622Y880749D01*
X917884Y881223D01*
X918106Y881721D01*
X918287Y882242D01*
X918428Y882785D01*
X918529Y883352D01*
X918589Y883943D01*
X918609Y884556D01*
X919409Y884554D01*
D02*
G37*
G36*
X897185Y877744D02*
X897117Y877720D01*
X897057Y877679D01*
X897005Y877622D01*
X896961Y877549D01*
X896925Y877460D01*
X896897Y877355D01*
X896877Y877233D01*
X896865Y877095D01*
X896861Y876940D01*
X896061D01*
X896057Y877095D01*
X896045Y877233D01*
X896025Y877355D01*
X895997Y877460D01*
X895961Y877549D01*
X895917Y877622D01*
X895865Y877679D01*
X895805Y877720D01*
X895737Y877744D01*
X895661Y877752D01*
X897261D01*
X897185Y877744D01*
D02*
G37*
G36*
X1111333Y876921D02*
X1111222Y876915D01*
X1111107Y876894D01*
X1110989Y876858D01*
X1110867Y876808D01*
X1110741Y876742D01*
X1110612Y876663D01*
X1110479Y876568D01*
X1110342Y876458D01*
X1110057Y876195D01*
X1109632Y876620D01*
X1109771Y876764D01*
X1110005Y877042D01*
X1110100Y877175D01*
X1110180Y877304D01*
X1110245Y877430D01*
X1110295Y877552D01*
X1110331Y877670D01*
X1110352Y877785D01*
X1110358Y877896D01*
X1111333Y876921D01*
D02*
G37*
G36*
X940637Y881361D02*
X941108Y880983D01*
X941578Y880670D01*
X942045Y880421D01*
X942510Y880235D01*
X942974Y880114D01*
X943435Y880058D01*
X943895Y880065D01*
X944353Y880136D01*
X944809Y880272D01*
X942681Y876116D01*
X942511Y876674D01*
X942092Y877745D01*
X941844Y878258D01*
X941569Y878757D01*
X941268Y879242D01*
X940588Y880167D01*
X940208Y880607D01*
X939803Y881033D01*
X940165Y881802D01*
X940637Y881361D01*
D02*
G37*
G36*
X1112222Y857888D02*
X1112245Y857773D01*
X1112283Y857655D01*
X1112335Y857533D01*
X1112401Y857407D01*
X1112482Y857277D01*
X1112577Y857144D01*
X1112687Y857007D01*
X1112950Y856722D01*
X1112535Y856289D01*
X1112390Y856428D01*
X1112113Y856661D01*
X1111979Y856755D01*
X1111850Y856834D01*
X1111724Y856898D01*
X1111603Y856947D01*
X1111485Y856981D01*
X1111371Y857001D01*
X1111261Y857005D01*
X1112214Y858000D01*
X1112222Y857888D01*
D02*
G37*
G36*
X906768Y803792D02*
X906849Y803742D01*
X906946Y803699D01*
X907059Y803662D01*
X907189Y803630D01*
X907335Y803604D01*
X907675Y803569D01*
X907870Y803560D01*
X908080Y803557D01*
Y802757D01*
X907870Y802755D01*
X907335Y802711D01*
X907189Y802685D01*
X907059Y802653D01*
X906946Y802616D01*
X906849Y802573D01*
X906768Y802523D01*
X906703Y802468D01*
Y803846D01*
X906768Y803792D01*
D02*
G37*
G36*
X928404Y801602D02*
X928416Y801464D01*
X928436Y801342D01*
X928464Y801237D01*
X928500Y801147D01*
X928544Y801074D01*
X928596Y801018D01*
X928656Y800977D01*
X928724Y800953D01*
X928800Y800945D01*
X927200D01*
X927276Y800953D01*
X927344Y800977D01*
X927404Y801018D01*
X927456Y801074D01*
X927500Y801147D01*
X927536Y801237D01*
X927564Y801342D01*
X927584Y801464D01*
X927596Y801602D01*
X927600Y801756D01*
X928400D01*
X928404Y801602D01*
D02*
G37*
G36*
X1093169Y800669D02*
X1093122Y800705D01*
X1093056Y800737D01*
X1092972Y800766D01*
X1092868Y800790D01*
X1092745Y800811D01*
X1092441Y800841D01*
X1092061Y800856D01*
X1091843Y800858D01*
Y801858D01*
X1092061Y801860D01*
X1092745Y801906D01*
X1092868Y801926D01*
X1092972Y801951D01*
X1093056Y801979D01*
X1093122Y802011D01*
X1093169Y802047D01*
Y800669D01*
D02*
G37*
G36*
X1061336Y802011D02*
X1061402Y801979D01*
X1061487Y801951D01*
X1061591Y801926D01*
X1061714Y801906D01*
X1062017Y801875D01*
X1062397Y801860D01*
X1062615Y801858D01*
Y800858D01*
X1062397Y800856D01*
X1061714Y800811D01*
X1061591Y800790D01*
X1061487Y800766D01*
X1061402Y800737D01*
X1061336Y800705D01*
X1061290Y800669D01*
Y802047D01*
X1061336Y802011D01*
D02*
G37*
G36*
X906750Y799629D02*
X906815Y799597D01*
X906900Y799569D01*
X907004Y799544D01*
X907127Y799524D01*
X907430Y799493D01*
X907810Y799478D01*
X908029Y799476D01*
Y798476D01*
X907810Y798475D01*
X907127Y798429D01*
X907004Y798408D01*
X906900Y798384D01*
X906815Y798355D01*
X906750Y798323D01*
X906703Y798287D01*
Y799665D01*
X906750Y799629D01*
D02*
G37*
G36*
X921095Y797976D02*
X921085Y798071D01*
X921054Y798156D01*
X921004Y798231D01*
X920933Y798296D01*
X920842Y798351D01*
X920731Y798396D01*
X920599Y798431D01*
X920447Y798456D01*
X920275Y798471D01*
X920083Y798476D01*
Y799476D01*
X920275Y799481D01*
X920447Y799496D01*
X920599Y799521D01*
X920731Y799556D01*
X920842Y799601D01*
X920933Y799656D01*
X921004Y799721D01*
X921054Y799796D01*
X921085Y799881D01*
X921095Y799976D01*
Y797976D01*
D02*
G37*
G36*
X929185Y797047D02*
X929117Y797023D01*
X929057Y796982D01*
X929005Y796926D01*
X928961Y796852D01*
X928925Y796763D01*
X928897Y796658D01*
X928877Y796536D01*
X928865Y796398D01*
X928861Y796243D01*
X928061D01*
X928057Y796398D01*
X928045Y796536D01*
X928025Y796658D01*
X927997Y796763D01*
X927961Y796852D01*
X927917Y796926D01*
X927865Y796982D01*
X927805Y797023D01*
X927737Y797047D01*
X927661Y797055D01*
X929261D01*
X929185Y797047D01*
D02*
G37*
G36*
X923748Y797045D02*
X923662Y797015D01*
X923588Y796964D01*
X923522Y796894D01*
X923468Y796803D01*
X923423Y796691D01*
X923388Y796560D01*
X923363Y796408D01*
X923347Y796236D01*
X923343Y796043D01*
X922342D01*
X922338Y796236D01*
X922322Y796408D01*
X922297Y796560D01*
X922262Y796691D01*
X922217Y796803D01*
X922163Y796894D01*
X922097Y796964D01*
X922023Y797015D01*
X921937Y797045D01*
X921842Y797055D01*
X923843D01*
X923748Y797045D01*
D02*
G37*
G36*
X928865Y795405D02*
X928877Y795267D01*
X928897Y795146D01*
X928925Y795040D01*
X928961Y794951D01*
X929005Y794878D01*
X929057Y794821D01*
X929117Y794780D01*
X929185Y794756D01*
X929261Y794748D01*
X927661D01*
X927737Y794756D01*
X927805Y794780D01*
X927865Y794821D01*
X927917Y794878D01*
X927961Y794951D01*
X927997Y795040D01*
X928025Y795146D01*
X928045Y795267D01*
X928057Y795405D01*
X928061Y795560D01*
X928861D01*
X928865Y795405D01*
D02*
G37*
G36*
X923347Y795568D02*
X923363Y795396D01*
X923388Y795245D01*
X923423Y795114D01*
X923468Y795002D01*
X923522Y794911D01*
X923588Y794840D01*
X923662Y794789D01*
X923748Y794758D01*
X923843Y794748D01*
X921977Y794760D01*
X922046Y794770D01*
X922108Y794800D01*
X922163Y794850D01*
X922211Y794920D01*
X922251Y795010D01*
X922284Y795120D01*
X922310Y795250D01*
X922328Y795400D01*
X922339Y795570D01*
X922342Y795760D01*
X923343D01*
X923347Y795568D01*
D02*
G37*
G36*
X921989Y792000D02*
X921978Y792095D01*
X921948Y792180D01*
X921898Y792255D01*
X921827Y792320D01*
X921736Y792375D01*
X921624Y792420D01*
X921493Y792455D01*
X921341Y792480D01*
X921169Y792495D01*
X920977Y792500D01*
Y793500D01*
X921169Y793505D01*
X921341Y793520D01*
X921493Y793545D01*
X921624Y793580D01*
X921736Y793625D01*
X921827Y793680D01*
X921898Y793745D01*
X921948Y793820D01*
X921978Y793905D01*
X921989Y794000D01*
Y792000D01*
D02*
G37*
G36*
X929582Y791244D02*
X929514Y791220D01*
X929454Y791179D01*
X929402Y791122D01*
X929358Y791049D01*
X929322Y790960D01*
X929294Y790855D01*
X929274Y790733D01*
X929262Y790595D01*
X929258Y790440D01*
X928458D01*
X928454Y790595D01*
X928442Y790733D01*
X928422Y790855D01*
X928394Y790960D01*
X928358Y791049D01*
X928314Y791122D01*
X928262Y791179D01*
X928202Y791220D01*
X928134Y791244D01*
X928058Y791252D01*
X929658D01*
X929582Y791244D01*
D02*
G37*
G36*
X925102Y791240D02*
X925421Y790240D01*
X924421D01*
X924416Y790432D01*
X924401Y790603D01*
X924376Y790754D01*
X924341Y790886D01*
X924296Y790997D01*
X924241Y791088D01*
X924176Y791159D01*
X924101Y791210D01*
X924016Y791241D01*
X923921Y791252D01*
X925102Y791240D01*
D02*
G37*
G36*
X1056741Y788418D02*
X1056704Y788434D01*
X1056647Y788448D01*
X1056569Y788460D01*
X1056351Y788480D01*
X1055870Y788497D01*
X1055446Y788500D01*
X1055122Y789500D01*
X1055340Y789502D01*
X1055875Y789538D01*
X1056012Y789560D01*
X1056130Y789586D01*
X1056227Y789617D01*
X1056304Y789653D01*
X1056361Y789693D01*
X1056398Y789739D01*
X1056741Y788418D01*
D02*
G37*
G36*
X1053478Y788613D02*
X1053222Y788350D01*
X1052653Y787675D01*
X1052530Y787489D01*
X1052441Y787322D01*
X1052385Y787174D01*
X1052362Y787045D01*
X1052373Y786936D01*
X1052417Y786845D01*
X1051200Y788456D01*
X1051269Y788391D01*
X1051354Y788356D01*
X1051455Y788351D01*
X1051572Y788376D01*
X1051705Y788432D01*
X1051855Y788518D01*
X1052021Y788634D01*
X1052202Y788780D01*
X1052614Y789164D01*
X1053478Y788613D01*
D02*
G37*
G36*
X929260Y788553D02*
X929287Y788193D01*
X929303Y788105D01*
X929323Y788033D01*
X929346Y787977D01*
X929373Y787937D01*
X929403Y787913D01*
X929437Y787905D01*
X928280D01*
X928314Y787913D01*
X928344Y787937D01*
X928371Y787977D01*
X928394Y788033D01*
X928414Y788105D01*
X928430Y788193D01*
X928442Y788297D01*
X928456Y788553D01*
X928458Y788705D01*
X929258D01*
X929260Y788553D01*
D02*
G37*
G36*
X925422Y788715D02*
X925471Y787945D01*
X925485Y787915D01*
X925500Y787905D01*
X924343D01*
X924358Y787915D01*
X924371Y787945D01*
X924383Y787995D01*
X924393Y788065D01*
X924409Y788265D01*
X924421Y788905D01*
X925421D01*
X925422Y788715D01*
D02*
G37*
G36*
X917548D02*
X917597Y787945D01*
X917611Y787915D01*
X917626Y787905D01*
X916469D01*
X916484Y787915D01*
X916497Y787945D01*
X916509Y787995D01*
X916519Y788065D01*
X916535Y788265D01*
X916547Y788905D01*
X917547D01*
X917548Y788715D01*
D02*
G37*
G36*
X926323Y786257D02*
X926500Y786252D01*
Y785252D01*
X926323Y785247D01*
Y784752D01*
X926313Y784847D01*
X926283Y784932D01*
X926232Y785007D01*
X926161Y785072D01*
X926070Y785127D01*
X925959Y785172D01*
X925909Y785185D01*
X925860Y785172D01*
X925750Y785127D01*
X925660Y785072D01*
X925590Y785007D01*
X925540Y784932D01*
X925510Y784847D01*
X925500Y784752D01*
Y785247D01*
X925311Y785252D01*
Y786252D01*
X925500Y786257D01*
Y786752D01*
X925510Y786657D01*
X925540Y786572D01*
X925590Y786497D01*
X925660Y786432D01*
X925750Y786377D01*
X925860Y786332D01*
X925909Y786319D01*
X925959Y786332D01*
X926070Y786377D01*
X926161Y786432D01*
X926232Y786497D01*
X926283Y786572D01*
X926313Y786657D01*
X926323Y786752D01*
Y786257D01*
D02*
G37*
G36*
X1045366Y785586D02*
X1045301Y785549D01*
X1045242Y785492D01*
X1045191Y785416D01*
X1045146Y785320D01*
X1045108Y785205D01*
X1045077Y785070D01*
X1045053Y784915D01*
X1045036Y784741D01*
X1045030Y784555D01*
X1045422D01*
X1045346Y784547D01*
X1045278Y784523D01*
X1045218Y784482D01*
X1045166Y784426D01*
X1045122Y784352D01*
X1045086Y784263D01*
X1045058Y784158D01*
X1045038Y784036D01*
X1045026Y783898D01*
X1045022Y783743D01*
X1044222D01*
X1044218Y783898D01*
X1044206Y784036D01*
X1044186Y784158D01*
X1044158Y784263D01*
X1044122Y784352D01*
X1044078Y784426D01*
X1044026Y784482D01*
X1043966Y784523D01*
X1043898Y784547D01*
X1043822Y784555D01*
X1044559D01*
X1044222Y784716D01*
X1044221Y784936D01*
X1044164Y785930D01*
X1044149Y785993D01*
X1044132Y786037D01*
X1045366Y785586D01*
D02*
G37*
G36*
X1050893Y784545D02*
X1050808Y784515D01*
X1050733Y784464D01*
X1050668Y784394D01*
X1050613Y784303D01*
X1050568Y784191D01*
X1050533Y784060D01*
X1050508Y783908D01*
X1050493Y783736D01*
X1050488Y783543D01*
X1049488D01*
X1049483Y783736D01*
X1049468Y783908D01*
X1049443Y784060D01*
X1049408Y784191D01*
X1049363Y784303D01*
X1049308Y784394D01*
X1049243Y784464D01*
X1049168Y784515D01*
X1049083Y784545D01*
X1048988Y784555D01*
X1050988D01*
X1050893Y784545D01*
D02*
G37*
G36*
X923478Y783593D02*
X923431Y783575D01*
X923389Y783545D01*
X923353Y783503D01*
X923322Y783449D01*
X923297Y783383D01*
X923278Y783305D01*
X923264Y783215D01*
X923256Y783113D01*
X923253Y782999D01*
X922653D01*
X922650Y783113D01*
X922642Y783215D01*
X922628Y783305D01*
X922608Y783383D01*
X922583Y783449D01*
X922552Y783503D01*
X922516Y783545D01*
X922474Y783575D01*
X922427Y783593D01*
X922374Y783599D01*
X923531D01*
X923478Y783593D01*
D02*
G37*
G36*
X921510D02*
X921463Y783575D01*
X921421Y783545D01*
X921385Y783503D01*
X921354Y783449D01*
X921329Y783383D01*
X921309Y783305D01*
X921295Y783215D01*
X921287Y783113D01*
X921284Y782999D01*
X920684D01*
X920681Y783113D01*
X920673Y783215D01*
X920659Y783305D01*
X920640Y783383D01*
X920615Y783449D01*
X920584Y783503D01*
X920548Y783545D01*
X920506Y783575D01*
X920459Y783593D01*
X920406Y783599D01*
X921563D01*
X921510Y783593D01*
D02*
G37*
G36*
X919541D02*
X919494Y783575D01*
X919452Y783545D01*
X919416Y783503D01*
X919385Y783449D01*
X919360Y783383D01*
X919341Y783305D01*
X919327Y783215D01*
X919318Y783113D01*
X919316Y782999D01*
X918716D01*
X918713Y783113D01*
X918705Y783215D01*
X918691Y783305D01*
X918671Y783383D01*
X918646Y783449D01*
X918616Y783503D01*
X918579Y783545D01*
X918538Y783575D01*
X918490Y783593D01*
X918437Y783599D01*
X919594D01*
X919541Y783593D01*
D02*
G37*
G36*
X915614Y783592D02*
X915575Y783571D01*
X915541Y783536D01*
X915511Y783487D01*
X915486Y783424D01*
X915465Y783347D01*
X915449Y783256D01*
X915438Y783151D01*
X915429Y782899D01*
X914729D01*
X914726Y783032D01*
X914708Y783256D01*
X914692Y783347D01*
X914672Y783424D01*
X914646Y783487D01*
X914617Y783536D01*
X914583Y783571D01*
X914544Y783592D01*
X914500Y783599D01*
X915657D01*
X915614Y783592D01*
D02*
G37*
G36*
X1050493Y782901D02*
X1050508Y782729D01*
X1050533Y782577D01*
X1050568Y782445D01*
X1050613Y782334D01*
X1050668Y782243D01*
X1050733Y782172D01*
X1050808Y782122D01*
X1050893Y782091D01*
X1050988Y782081D01*
X1048988D01*
X1049083Y782091D01*
X1049168Y782122D01*
X1049243Y782172D01*
X1049308Y782243D01*
X1049363Y782334D01*
X1049408Y782445D01*
X1049443Y782577D01*
X1049468Y782729D01*
X1049483Y782901D01*
X1049488Y783093D01*
X1050488D01*
X1050493Y782901D01*
D02*
G37*
G36*
X1045026Y782739D02*
X1045038Y782601D01*
X1045058Y782479D01*
X1045086Y782373D01*
X1045122Y782284D01*
X1045166Y782211D01*
X1045218Y782154D01*
X1045278Y782114D01*
X1045346Y782089D01*
X1045422Y782081D01*
X1043822D01*
X1043898Y782089D01*
X1043966Y782114D01*
X1044026Y782154D01*
X1044078Y782211D01*
X1044122Y782284D01*
X1044158Y782373D01*
X1044186Y782479D01*
X1044206Y782601D01*
X1044218Y782739D01*
X1044222Y782893D01*
X1045022D01*
X1045026Y782739D01*
D02*
G37*
G36*
X996037Y782706D02*
X996010Y782640D01*
X995986Y782555D01*
X995966Y782450D01*
X995949Y782326D01*
X995924Y782022D01*
X995909Y781422D01*
X994909Y781304D01*
X994907Y781522D01*
X994856Y782202D01*
X994833Y782323D01*
X994805Y782425D01*
X994773Y782508D01*
X994736Y782571D01*
X994696Y782615D01*
X996067Y782754D01*
X996037Y782706D01*
D02*
G37*
G36*
X1045346Y778578D02*
X1045278Y778553D01*
X1045218Y778513D01*
X1045166Y778456D01*
X1045122Y778383D01*
X1045086Y778293D01*
X1045058Y778188D01*
X1045038Y778066D01*
X1045026Y777928D01*
X1045022Y777774D01*
X1044222D01*
X1044218Y777928D01*
X1044206Y778066D01*
X1044186Y778188D01*
X1044158Y778293D01*
X1044122Y778383D01*
X1044078Y778456D01*
X1044026Y778513D01*
X1043966Y778553D01*
X1043898Y778578D01*
X1043822Y778586D01*
X1045422D01*
X1045346Y778578D01*
D02*
G37*
G36*
X1047091Y775963D02*
X1047141Y775193D01*
X1047154Y775163D01*
X1047169Y775153D01*
X1046012D01*
X1046027Y775163D01*
X1046040Y775193D01*
X1046052Y775243D01*
X1046062Y775313D01*
X1046078Y775513D01*
X1046091Y776153D01*
X1047091D01*
X1047091Y775963D01*
D02*
G37*
G36*
X1045024Y775801D02*
X1045051Y775441D01*
X1045067Y775353D01*
X1045086Y775281D01*
X1045109Y775225D01*
X1045136Y775185D01*
X1045167Y775161D01*
X1045201Y775153D01*
X1044044D01*
X1044077Y775161D01*
X1044108Y775185D01*
X1044135Y775225D01*
X1044158Y775281D01*
X1044177Y775353D01*
X1044193Y775441D01*
X1044206Y775545D01*
X1044220Y775801D01*
X1044222Y775953D01*
X1045022D01*
X1045024Y775801D01*
D02*
G37*
G36*
X995910Y775963D02*
X995960Y775193D01*
X995973Y775163D01*
X995988Y775153D01*
X994831D01*
X994846Y775163D01*
X994859Y775193D01*
X994871Y775243D01*
X994881Y775313D01*
X994897Y775513D01*
X994909Y776153D01*
X995909D01*
X995910Y775963D01*
D02*
G37*
G36*
X1043232Y770847D02*
X1043244Y770247D01*
X1042644D01*
X1042641Y770362D01*
X1042632Y770466D01*
X1042617Y770557D01*
X1042596Y770636D01*
X1042569Y770704D01*
X1042536Y770759D01*
X1042497Y770802D01*
X1042452Y770833D01*
X1042401Y770852D01*
X1042344Y770859D01*
X1043232Y770847D01*
D02*
G37*
G36*
X1041211Y770841D02*
X1041163Y770823D01*
X1041121Y770793D01*
X1041085Y770751D01*
X1041055Y770697D01*
X1041029Y770631D01*
X1041010Y770553D01*
X1040996Y770463D01*
X1040988Y770361D01*
X1040985Y770247D01*
X1040385D01*
X1040382Y770361D01*
X1040374Y770463D01*
X1040360Y770553D01*
X1040340Y770631D01*
X1040315Y770697D01*
X1040285Y770751D01*
X1040248Y770793D01*
X1040207Y770823D01*
X1040159Y770841D01*
X1040106Y770847D01*
X1041264D01*
X1041211Y770841D01*
D02*
G37*
G36*
X1039242D02*
X1039195Y770823D01*
X1039153Y770793D01*
X1039117Y770751D01*
X1039086Y770697D01*
X1039061Y770631D01*
X1039042Y770553D01*
X1039028Y770463D01*
X1039019Y770361D01*
X1039017Y770247D01*
X1038416D01*
X1038414Y770361D01*
X1038405Y770463D01*
X1038391Y770553D01*
X1038372Y770631D01*
X1038347Y770697D01*
X1038316Y770751D01*
X1038280Y770793D01*
X1038238Y770823D01*
X1038191Y770841D01*
X1038138Y770847D01*
X1039295D01*
X1039242Y770841D01*
D02*
G37*
G36*
X1037274D02*
X1037226Y770823D01*
X1037185Y770793D01*
X1037148Y770751D01*
X1037118Y770697D01*
X1037092Y770631D01*
X1037073Y770553D01*
X1037059Y770463D01*
X1037051Y770361D01*
X1037048Y770247D01*
X1036448D01*
X1036445Y770361D01*
X1036437Y770463D01*
X1036423Y770553D01*
X1036403Y770631D01*
X1036378Y770697D01*
X1036348Y770751D01*
X1036312Y770793D01*
X1036270Y770823D01*
X1036222Y770841D01*
X1036170Y770847D01*
X1037327D01*
X1037274Y770841D01*
D02*
G37*
G36*
X1035305D02*
X1035258Y770823D01*
X1035216Y770793D01*
X1035180Y770751D01*
X1035149Y770697D01*
X1035124Y770631D01*
X1035104Y770553D01*
X1035091Y770463D01*
X1035082Y770361D01*
X1035079Y770247D01*
X1034479D01*
X1034477Y770361D01*
X1034468Y770463D01*
X1034454Y770553D01*
X1034435Y770631D01*
X1034410Y770697D01*
X1034379Y770751D01*
X1034343Y770793D01*
X1034301Y770823D01*
X1034254Y770841D01*
X1034201Y770847D01*
X1035358D01*
X1035305Y770841D01*
D02*
G37*
G36*
X1033337D02*
X1033289Y770823D01*
X1033247Y770793D01*
X1033211Y770751D01*
X1033181Y770697D01*
X1033156Y770631D01*
X1033136Y770553D01*
X1033122Y770463D01*
X1033114Y770361D01*
X1033111Y770247D01*
X1032511D01*
X1032508Y770361D01*
X1032500Y770463D01*
X1032486Y770553D01*
X1032466Y770631D01*
X1032441Y770697D01*
X1032411Y770751D01*
X1032374Y770793D01*
X1032333Y770823D01*
X1032285Y770841D01*
X1032232Y770847D01*
X1033390D01*
X1033337Y770841D01*
D02*
G37*
G36*
X1031368D02*
X1031321Y770823D01*
X1031279Y770793D01*
X1031243Y770751D01*
X1031212Y770697D01*
X1031187Y770631D01*
X1031168Y770553D01*
X1031154Y770463D01*
X1031145Y770361D01*
X1031142Y770247D01*
X1030542D01*
X1030540Y770361D01*
X1030531Y770463D01*
X1030517Y770553D01*
X1030498Y770631D01*
X1030473Y770697D01*
X1030442Y770751D01*
X1030406Y770793D01*
X1030364Y770823D01*
X1030317Y770841D01*
X1030264Y770847D01*
X1031421D01*
X1031368Y770841D01*
D02*
G37*
G36*
X1029400D02*
X1029352Y770823D01*
X1029311Y770793D01*
X1029274Y770751D01*
X1029244Y770697D01*
X1029218Y770631D01*
X1029199Y770553D01*
X1029185Y770463D01*
X1029177Y770361D01*
X1029174Y770247D01*
X1028574D01*
X1028571Y770361D01*
X1028563Y770463D01*
X1028549Y770553D01*
X1028529Y770631D01*
X1028504Y770697D01*
X1028474Y770751D01*
X1028438Y770793D01*
X1028396Y770823D01*
X1028348Y770841D01*
X1028296Y770847D01*
X1029453D01*
X1029400Y770841D01*
D02*
G37*
G36*
X1027431D02*
X1027384Y770823D01*
X1027342Y770793D01*
X1027306Y770751D01*
X1027275Y770697D01*
X1027250Y770631D01*
X1027230Y770553D01*
X1027217Y770463D01*
X1027208Y770361D01*
X1027205Y770247D01*
X1026606D01*
X1026603Y770361D01*
X1026594Y770463D01*
X1026580Y770553D01*
X1026561Y770631D01*
X1026536Y770697D01*
X1026505Y770751D01*
X1026469Y770793D01*
X1026427Y770823D01*
X1026380Y770841D01*
X1026327Y770847D01*
X1027484D01*
X1027431Y770841D01*
D02*
G37*
G36*
X1025463D02*
X1025415Y770823D01*
X1025373Y770793D01*
X1025337Y770751D01*
X1025307Y770697D01*
X1025282Y770631D01*
X1025262Y770553D01*
X1025248Y770463D01*
X1025240Y770361D01*
X1025237Y770247D01*
X1024637D01*
X1024634Y770361D01*
X1024626Y770463D01*
X1024612Y770553D01*
X1024592Y770631D01*
X1024567Y770697D01*
X1024537Y770751D01*
X1024500Y770793D01*
X1024459Y770823D01*
X1024411Y770841D01*
X1024358Y770847D01*
X1025516D01*
X1025463Y770841D01*
D02*
G37*
G36*
X1023494D02*
X1023447Y770823D01*
X1023405Y770793D01*
X1023369Y770751D01*
X1023338Y770697D01*
X1023313Y770631D01*
X1023293Y770553D01*
X1023280Y770463D01*
X1023271Y770361D01*
X1023268Y770247D01*
X1022668D01*
X1022666Y770361D01*
X1022657Y770463D01*
X1022643Y770553D01*
X1022624Y770631D01*
X1022599Y770697D01*
X1022568Y770751D01*
X1022532Y770793D01*
X1022490Y770823D01*
X1022443Y770841D01*
X1022390Y770847D01*
X1023547D01*
X1023494Y770841D01*
D02*
G37*
G36*
X1021526D02*
X1021478Y770823D01*
X1021437Y770793D01*
X1021400Y770751D01*
X1021370Y770697D01*
X1021344Y770631D01*
X1021325Y770553D01*
X1021311Y770463D01*
X1021303Y770361D01*
X1021300Y770247D01*
X1020700D01*
X1020697Y770361D01*
X1020689Y770463D01*
X1020675Y770553D01*
X1020655Y770631D01*
X1020630Y770697D01*
X1020600Y770751D01*
X1020564Y770793D01*
X1020522Y770823D01*
X1020474Y770841D01*
X1020422Y770847D01*
X1021579D01*
X1021526Y770841D01*
D02*
G37*
G36*
X1019557D02*
X1019510Y770823D01*
X1019468Y770793D01*
X1019432Y770751D01*
X1019401Y770697D01*
X1019376Y770631D01*
X1019357Y770553D01*
X1019343Y770463D01*
X1019334Y770361D01*
X1019331Y770247D01*
X1018731D01*
X1018729Y770361D01*
X1018720Y770463D01*
X1018706Y770553D01*
X1018687Y770631D01*
X1018662Y770697D01*
X1018631Y770751D01*
X1018595Y770793D01*
X1018553Y770823D01*
X1018506Y770841D01*
X1018453Y770847D01*
X1019610D01*
X1019557Y770841D01*
D02*
G37*
G36*
X1017589D02*
X1017541Y770823D01*
X1017500Y770793D01*
X1017463Y770751D01*
X1017433Y770697D01*
X1017408Y770631D01*
X1017388Y770553D01*
X1017374Y770463D01*
X1017366Y770361D01*
X1017363Y770247D01*
X1016763D01*
X1016760Y770361D01*
X1016752Y770463D01*
X1016738Y770553D01*
X1016718Y770631D01*
X1016693Y770697D01*
X1016663Y770751D01*
X1016626Y770793D01*
X1016585Y770823D01*
X1016537Y770841D01*
X1016484Y770847D01*
X1017642D01*
X1017589Y770841D01*
D02*
G37*
G36*
X1015620D02*
X1015573Y770823D01*
X1015531Y770793D01*
X1015495Y770751D01*
X1015464Y770697D01*
X1015439Y770631D01*
X1015419Y770553D01*
X1015406Y770463D01*
X1015397Y770361D01*
X1015394Y770247D01*
X1014794D01*
X1014792Y770361D01*
X1014783Y770463D01*
X1014769Y770553D01*
X1014750Y770631D01*
X1014725Y770697D01*
X1014694Y770751D01*
X1014658Y770793D01*
X1014616Y770823D01*
X1014569Y770841D01*
X1014516Y770847D01*
X1015673D01*
X1015620Y770841D01*
D02*
G37*
G36*
X1013652D02*
X1013604Y770823D01*
X1013562Y770793D01*
X1013526Y770751D01*
X1013496Y770697D01*
X1013470Y770631D01*
X1013451Y770553D01*
X1013437Y770463D01*
X1013429Y770361D01*
X1013426Y770247D01*
X1012826D01*
X1012823Y770361D01*
X1012815Y770463D01*
X1012801Y770553D01*
X1012781Y770631D01*
X1012756Y770697D01*
X1012726Y770751D01*
X1012689Y770793D01*
X1012648Y770823D01*
X1012600Y770841D01*
X1012547Y770847D01*
X1013704D01*
X1013652Y770841D01*
D02*
G37*
G36*
X1011683D02*
X1011636Y770823D01*
X1011594Y770793D01*
X1011558Y770751D01*
X1011527Y770697D01*
X1011502Y770631D01*
X1011483Y770553D01*
X1011469Y770463D01*
X1011460Y770361D01*
X1011458Y770247D01*
X1010857D01*
X1010855Y770361D01*
X1010846Y770463D01*
X1010832Y770553D01*
X1010813Y770631D01*
X1010788Y770697D01*
X1010757Y770751D01*
X1010721Y770793D01*
X1010679Y770823D01*
X1010632Y770841D01*
X1010579Y770847D01*
X1011736D01*
X1011683Y770841D01*
D02*
G37*
G36*
X1009585Y770852D02*
X1009534Y770833D01*
X1009489Y770802D01*
X1009450Y770759D01*
X1009417Y770704D01*
X1009390Y770637D01*
X1009369Y770557D01*
X1009354Y770466D01*
X1009345Y770362D01*
X1009342Y770247D01*
X1008742D01*
X1008741Y770361D01*
X1008721Y770631D01*
X1008709Y770697D01*
X1008695Y770751D01*
X1008678Y770793D01*
X1008658Y770823D01*
X1008635Y770841D01*
X1008610Y770847D01*
X1009642Y770859D01*
X1009585Y770852D01*
D02*
G37*
G36*
X1007591Y770852D02*
X1007540Y770833D01*
X1007495Y770802D01*
X1007456Y770759D01*
X1007423Y770704D01*
X1007396Y770637D01*
X1007375Y770557D01*
X1007360Y770466D01*
X1007351Y770362D01*
X1007348Y770247D01*
X1006748D01*
X1006747Y770361D01*
X1006721Y770697D01*
X1006710Y770751D01*
X1006696Y770793D01*
X1006680Y770823D01*
X1006662Y770841D01*
X1006642Y770847D01*
X1007648Y770859D01*
X1007591Y770852D01*
D02*
G37*
G36*
X1005778Y770841D02*
X1005730Y770823D01*
X1005688Y770793D01*
X1005652Y770751D01*
X1005622Y770697D01*
X1005597Y770631D01*
X1005577Y770553D01*
X1005563Y770463D01*
X1005555Y770361D01*
X1005552Y770247D01*
X1004952D01*
X1004949Y770361D01*
X1004941Y770463D01*
X1004927Y770553D01*
X1004907Y770631D01*
X1004882Y770697D01*
X1004852Y770751D01*
X1004815Y770793D01*
X1004774Y770823D01*
X1004726Y770841D01*
X1004673Y770847D01*
X1005830D01*
X1005778Y770841D01*
D02*
G37*
G36*
X1003759Y770852D02*
X1003708Y770833D01*
X1003663Y770802D01*
X1003624Y770759D01*
X1003591Y770704D01*
X1003564Y770637D01*
X1003543Y770557D01*
X1003528Y770466D01*
X1003519Y770362D01*
X1003516Y770247D01*
X1002916D01*
X1002914Y770361D01*
X1002897Y770553D01*
X1002882Y770631D01*
X1002863Y770697D01*
X1002840Y770751D01*
X1002812Y770793D01*
X1002781Y770823D01*
X1002745Y770841D01*
X1002705Y770847D01*
X1003816Y770859D01*
X1003759Y770852D01*
D02*
G37*
G36*
X1001841Y770841D02*
X1001793Y770823D01*
X1001751Y770793D01*
X1001715Y770751D01*
X1001685Y770697D01*
X1001659Y770631D01*
X1001640Y770553D01*
X1001626Y770463D01*
X1001618Y770361D01*
X1001615Y770247D01*
X1001015D01*
X1001012Y770361D01*
X1001004Y770463D01*
X1000990Y770553D01*
X1000970Y770631D01*
X1000945Y770697D01*
X1000915Y770751D01*
X1000879Y770793D01*
X1000837Y770823D01*
X1000789Y770841D01*
X1000736Y770847D01*
X1001894D01*
X1001841Y770841D01*
D02*
G37*
G36*
X999872D02*
X999825Y770823D01*
X999783Y770793D01*
X999747Y770751D01*
X999716Y770697D01*
X999691Y770631D01*
X999671Y770553D01*
X999658Y770463D01*
X999649Y770361D01*
X999646Y770247D01*
X999047D01*
X999044Y770361D01*
X999035Y770463D01*
X999021Y770553D01*
X999002Y770631D01*
X998977Y770697D01*
X998946Y770751D01*
X998910Y770793D01*
X998868Y770823D01*
X998821Y770841D01*
X998768Y770847D01*
X999925D01*
X999872Y770841D01*
D02*
G37*
G36*
X997904D02*
X997856Y770823D01*
X997814Y770793D01*
X997778Y770751D01*
X997748Y770697D01*
X997723Y770631D01*
X997703Y770553D01*
X997689Y770463D01*
X997681Y770361D01*
X997678Y770247D01*
X997078D01*
X997075Y770361D01*
X997067Y770463D01*
X997053Y770553D01*
X997033Y770631D01*
X997008Y770697D01*
X996978Y770751D01*
X996941Y770793D01*
X996900Y770823D01*
X996852Y770841D01*
X996799Y770847D01*
X997956D01*
X997904Y770841D01*
D02*
G37*
G36*
X993967D02*
X993919Y770823D01*
X993877Y770793D01*
X993841Y770751D01*
X993811Y770697D01*
X993785Y770631D01*
X993766Y770553D01*
X993752Y770463D01*
X993744Y770361D01*
X993741Y770247D01*
X993141D01*
X993138Y770361D01*
X993130Y770463D01*
X993116Y770553D01*
X993096Y770631D01*
X993071Y770697D01*
X993041Y770751D01*
X993004Y770793D01*
X992963Y770823D01*
X992915Y770841D01*
X992862Y770847D01*
X994020D01*
X993967Y770841D01*
D02*
G37*
G36*
X991998D02*
X991951Y770823D01*
X991909Y770793D01*
X991873Y770751D01*
X991842Y770697D01*
X991817Y770631D01*
X991798Y770553D01*
X991784Y770463D01*
X991775Y770361D01*
X991772Y770247D01*
X991172D01*
X991170Y770361D01*
X991161Y770463D01*
X991147Y770553D01*
X991128Y770631D01*
X991103Y770697D01*
X991072Y770751D01*
X991036Y770793D01*
X990994Y770823D01*
X990947Y770841D01*
X990894Y770847D01*
X992051D01*
X991998Y770841D01*
D02*
G37*
G36*
X990030D02*
X989982Y770823D01*
X989940Y770793D01*
X989904Y770751D01*
X989874Y770697D01*
X989849Y770631D01*
X989829Y770553D01*
X989815Y770463D01*
X989807Y770361D01*
X989804Y770247D01*
X989204D01*
X989201Y770361D01*
X989193Y770463D01*
X989179Y770553D01*
X989159Y770631D01*
X989134Y770697D01*
X989104Y770751D01*
X989067Y770793D01*
X989026Y770823D01*
X988978Y770841D01*
X988925Y770847D01*
X990082D01*
X990030Y770841D01*
D02*
G37*
G36*
X988061D02*
X988014Y770823D01*
X987972Y770793D01*
X987936Y770751D01*
X987905Y770697D01*
X987880Y770631D01*
X987860Y770553D01*
X987847Y770463D01*
X987838Y770361D01*
X987835Y770247D01*
X987235D01*
X987233Y770361D01*
X987224Y770463D01*
X987210Y770553D01*
X987191Y770631D01*
X987166Y770697D01*
X987135Y770751D01*
X987099Y770793D01*
X987057Y770823D01*
X987010Y770841D01*
X986957Y770847D01*
X988114D01*
X988061Y770841D01*
D02*
G37*
G36*
X986093D02*
X986045Y770823D01*
X986003Y770793D01*
X985967Y770751D01*
X985937Y770697D01*
X985911Y770631D01*
X985892Y770553D01*
X985878Y770463D01*
X985870Y770361D01*
X985867Y770247D01*
X985267D01*
X985264Y770361D01*
X985256Y770463D01*
X985242Y770553D01*
X985222Y770631D01*
X985197Y770697D01*
X985167Y770751D01*
X985130Y770793D01*
X985089Y770823D01*
X985041Y770841D01*
X984988Y770847D01*
X986145D01*
X986093Y770841D01*
D02*
G37*
G36*
X982193Y770837D02*
X982180Y770807D01*
X982168Y770757D01*
X982158Y770687D01*
X982143Y770487D01*
X982130Y769847D01*
X981130D01*
X981129Y770037D01*
X981080Y770807D01*
X981066Y770837D01*
X981051Y770847D01*
X982209D01*
X982193Y770837D01*
D02*
G37*
G36*
X982132Y768790D02*
X982177Y768106D01*
X982198Y767983D01*
X982222Y767879D01*
X982251Y767795D01*
X982283Y767729D01*
X982319Y767682D01*
X980941D01*
X980977Y767729D01*
X981009Y767795D01*
X981037Y767879D01*
X981062Y767983D01*
X981083Y768106D01*
X981113Y768410D01*
X981128Y768790D01*
X981130Y769008D01*
X982130D01*
X982132Y768790D01*
D02*
G37*
G36*
X762462Y766434D02*
X762526Y765911D01*
X762635Y765396D01*
X762791Y764890D01*
X762992Y764391D01*
X763239Y763901D01*
X763532Y763418D01*
X763871Y762944D01*
X764256Y762478D01*
X764687Y762020D01*
X763980Y761313D01*
X763522Y761744D01*
X763056Y762129D01*
X762582Y762468D01*
X762099Y762761D01*
X761609Y763008D01*
X761110Y763209D01*
X760604Y763365D01*
X760089Y763474D01*
X759566Y763538D01*
X759034Y763555D01*
X762445Y766965D01*
X762462Y766434D01*
D02*
G37*
G36*
X767466Y746469D02*
X767481Y746297D01*
X767506Y746145D01*
X767541Y746013D01*
X767586Y745902D01*
X767641Y745811D01*
X767706Y745740D01*
X767781Y745690D01*
X767866Y745659D01*
X767961Y745649D01*
X765961D01*
X766056Y745659D01*
X766141Y745690D01*
X766216Y745740D01*
X766281Y745811D01*
X766336Y745902D01*
X766381Y746013D01*
X766416Y746145D01*
X766441Y746297D01*
X766456Y746469D01*
X766461Y746661D01*
X767461D01*
X767466Y746469D01*
D02*
G37*
G36*
X1091496Y749310D02*
X1091556Y749140D01*
X1091657Y748990D01*
X1091798Y748860D01*
X1091979Y748750D01*
X1092200Y748660D01*
X1092462Y748590D01*
X1092717Y748548D01*
X1092957Y748586D01*
X1093217Y748653D01*
X1093437Y748739D01*
X1093617Y748844D01*
X1093757Y748969D01*
X1093857Y749112D01*
X1093917Y749275D01*
X1093937Y749457D01*
Y745543D01*
X1093917Y745725D01*
X1093857Y745888D01*
X1093757Y746031D01*
X1093617Y746156D01*
X1093437Y746261D01*
X1093217Y746347D01*
X1092957Y746414D01*
X1092717Y746452D01*
X1092462Y746410D01*
X1092200Y746340D01*
X1091979Y746250D01*
X1091798Y746140D01*
X1091657Y746010D01*
X1091556Y745860D01*
X1091496Y745690D01*
X1091476Y745500D01*
Y749500D01*
X1091496Y749310D01*
D02*
G37*
G36*
X777120Y745452D02*
X776023D01*
X776022Y745452D01*
X776021Y745452D01*
X776020Y745453D01*
X776020Y745453D01*
X776019Y745453D01*
X776018Y745454D01*
X776017Y745454D01*
X776016Y745455D01*
X776016Y745455D01*
X776015Y745456D01*
X776581Y746021D01*
X777120Y745452D01*
D02*
G37*
G36*
X782476Y746325D02*
X782507Y746292D01*
X782546Y746264D01*
X782596Y746239D01*
X782655Y746218D01*
X782724Y746201D01*
X782802Y746187D01*
X782890Y746178D01*
X783094Y746170D01*
Y745570D01*
X782987Y745568D01*
X782802Y745553D01*
X782724Y745540D01*
X782655Y745522D01*
X782596Y745501D01*
X782546Y745476D01*
X782507Y745448D01*
X782476Y745415D01*
X782456Y745379D01*
Y746361D01*
X782476Y746325D01*
D02*
G37*
G36*
X774725Y746319D02*
X774763Y746281D01*
X774814Y746248D01*
X774878Y746219D01*
X774956Y746194D01*
X775046Y746174D01*
X775149Y746159D01*
X775266Y746147D01*
X775538Y746139D01*
Y745339D01*
X774700Y745379D01*
Y746361D01*
X774725Y746319D01*
D02*
G37*
G36*
X1100397Y745547D02*
X1100329Y745523D01*
X1100269Y745482D01*
X1100217Y745426D01*
X1100173Y745353D01*
X1100137Y745263D01*
X1100109Y745158D01*
X1100089Y745036D01*
X1100077Y744898D01*
X1100073Y744743D01*
X1099273D01*
X1099269Y744898D01*
X1099257Y745036D01*
X1099237Y745158D01*
X1099209Y745263D01*
X1099173Y745353D01*
X1099129Y745426D01*
X1099077Y745482D01*
X1099017Y745523D01*
X1098949Y745547D01*
X1098873Y745555D01*
X1100473D01*
X1100397Y745547D01*
D02*
G37*
G36*
X1096751Y745545D02*
X1096667Y745515D01*
X1096591Y745464D01*
X1096527Y745394D01*
X1096472Y745302D01*
X1096426Y745191D01*
X1096391Y745060D01*
X1096367Y744908D01*
X1096352Y744736D01*
X1096346Y744544D01*
X1095347D01*
X1095341Y744736D01*
X1095327Y744908D01*
X1095302Y745060D01*
X1095267Y745191D01*
X1095222Y745302D01*
X1095166Y745394D01*
X1095102Y745464D01*
X1095026Y745515D01*
X1094942Y745545D01*
X1094847Y745555D01*
X1096846D01*
X1096751Y745545D01*
D02*
G37*
G36*
X777524Y744710D02*
X777570Y744079D01*
X777591Y743967D01*
X777615Y743874D01*
X777644Y743799D01*
X777677Y743742D01*
X777713Y743705D01*
X776531D01*
X776568Y743742D01*
X776600Y743799D01*
X776629Y743874D01*
X776653Y743967D01*
X776674Y744079D01*
X776691Y744209D01*
X776714Y744525D01*
X776722Y744914D01*
X777522D01*
X777524Y744710D01*
D02*
G37*
G36*
X786358Y745009D02*
X786636Y744776D01*
X786769Y744681D01*
X786899Y744601D01*
X787025Y744536D01*
X787147Y744485D01*
X787265Y744449D01*
X787379Y744428D01*
X787490Y744422D01*
X786516Y743448D01*
X786510Y743559D01*
X786488Y743673D01*
X786453Y743791D01*
X786402Y743913D01*
X786337Y744039D01*
X786257Y744169D01*
X786162Y744302D01*
X786053Y744439D01*
X785790Y744724D01*
X786214Y745148D01*
X786358Y745009D01*
D02*
G37*
G36*
X778878Y744626D02*
X778902Y744558D01*
X778943Y744498D01*
X779000Y744446D01*
X779073Y744402D01*
X779162Y744366D01*
X779268Y744338D01*
X779315Y744330D01*
X779392Y744334D01*
X779453Y744346D01*
X779498Y744360D01*
X779529Y744375D01*
X779544Y744393D01*
Y744305D01*
X779682Y744302D01*
Y743502D01*
X779544Y743498D01*
Y743410D01*
X779529Y743428D01*
X779498Y743443D01*
X779453Y743457D01*
X779392Y743469D01*
X779334Y743476D01*
X779268Y743466D01*
X779162Y743438D01*
X779073Y743402D01*
X779000Y743358D01*
X778943Y743306D01*
X778902Y743246D01*
X778878Y743178D01*
X778870Y743102D01*
Y743498D01*
X778707Y743502D01*
Y744302D01*
X778859Y744303D01*
X778870Y744303D01*
Y744702D01*
X778878Y744626D01*
D02*
G37*
G36*
X1070201Y744548D02*
X1070101Y744512D01*
X1070013Y744453D01*
X1069937Y744371D01*
X1069872Y744266D01*
X1069819Y744136D01*
X1069778Y743984D01*
X1069749Y743807D01*
X1069731Y743608D01*
X1069725Y743384D01*
X1068550D01*
X1068544Y743608D01*
X1068527Y743807D01*
X1068497Y743984D01*
X1068456Y744136D01*
X1068403Y744266D01*
X1068339Y744371D01*
X1068262Y744453D01*
X1068174Y744512D01*
X1068074Y744548D01*
X1067963Y744559D01*
X1070313D01*
X1070201Y744548D01*
D02*
G37*
G36*
X1057555Y744245D02*
X1057752Y744246D01*
X1058715Y744310D01*
X1058766Y744327D01*
X1058797Y744347D01*
Y742969D01*
X1058766Y742988D01*
X1058715Y743005D01*
X1058641Y743020D01*
X1058547Y743033D01*
X1058293Y743054D01*
X1057555Y743069D01*
Y742483D01*
X1057544Y742594D01*
X1057508Y742694D01*
X1057449Y742782D01*
X1057366Y742859D01*
X1057259Y742923D01*
X1057128Y742976D01*
X1056974Y743017D01*
X1056796Y743047D01*
X1056594Y743064D01*
X1056369Y743070D01*
Y744245D01*
X1056594Y744251D01*
X1056796Y744269D01*
X1056974Y744298D01*
X1057128Y744339D01*
X1057259Y744392D01*
X1057366Y744456D01*
X1057449Y744533D01*
X1057508Y744621D01*
X1057544Y744721D01*
X1057555Y744833D01*
Y744245D01*
D02*
G37*
G36*
X768522Y744775D02*
X768552Y744690D01*
X768603Y744615D01*
X768673Y744550D01*
X768764Y744495D01*
X768876Y744450D01*
X769007Y744415D01*
X769159Y744390D01*
X769331Y744375D01*
X769523Y744370D01*
Y743370D01*
X769331Y743365D01*
X769159Y743350D01*
X769007Y743325D01*
X768876Y743290D01*
X768764Y743245D01*
X768673Y743190D01*
X768603Y743125D01*
X768552Y743050D01*
X768522Y742965D01*
X768511Y742870D01*
Y744870D01*
X768522Y744775D01*
D02*
G37*
G36*
X773746Y743384D02*
X774244D01*
X774149Y743374D01*
X774064Y743344D01*
X773989Y743293D01*
X773924Y743222D01*
X773869Y743131D01*
X773824Y743020D01*
X773797Y742917D01*
X773824Y742815D01*
X773869Y742703D01*
X773924Y742612D01*
X773989Y742542D01*
X774064Y742491D01*
X774149Y742461D01*
X774244Y742451D01*
X773746D01*
X773744Y742372D01*
X772744D01*
X772742Y742451D01*
X772244D01*
X772339Y742461D01*
X772424Y742491D01*
X772499Y742542D01*
X772564Y742612D01*
X772619Y742703D01*
X772664Y742815D01*
X772691Y742917D01*
X772664Y743020D01*
X772619Y743131D01*
X772564Y743222D01*
X772499Y743293D01*
X772424Y743344D01*
X772339Y743374D01*
X772244Y743384D01*
X772742D01*
X772744Y743463D01*
X773744D01*
X773746Y743384D01*
D02*
G37*
G36*
X782476Y742388D02*
X782507Y742355D01*
X782546Y742327D01*
X782596Y742302D01*
X782655Y742281D01*
X782724Y742264D01*
X782802Y742250D01*
X782890Y742241D01*
X783094Y742233D01*
Y741633D01*
X782987Y741631D01*
X782802Y741616D01*
X782724Y741603D01*
X782655Y741585D01*
X782596Y741564D01*
X782546Y741539D01*
X782507Y741511D01*
X782476Y741478D01*
X782456Y741442D01*
Y742424D01*
X782476Y742388D01*
D02*
G37*
G36*
X777756Y742150D02*
X777707Y742069D01*
X777664Y741971D01*
X777626Y741858D01*
X777594Y741728D01*
X777568Y741583D01*
X777534Y741242D01*
X777525Y741048D01*
X777522Y740837D01*
X776722D01*
X776719Y741048D01*
X776676Y741583D01*
X776650Y741728D01*
X776618Y741858D01*
X776580Y741971D01*
X776537Y742069D01*
X776488Y742150D01*
X776433Y742214D01*
X777811D01*
X777756Y742150D01*
D02*
G37*
G36*
X1069731Y741111D02*
X1069749Y740909D01*
X1069778Y740731D01*
X1069819Y740577D01*
X1069872Y740446D01*
X1069937Y740339D01*
X1070013Y740256D01*
X1070101Y740197D01*
X1070201Y740161D01*
X1070313Y740149D01*
X1067963D01*
X1068074Y740161D01*
X1068174Y740197D01*
X1068262Y740256D01*
X1068339Y740339D01*
X1068403Y740446D01*
X1068456Y740577D01*
X1068497Y740731D01*
X1068527Y740909D01*
X1068544Y741111D01*
X1068550Y741336D01*
X1069725D01*
X1069731Y741111D01*
D02*
G37*
G36*
X776379Y740370D02*
X777476D01*
X777474Y740365D01*
X777460Y740348D01*
X777398Y740281D01*
X776936Y739813D01*
X776379Y740370D01*
X776376Y740370D01*
X776373Y740371D01*
X776371Y740371D01*
X776369Y740372D01*
X776368Y740372D01*
X776368Y740373D01*
X776368Y740375D01*
X776368Y740376D01*
X776369Y740377D01*
X776371Y740379D01*
X776379Y740370D01*
D02*
G37*
G36*
X775538Y739696D02*
X775395Y739694D01*
X775149Y739676D01*
X775046Y739660D01*
X774956Y739640D01*
X774878Y739616D01*
X774814Y739587D01*
X774763Y739554D01*
X774725Y739516D01*
X774700Y739473D01*
Y740456D01*
X774705Y740463D01*
X774728Y740470D01*
X774768Y740476D01*
X774826Y740482D01*
X775231Y740494D01*
X775538Y740496D01*
Y739696D01*
D02*
G37*
G36*
X781543Y739441D02*
X781492Y739423D01*
X781447Y739392D01*
X781408Y739349D01*
X781375Y739294D01*
X781348Y739227D01*
X781327Y739147D01*
X781312Y739055D01*
X781303Y738951D01*
X781300Y738835D01*
X780700D01*
X780697Y738951D01*
X780688Y739055D01*
X780673Y739147D01*
X780652Y739227D01*
X780625Y739294D01*
X780592Y739349D01*
X780553Y739392D01*
X780508Y739423D01*
X780457Y739441D01*
X780400Y739447D01*
X781600D01*
X781543Y739441D01*
D02*
G37*
G36*
X1067685Y737168D02*
X1067673Y737279D01*
X1067638Y737379D01*
X1067579Y737467D01*
X1067496Y737543D01*
X1067389Y737608D01*
X1067258Y737661D01*
X1067104Y737702D01*
X1066926Y737732D01*
X1066724Y737749D01*
X1066498Y737755D01*
Y738930D01*
X1066724Y738936D01*
X1066926Y738953D01*
X1067104Y738983D01*
X1067258Y739024D01*
X1067389Y739077D01*
X1067496Y739142D01*
X1067579Y739218D01*
X1067638Y739306D01*
X1067673Y739406D01*
X1067685Y739517D01*
Y737168D01*
D02*
G37*
G36*
X1061456Y739406D02*
X1061492Y739306D01*
X1061551Y739218D01*
X1061634Y739142D01*
X1061741Y739077D01*
X1061872Y739024D01*
X1062026Y738983D01*
X1062204Y738953D01*
X1062406Y738936D01*
X1062632Y738930D01*
Y737755D01*
X1062406Y737749D01*
X1062204Y737732D01*
X1062026Y737702D01*
X1061872Y737661D01*
X1061741Y737608D01*
X1061634Y737543D01*
X1061551Y737467D01*
X1061492Y737379D01*
X1061456Y737279D01*
X1061444Y737168D01*
Y739517D01*
X1061456Y739406D01*
D02*
G37*
G36*
X1057555Y737168D02*
X1057544Y737279D01*
X1057508Y737379D01*
X1057449Y737467D01*
X1057366Y737543D01*
X1057259Y737608D01*
X1057128Y737661D01*
X1056974Y737702D01*
X1056796Y737732D01*
X1056594Y737749D01*
X1056369Y737755D01*
Y738930D01*
X1056594Y738936D01*
X1056796Y738953D01*
X1056974Y738983D01*
X1057128Y739024D01*
X1057259Y739077D01*
X1057366Y739142D01*
X1057449Y739218D01*
X1057508Y739306D01*
X1057544Y739406D01*
X1057555Y739517D01*
Y737168D01*
D02*
G37*
G36*
X1074767Y736841D02*
X1074682Y736810D01*
X1074607Y736760D01*
X1074542Y736689D01*
X1074487Y736598D01*
X1074442Y736486D01*
X1074407Y736355D01*
X1074382Y736203D01*
X1074367Y736031D01*
X1074362Y735839D01*
X1073362D01*
X1073357Y736031D01*
X1073342Y736203D01*
X1073317Y736355D01*
X1073282Y736486D01*
X1073237Y736598D01*
X1073182Y736689D01*
X1073117Y736760D01*
X1073042Y736810D01*
X1072957Y736841D01*
X1072862Y736851D01*
X1074862D01*
X1074767Y736841D01*
D02*
G37*
G36*
X1043248Y734583D02*
X1043281Y734230D01*
X1043310Y734086D01*
X1043347Y733962D01*
X1043392Y733860D01*
X1043445Y733778D01*
X1043507Y733718D01*
X1043577Y733679D01*
X1043655Y733662D01*
X1042645Y733018D01*
X1042644Y734622D01*
X1043244Y734791D01*
X1043248Y734583D01*
D02*
G37*
G36*
X1093461Y732732D02*
X1093412Y732651D01*
X1093368Y732554D01*
X1093331Y732441D01*
X1093299Y732311D01*
X1093273Y732165D01*
X1093238Y731825D01*
X1093230Y731634D01*
X1093231Y731596D01*
X1093243Y731458D01*
X1093263Y731337D01*
X1093291Y731231D01*
X1093327Y731142D01*
X1093371Y731069D01*
X1093423Y731012D01*
X1093483Y730971D01*
X1093551Y730947D01*
X1093627Y730939D01*
X1092027D01*
X1092103Y730947D01*
X1092171Y730971D01*
X1092231Y731012D01*
X1092283Y731069D01*
X1092327Y731142D01*
X1092363Y731231D01*
X1092391Y731337D01*
X1092411Y731458D01*
X1092423Y731596D01*
X1092424Y731633D01*
X1092381Y732165D01*
X1092354Y732311D01*
X1092323Y732441D01*
X1092285Y732554D01*
X1092242Y732651D01*
X1092193Y732732D01*
X1092138Y732797D01*
X1093516D01*
X1093461Y732732D01*
D02*
G37*
G36*
X1081807D02*
X1081758Y732651D01*
X1081715Y732554D01*
X1081677Y732441D01*
X1081645Y732311D01*
X1081619Y732165D01*
X1081585Y731825D01*
X1081576Y731634D01*
X1081577Y731596D01*
X1081589Y731458D01*
X1081609Y731337D01*
X1081637Y731231D01*
X1081673Y731142D01*
X1081717Y731069D01*
X1081769Y731012D01*
X1081829Y730971D01*
X1081897Y730947D01*
X1081973Y730939D01*
X1080373D01*
X1080449Y730947D01*
X1080517Y730971D01*
X1080577Y731012D01*
X1080629Y731069D01*
X1080673Y731142D01*
X1080709Y731231D01*
X1080737Y731337D01*
X1080757Y731458D01*
X1080769Y731596D01*
X1080770Y731633D01*
X1080727Y732165D01*
X1080701Y732311D01*
X1080669Y732441D01*
X1080632Y732554D01*
X1080588Y732651D01*
X1080539Y732732D01*
X1080484Y732797D01*
X1081862D01*
X1081807Y732732D01*
D02*
G37*
G36*
X1039021Y731699D02*
X1039056Y731340D01*
X1039087Y731186D01*
X1039126Y731048D01*
X1039175Y730926D01*
X1039232Y730821D01*
X1039298Y730733D01*
X1039373Y730661D01*
X1039457Y730606D01*
X1038149Y730245D01*
X1038200Y730340D01*
X1038245Y730447D01*
X1038285Y730565D01*
X1038320Y730694D01*
X1038350Y730836D01*
X1038392Y731153D01*
X1038406Y731330D01*
X1038416Y731717D01*
X1039017Y731903D01*
X1039021Y731699D01*
D02*
G37*
G36*
X1091135Y729930D02*
X1091120Y729947D01*
X1091089Y729963D01*
X1091043Y729977D01*
X1090982Y729988D01*
X1090906Y729998D01*
X1090834Y730004D01*
X1090722Y729985D01*
X1090617Y729957D01*
X1090528Y729921D01*
X1090454Y729877D01*
X1090397Y729825D01*
X1090356Y729765D01*
X1090331Y729697D01*
X1090322Y729621D01*
X1090326Y730021D01*
X1090297Y730021D01*
Y730821D01*
X1090449Y730822D01*
X1090982Y730854D01*
X1091043Y730866D01*
X1091089Y730880D01*
X1091120Y730895D01*
X1091135Y730912D01*
Y729930D01*
D02*
G37*
G36*
X1082880Y730895D02*
X1082911Y730880D01*
X1082957Y730866D01*
X1083018Y730854D01*
X1083094Y730844D01*
X1083292Y730829D01*
X1083703Y730821D01*
Y730021D01*
X1083673Y730021D01*
X1083677Y729621D01*
X1083669Y729697D01*
X1083644Y729765D01*
X1083603Y729825D01*
X1083546Y729877D01*
X1083473Y729921D01*
X1083383Y729957D01*
X1083278Y729985D01*
X1083194Y729999D01*
X1083018Y729988D01*
X1082957Y729977D01*
X1082911Y729963D01*
X1082880Y729947D01*
X1082865Y729930D01*
Y730912D01*
X1082880Y730895D01*
D02*
G37*
G36*
X1081897Y729896D02*
X1081829Y729871D01*
X1081769Y729831D01*
X1081717Y729774D01*
X1081673Y729701D01*
X1081637Y729611D01*
X1081609Y729506D01*
X1081598Y729437D01*
X1081609Y729368D01*
X1081637Y729262D01*
X1081673Y729173D01*
X1081717Y729100D01*
X1081769Y729043D01*
X1081829Y729003D01*
X1081897Y728978D01*
X1081973Y728970D01*
X1080373D01*
X1080449Y728978D01*
X1080517Y729003D01*
X1080577Y729043D01*
X1080629Y729100D01*
X1080673Y729173D01*
X1080709Y729262D01*
X1080737Y729368D01*
X1080749Y729437D01*
X1080737Y729506D01*
X1080709Y729611D01*
X1080673Y729701D01*
X1080629Y729774D01*
X1080577Y729831D01*
X1080517Y729871D01*
X1080449Y729896D01*
X1080373Y729904D01*
X1081973D01*
X1081897Y729896D01*
D02*
G37*
G36*
Y727927D02*
X1081829Y727903D01*
X1081769Y727862D01*
X1081717Y727805D01*
X1081673Y727732D01*
X1081637Y727643D01*
X1081609Y727537D01*
X1081598Y727468D01*
X1081609Y727400D01*
X1081637Y727294D01*
X1081673Y727205D01*
X1081717Y727132D01*
X1081769Y727075D01*
X1081829Y727034D01*
X1081897Y727010D01*
X1081973Y727002D01*
X1080373D01*
X1080449Y727010D01*
X1080517Y727034D01*
X1080577Y727075D01*
X1080629Y727132D01*
X1080673Y727205D01*
X1080709Y727294D01*
X1080737Y727400D01*
X1080749Y727468D01*
X1080737Y727537D01*
X1080709Y727643D01*
X1080673Y727732D01*
X1080629Y727805D01*
X1080577Y727862D01*
X1080517Y727903D01*
X1080449Y727927D01*
X1080373Y727935D01*
X1081973D01*
X1081897Y727927D01*
D02*
G37*
G36*
X1100077Y727610D02*
X1100089Y727472D01*
X1100109Y727350D01*
X1100137Y727245D01*
X1100173Y727155D01*
X1100217Y727082D01*
X1100269Y727026D01*
X1100329Y726985D01*
X1100397Y726961D01*
X1100473Y726952D01*
X1098873D01*
X1098949Y726961D01*
X1099017Y726985D01*
X1099077Y727026D01*
X1099129Y727082D01*
X1099173Y727155D01*
X1099209Y727245D01*
X1099237Y727350D01*
X1099257Y727472D01*
X1099269Y727610D01*
X1099273Y727764D01*
X1100073D01*
X1100077Y727610D01*
D02*
G37*
G36*
X1093329Y727935D02*
X1093827D01*
X1093732Y727925D01*
X1093647Y727895D01*
X1093572Y727844D01*
X1093507Y727773D01*
X1093452Y727682D01*
X1093407Y727571D01*
X1093379Y727468D01*
X1093407Y727366D01*
X1093452Y727255D01*
X1093507Y727164D01*
X1093572Y727093D01*
X1093647Y727042D01*
X1093732Y727012D01*
X1093827Y727002D01*
X1093329D01*
X1093327Y726923D01*
X1092327D01*
X1092325Y727002D01*
X1091827D01*
X1091922Y727012D01*
X1092007Y727042D01*
X1092082Y727093D01*
X1092147Y727164D01*
X1092202Y727255D01*
X1092247Y727366D01*
X1092274Y727468D01*
X1092247Y727571D01*
X1092202Y727682D01*
X1092147Y727773D01*
X1092082Y727844D01*
X1092007Y727895D01*
X1091922Y727925D01*
X1091827Y727935D01*
X1092325D01*
X1092327Y728014D01*
X1093327D01*
X1093329Y727935D01*
D02*
G37*
G36*
X1077615Y727714D02*
X1077549Y727619D01*
X1077491Y727510D01*
X1077440Y727388D01*
X1077397Y727253D01*
X1077362Y727105D01*
X1077335Y726943D01*
X1077316Y726769D01*
X1077300Y726381D01*
X1076700D01*
X1076696Y726582D01*
X1076665Y726943D01*
X1076638Y727105D01*
X1076603Y727253D01*
X1076560Y727388D01*
X1076509Y727510D01*
X1076451Y727619D01*
X1076385Y727714D01*
X1076311Y727797D01*
X1077689D01*
X1077615Y727714D01*
D02*
G37*
G36*
X1074367Y725469D02*
X1074382Y725297D01*
X1074407Y725145D01*
X1074442Y725014D01*
X1074487Y724902D01*
X1074542Y724811D01*
X1074607Y724740D01*
X1074682Y724690D01*
X1074767Y724659D01*
X1074862Y724649D01*
X1072862D01*
X1072957Y724659D01*
X1073042Y724690D01*
X1073117Y724740D01*
X1073182Y724811D01*
X1073237Y724902D01*
X1073282Y725014D01*
X1073317Y725145D01*
X1073342Y725297D01*
X1073357Y725469D01*
X1073362Y725661D01*
X1074362D01*
X1074367Y725469D01*
D02*
G37*
G36*
X1094534Y724990D02*
X1094565Y724974D01*
X1094610Y724960D01*
X1094671Y724949D01*
X1094747Y724938D01*
X1094945Y724924D01*
X1095356Y724916D01*
Y724116D01*
X1095204Y724115D01*
X1094671Y724083D01*
X1094610Y724071D01*
X1094565Y724057D01*
X1094534Y724042D01*
X1094519Y724025D01*
Y725007D01*
X1094534Y724990D01*
D02*
G37*
G36*
X1079481Y724025D02*
X1079461Y724061D01*
X1079430Y724093D01*
X1079391Y724122D01*
X1079341Y724147D01*
X1079282Y724168D01*
X1079214Y724185D01*
X1079135Y724198D01*
X1079047Y724208D01*
X1078843Y724216D01*
Y724816D01*
X1078950Y724818D01*
X1079135Y724833D01*
X1079214Y724846D01*
X1079282Y724863D01*
X1079341Y724885D01*
X1079391Y724909D01*
X1079430Y724938D01*
X1079461Y724971D01*
X1079481Y725007D01*
Y724025D01*
D02*
G37*
G36*
X1097729Y723716D02*
X1097721Y723792D01*
X1097696Y723860D01*
X1097656Y723920D01*
X1097599Y723972D01*
X1097526Y724016D01*
X1097436Y724052D01*
X1097331Y724080D01*
X1097209Y724100D01*
X1097071Y724112D01*
X1096917Y724116D01*
Y724916D01*
X1097071Y724920D01*
X1097209Y724932D01*
X1097331Y724952D01*
X1097436Y724980D01*
X1097526Y725016D01*
X1097599Y725060D01*
X1097656Y725112D01*
X1097696Y725172D01*
X1097721Y725240D01*
X1097729Y725316D01*
Y723716D01*
D02*
G37*
G36*
X1045066Y724021D02*
X1045097Y723660D01*
X1045124Y723498D01*
X1045159Y723350D01*
X1045202Y723215D01*
X1045253Y723093D01*
X1045311Y722984D01*
X1045377Y722889D01*
X1045451Y722806D01*
X1044073D01*
X1044147Y722889D01*
X1044213Y722984D01*
X1044271Y723093D01*
X1044322Y723215D01*
X1044365Y723350D01*
X1044400Y723498D01*
X1044427Y723660D01*
X1044446Y723834D01*
X1044462Y724221D01*
X1045062D01*
X1045066Y724021D01*
D02*
G37*
G36*
X1075325Y723452D02*
X1075355Y723367D01*
X1075406Y723292D01*
X1075476Y723227D01*
X1075568Y723172D01*
X1075679Y723127D01*
X1075811Y723092D01*
X1075962Y723067D01*
X1076134Y723052D01*
X1076327Y723047D01*
Y722047D01*
X1076134Y722042D01*
X1075962Y722027D01*
X1075811Y722002D01*
X1075679Y721967D01*
X1075568Y721922D01*
X1075476Y721867D01*
X1075406Y721802D01*
X1075355Y721727D01*
X1075325Y721642D01*
X1075315Y721547D01*
Y723547D01*
X1075325Y723452D01*
D02*
G37*
G36*
X938866Y720323D02*
X938859Y720385D01*
X938838Y720441D01*
X938803Y720490D01*
X938754Y720532D01*
X938691Y720568D01*
X938614Y720598D01*
X938523Y720621D01*
X938418Y720637D01*
X938299Y720647D01*
X938166Y720650D01*
Y721350D01*
X938299Y721353D01*
X938418Y721363D01*
X938523Y721379D01*
X938614Y721402D01*
X938691Y721432D01*
X938754Y721468D01*
X938803Y721510D01*
X938838Y721559D01*
X938859Y721615D01*
X938866Y721677D01*
Y720323D01*
D02*
G37*
G36*
X1088574Y720189D02*
X1088506Y720165D01*
X1088446Y720125D01*
X1088394Y720069D01*
X1088350Y719997D01*
X1088314Y719909D01*
X1088286Y719805D01*
X1088266Y719685D01*
X1088254Y719549D01*
X1088250Y719397D01*
X1087450D01*
X1087446Y719549D01*
X1087434Y719685D01*
X1087414Y719805D01*
X1087386Y719909D01*
X1087350Y719997D01*
X1087306Y720069D01*
X1087254Y720125D01*
X1087194Y720165D01*
X1087126Y720189D01*
X1087050Y720197D01*
X1088650D01*
X1088574Y720189D01*
D02*
G37*
G36*
X1081586Y720053D02*
X1081518Y720029D01*
X1081458Y719988D01*
X1081406Y719931D01*
X1081362Y719858D01*
X1081326Y719769D01*
X1081298Y719663D01*
X1081278Y719542D01*
X1081266Y719404D01*
X1081262Y719249D01*
X1080462D01*
X1080458Y719404D01*
X1080446Y719542D01*
X1080426Y719663D01*
X1080398Y719769D01*
X1080362Y719858D01*
X1080318Y719931D01*
X1080266Y719988D01*
X1080206Y720029D01*
X1080138Y720053D01*
X1080062Y720061D01*
X1081662D01*
X1081586Y720053D01*
D02*
G37*
G36*
X1093732Y720051D02*
X1093647Y720021D01*
X1093572Y719970D01*
X1093507Y719899D01*
X1093452Y719808D01*
X1093407Y719697D01*
X1093372Y719565D01*
X1093347Y719414D01*
X1093332Y719242D01*
X1093327Y719049D01*
X1092327D01*
X1092322Y719242D01*
X1092307Y719414D01*
X1092282Y719565D01*
X1092247Y719697D01*
X1092202Y719808D01*
X1092147Y719899D01*
X1092082Y719970D01*
X1092007Y720021D01*
X1091922Y720051D01*
X1091827Y720061D01*
X1093827D01*
X1093732Y720051D01*
D02*
G37*
G36*
X1093332Y717552D02*
X1093347Y717380D01*
X1093372Y717228D01*
X1093407Y717096D01*
X1093452Y716985D01*
X1093507Y716894D01*
X1093572Y716823D01*
X1093647Y716772D01*
X1093732Y716742D01*
X1093827Y716732D01*
X1091827D01*
X1091922Y716742D01*
X1092007Y716772D01*
X1092082Y716823D01*
X1092147Y716894D01*
X1092202Y716985D01*
X1092247Y717096D01*
X1092282Y717228D01*
X1092307Y717380D01*
X1092322Y717552D01*
X1092327Y717744D01*
X1093327D01*
X1093332Y717552D01*
D02*
G37*
G36*
X1088254Y717390D02*
X1088266Y717252D01*
X1088286Y717130D01*
X1088314Y717024D01*
X1088350Y716935D01*
X1088394Y716862D01*
X1088446Y716805D01*
X1088506Y716764D01*
X1088574Y716740D01*
X1088650Y716732D01*
X1087050D01*
X1087126Y716740D01*
X1087194Y716764D01*
X1087254Y716805D01*
X1087306Y716862D01*
X1087350Y716935D01*
X1087386Y717024D01*
X1087414Y717130D01*
X1087434Y717252D01*
X1087446Y717390D01*
X1087450Y717544D01*
X1088250D01*
X1088254Y717390D01*
D02*
G37*
G36*
X1081266Y716331D02*
X1081278Y716192D01*
X1081298Y716071D01*
X1081326Y715965D01*
X1081362Y715876D01*
X1081406Y715803D01*
X1081458Y715746D01*
X1081518Y715705D01*
X1081586Y715681D01*
X1081662Y715673D01*
X1080062D01*
X1080138Y715681D01*
X1080206Y715705D01*
X1080266Y715746D01*
X1080318Y715803D01*
X1080362Y715876D01*
X1080398Y715965D01*
X1080426Y716071D01*
X1080446Y716192D01*
X1080458Y716331D01*
X1080462Y716485D01*
X1081262D01*
X1081266Y716331D01*
D02*
G37*
G36*
X1088253Y715870D02*
X1088297Y715335D01*
X1088323Y715189D01*
X1088354Y715059D01*
X1088392Y714946D01*
X1088435Y714849D01*
X1088484Y714768D01*
X1088539Y714703D01*
X1087161D01*
X1087216Y714768D01*
X1087265Y714849D01*
X1087309Y714946D01*
X1087346Y715059D01*
X1087378Y715189D01*
X1087404Y715335D01*
X1087439Y715675D01*
X1087447Y715870D01*
X1087450Y716080D01*
X1088250D01*
X1088253Y715870D01*
D02*
G37*
G36*
X954466Y715234D02*
X954875Y714886D01*
X954997Y714801D01*
X955111Y714732D01*
X955217Y714678D01*
X955317Y714639D01*
X955409Y714617D01*
X955494Y714609D01*
X954516Y713638D01*
X954509Y713723D01*
X954487Y713815D01*
X954449Y713914D01*
X954395Y714021D01*
X954326Y714135D01*
X954242Y714257D01*
X954142Y714386D01*
X953894Y714666D01*
X953747Y714817D01*
X954315Y715380D01*
X954466Y715234D01*
D02*
G37*
G36*
X1074673Y713224D02*
X1074665Y713300D01*
X1074641Y713368D01*
X1074601Y713428D01*
X1074545Y713480D01*
X1074473Y713524D01*
X1074385Y713560D01*
X1074281Y713588D01*
X1074161Y713608D01*
X1074025Y713620D01*
X1073873Y713624D01*
Y714424D01*
X1074025Y714428D01*
X1074161Y714440D01*
X1074281Y714460D01*
X1074385Y714488D01*
X1074473Y714524D01*
X1074545Y714568D01*
X1074601Y714620D01*
X1074641Y714680D01*
X1074665Y714748D01*
X1074673Y714824D01*
Y713224D01*
D02*
G37*
G36*
X1071693Y714748D02*
X1071717Y714680D01*
X1071758Y714620D01*
X1071815Y714568D01*
X1071888Y714524D01*
X1071977Y714488D01*
X1072083Y714460D01*
X1072204Y714440D01*
X1072342Y714428D01*
X1072497Y714424D01*
Y713624D01*
X1072342Y713620D01*
X1072204Y713608D01*
X1072083Y713588D01*
X1071977Y713560D01*
X1071888Y713524D01*
X1071815Y713480D01*
X1071758Y713428D01*
X1071717Y713368D01*
X1071693Y713300D01*
X1071685Y713224D01*
Y714824D01*
X1071693Y714748D01*
D02*
G37*
G36*
X938490Y709516D02*
X938379Y709510D01*
X938265Y709488D01*
X938147Y709453D01*
X938025Y709402D01*
X937899Y709337D01*
X937769Y709257D01*
X937636Y709162D01*
X937499Y709053D01*
X937214Y708790D01*
X936790Y709214D01*
X936929Y709359D01*
X937162Y709636D01*
X937257Y709769D01*
X937337Y709899D01*
X937402Y710025D01*
X937453Y710147D01*
X937488Y710265D01*
X937510Y710379D01*
X937516Y710490D01*
X938490Y709516D01*
D02*
G37*
G36*
X1046173Y702242D02*
X1046207Y701881D01*
X1046236Y701723D01*
X1046274Y701579D01*
X1046320Y701449D01*
X1046375Y701335D01*
X1046437Y701235D01*
X1046508Y701149D01*
X1046588Y701078D01*
X1045221Y700906D01*
X1045287Y701000D01*
X1045346Y701105D01*
X1045399Y701222D01*
X1045444Y701350D01*
X1045482Y701490D01*
X1045514Y701642D01*
X1045538Y701805D01*
X1045566Y702167D01*
X1045569Y702365D01*
X1046169Y702444D01*
X1046173Y702242D01*
D02*
G37*
G36*
X968797Y699811D02*
X968714Y699885D01*
X968618Y699951D01*
X968510Y700009D01*
X968388Y700060D01*
X968253Y700103D01*
X968104Y700138D01*
X967943Y700165D01*
X967769Y700184D01*
X967381Y700200D01*
Y700800D01*
X967582Y700804D01*
X967943Y700835D01*
X968104Y700862D01*
X968253Y700897D01*
X968388Y700940D01*
X968510Y700991D01*
X968618Y701049D01*
X968714Y701115D01*
X968797Y701189D01*
Y699811D01*
D02*
G37*
G36*
X900797D02*
X900714Y699885D01*
X900618Y699951D01*
X900510Y700009D01*
X900388Y700060D01*
X900253Y700103D01*
X900105Y700138D01*
X899943Y700165D01*
X899769Y700184D01*
X899382Y700200D01*
Y700800D01*
X899582Y700804D01*
X899943Y700835D01*
X900105Y700862D01*
X900253Y700897D01*
X900388Y700940D01*
X900510Y700991D01*
X900618Y701049D01*
X900714Y701115D01*
X900797Y701189D01*
Y699811D01*
D02*
G37*
G36*
X954553Y693016D02*
X954442Y693010D01*
X954327Y692988D01*
X954209Y692953D01*
X954087Y692902D01*
X953961Y692837D01*
X953832Y692757D01*
X953699Y692662D01*
X953562Y692553D01*
X953277Y692290D01*
X952852Y692714D01*
X952991Y692859D01*
X953225Y693136D01*
X953320Y693269D01*
X953399Y693399D01*
X953465Y693525D01*
X953515Y693647D01*
X953551Y693765D01*
X953572Y693879D01*
X953578Y693990D01*
X954553Y693016D01*
D02*
G37*
G36*
X1077950Y693400D02*
X1078046Y693334D01*
X1078155Y693276D01*
X1078277Y693225D01*
X1078412Y693183D01*
X1078560Y693148D01*
X1078721Y693120D01*
X1078895Y693101D01*
X1079283Y693085D01*
Y692485D01*
X1079083Y692482D01*
X1078721Y692450D01*
X1078560Y692423D01*
X1078412Y692388D01*
X1078277Y692345D01*
X1078155Y692295D01*
X1078046Y692237D01*
X1077950Y692170D01*
X1077867Y692097D01*
Y693474D01*
X1077950Y693400D01*
D02*
G37*
G36*
X993790Y691814D02*
X994043Y691594D01*
X994159Y691506D01*
X994268Y691434D01*
X994371Y691376D01*
X994467Y691334D01*
X994556Y691307D01*
X994638Y691294D01*
X994713Y691297D01*
X993878Y690462D01*
X993881Y690538D01*
X993869Y690620D01*
X993841Y690708D01*
X993799Y690804D01*
X993742Y690907D01*
X993669Y691016D01*
X993582Y691132D01*
X993361Y691385D01*
X993229Y691522D01*
X993653Y691946D01*
X993790Y691814D01*
D02*
G37*
G36*
X1086286Y689615D02*
X1086382Y689549D01*
X1086490Y689491D01*
X1086612Y689440D01*
X1086747Y689397D01*
X1086895Y689362D01*
X1087057Y689335D01*
X1087231Y689316D01*
X1087619Y689300D01*
Y688700D01*
X1087418Y688696D01*
X1087057Y688665D01*
X1086895Y688638D01*
X1086747Y688603D01*
X1086612Y688560D01*
X1086490Y688509D01*
X1086382Y688451D01*
X1086286Y688385D01*
X1086203Y688311D01*
Y689689D01*
X1086286Y689615D01*
D02*
G37*
G36*
X845547Y683111D02*
X845482Y683166D01*
X845401Y683215D01*
X845304Y683258D01*
X845191Y683296D01*
X845061Y683328D01*
X844915Y683354D01*
X844575Y683388D01*
X844380Y683397D01*
X844170Y683400D01*
Y684200D01*
X844380Y684203D01*
X844915Y684246D01*
X845061Y684272D01*
X845191Y684304D01*
X845304Y684342D01*
X845401Y684385D01*
X845482Y684434D01*
X845547Y684489D01*
Y683111D01*
D02*
G37*
G36*
X842220Y681334D02*
X842301Y681285D01*
X842398Y681242D01*
X842512Y681204D01*
X842641Y681172D01*
X842787Y681146D01*
X843128Y681112D01*
X843322Y681103D01*
X843533Y681100D01*
Y680300D01*
X843322Y680297D01*
X842787Y680254D01*
X842641Y680228D01*
X842512Y680196D01*
X842398Y680158D01*
X842301Y680115D01*
X842220Y680066D01*
X842155Y680011D01*
Y681389D01*
X842220Y681334D01*
D02*
G37*
G36*
X1029562Y678297D02*
X1029593Y677936D01*
X1029620Y677775D01*
X1029655Y677627D01*
X1029698Y677492D01*
X1029748Y677369D01*
X1029807Y677261D01*
X1029873Y677165D01*
X1029947Y677082D01*
X1028569D01*
X1028643Y677165D01*
X1028709Y677261D01*
X1028767Y677369D01*
X1028818Y677492D01*
X1028861Y677627D01*
X1028896Y677775D01*
X1028923Y677936D01*
X1028942Y678110D01*
X1028958Y678498D01*
X1029558D01*
X1029562Y678297D01*
D02*
G37*
G36*
X1012300Y678458D02*
X1012304Y678258D01*
X1012335Y677896D01*
X1012362Y677735D01*
X1012397Y677587D01*
X1012440Y677452D01*
X1012491Y677330D01*
X1012549Y677221D01*
X1012615Y677125D01*
X1012689Y677043D01*
X1011311Y677043D01*
X1011385Y677126D01*
X1011451Y677221D01*
X1011509Y677330D01*
X1011560Y677452D01*
X1011603Y677587D01*
X1011638Y677735D01*
X1011665Y677896D01*
X1011684Y678071D01*
X1011700Y678458D01*
X1012300Y678458D01*
D02*
G37*
G36*
X994013Y676986D02*
X993979Y677027D01*
X993930Y677063D01*
X993866Y677095D01*
X993786Y677123D01*
X993691Y677147D01*
X993581Y677166D01*
X993456Y677181D01*
X993159Y677198D01*
X992988Y677200D01*
Y677800D01*
X993159Y677802D01*
X993581Y677834D01*
X993691Y677853D01*
X993786Y677877D01*
X993866Y677905D01*
X993930Y677937D01*
X993979Y677973D01*
X994013Y678014D01*
Y676986D01*
D02*
G37*
G36*
X1009346Y678401D02*
X1009382Y678043D01*
X1009413Y677888D01*
X1009452Y677751D01*
X1009501Y677630D01*
X1009558Y677526D01*
X1009624Y677439D01*
X1009700Y677368D01*
X1009783Y677314D01*
X1008485Y676941D01*
X1008534Y677034D01*
X1008578Y677139D01*
X1008616Y677256D01*
X1008650Y677385D01*
X1008678Y677525D01*
X1008719Y677843D01*
X1008732Y678019D01*
X1008742Y678409D01*
X1009342Y678605D01*
X1009346Y678401D01*
D02*
G37*
G36*
X887468Y678234D02*
X887549Y678185D01*
X887646Y678142D01*
X887759Y678104D01*
X887889Y678072D01*
X888035Y678046D01*
X888375Y678012D01*
X888570Y678003D01*
X888780Y678000D01*
Y677200D01*
X888570Y677197D01*
X888035Y677154D01*
X887889Y677128D01*
X887759Y677096D01*
X887646Y677058D01*
X887549Y677015D01*
X887468Y676966D01*
X887403Y676911D01*
Y678289D01*
X887468Y678234D01*
D02*
G37*
G36*
X845547Y676911D02*
X845482Y676966D01*
X845401Y677015D01*
X845304Y677058D01*
X845191Y677096D01*
X845061Y677128D01*
X844915Y677154D01*
X844575Y677188D01*
X844380Y677197D01*
X844170Y677200D01*
Y678000D01*
X844380Y678003D01*
X844915Y678046D01*
X845061Y678072D01*
X845191Y678104D01*
X845304Y678142D01*
X845401Y678185D01*
X845482Y678234D01*
X845547Y678289D01*
Y676911D01*
D02*
G37*
G36*
X1025278Y677820D02*
X1025621Y677530D01*
X1025720Y677462D01*
X1025812Y677409D01*
X1025896Y677370D01*
X1025973Y677345D01*
X1026043Y677335D01*
X1026105Y677339D01*
X1025331Y676565D01*
X1025335Y676627D01*
X1025325Y676697D01*
X1025301Y676774D01*
X1025262Y676858D01*
X1025208Y676950D01*
X1025140Y677050D01*
X1025058Y677156D01*
X1024850Y677392D01*
X1024725Y677521D01*
X1025149Y677946D01*
X1025278Y677820D01*
D02*
G37*
G36*
X842238Y675115D02*
X842334Y675049D01*
X842443Y674991D01*
X842565Y674940D01*
X842700Y674897D01*
X842848Y674862D01*
X843009Y674835D01*
X843183Y674816D01*
X843571Y674800D01*
Y674200D01*
X843371Y674196D01*
X843009Y674165D01*
X842848Y674138D01*
X842700Y674103D01*
X842565Y674060D01*
X842443Y674009D01*
X842334Y673951D01*
X842238Y673885D01*
X842155Y673811D01*
Y675189D01*
X842238Y675115D01*
D02*
G37*
G36*
X993925Y673605D02*
X993860Y673686D01*
X993779Y673759D01*
X993683Y673823D01*
X993571Y673879D01*
X993445Y673926D01*
X993303Y673965D01*
X993146Y673995D01*
X992973Y674016D01*
X992786Y674029D01*
X992583Y674033D01*
X992697Y674633D01*
X992894Y674637D01*
X993255Y674663D01*
X993419Y674686D01*
X993713Y674751D01*
X993844Y674794D01*
X993964Y674843D01*
X994073Y674899D01*
X994172Y674961D01*
X993925Y673605D01*
D02*
G37*
G36*
X891410Y671943D02*
X891428Y671892D01*
X891459Y671847D01*
X891502Y671808D01*
X891557Y671775D01*
X891624Y671748D01*
X891704Y671727D01*
X891796Y671712D01*
X891900Y671703D01*
X892016Y671700D01*
Y671100D01*
X891900Y671097D01*
X891796Y671088D01*
X891704Y671073D01*
X891624Y671052D01*
X891557Y671025D01*
X891502Y670992D01*
X891459Y670953D01*
X891428Y670908D01*
X891410Y670857D01*
X891404Y670800D01*
Y672000D01*
X891410Y671943D01*
D02*
G37*
G36*
X845547Y670711D02*
X845464Y670785D01*
X845368Y670851D01*
X845260Y670909D01*
X845138Y670960D01*
X845003Y671003D01*
X844855Y671038D01*
X844693Y671065D01*
X844519Y671084D01*
X844131Y671100D01*
Y671700D01*
X844332Y671704D01*
X844693Y671735D01*
X844855Y671762D01*
X845003Y671797D01*
X845138Y671840D01*
X845260Y671891D01*
X845368Y671949D01*
X845464Y672015D01*
X845547Y672089D01*
Y670711D01*
D02*
G37*
G36*
X994038Y670167D02*
X993970Y670233D01*
X993887Y670293D01*
X993789Y670345D01*
X993676Y670390D01*
X993548Y670428D01*
X993405Y670459D01*
X993248Y670484D01*
X993075Y670501D01*
X992685Y670515D01*
Y671115D01*
X992887Y671118D01*
X993248Y671146D01*
X993405Y671171D01*
X993548Y671202D01*
X993676Y671240D01*
X993789Y671285D01*
X993887Y671337D01*
X993970Y671397D01*
X994038Y671463D01*
Y670167D01*
D02*
G37*
G36*
X890564Y667611D02*
X890499Y667666D01*
X890418Y667715D01*
X890321Y667758D01*
X890207Y667796D01*
X890078Y667828D01*
X889932Y667854D01*
X889591Y667888D01*
X889397Y667897D01*
X889186Y667900D01*
Y668700D01*
X889397Y668703D01*
X889932Y668746D01*
X890078Y668772D01*
X890207Y668804D01*
X890321Y668842D01*
X890418Y668885D01*
X890499Y668934D01*
X890564Y668989D01*
Y667611D01*
D02*
G37*
G36*
X842220Y668934D02*
X842301Y668885D01*
X842398Y668842D01*
X842512Y668804D01*
X842641Y668772D01*
X842787Y668746D01*
X843128Y668712D01*
X843322Y668703D01*
X843533Y668700D01*
Y667900D01*
X843322Y667897D01*
X842787Y667854D01*
X842641Y667828D01*
X842512Y667796D01*
X842398Y667758D01*
X842301Y667715D01*
X842220Y667666D01*
X842155Y667611D01*
Y668989D01*
X842220Y668934D01*
D02*
G37*
G36*
X976302Y668714D02*
X976236Y668618D01*
X976178Y668510D01*
X976127Y668388D01*
X976085Y668253D01*
X976050Y668105D01*
X976022Y667943D01*
X976003Y667769D01*
X975987Y667381D01*
X975387D01*
X975383Y667582D01*
X975352Y667943D01*
X975325Y668105D01*
X975290Y668253D01*
X975247Y668388D01*
X975197Y668510D01*
X975138Y668618D01*
X975072Y668714D01*
X974998Y668797D01*
X976376D01*
X976302Y668714D01*
D02*
G37*
G36*
X994077Y666784D02*
X993994Y666857D01*
X993898Y666924D01*
X993789Y666982D01*
X993667Y667032D01*
X993532Y667075D01*
X993384Y667110D01*
X993223Y667137D01*
X993049Y667157D01*
X992661Y667172D01*
Y667772D01*
X992861Y667776D01*
X993223Y667807D01*
X993384Y667835D01*
X993532Y667870D01*
X993667Y667912D01*
X993789Y667963D01*
X993898Y668021D01*
X993994Y668087D01*
X994077Y668161D01*
Y666784D01*
D02*
G37*
G36*
X1044804Y667147D02*
X1044835Y666786D01*
X1044862Y666624D01*
X1044897Y666476D01*
X1044940Y666341D01*
X1044991Y666220D01*
X1045049Y666111D01*
X1045115Y666015D01*
X1045189Y665932D01*
X1043811D01*
X1043885Y666015D01*
X1043951Y666111D01*
X1044009Y666220D01*
X1044060Y666341D01*
X1044103Y666476D01*
X1044138Y666624D01*
X1044165Y666786D01*
X1044184Y666960D01*
X1044200Y667347D01*
X1044800D01*
X1044804Y667147D01*
D02*
G37*
G36*
X886774Y664600D02*
X886768Y664657D01*
X886749Y664708D01*
X886719Y664753D01*
X886676Y664792D01*
X886621Y664825D01*
X886554Y664852D01*
X886474Y664873D01*
X886382Y664888D01*
X886278Y664897D01*
X886162Y664900D01*
Y665500D01*
X886278Y665503D01*
X886382Y665512D01*
X886474Y665527D01*
X886554Y665548D01*
X886621Y665575D01*
X886676Y665608D01*
X886719Y665647D01*
X886749Y665692D01*
X886768Y665743D01*
X886774Y665800D01*
Y664600D01*
D02*
G37*
G36*
X846232Y665743D02*
X846251Y665692D01*
X846281Y665647D01*
X846324Y665608D01*
X846379Y665575D01*
X846446Y665548D01*
X846526Y665527D01*
X846618Y665512D01*
X846722Y665503D01*
X846838Y665500D01*
Y664900D01*
X846722Y664897D01*
X846618Y664888D01*
X846526Y664873D01*
X846446Y664852D01*
X846379Y664825D01*
X846324Y664792D01*
X846281Y664753D01*
X846251Y664708D01*
X846232Y664657D01*
X846226Y664600D01*
Y665800D01*
X846232Y665743D01*
D02*
G37*
G36*
X1042023Y664684D02*
X1042056Y664323D01*
X1042084Y664163D01*
X1042121Y664017D01*
X1042165Y663885D01*
X1042218Y663767D01*
X1042279Y663663D01*
X1042348Y663572D01*
X1042425Y663496D01*
X1041050Y663405D01*
X1041120Y663493D01*
X1041183Y663594D01*
X1041238Y663708D01*
X1041286Y663833D01*
X1041327Y663971D01*
X1041360Y664121D01*
X1041386Y664283D01*
X1041404Y664458D01*
X1041419Y664844D01*
X1042019Y664886D01*
X1042023Y664684D01*
D02*
G37*
G36*
X890564Y661411D02*
X890481Y661485D01*
X890385Y661551D01*
X890276Y661609D01*
X890154Y661660D01*
X890019Y661703D01*
X889871Y661738D01*
X889710Y661765D01*
X889536Y661784D01*
X889148Y661800D01*
Y662400D01*
X889348Y662404D01*
X889710Y662435D01*
X889871Y662462D01*
X890019Y662497D01*
X890154Y662540D01*
X890276Y662591D01*
X890385Y662649D01*
X890481Y662715D01*
X890564Y662789D01*
Y661411D01*
D02*
G37*
G36*
X842238Y662715D02*
X842334Y662649D01*
X842443Y662591D01*
X842565Y662540D01*
X842700Y662497D01*
X842848Y662462D01*
X843009Y662435D01*
X843183Y662416D01*
X843571Y662400D01*
Y661800D01*
X843371Y661796D01*
X843009Y661765D01*
X842848Y661738D01*
X842700Y661703D01*
X842565Y661660D01*
X842443Y661609D01*
X842334Y661551D01*
X842238Y661485D01*
X842155Y661411D01*
Y662789D01*
X842238Y662715D01*
D02*
G37*
G36*
X1039804Y662418D02*
X1039835Y662057D01*
X1039862Y661896D01*
X1039897Y661747D01*
X1039940Y661612D01*
X1039991Y661490D01*
X1040049Y661381D01*
X1040115Y661286D01*
X1040189Y661203D01*
X1038811D01*
X1038885Y661286D01*
X1038951Y661381D01*
X1039009Y661490D01*
X1039060Y661612D01*
X1039103Y661747D01*
X1039138Y661896D01*
X1039165Y662057D01*
X1039184Y662231D01*
X1039200Y662618D01*
X1039800D01*
X1039804Y662418D01*
D02*
G37*
G36*
X1037304Y660418D02*
X1037335Y660057D01*
X1037362Y659896D01*
X1037397Y659747D01*
X1037440Y659612D01*
X1037491Y659490D01*
X1037549Y659381D01*
X1037615Y659286D01*
X1037689Y659203D01*
X1036311Y659203D01*
X1036385Y659286D01*
X1036451Y659381D01*
X1036509Y659490D01*
X1036560Y659612D01*
X1036603Y659747D01*
X1036638Y659896D01*
X1036665Y660057D01*
X1036684Y660231D01*
X1036700Y660618D01*
X1037300D01*
X1037304Y660418D01*
D02*
G37*
G36*
X845547Y658376D02*
X845482Y658431D01*
X845401Y658480D01*
X845304Y658524D01*
X845191Y658561D01*
X845061Y658593D01*
X844915Y658619D01*
X844575Y658654D01*
X844380Y658662D01*
X844170Y658665D01*
Y659465D01*
X844380Y659468D01*
X844915Y659511D01*
X845061Y659537D01*
X845191Y659569D01*
X845304Y659607D01*
X845401Y659650D01*
X845482Y659699D01*
X845547Y659754D01*
Y658376D01*
D02*
G37*
G36*
X887468Y659634D02*
X887549Y659585D01*
X887646Y659542D01*
X887759Y659504D01*
X887889Y659472D01*
X888035Y659446D01*
X888375Y659412D01*
X888570Y659403D01*
X888780Y659400D01*
Y658600D01*
X888570Y658597D01*
X888035Y658554D01*
X887889Y658528D01*
X887759Y658496D01*
X887646Y658458D01*
X887549Y658415D01*
X887468Y658366D01*
X887403Y658311D01*
Y659689D01*
X887468Y659634D01*
D02*
G37*
G36*
X1005556Y658960D02*
X1005591Y658601D01*
X1005622Y658446D01*
X1005661Y658307D01*
X1005709Y658184D01*
X1005766Y658077D01*
X1005832Y657986D01*
X1005906Y657912D01*
X1005990Y657854D01*
X1004664Y657519D01*
X1004718Y657617D01*
X1004768Y657727D01*
X1004811Y657847D01*
X1004848Y657979D01*
X1004880Y658121D01*
X1004926Y658439D01*
X1004940Y658615D01*
X1004952Y658999D01*
X1005552Y659164D01*
X1005556Y658960D01*
D02*
G37*
G36*
X1008036Y658667D02*
X1008314Y658433D01*
X1008447Y658338D01*
X1008576Y658257D01*
X1008702Y658190D01*
X1008825Y658139D01*
X1008943Y658101D01*
X1009058Y658078D01*
X1009169Y658070D01*
X1008175Y657116D01*
X1008171Y657226D01*
X1008152Y657340D01*
X1008118Y657458D01*
X1008069Y657580D01*
X1008004Y657705D01*
X1007925Y657835D01*
X1007831Y657968D01*
X1007722Y658105D01*
X1007459Y658390D01*
X1007892Y658806D01*
X1008036Y658667D01*
D02*
G37*
G36*
X949440Y656763D02*
X949358Y656837D01*
X949262Y656903D01*
X949153Y656961D01*
X949031Y657012D01*
X948896Y657055D01*
X948748Y657090D01*
X948587Y657117D01*
X948413Y657136D01*
X948025Y657152D01*
Y657752D01*
X948225Y657756D01*
X948587Y657787D01*
X948748Y657814D01*
X948896Y657849D01*
X949031Y657892D01*
X949153Y657943D01*
X949262Y658001D01*
X949358Y658067D01*
X949440Y658141D01*
Y656763D01*
D02*
G37*
G36*
X997678Y656992D02*
X997680Y656783D01*
X997723Y656096D01*
X997743Y655961D01*
X997794Y655734D01*
X997824Y655644D01*
X997859Y655567D01*
X996634Y656029D01*
X996718Y656072D01*
X996794Y656133D01*
X996860Y656212D01*
X996918Y656309D01*
X996967Y656425D01*
X997007Y656558D01*
X997038Y656709D01*
X997060Y656878D01*
X997073Y657066D01*
X997078Y657271D01*
X997678Y656992D01*
D02*
G37*
G36*
X842238Y656515D02*
X842334Y656449D01*
X842443Y656391D01*
X842565Y656340D01*
X842700Y656297D01*
X842848Y656262D01*
X843009Y656235D01*
X843183Y656216D01*
X843571Y656200D01*
Y655600D01*
X843371Y655596D01*
X843009Y655565D01*
X842848Y655538D01*
X842700Y655503D01*
X842565Y655460D01*
X842443Y655409D01*
X842334Y655351D01*
X842238Y655285D01*
X842155Y655211D01*
Y656589D01*
X842238Y656515D01*
D02*
G37*
G36*
X891410Y653546D02*
X891428Y653495D01*
X891459Y653450D01*
X891502Y653411D01*
X891557Y653378D01*
X891624Y653351D01*
X891704Y653330D01*
X891796Y653315D01*
X891900Y653306D01*
X892016Y653303D01*
Y652703D01*
X891900Y652700D01*
X891796Y652691D01*
X891704Y652676D01*
X891624Y652655D01*
X891557Y652628D01*
X891502Y652595D01*
X891459Y652556D01*
X891428Y652511D01*
X891410Y652460D01*
X891404Y652403D01*
Y653603D01*
X891410Y653546D01*
D02*
G37*
G36*
X846662Y653238D02*
X846580Y653152D01*
X846506Y653066D01*
X846441Y652980D01*
X846385Y652894D01*
X846337Y652809D01*
X846297Y652725D01*
X846267Y652640D01*
X846245Y652557D01*
X846231Y652473D01*
X846226Y652389D01*
X846238Y653786D01*
X846265Y653789D01*
X846295Y653798D01*
X846328Y653813D01*
X846366Y653834D01*
X846406Y653861D01*
X846450Y653895D01*
X846549Y653978D01*
X846662Y654086D01*
Y653238D01*
D02*
G37*
G36*
X890564Y649011D02*
X890499Y649066D01*
X890418Y649115D01*
X890321Y649158D01*
X890207Y649196D01*
X890078Y649228D01*
X889932Y649254D01*
X889591Y649288D01*
X889397Y649297D01*
X889186Y649300D01*
Y650100D01*
X889397Y650103D01*
X889932Y650146D01*
X890078Y650172D01*
X890207Y650204D01*
X890321Y650242D01*
X890418Y650285D01*
X890499Y650334D01*
X890564Y650389D01*
Y649011D01*
D02*
G37*
G36*
X842220Y650334D02*
X842301Y650285D01*
X842398Y650242D01*
X842512Y650204D01*
X842641Y650172D01*
X842787Y650146D01*
X843128Y650112D01*
X843322Y650103D01*
X843533Y650100D01*
Y649300D01*
X843322Y649297D01*
X842787Y649254D01*
X842641Y649228D01*
X842512Y649196D01*
X842398Y649158D01*
X842301Y649115D01*
X842220Y649066D01*
X842155Y649011D01*
Y650389D01*
X842220Y650334D01*
D02*
G37*
G36*
X887486Y647215D02*
X887582Y647149D01*
X887690Y647091D01*
X887812Y647040D01*
X887947Y646997D01*
X888095Y646962D01*
X888257Y646935D01*
X888431Y646916D01*
X888818Y646900D01*
Y646300D01*
X888618Y646296D01*
X888257Y646265D01*
X888095Y646238D01*
X887947Y646203D01*
X887812Y646160D01*
X887690Y646109D01*
X887582Y646051D01*
X887486Y645985D01*
X887403Y645911D01*
Y647289D01*
X887486Y647215D01*
D02*
G37*
G36*
X845547Y645911D02*
X845464Y645985D01*
X845368Y646051D01*
X845260Y646109D01*
X845138Y646160D01*
X845003Y646203D01*
X844855Y646238D01*
X844693Y646265D01*
X844519Y646284D01*
X844131Y646300D01*
Y646900D01*
X844332Y646904D01*
X844693Y646935D01*
X844855Y646962D01*
X845003Y646997D01*
X845138Y647040D01*
X845260Y647091D01*
X845368Y647149D01*
X845464Y647215D01*
X845547Y647289D01*
Y645911D01*
D02*
G37*
G36*
X1000612Y646630D02*
X1000473Y646486D01*
X1000239Y646208D01*
X1000144Y646075D01*
X1000065Y645946D01*
X999999Y645820D01*
X999949Y645698D01*
X999913Y645579D01*
X999892Y645465D01*
X999886Y645354D01*
X998911Y646328D01*
X999022Y646335D01*
X999137Y646356D01*
X999255Y646391D01*
X999377Y646442D01*
X999503Y646507D01*
X999632Y646587D01*
X999765Y646682D01*
X999902Y646791D01*
X1000187Y647054D01*
X1000612Y646630D01*
D02*
G37*
G36*
X890564Y642811D02*
X890499Y642866D01*
X890418Y642915D01*
X890321Y642958D01*
X890207Y642996D01*
X890078Y643028D01*
X889932Y643054D01*
X889591Y643088D01*
X889397Y643097D01*
X889186Y643100D01*
Y643900D01*
X889397Y643903D01*
X889932Y643946D01*
X890078Y643972D01*
X890207Y644004D01*
X890321Y644042D01*
X890418Y644085D01*
X890499Y644134D01*
X890564Y644189D01*
Y642811D01*
D02*
G37*
G36*
X842220Y644134D02*
X842301Y644085D01*
X842398Y644042D01*
X842512Y644004D01*
X842641Y643972D01*
X842787Y643946D01*
X843128Y643912D01*
X843322Y643903D01*
X843533Y643900D01*
Y643100D01*
X843322Y643097D01*
X842787Y643054D01*
X842641Y643028D01*
X842512Y642996D01*
X842398Y642958D01*
X842301Y642915D01*
X842220Y642866D01*
X842155Y642811D01*
Y644189D01*
X842220Y644134D01*
D02*
G37*
G36*
X1000612Y642438D02*
X1000473Y642293D01*
X1000239Y642016D01*
X1000144Y641883D01*
X1000065Y641753D01*
X999999Y641627D01*
X999949Y641505D01*
X999913Y641387D01*
X999892Y641273D01*
X999886Y641162D01*
X998911Y642136D01*
X999022Y642142D01*
X999137Y642163D01*
X999255Y642199D01*
X999377Y642250D01*
X999503Y642315D01*
X999632Y642395D01*
X999765Y642490D01*
X999902Y642599D01*
X1000187Y642862D01*
X1000612Y642438D01*
D02*
G37*
G36*
X886774Y639800D02*
X886768Y639857D01*
X886749Y639908D01*
X886719Y639953D01*
X886676Y639992D01*
X886621Y640025D01*
X886554Y640052D01*
X886474Y640073D01*
X886382Y640088D01*
X886278Y640097D01*
X886162Y640100D01*
Y640700D01*
X886278Y640703D01*
X886382Y640712D01*
X886474Y640727D01*
X886554Y640748D01*
X886621Y640775D01*
X886676Y640808D01*
X886719Y640847D01*
X886749Y640892D01*
X886768Y640943D01*
X886774Y641000D01*
Y639800D01*
D02*
G37*
G36*
X891410Y637843D02*
X891428Y637792D01*
X891459Y637747D01*
X891502Y637708D01*
X891557Y637675D01*
X891624Y637648D01*
X891704Y637627D01*
X891796Y637612D01*
X891900Y637603D01*
X892016Y637600D01*
Y637000D01*
X891900Y636997D01*
X891796Y636988D01*
X891704Y636973D01*
X891624Y636952D01*
X891557Y636925D01*
X891502Y636892D01*
X891459Y636853D01*
X891428Y636808D01*
X891410Y636757D01*
X891404Y636700D01*
Y637900D01*
X891410Y637843D01*
D02*
G37*
G36*
X1000612Y637925D02*
X1000473Y637781D01*
X1000239Y637503D01*
X1000144Y637370D01*
X1000065Y637241D01*
X999999Y637115D01*
X999949Y636993D01*
X999913Y636875D01*
X999892Y636760D01*
X999886Y636649D01*
X998911Y637624D01*
X999022Y637630D01*
X999137Y637651D01*
X999255Y637687D01*
X999377Y637737D01*
X999503Y637803D01*
X999632Y637883D01*
X999765Y637977D01*
X999902Y638087D01*
X1000187Y638350D01*
X1000612Y637925D01*
D02*
G37*
G36*
X842238Y637915D02*
X842334Y637849D01*
X842443Y637791D01*
X842565Y637740D01*
X842700Y637697D01*
X842848Y637662D01*
X843009Y637635D01*
X843183Y637616D01*
X843571Y637600D01*
Y637000D01*
X843371Y636996D01*
X843009Y636965D01*
X842848Y636938D01*
X842700Y636903D01*
X842565Y636860D01*
X842443Y636809D01*
X842334Y636751D01*
X842238Y636685D01*
X842155Y636611D01*
Y637989D01*
X842238Y637915D01*
D02*
G37*
G36*
X934804Y634658D02*
X934849Y634635D01*
X934911Y634615D01*
X934991Y634598D01*
X935089Y634583D01*
X935340Y634562D01*
X935850Y634550D01*
Y633750D01*
X935662Y633748D01*
X934991Y633702D01*
X934911Y633684D01*
X934849Y633664D01*
X934804Y633641D01*
X934778Y633616D01*
Y634683D01*
X934804Y634658D01*
D02*
G37*
G36*
X887486Y634815D02*
X887582Y634749D01*
X887690Y634691D01*
X887812Y634640D01*
X887947Y634597D01*
X888095Y634562D01*
X888257Y634535D01*
X888431Y634516D01*
X888818Y634500D01*
Y633900D01*
X888618Y633896D01*
X888257Y633865D01*
X888095Y633838D01*
X887947Y633803D01*
X887812Y633760D01*
X887690Y633709D01*
X887582Y633651D01*
X887486Y633585D01*
X887403Y633511D01*
Y634889D01*
X887486Y634815D01*
D02*
G37*
G36*
X845547Y633511D02*
X845464Y633585D01*
X845368Y633651D01*
X845260Y633709D01*
X845138Y633760D01*
X845003Y633803D01*
X844855Y633838D01*
X844693Y633865D01*
X844519Y633884D01*
X844131Y633900D01*
Y634500D01*
X844332Y634504D01*
X844693Y634535D01*
X844855Y634562D01*
X845003Y634597D01*
X845138Y634640D01*
X845260Y634691D01*
X845368Y634749D01*
X845464Y634815D01*
X845547Y634889D01*
Y633511D01*
D02*
G37*
G36*
X1000449Y633222D02*
X1000307Y633074D01*
X1000079Y632796D01*
X999991Y632665D01*
X999922Y632539D01*
X999870Y632419D01*
X999837Y632305D01*
X999821Y632196D01*
X999823Y632092D01*
X999843Y631994D01*
X998664Y632662D01*
X998766Y632693D01*
X998873Y632736D01*
X998985Y632791D01*
X999101Y632858D01*
X999222Y632938D01*
X999476Y633132D01*
X999611Y633247D01*
X999892Y633514D01*
X1000449Y633222D01*
D02*
G37*
G36*
X890611Y630431D02*
X890522Y630501D01*
X890421Y630564D01*
X890308Y630619D01*
X890182Y630667D01*
X890044Y630708D01*
X889894Y630741D01*
X889732Y630767D01*
X889557Y630785D01*
X889171Y630800D01*
X889130Y631400D01*
X889331Y631404D01*
X889692Y631436D01*
X889852Y631465D01*
X889998Y631501D01*
X890130Y631546D01*
X890248Y631599D01*
X890352Y631660D01*
X890443Y631729D01*
X890520Y631806D01*
X890611Y630431D01*
D02*
G37*
G36*
X842238Y631715D02*
X842334Y631649D01*
X842443Y631591D01*
X842565Y631540D01*
X842700Y631497D01*
X842848Y631462D01*
X843009Y631435D01*
X843183Y631416D01*
X843571Y631400D01*
Y630800D01*
X843371Y630796D01*
X843009Y630765D01*
X842848Y630738D01*
X842700Y630703D01*
X842565Y630660D01*
X842443Y630609D01*
X842334Y630551D01*
X842238Y630485D01*
X842155Y630411D01*
Y631789D01*
X842238Y631715D01*
D02*
G37*
G36*
X887486Y628615D02*
X887582Y628549D01*
X887690Y628491D01*
X887812Y628440D01*
X887947Y628397D01*
X888095Y628362D01*
X888257Y628335D01*
X888431Y628316D01*
X888818Y628300D01*
Y627700D01*
X888618Y627696D01*
X888257Y627665D01*
X888095Y627638D01*
X887947Y627603D01*
X887812Y627560D01*
X887690Y627509D01*
X887582Y627451D01*
X887486Y627385D01*
X887403Y627311D01*
Y628689D01*
X887486Y628615D01*
D02*
G37*
G36*
X998683Y626646D02*
X998544Y626502D01*
X998310Y626224D01*
X998215Y626091D01*
X998135Y625962D01*
X998070Y625836D01*
X998020Y625714D01*
X997984Y625596D01*
X997963Y625481D01*
X997957Y625370D01*
X996982Y626345D01*
X997093Y626351D01*
X997208Y626372D01*
X997326Y626408D01*
X997448Y626458D01*
X997574Y626523D01*
X997703Y626603D01*
X997836Y626698D01*
X997973Y626807D01*
X998258Y627071D01*
X998683Y626646D01*
D02*
G37*
G36*
X842238Y625515D02*
X842334Y625449D01*
X842443Y625391D01*
X842565Y625340D01*
X842700Y625297D01*
X842848Y625262D01*
X843009Y625235D01*
X843183Y625216D01*
X843571Y625200D01*
Y624600D01*
X843371Y624596D01*
X843009Y624565D01*
X842848Y624538D01*
X842700Y624503D01*
X842565Y624460D01*
X842443Y624409D01*
X842334Y624351D01*
X842238Y624285D01*
X842155Y624211D01*
Y625589D01*
X842238Y625515D01*
D02*
G37*
G36*
X959058Y622893D02*
X958928Y622760D01*
X958726Y622525D01*
X958654Y622424D01*
X958601Y622333D01*
X958567Y622254D01*
X958552Y622186D01*
X958556Y622128D01*
X958579Y622081D01*
X958622Y622045D01*
X957569Y622665D01*
X957624Y622642D01*
X957686Y622634D01*
X957754Y622640D01*
X957829Y622661D01*
X957911Y622698D01*
X957999Y622749D01*
X958093Y622815D01*
X958195Y622895D01*
X958417Y623101D01*
X959058Y622893D01*
D02*
G37*
G36*
X887486Y622415D02*
X887582Y622349D01*
X887690Y622291D01*
X887812Y622240D01*
X887947Y622197D01*
X888095Y622162D01*
X888257Y622135D01*
X888431Y622116D01*
X888818Y622100D01*
Y621500D01*
X888618Y621496D01*
X888257Y621465D01*
X888095Y621438D01*
X887947Y621403D01*
X887812Y621360D01*
X887690Y621309D01*
X887582Y621251D01*
X887486Y621185D01*
X887403Y621111D01*
Y622489D01*
X887486Y622415D01*
D02*
G37*
G36*
X845547Y621111D02*
X845464Y621185D01*
X845368Y621251D01*
X845260Y621309D01*
X845138Y621360D01*
X845003Y621403D01*
X844855Y621438D01*
X844693Y621465D01*
X844519Y621484D01*
X844131Y621500D01*
Y622100D01*
X844332Y622104D01*
X844693Y622135D01*
X844855Y622162D01*
X845003Y622197D01*
X845138Y622240D01*
X845260Y622291D01*
X845368Y622349D01*
X845464Y622415D01*
X845547Y622489D01*
Y621111D01*
D02*
G37*
G36*
X890564Y618011D02*
X890481Y618085D01*
X890385Y618151D01*
X890276Y618209D01*
X890154Y618260D01*
X890019Y618303D01*
X889871Y618338D01*
X889710Y618365D01*
X889536Y618384D01*
X889148Y618400D01*
Y619000D01*
X889348Y619004D01*
X889710Y619035D01*
X889871Y619062D01*
X890019Y619097D01*
X890154Y619140D01*
X890276Y619191D01*
X890385Y619249D01*
X890481Y619315D01*
X890564Y619389D01*
Y618011D01*
D02*
G37*
G36*
X842238Y619315D02*
X842334Y619249D01*
X842443Y619191D01*
X842565Y619140D01*
X842700Y619097D01*
X842848Y619062D01*
X843009Y619035D01*
X843183Y619016D01*
X843571Y619000D01*
Y618400D01*
X843371Y618396D01*
X843009Y618365D01*
X842848Y618338D01*
X842700Y618303D01*
X842565Y618260D01*
X842443Y618209D01*
X842334Y618151D01*
X842238Y618085D01*
X842155Y618011D01*
Y619389D01*
X842238Y619315D01*
D02*
G37*
G36*
X995076Y619286D02*
X994937Y619141D01*
X994703Y618864D01*
X994608Y618731D01*
X994528Y618601D01*
X994463Y618475D01*
X994413Y618353D01*
X994377Y618235D01*
X994356Y618121D01*
X994350Y618010D01*
X993375Y618984D01*
X993486Y618991D01*
X993600Y619011D01*
X993719Y619047D01*
X993841Y619098D01*
X993966Y619163D01*
X994096Y619243D01*
X994229Y619338D01*
X994366Y619447D01*
X994651Y619710D01*
X995076Y619286D01*
D02*
G37*
G36*
X887486Y616215D02*
X887582Y616149D01*
X887690Y616091D01*
X887812Y616040D01*
X887947Y615997D01*
X888095Y615962D01*
X888257Y615935D01*
X888431Y615916D01*
X888818Y615900D01*
Y615300D01*
X888618Y615296D01*
X888257Y615265D01*
X888095Y615238D01*
X887947Y615203D01*
X887812Y615160D01*
X887690Y615109D01*
X887582Y615051D01*
X887486Y614985D01*
X887403Y614911D01*
Y616289D01*
X887486Y616215D01*
D02*
G37*
G36*
X845547Y614911D02*
X845464Y614985D01*
X845368Y615051D01*
X845260Y615109D01*
X845138Y615160D01*
X845003Y615203D01*
X844855Y615238D01*
X844693Y615265D01*
X844519Y615284D01*
X844131Y615300D01*
Y615900D01*
X844332Y615904D01*
X844693Y615935D01*
X844855Y615962D01*
X845003Y615997D01*
X845138Y616040D01*
X845260Y616091D01*
X845368Y616149D01*
X845464Y616215D01*
X845547Y616289D01*
Y614911D01*
D02*
G37*
G36*
X890564Y611811D02*
X890481Y611885D01*
X890385Y611951D01*
X890276Y612009D01*
X890154Y612060D01*
X890019Y612103D01*
X889871Y612138D01*
X889710Y612165D01*
X889536Y612184D01*
X889148Y612200D01*
Y612800D01*
X889348Y612804D01*
X889710Y612835D01*
X889871Y612862D01*
X890019Y612897D01*
X890154Y612940D01*
X890276Y612991D01*
X890385Y613049D01*
X890481Y613115D01*
X890564Y613189D01*
Y611811D01*
D02*
G37*
G36*
X842238Y613115D02*
X842334Y613049D01*
X842443Y612991D01*
X842565Y612940D01*
X842700Y612897D01*
X842848Y612862D01*
X843009Y612835D01*
X843183Y612816D01*
X843571Y612800D01*
Y612200D01*
X843371Y612196D01*
X843009Y612165D01*
X842848Y612138D01*
X842700Y612103D01*
X842565Y612060D01*
X842443Y612009D01*
X842334Y611951D01*
X842238Y611885D01*
X842155Y611811D01*
Y613189D01*
X842238Y613115D01*
D02*
G37*
G36*
X983135Y610343D02*
X983167Y609982D01*
X983194Y609821D01*
X983229Y609673D01*
X983272Y609538D01*
X983322Y609416D01*
X983381Y609307D01*
X983447Y609211D01*
X983521Y609128D01*
X982143D01*
X982216Y609211D01*
X982283Y609307D01*
X982341Y609416D01*
X982391Y609538D01*
X982434Y609673D01*
X982469Y609821D01*
X982496Y609982D01*
X982516Y610156D01*
X982532Y610544D01*
X983132D01*
X983135Y610343D01*
D02*
G37*
G36*
X887486Y610015D02*
X887582Y609949D01*
X887690Y609891D01*
X887812Y609840D01*
X887947Y609797D01*
X888095Y609762D01*
X888257Y609735D01*
X888431Y609716D01*
X888818Y609700D01*
Y609100D01*
X888618Y609096D01*
X888257Y609065D01*
X888095Y609038D01*
X887947Y609003D01*
X887812Y608960D01*
X887690Y608909D01*
X887582Y608851D01*
X887486Y608785D01*
X887403Y608711D01*
Y610089D01*
X887486Y610015D01*
D02*
G37*
G36*
X845547Y608711D02*
X845464Y608785D01*
X845368Y608851D01*
X845260Y608909D01*
X845138Y608960D01*
X845003Y609003D01*
X844855Y609038D01*
X844693Y609065D01*
X844519Y609084D01*
X844131Y609100D01*
Y609700D01*
X844332Y609704D01*
X844693Y609735D01*
X844855Y609762D01*
X845003Y609797D01*
X845138Y609840D01*
X845260Y609891D01*
X845368Y609949D01*
X845464Y610015D01*
X845547Y610089D01*
Y608711D01*
D02*
G37*
G36*
X990760Y609759D02*
X990621Y609614D01*
X990388Y609337D01*
X990293Y609203D01*
X990213Y609074D01*
X990148Y608948D01*
X990098Y608826D01*
X990062Y608708D01*
X990041Y608593D01*
X990034Y608483D01*
X989060Y609457D01*
X989171Y609463D01*
X989285Y609484D01*
X989404Y609520D01*
X989526Y609571D01*
X989651Y609636D01*
X989781Y609716D01*
X989914Y609810D01*
X990051Y609920D01*
X990336Y610183D01*
X990760Y609759D01*
D02*
G37*
G36*
X983447Y607640D02*
X983381Y607544D01*
X983322Y607435D01*
X983272Y607313D01*
X983229Y607178D01*
X983194Y607030D01*
X983167Y606869D01*
X983147Y606694D01*
X983132Y606307D01*
X982532D01*
X982528Y606507D01*
X982496Y606869D01*
X982469Y607030D01*
X982434Y607178D01*
X982391Y607313D01*
X982341Y607435D01*
X982283Y607544D01*
X982216Y607640D01*
X982143Y607722D01*
X983521D01*
X983447Y607640D01*
D02*
G37*
G36*
X1068378Y607363D02*
X1068474Y607297D01*
X1068583Y607238D01*
X1068705Y607188D01*
X1068840Y607145D01*
X1068988Y607110D01*
X1069149Y607083D01*
X1069323Y607063D01*
X1069711Y607048D01*
Y606448D01*
X1069510Y606444D01*
X1069149Y606413D01*
X1068988Y606386D01*
X1068840Y606351D01*
X1068705Y606308D01*
X1068583Y606257D01*
X1068474Y606199D01*
X1068378Y606133D01*
X1068295Y606059D01*
Y607437D01*
X1068378Y607363D01*
D02*
G37*
G36*
X890564Y605611D02*
X890481Y605685D01*
X890385Y605751D01*
X890276Y605809D01*
X890154Y605860D01*
X890019Y605903D01*
X889871Y605938D01*
X889710Y605965D01*
X889536Y605984D01*
X889148Y606000D01*
Y606600D01*
X889348Y606604D01*
X889710Y606635D01*
X889871Y606662D01*
X890019Y606697D01*
X890154Y606740D01*
X890276Y606791D01*
X890385Y606849D01*
X890481Y606915D01*
X890564Y606989D01*
Y605611D01*
D02*
G37*
G36*
X842238Y606887D02*
X842334Y606821D01*
X842443Y606763D01*
X842565Y606712D01*
X842700Y606669D01*
X842848Y606634D01*
X843009Y606607D01*
X843183Y606588D01*
X843571Y606572D01*
Y605972D01*
X843371Y605968D01*
X843009Y605937D01*
X842848Y605910D01*
X842700Y605875D01*
X842565Y605832D01*
X842443Y605782D01*
X842334Y605723D01*
X842238Y605657D01*
X842155Y605583D01*
Y606961D01*
X842238Y606887D01*
D02*
G37*
G36*
X965125Y605553D02*
X964986Y605408D01*
X964752Y605131D01*
X964658Y604998D01*
X964578Y604868D01*
X964513Y604742D01*
X964462Y604620D01*
X964426Y604502D01*
X964405Y604388D01*
X964399Y604277D01*
X963425Y605251D01*
X963535Y605257D01*
X963650Y605278D01*
X963768Y605314D01*
X963890Y605365D01*
X964016Y605430D01*
X964145Y605510D01*
X964279Y605605D01*
X964416Y605714D01*
X964701Y605977D01*
X965125Y605553D01*
D02*
G37*
G36*
X939130Y604997D02*
X939019Y604991D01*
X938905Y604970D01*
X938786Y604934D01*
X938664Y604884D01*
X938539Y604819D01*
X938409Y604739D01*
X938276Y604644D01*
X938139Y604534D01*
X937854Y604271D01*
X937430Y604696D01*
X937569Y604840D01*
X937802Y605118D01*
X937897Y605251D01*
X937977Y605380D01*
X938042Y605506D01*
X938093Y605628D01*
X938128Y605746D01*
X938149Y605861D01*
X938156Y605972D01*
X939130Y604997D01*
D02*
G37*
G36*
X887468Y603834D02*
X887549Y603785D01*
X887646Y603742D01*
X887759Y603704D01*
X887889Y603672D01*
X888035Y603646D01*
X888375Y603612D01*
X888570Y603603D01*
X888780Y603600D01*
Y602800D01*
X888570Y602797D01*
X888035Y602754D01*
X887889Y602728D01*
X887759Y602696D01*
X887646Y602658D01*
X887549Y602615D01*
X887468Y602566D01*
X887403Y602511D01*
Y603889D01*
X887468Y603834D01*
D02*
G37*
G36*
X845547Y602511D02*
X845482Y602566D01*
X845401Y602615D01*
X845304Y602658D01*
X845191Y602696D01*
X845061Y602728D01*
X844915Y602754D01*
X844575Y602788D01*
X844380Y602797D01*
X844170Y602800D01*
Y603600D01*
X844380Y603603D01*
X844915Y603646D01*
X845061Y603672D01*
X845191Y603704D01*
X845304Y603742D01*
X845401Y603785D01*
X845482Y603834D01*
X845547Y603889D01*
Y602511D01*
D02*
G37*
G36*
X964030Y603481D02*
X963964Y603385D01*
X963905Y603276D01*
X963855Y603155D01*
X963812Y603020D01*
X963777Y602871D01*
X963750Y602710D01*
X963730Y602536D01*
X963715Y602148D01*
X963115D01*
X963111Y602349D01*
X963080Y602710D01*
X963052Y602871D01*
X963017Y603020D01*
X962975Y603155D01*
X962924Y603276D01*
X962866Y603385D01*
X962800Y603481D01*
X962726Y603564D01*
X964104D01*
X964030Y603481D01*
D02*
G37*
G36*
X986872Y600949D02*
X986733Y600804D01*
X986499Y600527D01*
X986404Y600393D01*
X986324Y600264D01*
X986259Y600138D01*
X986209Y600016D01*
X986173Y599898D01*
X986152Y599783D01*
X986146Y599673D01*
X985171Y600647D01*
X985282Y600653D01*
X985397Y600674D01*
X985515Y600710D01*
X985637Y600761D01*
X985763Y600826D01*
X985892Y600906D01*
X986025Y601000D01*
X986162Y601110D01*
X986447Y601373D01*
X986872Y600949D01*
D02*
G37*
G36*
X889851Y577770D02*
X889845Y577827D01*
X889826Y577878D01*
X889796Y577923D01*
X889753Y577962D01*
X889698Y577995D01*
X889631Y578022D01*
X889551Y578043D01*
X889459Y578058D01*
X889355Y578067D01*
X889239Y578070D01*
Y578670D01*
X889355Y578673D01*
X889459Y578682D01*
X889551Y578697D01*
X889631Y578718D01*
X889698Y578745D01*
X889753Y578778D01*
X889796Y578817D01*
X889826Y578862D01*
X889845Y578913D01*
X889851Y578970D01*
Y577770D01*
D02*
G37*
G36*
X940379Y578870D02*
X940423Y578335D01*
X940449Y578189D01*
X940480Y578059D01*
X940518Y577946D01*
X940561Y577849D01*
X940610Y577768D01*
X940665Y577703D01*
X939287D01*
X939342Y577768D01*
X939391Y577849D01*
X939435Y577946D01*
X939472Y578059D01*
X939504Y578189D01*
X939530Y578335D01*
X939565Y578675D01*
X939573Y578870D01*
X939576Y579080D01*
X940376D01*
X940379Y578870D01*
D02*
G37*
G36*
X893108Y578013D02*
X893085Y577965D01*
X893082Y577907D01*
X893097Y577838D01*
X893131Y577759D01*
X893184Y577668D01*
X893256Y577567D01*
X893347Y577456D01*
X893585Y577201D01*
X892964Y576974D01*
X892849Y577085D01*
X892639Y577262D01*
X892544Y577328D01*
X892455Y577380D01*
X892374Y577416D01*
X892299Y577437D01*
X892231Y577443D01*
X892170Y577434D01*
X892116Y577410D01*
X893149Y578050D01*
X893108Y578013D01*
D02*
G37*
G36*
X868669Y571300D02*
X868279Y570889D01*
X867913Y570457D01*
X867569Y570006D01*
X867249Y569535D01*
X866952Y569044D01*
X866428Y568002D01*
X866201Y567451D01*
X865816Y566291D01*
X863713Y570449D01*
X864186Y570303D01*
X864657Y570221D01*
X865129Y570204D01*
X865599Y570251D01*
X866068Y570362D01*
X866536Y570537D01*
X867004Y570776D01*
X867470Y571080D01*
X867936Y571448D01*
X868401Y571880D01*
X868669Y571300D01*
D02*
G37*
G36*
X879961Y566607D02*
X880020Y566040D01*
X880123Y565489D01*
X880269Y564954D01*
X880459Y564436D01*
X880693Y563934D01*
X880970Y563448D01*
X881290Y562978D01*
X881654Y562524D01*
X882062Y562087D01*
X881638Y561663D01*
X881200Y562070D01*
X880746Y562434D01*
X880277Y562755D01*
X879791Y563032D01*
X879288Y563265D01*
X878770Y563455D01*
X878235Y563602D01*
X877685Y563704D01*
X877118Y563764D01*
X876534Y563780D01*
X879945Y567190D01*
X879961Y566607D01*
D02*
G37*
G36*
X889851Y559452D02*
X889845Y559510D01*
X889826Y559560D01*
X889796Y559606D01*
X889753Y559645D01*
X889698Y559678D01*
X889631Y559704D01*
X889551Y559726D01*
X889459Y559740D01*
X889355Y559750D01*
X889239Y559753D01*
Y560353D01*
X889355Y560356D01*
X889459Y560364D01*
X889551Y560380D01*
X889631Y560400D01*
X889698Y560428D01*
X889753Y560461D01*
X889796Y560499D01*
X889826Y560544D01*
X889845Y560596D01*
X889851Y560652D01*
Y559452D01*
D02*
G37*
G36*
X893155Y560543D02*
X893174Y560492D01*
X893204Y560447D01*
X893247Y560408D01*
X893302Y560375D01*
X893369Y560348D01*
X893449Y560327D01*
X893541Y560312D01*
X893645Y560303D01*
X893761Y560300D01*
Y559700D01*
X893645Y559697D01*
X893541Y559688D01*
X893449Y559673D01*
X893369Y559652D01*
X893302Y559625D01*
X893247Y559592D01*
X893204Y559553D01*
X893174Y559508D01*
X893155Y559457D01*
X893149Y559400D01*
Y560600D01*
X893155Y560543D01*
D02*
G37*
G36*
X871800Y546154D02*
X872254Y545790D01*
X872723Y545470D01*
X873209Y545193D01*
X873711Y544959D01*
X874230Y544769D01*
X874765Y544623D01*
X875315Y544520D01*
X875882Y544461D01*
X876466Y544445D01*
X873055Y541035D01*
X873039Y541618D01*
X872980Y542185D01*
X872877Y542735D01*
X872731Y543270D01*
X872541Y543788D01*
X872307Y544291D01*
X872030Y544777D01*
X871710Y545247D01*
X871346Y545700D01*
X870938Y546138D01*
X871362Y546562D01*
X871800Y546154D01*
D02*
G37*
G36*
X857800D02*
X858253Y545790D01*
X858723Y545470D01*
X859209Y545193D01*
X859711Y544959D01*
X860230Y544769D01*
X860765Y544623D01*
X861315Y544520D01*
X861882Y544461D01*
X862466Y544445D01*
X859055Y541035D01*
X859039Y541618D01*
X858980Y542185D01*
X858877Y542735D01*
X858731Y543270D01*
X858541Y543788D01*
X858307Y544291D01*
X858030Y544777D01*
X857710Y545247D01*
X857346Y545700D01*
X856938Y546138D01*
X857362Y546562D01*
X857800Y546154D01*
D02*
G37*
%LPC*%
G36*
X912248Y913980D02*
X911068D01*
X911069Y913944D01*
X912247D01*
X912248Y913980D01*
D02*
G37*
G36*
X909000Y916067D02*
X908892Y916064D01*
X908784Y916056D01*
X908677Y916041D01*
X908570Y916022D01*
X908465Y915996D01*
X908361Y915966D01*
X908259Y915930D01*
X908159Y915888D01*
X908062Y915842D01*
X907967Y915790D01*
X907874Y915734D01*
X907785Y915672D01*
X907699Y915606D01*
X907617Y915536D01*
X907539Y915462D01*
X907464Y915383D01*
X907394Y915301D01*
X907328Y915215D01*
X907267Y915126D01*
X907210Y915034D01*
X907158Y914938D01*
X907112Y914841D01*
X907070Y914741D01*
X907034Y914639D01*
X907003Y914535D01*
X906978Y914430D01*
X906958Y914323D01*
X906944Y914216D01*
X906936Y914108D01*
X906933Y914000D01*
X906936Y913892D01*
X906944Y913784D01*
X906958Y913677D01*
X906978Y913570D01*
X907003Y913465D01*
X907034Y913361D01*
X907070Y913259D01*
X907112Y913159D01*
X907158Y913062D01*
X907210Y912967D01*
X907267Y912874D01*
X907328Y912785D01*
X907394Y912699D01*
X907464Y912617D01*
X907539Y912539D01*
X907617Y912464D01*
X907699Y912394D01*
X907785Y912328D01*
X907874Y912267D01*
X907967Y912210D01*
X908062Y912158D01*
X908159Y912112D01*
X908259Y912070D01*
X908361Y912034D01*
X908465Y912004D01*
X908570Y911978D01*
X908677Y911959D01*
X908784Y911944D01*
X908892Y911936D01*
X909000Y911933D01*
X909118Y911936D01*
X909225Y911944D01*
X909332Y911958D01*
X909437Y911978D01*
X909542Y912003D01*
X909645Y912034D01*
X909747Y912070D01*
X909846Y912111D01*
X909944Y912157D01*
X910038Y912209D01*
X910130Y912265D01*
X910219Y912326D01*
X910304Y912391D01*
X910386Y912461D01*
X910464Y912536D01*
X910539Y912614D01*
X910608Y912696D01*
X910674Y912781D01*
X910735Y912870D01*
X910791Y912962D01*
X910843Y913056D01*
X910889Y913153D01*
X910930Y913253D01*
X910966Y913354D01*
X910997Y913458D01*
X911022Y913562D01*
X911042Y913668D01*
X911056Y913775D01*
X911064Y913883D01*
X911067Y913980D01*
X911068D01*
X911064Y914118D01*
X911056Y914225D01*
X911042Y914332D01*
X911022Y914437D01*
X910997Y914542D01*
X910966Y914645D01*
X910930Y914747D01*
X910889Y914847D01*
X910843Y914944D01*
X910791Y915038D01*
X910735Y915130D01*
X910674Y915219D01*
X910608Y915304D01*
X910539Y915386D01*
X910464Y915464D01*
X910386Y915539D01*
X910304Y915609D01*
X910219Y915674D01*
X910130Y915735D01*
X910038Y915791D01*
X909944Y915843D01*
X909846Y915889D01*
X909747Y915930D01*
X909645Y915966D01*
X909542Y915997D01*
X909437Y916022D01*
X909332Y916042D01*
X909225Y916056D01*
X909118Y916064D01*
X909000Y916067D01*
D02*
G37*
%LPD*%
D18*
X906000Y798976D02*
X922819D01*
X1060587Y801358D02*
X1093872D01*
X1094896Y728484D02*
X1095846Y729434D01*
Y747500D01*
X1057000Y789000D02*
X1057257Y789257D01*
X1053158Y789000D02*
X1057000D01*
X981630Y766979D02*
Y773000D01*
X995310Y783384D02*
X995409Y783285D01*
Y773000D02*
Y783285D01*
X920886Y793000D02*
X923343D01*
X924921Y791421D01*
X922843Y793500D02*
X923343Y793000D01*
X922843Y793500D02*
Y799000D01*
X917047Y785752D02*
Y789161D01*
X920886Y793000D01*
X924921Y785752D02*
Y791421D01*
X922819Y798976D02*
X922843Y799000D01*
X913232Y897862D02*
Y903843D01*
X891441Y879598D02*
X891539Y879500D01*
X767305Y743870D02*
X773244D01*
Y743902D01*
Y741933D02*
Y743870D01*
X1046591Y776170D02*
X1048913Y778492D01*
X1046591Y773000D02*
Y776170D01*
X1048913Y778492D02*
Y779259D01*
X1049988Y780333D01*
Y785831D02*
X1050657Y786500D01*
X1049988Y780333D02*
Y785831D01*
X1050657Y786500D02*
Y786697D01*
X1051929Y787968D01*
X1052126D01*
X1053158Y789000D01*
X1073862Y723000D02*
Y738500D01*
Y723000D02*
X1074315Y722547D01*
X1092827Y728453D02*
X1092858Y728484D01*
X1092827Y726484D02*
Y728453D01*
X1095327Y714024D02*
X1095850Y713500D01*
X1092858Y728484D02*
X1094896D01*
X1074315Y722547D02*
X1081173D01*
X1092827Y714024D02*
Y720579D01*
X924921Y785752D02*
X926890D01*
X766961Y743902D02*
Y759039D01*
X759000Y767000D02*
X766961Y759039D01*
X891441Y879598D02*
Y885260D01*
X901000Y908961D02*
X904768D01*
X898500Y903461D02*
Y906461D01*
X901000Y908961D01*
X894000Y893200D02*
Y905187D01*
X903136Y914323D02*
X906271D01*
X894000Y905187D02*
X903136Y914323D01*
D20*
X928158Y799000D02*
D03*
X922843D02*
D03*
X1045343Y786500D02*
D03*
X1050657D02*
D03*
D39*
X1059500Y738343D02*
D03*
Y743657D02*
D03*
X1099673Y719890D02*
D03*
Y725205D02*
D03*
D73*
X909000Y914000D02*
D03*
X906500Y721000D02*
D03*
X1092827Y733500D02*
D03*
X1087000Y728453D02*
D03*
X815000Y762500D02*
D03*
X1075500Y760500D02*
D03*
X1084500Y702295D02*
D03*
X1091000Y635500D02*
D03*
X1061000Y583500D02*
D03*
X1002500Y559500D02*
D03*
X1021500Y552500D02*
D03*
X988000Y537500D02*
D03*
X841500Y541500D02*
D03*
X802000Y640000D02*
D03*
X831000Y708500D02*
D03*
X875641Y651472D02*
D03*
X960500Y653000D02*
D03*
X989383Y632099D02*
D03*
X1032500Y629000D02*
D03*
X1015000Y614500D02*
D03*
X1029500Y655500D02*
D03*
X975687Y677500D02*
D03*
X901847Y826000D02*
D03*
X901480Y834886D02*
D03*
X921035Y868730D02*
D03*
X906000Y798976D02*
D03*
X901500Y700500D02*
D03*
X1095889Y783117D02*
D03*
X1099673Y719890D02*
D03*
X1087850Y714000D02*
D03*
X1085500Y689000D02*
D03*
X1081173Y733500D02*
D03*
X1041784Y662749D02*
D03*
X1081000Y639079D02*
D03*
X1053442Y634167D02*
D03*
X998902Y641152D02*
D03*
X999000Y588646D02*
D03*
X958755Y659606D02*
D03*
X934067Y679625D02*
D03*
X1044500Y665229D02*
D03*
X993365Y618000D02*
D03*
X950441Y650179D02*
D03*
X994779Y667472D02*
D03*
X1069500Y674000D02*
D03*
X1039716Y725871D02*
D03*
X1020595Y598500D02*
D03*
X982831Y608425D02*
D03*
X1053325Y669400D02*
D03*
X1038370Y703177D02*
D03*
X963508Y691102D02*
D03*
X1049962Y588498D02*
D03*
X1005500Y657000D02*
D03*
X1027637Y584335D02*
D03*
X999000Y584500D02*
D03*
X922508Y683228D02*
D03*
X1049605Y641890D02*
D03*
X1048153Y689000D02*
D03*
X1009332Y676440D02*
D03*
X1017500Y598484D02*
D03*
X998902Y631707D02*
D03*
X961500Y669500D02*
D03*
X891267Y655900D02*
D03*
X1067331Y643000D02*
D03*
X1012000Y676340D02*
D03*
X1044762Y722103D02*
D03*
X998902Y636640D02*
D03*
X936427Y589284D02*
D03*
X933951Y634150D02*
D03*
X964500Y677213D02*
D03*
X891267Y662100D02*
D03*
X1074000Y653000D02*
D03*
X1045992Y700295D02*
D03*
X942280Y721000D02*
D03*
X1033454Y604954D02*
D03*
X1009159Y657086D02*
D03*
X1046000Y638000D02*
D03*
X1077164Y683000D02*
D03*
X1077000Y728500D02*
D03*
X1043570Y732681D02*
D03*
X972563Y682562D02*
D03*
X1024713Y598500D02*
D03*
X938500Y710500D02*
D03*
X1054188Y604677D02*
D03*
X1067592Y606748D02*
D03*
X1054500Y699000D02*
D03*
X1048153Y715629D02*
D03*
X954562Y675039D02*
D03*
X996972Y625360D02*
D03*
X846250Y634200D02*
D03*
X935004Y627054D02*
D03*
X1053442Y646058D02*
D03*
X1037000Y658500D02*
D03*
X1038992Y729738D02*
D03*
X949500Y713000D02*
D03*
X929500Y589284D02*
D03*
X963415Y604267D02*
D03*
X955260Y622000D02*
D03*
X1050323Y681260D02*
D03*
X1042314Y703000D02*
D03*
X969500Y693000D02*
D03*
X1011500Y601000D02*
D03*
X939140Y605981D02*
D03*
X951500Y678500D02*
D03*
X846250Y671400D02*
D03*
X1050122Y610394D02*
D03*
X1083000Y652500D02*
D03*
X937046Y620552D02*
D03*
X950143Y657452D02*
D03*
X1031500Y601547D02*
D03*
X1028500Y598500D02*
D03*
X975687Y669500D02*
D03*
X955500Y713625D02*
D03*
X954562Y694000D02*
D03*
X989050Y608473D02*
D03*
X937024Y660718D02*
D03*
X1069000Y630000D02*
D03*
X966000Y639500D02*
D03*
X985161Y599663D02*
D03*
X841452Y637300D02*
D03*
X954500Y648000D02*
D03*
X1066921Y618268D02*
D03*
X1064437Y659553D02*
D03*
X981630Y760370D02*
D03*
X956784Y702784D02*
D03*
X1012720Y587500D02*
D03*
X841452Y631100D02*
D03*
X950441Y661500D02*
D03*
X1039500Y631000D02*
D03*
Y660500D02*
D03*
X994779Y670815D02*
D03*
X948696Y640053D02*
D03*
X1067016Y622205D02*
D03*
X1069500Y686935D02*
D03*
X1077164Y692785D02*
D03*
X1065347Y697008D02*
D03*
X969500Y700500D02*
D03*
X993770Y587500D02*
D03*
X926039Y666217D02*
D03*
X1064490Y655539D02*
D03*
X1030413Y853944D02*
D03*
X1027257Y846000D02*
D03*
X935500Y765228D02*
D03*
Y743772D02*
D03*
X945500Y765228D02*
D03*
X940500Y743772D02*
D03*
X1061841Y728500D02*
D03*
X1050412Y728430D02*
D03*
X1111585Y822807D02*
D03*
X1057257Y789257D02*
D03*
X1059500Y743657D02*
D03*
X981630Y766979D02*
D03*
X847882Y794539D02*
D03*
X863118D02*
D03*
X994852Y690323D02*
D03*
X1026296Y676374D02*
D03*
X1029258Y676379D02*
D03*
X994852Y677500D02*
D03*
X995310Y783384D02*
D03*
X994740Y674157D02*
D03*
X906000Y803158D02*
D03*
X866000Y843638D02*
D03*
X1060587Y801358D02*
D03*
X1093872D02*
D03*
X1085129Y808417D02*
D03*
X1064394Y817984D02*
D03*
X1131500Y762000D02*
D03*
X1132000Y699000D02*
D03*
X1097500Y649764D02*
D03*
X905587Y544142D02*
D03*
X941413D02*
D03*
X936728Y570972D02*
D03*
X939976Y577000D02*
D03*
X943207Y895134D02*
D03*
X937866D02*
D03*
X992622Y873000D02*
D03*
X1111343Y887906D02*
D03*
X1111500Y828000D02*
D03*
X1042445Y822906D02*
D03*
Y827905D02*
D03*
X1111261Y872945D02*
D03*
X1111343Y882905D02*
D03*
X1059394Y817984D02*
D03*
X1111343Y877905D02*
D03*
X1111500Y833000D02*
D03*
X1111261Y867945D02*
D03*
X1111500Y838000D02*
D03*
X1111230Y857988D02*
D03*
X1042445Y887906D02*
D03*
X1102239Y645976D02*
D03*
X1032780Y571000D02*
D03*
X964584Y549000D02*
D03*
X960752Y544197D02*
D03*
X891500Y564862D02*
D03*
X828862Y545633D02*
D03*
X882461Y611861D02*
D03*
X903477Y607491D02*
D03*
X908524Y638937D02*
D03*
X877539Y643500D02*
D03*
X960752Y559364D02*
D03*
X953665Y554639D02*
D03*
X846250Y603200D02*
D03*
X923768Y593000D02*
D03*
X776000Y823500D02*
D03*
X782000Y832256D02*
D03*
X793374Y808512D02*
D03*
X890000Y736878D02*
D03*
X915268Y658843D02*
D03*
X998902Y649733D02*
D03*
X996987Y655110D02*
D03*
X998902Y645344D02*
D03*
X1077366Y604487D02*
D03*
X886700Y603200D02*
D03*
X1041174Y570949D02*
D03*
X891267Y643500D02*
D03*
X886700Y659000D02*
D03*
Y677600D02*
D03*
X1099500Y642000D02*
D03*
X1100421Y747500D02*
D03*
X891500Y574138D02*
D03*
X889209Y683800D02*
D03*
X837220Y736500D02*
D03*
X787500Y743438D02*
D03*
X847000Y757500D02*
D03*
X841500Y757512D02*
D03*
X861169Y754000D02*
D03*
X860972Y746488D02*
D03*
X1132405Y825797D02*
D03*
X841452Y624900D02*
D03*
Y655900D02*
D03*
X846250Y683800D02*
D03*
X841452Y606272D02*
D03*
X891267Y624835D02*
D03*
Y631165D02*
D03*
Y649700D02*
D03*
Y674500D02*
D03*
Y668300D02*
D03*
Y680700D02*
D03*
Y612500D02*
D03*
Y606300D02*
D03*
X886700Y621800D02*
D03*
X891267Y618700D02*
D03*
X886700Y615600D02*
D03*
Y609400D02*
D03*
X915268Y675815D02*
D03*
Y670500D02*
D03*
X855461Y649700D02*
D03*
X877539Y659000D02*
D03*
X908524Y629095D02*
D03*
X841452Y612500D02*
D03*
Y618700D02*
D03*
Y674500D02*
D03*
Y662100D02*
D03*
X846250Y646600D02*
D03*
X841452Y668300D02*
D03*
Y649700D02*
D03*
X846250Y615600D02*
D03*
Y677600D02*
D03*
X841452Y680700D02*
D03*
Y643500D02*
D03*
X886700Y634200D02*
D03*
Y646600D02*
D03*
Y628000D02*
D03*
X846250Y621800D02*
D03*
Y659065D02*
D03*
Y609400D02*
D03*
X858488Y731500D02*
D03*
X874500D02*
D03*
X967000Y748158D02*
D03*
X1036421Y577000D02*
D03*
X858488Y726500D02*
D03*
X817000Y558000D02*
D03*
X803000Y730138D02*
D03*
X819732Y749000D02*
D03*
X873500Y891740D02*
D03*
X864500Y889461D02*
D03*
X793000Y552870D02*
D03*
X809681Y545130D02*
D03*
X881279Y710000D02*
D03*
X1006441Y864709D02*
D03*
X999500Y870122D02*
D03*
X999008Y878575D02*
D03*
X808714Y804726D02*
D03*
X814038D02*
D03*
X819224D02*
D03*
X824575D02*
D03*
X971930Y725802D02*
D03*
X966615D02*
D03*
X915268Y652658D02*
D03*
Y664157D02*
D03*
Y647342D02*
D03*
X931114Y650453D02*
D03*
Y645138D02*
D03*
X1022843Y571000D02*
D03*
X1028158D02*
D03*
X1016158D02*
D03*
X1010843D02*
D03*
X993157D02*
D03*
X987842D02*
D03*
X970658D02*
D03*
X965343D02*
D03*
X1082063Y678752D02*
D03*
Y673437D02*
D03*
X1120643Y593051D02*
D03*
X1111000Y589461D02*
D03*
X1089000Y586764D02*
D03*
X1121500Y605642D02*
D03*
X1041224Y577000D02*
D03*
X1024075Y886055D02*
D03*
Y879756D02*
D03*
X1018000Y866677D02*
D03*
X1024980Y866382D02*
D03*
X1011559Y864709D02*
D03*
X1115000Y616968D02*
D03*
X755500Y835850D02*
D03*
X752000Y811638D02*
D03*
X768000Y817079D02*
D03*
X781000Y782657D02*
D03*
X793500Y788335D02*
D03*
X806315Y822918D02*
D03*
X805452Y811697D02*
D03*
X822952Y826091D02*
D03*
X784452Y842394D02*
D03*
X794199Y842110D02*
D03*
X844000Y764638D02*
D03*
X809303Y794500D02*
D03*
X803988D02*
D03*
X815000Y786000D02*
D03*
Y780500D02*
D03*
X803988Y800000D02*
D03*
X833500Y752157D02*
D03*
X878000Y896000D02*
D03*
X882047Y848047D02*
D03*
Y853953D02*
D03*
X860492Y833638D02*
D03*
X871000Y862811D02*
D03*
X871528Y876500D02*
D03*
X866213D02*
D03*
X898500Y903461D02*
D03*
X904768Y906402D02*
D03*
X898500Y898539D02*
D03*
X904500Y893138D02*
D03*
X914000Y897862D02*
D03*
X1096260Y581941D02*
D03*
X1089000Y581843D02*
D03*
X887953Y848047D02*
D03*
Y854084D02*
D03*
X909396Y893103D02*
D03*
X1078700Y619239D02*
D03*
X981500Y797546D02*
D03*
X1080907Y634437D02*
D03*
X885984Y871758D02*
D03*
X891378Y879494D02*
D03*
X777122Y742917D02*
D03*
X762060Y743881D02*
D03*
X1044221Y810279D02*
D03*
X1049354Y804720D02*
D03*
X934661Y577000D02*
D03*
X861957Y762000D02*
D03*
X992862Y564000D02*
D03*
X1078618Y613823D02*
D03*
X1060587Y783642D02*
D03*
X914000Y893138D02*
D03*
X1054992Y544762D02*
D03*
X1090819D02*
D03*
X1023672Y785453D02*
D03*
X1018357D02*
D03*
X1010658D02*
D03*
X1004842D02*
D03*
X1030413Y783642D02*
D03*
X967000Y742842D02*
D03*
X1062850Y714024D02*
D03*
X1069138Y723000D02*
D03*
X1045000Y786500D02*
D03*
X798323Y554740D02*
D03*
X798103Y562577D02*
D03*
X813000D02*
D03*
D80*
X947483Y657452D02*
X946683Y656652D01*
X945083Y655056D02*
X945483Y654363D01*
X946283D01*
X946683Y655056D01*
X945083Y657652D02*
X944683Y658345D01*
X943883D01*
X943483Y657652D01*
X941883Y655056D02*
X942283Y654363D01*
X943083D01*
X943483Y655056D01*
X941883Y657652D02*
X941483Y658345D01*
X940683D01*
X940283Y657652D01*
X938683Y655056D02*
X939083Y654363D01*
X939883D01*
X940283Y655056D01*
X938683Y657633D02*
X938283Y658326D01*
X937483D01*
X937083Y657633D01*
X935483Y655056D02*
X935883Y654363D01*
X936683D01*
X937083Y655056D01*
X935483Y657652D02*
X935083Y658345D01*
X934283D01*
X933883Y657652D01*
X932283Y655056D02*
X932683Y654363D01*
X933483D01*
X933883Y655056D01*
X932283Y657652D02*
X931883Y658345D01*
X931083D01*
X930683Y657652D01*
X929083Y655056D02*
X929483Y654363D01*
X930283D01*
X930683Y655056D01*
X929083Y657652D02*
X928683Y658345D01*
X927883D01*
X927483Y657652D01*
X925883Y655056D02*
X926283Y654363D01*
X927083D01*
X927483Y655056D01*
X925883Y657652D02*
X925483Y658345D01*
X924683D01*
X924283Y657652D01*
X922683Y655056D02*
X923083Y654363D01*
X923883D01*
X924283Y655056D01*
X922683Y657652D02*
X922283Y658345D01*
X921483D01*
X921083Y657652D01*
X919483Y655056D02*
X919883Y654363D01*
X920683D01*
X921083Y655056D01*
X919483Y657652D02*
X919083Y658345D01*
X918283D01*
X917883Y657652D01*
X916283Y655673D02*
X916683Y654980D01*
X917483D01*
X917883Y655673D01*
X916283Y655758D02*
X915883Y656451D01*
X915083D01*
X914683Y655758D01*
X913083Y655742D02*
X913483Y655049D01*
X914283D01*
X914683Y655742D01*
X913083Y656997D02*
X912683Y657690D01*
X911883D01*
X911483Y656997D01*
X909883Y655056D02*
X910283Y654363D01*
X911083D01*
X911483Y655056D01*
X909883Y657652D02*
X909483Y658345D01*
X908683D01*
X908283Y657652D01*
X906683Y655056D02*
X907083Y654363D01*
X907883D01*
X908283Y655056D01*
X906683Y657652D02*
X906283Y658345D01*
X905483D01*
X905083Y657652D01*
X903483Y655056D02*
X903883Y654363D01*
X904683D01*
X905083Y655056D01*
X903483Y657652D02*
X903083Y658345D01*
X902283D01*
X901883Y657652D01*
X900283Y655056D02*
X900683Y654363D01*
X901483D01*
X901883Y655056D01*
X900283Y657652D02*
X899883Y658345D01*
X899083D01*
X898683Y657652D01*
X897883Y656000D02*
X898683Y656800D01*
X870392Y678523D02*
X871523D01*
X870064Y678851D02*
X868933Y678851D01*
X868933Y678851D02*
Y677720D01*
X871464Y674056D02*
X871464Y675188D01*
X870333Y674056D02*
X871464D01*
X867801Y676588D02*
X866670Y676588D01*
X866670Y676588D02*
Y675457D01*
X869202Y671794D02*
X869202Y672925D01*
X868070Y671794D02*
X869202D01*
X865539Y674326D02*
X864407Y674326D01*
X864407Y674326D02*
Y673194D01*
X866939Y669531D02*
X866939Y670662D01*
X865808Y669531D02*
X866939D01*
X863276Y672063D02*
X862144Y672063D01*
X862144Y672063D02*
Y670931D01*
X864676Y667268D02*
X864676Y668400D01*
X863545Y667268D02*
X864676D01*
X861013Y669800D02*
X859882Y669800D01*
X859882Y669800D02*
Y668669D01*
X860209Y667209D02*
Y668341D01*
X872118Y632266D02*
X871944Y631394D01*
X872683Y630900D01*
X874535Y629300D02*
X875227Y629700D01*
Y630500D01*
X874535Y630900D01*
X868300Y629300D02*
X867607Y628900D01*
Y628100D01*
X868300Y627700D01*
X874535Y626100D02*
X875227Y626500D01*
Y627300D01*
X874535Y627700D01*
X868300Y626100D02*
X867607Y625700D01*
Y624900D01*
X868300Y624500D01*
X874535Y622900D02*
X875227Y623300D01*
Y624100D01*
X874535Y624500D01*
X868300Y622900D02*
X867607Y622500D01*
Y621700D01*
X868300Y621300D01*
X874535Y619700D02*
X875227Y620100D01*
Y620900D01*
X874535Y621300D01*
X868300Y619700D02*
X867607Y619300D01*
Y618500D01*
X868300Y618100D01*
X871000Y617300D02*
X870200Y618100D01*
X929600Y707300D02*
X930400Y706500D01*
X929600Y708622D02*
X929200Y709314D01*
X928400D01*
X928000Y708622D01*
X926400Y706300D02*
X926800Y705607D01*
X927600D01*
X928000Y706300D01*
X926400Y708622D02*
X926000Y709314D01*
X925200D01*
X924800Y708622D01*
X923200Y706300D02*
X923600Y705607D01*
X924400D01*
X924800Y706300D01*
X923200Y708622D02*
X922800Y709314D01*
X922000D01*
X921600Y708622D01*
X920000Y706300D02*
X920400Y705607D01*
X921200D01*
X921600Y706300D01*
X920000Y708622D02*
X919600Y709314D01*
X918800D01*
X918400Y708622D01*
X916800Y706300D02*
X917200Y705607D01*
X918000D01*
X918400Y706300D01*
X916800Y708622D02*
X916400Y709314D01*
X915600D01*
X915200Y708622D01*
X913600Y706300D02*
X914000Y705607D01*
X914800D01*
X915200Y706300D01*
X913600Y708622D02*
X913200Y709314D01*
X912400D01*
X912000Y708622D01*
X910400Y706300D02*
X910800Y705607D01*
X911600D01*
X912000Y706300D01*
X910400Y708622D02*
X910000Y709314D01*
X909200D01*
X908800Y708622D01*
X907200Y706300D02*
X907600Y705607D01*
X908400D01*
X908800Y706300D01*
X907200Y708622D02*
X906800Y709314D01*
X906000D01*
X905600Y708622D01*
X904000Y706300D02*
X904400Y705607D01*
X905200D01*
X905600Y706300D01*
X904000Y708622D02*
X903600Y709314D01*
X902800D01*
X902400Y708622D01*
X900800Y706300D02*
X901200Y705607D01*
X902000D01*
X902400Y706300D01*
X900800Y708622D02*
X900400Y709314D01*
X899600D01*
X899200Y708622D01*
X897600Y706300D02*
X898000Y705607D01*
X898800D01*
X899200Y706300D01*
X897600Y708622D02*
X897200Y709314D01*
X896400D01*
X896000Y708622D01*
X894400Y706300D02*
X894800Y705607D01*
X895600D01*
X896000Y706300D01*
X894400Y708622D02*
X894000Y709314D01*
X893200D01*
X892800Y708622D01*
X891200Y706300D02*
X891600Y705607D01*
X892400D01*
X892800Y706300D01*
X891200Y708622D02*
X890800Y709314D01*
X890000D01*
X889600Y708622D01*
X888800Y706500D02*
X889600Y707300D01*
X949279Y689848D02*
X950410D01*
X943984Y695143D02*
X942853Y695143D01*
X942853Y695143D02*
Y694011D01*
X949662Y686071D02*
X949662Y687202D01*
X948530Y686071D02*
X949662D01*
X941721Y692880D02*
X940590Y692880D01*
X940590Y692880D02*
Y691749D01*
X947399Y683808D02*
X947399Y684940D01*
X946267Y683808D02*
X947399D01*
X939458Y690617D02*
X938327Y690617D01*
X938327Y690617D02*
Y689486D01*
X945136Y681545D02*
X945136Y682677D01*
X944005Y681546D02*
X945136D01*
X937196Y688354D02*
X936064Y688354D01*
X936064Y688354D02*
Y687223D01*
X942873Y679283D02*
X942873Y680414D01*
X941742Y679283D02*
X942873D01*
X934933Y686092D02*
X933802Y686092D01*
X933802Y686092D02*
Y684960D01*
X939097Y678534D02*
Y679666D01*
X898569Y700500D02*
X901500D01*
X1085500Y689000D02*
X1095500D01*
X1037000Y658500D02*
X1037000Y674933D01*
X1031542Y680391D02*
X1037000Y674933D01*
X1031542Y680391D02*
Y680391D01*
X1041719Y662814D02*
X1041784Y662749D01*
X1039500Y660500D02*
Y676233D01*
X1030842Y684891D02*
Y773000D01*
Y684891D02*
X1039500Y676233D01*
X1041719Y662814D02*
Y676781D01*
X1034500Y684000D02*
Y684115D01*
Y684000D02*
X1041719Y676781D01*
X1044500Y665229D02*
Y678479D01*
X1034779Y688200D02*
X1044500Y678479D01*
X1034779Y688200D02*
Y773000D01*
X1095500Y689000D02*
X1107500Y701000D01*
Y874063D01*
X1093785Y692785D02*
X1105000Y704000D01*
Y876563D01*
X1116168Y646856D02*
Y853080D01*
X1076060Y606748D02*
X1116168Y646856D01*
X784000Y633500D02*
Y741366D01*
Y633500D02*
X876500Y541000D01*
X1044762Y722103D02*
Y727370D01*
X1040685Y731447D02*
X1044762Y727370D01*
X1021000Y640422D02*
Y694298D01*
X989050Y608473D02*
X1021000Y640422D01*
X985161Y599663D02*
X1023000Y637501D01*
Y695500D01*
X1022968Y695532D02*
X1023000Y695500D01*
X903362Y567000D02*
X940165D01*
X891500Y578862D02*
X903362Y567000D01*
X940165D02*
X963415Y590249D01*
X889292Y653003D02*
X894694D01*
X897583Y655892D01*
X947483Y657452D02*
X949302D01*
X946683Y655056D02*
Y656652D01*
X945083Y655056D02*
Y657652D01*
X943483Y655056D02*
Y657652D01*
X941883Y655056D02*
Y657652D01*
X940283Y655056D02*
Y657652D01*
X938683Y655056D02*
Y657633D01*
X937083Y655056D02*
Y657633D01*
X935483Y655056D02*
Y657652D01*
X933883Y655056D02*
Y657652D01*
X932283Y655056D02*
Y657652D01*
X930683Y655056D02*
Y657652D01*
X929083Y655056D02*
Y657652D01*
X927483Y655056D02*
Y657652D01*
X925883Y655056D02*
Y657652D01*
X924283Y655056D02*
Y657652D01*
X922683Y655056D02*
Y657652D01*
X921083Y655056D02*
Y657652D01*
X919483Y655056D02*
Y657652D01*
X917883Y655673D02*
Y657652D01*
X916283Y655673D02*
Y655758D01*
X914683Y655742D02*
Y655758D01*
X913083Y655742D02*
Y656997D01*
X911483Y655056D02*
Y656997D01*
X909883Y655056D02*
Y657652D01*
X908283Y655056D02*
Y657652D01*
X906683Y655056D02*
Y657652D01*
X905083Y655056D02*
Y657652D01*
X903483Y655056D02*
Y657652D01*
X901883Y655056D02*
Y657652D01*
X900283Y655056D02*
Y657652D01*
X898683Y656800D02*
Y657652D01*
X897691Y656000D02*
X897883D01*
X897583Y655892D02*
X897691Y656000D01*
X1012000Y676340D02*
X1012000Y676340D01*
X1038717Y730013D02*
Y772717D01*
X1042944Y733307D02*
X1043570Y732681D01*
X994564Y674333D02*
X994740Y674157D01*
X1026906Y681856D02*
X1029258Y679504D01*
X1038717Y730013D02*
X1038992Y729738D01*
X991472Y679015D02*
X992988Y677500D01*
X987535Y675965D02*
Y773000D01*
X1036708Y714292D02*
X1045869Y705131D01*
X1040685Y731447D02*
Y773000D01*
X992028Y667472D02*
X994779D01*
X1011158Y689843D02*
X1012000Y689000D01*
X1026906Y681856D02*
Y773000D01*
X1036708Y734212D02*
X1036748Y734252D01*
X991472Y679015D02*
Y773000D01*
X987535Y675965D02*
X992685Y670815D01*
X1032811Y685804D02*
Y773000D01*
X1009042Y677100D02*
Y772853D01*
X1038717Y772717D02*
Y773000D01*
X1042944Y733307D02*
Y772709D01*
X989500Y677073D02*
X992239Y674333D01*
X1038717Y772717D02*
X1038717Y772717D01*
X1012000Y676340D02*
Y689000D01*
X1036748Y734252D02*
Y773000D01*
X1024937Y677733D02*
X1026296Y676374D01*
X992239Y674333D02*
X994564D01*
X985567Y673933D02*
Y773000D01*
X1045869Y700418D02*
Y705131D01*
X1042653Y773000D02*
X1042944Y772709D01*
X992685Y670815D02*
X994779D01*
X993441Y691734D02*
Y773000D01*
X1011158Y689843D02*
Y773000D01*
X989504Y766504D02*
Y773000D01*
X1024937Y677733D02*
Y773000D01*
X989500Y677073D02*
Y766500D01*
X985567Y673933D02*
X992028Y667472D01*
X1029258Y676379D02*
Y679504D01*
X1036708Y714292D02*
Y734212D01*
X992988Y677500D02*
X994852D01*
X1032811Y685804D02*
X1034500Y684115D01*
X1045869Y700418D02*
X1045992Y700295D01*
X1009042Y772853D02*
X1009189Y773000D01*
X1009332Y676440D02*
Y676810D01*
X1009042Y677100D02*
X1009332Y676810D01*
X989500Y766500D02*
X989504Y766504D01*
X993441Y691734D02*
X994852Y690323D01*
X1111343Y857905D02*
X1116168Y853080D01*
X975687Y656687D02*
Y669500D01*
X961500Y642500D02*
X975687Y656687D01*
X979000Y643260D02*
Y723500D01*
X957740Y622000D02*
X979000Y643260D01*
X970000Y732500D02*
X979000Y723500D01*
X934500Y706500D02*
X938500Y710500D01*
X934400Y706500D02*
X934500D01*
X963415Y590249D02*
Y604267D01*
X891500Y560000D02*
X941500D01*
X982831Y601332D02*
Y608425D01*
X941500Y560000D02*
X982831Y601332D01*
Y608425D02*
Y727669D01*
X963415Y604267D02*
Y604267D01*
X883672Y560052D02*
X891448D01*
X876500Y567224D02*
X883672Y560052D01*
X862500Y566831D02*
X863776D01*
X875315Y578370D01*
X891008D02*
X891500Y578862D01*
X875315Y578370D02*
X891008D01*
X891448Y560052D02*
X891500Y560000D01*
X781000Y622500D02*
Y739965D01*
Y622500D02*
X862500Y541000D01*
X1017828Y646216D02*
Y691696D01*
X996972Y625360D02*
X1017828Y646216D01*
X1017063Y692461D02*
X1017828Y691696D01*
X781000Y741933D02*
X783433D01*
X784000Y741366D01*
X1107500Y874063D02*
X1111343Y877905D01*
X1105000Y876563D02*
X1111343Y882905D01*
X998365Y649733D02*
Y649840D01*
X999347Y650821D01*
Y773000D01*
X1001315Y647758D02*
Y773000D01*
X998902Y645344D02*
X1001315Y647758D01*
X1014284Y652022D02*
Y689164D01*
X998902Y636640D02*
X1014284Y652022D01*
X998902Y641152D02*
X1003216Y645466D01*
Y772932D01*
X1003284Y773000D01*
X998902Y632099D02*
X1016308Y649505D01*
X998902Y631707D02*
Y632099D01*
X1016308Y649505D02*
Y690200D01*
X1015094Y691413D02*
X1016308Y690200D01*
X997378Y655501D02*
Y773000D01*
X996987Y655110D02*
X997378Y655501D01*
X1013126Y690323D02*
X1014284Y689164D01*
X996972Y625360D02*
Y625360D01*
X993365Y618000D02*
X1019461Y644095D01*
Y693214D01*
X1067592Y606748D02*
X1076060D01*
X871523Y678523D02*
X872758Y679758D01*
X870392Y678523D02*
X870392Y678523D01*
X870064Y678851D02*
X870392Y678523D01*
X868933Y678851D02*
X868933Y678851D01*
Y677720D02*
X871464Y675188D01*
Y674056D02*
X871464Y674056D01*
X867801Y676588D02*
X870333Y674056D01*
X866670Y676588D02*
X866670Y676588D01*
Y675457D02*
X869202Y672925D01*
Y671794D02*
X869202Y671794D01*
X865539Y674326D02*
X868070Y671794D01*
X864407Y674326D02*
X864407Y674326D01*
Y673194D02*
X866939Y670662D01*
Y669531D02*
X866939Y669531D01*
X863276Y672063D02*
X865808Y669531D01*
X862144Y672063D02*
X862144Y672063D01*
Y670931D02*
X864676Y668400D01*
Y667268D02*
X864676Y667268D01*
X861013Y669800D02*
X863545Y667268D01*
X859882Y669800D02*
X859882Y669800D01*
Y668669D02*
X860209Y668341D01*
X859997Y666997D02*
X860209Y667209D01*
X872758Y679758D02*
X895784Y702784D01*
X845800Y652800D02*
X859997Y666997D01*
X933252Y700500D02*
X969500D01*
X972000Y738500D02*
X982831Y727669D01*
X981000Y621852D02*
Y725500D01*
X963415Y604267D02*
X981000Y621852D01*
X889089Y637300D02*
X893543D01*
X898392Y642148D02*
Y642148D01*
X893543Y637300D02*
X898392Y642148D01*
Y642148D02*
X898743Y642500D01*
X961500D01*
X888000Y596000D02*
X929158D01*
X871000Y613000D02*
X888000Y596000D01*
X929158D02*
X939140Y605981D01*
X939140D01*
X871000Y613000D02*
Y617000D01*
X872118Y632266D02*
X873713Y633862D01*
X872683Y630900D02*
X874535D01*
X868300Y629300D02*
X874535D01*
X868300Y627700D02*
X874535D01*
X868300Y626100D02*
X874535D01*
X868300Y624500D02*
X874535D01*
X868300Y622900D02*
X874535D01*
X868300Y621300D02*
X874535D01*
X868300Y619700D02*
X874535D01*
X868300Y618100D02*
X870200D01*
X871000Y617000D02*
Y617300D01*
X873713Y633862D02*
X880252Y640400D01*
X889089D01*
X930400Y706500D02*
X934400D01*
X929600Y707300D02*
Y708622D01*
X928000Y706300D02*
Y708622D01*
X926400Y706300D02*
Y708622D01*
X924800Y706300D02*
Y708622D01*
X923200Y706300D02*
Y708622D01*
X921600Y706300D02*
Y708622D01*
X920000Y706300D02*
Y708622D01*
X918400Y706300D02*
Y708622D01*
X916800Y706300D02*
Y708622D01*
X915200Y706300D02*
Y708622D01*
X913600Y706300D02*
Y708622D01*
X912000Y706300D02*
Y708622D01*
X910400Y706300D02*
Y708622D01*
X908800Y706300D02*
Y708622D01*
X907200Y706300D02*
Y708622D01*
X905600Y706300D02*
Y708622D01*
X904000Y706300D02*
Y708622D01*
X902400Y706300D02*
Y708622D01*
X900800Y706300D02*
Y708622D01*
X899200Y706300D02*
Y708622D01*
X897600Y706300D02*
Y708622D01*
X896000Y706300D02*
Y708622D01*
X894400Y706300D02*
Y708622D01*
X892800Y706300D02*
Y708622D01*
X891200Y706300D02*
Y708622D01*
X889600Y707300D02*
Y708622D01*
X888500Y706500D02*
X888800D01*
X950410Y689848D02*
X951744Y691182D01*
X949279Y689848D02*
X949279Y689848D01*
X943984Y695143D02*
X949279Y689848D01*
X942853Y695143D02*
X942853Y695143D01*
Y694011D02*
X949662Y687202D01*
Y686071D02*
X949662Y686071D01*
X941721Y692880D02*
X948530Y686071D01*
X940590Y692880D02*
X940590Y692880D01*
Y691749D02*
X947399Y684940D01*
Y683808D02*
X947399Y683808D01*
X939458Y690617D02*
X946267Y683808D01*
X938327Y690617D02*
X938327Y690617D01*
Y689486D02*
X945136Y682677D01*
Y681545D02*
X945136Y681546D01*
X937196Y688354D02*
X944005Y681546D01*
X936064Y688354D02*
X936064Y688354D01*
Y687223D02*
X942873Y680414D01*
Y679283D02*
X942873Y679283D01*
X934933Y686092D02*
X941742Y679283D01*
X933802Y686092D02*
X933802Y686092D01*
Y684960D02*
X939097Y679666D01*
X938884Y678322D02*
X939097Y678534D01*
X951744Y691182D02*
X954562Y694000D01*
X933347Y672784D02*
X938884Y678322D01*
X910416Y672784D02*
X933347D01*
X909031Y671400D02*
X910416Y672784D01*
X889089Y671400D02*
X909031D01*
X847200Y665200D02*
X888500Y706500D01*
X889089Y652800D02*
X889292Y653003D01*
X949302Y657452D02*
X950143D01*
X880000Y669500D02*
Y681931D01*
Y669500D02*
X884300Y665200D01*
X880000Y681931D02*
X898569Y700500D01*
X884300Y665200D02*
X889089D01*
X1077164Y692785D02*
X1093785D01*
X895784Y702784D02*
X930968D01*
X781000Y745870D02*
X785068D01*
X787500Y743438D01*
X930968Y702784D02*
X933252Y700500D01*
X1028874Y683059D02*
Y773000D01*
Y683059D02*
X1031542Y680391D01*
X841452Y624900D02*
X843911D01*
Y621800D02*
X846250D01*
X843911Y609400D02*
X846250D01*
X843883Y606272D02*
X843911Y606300D01*
X841452Y606272D02*
X843883D01*
X841452Y662100D02*
X843911D01*
X889089D02*
X891267D01*
X841452Y674500D02*
X843911D01*
Y671400D02*
X846250D01*
X886700Y621800D02*
X889089D01*
Y618700D02*
X891267D01*
X886700Y615600D02*
X889089D01*
Y612500D02*
X891267D01*
X889089Y606300D02*
X891267D01*
X886700Y609400D02*
X889089D01*
X841452Y612500D02*
X843911D01*
Y615600D02*
X846250D01*
X841452Y618700D02*
X843911D01*
X841452Y655900D02*
X843911D01*
Y646600D02*
X846250D01*
X841452Y637300D02*
X843911D01*
Y634200D02*
X846250D01*
X841452Y631100D02*
X843911D01*
X886700Y646600D02*
X889089D01*
X886700Y634200D02*
X889089D01*
X891201Y631100D02*
X891267Y631165D01*
X889089Y631100D02*
X891201D01*
X886700Y628000D02*
X889089D01*
X971000Y735500D02*
X981000Y725500D01*
X843911Y665200D02*
X847200D01*
X929000Y732500D02*
X970000D01*
X930000Y735500D02*
X971000D01*
X930715Y738500D02*
X972000D01*
X919016Y742484D02*
X929000Y732500D01*
X919016Y742484D02*
Y785752D01*
X920984Y744516D02*
Y785752D01*
Y744516D02*
X930000Y735500D01*
X922953Y746262D02*
Y785752D01*
Y746262D02*
X930715Y738500D01*
X1007048Y659226D02*
Y772827D01*
Y659226D02*
X1009159Y657114D01*
X1007048Y772827D02*
X1007220Y773000D01*
X1019032Y693643D02*
X1019461Y693214D01*
X1019032Y693643D02*
Y773000D01*
X1009159Y657086D02*
Y657114D01*
X1005252Y657248D02*
Y773000D01*
Y657248D02*
X1005500Y657000D01*
X1013126Y690323D02*
Y773000D01*
X1015094Y691413D02*
Y773000D01*
X1017063Y692461D02*
Y773000D01*
X1021000Y694298D02*
Y773000D01*
X1022968Y695532D02*
Y773000D01*
X1077000Y726079D02*
Y728500D01*
Y726079D02*
X1078563Y724516D01*
X1081173D01*
X1080862Y720347D02*
X1081094Y720579D01*
X1081173D01*
X1067500Y715201D02*
X1068677Y714024D01*
D82*
X923539Y793000D02*
D03*
X928461D02*
D03*
X762039Y743902D02*
D03*
X766961D02*
D03*
X1049988Y780333D02*
D03*
X1045067D02*
D03*
X891539Y879500D02*
D03*
X896461D02*
D03*
D93*
X1069138Y738500D02*
D03*
X1073862D02*
D03*
X1073862Y723000D02*
D03*
X1069138D02*
D03*
X1080862Y714024D02*
D03*
X1076138D02*
D03*
D98*
X909278Y893138D02*
D03*
Y897862D02*
D03*
X914000D02*
D03*
Y893138D02*
D03*
X891500Y578862D02*
D03*
Y574138D02*
D03*
Y560138D02*
D03*
Y564862D02*
D03*
X904500Y893138D02*
D03*
Y897862D02*
D03*
D100*
X898500Y903461D02*
D03*
Y898539D02*
D03*
D101*
X955221Y622000D02*
D03*
X957780D02*
D03*
X942280Y721000D02*
D03*
X939721D02*
D03*
D105*
X894000Y892740D02*
D03*
X891441Y885260D02*
D03*
X896559D02*
D03*
D129*
X1087850Y714000D02*
D03*
X1094150D02*
D03*
X1062850Y714024D02*
D03*
X1069150D02*
D03*
D130*
X1092827Y730421D02*
Y733500D01*
X1087850Y714000D02*
Y724650D01*
X1087000Y725500D02*
X1087850Y724650D01*
X1081173Y730421D02*
X1092827D01*
X1081173D02*
Y733500D01*
Y728453D02*
Y730421D01*
X1092827Y724516D02*
X1099673D01*
Y746752D02*
X1100421Y747500D01*
X1099673Y724732D02*
Y746752D01*
X939976Y577000D02*
Y582502D01*
X945000Y587526D02*
Y625000D01*
X939976Y582502D02*
X945000Y587526D01*
X955500Y713625D02*
Y713630D01*
X951500Y717630D02*
X955500Y713630D01*
X906000Y803158D02*
X926795D01*
X928000Y798976D02*
Y801953D01*
X926795Y803158D02*
X928000Y801953D01*
Y798976D02*
X928461Y798516D01*
Y793000D02*
Y798516D01*
X928858Y785752D02*
Y793000D01*
X881500Y766462D02*
X930332Y717630D01*
X881500Y828905D02*
X896461Y843866D01*
X881500Y766462D02*
Y828905D01*
X896461Y843866D02*
Y879500D01*
X930332Y717630D02*
X951500D01*
X933951Y634150D02*
X935850D01*
X945000Y625000D01*
X920906Y900495D02*
Y903434D01*
X944362Y877039D02*
X946000D01*
X920906Y900495D02*
X944362Y877039D01*
X915379Y908961D02*
X920906Y903434D01*
X913232Y908961D02*
X915379D01*
X913329Y906305D02*
X915156D01*
X918000Y899500D02*
Y903461D01*
X915156Y906305D02*
X918000Y903461D01*
X913232Y906402D02*
X913329Y906305D01*
X918000Y899500D02*
X932500Y885000D01*
Y877039D02*
Y885000D01*
X914000Y897862D02*
X914253Y897609D01*
X916405D01*
X919009Y895004D01*
Y877039D02*
Y895004D01*
X843911Y603200D02*
X846250D01*
X1044837Y780563D02*
X1045000Y780726D01*
X1044622Y780348D02*
X1044837Y780563D01*
X1044622Y773000D02*
Y780348D01*
X886700Y603200D02*
X889089D01*
Y643500D02*
X891267D01*
X886700Y659000D02*
X889089D01*
X886700Y677600D02*
X889089D01*
Y683800D02*
X889209D01*
X843911D02*
X846250D01*
X843911Y677600D02*
X846250D01*
X841452Y668300D02*
X843911D01*
Y659000D02*
X843976Y659065D01*
X846250D01*
X841452Y649700D02*
X843911D01*
X841452Y643500D02*
X843911D01*
X889089Y649700D02*
X891267D01*
X889089Y668300D02*
X891267D01*
X841452Y680700D02*
X843911D01*
X896559Y879598D02*
Y885260D01*
X896461Y879500D02*
X896559Y879598D01*
X1044837Y780563D02*
X1045067Y780333D01*
X1044622Y780778D02*
X1044837Y780563D01*
X1069150Y714024D02*
X1076138D01*
X1068677D02*
X1069150D01*
X1044622Y786122D02*
X1045000Y786500D01*
X1044622Y780778D02*
Y786122D01*
X1081173Y726484D02*
Y728453D01*
X1080862Y714024D02*
Y720347D01*
X773376Y740096D02*
X776653D01*
X777122Y740565D01*
Y742917D01*
Y744914D01*
X773376Y745739D02*
X776298D01*
X777122Y744914D01*
X778106Y743902D02*
X781000D01*
X773244Y739965D02*
X773376Y740096D01*
X773244Y745870D02*
X773376Y745739D01*
X777122Y742917D02*
X778106Y743902D01*
X904500Y897862D02*
X909278D01*
X904500D02*
X904768Y898130D01*
Y903843D01*
D131*
X936000Y721000D02*
X939721D01*
X932500Y724500D02*
X932500D01*
X936000Y721000D01*
X915079Y741921D02*
X932500Y724500D01*
X915079Y741921D02*
Y785752D01*
D133*
X1087327Y747500D02*
X1095500D01*
D137*
X994000Y837500D02*
D03*
Y824000D02*
D03*
X904500Y759500D02*
D03*
X919000Y877000D02*
D03*
X932500Y877039D02*
D03*
X946000D02*
D03*
X1127500Y630500D02*
D03*
Y657500D02*
D03*
Y644000D02*
D03*
Y617000D02*
D03*
X876500Y567224D02*
D03*
X862500Y541000D02*
D03*
Y567224D02*
D03*
X876500Y541000D02*
D03*
X759000Y753500D02*
D03*
Y767000D02*
D03*
D138*
X1128500Y722504D02*
D03*
Y680496D02*
D03*
Y849504D02*
D03*
Y807496D02*
D03*
Y786004D02*
D03*
Y743996D02*
D03*
D139*
X1073744Y852000D02*
D03*
X1068232D02*
D03*
X1073744Y857512D02*
D03*
X1068232D02*
D03*
X1073744Y863024D02*
D03*
X1068232D02*
D03*
X1076500Y854756D02*
D03*
X1070988D02*
D03*
X1065476D02*
D03*
X1076500Y860268D02*
D03*
X1065476D02*
D03*
X1070988D02*
D03*
X785350Y822000D02*
D03*
X788500Y825150D02*
D03*
X791650Y822000D02*
D03*
X788500Y818850D02*
D03*
Y822000D02*
D03*
D140*
X793500Y590350D02*
D03*
Y669091D02*
D03*
D141*
X817161Y534500D02*
D03*
X791965D02*
D03*
X890661Y912220D02*
D03*
X865465D02*
D03*
X924784D02*
D03*
X949980D02*
D03*
D142*
X794721Y545130D02*
D03*
X814406D02*
D03*
X868221Y901591D02*
D03*
X887906D02*
D03*
X947224D02*
D03*
X927539D02*
D03*
D143*
X841201Y870500D02*
D03*
D144*
X822500D02*
D03*
X803799D02*
D03*
D145*
X780000Y765799D02*
D03*
Y753594D02*
D03*
X1112409Y552102D02*
D03*
X769890D02*
D03*
Y894610D02*
D03*
X966740Y894610D02*
D03*
D146*
X967181Y766307D02*
D03*
X1057102D02*
D03*
X935433Y779059D02*
D03*
X904567D02*
D03*
D147*
X973756Y773000D02*
D03*
X975724D02*
D03*
X977693D02*
D03*
X979661D02*
D03*
X981630D02*
D03*
X983598D02*
D03*
X985567D02*
D03*
X987535D02*
D03*
X989504D02*
D03*
X991472D02*
D03*
X993441D02*
D03*
X995409D02*
D03*
X997378D02*
D03*
X999347D02*
D03*
X1001315D02*
D03*
X1003284D02*
D03*
X1005252D02*
D03*
X1007220D02*
D03*
X1009189D02*
D03*
X1011158D02*
D03*
X1013126D02*
D03*
X1015094D02*
D03*
X1017063D02*
D03*
X1019032D02*
D03*
X1021000D02*
D03*
X1022968D02*
D03*
X1024937D02*
D03*
X1026906D02*
D03*
X1028874D02*
D03*
X1030842D02*
D03*
X1032811D02*
D03*
X1034779D02*
D03*
X1036748D02*
D03*
X1038717D02*
D03*
X1040685D02*
D03*
X1042653D02*
D03*
X1044622D02*
D03*
X1046591D02*
D03*
X1048559D02*
D03*
X1050528D02*
D03*
X928858Y785752D02*
D03*
X926890D02*
D03*
X924921D02*
D03*
X922953D02*
D03*
X920984D02*
D03*
X919016D02*
D03*
X917047D02*
D03*
X915079D02*
D03*
X913110D02*
D03*
X911142D02*
D03*
D148*
X913232Y903843D02*
D03*
X904768D02*
D03*
X913232Y906402D02*
D03*
X904768D02*
D03*
X913232Y908961D02*
D03*
X904768D02*
D03*
D149*
X909039Y916598D02*
D03*
D150*
X843911Y683800D02*
D03*
Y680700D02*
D03*
Y677600D02*
D03*
Y674500D02*
D03*
Y671400D02*
D03*
Y668300D02*
D03*
Y665200D02*
D03*
Y662100D02*
D03*
Y659000D02*
D03*
Y655900D02*
D03*
Y652800D02*
D03*
Y649700D02*
D03*
Y646600D02*
D03*
Y643500D02*
D03*
Y640400D02*
D03*
Y637300D02*
D03*
Y634200D02*
D03*
Y631100D02*
D03*
Y628000D02*
D03*
Y624900D02*
D03*
Y621800D02*
D03*
Y618700D02*
D03*
Y615600D02*
D03*
Y612500D02*
D03*
Y609400D02*
D03*
Y606300D02*
D03*
Y603200D02*
D03*
X889089D02*
D03*
Y606300D02*
D03*
Y609400D02*
D03*
Y612500D02*
D03*
Y615600D02*
D03*
Y618700D02*
D03*
Y621800D02*
D03*
Y624900D02*
D03*
Y628000D02*
D03*
Y631100D02*
D03*
Y634200D02*
D03*
Y637300D02*
D03*
Y640400D02*
D03*
Y643500D02*
D03*
Y646600D02*
D03*
Y649700D02*
D03*
Y652800D02*
D03*
Y655900D02*
D03*
Y659000D02*
D03*
Y662100D02*
D03*
Y665200D02*
D03*
Y668300D02*
D03*
Y671400D02*
D03*
Y674500D02*
D03*
Y677600D02*
D03*
Y680700D02*
D03*
Y683800D02*
D03*
D151*
X1087327Y747500D02*
D03*
X1070673D02*
D03*
D152*
X1095500D02*
D03*
X1100421D02*
D03*
D153*
X1087000Y725500D02*
D03*
D154*
X1092827Y720579D02*
D03*
Y722547D02*
D03*
Y724516D02*
D03*
Y726484D02*
D03*
Y728453D02*
D03*
Y730421D02*
D03*
X1081173D02*
D03*
Y728453D02*
D03*
Y726484D02*
D03*
Y724516D02*
D03*
Y722547D02*
D03*
Y720579D02*
D03*
D155*
X773244Y739965D02*
D03*
Y741933D02*
D03*
Y743902D02*
D03*
Y745870D02*
D03*
X781000D02*
D03*
Y743902D02*
D03*
Y741933D02*
D03*
Y739965D02*
D03*
D156*
X777122Y742917D02*
D03*
D157*
X1068453Y748500D02*
X1071071D01*
X1048559Y745941D02*
Y773000D01*
Y745941D02*
X1056157Y738343D01*
X1059500D01*
X1056343Y743657D02*
X1059500D01*
X1050528Y749472D02*
Y773000D01*
Y749472D02*
X1056343Y743657D01*
X1059500Y738343D02*
X1068980D01*
X1069138Y738500D01*
Y738611D02*
Y745965D01*
X1067087Y749865D02*
X1068453Y748500D01*
X1069138Y745965D02*
X1070673Y747500D01*
M02*
