G04*
G04 #@! TF.GenerationSoftware,Altium Limited,Altium Designer,20.2.5 (213)*
G04*
G04 Layer_Physical_Order=5*
G04 Layer_Color=16737945*
%FSLAX25Y25*%
%MOIN*%
G70*
G04*
G04 #@! TF.SameCoordinates,C1AB7A55-160F-408B-B7C6-D50FE72A222F*
G04*
G04*
G04 #@! TF.FilePolarity,Positive*
G04*
G01*
G75*
%ADD18C,0.01000*%
%ADD73C,0.01968*%
%ADD80C,0.00600*%
%ADD130C,0.00800*%
%ADD137C,0.06890*%
%ADD139C,0.01575*%
%ADD140C,0.08563*%
G04:AMPARAMS|DCode=141|XSize=70.87mil|YSize=74.8mil|CornerRadius=17.72mil|HoleSize=0mil|Usage=FLASHONLY|Rotation=180.000|XOffset=0mil|YOffset=0mil|HoleType=Round|Shape=RoundedRectangle|*
%AMROUNDEDRECTD141*
21,1,0.07087,0.03937,0,0,180.0*
21,1,0.03543,0.07480,0,0,180.0*
1,1,0.03543,-0.01772,0.01968*
1,1,0.03543,0.01772,0.01968*
1,1,0.03543,0.01772,-0.01968*
1,1,0.03543,-0.01772,-0.01968*
%
%ADD141ROUNDEDRECTD141*%
%ADD142C,0.05709*%
%ADD144C,0.09744*%
%ADD145C,0.06000*%
G36*
X967288Y919954D02*
X969754Y919464D01*
X972160Y918734D01*
X974483Y917772D01*
X976701Y916586D01*
X978791Y915190D01*
X980735Y913594D01*
X981624Y912706D01*
X981624Y912706D01*
X981721Y912770D01*
X993829Y900178D01*
X993795Y900137D01*
X993795Y900137D01*
X994705Y899271D01*
X996646Y897678D01*
X998734Y896282D01*
X1000949Y895099D01*
X1003269Y894138D01*
X1005672Y893409D01*
X1008136Y892919D01*
X1010635Y892673D01*
X1011890Y892642D01*
X1011890Y892591D01*
X1112500Y892642D01*
X1113667D01*
X1116169Y892395D01*
X1118635Y891905D01*
X1121041Y891175D01*
X1123364Y890213D01*
X1125581Y889027D01*
X1127672Y887630D01*
X1129616Y886035D01*
X1131394Y884258D01*
X1132989Y882314D01*
X1134386Y880223D01*
X1135571Y878006D01*
X1136533Y875683D01*
X1137263Y873277D01*
X1137753Y870811D01*
X1138000Y868308D01*
Y867051D01*
Y552102D01*
Y550845D01*
X1137753Y548343D01*
X1137263Y545877D01*
X1136533Y543471D01*
X1135571Y541148D01*
X1134386Y538930D01*
X1132989Y536840D01*
X1131394Y534896D01*
X1129616Y533118D01*
X1127672Y531523D01*
X1125581Y530126D01*
X1123364Y528941D01*
X1121041Y527979D01*
X1118635Y527249D01*
X1116169Y526758D01*
X1113667Y526512D01*
X768633D01*
X766130Y526758D01*
X763664Y527249D01*
X761258Y527979D01*
X758935Y528941D01*
X756718Y530126D01*
X754627Y531523D01*
X752683Y533118D01*
X750906Y534896D01*
X749310Y536840D01*
X747914Y538930D01*
X746728Y541148D01*
X745766Y543471D01*
X745036Y545877D01*
X744546Y548343D01*
X744299Y550845D01*
Y552102D01*
Y894610D01*
Y895867D01*
X744546Y898370D01*
X745036Y900836D01*
X745766Y903242D01*
X746728Y905565D01*
X747914Y907782D01*
X749310Y909873D01*
X750906Y911817D01*
X752683Y913594D01*
X754627Y915190D01*
X756718Y916586D01*
X758935Y917772D01*
X761258Y918734D01*
X763664Y919464D01*
X766130Y919954D01*
X768633Y920201D01*
X964786D01*
X967288Y919954D01*
D02*
G37*
%LPC*%
G36*
X909000Y915360D02*
X908479Y915257D01*
X908038Y914962D01*
X907743Y914521D01*
X907640Y914000D01*
X907743Y913479D01*
X908038Y913038D01*
X908479Y912743D01*
X909000Y912640D01*
X909521Y912743D01*
X909962Y913038D01*
X910257Y913479D01*
X910360Y914000D01*
X910257Y914521D01*
X909962Y914962D01*
X909521Y915257D01*
X909000Y915360D01*
D02*
G37*
G36*
X898500Y904821D02*
X897979Y904718D01*
X897538Y904423D01*
X897243Y903981D01*
X897140Y903461D01*
X897243Y902940D01*
X897538Y902499D01*
X897979Y902204D01*
X898500Y902100D01*
X899021Y902204D01*
X899462Y902499D01*
X899757Y902940D01*
X899860Y903461D01*
X899757Y903981D01*
X899462Y904423D01*
X899021Y904718D01*
X898500Y904821D01*
D02*
G37*
G36*
X914000Y899223D02*
X913479Y899119D01*
X913038Y898824D01*
X912743Y898383D01*
X912640Y897862D01*
X912743Y897342D01*
X913038Y896900D01*
X913479Y896605D01*
X914000Y896502D01*
X914521Y896605D01*
X914962Y896900D01*
X915257Y897342D01*
X915360Y897862D01*
X915257Y898383D01*
X914962Y898824D01*
X914521Y899119D01*
X914000Y899223D01*
D02*
G37*
G36*
X878000Y897360D02*
X877479Y897257D01*
X877038Y896962D01*
X876743Y896521D01*
X876640Y896000D01*
X876743Y895479D01*
X877038Y895038D01*
X877479Y894743D01*
X878000Y894640D01*
X878521Y894743D01*
X878962Y895038D01*
X879257Y895479D01*
X879360Y896000D01*
X879257Y896521D01*
X878962Y896962D01*
X878521Y897257D01*
X878000Y897360D01*
D02*
G37*
G36*
X943207Y896494D02*
X942686Y896391D01*
X942245Y896096D01*
X941950Y895654D01*
X941846Y895134D01*
X941950Y894613D01*
X942245Y894172D01*
X942686Y893877D01*
X943207Y893773D01*
X943727Y893877D01*
X944169Y894172D01*
X944464Y894613D01*
X944567Y895134D01*
X944464Y895654D01*
X944169Y896096D01*
X943727Y896391D01*
X943207Y896494D01*
D02*
G37*
G36*
X937866D02*
X937346Y896391D01*
X936904Y896096D01*
X936609Y895654D01*
X936506Y895134D01*
X936609Y894613D01*
X936904Y894172D01*
X937346Y893877D01*
X937866Y893773D01*
X938387Y893877D01*
X938828Y894172D01*
X939123Y894613D01*
X939227Y895134D01*
X939123Y895654D01*
X938828Y896096D01*
X938387Y896391D01*
X937866Y896494D01*
D02*
G37*
G36*
X873500Y893100D02*
X872979Y892997D01*
X872538Y892702D01*
X872243Y892261D01*
X872140Y891740D01*
X872243Y891220D01*
X872538Y890778D01*
X872979Y890483D01*
X873500Y890380D01*
X874021Y890483D01*
X874462Y890778D01*
X874757Y891220D01*
X874860Y891740D01*
X874757Y892261D01*
X874462Y892702D01*
X874021Y892997D01*
X873500Y893100D01*
D02*
G37*
G36*
X769890Y906809D02*
X767981Y906659D01*
X766120Y906212D01*
X764352Y905479D01*
X762720Y904479D01*
X761264Y903236D01*
X760021Y901780D01*
X759021Y900148D01*
X758288Y898380D01*
X757841Y896519D01*
X757691Y894610D01*
X757841Y892702D01*
X758288Y890841D01*
X759021Y889072D01*
X760021Y887440D01*
X761264Y885985D01*
X762720Y884741D01*
X764352Y883741D01*
X766120Y883009D01*
X767981Y882562D01*
X769890Y882412D01*
X771798Y882562D01*
X773659Y883009D01*
X775428Y883741D01*
X777060Y884741D01*
X778515Y885985D01*
X779759Y887440D01*
X780759Y889072D01*
X781491Y890841D01*
X781938Y892702D01*
X782088Y894610D01*
X781938Y896519D01*
X781491Y898380D01*
X780759Y900148D01*
X779759Y901780D01*
X778515Y903236D01*
X777060Y904479D01*
X775428Y905479D01*
X773659Y906212D01*
X771798Y906659D01*
X769890Y906809D01*
D02*
G37*
G36*
X966740Y906809D02*
X964832Y906658D01*
X962971Y906212D01*
X961202Y905479D01*
X959570Y904479D01*
X958114Y903236D01*
X956871Y901780D01*
X955871Y900148D01*
X955139Y898380D01*
X954692Y896518D01*
X954541Y894610D01*
X954692Y892702D01*
X955139Y890840D01*
X955871Y889072D01*
X956871Y887440D01*
X958114Y885984D01*
X959570Y884741D01*
X961202Y883741D01*
X962971Y883008D01*
X964832Y882562D01*
X966740Y882411D01*
X968648Y882562D01*
X970510Y883008D01*
X972278Y883741D01*
X973910Y884741D01*
X975366Y885984D01*
X976609Y887440D01*
X977609Y889072D01*
X978342Y890840D01*
X978789Y892702D01*
X978939Y894610D01*
X978789Y896518D01*
X978342Y898380D01*
X977609Y900148D01*
X976609Y901780D01*
X975366Y903236D01*
X973910Y904479D01*
X972278Y905479D01*
X970510Y906212D01*
X968648Y906658D01*
X966740Y906809D01*
D02*
G37*
G36*
X1111343Y884266D02*
X1110822Y884162D01*
X1110381Y883867D01*
X1110086Y883426D01*
X1109982Y882905D01*
X1110086Y882385D01*
X1110381Y881944D01*
X1110822Y881649D01*
X1111343Y881545D01*
X1111863Y881649D01*
X1112304Y881944D01*
X1112599Y882385D01*
X1112703Y882905D01*
X1112599Y883426D01*
X1112304Y883867D01*
X1111863Y884162D01*
X1111343Y884266D01*
D02*
G37*
G36*
X1024075Y881116D02*
X1023554Y881013D01*
X1023113Y880718D01*
X1022818Y880276D01*
X1022714Y879756D01*
X1022818Y879235D01*
X1023113Y878794D01*
X1023554Y878499D01*
X1024075Y878395D01*
X1024595Y878499D01*
X1025037Y878794D01*
X1025332Y879235D01*
X1025435Y879756D01*
X1025332Y880276D01*
X1025037Y880718D01*
X1024595Y881013D01*
X1024075Y881116D01*
D02*
G37*
G36*
X1111343Y879266D02*
X1110822Y879162D01*
X1110381Y878867D01*
X1110086Y878426D01*
X1109982Y877905D01*
X1110086Y877385D01*
X1110381Y876944D01*
X1110822Y876649D01*
X1111343Y876545D01*
X1111863Y876649D01*
X1112304Y876944D01*
X1112599Y877385D01*
X1112703Y877905D01*
X1112599Y878426D01*
X1112304Y878867D01*
X1111863Y879162D01*
X1111343Y879266D01*
D02*
G37*
G36*
X871528Y877860D02*
X871007Y877757D01*
X870566Y877462D01*
X870271Y877021D01*
X870167Y876500D01*
X870271Y875979D01*
X870566Y875538D01*
X871007Y875243D01*
X871528Y875140D01*
X872048Y875243D01*
X872489Y875538D01*
X872784Y875979D01*
X872888Y876500D01*
X872784Y877021D01*
X872489Y877462D01*
X872048Y877757D01*
X871528Y877860D01*
D02*
G37*
G36*
X932500Y880867D02*
X931509Y880737D01*
X930586Y880354D01*
X929793Y879746D01*
X929185Y878953D01*
X928803Y878030D01*
X928672Y877039D01*
X928676Y877009D01*
X928660Y876475D01*
X928602Y875961D01*
X928502Y875460D01*
X928360Y874970D01*
X928176Y874491D01*
X927950Y874023D01*
X927680Y873565D01*
X927366Y873116D01*
X927009Y872677D01*
X926598Y872239D01*
X926586Y872207D01*
X925683Y871304D01*
X925517Y871056D01*
X925459Y870763D01*
Y711654D01*
X925517Y711361D01*
X925683Y711113D01*
X960735Y676061D01*
Y671618D01*
X960721Y671586D01*
X960718Y671381D01*
X960711Y671203D01*
X960678Y670887D01*
X960657Y670767D01*
X960632Y670664D01*
X960605Y670583D01*
X960579Y670525D01*
X960558Y670490D01*
X960522Y670448D01*
X960516Y670429D01*
X960243Y670021D01*
X960140Y669500D01*
X960243Y668979D01*
X960538Y668538D01*
X960979Y668243D01*
X961500Y668140D01*
X962021Y668243D01*
X962462Y668538D01*
X962757Y668979D01*
X962860Y669500D01*
X962757Y670021D01*
X962484Y670429D01*
X962478Y670448D01*
X962442Y670490D01*
X962421Y670525D01*
X962395Y670583D01*
X962368Y670664D01*
X962343Y670767D01*
X962322Y670883D01*
X962282Y671388D01*
X962279Y671586D01*
X962265Y671618D01*
Y676378D01*
X962206Y676671D01*
X962041Y676919D01*
X926989Y711971D01*
Y870447D01*
X927668Y871126D01*
X927699Y871138D01*
X928138Y871548D01*
X928577Y871906D01*
X929025Y872219D01*
X929484Y872489D01*
X929952Y872716D01*
X930431Y872900D01*
X930920Y873042D01*
X931422Y873142D01*
X931935Y873200D01*
X932469Y873216D01*
X932500Y873212D01*
X933491Y873342D01*
X934414Y873725D01*
X935207Y874333D01*
X935815Y875126D01*
X936197Y876049D01*
X936328Y877039D01*
X936197Y878030D01*
X935815Y878953D01*
X935207Y879746D01*
X934414Y880354D01*
X933491Y880737D01*
X932500Y880867D01*
D02*
G37*
G36*
X919000Y880828D02*
X918009Y880697D01*
X917086Y880315D01*
X916294Y879706D01*
X915685Y878914D01*
X915303Y877991D01*
X915172Y877000D01*
X915303Y876009D01*
X915685Y875086D01*
X916294Y874294D01*
X916753Y873941D01*
X916735Y873852D01*
Y713000D01*
X916794Y712707D01*
X916959Y712459D01*
X950274Y679145D01*
X950286Y679084D01*
X950243Y679021D01*
X950140Y678500D01*
X950243Y677979D01*
X950538Y677538D01*
X950979Y677243D01*
X951500Y677140D01*
X952021Y677243D01*
X952462Y677538D01*
X952757Y677979D01*
X952860Y678500D01*
X952757Y679021D01*
X952462Y679462D01*
X952021Y679757D01*
X951688Y679823D01*
X951546Y680035D01*
X918265Y713317D01*
Y872890D01*
X918641Y873220D01*
X919000Y873172D01*
X919991Y873303D01*
X920914Y873685D01*
X921706Y874294D01*
X922315Y875086D01*
X922697Y876009D01*
X922828Y877000D01*
X922697Y877991D01*
X922315Y878914D01*
X921706Y879706D01*
X920914Y880315D01*
X919991Y880697D01*
X919000Y880828D01*
D02*
G37*
G36*
X1111261Y874306D02*
X1110741Y874202D01*
X1110322Y873922D01*
X1110306Y873917D01*
X1110241Y873859D01*
X1110182Y873818D01*
X1110108Y873778D01*
X1110019Y873741D01*
X1109913Y873708D01*
X1109791Y873679D01*
X1109657Y873656D01*
X1109323Y873627D01*
X1109136Y873624D01*
X1109099Y873608D01*
X1049414D01*
X1049160Y873557D01*
X1048946Y873414D01*
X1031478Y855946D01*
X1031442Y855933D01*
X1031167Y855679D01*
X1031049Y855585D01*
X1030934Y855503D01*
X1030828Y855437D01*
X1030729Y855386D01*
X1030639Y855349D01*
X1030559Y855325D01*
X1030489Y855312D01*
X1030402Y855307D01*
X1030386Y855299D01*
X1029893Y855201D01*
X1029451Y854906D01*
X1029157Y854465D01*
X1029053Y853944D01*
X1029157Y853424D01*
X1029451Y852982D01*
X1029893Y852687D01*
X1030413Y852584D01*
X1030934Y852687D01*
X1031375Y852982D01*
X1031670Y853424D01*
X1031768Y853917D01*
X1031776Y853933D01*
X1031781Y854020D01*
X1031794Y854090D01*
X1031818Y854170D01*
X1031855Y854260D01*
X1031906Y854358D01*
X1031972Y854465D01*
X1032051Y854576D01*
X1032266Y854832D01*
X1032397Y854968D01*
X1032411Y855005D01*
X1049689Y872282D01*
X1109093D01*
X1109128Y872266D01*
X1109502Y872252D01*
X1109652Y872235D01*
X1109791Y872211D01*
X1109913Y872182D01*
X1110019Y872149D01*
X1110109Y872112D01*
X1110182Y872072D01*
X1110241Y872032D01*
X1110306Y871974D01*
X1110322Y871968D01*
X1110741Y871688D01*
X1111261Y871585D01*
X1111782Y871688D01*
X1112223Y871983D01*
X1112518Y872425D01*
X1112622Y872945D01*
X1112518Y873466D01*
X1112223Y873907D01*
X1111782Y874202D01*
X1111261Y874306D01*
D02*
G37*
G36*
X885984Y873118D02*
X885464Y873015D01*
X885022Y872720D01*
X884727Y872278D01*
X884624Y871758D01*
X884727Y871237D01*
X885022Y870796D01*
X885464Y870501D01*
X885984Y870397D01*
X886505Y870501D01*
X886946Y870796D01*
X887241Y871237D01*
X887345Y871758D01*
X887241Y872278D01*
X886946Y872720D01*
X886505Y873015D01*
X885984Y873118D01*
D02*
G37*
G36*
X1111261Y869306D02*
X1110741Y869202D01*
X1110322Y868922D01*
X1110306Y868917D01*
X1110241Y868859D01*
X1110182Y868818D01*
X1110108Y868778D01*
X1110019Y868741D01*
X1109913Y868708D01*
X1109791Y868679D01*
X1109657Y868656D01*
X1109323Y868627D01*
X1109136Y868624D01*
X1109099Y868608D01*
X1049202D01*
X1048948Y868557D01*
X1048733Y868414D01*
X1028321Y848002D01*
X1028286Y847989D01*
X1028010Y847735D01*
X1027892Y847640D01*
X1027778Y847559D01*
X1027671Y847493D01*
X1027572Y847442D01*
X1027483Y847404D01*
X1027403Y847380D01*
X1027332Y847367D01*
X1027245Y847362D01*
X1027230Y847355D01*
X1026736Y847257D01*
X1026295Y846962D01*
X1026000Y846521D01*
X1025896Y846000D01*
X1026000Y845479D01*
X1026295Y845038D01*
X1026736Y844743D01*
X1027257Y844640D01*
X1027777Y844743D01*
X1028219Y845038D01*
X1028514Y845479D01*
X1028612Y845973D01*
X1028619Y845988D01*
X1028624Y846076D01*
X1028637Y846146D01*
X1028661Y846226D01*
X1028698Y846316D01*
X1028749Y846414D01*
X1028816Y846521D01*
X1028894Y846632D01*
X1029110Y846888D01*
X1029240Y847023D01*
X1029255Y847060D01*
X1049476Y867282D01*
X1109093D01*
X1109128Y867266D01*
X1109502Y867251D01*
X1109652Y867235D01*
X1109791Y867211D01*
X1109913Y867182D01*
X1110019Y867149D01*
X1110109Y867112D01*
X1110182Y867072D01*
X1110241Y867032D01*
X1110306Y866973D01*
X1110322Y866968D01*
X1110741Y866688D01*
X1111261Y866585D01*
X1111782Y866688D01*
X1112223Y866983D01*
X1112518Y867424D01*
X1112622Y867945D01*
X1112518Y868466D01*
X1112223Y868907D01*
X1111782Y869202D01*
X1111261Y869306D01*
D02*
G37*
G36*
X1018000Y868038D02*
X1017479Y867934D01*
X1017038Y867639D01*
X1016743Y867198D01*
X1016640Y866677D01*
X1016743Y866157D01*
X1017038Y865715D01*
X1017479Y865420D01*
X1018000Y865317D01*
X1018521Y865420D01*
X1018962Y865715D01*
X1019257Y866157D01*
X1019360Y866677D01*
X1019257Y867198D01*
X1018962Y867639D01*
X1018521Y867934D01*
X1018000Y868038D01*
D02*
G37*
G36*
X846423Y875722D02*
X835979D01*
Y865278D01*
X846423D01*
Y875722D01*
D02*
G37*
G36*
X822500Y875767D02*
X821137Y875588D01*
X819866Y875061D01*
X818776Y874224D01*
X817939Y873133D01*
X817412Y871863D01*
X817233Y870500D01*
X817412Y869137D01*
X817939Y867867D01*
X818776Y866776D01*
X819866Y865939D01*
X821137Y865412D01*
X822500Y865233D01*
X823863Y865412D01*
X825134Y865939D01*
X826224Y866776D01*
X827061Y867867D01*
X827588Y869137D01*
X827767Y870500D01*
X827588Y871863D01*
X827061Y873133D01*
X826224Y874224D01*
X825134Y875061D01*
X823863Y875588D01*
X822500Y875767D01*
D02*
G37*
G36*
X1111230Y859349D02*
X1110709Y859245D01*
X1110268Y858950D01*
X1109973Y858509D01*
X1109869Y857988D01*
X1109973Y857468D01*
X1110268Y857027D01*
X1110709Y856732D01*
X1111230Y856628D01*
X1111750Y856732D01*
X1112192Y857027D01*
X1112487Y857468D01*
X1112590Y857988D01*
X1112487Y858509D01*
X1112192Y858950D01*
X1111750Y859245D01*
X1111230Y859349D01*
D02*
G37*
G36*
X1128500Y855533D02*
X1127324Y855417D01*
X1126193Y855074D01*
X1125151Y854517D01*
X1124237Y853767D01*
X1123487Y852853D01*
X1122930Y851811D01*
X1122587Y850680D01*
X1122471Y849504D01*
X1122587Y848328D01*
X1122930Y847197D01*
X1123487Y846155D01*
X1124237Y845241D01*
X1125151Y844491D01*
X1126193Y843934D01*
X1127324Y843591D01*
X1128500Y843475D01*
X1129676Y843591D01*
X1130807Y843934D01*
X1131849Y844491D01*
X1132763Y845241D01*
X1133513Y846155D01*
X1134070Y847197D01*
X1134413Y848328D01*
X1134529Y849504D01*
X1134413Y850680D01*
X1134070Y851811D01*
X1133513Y852853D01*
X1132763Y853767D01*
X1131849Y854517D01*
X1130807Y855074D01*
X1129676Y855417D01*
X1128500Y855533D01*
D02*
G37*
G36*
X866000Y844998D02*
X865479Y844895D01*
X865038Y844600D01*
X864743Y844158D01*
X864640Y843638D01*
X864743Y843117D01*
X865038Y842676D01*
X865479Y842381D01*
X866000Y842277D01*
X866521Y842381D01*
X866962Y842676D01*
X867257Y843117D01*
X867360Y843638D01*
X867257Y844158D01*
X866962Y844600D01*
X866521Y844895D01*
X866000Y844998D01*
D02*
G37*
G36*
X1111500Y839360D02*
X1110979Y839257D01*
X1110538Y838962D01*
X1110243Y838521D01*
X1110140Y838000D01*
X1110243Y837479D01*
X1110538Y837038D01*
X1110979Y836743D01*
X1111500Y836640D01*
X1112021Y836743D01*
X1112462Y837038D01*
X1112757Y837479D01*
X1112860Y838000D01*
X1112757Y838521D01*
X1112462Y838962D01*
X1112021Y839257D01*
X1111500Y839360D01*
D02*
G37*
G36*
X994000Y841328D02*
X993009Y841197D01*
X992086Y840815D01*
X991294Y840207D01*
X990685Y839414D01*
X990303Y838491D01*
X990172Y837500D01*
X990303Y836509D01*
X990685Y835586D01*
X991294Y834793D01*
X992086Y834185D01*
X993009Y833803D01*
X994000Y833672D01*
X994991Y833803D01*
X995914Y834185D01*
X996706Y834793D01*
X997315Y835586D01*
X997697Y836509D01*
X997828Y837500D01*
X997697Y838491D01*
X997315Y839414D01*
X996706Y840207D01*
X995914Y840815D01*
X994991Y841197D01*
X994000Y841328D01*
D02*
G37*
G36*
X901480Y836246D02*
X900960Y836143D01*
X900518Y835848D01*
X900224Y835406D01*
X900120Y834886D01*
X900224Y834365D01*
X900518Y833924D01*
X900960Y833629D01*
X901480Y833525D01*
X902001Y833629D01*
X902442Y833924D01*
X902737Y834365D01*
X902841Y834886D01*
X902737Y835406D01*
X902442Y835848D01*
X902001Y836143D01*
X901480Y836246D01*
D02*
G37*
G36*
X1042445Y829266D02*
X1041924Y829162D01*
X1041483Y828867D01*
X1041188Y828426D01*
X1041084Y827905D01*
X1041188Y827385D01*
X1041483Y826944D01*
X1041924Y826649D01*
X1042445Y826545D01*
X1042966Y826649D01*
X1043407Y826944D01*
X1043702Y827385D01*
X1043805Y827905D01*
X1043702Y828426D01*
X1043407Y828867D01*
X1042966Y829162D01*
X1042445Y829266D01*
D02*
G37*
G36*
X901847Y827360D02*
X901326Y827257D01*
X900885Y826962D01*
X900590Y826521D01*
X900486Y826000D01*
X900590Y825479D01*
X900885Y825038D01*
X901326Y824743D01*
X901847Y824640D01*
X902367Y824743D01*
X902808Y825038D01*
X903103Y825479D01*
X903207Y826000D01*
X903103Y826521D01*
X902808Y826962D01*
X902367Y827257D01*
X901847Y827360D01*
D02*
G37*
G36*
X1132405Y827157D02*
X1131885Y827054D01*
X1131444Y826759D01*
X1131149Y826318D01*
X1131045Y825797D01*
X1131149Y825276D01*
X1131444Y824835D01*
X1131885Y824540D01*
X1132405Y824436D01*
X1132926Y824540D01*
X1133367Y824835D01*
X1133662Y825276D01*
X1133766Y825797D01*
X1133662Y826318D01*
X1133367Y826759D01*
X1132926Y827054D01*
X1132405Y827157D01*
D02*
G37*
G36*
X1042445Y824266D02*
X1041924Y824162D01*
X1041483Y823867D01*
X1041188Y823426D01*
X1041084Y822906D01*
X1041188Y822385D01*
X1041483Y821944D01*
X1041924Y821649D01*
X1042445Y821545D01*
X1042966Y821649D01*
X1043407Y821944D01*
X1043702Y822385D01*
X1043805Y822906D01*
X1043702Y823426D01*
X1043407Y823867D01*
X1042966Y824162D01*
X1042445Y824266D01*
D02*
G37*
G36*
X1111585Y824168D02*
X1111064Y824064D01*
X1110623Y823769D01*
X1110328Y823328D01*
X1110224Y822807D01*
X1110328Y822287D01*
X1110623Y821845D01*
X1111064Y821550D01*
X1111585Y821447D01*
X1112105Y821550D01*
X1112547Y821845D01*
X1112842Y822287D01*
X1112945Y822807D01*
X1112842Y823328D01*
X1112547Y823769D01*
X1112105Y824064D01*
X1111585Y824168D01*
D02*
G37*
G36*
X994000Y827828D02*
X993009Y827697D01*
X992086Y827315D01*
X991294Y826707D01*
X990685Y825914D01*
X990303Y824991D01*
X990172Y824000D01*
X990303Y823009D01*
X990685Y822086D01*
X991294Y821294D01*
X992086Y820685D01*
X993009Y820303D01*
X994000Y820172D01*
X994991Y820303D01*
X995914Y820685D01*
X996706Y821294D01*
X997315Y822086D01*
X997697Y823009D01*
X997828Y824000D01*
X997697Y824991D01*
X997315Y825914D01*
X996706Y826707D01*
X995914Y827315D01*
X994991Y827697D01*
X994000Y827828D01*
D02*
G37*
G36*
X1064394Y819345D02*
X1063873Y819241D01*
X1063432Y818946D01*
X1063137Y818505D01*
X1063033Y817984D01*
X1063137Y817464D01*
X1063432Y817022D01*
X1063873Y816727D01*
X1064394Y816624D01*
X1064914Y816727D01*
X1065356Y817022D01*
X1065650Y817464D01*
X1065754Y817984D01*
X1065650Y818505D01*
X1065356Y818946D01*
X1064914Y819241D01*
X1064394Y819345D01*
D02*
G37*
G36*
X1044221Y811640D02*
X1043700Y811536D01*
X1043258Y811242D01*
X1042964Y810800D01*
X1042860Y810279D01*
X1042964Y809759D01*
X1043258Y809318D01*
X1043700Y809023D01*
X1044221Y808919D01*
X1044741Y809023D01*
X1045182Y809318D01*
X1045477Y809759D01*
X1045581Y810279D01*
X1045477Y810800D01*
X1045182Y811242D01*
X1044741Y811536D01*
X1044221Y811640D01*
D02*
G37*
G36*
X793374Y809873D02*
X792853Y809769D01*
X792412Y809474D01*
X792117Y809033D01*
X792013Y808512D01*
X792117Y807992D01*
X792412Y807550D01*
X792853Y807255D01*
X793374Y807152D01*
X793894Y807255D01*
X794336Y807550D01*
X794630Y807992D01*
X794734Y808512D01*
X794630Y809033D01*
X794336Y809474D01*
X793894Y809769D01*
X793374Y809873D01*
D02*
G37*
G36*
X824575Y806086D02*
X824054Y805983D01*
X823613Y805688D01*
X823318Y805246D01*
X823214Y804726D01*
X823318Y804205D01*
X823613Y803764D01*
X824054Y803469D01*
X824575Y803365D01*
X825095Y803469D01*
X825537Y803764D01*
X825832Y804205D01*
X825935Y804726D01*
X825832Y805246D01*
X825537Y805688D01*
X825095Y805983D01*
X824575Y806086D01*
D02*
G37*
G36*
X819224D02*
X818704Y805983D01*
X818262Y805688D01*
X817968Y805246D01*
X817864Y804726D01*
X817968Y804205D01*
X818262Y803764D01*
X818704Y803469D01*
X819224Y803365D01*
X819745Y803469D01*
X820186Y803764D01*
X820481Y804205D01*
X820585Y804726D01*
X820481Y805246D01*
X820186Y805688D01*
X819745Y805983D01*
X819224Y806086D01*
D02*
G37*
G36*
X814038D02*
X813517Y805983D01*
X813076Y805688D01*
X812781Y805246D01*
X812678Y804726D01*
X812781Y804205D01*
X813076Y803764D01*
X813517Y803469D01*
X814038Y803365D01*
X814559Y803469D01*
X815000Y803764D01*
X815295Y804205D01*
X815398Y804726D01*
X815295Y805246D01*
X815000Y805688D01*
X814559Y805983D01*
X814038Y806086D01*
D02*
G37*
G36*
X808714D02*
X808193Y805983D01*
X807752Y805688D01*
X807457Y805246D01*
X807354Y804726D01*
X807457Y804205D01*
X807752Y803764D01*
X808193Y803469D01*
X808714Y803365D01*
X809235Y803469D01*
X809676Y803764D01*
X809971Y804205D01*
X810074Y804726D01*
X809971Y805246D01*
X809676Y805688D01*
X809235Y805983D01*
X808714Y806086D01*
D02*
G37*
G36*
X906000Y804518D02*
X905479Y804414D01*
X905038Y804119D01*
X904743Y803678D01*
X904640Y803158D01*
X904743Y802637D01*
X905038Y802195D01*
X905479Y801901D01*
X906000Y801797D01*
X906521Y801901D01*
X906962Y802195D01*
X907257Y802637D01*
X907360Y803158D01*
X907257Y803678D01*
X906962Y804119D01*
X906521Y804414D01*
X906000Y804518D01*
D02*
G37*
G36*
X1128500Y813525D02*
X1127324Y813409D01*
X1126193Y813066D01*
X1125151Y812509D01*
X1124237Y811759D01*
X1123487Y810845D01*
X1122930Y809803D01*
X1122587Y808672D01*
X1122471Y807496D01*
X1122587Y806320D01*
X1122930Y805189D01*
X1123487Y804147D01*
X1124237Y803233D01*
X1125151Y802483D01*
X1126193Y801926D01*
X1127324Y801583D01*
X1128500Y801467D01*
X1129676Y801583D01*
X1130807Y801926D01*
X1131849Y802483D01*
X1132763Y803233D01*
X1133513Y804147D01*
X1134070Y805189D01*
X1134413Y806320D01*
X1134529Y807496D01*
X1134413Y808672D01*
X1134070Y809803D01*
X1133513Y810845D01*
X1132763Y811759D01*
X1131849Y812509D01*
X1130807Y813066D01*
X1129676Y813409D01*
X1128500Y813525D01*
D02*
G37*
G36*
X1093872Y802719D02*
X1093351Y802615D01*
X1092910Y802320D01*
X1092615Y801879D01*
X1092511Y801358D01*
X1092615Y800838D01*
X1092910Y800396D01*
X1093351Y800101D01*
X1093872Y799998D01*
X1094392Y800101D01*
X1094833Y800396D01*
X1095128Y800838D01*
X1095232Y801358D01*
X1095128Y801879D01*
X1094833Y802320D01*
X1094392Y802615D01*
X1093872Y802719D01*
D02*
G37*
G36*
X1060587D02*
X1060066Y802615D01*
X1059625Y802320D01*
X1059330Y801879D01*
X1059226Y801358D01*
X1059330Y800838D01*
X1059625Y800396D01*
X1060066Y800101D01*
X1060587Y799998D01*
X1061107Y800101D01*
X1061549Y800396D01*
X1061843Y800838D01*
X1061947Y801358D01*
X1061843Y801879D01*
X1061549Y802320D01*
X1061107Y802615D01*
X1060587Y802719D01*
D02*
G37*
G36*
X803988Y801360D02*
X803468Y801257D01*
X803026Y800962D01*
X802731Y800521D01*
X802628Y800000D01*
X802731Y799479D01*
X803026Y799038D01*
X803468Y798743D01*
X803988Y798640D01*
X804509Y798743D01*
X804950Y799038D01*
X805245Y799479D01*
X805349Y800000D01*
X805245Y800521D01*
X804950Y800962D01*
X804509Y801257D01*
X803988Y801360D01*
D02*
G37*
G36*
X863118Y795900D02*
X862597Y795796D01*
X862156Y795501D01*
X861861Y795060D01*
X861758Y794539D01*
X861861Y794019D01*
X862156Y793577D01*
X862597Y793283D01*
X863118Y793179D01*
X863639Y793283D01*
X864080Y793577D01*
X864375Y794019D01*
X864478Y794539D01*
X864375Y795060D01*
X864080Y795501D01*
X863639Y795796D01*
X863118Y795900D01*
D02*
G37*
G36*
X847882D02*
X847361Y795796D01*
X846920Y795501D01*
X846625Y795060D01*
X846521Y794539D01*
X846625Y794019D01*
X846920Y793577D01*
X847361Y793283D01*
X847882Y793179D01*
X848403Y793283D01*
X848844Y793577D01*
X849139Y794019D01*
X849242Y794539D01*
X849139Y795060D01*
X848844Y795501D01*
X848403Y795796D01*
X847882Y795900D01*
D02*
G37*
G36*
X803988Y795860D02*
X803468Y795757D01*
X803026Y795462D01*
X802731Y795021D01*
X802628Y794500D01*
X802731Y793979D01*
X803026Y793538D01*
X803468Y793243D01*
X803988Y793140D01*
X804509Y793243D01*
X804950Y793538D01*
X805245Y793979D01*
X805349Y794500D01*
X805245Y795021D01*
X804950Y795462D01*
X804509Y795757D01*
X803988Y795860D01*
D02*
G37*
G36*
X1045000Y787860D02*
X1044479Y787757D01*
X1044038Y787462D01*
X1043743Y787021D01*
X1043640Y786500D01*
X1043743Y785979D01*
X1044038Y785538D01*
X1044479Y785243D01*
X1045000Y785140D01*
X1045521Y785243D01*
X1045962Y785538D01*
X1046257Y785979D01*
X1046360Y786500D01*
X1046257Y787021D01*
X1045962Y787462D01*
X1045521Y787757D01*
X1045000Y787860D01*
D02*
G37*
G36*
X1018357Y786813D02*
X1017836Y786710D01*
X1017395Y786415D01*
X1017100Y785973D01*
X1016996Y785453D01*
X1017100Y784932D01*
X1017395Y784491D01*
X1017836Y784196D01*
X1018357Y784092D01*
X1018877Y784196D01*
X1019319Y784491D01*
X1019614Y784932D01*
X1019717Y785453D01*
X1019614Y785973D01*
X1019319Y786415D01*
X1018877Y786710D01*
X1018357Y786813D01*
D02*
G37*
G36*
X1004842D02*
X1004322Y786710D01*
X1003881Y786415D01*
X1003586Y785973D01*
X1003482Y785453D01*
X1003586Y784932D01*
X1003881Y784491D01*
X1004322Y784196D01*
X1004842Y784092D01*
X1005363Y784196D01*
X1005805Y784491D01*
X1006099Y784932D01*
X1006203Y785453D01*
X1006099Y785973D01*
X1005805Y786415D01*
X1005363Y786710D01*
X1004842Y786813D01*
D02*
G37*
G36*
X1128500Y792033D02*
X1127324Y791917D01*
X1126193Y791574D01*
X1125151Y791017D01*
X1124237Y790267D01*
X1123487Y789353D01*
X1122930Y788311D01*
X1122587Y787180D01*
X1122471Y786004D01*
X1122587Y784828D01*
X1122930Y783697D01*
X1123487Y782655D01*
X1124237Y781741D01*
X1125151Y780991D01*
X1126193Y780434D01*
X1127324Y780091D01*
X1128500Y779975D01*
X1129676Y780091D01*
X1130807Y780434D01*
X1131849Y780991D01*
X1132763Y781741D01*
X1133513Y782655D01*
X1134070Y783697D01*
X1134413Y784828D01*
X1134529Y786004D01*
X1134413Y787180D01*
X1134070Y788311D01*
X1133513Y789353D01*
X1132763Y790267D01*
X1131849Y791017D01*
X1130807Y791574D01*
X1129676Y791917D01*
X1128500Y792033D01*
D02*
G37*
G36*
X759000Y770828D02*
X758009Y770697D01*
X757086Y770315D01*
X756293Y769706D01*
X755685Y768914D01*
X755303Y767991D01*
X755172Y767000D01*
X755303Y766009D01*
X755685Y765086D01*
X756293Y764293D01*
X757086Y763685D01*
X758009Y763303D01*
X759000Y763172D01*
X759991Y763303D01*
X760914Y763685D01*
X761706Y764293D01*
X762315Y765086D01*
X762697Y766009D01*
X762828Y767000D01*
X762697Y767991D01*
X762315Y768914D01*
X761706Y769706D01*
X760914Y770315D01*
X759991Y770697D01*
X759000Y770828D01*
D02*
G37*
G36*
X780000Y769178D02*
X779125Y769063D01*
X778310Y768725D01*
X777611Y768188D01*
X777074Y767489D01*
X776736Y766674D01*
X776621Y765799D01*
X776736Y764925D01*
X777074Y764110D01*
X777611Y763410D01*
X778310Y762873D01*
X779125Y762535D01*
X780000Y762420D01*
X780874Y762535D01*
X781690Y762873D01*
X782389Y763410D01*
X782926Y764110D01*
X783264Y764925D01*
X783379Y765799D01*
X783264Y766674D01*
X782926Y767489D01*
X782389Y768188D01*
X781690Y768725D01*
X780874Y769063D01*
X780000Y769178D01*
D02*
G37*
G36*
X815000Y763860D02*
X814479Y763757D01*
X814038Y763462D01*
X813743Y763021D01*
X813640Y762500D01*
X813743Y761979D01*
X814038Y761538D01*
X814479Y761243D01*
X815000Y761140D01*
X815521Y761243D01*
X815962Y761538D01*
X816257Y761979D01*
X816360Y762500D01*
X816257Y763021D01*
X815962Y763462D01*
X815521Y763757D01*
X815000Y763860D01*
D02*
G37*
G36*
X1131500Y763360D02*
X1130979Y763257D01*
X1130538Y762962D01*
X1130243Y762521D01*
X1130140Y762000D01*
X1130243Y761479D01*
X1130538Y761038D01*
X1130979Y760743D01*
X1131500Y760640D01*
X1132021Y760743D01*
X1132462Y761038D01*
X1132757Y761479D01*
X1132860Y762000D01*
X1132757Y762521D01*
X1132462Y762962D01*
X1132021Y763257D01*
X1131500Y763360D01*
D02*
G37*
G36*
X1075500Y761860D02*
X1074979Y761757D01*
X1074538Y761462D01*
X1074243Y761021D01*
X1074140Y760500D01*
X1074243Y759979D01*
X1074538Y759538D01*
X1074979Y759243D01*
X1075500Y759140D01*
X1076021Y759243D01*
X1076462Y759538D01*
X1076757Y759979D01*
X1076860Y760500D01*
X1076757Y761021D01*
X1076462Y761462D01*
X1076021Y761757D01*
X1075500Y761860D01*
D02*
G37*
G36*
X904500Y763328D02*
X903509Y763197D01*
X902586Y762815D01*
X901793Y762207D01*
X901185Y761414D01*
X900803Y760491D01*
X900672Y759500D01*
X900803Y758509D01*
X901185Y757586D01*
X901793Y756793D01*
X902586Y756185D01*
X903509Y755803D01*
X904500Y755672D01*
X905491Y755803D01*
X906414Y756185D01*
X907207Y756793D01*
X907815Y757586D01*
X908197Y758509D01*
X908328Y759500D01*
X908197Y760491D01*
X907815Y761414D01*
X907207Y762207D01*
X906414Y762815D01*
X905491Y763197D01*
X904500Y763328D01*
D02*
G37*
G36*
X1100421Y748860D02*
X1099901Y748757D01*
X1099459Y748462D01*
X1099164Y748021D01*
X1099061Y747500D01*
X1099164Y746979D01*
X1099459Y746538D01*
X1099901Y746243D01*
X1100421Y746140D01*
X1100942Y746243D01*
X1101383Y746538D01*
X1101678Y746979D01*
X1101782Y747500D01*
X1101678Y748021D01*
X1101383Y748462D01*
X1100942Y748757D01*
X1100421Y748860D01*
D02*
G37*
G36*
X940500Y745132D02*
X939979Y745028D01*
X939538Y744734D01*
X939243Y744292D01*
X939140Y743772D01*
X939243Y743251D01*
X939538Y742810D01*
X939979Y742515D01*
X940500Y742411D01*
X941021Y742515D01*
X941462Y742810D01*
X941757Y743251D01*
X941860Y743772D01*
X941757Y744292D01*
X941462Y744734D01*
X941021Y745028D01*
X940500Y745132D01*
D02*
G37*
G36*
X967000Y744203D02*
X966479Y744099D01*
X966038Y743805D01*
X965743Y743363D01*
X965640Y742842D01*
X965743Y742322D01*
X966038Y741881D01*
X966479Y741586D01*
X967000Y741482D01*
X967521Y741586D01*
X967962Y741881D01*
X968257Y742322D01*
X968360Y742842D01*
X968257Y743363D01*
X967962Y743805D01*
X967521Y744099D01*
X967000Y744203D01*
D02*
G37*
G36*
X1128500Y750025D02*
X1127324Y749909D01*
X1126193Y749566D01*
X1125151Y749009D01*
X1124237Y748259D01*
X1123487Y747345D01*
X1122930Y746303D01*
X1122587Y745172D01*
X1122471Y743996D01*
X1122587Y742820D01*
X1122930Y741689D01*
X1123487Y740647D01*
X1124237Y739733D01*
X1125151Y738983D01*
X1126193Y738426D01*
X1127324Y738083D01*
X1128500Y737967D01*
X1129676Y738083D01*
X1130807Y738426D01*
X1131849Y738983D01*
X1132763Y739733D01*
X1133513Y740647D01*
X1134070Y741689D01*
X1134413Y742820D01*
X1134529Y743996D01*
X1134413Y745172D01*
X1134070Y746303D01*
X1133513Y747345D01*
X1132763Y748259D01*
X1131849Y749009D01*
X1130807Y749566D01*
X1129676Y749909D01*
X1128500Y750025D01*
D02*
G37*
G36*
X890000Y738238D02*
X889479Y738135D01*
X889038Y737840D01*
X888743Y737399D01*
X888640Y736878D01*
X888743Y736357D01*
X889038Y735916D01*
X889479Y735621D01*
X890000Y735518D01*
X890521Y735621D01*
X890962Y735916D01*
X891257Y736357D01*
X891360Y736878D01*
X891257Y737399D01*
X890962Y737840D01*
X890521Y738135D01*
X890000Y738238D01*
D02*
G37*
G36*
X837220Y737860D02*
X836700Y737757D01*
X836259Y737462D01*
X835964Y737021D01*
X835860Y736500D01*
X835964Y735979D01*
X836259Y735538D01*
X836700Y735243D01*
X837220Y735140D01*
X837741Y735243D01*
X838182Y735538D01*
X838477Y735979D01*
X838581Y736500D01*
X838477Y737021D01*
X838182Y737462D01*
X837741Y737757D01*
X837220Y737860D01*
D02*
G37*
G36*
X1043570Y734042D02*
X1043049Y733938D01*
X1042608Y733643D01*
X1042313Y733202D01*
X1042209Y732681D01*
X1042313Y732161D01*
X1042608Y731719D01*
X1043049Y731424D01*
X1043570Y731321D01*
X1044090Y731424D01*
X1044532Y731719D01*
X1044827Y732161D01*
X1044930Y732681D01*
X1044827Y733202D01*
X1044532Y733643D01*
X1044090Y733938D01*
X1043570Y734042D01*
D02*
G37*
G36*
X1038992Y731098D02*
X1038471Y730995D01*
X1038030Y730700D01*
X1037735Y730258D01*
X1037632Y729738D01*
X1037735Y729217D01*
X1038030Y728776D01*
X1038471Y728481D01*
X1038992Y728377D01*
X1039513Y728481D01*
X1039954Y728776D01*
X1040249Y729217D01*
X1040352Y729738D01*
X1040249Y730258D01*
X1039954Y730700D01*
X1039513Y730995D01*
X1038992Y731098D01*
D02*
G37*
G36*
X1077000Y729860D02*
X1076479Y729757D01*
X1076038Y729462D01*
X1075743Y729021D01*
X1075640Y728500D01*
X1075743Y727979D01*
X1076038Y727538D01*
X1076479Y727243D01*
X1077000Y727140D01*
X1077521Y727243D01*
X1077962Y727538D01*
X1078257Y727979D01*
X1078360Y728500D01*
X1078257Y729021D01*
X1077962Y729462D01*
X1077521Y729757D01*
X1077000Y729860D01*
D02*
G37*
G36*
X1050412Y729790D02*
X1049891Y729687D01*
X1049450Y729392D01*
X1049155Y728951D01*
X1049052Y728430D01*
X1049155Y727909D01*
X1049450Y727468D01*
X1049891Y727173D01*
X1050412Y727070D01*
X1050933Y727173D01*
X1051374Y727468D01*
X1051669Y727909D01*
X1051772Y728430D01*
X1051669Y728951D01*
X1051374Y729392D01*
X1050933Y729687D01*
X1050412Y729790D01*
D02*
G37*
G36*
X971930Y727163D02*
X971409Y727059D01*
X970968Y726764D01*
X970673Y726323D01*
X970569Y725802D01*
X970673Y725282D01*
X970968Y724840D01*
X971409Y724546D01*
X971930Y724442D01*
X972450Y724546D01*
X972892Y724840D01*
X973186Y725282D01*
X973290Y725802D01*
X973186Y726323D01*
X972892Y726764D01*
X972450Y727059D01*
X971930Y727163D01*
D02*
G37*
G36*
X1044762Y723463D02*
X1044241Y723360D01*
X1043800Y723065D01*
X1043505Y722623D01*
X1043402Y722103D01*
X1043505Y721582D01*
X1043800Y721141D01*
X1044241Y720846D01*
X1044762Y720742D01*
X1045282Y720846D01*
X1045724Y721141D01*
X1046019Y721582D01*
X1046122Y722103D01*
X1046019Y722623D01*
X1045724Y723065D01*
X1045282Y723360D01*
X1044762Y723463D01*
D02*
G37*
G36*
X942280Y722360D02*
X941759Y722257D01*
X941318Y721962D01*
X941023Y721521D01*
X940919Y721000D01*
X941023Y720479D01*
X941318Y720038D01*
X941759Y719743D01*
X942280Y719640D01*
X942800Y719743D01*
X943242Y720038D01*
X943536Y720479D01*
X943640Y721000D01*
X943536Y721521D01*
X943242Y721962D01*
X942800Y722257D01*
X942280Y722360D01*
D02*
G37*
G36*
X906500D02*
X905979Y722257D01*
X905538Y721962D01*
X905243Y721521D01*
X905140Y721000D01*
X905243Y720479D01*
X905538Y720038D01*
X905979Y719743D01*
X906500Y719640D01*
X907021Y719743D01*
X907462Y720038D01*
X907757Y720479D01*
X907860Y721000D01*
X907757Y721521D01*
X907462Y721962D01*
X907021Y722257D01*
X906500Y722360D01*
D02*
G37*
G36*
X1128500Y728533D02*
X1127324Y728417D01*
X1126193Y728074D01*
X1125151Y727517D01*
X1124237Y726767D01*
X1123487Y725853D01*
X1122930Y724811D01*
X1122587Y723680D01*
X1122471Y722504D01*
X1122587Y721328D01*
X1122930Y720197D01*
X1123487Y719155D01*
X1124237Y718241D01*
X1125151Y717491D01*
X1126193Y716934D01*
X1127324Y716591D01*
X1128500Y716475D01*
X1129676Y716591D01*
X1130807Y716934D01*
X1131849Y717491D01*
X1132763Y718241D01*
X1133513Y719155D01*
X1134070Y720197D01*
X1134413Y721328D01*
X1134529Y722504D01*
X1134413Y723680D01*
X1134070Y724811D01*
X1133513Y725853D01*
X1132763Y726767D01*
X1131849Y727517D01*
X1130807Y728074D01*
X1129676Y728417D01*
X1128500Y728533D01*
D02*
G37*
G36*
X1006441Y866069D02*
X1005920Y865965D01*
X1005479Y865671D01*
X1005184Y865229D01*
X1005081Y864709D01*
X1005184Y864188D01*
X1005479Y863747D01*
X1005518Y863721D01*
X1005527Y863698D01*
X1005586Y863640D01*
X1005625Y863587D01*
X1005664Y863521D01*
X1005701Y863437D01*
X1005735Y863335D01*
X1005764Y863217D01*
X1005788Y863086D01*
X1005818Y862754D01*
X1005821Y862566D01*
X1005825Y862558D01*
X1005822Y862549D01*
X1005837Y862518D01*
Y830500D01*
X1005888Y830246D01*
X1006031Y830031D01*
X1054799Y781264D01*
Y723212D01*
X1049218Y717631D01*
X1049183Y717618D01*
X1048907Y717364D01*
X1048789Y717270D01*
X1048675Y717188D01*
X1048568Y717122D01*
X1048469Y717071D01*
X1048379Y717034D01*
X1048299Y717009D01*
X1048229Y716997D01*
X1048142Y716992D01*
X1048127Y716984D01*
X1047633Y716886D01*
X1047192Y716591D01*
X1046897Y716150D01*
X1046793Y715629D01*
X1046897Y715109D01*
X1047192Y714667D01*
X1047633Y714372D01*
X1048153Y714269D01*
X1048674Y714372D01*
X1049115Y714667D01*
X1049410Y715109D01*
X1049509Y715602D01*
X1049516Y715618D01*
X1049521Y715705D01*
X1049534Y715775D01*
X1049558Y715855D01*
X1049595Y715945D01*
X1049646Y716043D01*
X1049712Y716150D01*
X1049791Y716261D01*
X1050006Y716517D01*
X1050137Y716652D01*
X1050151Y716690D01*
X1055931Y722469D01*
X1056074Y722684D01*
X1056125Y722938D01*
Y781538D01*
X1056074Y781792D01*
X1055931Y782007D01*
X1007163Y830774D01*
Y862562D01*
X1007179Y862597D01*
X1007193Y862970D01*
X1007209Y863122D01*
X1007232Y863263D01*
X1007260Y863389D01*
X1007292Y863500D01*
X1007329Y863595D01*
X1007369Y863675D01*
X1007410Y863741D01*
X1007467Y863812D01*
X1007482Y863866D01*
X1007698Y864188D01*
X1007801Y864709D01*
X1007698Y865229D01*
X1007403Y865671D01*
X1006962Y865965D01*
X1006441Y866069D01*
D02*
G37*
G36*
X955500Y714986D02*
X954979Y714882D01*
X954538Y714587D01*
X954243Y714146D01*
X954140Y713625D01*
X954243Y713105D01*
X954538Y712663D01*
X954979Y712368D01*
X955500Y712265D01*
X956021Y712368D01*
X956462Y712663D01*
X956757Y713105D01*
X956860Y713625D01*
X956757Y714146D01*
X956462Y714587D01*
X956021Y714882D01*
X955500Y714986D01*
D02*
G37*
G36*
X949500Y714360D02*
X948979Y714257D01*
X948538Y713962D01*
X948243Y713521D01*
X948140Y713000D01*
X948243Y712479D01*
X948538Y712038D01*
X948979Y711743D01*
X949500Y711640D01*
X950021Y711743D01*
X950462Y712038D01*
X950757Y712479D01*
X950860Y713000D01*
X950757Y713521D01*
X950462Y713962D01*
X950021Y714257D01*
X949500Y714360D01*
D02*
G37*
G36*
X938500Y711860D02*
X937979Y711757D01*
X937538Y711462D01*
X937243Y711021D01*
X937140Y710500D01*
X937243Y709979D01*
X937538Y709538D01*
X937979Y709243D01*
X938500Y709140D01*
X939021Y709243D01*
X939462Y709538D01*
X939757Y709979D01*
X939860Y710500D01*
X939757Y711021D01*
X939462Y711462D01*
X939021Y711757D01*
X938500Y711860D01*
D02*
G37*
G36*
X831000Y709860D02*
X830479Y709757D01*
X830038Y709462D01*
X829743Y709021D01*
X829640Y708500D01*
X829743Y707979D01*
X830038Y707538D01*
X830479Y707243D01*
X831000Y707140D01*
X831521Y707243D01*
X831962Y707538D01*
X832257Y707979D01*
X832360Y708500D01*
X832257Y709021D01*
X831962Y709462D01*
X831521Y709757D01*
X831000Y709860D01*
D02*
G37*
G36*
X956784Y704145D02*
X956264Y704041D01*
X955822Y703746D01*
X955527Y703305D01*
X955424Y702784D01*
X955527Y702264D01*
X955822Y701822D01*
X956264Y701527D01*
X956784Y701424D01*
X957305Y701527D01*
X957746Y701822D01*
X958041Y702264D01*
X958145Y702784D01*
X958041Y703305D01*
X957746Y703746D01*
X957305Y704041D01*
X956784Y704145D01*
D02*
G37*
G36*
X1084500Y703656D02*
X1083979Y703552D01*
X1083538Y703257D01*
X1083243Y702816D01*
X1083140Y702295D01*
X1083243Y701775D01*
X1083538Y701333D01*
X1083979Y701038D01*
X1084500Y700935D01*
X1085021Y701038D01*
X1085462Y701333D01*
X1085757Y701775D01*
X1085860Y702295D01*
X1085757Y702816D01*
X1085462Y703257D01*
X1085021Y703552D01*
X1084500Y703656D01*
D02*
G37*
G36*
X969500Y701860D02*
X968979Y701757D01*
X968538Y701462D01*
X968243Y701021D01*
X968140Y700500D01*
X968243Y699979D01*
X968538Y699538D01*
X968979Y699243D01*
X969500Y699140D01*
X970021Y699243D01*
X970462Y699538D01*
X970757Y699979D01*
X970860Y700500D01*
X970757Y701021D01*
X970462Y701462D01*
X970021Y701757D01*
X969500Y701860D01*
D02*
G37*
G36*
X901500D02*
X900979Y701757D01*
X900538Y701462D01*
X900243Y701021D01*
X900140Y700500D01*
X900243Y699979D01*
X900538Y699538D01*
X900979Y699243D01*
X901500Y699140D01*
X902021Y699243D01*
X902462Y699538D01*
X902757Y699979D01*
X902860Y700500D01*
X902757Y701021D01*
X902462Y701462D01*
X902021Y701757D01*
X901500Y701860D01*
D02*
G37*
G36*
X1045992Y701655D02*
X1045472Y701552D01*
X1045030Y701257D01*
X1044735Y700815D01*
X1044632Y700295D01*
X1044735Y699774D01*
X1045030Y699333D01*
X1045472Y699038D01*
X1045992Y698934D01*
X1046513Y699038D01*
X1046954Y699333D01*
X1047249Y699774D01*
X1047353Y700295D01*
X1047249Y700815D01*
X1046954Y701257D01*
X1046513Y701552D01*
X1045992Y701655D01*
D02*
G37*
G36*
X1132000Y700360D02*
X1131479Y700257D01*
X1131038Y699962D01*
X1130743Y699521D01*
X1130640Y699000D01*
X1130743Y698479D01*
X1131038Y698038D01*
X1131479Y697743D01*
X1132000Y697640D01*
X1132521Y697743D01*
X1132962Y698038D01*
X1133257Y698479D01*
X1133360Y699000D01*
X1133257Y699521D01*
X1132962Y699962D01*
X1132521Y700257D01*
X1132000Y700360D01*
D02*
G37*
G36*
X1054500D02*
X1053979Y700257D01*
X1053538Y699962D01*
X1053243Y699521D01*
X1053140Y699000D01*
X1053243Y698479D01*
X1053538Y698038D01*
X1053979Y697743D01*
X1054500Y697640D01*
X1055021Y697743D01*
X1055462Y698038D01*
X1055757Y698479D01*
X1055860Y699000D01*
X1055757Y699521D01*
X1055462Y699962D01*
X1055021Y700257D01*
X1054500Y700360D01*
D02*
G37*
G36*
X1065347Y698368D02*
X1064826Y698265D01*
X1064385Y697970D01*
X1064090Y697529D01*
X1063986Y697008D01*
X1064090Y696487D01*
X1064385Y696046D01*
X1064826Y695751D01*
X1065347Y695647D01*
X1065868Y695751D01*
X1066309Y696046D01*
X1066604Y696487D01*
X1066707Y697008D01*
X1066604Y697529D01*
X1066309Y697970D01*
X1065868Y698265D01*
X1065347Y698368D01*
D02*
G37*
G36*
X954562Y695360D02*
X954042Y695257D01*
X953601Y694962D01*
X953306Y694521D01*
X953202Y694000D01*
X953306Y693479D01*
X953601Y693038D01*
X954042Y692743D01*
X954562Y692640D01*
X955083Y692743D01*
X955524Y693038D01*
X955819Y693479D01*
X955923Y694000D01*
X955819Y694521D01*
X955524Y694962D01*
X955083Y695257D01*
X954562Y695360D01*
D02*
G37*
G36*
X969500Y694360D02*
X968979Y694257D01*
X968538Y693962D01*
X968243Y693521D01*
X968140Y693000D01*
X968243Y692479D01*
X968538Y692038D01*
X968979Y691743D01*
X969500Y691640D01*
X970021Y691743D01*
X970462Y692038D01*
X970757Y692479D01*
X970860Y693000D01*
X970757Y693521D01*
X970462Y693962D01*
X970021Y694257D01*
X969500Y694360D01*
D02*
G37*
G36*
X1077164Y694146D02*
X1076644Y694042D01*
X1076202Y693747D01*
X1075908Y693306D01*
X1075804Y692785D01*
X1075908Y692265D01*
X1076202Y691823D01*
X1076644Y691529D01*
X1077164Y691425D01*
X1077685Y691529D01*
X1078126Y691823D01*
X1078421Y692265D01*
X1078525Y692785D01*
X1078421Y693306D01*
X1078126Y693747D01*
X1077685Y694042D01*
X1077164Y694146D01*
D02*
G37*
G36*
X963508Y692463D02*
X962987Y692359D01*
X962546Y692064D01*
X962251Y691623D01*
X962148Y691102D01*
X962251Y690582D01*
X962546Y690140D01*
X962987Y689846D01*
X963508Y689742D01*
X964028Y689846D01*
X964470Y690140D01*
X964765Y690582D01*
X964868Y691102D01*
X964765Y691623D01*
X964470Y692064D01*
X964028Y692359D01*
X963508Y692463D01*
D02*
G37*
G36*
X994852Y691683D02*
X994332Y691580D01*
X993890Y691285D01*
X993596Y690843D01*
X993492Y690323D01*
X993596Y689802D01*
X993890Y689361D01*
X994332Y689066D01*
X994852Y688962D01*
X995373Y689066D01*
X995814Y689361D01*
X996109Y689802D01*
X996213Y690323D01*
X996109Y690843D01*
X995814Y691285D01*
X995373Y691580D01*
X994852Y691683D01*
D02*
G37*
G36*
X1085500Y690360D02*
X1084979Y690257D01*
X1084538Y689962D01*
X1084243Y689521D01*
X1084140Y689000D01*
X1084243Y688479D01*
X1084538Y688038D01*
X1084979Y687743D01*
X1085500Y687640D01*
X1086021Y687743D01*
X1086462Y688038D01*
X1086757Y688479D01*
X1086860Y689000D01*
X1086757Y689521D01*
X1086462Y689962D01*
X1086021Y690257D01*
X1085500Y690360D01*
D02*
G37*
G36*
X1048153D02*
X1047633Y690257D01*
X1047192Y689962D01*
X1046897Y689521D01*
X1046793Y689000D01*
X1046897Y688479D01*
X1047192Y688038D01*
X1047633Y687743D01*
X1048153Y687640D01*
X1048674Y687743D01*
X1049115Y688038D01*
X1049410Y688479D01*
X1049514Y689000D01*
X1049410Y689521D01*
X1049115Y689962D01*
X1048674Y690257D01*
X1048153Y690360D01*
D02*
G37*
G36*
X1059394Y819345D02*
X1058873Y819241D01*
X1058432Y818946D01*
X1058137Y818505D01*
X1058033Y817984D01*
X1058137Y817464D01*
X1058410Y817055D01*
X1058416Y817036D01*
X1058451Y816994D01*
X1058473Y816959D01*
X1058498Y816901D01*
X1058525Y816820D01*
X1058551Y816717D01*
X1058571Y816601D01*
X1058612Y816097D01*
X1058615Y815899D01*
X1058629Y815866D01*
Y811106D01*
X1058687Y810814D01*
X1058853Y810566D01*
X1095485Y773933D01*
Y693067D01*
X1086183Y683765D01*
X1079283D01*
X1079250Y683779D01*
X1079045Y683782D01*
X1078867Y683789D01*
X1078552Y683822D01*
X1078432Y683843D01*
X1078328Y683868D01*
X1078247Y683895D01*
X1078189Y683921D01*
X1078154Y683942D01*
X1078112Y683978D01*
X1078093Y683984D01*
X1077685Y684257D01*
X1077164Y684360D01*
X1076644Y684257D01*
X1076202Y683962D01*
X1075908Y683521D01*
X1075804Y683000D01*
X1075908Y682479D01*
X1076202Y682038D01*
X1076644Y681743D01*
X1077164Y681640D01*
X1077685Y681743D01*
X1078093Y682016D01*
X1078112Y682022D01*
X1078154Y682058D01*
X1078189Y682079D01*
X1078247Y682105D01*
X1078328Y682132D01*
X1078432Y682157D01*
X1078548Y682178D01*
X1079052Y682219D01*
X1079250Y682221D01*
X1079283Y682235D01*
X1086500D01*
X1086793Y682294D01*
X1087041Y682459D01*
X1096791Y692209D01*
X1096957Y692457D01*
X1097015Y692750D01*
Y774250D01*
X1096957Y774543D01*
X1096791Y774791D01*
X1060158Y811423D01*
Y815866D01*
X1060172Y815899D01*
X1060175Y816103D01*
X1060183Y816281D01*
X1060215Y816597D01*
X1060237Y816717D01*
X1060262Y816820D01*
X1060289Y816901D01*
X1060315Y816959D01*
X1060336Y816994D01*
X1060372Y817036D01*
X1060378Y817055D01*
X1060651Y817464D01*
X1060754Y817984D01*
X1060651Y818505D01*
X1060356Y818946D01*
X1059914Y819241D01*
X1059394Y819345D01*
D02*
G37*
G36*
X889209Y685160D02*
X888688Y685057D01*
X888247Y684762D01*
X887952Y684321D01*
X887849Y683800D01*
X887952Y683279D01*
X888247Y682838D01*
X888688Y682543D01*
X889209Y682440D01*
X889730Y682543D01*
X890171Y682838D01*
X890466Y683279D01*
X890569Y683800D01*
X890466Y684321D01*
X890171Y684762D01*
X889730Y685057D01*
X889209Y685160D01*
D02*
G37*
G36*
X874500Y732860D02*
X873979Y732757D01*
X873538Y732462D01*
X873243Y732021D01*
X873140Y731500D01*
X873243Y730979D01*
X873538Y730538D01*
X873979Y730243D01*
X874473Y730145D01*
X874488Y730138D01*
X874576Y730133D01*
X874646Y730120D01*
X874726Y730095D01*
X874816Y730058D01*
X874914Y730007D01*
X875021Y729941D01*
X875132Y729862D01*
X875388Y729647D01*
X875523Y729517D01*
X875560Y729502D01*
X909597Y695465D01*
X909645Y695225D01*
X909789Y695010D01*
X920506Y684293D01*
X920519Y684257D01*
X920773Y683982D01*
X920868Y683864D01*
X920949Y683749D01*
X921015Y683642D01*
X921066Y683544D01*
X921103Y683454D01*
X921128Y683374D01*
X921140Y683304D01*
X921145Y683217D01*
X921153Y683201D01*
X921251Y682708D01*
X921546Y682266D01*
X921987Y681972D01*
X922508Y681868D01*
X923028Y681972D01*
X923470Y682266D01*
X923765Y682708D01*
X923868Y683228D01*
X923765Y683749D01*
X923470Y684190D01*
X923028Y684485D01*
X922535Y684583D01*
X922519Y684591D01*
X922432Y684596D01*
X922362Y684609D01*
X922282Y684633D01*
X922192Y684670D01*
X922094Y684721D01*
X921987Y684787D01*
X921876Y684866D01*
X921620Y685081D01*
X921485Y685212D01*
X921447Y685226D01*
X910917Y695756D01*
X910870Y695996D01*
X910726Y696211D01*
X876502Y730436D01*
X876488Y730471D01*
X876235Y730746D01*
X876140Y730864D01*
X876059Y730979D01*
X875993Y731086D01*
X875942Y731184D01*
X875904Y731274D01*
X875880Y731354D01*
X875867Y731425D01*
X875862Y731512D01*
X875855Y731527D01*
X875757Y732021D01*
X875462Y732462D01*
X875021Y732757D01*
X874500Y732860D01*
D02*
G37*
G36*
X972563Y683923D02*
X972042Y683819D01*
X971601Y683524D01*
X971306Y683083D01*
X971202Y682562D01*
X971306Y682042D01*
X971601Y681601D01*
X972042Y681306D01*
X972563Y681202D01*
X973083Y681306D01*
X973524Y681601D01*
X973819Y682042D01*
X973923Y682562D01*
X973819Y683083D01*
X973524Y683524D01*
X973083Y683819D01*
X972563Y683923D01*
D02*
G37*
G36*
X1050323Y682620D02*
X1049802Y682517D01*
X1049361Y682222D01*
X1049066Y681780D01*
X1048962Y681260D01*
X1049066Y680739D01*
X1049361Y680298D01*
X1049802Y680003D01*
X1050323Y679899D01*
X1050843Y680003D01*
X1051285Y680298D01*
X1051580Y680739D01*
X1051683Y681260D01*
X1051580Y681780D01*
X1051285Y682222D01*
X1050843Y682517D01*
X1050323Y682620D01*
D02*
G37*
G36*
X891267Y682060D02*
X890746Y681957D01*
X890304Y681662D01*
X890010Y681221D01*
X889906Y680700D01*
X890010Y680179D01*
X890304Y679738D01*
X890746Y679443D01*
X891267Y679340D01*
X891787Y679443D01*
X892228Y679738D01*
X892523Y680179D01*
X892627Y680700D01*
X892523Y681221D01*
X892228Y681662D01*
X891787Y681957D01*
X891267Y682060D01*
D02*
G37*
G36*
X841452D02*
X840932Y681957D01*
X840490Y681662D01*
X840195Y681221D01*
X840092Y680700D01*
X840195Y680179D01*
X840490Y679738D01*
X840932Y679443D01*
X841452Y679340D01*
X841973Y679443D01*
X842414Y679738D01*
X842709Y680179D01*
X842813Y680700D01*
X842709Y681221D01*
X842414Y681662D01*
X841973Y681957D01*
X841452Y682060D01*
D02*
G37*
G36*
X787500Y744798D02*
X786979Y744695D01*
X786538Y744400D01*
X786243Y743959D01*
X786140Y743438D01*
X786243Y742917D01*
X786538Y742476D01*
X786979Y742181D01*
X787500Y742077D01*
X788021Y742181D01*
X788439Y742461D01*
X788455Y742466D01*
X788520Y742524D01*
X788579Y742565D01*
X788653Y742605D01*
X788742Y742642D01*
X788848Y742675D01*
X788971Y742704D01*
X789105Y742727D01*
X789438Y742756D01*
X789626Y742759D01*
X789663Y742775D01*
X869980D01*
X932066Y680689D01*
X932079Y680654D01*
X932333Y680379D01*
X932427Y680261D01*
X932508Y680146D01*
X932574Y680039D01*
X932626Y679941D01*
X932663Y679851D01*
X932687Y679771D01*
X932700Y679701D01*
X932705Y679613D01*
X932712Y679598D01*
X932810Y679104D01*
X933105Y678663D01*
X933547Y678368D01*
X934067Y678265D01*
X934588Y678368D01*
X935029Y678663D01*
X935324Y679104D01*
X935427Y679625D01*
X935324Y680146D01*
X935029Y680587D01*
X934588Y680882D01*
X934094Y680980D01*
X934079Y680987D01*
X933992Y680992D01*
X933921Y681005D01*
X933841Y681030D01*
X933752Y681067D01*
X933653Y681118D01*
X933546Y681184D01*
X933435Y681262D01*
X933179Y681478D01*
X933044Y681608D01*
X933007Y681623D01*
X870723Y743906D01*
X870508Y744050D01*
X870254Y744101D01*
X789668D01*
X789634Y744116D01*
X789259Y744132D01*
X789109Y744148D01*
X788971Y744172D01*
X788848Y744201D01*
X788742Y744234D01*
X788653Y744271D01*
X788579Y744311D01*
X788520Y744351D01*
X788455Y744410D01*
X788439Y744415D01*
X788021Y744695D01*
X787500Y744798D01*
D02*
G37*
G36*
X1082063Y680112D02*
X1081542Y680009D01*
X1081101Y679714D01*
X1080806Y679273D01*
X1080703Y678752D01*
X1080806Y678231D01*
X1081101Y677790D01*
X1081542Y677495D01*
X1082063Y677392D01*
X1082584Y677495D01*
X1083025Y677790D01*
X1083320Y678231D01*
X1083423Y678752D01*
X1083320Y679273D01*
X1083025Y679714D01*
X1082584Y680009D01*
X1082063Y680112D01*
D02*
G37*
G36*
X1038370Y704538D02*
X1037850Y704434D01*
X1037408Y704139D01*
X1037113Y703698D01*
X1037010Y703177D01*
X1037113Y702657D01*
X1037393Y702238D01*
X1037399Y702222D01*
X1037457Y702157D01*
X1037497Y702098D01*
X1037537Y702025D01*
X1037574Y701935D01*
X1037607Y701829D01*
X1037636Y701707D01*
X1037659Y701573D01*
X1037688Y701239D01*
X1037691Y701052D01*
X1037708Y701015D01*
Y685952D01*
X1030188Y678432D01*
X1030151Y678417D01*
X1030016Y678288D01*
X1029760Y678068D01*
X1029646Y677984D01*
X1029536Y677910D01*
X1029431Y677851D01*
X1029335Y677804D01*
X1029245Y677769D01*
X1029164Y677746D01*
X1029069Y677729D01*
X1029009Y677690D01*
X1028737Y677636D01*
X1028296Y677341D01*
X1028048Y676970D01*
X1027782Y676930D01*
X1027505Y676967D01*
X1027258Y677336D01*
X1026817Y677631D01*
X1026296Y677734D01*
X1025776Y677631D01*
X1025334Y677336D01*
X1025040Y676895D01*
X1024936Y676374D01*
X1025040Y675853D01*
X1025334Y675412D01*
X1025776Y675117D01*
X1025977Y675077D01*
X1026033Y675037D01*
X1026130Y675014D01*
X1026215Y674986D01*
X1026308Y674946D01*
X1026402Y674898D01*
X1026629Y674752D01*
X1026740Y674669D01*
X1026995Y674447D01*
X1027129Y674318D01*
X1027167Y674303D01*
X1027843Y673626D01*
X1028058Y673483D01*
X1028312Y673432D01*
X1030204D01*
X1030458Y673483D01*
X1030673Y673626D01*
X1042782Y685736D01*
X1042926Y685951D01*
X1042976Y686204D01*
Y700832D01*
X1042992Y700866D01*
X1043007Y701240D01*
X1043024Y701391D01*
X1043047Y701529D01*
X1043076Y701652D01*
X1043110Y701757D01*
X1043147Y701847D01*
X1043186Y701921D01*
X1043227Y701980D01*
X1043285Y702045D01*
X1043291Y702061D01*
X1043570Y702479D01*
X1043674Y703000D01*
X1043570Y703521D01*
X1043276Y703962D01*
X1042834Y704257D01*
X1042314Y704360D01*
X1041793Y704257D01*
X1041352Y703962D01*
X1041057Y703521D01*
X1040953Y703000D01*
X1041057Y702479D01*
X1041336Y702061D01*
X1041342Y702045D01*
X1041400Y701980D01*
X1041441Y701921D01*
X1041480Y701847D01*
X1041517Y701757D01*
X1041551Y701652D01*
X1041580Y701529D01*
X1041602Y701395D01*
X1041631Y701062D01*
X1041635Y700874D01*
X1041651Y700837D01*
Y686479D01*
X1031023Y675851D01*
X1030562Y676097D01*
X1030618Y676379D01*
X1030594Y676499D01*
X1030610Y676545D01*
X1030605Y676622D01*
X1030610Y676679D01*
X1030625Y676747D01*
X1030653Y676827D01*
X1030696Y676918D01*
X1030756Y677020D01*
X1030829Y677127D01*
X1031041Y677382D01*
X1031171Y677518D01*
X1031180Y677541D01*
X1031201Y677553D01*
X1031207Y677576D01*
X1038839Y685208D01*
X1038982Y685423D01*
X1039033Y685677D01*
Y701010D01*
X1039049Y701044D01*
X1039064Y701418D01*
X1039081Y701568D01*
X1039104Y701707D01*
X1039133Y701829D01*
X1039166Y701935D01*
X1039203Y702025D01*
X1039243Y702098D01*
X1039284Y702157D01*
X1039342Y702222D01*
X1039347Y702238D01*
X1039627Y702657D01*
X1039731Y703177D01*
X1039627Y703698D01*
X1039332Y704139D01*
X1038891Y704434D01*
X1038370Y704538D01*
D02*
G37*
G36*
X886700Y678960D02*
X886179Y678857D01*
X885738Y678562D01*
X885443Y678121D01*
X885340Y677600D01*
X885443Y677079D01*
X885738Y676638D01*
X886179Y676343D01*
X886700Y676240D01*
X887221Y676343D01*
X887662Y676638D01*
X887957Y677079D01*
X888060Y677600D01*
X887957Y678121D01*
X887662Y678562D01*
X887221Y678857D01*
X886700Y678960D01*
D02*
G37*
G36*
X994852Y678860D02*
X994332Y678757D01*
X993890Y678462D01*
X993596Y678021D01*
X993492Y677500D01*
X993596Y676979D01*
X993890Y676538D01*
X994332Y676243D01*
X994852Y676140D01*
X995373Y676243D01*
X995814Y676538D01*
X996109Y676979D01*
X996213Y677500D01*
X996109Y678021D01*
X995814Y678462D01*
X995373Y678757D01*
X994852Y678860D01*
D02*
G37*
G36*
X975687D02*
X975167Y678757D01*
X974725Y678462D01*
X974430Y678021D01*
X974327Y677500D01*
X974430Y676979D01*
X974725Y676538D01*
X975167Y676243D01*
X975687Y676140D01*
X976208Y676243D01*
X976649Y676538D01*
X976944Y676979D01*
X977048Y677500D01*
X976944Y678021D01*
X976649Y678462D01*
X976208Y678757D01*
X975687Y678860D01*
D02*
G37*
G36*
X946000Y880867D02*
X945009Y880737D01*
X944086Y880354D01*
X943293Y879746D01*
X942685Y878953D01*
X942303Y878030D01*
X942172Y877039D01*
X942197Y876850D01*
X942183Y876814D01*
X942194Y876288D01*
X942158Y875789D01*
X942078Y875301D01*
X941952Y874821D01*
X941781Y874351D01*
X941564Y873888D01*
X941301Y873431D01*
X940990Y872983D01*
X940632Y872541D01*
X940216Y872097D01*
X940215Y872093D01*
X940211Y872091D01*
X940201Y872062D01*
X929959Y861820D01*
X929793Y861572D01*
X929735Y861279D01*
Y713296D01*
X929793Y713003D01*
X929959Y712755D01*
X963714Y679000D01*
X963712Y678900D01*
X963685Y678584D01*
X963667Y678465D01*
X963646Y678366D01*
X963624Y678293D01*
X963606Y678250D01*
X963599Y678237D01*
X963578Y678214D01*
X963573Y678198D01*
X963538Y678175D01*
X963243Y677734D01*
X963140Y677213D01*
X963243Y676692D01*
X963538Y676251D01*
X963979Y675956D01*
X964500Y675853D01*
X965021Y675956D01*
X965462Y676251D01*
X965757Y676692D01*
X965860Y677213D01*
X965757Y677734D01*
X965462Y678175D01*
X965427Y678198D01*
X965422Y678214D01*
X965401Y678237D01*
X965394Y678250D01*
X965376Y678293D01*
X965354Y678366D01*
X965333Y678465D01*
X965316Y678581D01*
X965281Y679092D01*
X965279Y679298D01*
X965252Y679361D01*
X965207Y679589D01*
X965041Y679837D01*
X931265Y713613D01*
Y860963D01*
X941316Y871014D01*
X941348Y871026D01*
X941780Y871431D01*
X942215Y871787D01*
X942663Y872103D01*
X943123Y872379D01*
X943595Y872616D01*
X944081Y872814D01*
X944581Y872973D01*
X945094Y873094D01*
X945623Y873176D01*
X946179Y873220D01*
X946220Y873241D01*
X946991Y873342D01*
X947914Y873725D01*
X948707Y874333D01*
X949315Y875126D01*
X949697Y876049D01*
X949828Y877039D01*
X949697Y878030D01*
X949315Y878953D01*
X948707Y879746D01*
X947914Y880354D01*
X946991Y880737D01*
X946000Y880867D01*
D02*
G37*
G36*
X1009332Y677800D02*
X1008811Y677697D01*
X1008370Y677402D01*
X1008075Y676960D01*
X1007971Y676440D01*
X1008075Y675919D01*
X1008370Y675478D01*
X1008811Y675183D01*
X1009332Y675079D01*
X1009853Y675183D01*
X1010294Y675478D01*
X1010332Y675535D01*
X1010933D01*
X1011038Y675378D01*
X1011479Y675083D01*
X1012000Y674979D01*
X1012521Y675083D01*
X1012962Y675378D01*
X1013257Y675819D01*
X1013360Y676340D01*
X1013257Y676860D01*
X1012962Y677302D01*
X1012521Y677597D01*
X1012000Y677700D01*
X1011479Y677597D01*
X1011038Y677302D01*
X1011000Y677245D01*
X1010399D01*
X1010294Y677402D01*
X1009853Y677697D01*
X1009332Y677800D01*
D02*
G37*
G36*
X1128500Y686525D02*
X1127324Y686409D01*
X1126193Y686066D01*
X1125151Y685509D01*
X1124237Y684759D01*
X1123487Y683845D01*
X1122930Y682803D01*
X1122587Y681672D01*
X1122471Y680496D01*
X1122587Y679320D01*
X1122930Y678189D01*
X1123487Y677147D01*
X1124237Y676233D01*
X1125151Y675483D01*
X1126193Y674926D01*
X1127324Y674583D01*
X1128500Y674467D01*
X1129676Y674583D01*
X1130807Y674926D01*
X1131849Y675483D01*
X1132763Y676233D01*
X1133513Y677147D01*
X1134070Y678189D01*
X1134413Y679320D01*
X1134529Y680496D01*
X1134413Y681672D01*
X1134070Y682803D01*
X1133513Y683845D01*
X1132763Y684759D01*
X1131849Y685509D01*
X1130807Y686066D01*
X1129676Y686409D01*
X1128500Y686525D01*
D02*
G37*
G36*
X915268Y677175D02*
X914747Y677072D01*
X914306Y676777D01*
X914011Y676336D01*
X913907Y675815D01*
X914011Y675294D01*
X914306Y674853D01*
X914747Y674558D01*
X915268Y674455D01*
X915788Y674558D01*
X916230Y674853D01*
X916525Y675294D01*
X916628Y675815D01*
X916525Y676336D01*
X916230Y676777D01*
X915788Y677072D01*
X915268Y677175D01*
D02*
G37*
G36*
X954562Y676399D02*
X954042Y676295D01*
X953601Y676000D01*
X953306Y675559D01*
X953202Y675039D01*
X953306Y674518D01*
X953601Y674077D01*
X954042Y673782D01*
X954562Y673678D01*
X955083Y673782D01*
X955524Y674077D01*
X955819Y674518D01*
X955923Y675039D01*
X955819Y675559D01*
X955524Y676000D01*
X955083Y676295D01*
X954562Y676399D01*
D02*
G37*
G36*
X891267Y675860D02*
X890746Y675757D01*
X890304Y675462D01*
X890010Y675021D01*
X889906Y674500D01*
X890010Y673979D01*
X890304Y673538D01*
X890746Y673243D01*
X891267Y673140D01*
X891787Y673243D01*
X892228Y673538D01*
X892523Y673979D01*
X892627Y674500D01*
X892523Y675021D01*
X892228Y675462D01*
X891787Y675757D01*
X891267Y675860D01*
D02*
G37*
G36*
X841452D02*
X840932Y675757D01*
X840490Y675462D01*
X840195Y675021D01*
X840092Y674500D01*
X840195Y673979D01*
X840490Y673538D01*
X840932Y673243D01*
X841452Y673140D01*
X841973Y673243D01*
X842414Y673538D01*
X842709Y673979D01*
X842813Y674500D01*
X842709Y675021D01*
X842414Y675462D01*
X841973Y675757D01*
X841452Y675860D01*
D02*
G37*
G36*
X994740Y675518D02*
X994220Y675414D01*
X993778Y675119D01*
X993483Y674678D01*
X993380Y674157D01*
X993483Y673637D01*
X993778Y673196D01*
X994220Y672901D01*
X994740Y672797D01*
X995261Y672901D01*
X995702Y673196D01*
X995997Y673637D01*
X996101Y674157D01*
X995997Y674678D01*
X995702Y675119D01*
X995261Y675414D01*
X994740Y675518D01*
D02*
G37*
G36*
X1069500Y675360D02*
X1068979Y675257D01*
X1068538Y674962D01*
X1068243Y674521D01*
X1068140Y674000D01*
X1068243Y673479D01*
X1068538Y673038D01*
X1068979Y672743D01*
X1069500Y672640D01*
X1070021Y672743D01*
X1070462Y673038D01*
X1070757Y673479D01*
X1070860Y674000D01*
X1070757Y674521D01*
X1070462Y674962D01*
X1070021Y675257D01*
X1069500Y675360D01*
D02*
G37*
G36*
X846250Y672760D02*
X845729Y672657D01*
X845288Y672362D01*
X844993Y671921D01*
X844890Y671400D01*
X844993Y670879D01*
X845288Y670438D01*
X845729Y670143D01*
X846250Y670040D01*
X846771Y670143D01*
X847212Y670438D01*
X847507Y670879D01*
X847610Y671400D01*
X847507Y671921D01*
X847212Y672362D01*
X846771Y672657D01*
X846250Y672760D01*
D02*
G37*
G36*
X994779Y672175D02*
X994259Y672072D01*
X993818Y671777D01*
X993523Y671336D01*
X993419Y670815D01*
X993523Y670294D01*
X993818Y669853D01*
X994259Y669558D01*
X994779Y669455D01*
X995300Y669558D01*
X995741Y669853D01*
X996036Y670294D01*
X996140Y670815D01*
X996036Y671336D01*
X995741Y671777D01*
X995300Y672072D01*
X994779Y672175D01*
D02*
G37*
G36*
X975687Y670860D02*
X975167Y670757D01*
X974725Y670462D01*
X974430Y670021D01*
X974327Y669500D01*
X974430Y668979D01*
X974725Y668538D01*
X975167Y668243D01*
X975687Y668140D01*
X976208Y668243D01*
X976649Y668538D01*
X976944Y668979D01*
X977048Y669500D01*
X976944Y670021D01*
X976649Y670462D01*
X976208Y670757D01*
X975687Y670860D01*
D02*
G37*
G36*
X1053325Y670760D02*
X1052804Y670657D01*
X1052363Y670362D01*
X1052068Y669920D01*
X1051965Y669400D01*
X1052068Y668879D01*
X1052363Y668438D01*
X1052804Y668143D01*
X1053325Y668039D01*
X1053846Y668143D01*
X1054287Y668438D01*
X1054582Y668879D01*
X1054685Y669400D01*
X1054582Y669920D01*
X1054287Y670362D01*
X1053846Y670657D01*
X1053325Y670760D01*
D02*
G37*
G36*
X841452Y669660D02*
X840932Y669557D01*
X840490Y669262D01*
X840195Y668821D01*
X840092Y668300D01*
X840195Y667779D01*
X840490Y667338D01*
X840932Y667043D01*
X841452Y666940D01*
X841973Y667043D01*
X842414Y667338D01*
X842709Y667779D01*
X842813Y668300D01*
X842709Y668821D01*
X842414Y669262D01*
X841973Y669557D01*
X841452Y669660D01*
D02*
G37*
G36*
X994779Y668833D02*
X994259Y668729D01*
X993818Y668434D01*
X993523Y667993D01*
X993419Y667472D01*
X993523Y666952D01*
X993818Y666510D01*
X994259Y666216D01*
X994779Y666112D01*
X995300Y666216D01*
X995741Y666510D01*
X996036Y666952D01*
X996140Y667472D01*
X996036Y667993D01*
X995741Y668434D01*
X995300Y668729D01*
X994779Y668833D01*
D02*
G37*
G36*
X776000Y824860D02*
X775479Y824757D01*
X775038Y824462D01*
X774743Y824021D01*
X774640Y823500D01*
X774743Y822979D01*
X775023Y822561D01*
X775028Y822545D01*
X775086Y822480D01*
X775127Y822421D01*
X775167Y822347D01*
X775204Y822258D01*
X775237Y822152D01*
X775266Y822029D01*
X775289Y821895D01*
X775318Y821562D01*
X775321Y821374D01*
X775337Y821337D01*
Y776775D01*
X768031Y769469D01*
X767888Y769254D01*
X767837Y769000D01*
Y714500D01*
X767888Y714246D01*
X768031Y714031D01*
X789031Y693031D01*
X789246Y692888D01*
X789500Y692837D01*
X884725D01*
X910803Y666760D01*
X911018Y666616D01*
X911272Y666566D01*
X924238D01*
X924679Y666217D01*
X924782Y665697D01*
X925077Y665255D01*
X925519Y664960D01*
X926039Y664857D01*
X926560Y664960D01*
X927001Y665255D01*
X927296Y665697D01*
X927400Y666217D01*
X927296Y666738D01*
X927001Y667179D01*
X926560Y667474D01*
X926039Y667578D01*
X925666Y667503D01*
X925472Y667697D01*
X925257Y667841D01*
X925004Y667891D01*
X911546D01*
X885469Y693969D01*
X885254Y694112D01*
X885000Y694163D01*
X789775D01*
X769163Y714775D01*
Y768725D01*
X776469Y776031D01*
X776612Y776246D01*
X776663Y776500D01*
Y821332D01*
X776679Y821366D01*
X776694Y821741D01*
X776710Y821891D01*
X776734Y822029D01*
X776763Y822152D01*
X776796Y822258D01*
X776833Y822347D01*
X776873Y822421D01*
X776913Y822480D01*
X776972Y822545D01*
X776977Y822561D01*
X777257Y822979D01*
X777360Y823500D01*
X777257Y824021D01*
X776962Y824462D01*
X776521Y824757D01*
X776000Y824860D01*
D02*
G37*
G36*
X1044500Y666589D02*
X1043979Y666486D01*
X1043538Y666191D01*
X1043243Y665750D01*
X1043140Y665229D01*
X1043243Y664708D01*
X1043538Y664267D01*
X1043979Y663972D01*
X1044500Y663869D01*
X1045021Y663972D01*
X1045462Y664267D01*
X1045757Y664708D01*
X1045860Y665229D01*
X1045757Y665750D01*
X1045462Y666191D01*
X1045021Y666486D01*
X1044500Y666589D01*
D02*
G37*
G36*
X915268Y665518D02*
X914747Y665414D01*
X914306Y665119D01*
X914011Y664678D01*
X913907Y664157D01*
X914011Y663637D01*
X914306Y663196D01*
X914747Y662901D01*
X915268Y662797D01*
X915788Y662901D01*
X916230Y663196D01*
X916525Y663637D01*
X916628Y664157D01*
X916525Y664678D01*
X916230Y665119D01*
X915788Y665414D01*
X915268Y665518D01*
D02*
G37*
G36*
X1041784Y664109D02*
X1041264Y664006D01*
X1040822Y663711D01*
X1040527Y663270D01*
X1040424Y662749D01*
X1040527Y662228D01*
X1040822Y661787D01*
X1041264Y661492D01*
X1041784Y661388D01*
X1042305Y661492D01*
X1042746Y661787D01*
X1043041Y662228D01*
X1043145Y662749D01*
X1043041Y663270D01*
X1042746Y663711D01*
X1042305Y664006D01*
X1041784Y664109D01*
D02*
G37*
G36*
X891267Y663460D02*
X890746Y663357D01*
X890304Y663062D01*
X890010Y662621D01*
X889906Y662100D01*
X890010Y661579D01*
X890304Y661138D01*
X890746Y660843D01*
X891267Y660740D01*
X891787Y660843D01*
X892228Y661138D01*
X892523Y661579D01*
X892627Y662100D01*
X892523Y662621D01*
X892228Y663062D01*
X891787Y663357D01*
X891267Y663460D01*
D02*
G37*
G36*
X841452D02*
X840932Y663357D01*
X840490Y663062D01*
X840195Y662621D01*
X840092Y662100D01*
X840195Y661579D01*
X840490Y661138D01*
X840932Y660843D01*
X841452Y660740D01*
X841973Y660843D01*
X842414Y661138D01*
X842709Y661579D01*
X842813Y662100D01*
X842709Y662621D01*
X842414Y663062D01*
X841973Y663357D01*
X841452Y663460D01*
D02*
G37*
G36*
X937024Y662078D02*
X936504Y661975D01*
X936062Y661680D01*
X935767Y661238D01*
X935664Y660718D01*
X935767Y660197D01*
X936062Y659756D01*
X936504Y659461D01*
X937024Y659357D01*
X937545Y659461D01*
X937986Y659756D01*
X938281Y660197D01*
X938385Y660718D01*
X938281Y661238D01*
X937986Y661680D01*
X937545Y661975D01*
X937024Y662078D01*
D02*
G37*
G36*
X1039500Y661860D02*
X1038979Y661757D01*
X1038538Y661462D01*
X1038243Y661021D01*
X1038140Y660500D01*
X1038243Y659979D01*
X1038538Y659538D01*
X1038979Y659243D01*
X1039500Y659140D01*
X1040021Y659243D01*
X1040462Y659538D01*
X1040757Y659979D01*
X1040860Y660500D01*
X1040757Y661021D01*
X1040462Y661462D01*
X1040021Y661757D01*
X1039500Y661860D01*
D02*
G37*
G36*
X782000Y833616D02*
X781479Y833513D01*
X781038Y833218D01*
X780743Y832777D01*
X780640Y832256D01*
X780743Y831735D01*
X781038Y831294D01*
X781479Y830999D01*
X782000Y830896D01*
X782521Y830999D01*
X782939Y831279D01*
X782955Y831284D01*
X783020Y831342D01*
X783079Y831383D01*
X783153Y831423D01*
X783243Y831460D01*
X783348Y831493D01*
X783471Y831522D01*
X783605Y831545D01*
X783938Y831573D01*
X784126Y831577D01*
X784163Y831593D01*
X835470D01*
X868837Y798225D01*
Y750000D01*
X868888Y749746D01*
X869031Y749531D01*
X957812Y660751D01*
X957794Y660568D01*
X957499Y660127D01*
X957395Y659606D01*
X957499Y659086D01*
X957794Y658644D01*
X958235Y658350D01*
X958755Y658246D01*
X959276Y658350D01*
X959717Y658644D01*
X960012Y659086D01*
X960116Y659606D01*
X960012Y660127D01*
X959717Y660568D01*
X959276Y660863D01*
X959255Y660867D01*
Y660908D01*
X959204Y661161D01*
X959061Y661376D01*
X870163Y750275D01*
Y798500D01*
X870112Y798754D01*
X869969Y798969D01*
X836213Y832724D01*
X835998Y832868D01*
X835744Y832919D01*
X784168D01*
X784134Y832934D01*
X783759Y832950D01*
X783609Y832966D01*
X783471Y832990D01*
X783348Y833019D01*
X783243Y833052D01*
X783153Y833089D01*
X783079Y833129D01*
X783020Y833169D01*
X782955Y833228D01*
X782939Y833233D01*
X782521Y833513D01*
X782000Y833616D01*
D02*
G37*
G36*
X1064437Y660914D02*
X1063916Y660810D01*
X1063475Y660515D01*
X1063180Y660074D01*
X1063077Y659553D01*
X1063180Y659032D01*
X1063475Y658591D01*
X1063916Y658296D01*
X1064437Y658193D01*
X1064958Y658296D01*
X1065399Y658591D01*
X1065694Y659032D01*
X1065797Y659553D01*
X1065694Y660074D01*
X1065399Y660515D01*
X1064958Y660810D01*
X1064437Y660914D01*
D02*
G37*
G36*
X886700Y660360D02*
X886179Y660257D01*
X885738Y659962D01*
X885443Y659521D01*
X885340Y659000D01*
X885443Y658479D01*
X885738Y658038D01*
X886179Y657743D01*
X886700Y657640D01*
X887221Y657743D01*
X887662Y658038D01*
X887957Y658479D01*
X888060Y659000D01*
X887957Y659521D01*
X887662Y659962D01*
X887221Y660257D01*
X886700Y660360D01*
D02*
G37*
G36*
X1037000Y659860D02*
X1036479Y659757D01*
X1036038Y659462D01*
X1035743Y659021D01*
X1035640Y658500D01*
X1035743Y657979D01*
X1036038Y657538D01*
X1036479Y657243D01*
X1037000Y657140D01*
X1037521Y657243D01*
X1037962Y657538D01*
X1038257Y657979D01*
X1038360Y658500D01*
X1038257Y659021D01*
X1037962Y659462D01*
X1037521Y659757D01*
X1037000Y659860D01*
D02*
G37*
G36*
X950143Y658812D02*
X949623Y658709D01*
X949181Y658414D01*
X948887Y657973D01*
X948783Y657452D01*
X948887Y656931D01*
X949181Y656490D01*
X949623Y656195D01*
X950143Y656092D01*
X950664Y656195D01*
X951105Y656490D01*
X951400Y656931D01*
X951504Y657452D01*
X951400Y657973D01*
X951105Y658414D01*
X950664Y658709D01*
X950143Y658812D01*
D02*
G37*
G36*
X1009159Y658446D02*
X1008638Y658343D01*
X1008197Y658048D01*
X1007902Y657606D01*
X1007799Y657086D01*
X1007902Y656565D01*
X1008197Y656124D01*
X1008638Y655829D01*
X1009159Y655725D01*
X1009680Y655829D01*
X1010121Y656124D01*
X1010416Y656565D01*
X1010520Y657086D01*
X1010416Y657606D01*
X1010121Y658048D01*
X1009680Y658343D01*
X1009159Y658446D01*
D02*
G37*
G36*
X1005500Y658360D02*
X1004979Y658257D01*
X1004538Y657962D01*
X1004243Y657521D01*
X1004140Y657000D01*
X1004243Y656479D01*
X1004538Y656038D01*
X1004979Y655743D01*
X1005500Y655640D01*
X1006021Y655743D01*
X1006462Y656038D01*
X1006757Y656479D01*
X1006860Y657000D01*
X1006757Y657521D01*
X1006462Y657962D01*
X1006021Y658257D01*
X1005500Y658360D01*
D02*
G37*
G36*
X891267Y657260D02*
X890746Y657157D01*
X890304Y656862D01*
X890010Y656421D01*
X889906Y655900D01*
X890010Y655379D01*
X890304Y654938D01*
X890746Y654643D01*
X891267Y654540D01*
X891787Y654643D01*
X892228Y654938D01*
X892523Y655379D01*
X892627Y655900D01*
X892523Y656421D01*
X892228Y656862D01*
X891787Y657157D01*
X891267Y657260D01*
D02*
G37*
G36*
X841452D02*
X840932Y657157D01*
X840490Y656862D01*
X840195Y656421D01*
X840092Y655900D01*
X840195Y655379D01*
X840490Y654938D01*
X840932Y654643D01*
X841452Y654540D01*
X841973Y654643D01*
X842414Y654938D01*
X842709Y655379D01*
X842813Y655900D01*
X842709Y656421D01*
X842414Y656862D01*
X841973Y657157D01*
X841452Y657260D01*
D02*
G37*
G36*
X1029500Y656860D02*
X1028979Y656757D01*
X1028538Y656462D01*
X1028243Y656021D01*
X1028140Y655500D01*
X1028243Y654979D01*
X1028538Y654538D01*
X1028979Y654243D01*
X1029500Y654140D01*
X1030021Y654243D01*
X1030462Y654538D01*
X1030757Y654979D01*
X1030860Y655500D01*
X1030757Y656021D01*
X1030462Y656462D01*
X1030021Y656757D01*
X1029500Y656860D01*
D02*
G37*
G36*
X996987Y656470D02*
X996466Y656367D01*
X996025Y656072D01*
X995730Y655630D01*
X995627Y655110D01*
X995730Y654589D01*
X996025Y654148D01*
X996466Y653853D01*
X996987Y653750D01*
X997508Y653853D01*
X997949Y654148D01*
X998244Y654589D01*
X998347Y655110D01*
X998244Y655630D01*
X997949Y656072D01*
X997508Y656367D01*
X996987Y656470D01*
D02*
G37*
G36*
X1127500Y661328D02*
X1126509Y661197D01*
X1125586Y660815D01*
X1124794Y660207D01*
X1124185Y659414D01*
X1123803Y658491D01*
X1123672Y657500D01*
X1123803Y656509D01*
X1124185Y655586D01*
X1124794Y654794D01*
X1125586Y654185D01*
X1126509Y653803D01*
X1127500Y653672D01*
X1128491Y653803D01*
X1129414Y654185D01*
X1130206Y654794D01*
X1130815Y655586D01*
X1131197Y656509D01*
X1131328Y657500D01*
X1131197Y658491D01*
X1130815Y659414D01*
X1130206Y660207D01*
X1129414Y660815D01*
X1128491Y661197D01*
X1127500Y661328D01*
D02*
G37*
G36*
X1074000Y654360D02*
X1073479Y654257D01*
X1073038Y653962D01*
X1072743Y653521D01*
X1072640Y653000D01*
X1072743Y652479D01*
X1073038Y652038D01*
X1073479Y651743D01*
X1074000Y651640D01*
X1074521Y651743D01*
X1074962Y652038D01*
X1075257Y652479D01*
X1075360Y653000D01*
X1075257Y653521D01*
X1074962Y653962D01*
X1074521Y654257D01*
X1074000Y654360D01*
D02*
G37*
G36*
X960500D02*
X959979Y654257D01*
X959538Y653962D01*
X959243Y653521D01*
X959140Y653000D01*
X959243Y652479D01*
X959538Y652038D01*
X959979Y651743D01*
X960500Y651640D01*
X961021Y651743D01*
X961462Y652038D01*
X961757Y652479D01*
X961860Y653000D01*
X961757Y653521D01*
X961462Y653962D01*
X961021Y654257D01*
X960500Y654360D01*
D02*
G37*
G36*
X915268Y654018D02*
X914747Y653914D01*
X914306Y653619D01*
X914011Y653178D01*
X913907Y652658D01*
X914011Y652137D01*
X914306Y651695D01*
X914747Y651401D01*
X915268Y651297D01*
X915788Y651401D01*
X916230Y651695D01*
X916525Y652137D01*
X916628Y652658D01*
X916525Y653178D01*
X916230Y653619D01*
X915788Y653914D01*
X915268Y654018D01*
D02*
G37*
G36*
X1083000Y653860D02*
X1082479Y653757D01*
X1082038Y653462D01*
X1081743Y653021D01*
X1081640Y652500D01*
X1081743Y651979D01*
X1082038Y651538D01*
X1082479Y651243D01*
X1083000Y651140D01*
X1083521Y651243D01*
X1083962Y651538D01*
X1084257Y651979D01*
X1084360Y652500D01*
X1084257Y653021D01*
X1083962Y653462D01*
X1083521Y653757D01*
X1083000Y653860D01*
D02*
G37*
G36*
X1111500Y829360D02*
X1110979Y829257D01*
X1110538Y828962D01*
X1110243Y828521D01*
X1110140Y828000D01*
X1110243Y827479D01*
X1110538Y827038D01*
X1110979Y826743D01*
X1111461Y826647D01*
X1111479Y826638D01*
X1111534Y826634D01*
X1111573Y826624D01*
X1111633Y826601D01*
X1111709Y826563D01*
X1111800Y826508D01*
X1111897Y826440D01*
X1112282Y826113D01*
X1112424Y825975D01*
X1112457Y825961D01*
X1114235Y824183D01*
Y663817D01*
X1100947Y650528D01*
X1099618D01*
X1099586Y650543D01*
X1099381Y650545D01*
X1099203Y650553D01*
X1098887Y650586D01*
X1098767Y650607D01*
X1098664Y650632D01*
X1098583Y650659D01*
X1098525Y650685D01*
X1098490Y650706D01*
X1098448Y650742D01*
X1098429Y650748D01*
X1098021Y651021D01*
X1097500Y651124D01*
X1096979Y651021D01*
X1096571Y650748D01*
X1096552Y650742D01*
X1096510Y650706D01*
X1096475Y650685D01*
X1096417Y650659D01*
X1096336Y650632D01*
X1096233Y650607D01*
X1096117Y650586D01*
X1095612Y650545D01*
X1095414Y650543D01*
X1095382Y650528D01*
X1070035D01*
X1070035Y650528D01*
X1069743Y650470D01*
X1069495Y650305D01*
X1069495Y650305D01*
X1061845Y642654D01*
X1051723D01*
X1051691Y642669D01*
X1051486Y642671D01*
X1051308Y642679D01*
X1050992Y642711D01*
X1050873Y642733D01*
X1050769Y642758D01*
X1050688Y642785D01*
X1050630Y642811D01*
X1050595Y642832D01*
X1050553Y642868D01*
X1050534Y642874D01*
X1050126Y643147D01*
X1049644Y643242D01*
X1049626Y643252D01*
X1049572Y643256D01*
X1049532Y643266D01*
X1049473Y643289D01*
X1049396Y643327D01*
X1049305Y643382D01*
X1049208Y643449D01*
X1048823Y643777D01*
X1048681Y643915D01*
X1048648Y643928D01*
X1018765Y673812D01*
Y675794D01*
X1018765Y675794D01*
X1018707Y676087D01*
X1018541Y676335D01*
X1018541Y676335D01*
X996335Y698541D01*
X996087Y698706D01*
X995794Y698765D01*
X989060D01*
X946265Y741560D01*
Y763110D01*
X946279Y763143D01*
X946282Y763348D01*
X946290Y763525D01*
X946322Y763841D01*
X946343Y763961D01*
X946368Y764064D01*
X946395Y764145D01*
X946421Y764204D01*
X946442Y764239D01*
X946478Y764281D01*
X946484Y764299D01*
X946757Y764708D01*
X946860Y765228D01*
X946757Y765749D01*
X946462Y766190D01*
X946021Y766485D01*
X945500Y766589D01*
X944979Y766485D01*
X944538Y766190D01*
X944243Y765749D01*
X944140Y765228D01*
X944243Y764708D01*
X944516Y764299D01*
X944522Y764281D01*
X944558Y764239D01*
X944579Y764204D01*
X944605Y764145D01*
X944632Y764064D01*
X944657Y763961D01*
X944678Y763845D01*
X944718Y763341D01*
X944721Y763143D01*
X944735Y763110D01*
Y741243D01*
X944794Y740950D01*
X944959Y740702D01*
X988202Y697459D01*
X988451Y697294D01*
X988743Y697235D01*
X995477D01*
X1017235Y675477D01*
Y673495D01*
X1017293Y673202D01*
X1017459Y672954D01*
X1047567Y642847D01*
X1047580Y642814D01*
X1047723Y642667D01*
X1047843Y642535D01*
X1048043Y642290D01*
X1048113Y642190D01*
X1048168Y642099D01*
X1048206Y642022D01*
X1048229Y641963D01*
X1048239Y641923D01*
X1048243Y641868D01*
X1048252Y641851D01*
X1048348Y641369D01*
X1048643Y640928D01*
X1049084Y640633D01*
X1049605Y640529D01*
X1050126Y640633D01*
X1050534Y640906D01*
X1050553Y640912D01*
X1050595Y640947D01*
X1050630Y640969D01*
X1050688Y640995D01*
X1050769Y641021D01*
X1050873Y641047D01*
X1050988Y641067D01*
X1051493Y641108D01*
X1051691Y641111D01*
X1051723Y641125D01*
X1062161D01*
X1062454Y641183D01*
X1062702Y641349D01*
X1070352Y648999D01*
X1095382D01*
X1095414Y648985D01*
X1095619Y648982D01*
X1095797Y648974D01*
X1096113Y648942D01*
X1096233Y648921D01*
X1096336Y648895D01*
X1096417Y648869D01*
X1096475Y648843D01*
X1096510Y648821D01*
X1096552Y648786D01*
X1096571Y648780D01*
X1096979Y648507D01*
X1097500Y648403D01*
X1098021Y648507D01*
X1098429Y648780D01*
X1098448Y648786D01*
X1098490Y648821D01*
X1098525Y648843D01*
X1098583Y648869D01*
X1098664Y648895D01*
X1098767Y648921D01*
X1098883Y648941D01*
X1099388Y648982D01*
X1099586Y648985D01*
X1099618Y648999D01*
X1101264D01*
X1101556Y649057D01*
X1101805Y649223D01*
X1115541Y662959D01*
X1115707Y663207D01*
X1115765Y663500D01*
Y824500D01*
X1115765Y824500D01*
X1115707Y824793D01*
X1115541Y825041D01*
X1113539Y827043D01*
X1113525Y827076D01*
X1113383Y827223D01*
X1113262Y827354D01*
X1113062Y827600D01*
X1112992Y827700D01*
X1112937Y827791D01*
X1112899Y827867D01*
X1112876Y827927D01*
X1112866Y827966D01*
X1112862Y828021D01*
X1112853Y828039D01*
X1112757Y828521D01*
X1112462Y828962D01*
X1112021Y829257D01*
X1111500Y829360D01*
D02*
G37*
G36*
X875641Y652832D02*
X875120Y652729D01*
X874679Y652434D01*
X874384Y651992D01*
X874280Y651472D01*
X874384Y650951D01*
X874679Y650510D01*
X875120Y650215D01*
X875641Y650111D01*
X876161Y650215D01*
X876603Y650510D01*
X876898Y650951D01*
X877001Y651472D01*
X876898Y651992D01*
X876603Y652434D01*
X876161Y652729D01*
X875641Y652832D01*
D02*
G37*
G36*
X931114Y651813D02*
X930594Y651710D01*
X930152Y651415D01*
X929858Y650973D01*
X929754Y650453D01*
X929858Y649932D01*
X930152Y649491D01*
X930594Y649196D01*
X931114Y649092D01*
X931635Y649196D01*
X932076Y649491D01*
X932371Y649932D01*
X932475Y650453D01*
X932371Y650973D01*
X932076Y651415D01*
X931635Y651710D01*
X931114Y651813D01*
D02*
G37*
G36*
X950441Y651540D02*
X949920Y651436D01*
X949479Y651142D01*
X949184Y650700D01*
X949081Y650179D01*
X949184Y649659D01*
X949479Y649218D01*
X949920Y648923D01*
X950441Y648819D01*
X950961Y648923D01*
X951403Y649218D01*
X951698Y649659D01*
X951801Y650179D01*
X951698Y650700D01*
X951403Y651142D01*
X950961Y651436D01*
X950441Y651540D01*
D02*
G37*
G36*
X998902Y651093D02*
X998381Y650989D01*
X997940Y650695D01*
X997645Y650253D01*
X997541Y649733D01*
X997645Y649212D01*
X997940Y648771D01*
X998381Y648476D01*
X998902Y648372D01*
X999422Y648476D01*
X999864Y648771D01*
X1000159Y649212D01*
X1000262Y649733D01*
X1000159Y650253D01*
X999864Y650695D01*
X999422Y650989D01*
X998902Y651093D01*
D02*
G37*
G36*
X841452Y651060D02*
X840932Y650957D01*
X840490Y650662D01*
X840195Y650221D01*
X840092Y649700D01*
X840195Y649179D01*
X840490Y648738D01*
X840932Y648443D01*
X841452Y648340D01*
X841973Y648443D01*
X842414Y648738D01*
X842709Y649179D01*
X842813Y649700D01*
X842709Y650221D01*
X842414Y650662D01*
X841973Y650957D01*
X841452Y651060D01*
D02*
G37*
G36*
X954500Y649360D02*
X953979Y649257D01*
X953538Y648962D01*
X953243Y648521D01*
X953140Y648000D01*
X953243Y647479D01*
X953538Y647038D01*
X953979Y646743D01*
X954500Y646640D01*
X955021Y646743D01*
X955462Y647038D01*
X955757Y647479D01*
X955860Y648000D01*
X955757Y648521D01*
X955462Y648962D01*
X955021Y649257D01*
X954500Y649360D01*
D02*
G37*
G36*
X886700Y647960D02*
X886179Y647857D01*
X885738Y647562D01*
X885443Y647121D01*
X885340Y646600D01*
X885443Y646079D01*
X885738Y645638D01*
X886179Y645343D01*
X886700Y645240D01*
X887221Y645343D01*
X887662Y645638D01*
X887957Y646079D01*
X888060Y646600D01*
X887957Y647121D01*
X887662Y647562D01*
X887221Y647857D01*
X886700Y647960D01*
D02*
G37*
G36*
X846250D02*
X845729Y647857D01*
X845288Y647562D01*
X844993Y647121D01*
X844890Y646600D01*
X844993Y646079D01*
X845288Y645638D01*
X845729Y645343D01*
X846250Y645240D01*
X846771Y645343D01*
X847212Y645638D01*
X847507Y646079D01*
X847610Y646600D01*
X847507Y647121D01*
X847212Y647562D01*
X846771Y647857D01*
X846250Y647960D01*
D02*
G37*
G36*
X1053442Y647419D02*
X1052921Y647315D01*
X1052480Y647020D01*
X1052185Y646579D01*
X1052081Y646058D01*
X1052185Y645538D01*
X1052480Y645096D01*
X1052921Y644802D01*
X1053442Y644698D01*
X1053962Y644802D01*
X1054404Y645096D01*
X1054698Y645538D01*
X1054802Y646058D01*
X1054698Y646579D01*
X1054404Y647020D01*
X1053962Y647315D01*
X1053442Y647419D01*
D02*
G37*
G36*
X1102239Y647336D02*
X1101718Y647233D01*
X1101277Y646938D01*
X1100982Y646496D01*
X1100878Y645976D01*
X1100982Y645455D01*
X1101277Y645014D01*
X1101718Y644719D01*
X1102239Y644616D01*
X1102759Y644719D01*
X1103201Y645014D01*
X1103496Y645455D01*
X1103599Y645976D01*
X1103496Y646496D01*
X1103201Y646938D01*
X1102759Y647233D01*
X1102239Y647336D01*
D02*
G37*
G36*
X998902Y646705D02*
X998381Y646601D01*
X997940Y646306D01*
X997645Y645865D01*
X997541Y645344D01*
X997645Y644824D01*
X997940Y644382D01*
X998381Y644087D01*
X998902Y643984D01*
X999422Y644087D01*
X999864Y644382D01*
X1000159Y644824D01*
X1000262Y645344D01*
X1000159Y645865D01*
X999864Y646306D01*
X999422Y646601D01*
X998902Y646705D01*
D02*
G37*
G36*
X1111500Y834360D02*
X1110979Y834257D01*
X1110538Y833962D01*
X1110243Y833521D01*
X1110140Y833000D01*
X1110243Y832479D01*
X1110538Y832038D01*
X1110979Y831743D01*
X1111461Y831647D01*
X1111479Y831638D01*
X1111534Y831634D01*
X1111573Y831624D01*
X1111633Y831601D01*
X1111709Y831563D01*
X1111800Y831508D01*
X1111897Y831440D01*
X1112282Y831113D01*
X1112424Y830975D01*
X1112457Y830961D01*
X1117735Y825683D01*
Y654410D01*
X1117721Y654379D01*
X1117713Y654157D01*
X1117691Y653956D01*
X1117654Y653763D01*
X1117603Y653578D01*
X1117538Y653399D01*
X1117457Y653226D01*
X1117362Y653058D01*
X1117252Y652896D01*
X1117126Y652738D01*
X1116974Y652575D01*
X1116963Y652544D01*
X1107047Y642629D01*
X1101703D01*
X1101687Y642639D01*
X1101660Y642632D01*
X1101635Y642643D01*
X1101434Y642646D01*
X1101086Y642670D01*
X1100951Y642689D01*
X1100834Y642713D01*
X1100739Y642739D01*
X1100669Y642767D01*
X1100624Y642791D01*
X1100602Y642807D01*
X1100570Y642842D01*
X1100530Y642861D01*
X1100462Y642962D01*
X1100021Y643257D01*
X1099500Y643360D01*
X1098979Y643257D01*
X1098571Y642984D01*
X1098552Y642978D01*
X1098510Y642942D01*
X1098475Y642921D01*
X1098417Y642895D01*
X1098336Y642868D01*
X1098233Y642843D01*
X1098117Y642822D01*
X1097612Y642781D01*
X1097414Y642779D01*
X1097382Y642765D01*
X1075096D01*
X1074803Y642706D01*
X1074555Y642541D01*
X1070779Y638765D01*
X1048118D01*
X1048086Y638779D01*
X1047881Y638782D01*
X1047703Y638790D01*
X1047387Y638822D01*
X1047267Y638843D01*
X1047164Y638868D01*
X1047083Y638895D01*
X1047025Y638921D01*
X1046990Y638942D01*
X1046948Y638978D01*
X1046929Y638984D01*
X1046521Y639257D01*
X1046000Y639360D01*
X1045479Y639257D01*
X1045071Y638984D01*
X1045052Y638978D01*
X1045010Y638942D01*
X1044975Y638921D01*
X1044917Y638895D01*
X1044836Y638868D01*
X1044733Y638843D01*
X1044617Y638822D01*
X1044112Y638781D01*
X1043914Y638779D01*
X1043882Y638765D01*
X1041445D01*
X937512Y742697D01*
X937506Y742720D01*
X937489Y742730D01*
X937481Y742748D01*
X937341Y742893D01*
X937111Y743156D01*
X937028Y743266D01*
X936960Y743366D01*
X936911Y743454D01*
X936878Y743525D01*
X936862Y743576D01*
X936856Y743607D01*
X936857Y743657D01*
X936844Y743689D01*
X936860Y743772D01*
X936757Y744292D01*
X936462Y744734D01*
X936021Y745028D01*
X935500Y745132D01*
X934979Y745028D01*
X934538Y744734D01*
X934243Y744292D01*
X934140Y743772D01*
X934243Y743251D01*
X934538Y742810D01*
X934979Y742515D01*
X935288Y742453D01*
X935342Y742419D01*
X935400Y742408D01*
X935447Y742393D01*
X935512Y742364D01*
X935592Y742319D01*
X935686Y742259D01*
X935786Y742186D01*
X936172Y741851D01*
X936315Y741712D01*
X936348Y741699D01*
X1040587Y637459D01*
X1040835Y637293D01*
X1041128Y637235D01*
X1043882D01*
X1043914Y637221D01*
X1044119Y637218D01*
X1044297Y637211D01*
X1044613Y637178D01*
X1044733Y637157D01*
X1044836Y637132D01*
X1044917Y637105D01*
X1044975Y637079D01*
X1045010Y637058D01*
X1045052Y637022D01*
X1045071Y637016D01*
X1045479Y636743D01*
X1046000Y636640D01*
X1046521Y636743D01*
X1046929Y637016D01*
X1046948Y637022D01*
X1046990Y637058D01*
X1047025Y637079D01*
X1047083Y637105D01*
X1047164Y637132D01*
X1047267Y637157D01*
X1047383Y637178D01*
X1047888Y637219D01*
X1048086Y637221D01*
X1048118Y637235D01*
X1071096D01*
X1071389Y637293D01*
X1071637Y637459D01*
X1075413Y641235D01*
X1097382D01*
X1097414Y641221D01*
X1097619Y641218D01*
X1097797Y641211D01*
X1098113Y641178D01*
X1098233Y641157D01*
X1098336Y641132D01*
X1098417Y641105D01*
X1098475Y641079D01*
X1098510Y641058D01*
X1098552Y641022D01*
X1098571Y641016D01*
X1098979Y640743D01*
X1099500Y640640D01*
X1100021Y640743D01*
X1100242Y640891D01*
X1100308Y640903D01*
X1100358Y640936D01*
X1100404Y640958D01*
X1100468Y640981D01*
X1100681Y641031D01*
X1100799Y641048D01*
X1101312Y641083D01*
X1101511Y641085D01*
X1101544Y641099D01*
X1107364D01*
X1107657Y641158D01*
X1107905Y641323D01*
X1117875Y651294D01*
X1117905Y651304D01*
X1118057Y651441D01*
X1118185Y651531D01*
X1118301Y651589D01*
X1118404Y651620D01*
X1118500Y651629D01*
X1118596Y651620D01*
X1118699Y651589D01*
X1118815Y651531D01*
X1118943Y651441D01*
X1119095Y651304D01*
X1119125Y651294D01*
X1121586Y648832D01*
X1121598Y648801D01*
X1122009Y648362D01*
X1122366Y647923D01*
X1122680Y647475D01*
X1122950Y647016D01*
X1123176Y646548D01*
X1123361Y646069D01*
X1123503Y645580D01*
X1123602Y645078D01*
X1123660Y644565D01*
X1123676Y644031D01*
X1123672Y644000D01*
X1123803Y643009D01*
X1124185Y642086D01*
X1124794Y641293D01*
X1125586Y640685D01*
X1126509Y640303D01*
X1127500Y640172D01*
X1128491Y640303D01*
X1129414Y640685D01*
X1130206Y641293D01*
X1130815Y642086D01*
X1131197Y643009D01*
X1131328Y644000D01*
X1131197Y644991D01*
X1130815Y645914D01*
X1130206Y646706D01*
X1129414Y647315D01*
X1128491Y647697D01*
X1127500Y647828D01*
X1127469Y647824D01*
X1126935Y647840D01*
X1126422Y647898D01*
X1125920Y647998D01*
X1125431Y648139D01*
X1124952Y648324D01*
X1124483Y648551D01*
X1124025Y648820D01*
X1123577Y649134D01*
X1123138Y649491D01*
X1122699Y649902D01*
X1122668Y649914D01*
X1120037Y652544D01*
X1120026Y652575D01*
X1119874Y652738D01*
X1119748Y652896D01*
X1119638Y653058D01*
X1119543Y653226D01*
X1119462Y653399D01*
X1119397Y653578D01*
X1119346Y653763D01*
X1119309Y653956D01*
X1119287Y654157D01*
X1119279Y654379D01*
X1119265Y654410D01*
Y826000D01*
X1119207Y826293D01*
X1119041Y826541D01*
X1119041Y826541D01*
X1113539Y832043D01*
X1113525Y832076D01*
X1113383Y832223D01*
X1113262Y832354D01*
X1113062Y832600D01*
X1112992Y832700D01*
X1112937Y832791D01*
X1112899Y832867D01*
X1112876Y832927D01*
X1112866Y832967D01*
X1112862Y833021D01*
X1112853Y833039D01*
X1112757Y833521D01*
X1112462Y833962D01*
X1112021Y834257D01*
X1111500Y834360D01*
D02*
G37*
G36*
X891267Y644860D02*
X890746Y644757D01*
X890304Y644462D01*
X890010Y644021D01*
X889906Y643500D01*
X890010Y642979D01*
X890304Y642538D01*
X890746Y642243D01*
X891267Y642140D01*
X891787Y642243D01*
X892228Y642538D01*
X892523Y642979D01*
X892627Y643500D01*
X892523Y644021D01*
X892228Y644462D01*
X891787Y644757D01*
X891267Y644860D01*
D02*
G37*
G36*
X1067331Y644360D02*
X1066810Y644257D01*
X1066369Y643962D01*
X1066074Y643521D01*
X1065970Y643000D01*
X1066074Y642479D01*
X1066369Y642038D01*
X1066810Y641743D01*
X1067331Y641640D01*
X1067851Y641743D01*
X1068293Y642038D01*
X1068588Y642479D01*
X1068691Y643000D01*
X1068588Y643521D01*
X1068293Y643962D01*
X1067851Y644257D01*
X1067331Y644360D01*
D02*
G37*
G36*
X998902Y642512D02*
X998381Y642409D01*
X997940Y642114D01*
X997645Y641673D01*
X997541Y641152D01*
X997645Y640631D01*
X997940Y640190D01*
X998381Y639895D01*
X998902Y639792D01*
X999422Y639895D01*
X999864Y640190D01*
X1000159Y640631D01*
X1000262Y641152D01*
X1000159Y641673D01*
X999864Y642114D01*
X999422Y642409D01*
X998902Y642512D01*
D02*
G37*
G36*
X802000Y641360D02*
X801479Y641257D01*
X801038Y640962D01*
X800743Y640521D01*
X800640Y640000D01*
X800743Y639479D01*
X801038Y639038D01*
X801479Y638743D01*
X802000Y638640D01*
X802521Y638743D01*
X802962Y639038D01*
X803257Y639479D01*
X803360Y640000D01*
X803257Y640521D01*
X802962Y640962D01*
X802521Y641257D01*
X802000Y641360D01*
D02*
G37*
G36*
X966000Y640860D02*
X965479Y640757D01*
X965038Y640462D01*
X964743Y640021D01*
X964640Y639500D01*
X964743Y638979D01*
X965038Y638538D01*
X965479Y638243D01*
X966000Y638140D01*
X966521Y638243D01*
X966962Y638538D01*
X967257Y638979D01*
X967360Y639500D01*
X967257Y640021D01*
X966962Y640462D01*
X966521Y640757D01*
X966000Y640860D01*
D02*
G37*
G36*
X1081000Y640440D02*
X1080479Y640336D01*
X1080038Y640041D01*
X1079743Y639600D01*
X1079640Y639079D01*
X1079743Y638559D01*
X1080038Y638117D01*
X1080479Y637822D01*
X1081000Y637719D01*
X1081521Y637822D01*
X1081962Y638117D01*
X1082257Y638559D01*
X1082360Y639079D01*
X1082257Y639600D01*
X1081962Y640041D01*
X1081521Y640336D01*
X1081000Y640440D01*
D02*
G37*
G36*
X841452Y638660D02*
X840932Y638557D01*
X840490Y638262D01*
X840195Y637821D01*
X840092Y637300D01*
X840195Y636779D01*
X840490Y636338D01*
X840932Y636043D01*
X841452Y635940D01*
X841973Y636043D01*
X842414Y636338D01*
X842709Y636779D01*
X842813Y637300D01*
X842709Y637821D01*
X842414Y638262D01*
X841973Y638557D01*
X841452Y638660D01*
D02*
G37*
G36*
X998902Y638000D02*
X998381Y637896D01*
X997940Y637602D01*
X997645Y637160D01*
X997541Y636640D01*
X997645Y636119D01*
X997940Y635678D01*
X998381Y635383D01*
X998902Y635279D01*
X999422Y635383D01*
X999864Y635678D01*
X1000159Y636119D01*
X1000262Y636640D01*
X1000159Y637160D01*
X999864Y637602D01*
X999422Y637896D01*
X998902Y638000D01*
D02*
G37*
G36*
X1091000Y636860D02*
X1090479Y636757D01*
X1090038Y636462D01*
X1089743Y636021D01*
X1089640Y635500D01*
X1089743Y634979D01*
X1090038Y634538D01*
X1090479Y634243D01*
X1091000Y634140D01*
X1091521Y634243D01*
X1091962Y634538D01*
X1092257Y634979D01*
X1092360Y635500D01*
X1092257Y636021D01*
X1091962Y636462D01*
X1091521Y636757D01*
X1091000Y636860D01*
D02*
G37*
G36*
X886700Y635560D02*
X886179Y635457D01*
X885738Y635162D01*
X885443Y634721D01*
X885340Y634200D01*
X885443Y633679D01*
X885738Y633238D01*
X886179Y632943D01*
X886700Y632840D01*
X887221Y632943D01*
X887662Y633238D01*
X887957Y633679D01*
X888060Y634200D01*
X887957Y634721D01*
X887662Y635162D01*
X887221Y635457D01*
X886700Y635560D01*
D02*
G37*
G36*
X846250D02*
X845729Y635457D01*
X845288Y635162D01*
X844993Y634721D01*
X844890Y634200D01*
X844993Y633679D01*
X845288Y633238D01*
X845729Y632943D01*
X846250Y632840D01*
X846771Y632943D01*
X847212Y633238D01*
X847507Y633679D01*
X847610Y634200D01*
X847507Y634721D01*
X847212Y635162D01*
X846771Y635457D01*
X846250Y635560D01*
D02*
G37*
G36*
X1053442Y635527D02*
X1052921Y635424D01*
X1052480Y635129D01*
X1052185Y634688D01*
X1052081Y634167D01*
X1052185Y633646D01*
X1052480Y633205D01*
X1052921Y632910D01*
X1053442Y632806D01*
X1053962Y632910D01*
X1054404Y633205D01*
X1054698Y633646D01*
X1054802Y634167D01*
X1054698Y634688D01*
X1054404Y635129D01*
X1053962Y635424D01*
X1053442Y635527D01*
D02*
G37*
G36*
X881279Y711360D02*
X880759Y711257D01*
X880318Y710962D01*
X880023Y710521D01*
X879919Y710000D01*
X880023Y709479D01*
X880318Y709038D01*
X880759Y708743D01*
X881279Y708640D01*
X881800Y708743D01*
X882208Y709016D01*
X882227Y709022D01*
X882269Y709058D01*
X882304Y709079D01*
X882362Y709105D01*
X882444Y709132D01*
X882547Y709157D01*
X882663Y709178D01*
X883167Y709219D01*
X883365Y709221D01*
X883398Y709235D01*
X887425D01*
X933302Y663358D01*
Y636341D01*
X933292Y636322D01*
X933297Y636300D01*
X933288Y636279D01*
X933285Y636077D01*
X933261Y635729D01*
X933243Y635593D01*
X933219Y635475D01*
X933193Y635379D01*
X933165Y635308D01*
X933141Y635260D01*
X933123Y635236D01*
X933088Y635203D01*
X933072Y635167D01*
X932989Y635112D01*
X932694Y634670D01*
X932591Y634150D01*
X932694Y633629D01*
X932989Y633188D01*
X933431Y632893D01*
X933951Y632789D01*
X934472Y632893D01*
X934913Y633188D01*
X935208Y633629D01*
X935312Y634150D01*
X935208Y634670D01*
X935045Y634914D01*
X935032Y634979D01*
X934998Y635028D01*
X934976Y635073D01*
X934951Y635141D01*
X934926Y635230D01*
X934903Y635340D01*
X934884Y635463D01*
X934848Y635974D01*
X934846Y636173D01*
X934832Y636206D01*
Y663675D01*
X934774Y663967D01*
X934608Y664215D01*
X888283Y710541D01*
X888035Y710707D01*
X887742Y710765D01*
X883398D01*
X883365Y710779D01*
X883160Y710782D01*
X882982Y710789D01*
X882667Y710822D01*
X882547Y710843D01*
X882444Y710868D01*
X882362Y710895D01*
X882304Y710921D01*
X882269Y710942D01*
X882227Y710978D01*
X882208Y710984D01*
X881800Y711257D01*
X881279Y711360D01*
D02*
G37*
G36*
X989383Y633460D02*
X988862Y633356D01*
X988421Y633061D01*
X988126Y632620D01*
X988023Y632099D01*
X988126Y631578D01*
X988421Y631137D01*
X988862Y630842D01*
X989383Y630739D01*
X989904Y630842D01*
X990345Y631137D01*
X990640Y631578D01*
X990743Y632099D01*
X990640Y632620D01*
X990345Y633061D01*
X989904Y633356D01*
X989383Y633460D01*
D02*
G37*
G36*
X998902Y633067D02*
X998381Y632964D01*
X997940Y632669D01*
X997645Y632228D01*
X997541Y631707D01*
X997645Y631186D01*
X997940Y630745D01*
X998381Y630450D01*
X998902Y630347D01*
X999422Y630450D01*
X999864Y630745D01*
X1000159Y631186D01*
X1000262Y631707D01*
X1000159Y632228D01*
X999864Y632669D01*
X999422Y632964D01*
X998902Y633067D01*
D02*
G37*
G36*
X841452Y632460D02*
X840932Y632357D01*
X840490Y632062D01*
X840195Y631621D01*
X840092Y631100D01*
X840195Y630579D01*
X840490Y630138D01*
X840932Y629843D01*
X841452Y629740D01*
X841973Y629843D01*
X842414Y630138D01*
X842709Y630579D01*
X842813Y631100D01*
X842709Y631621D01*
X842414Y632062D01*
X841973Y632357D01*
X841452Y632460D01*
D02*
G37*
G36*
X904500Y894498D02*
X903979Y894395D01*
X903538Y894100D01*
X903243Y893658D01*
X903140Y893138D01*
X903243Y892617D01*
X903538Y892176D01*
X903979Y891881D01*
X904461Y891785D01*
X904479Y891776D01*
X904533Y891772D01*
X904573Y891762D01*
X904633Y891739D01*
X904709Y891701D01*
X904800Y891646D01*
X904897Y891578D01*
X905282Y891251D01*
X905424Y891112D01*
X905457Y891099D01*
X912235Y884321D01*
Y711500D01*
X912294Y711207D01*
X912459Y710959D01*
X960459Y662959D01*
X960707Y662793D01*
X961000Y662735D01*
X1006183D01*
X1037399Y631520D01*
X1037412Y631487D01*
X1037823Y631062D01*
X1038092Y630754D01*
X1038143Y630687D01*
X1038178Y630635D01*
X1038193Y630609D01*
X1038204Y630583D01*
X1038227Y630559D01*
X1038243Y630479D01*
X1038538Y630038D01*
X1038979Y629743D01*
X1039500Y629640D01*
X1040021Y629743D01*
X1040462Y630038D01*
X1040757Y630479D01*
X1040860Y631000D01*
X1040757Y631521D01*
X1040462Y631962D01*
X1040021Y632257D01*
X1039500Y632360D01*
X1039082Y632277D01*
X1039046Y632283D01*
X1039018Y632276D01*
X1038993Y632281D01*
X1038941Y632300D01*
X1038867Y632338D01*
X1038774Y632396D01*
X1038671Y632472D01*
X1038411Y632695D01*
X1038266Y632835D01*
X1038233Y632848D01*
X1007041Y664041D01*
X1006793Y664207D01*
X1006500Y664265D01*
X961317D01*
X913765Y711817D01*
Y884638D01*
X913765Y884638D01*
X913706Y884930D01*
X913541Y885178D01*
X913541Y885178D01*
X906539Y892181D01*
X906525Y892214D01*
X906383Y892361D01*
X906262Y892492D01*
X906062Y892738D01*
X905992Y892838D01*
X905937Y892929D01*
X905899Y893005D01*
X905876Y893065D01*
X905866Y893104D01*
X905862Y893159D01*
X905853Y893177D01*
X905757Y893658D01*
X905462Y894100D01*
X905021Y894395D01*
X904500Y894498D01*
D02*
G37*
G36*
X1069000Y631360D02*
X1068479Y631257D01*
X1068038Y630962D01*
X1067743Y630521D01*
X1067640Y630000D01*
X1067743Y629479D01*
X1068038Y629038D01*
X1068479Y628743D01*
X1069000Y628640D01*
X1069521Y628743D01*
X1069962Y629038D01*
X1070257Y629479D01*
X1070360Y630000D01*
X1070257Y630521D01*
X1069962Y630962D01*
X1069521Y631257D01*
X1069000Y631360D01*
D02*
G37*
G36*
X1032500Y630360D02*
X1031979Y630257D01*
X1031538Y629962D01*
X1031243Y629521D01*
X1031140Y629000D01*
X1031243Y628479D01*
X1031538Y628038D01*
X1031979Y627743D01*
X1032500Y627640D01*
X1033021Y627743D01*
X1033462Y628038D01*
X1033757Y628479D01*
X1033860Y629000D01*
X1033757Y629521D01*
X1033462Y629962D01*
X1033021Y630257D01*
X1032500Y630360D01*
D02*
G37*
G36*
X935004Y628414D02*
X934484Y628311D01*
X934042Y628016D01*
X933747Y627574D01*
X933644Y627054D01*
X933191Y626765D01*
X904400D01*
X904400Y626765D01*
X904107Y626707D01*
X903859Y626541D01*
X895959Y618641D01*
X895794Y618393D01*
X895735Y618100D01*
Y603317D01*
X883183Y590765D01*
X802975D01*
X802950Y590778D01*
X802941Y590775D01*
X802932Y590779D01*
X802185Y590805D01*
X801485Y590882D01*
X800820Y591011D01*
X800190Y591190D01*
X799593Y591419D01*
X799029Y591699D01*
X798497Y592029D01*
X797996Y592411D01*
X797525Y592844D01*
X797073Y593342D01*
X797025Y593364D01*
X796803Y593654D01*
X795836Y594396D01*
X794709Y594863D01*
X793500Y595022D01*
X792291Y594863D01*
X791164Y594396D01*
X790197Y593654D01*
X789454Y592686D01*
X788988Y591560D01*
X788829Y590350D01*
X788988Y589141D01*
X789454Y588015D01*
X790197Y587047D01*
X791164Y586305D01*
X792291Y585838D01*
X793500Y585679D01*
X794709Y585838D01*
X795836Y586305D01*
X796484Y586802D01*
X796541Y586819D01*
X797114Y587284D01*
X797691Y587691D01*
X798283Y588051D01*
X798890Y588361D01*
X799511Y588624D01*
X800147Y588839D01*
X800799Y589006D01*
X801467Y589125D01*
X802152Y589197D01*
X802866Y589221D01*
X802897Y589235D01*
X883500D01*
X883793Y589293D01*
X884041Y589459D01*
X897041Y602459D01*
X897206Y602707D01*
X897265Y603000D01*
Y617783D01*
X904717Y625235D01*
X933947D01*
X934240Y625293D01*
X934488Y625459D01*
X934769Y625740D01*
X935004Y625693D01*
X935525Y625797D01*
X935966Y626092D01*
X936261Y626533D01*
X936364Y627054D01*
X936261Y627574D01*
X935966Y628016D01*
X935525Y628311D01*
X935004Y628414D01*
D02*
G37*
G36*
X1127500Y634328D02*
X1126509Y634197D01*
X1125586Y633815D01*
X1124794Y633207D01*
X1124185Y632414D01*
X1123803Y631491D01*
X1123672Y630500D01*
X1123803Y629509D01*
X1124185Y628586D01*
X1124794Y627794D01*
X1125586Y627185D01*
X1126509Y626803D01*
X1127500Y626672D01*
X1128491Y626803D01*
X1129414Y627185D01*
X1130206Y627794D01*
X1130815Y628586D01*
X1131197Y629509D01*
X1131328Y630500D01*
X1131197Y631491D01*
X1130815Y632414D01*
X1130206Y633207D01*
X1129414Y633815D01*
X1128491Y634197D01*
X1127500Y634328D01*
D02*
G37*
G36*
X886700Y629360D02*
X886179Y629257D01*
X885738Y628962D01*
X885443Y628521D01*
X885340Y628000D01*
X885443Y627479D01*
X885738Y627038D01*
X886179Y626743D01*
X886700Y626640D01*
X887221Y626743D01*
X887662Y627038D01*
X887957Y627479D01*
X888060Y628000D01*
X887957Y628521D01*
X887662Y628962D01*
X887221Y629257D01*
X886700Y629360D01*
D02*
G37*
G36*
X996972Y626721D02*
X996452Y626617D01*
X996010Y626322D01*
X995716Y625881D01*
X995612Y625360D01*
X995716Y624840D01*
X996010Y624398D01*
X996452Y624103D01*
X996972Y624000D01*
X997493Y624103D01*
X997934Y624398D01*
X998229Y624840D01*
X998333Y625360D01*
X998229Y625881D01*
X997934Y626322D01*
X997493Y626617D01*
X996972Y626721D01*
D02*
G37*
G36*
X841452Y626260D02*
X840932Y626157D01*
X840490Y625862D01*
X840195Y625421D01*
X840092Y624900D01*
X840195Y624379D01*
X840490Y623938D01*
X840932Y623643D01*
X841452Y623540D01*
X841973Y623643D01*
X842414Y623938D01*
X842709Y624379D01*
X842813Y624900D01*
X842709Y625421D01*
X842414Y625862D01*
X841973Y626157D01*
X841452Y626260D01*
D02*
G37*
G36*
X891267Y626195D02*
X890746Y626092D01*
X890304Y625797D01*
X890010Y625355D01*
X889906Y624835D01*
X890010Y624314D01*
X890304Y623873D01*
X890746Y623578D01*
X891267Y623474D01*
X891787Y623578D01*
X892228Y623873D01*
X892523Y624314D01*
X892627Y624835D01*
X892523Y625355D01*
X892228Y625797D01*
X891787Y626092D01*
X891267Y626195D01*
D02*
G37*
G36*
X1067016Y623565D02*
X1066495Y623462D01*
X1066054Y623167D01*
X1065759Y622725D01*
X1065655Y622205D01*
X1065759Y621684D01*
X1066054Y621243D01*
X1066495Y620948D01*
X1067016Y620844D01*
X1067536Y620948D01*
X1067978Y621243D01*
X1068273Y621684D01*
X1068376Y622205D01*
X1068273Y622725D01*
X1067978Y623167D01*
X1067536Y623462D01*
X1067016Y623565D01*
D02*
G37*
G36*
X955260Y623360D02*
X954739Y623257D01*
X954298Y622962D01*
X954003Y622521D01*
X953899Y622000D01*
X954003Y621479D01*
X954298Y621038D01*
X954739Y620743D01*
X955260Y620640D01*
X955780Y620743D01*
X956222Y621038D01*
X956517Y621479D01*
X956620Y622000D01*
X956517Y622521D01*
X956222Y622962D01*
X955780Y623257D01*
X955260Y623360D01*
D02*
G37*
G36*
X886700Y623160D02*
X886179Y623057D01*
X885738Y622762D01*
X885443Y622321D01*
X885340Y621800D01*
X885443Y621279D01*
X885738Y620838D01*
X886179Y620543D01*
X886700Y620440D01*
X887221Y620543D01*
X887662Y620838D01*
X887957Y621279D01*
X888060Y621800D01*
X887957Y622321D01*
X887662Y622762D01*
X887221Y623057D01*
X886700Y623160D01*
D02*
G37*
G36*
X846250D02*
X845729Y623057D01*
X845288Y622762D01*
X844993Y622321D01*
X844890Y621800D01*
X844993Y621279D01*
X845288Y620838D01*
X845729Y620543D01*
X846250Y620440D01*
X846771Y620543D01*
X847212Y620838D01*
X847507Y621279D01*
X847610Y621800D01*
X847507Y622321D01*
X847212Y622762D01*
X846771Y623057D01*
X846250Y623160D01*
D02*
G37*
G36*
X937046Y621912D02*
X936525Y621809D01*
X936084Y621514D01*
X935884Y621215D01*
X935842Y621186D01*
X935824Y621158D01*
X935820Y621155D01*
X935794Y621138D01*
X935740Y621114D01*
X935658Y621088D01*
X935550Y621064D01*
X935422Y621044D01*
X935080Y621018D01*
X934878Y621015D01*
X934846Y621001D01*
X903245D01*
X902952Y620943D01*
X902705Y620777D01*
X899459Y617532D01*
X899294Y617284D01*
X899235Y616991D01*
Y600317D01*
X884683Y585765D01*
X811500D01*
X811207Y585707D01*
X810959Y585541D01*
X792459Y567041D01*
X792294Y566793D01*
X792235Y566500D01*
Y554988D01*
X792221Y554956D01*
X792218Y554751D01*
X792210Y554573D01*
X792178Y554257D01*
X792157Y554137D01*
X792132Y554034D01*
X792105Y553953D01*
X792079Y553895D01*
X792058Y553860D01*
X792022Y553818D01*
X792016Y553799D01*
X791743Y553391D01*
X791640Y552870D01*
X791743Y552350D01*
X792038Y551908D01*
X792479Y551613D01*
X793000Y551510D01*
X793521Y551613D01*
X793962Y551908D01*
X794257Y552350D01*
X794360Y552870D01*
X794257Y553391D01*
X793984Y553799D01*
X793978Y553818D01*
X793942Y553860D01*
X793921Y553895D01*
X793895Y553953D01*
X793868Y554034D01*
X793843Y554138D01*
X793822Y554253D01*
X793782Y554758D01*
X793779Y554956D01*
X793765Y554988D01*
Y566183D01*
X811817Y584235D01*
X885000D01*
X885293Y584294D01*
X885541Y584459D01*
X900541Y599459D01*
X900706Y599707D01*
X900765Y600000D01*
Y616674D01*
X903562Y619472D01*
X935151D01*
X935184Y619457D01*
X935593Y619452D01*
X935921Y619436D01*
X936172Y619411D01*
X936260Y619397D01*
X936326Y619382D01*
X936362Y619371D01*
X936397Y619355D01*
X936439Y619353D01*
X936525Y619295D01*
X937046Y619192D01*
X937566Y619295D01*
X938008Y619590D01*
X938303Y620031D01*
X938406Y620552D01*
X938303Y621073D01*
X938008Y621514D01*
X937566Y621809D01*
X937046Y621912D01*
D02*
G37*
G36*
X891267Y620060D02*
X890746Y619957D01*
X890304Y619662D01*
X890010Y619221D01*
X889906Y618700D01*
X890010Y618179D01*
X890304Y617738D01*
X890746Y617443D01*
X891267Y617340D01*
X891787Y617443D01*
X892228Y617738D01*
X892523Y618179D01*
X892627Y618700D01*
X892523Y619221D01*
X892228Y619662D01*
X891787Y619957D01*
X891267Y620060D01*
D02*
G37*
G36*
X841452D02*
X840932Y619957D01*
X840490Y619662D01*
X840195Y619221D01*
X840092Y618700D01*
X840195Y618179D01*
X840490Y617738D01*
X840932Y617443D01*
X841452Y617340D01*
X841973Y617443D01*
X842414Y617738D01*
X842709Y618179D01*
X842813Y618700D01*
X842709Y619221D01*
X842414Y619662D01*
X841973Y619957D01*
X841452Y620060D01*
D02*
G37*
G36*
X993365Y619360D02*
X992845Y619257D01*
X992403Y618962D01*
X992109Y618521D01*
X992005Y618000D01*
X992109Y617479D01*
X992403Y617038D01*
X992845Y616743D01*
X993365Y616640D01*
X993886Y616743D01*
X994327Y617038D01*
X994622Y617479D01*
X994726Y618000D01*
X994622Y618521D01*
X994327Y618962D01*
X993886Y619257D01*
X993365Y619360D01*
D02*
G37*
G36*
X1115000Y618329D02*
X1114479Y618225D01*
X1114038Y617930D01*
X1113743Y617489D01*
X1113640Y616968D01*
X1113743Y616448D01*
X1114038Y616007D01*
X1114479Y615712D01*
X1115000Y615608D01*
X1115521Y615712D01*
X1115962Y616007D01*
X1116257Y616448D01*
X1116360Y616968D01*
X1116257Y617489D01*
X1115962Y617930D01*
X1115521Y618225D01*
X1115000Y618329D01*
D02*
G37*
G36*
X886700Y616960D02*
X886179Y616857D01*
X885738Y616562D01*
X885443Y616121D01*
X885340Y615600D01*
X885443Y615079D01*
X885738Y614638D01*
X886179Y614343D01*
X886700Y614240D01*
X887221Y614343D01*
X887662Y614638D01*
X887957Y615079D01*
X888060Y615600D01*
X887957Y616121D01*
X887662Y616562D01*
X887221Y616857D01*
X886700Y616960D01*
D02*
G37*
G36*
X846250D02*
X845729Y616857D01*
X845288Y616562D01*
X844993Y616121D01*
X844890Y615600D01*
X844993Y615079D01*
X845288Y614638D01*
X845729Y614343D01*
X846250Y614240D01*
X846771Y614343D01*
X847212Y614638D01*
X847507Y615079D01*
X847610Y615600D01*
X847507Y616121D01*
X847212Y616562D01*
X846771Y616857D01*
X846250Y616960D01*
D02*
G37*
G36*
X1127500Y620828D02*
X1126509Y620697D01*
X1125586Y620315D01*
X1124794Y619706D01*
X1124185Y618914D01*
X1123803Y617991D01*
X1123672Y617000D01*
X1123803Y616009D01*
X1124185Y615086D01*
X1124794Y614293D01*
X1125586Y613685D01*
X1126509Y613303D01*
X1127500Y613172D01*
X1128491Y613303D01*
X1129414Y613685D01*
X1130206Y614293D01*
X1130815Y615086D01*
X1131197Y616009D01*
X1131328Y617000D01*
X1131197Y617991D01*
X1130815Y618914D01*
X1130206Y619706D01*
X1129414Y620315D01*
X1128491Y620697D01*
X1127500Y620828D01*
D02*
G37*
G36*
X1015000Y615860D02*
X1014479Y615757D01*
X1014038Y615462D01*
X1013743Y615021D01*
X1013640Y614500D01*
X1013743Y613979D01*
X1014038Y613538D01*
X1014479Y613243D01*
X1015000Y613140D01*
X1015521Y613243D01*
X1015962Y613538D01*
X1016257Y613979D01*
X1016360Y614500D01*
X1016257Y615021D01*
X1015962Y615462D01*
X1015521Y615757D01*
X1015000Y615860D01*
D02*
G37*
G36*
X1078618Y615183D02*
X1078098Y615080D01*
X1077656Y614785D01*
X1077361Y614343D01*
X1077258Y613823D01*
X1077361Y613302D01*
X1077656Y612861D01*
X1078098Y612566D01*
X1078618Y612462D01*
X1079139Y612566D01*
X1079580Y612861D01*
X1079875Y613302D01*
X1079978Y613823D01*
X1079875Y614343D01*
X1079580Y614785D01*
X1079139Y615080D01*
X1078618Y615183D01*
D02*
G37*
G36*
X891267Y613860D02*
X890746Y613757D01*
X890304Y613462D01*
X890010Y613021D01*
X889906Y612500D01*
X890010Y611979D01*
X890304Y611538D01*
X890746Y611243D01*
X891267Y611140D01*
X891787Y611243D01*
X892228Y611538D01*
X892523Y611979D01*
X892627Y612500D01*
X892523Y613021D01*
X892228Y613462D01*
X891787Y613757D01*
X891267Y613860D01*
D02*
G37*
G36*
X841452D02*
X840932Y613757D01*
X840490Y613462D01*
X840195Y613021D01*
X840092Y612500D01*
X840195Y611979D01*
X840490Y611538D01*
X840932Y611243D01*
X841452Y611140D01*
X841973Y611243D01*
X842414Y611538D01*
X842709Y611979D01*
X842813Y612500D01*
X842709Y613021D01*
X842414Y613462D01*
X841973Y613757D01*
X841452Y613860D01*
D02*
G37*
G36*
X891267Y632526D02*
X890746Y632422D01*
X890304Y632127D01*
X890010Y631686D01*
X889906Y631165D01*
X890010Y630645D01*
X890304Y630203D01*
X890746Y629908D01*
X891267Y629805D01*
X891787Y629908D01*
X892228Y630203D01*
X892350Y630385D01*
X892405Y630418D01*
X892448Y630475D01*
X892482Y630507D01*
X892531Y630541D01*
X892599Y630576D01*
X892687Y630610D01*
X892796Y630640D01*
X892920Y630664D01*
X893247Y630696D01*
X893436Y630700D01*
X893473Y630716D01*
X893477D01*
X893515Y630710D01*
X893523Y630716D01*
X967121Y630716D01*
X969100D01*
X989578Y610238D01*
X989332Y609777D01*
X989050Y609833D01*
X988530Y609730D01*
X988088Y609435D01*
X987793Y608993D01*
X987690Y608473D01*
X987793Y607952D01*
X988088Y607511D01*
X988530Y607216D01*
X989050Y607112D01*
X989571Y607216D01*
X990012Y607511D01*
X990307Y607952D01*
X990411Y608473D01*
X990355Y608754D01*
X990815Y609001D01*
X996300Y603516D01*
X996515Y603372D01*
X996769Y603322D01*
X1028789D01*
X1029498Y602612D01*
X1029511Y602576D01*
X1029765Y602301D01*
X1029860Y602183D01*
X1029941Y602069D01*
X1030007Y601962D01*
X1030058Y601863D01*
X1030095Y601773D01*
X1030120Y601693D01*
X1030133Y601623D01*
X1030138Y601536D01*
X1030145Y601520D01*
X1030243Y601027D01*
X1030538Y600586D01*
X1030979Y600291D01*
X1031500Y600187D01*
X1032021Y600291D01*
X1032462Y600586D01*
X1032757Y601027D01*
X1032860Y601547D01*
X1032757Y602068D01*
X1032462Y602509D01*
X1032021Y602804D01*
X1031527Y602903D01*
X1031512Y602910D01*
X1031425Y602915D01*
X1031354Y602928D01*
X1031274Y602952D01*
X1031184Y602989D01*
X1031086Y603040D01*
X1030979Y603106D01*
X1030868Y603185D01*
X1030612Y603400D01*
X1030477Y603531D01*
X1030439Y603545D01*
X1029532Y604453D01*
X1029317Y604597D01*
X1029063Y604647D01*
X997044D01*
X969843Y631847D01*
X969628Y631991D01*
X969375Y632042D01*
X967121D01*
X893330Y632042D01*
X893293Y632058D01*
X893104Y632060D01*
X892937Y632069D01*
X892622Y632104D01*
X892492Y632128D01*
X892370Y632157D01*
X892261Y632190D01*
X892165Y632227D01*
X892082Y632266D01*
X891995Y632317D01*
X891931Y632326D01*
X891787Y632422D01*
X891267Y632526D01*
D02*
G37*
G36*
X1050122Y611754D02*
X1049601Y611651D01*
X1049160Y611356D01*
X1048865Y610914D01*
X1048762Y610394D01*
X1048865Y609873D01*
X1049160Y609432D01*
X1049601Y609137D01*
X1050122Y609033D01*
X1050643Y609137D01*
X1051084Y609432D01*
X1051379Y609873D01*
X1051482Y610394D01*
X1051379Y610914D01*
X1051084Y611356D01*
X1050643Y611651D01*
X1050122Y611754D01*
D02*
G37*
G36*
X886700Y610760D02*
X886179Y610657D01*
X885738Y610362D01*
X885443Y609921D01*
X885340Y609400D01*
X885443Y608879D01*
X885738Y608438D01*
X886179Y608143D01*
X886700Y608040D01*
X887221Y608143D01*
X887662Y608438D01*
X887957Y608879D01*
X888060Y609400D01*
X887957Y609921D01*
X887662Y610362D01*
X887221Y610657D01*
X886700Y610760D01*
D02*
G37*
G36*
X846250D02*
X845729Y610657D01*
X845288Y610362D01*
X844993Y609921D01*
X844890Y609400D01*
X844993Y608879D01*
X845288Y608438D01*
X845729Y608143D01*
X846250Y608040D01*
X846771Y608143D01*
X847212Y608438D01*
X847507Y608879D01*
X847610Y609400D01*
X847507Y609921D01*
X847212Y610362D01*
X846771Y610657D01*
X846250Y610760D01*
D02*
G37*
G36*
X982831Y609786D02*
X982311Y609682D01*
X981870Y609387D01*
X981575Y608946D01*
X981471Y608425D01*
X981575Y607905D01*
X981870Y607463D01*
X982311Y607168D01*
X982831Y607065D01*
X983352Y607168D01*
X983794Y607463D01*
X984088Y607905D01*
X984192Y608425D01*
X984088Y608946D01*
X983794Y609387D01*
X983352Y609682D01*
X982831Y609786D01*
D02*
G37*
G36*
X1067592Y608108D02*
X1067072Y608005D01*
X1066630Y607710D01*
X1066335Y607268D01*
X1066232Y606748D01*
X1066335Y606227D01*
X1066630Y605786D01*
X1067072Y605491D01*
X1067592Y605387D01*
X1068113Y605491D01*
X1068554Y605786D01*
X1068849Y606227D01*
X1068952Y606748D01*
X1068849Y607268D01*
X1068554Y607710D01*
X1068113Y608005D01*
X1067592Y608108D01*
D02*
G37*
G36*
X891267Y607660D02*
X890746Y607557D01*
X890304Y607262D01*
X890010Y606821D01*
X889906Y606300D01*
X890010Y605779D01*
X890304Y605338D01*
X890746Y605043D01*
X891267Y604940D01*
X891787Y605043D01*
X892228Y605338D01*
X892523Y605779D01*
X892627Y606300D01*
X892523Y606821D01*
X892228Y607262D01*
X891787Y607557D01*
X891267Y607660D01*
D02*
G37*
G36*
X841452Y607632D02*
X840932Y607529D01*
X840490Y607234D01*
X840195Y606793D01*
X840092Y606272D01*
X840195Y605752D01*
X840490Y605310D01*
X840932Y605015D01*
X841452Y604912D01*
X841973Y605015D01*
X842414Y605310D01*
X842709Y605752D01*
X842813Y606272D01*
X842709Y606793D01*
X842414Y607234D01*
X841973Y607529D01*
X841452Y607632D01*
D02*
G37*
G36*
X939140Y607342D02*
X938619Y607238D01*
X938178Y606944D01*
X937883Y606502D01*
X937779Y605981D01*
X937883Y605461D01*
X938178Y605020D01*
X938619Y604725D01*
X939140Y604621D01*
X939660Y604725D01*
X940102Y605020D01*
X940397Y605461D01*
X940500Y605981D01*
X940397Y606502D01*
X940102Y606944D01*
X939660Y607238D01*
X939140Y607342D01*
D02*
G37*
G36*
X1121500Y607002D02*
X1120979Y606899D01*
X1120538Y606604D01*
X1120243Y606162D01*
X1120140Y605642D01*
X1120243Y605121D01*
X1120538Y604680D01*
X1120979Y604385D01*
X1121500Y604281D01*
X1122021Y604385D01*
X1122462Y604680D01*
X1122757Y605121D01*
X1122860Y605642D01*
X1122757Y606162D01*
X1122462Y606604D01*
X1122021Y606899D01*
X1121500Y607002D01*
D02*
G37*
G36*
X1033454Y606315D02*
X1032934Y606211D01*
X1032492Y605916D01*
X1032197Y605475D01*
X1032094Y604954D01*
X1032197Y604433D01*
X1032492Y603992D01*
X1032934Y603697D01*
X1033454Y603594D01*
X1033975Y603697D01*
X1034416Y603992D01*
X1034711Y604433D01*
X1034814Y604954D01*
X1034711Y605475D01*
X1034416Y605916D01*
X1033975Y606211D01*
X1033454Y606315D01*
D02*
G37*
G36*
X1054188Y606037D02*
X1053668Y605933D01*
X1053226Y605639D01*
X1052932Y605197D01*
X1052828Y604677D01*
X1052932Y604156D01*
X1053226Y603715D01*
X1053668Y603420D01*
X1054188Y603316D01*
X1054709Y603420D01*
X1055150Y603715D01*
X1055445Y604156D01*
X1055549Y604677D01*
X1055445Y605197D01*
X1055150Y605639D01*
X1054709Y605933D01*
X1054188Y606037D01*
D02*
G37*
G36*
X1077366Y605847D02*
X1076846Y605744D01*
X1076404Y605449D01*
X1076110Y605007D01*
X1076006Y604487D01*
X1076110Y603966D01*
X1076404Y603525D01*
X1076846Y603230D01*
X1077366Y603126D01*
X1077887Y603230D01*
X1078328Y603525D01*
X1078623Y603966D01*
X1078727Y604487D01*
X1078623Y605007D01*
X1078328Y605449D01*
X1077887Y605744D01*
X1077366Y605847D01*
D02*
G37*
G36*
X963415Y605627D02*
X962894Y605524D01*
X962453Y605229D01*
X962158Y604787D01*
X962054Y604267D01*
X962158Y603746D01*
X962453Y603305D01*
X962894Y603010D01*
X963415Y602907D01*
X963935Y603010D01*
X964377Y603305D01*
X964672Y603746D01*
X964775Y604267D01*
X964672Y604787D01*
X964377Y605229D01*
X963935Y605524D01*
X963415Y605627D01*
D02*
G37*
G36*
X886700Y604560D02*
X886179Y604457D01*
X885738Y604162D01*
X885443Y603721D01*
X885340Y603200D01*
X885443Y602679D01*
X885738Y602238D01*
X886179Y601943D01*
X886700Y601840D01*
X887221Y601943D01*
X887662Y602238D01*
X887957Y602679D01*
X888060Y603200D01*
X887957Y603721D01*
X887662Y604162D01*
X887221Y604457D01*
X886700Y604560D01*
D02*
G37*
G36*
X1011500Y602360D02*
X1010979Y602257D01*
X1010538Y601962D01*
X1010243Y601521D01*
X1010140Y601000D01*
X1010243Y600479D01*
X1010538Y600038D01*
X1010979Y599743D01*
X1011500Y599640D01*
X1012021Y599743D01*
X1012462Y600038D01*
X1012757Y600479D01*
X1012860Y601000D01*
X1012757Y601521D01*
X1012462Y601962D01*
X1012021Y602257D01*
X1011500Y602360D01*
D02*
G37*
G36*
X1020595Y599860D02*
X1020074Y599757D01*
X1019633Y599462D01*
X1019338Y599021D01*
X1019301Y598834D01*
X1018791D01*
X1018757Y599005D01*
X1018462Y599446D01*
X1018021Y599741D01*
X1017500Y599845D01*
X1016979Y599741D01*
X1016538Y599446D01*
X1016243Y599005D01*
X1016140Y598484D01*
X1016243Y597964D01*
X1016538Y597522D01*
X1016979Y597227D01*
X1017500Y597124D01*
X1018021Y597227D01*
X1018462Y597522D01*
X1018757Y597964D01*
X1018794Y598150D01*
X1019304D01*
X1019338Y597979D01*
X1019633Y597538D01*
X1020074Y597243D01*
X1020595Y597140D01*
X1021115Y597243D01*
X1021556Y597538D01*
X1021851Y597979D01*
X1021955Y598500D01*
X1021851Y599021D01*
X1021556Y599462D01*
X1021115Y599757D01*
X1020595Y599860D01*
D02*
G37*
G36*
X985161Y601023D02*
X984641Y600920D01*
X984200Y600625D01*
X983905Y600183D01*
X983801Y599663D01*
X983905Y599142D01*
X984200Y598701D01*
X984641Y598406D01*
X985161Y598302D01*
X985682Y598406D01*
X986123Y598701D01*
X986418Y599142D01*
X986522Y599663D01*
X986418Y600183D01*
X986123Y600625D01*
X985682Y600920D01*
X985161Y601023D01*
D02*
G37*
G36*
X1028500Y599860D02*
X1027979Y599757D01*
X1027538Y599462D01*
X1027243Y599021D01*
X1027140Y598500D01*
X1027243Y597979D01*
X1027538Y597538D01*
X1027979Y597243D01*
X1028500Y597140D01*
X1029021Y597243D01*
X1029462Y597538D01*
X1029757Y597979D01*
X1029860Y598500D01*
X1029757Y599021D01*
X1029462Y599462D01*
X1029021Y599757D01*
X1028500Y599860D01*
D02*
G37*
G36*
X1024713D02*
X1024192Y599757D01*
X1023751Y599462D01*
X1023456Y599021D01*
X1023353Y598500D01*
X1023456Y597979D01*
X1023751Y597538D01*
X1024192Y597243D01*
X1024713Y597140D01*
X1025234Y597243D01*
X1025675Y597538D01*
X1025970Y597979D01*
X1026073Y598500D01*
X1025970Y599021D01*
X1025675Y599462D01*
X1025234Y599757D01*
X1024713Y599860D01*
D02*
G37*
G36*
X1120643Y594411D02*
X1120122Y594308D01*
X1119681Y594013D01*
X1119386Y593571D01*
X1119282Y593051D01*
X1119386Y592530D01*
X1119681Y592089D01*
X1120122Y591794D01*
X1120643Y591690D01*
X1121163Y591794D01*
X1121605Y592089D01*
X1121900Y592530D01*
X1122003Y593051D01*
X1121900Y593571D01*
X1121605Y594013D01*
X1121163Y594308D01*
X1120643Y594411D01*
D02*
G37*
G36*
X1111000Y590821D02*
X1110479Y590718D01*
X1110038Y590423D01*
X1109743Y589981D01*
X1109640Y589461D01*
X1109743Y588940D01*
X1110038Y588499D01*
X1110479Y588204D01*
X1111000Y588100D01*
X1111521Y588204D01*
X1111962Y588499D01*
X1112257Y588940D01*
X1112360Y589461D01*
X1112257Y589981D01*
X1111962Y590423D01*
X1111521Y590718D01*
X1111000Y590821D01*
D02*
G37*
G36*
X1049962Y589858D02*
X1049442Y589755D01*
X1049000Y589460D01*
X1048705Y589019D01*
X1048602Y588498D01*
X1048705Y587977D01*
X1049000Y587536D01*
X1049442Y587241D01*
X1049962Y587138D01*
X1050483Y587241D01*
X1050924Y587536D01*
X1051219Y587977D01*
X1051323Y588498D01*
X1051219Y589019D01*
X1050924Y589460D01*
X1050483Y589755D01*
X1049962Y589858D01*
D02*
G37*
G36*
X993770Y588860D02*
X993250Y588757D01*
X992808Y588462D01*
X992513Y588021D01*
X992410Y587500D01*
X992513Y586979D01*
X992808Y586538D01*
X993250Y586243D01*
X993770Y586140D01*
X994291Y586243D01*
X994732Y586538D01*
X995027Y586979D01*
X995131Y587500D01*
X995027Y588021D01*
X994732Y588462D01*
X994291Y588757D01*
X993770Y588860D01*
D02*
G37*
G36*
X1089000Y588124D02*
X1088479Y588021D01*
X1088038Y587726D01*
X1087743Y587284D01*
X1087640Y586764D01*
X1087743Y586243D01*
X1088038Y585802D01*
X1088479Y585507D01*
X1089000Y585403D01*
X1089521Y585507D01*
X1089962Y585802D01*
X1090257Y586243D01*
X1090360Y586764D01*
X1090257Y587284D01*
X1089962Y587726D01*
X1089521Y588021D01*
X1089000Y588124D01*
D02*
G37*
G36*
X999000Y585860D02*
X998479Y585757D01*
X998038Y585462D01*
X997743Y585021D01*
X997640Y584500D01*
X997743Y583979D01*
X998038Y583538D01*
X998479Y583243D01*
X999000Y583140D01*
X999521Y583243D01*
X999962Y583538D01*
X1000257Y583979D01*
X1000360Y584500D01*
X1000257Y585021D01*
X999962Y585462D01*
X999521Y585757D01*
X999000Y585860D01*
D02*
G37*
G36*
X1061000Y584860D02*
X1060479Y584757D01*
X1060038Y584462D01*
X1059743Y584021D01*
X1059640Y583500D01*
X1059743Y582979D01*
X1060038Y582538D01*
X1060479Y582243D01*
X1061000Y582140D01*
X1061521Y582243D01*
X1061962Y582538D01*
X1062257Y582979D01*
X1062360Y583500D01*
X1062257Y584021D01*
X1061962Y584462D01*
X1061521Y584757D01*
X1061000Y584860D01*
D02*
G37*
G36*
X1041224Y578360D02*
X1040704Y578257D01*
X1040263Y577962D01*
X1039968Y577521D01*
X1039864Y577000D01*
X1039968Y576479D01*
X1040263Y576038D01*
X1040704Y575743D01*
X1041224Y575640D01*
X1041745Y575743D01*
X1042186Y576038D01*
X1042481Y576479D01*
X1042585Y577000D01*
X1042481Y577521D01*
X1042186Y577962D01*
X1041745Y578257D01*
X1041224Y578360D01*
D02*
G37*
G36*
X1036421D02*
X1035901Y578257D01*
X1035459Y577962D01*
X1035164Y577521D01*
X1035061Y577000D01*
X1035164Y576479D01*
X1035459Y576038D01*
X1035901Y575743D01*
X1036421Y575640D01*
X1036942Y575743D01*
X1037383Y576038D01*
X1037678Y576479D01*
X1037782Y577000D01*
X1037678Y577521D01*
X1037383Y577962D01*
X1036942Y578257D01*
X1036421Y578360D01*
D02*
G37*
G36*
X939976D02*
X939456Y578257D01*
X939014Y577962D01*
X938719Y577521D01*
X938616Y577000D01*
X938719Y576479D01*
X939014Y576038D01*
X939456Y575743D01*
X939976Y575640D01*
X940497Y575743D01*
X940938Y576038D01*
X941233Y576479D01*
X941337Y577000D01*
X941233Y577521D01*
X940938Y577962D01*
X940497Y578257D01*
X939976Y578360D01*
D02*
G37*
G36*
X891500Y575498D02*
X890979Y575395D01*
X890538Y575100D01*
X890243Y574658D01*
X890140Y574138D01*
X890243Y573617D01*
X890538Y573176D01*
X890979Y572881D01*
X891500Y572777D01*
X892021Y572881D01*
X892462Y573176D01*
X892757Y573617D01*
X892860Y574138D01*
X892757Y574658D01*
X892462Y575100D01*
X892021Y575395D01*
X891500Y575498D01*
D02*
G37*
G36*
X1032780Y572360D02*
X1032259Y572257D01*
X1031818Y571962D01*
X1031523Y571521D01*
X1031419Y571000D01*
X1031523Y570479D01*
X1031818Y570038D01*
X1032259Y569743D01*
X1032780Y569640D01*
X1033300Y569743D01*
X1033741Y570038D01*
X1034036Y570479D01*
X1034140Y571000D01*
X1034036Y571521D01*
X1033741Y571962D01*
X1033300Y572257D01*
X1032780Y572360D01*
D02*
G37*
G36*
X1022843D02*
X1022322Y572257D01*
X1021881Y571962D01*
X1021586Y571521D01*
X1021482Y571000D01*
X1021586Y570479D01*
X1021881Y570038D01*
X1022322Y569743D01*
X1022843Y569640D01*
X1023363Y569743D01*
X1023804Y570038D01*
X1024099Y570479D01*
X1024203Y571000D01*
X1024099Y571521D01*
X1023804Y571962D01*
X1023363Y572257D01*
X1022843Y572360D01*
D02*
G37*
G36*
X1016158D02*
X1015637Y572257D01*
X1015195Y571962D01*
X1014901Y571521D01*
X1014797Y571000D01*
X1014901Y570479D01*
X1015195Y570038D01*
X1015637Y569743D01*
X1016158Y569640D01*
X1016678Y569743D01*
X1017119Y570038D01*
X1017414Y570479D01*
X1017518Y571000D01*
X1017414Y571521D01*
X1017119Y571962D01*
X1016678Y572257D01*
X1016158Y572360D01*
D02*
G37*
G36*
X987842D02*
X987322Y572257D01*
X986881Y571962D01*
X986586Y571521D01*
X986482Y571000D01*
X986586Y570479D01*
X986881Y570038D01*
X987322Y569743D01*
X987842Y569640D01*
X988363Y569743D01*
X988805Y570038D01*
X989099Y570479D01*
X989203Y571000D01*
X989099Y571521D01*
X988805Y571962D01*
X988363Y572257D01*
X987842Y572360D01*
D02*
G37*
G36*
X965343D02*
X964822Y572257D01*
X964381Y571962D01*
X964086Y571521D01*
X963982Y571000D01*
X964086Y570479D01*
X964381Y570038D01*
X964822Y569743D01*
X965343Y569640D01*
X965863Y569743D01*
X966304Y570038D01*
X966599Y570479D01*
X966703Y571000D01*
X966599Y571521D01*
X966304Y571962D01*
X965863Y572257D01*
X965343Y572360D01*
D02*
G37*
G36*
X936728Y572333D02*
X936208Y572229D01*
X935766Y571934D01*
X935472Y571493D01*
X935368Y570972D01*
X935472Y570452D01*
X935766Y570011D01*
X936208Y569716D01*
X936728Y569612D01*
X937249Y569716D01*
X937690Y570011D01*
X937985Y570452D01*
X938089Y570972D01*
X937985Y571493D01*
X937690Y571934D01*
X937249Y572229D01*
X936728Y572333D01*
D02*
G37*
G36*
X1041174Y572310D02*
X1040653Y572206D01*
X1040212Y571911D01*
X1039917Y571470D01*
X1039813Y570949D01*
X1039917Y570429D01*
X1040212Y569987D01*
X1040653Y569692D01*
X1041174Y569589D01*
X1041694Y569692D01*
X1042136Y569987D01*
X1042430Y570429D01*
X1042534Y570949D01*
X1042430Y571470D01*
X1042136Y571911D01*
X1041694Y572206D01*
X1041174Y572310D01*
D02*
G37*
G36*
X891500Y566223D02*
X890979Y566119D01*
X890538Y565824D01*
X890243Y565383D01*
X890140Y564862D01*
X890243Y564342D01*
X890538Y563900D01*
X890979Y563605D01*
X891500Y563502D01*
X892021Y563605D01*
X892462Y563900D01*
X892757Y564342D01*
X892860Y564862D01*
X892757Y565383D01*
X892462Y565824D01*
X892021Y566119D01*
X891500Y566223D01*
D02*
G37*
G36*
X876500Y571052D02*
X875509Y570922D01*
X874586Y570539D01*
X873793Y569931D01*
X873185Y569138D01*
X872803Y568215D01*
X872672Y567224D01*
X872803Y566234D01*
X873185Y565311D01*
X873793Y564518D01*
X874586Y563910D01*
X875509Y563527D01*
X876500Y563397D01*
X877491Y563527D01*
X878414Y563910D01*
X879206Y564518D01*
X879815Y565311D01*
X880197Y566234D01*
X880328Y567224D01*
X880197Y568215D01*
X879815Y569138D01*
X879206Y569931D01*
X878414Y570539D01*
X877491Y570922D01*
X876500Y571052D01*
D02*
G37*
G36*
X862500D02*
X861509Y570922D01*
X860586Y570539D01*
X859793Y569931D01*
X859185Y569138D01*
X858803Y568215D01*
X858672Y567224D01*
X858803Y566234D01*
X859185Y565311D01*
X859793Y564518D01*
X860586Y563910D01*
X861509Y563527D01*
X862500Y563397D01*
X863491Y563527D01*
X864414Y563910D01*
X865207Y564518D01*
X865815Y565311D01*
X866197Y566234D01*
X866328Y567224D01*
X866197Y568215D01*
X865815Y569138D01*
X865207Y569931D01*
X864414Y570539D01*
X863491Y570922D01*
X862500Y571052D01*
D02*
G37*
G36*
X992862Y565360D02*
X992342Y565257D01*
X991900Y564962D01*
X991605Y564521D01*
X991502Y564000D01*
X991605Y563479D01*
X991900Y563038D01*
X992342Y562743D01*
X992862Y562640D01*
X993383Y562743D01*
X993824Y563038D01*
X994119Y563479D01*
X994223Y564000D01*
X994119Y564521D01*
X993824Y564962D01*
X993383Y565257D01*
X992862Y565360D01*
D02*
G37*
G36*
X929500Y590645D02*
X928979Y590541D01*
X928538Y590246D01*
X928243Y589805D01*
X928151Y589342D01*
X928140Y589323D01*
X928137Y589303D01*
X928134Y589294D01*
X928113Y589251D01*
X928072Y589185D01*
X928018Y589109D01*
X927587Y588617D01*
X927442Y588469D01*
X927430Y588440D01*
X897857Y558867D01*
X819061D01*
X819032Y558879D01*
X818819Y558881D01*
X818457Y558895D01*
X818178Y558923D01*
X818079Y558940D01*
X818004Y558957D01*
X817959Y558972D01*
X817950Y558977D01*
X817934Y558989D01*
X817913Y558995D01*
X817521Y559257D01*
X817000Y559360D01*
X816479Y559257D01*
X816038Y558962D01*
X815743Y558521D01*
X815640Y558000D01*
X815743Y557479D01*
X816038Y557038D01*
X816479Y556743D01*
X817000Y556640D01*
X817521Y556743D01*
X817913Y557005D01*
X817934Y557011D01*
X817950Y557023D01*
X817959Y557028D01*
X818004Y557043D01*
X818079Y557060D01*
X818171Y557076D01*
X818824Y557119D01*
X819032Y557121D01*
X819061Y557133D01*
X898216D01*
X898547Y557199D01*
X898829Y557387D01*
X928656Y587214D01*
X928685Y587226D01*
X928836Y587375D01*
X929103Y587621D01*
X929320Y587799D01*
X929401Y587857D01*
X929467Y587897D01*
X929509Y587919D01*
X929519Y587922D01*
X929539Y587924D01*
X929558Y587935D01*
X930021Y588027D01*
X930462Y588322D01*
X930757Y588764D01*
X930860Y589284D01*
X930757Y589805D01*
X930462Y590246D01*
X930021Y590541D01*
X929500Y590645D01*
D02*
G37*
G36*
X1002500Y560860D02*
X1001979Y560757D01*
X1001538Y560462D01*
X1001243Y560021D01*
X1001140Y559500D01*
X1001243Y558979D01*
X1001538Y558538D01*
X1001979Y558243D01*
X1002500Y558140D01*
X1003021Y558243D01*
X1003462Y558538D01*
X1003757Y558979D01*
X1003860Y559500D01*
X1003757Y560021D01*
X1003462Y560462D01*
X1003021Y560757D01*
X1002500Y560860D01*
D02*
G37*
G36*
X953665Y556000D02*
X953145Y555896D01*
X952703Y555601D01*
X952409Y555160D01*
X952305Y554639D01*
X952409Y554119D01*
X952703Y553677D01*
X953145Y553382D01*
X953665Y553279D01*
X954186Y553382D01*
X954627Y553677D01*
X954922Y554119D01*
X955026Y554639D01*
X954922Y555160D01*
X954627Y555601D01*
X954186Y555896D01*
X953665Y556000D01*
D02*
G37*
G36*
X936427Y590645D02*
X935907Y590541D01*
X935466Y590246D01*
X935171Y589805D01*
X935079Y589342D01*
X935067Y589323D01*
X935065Y589303D01*
X935062Y589294D01*
X935041Y589251D01*
X935000Y589185D01*
X934946Y589109D01*
X934515Y588617D01*
X934369Y588469D01*
X934357Y588440D01*
X897284Y551367D01*
X802922D01*
X800393Y553896D01*
X800381Y553925D01*
X800232Y554076D01*
X799986Y554343D01*
X799808Y554560D01*
X799750Y554641D01*
X799710Y554707D01*
X799688Y554749D01*
X799685Y554759D01*
X799683Y554779D01*
X799672Y554798D01*
X799580Y555261D01*
X799285Y555702D01*
X798843Y555997D01*
X798323Y556101D01*
X797802Y555997D01*
X797361Y555702D01*
X797066Y555261D01*
X796962Y554740D01*
X797066Y554220D01*
X797361Y553778D01*
X797802Y553483D01*
X798265Y553391D01*
X798284Y553380D01*
X798304Y553378D01*
X798314Y553374D01*
X798356Y553353D01*
X798422Y553313D01*
X798498Y553259D01*
X798990Y552827D01*
X799138Y552682D01*
X799167Y552670D01*
X801950Y549887D01*
X802231Y549699D01*
X802563Y549633D01*
X897643D01*
X897975Y549699D01*
X898256Y549887D01*
X935583Y587214D01*
X935612Y587226D01*
X935764Y587375D01*
X936030Y587621D01*
X936248Y587799D01*
X936329Y587857D01*
X936395Y587897D01*
X936437Y587919D01*
X936446Y587922D01*
X936466Y587924D01*
X936485Y587935D01*
X936948Y588027D01*
X937389Y588322D01*
X937684Y588764D01*
X937788Y589284D01*
X937684Y589805D01*
X937389Y590246D01*
X936948Y590541D01*
X936427Y590645D01*
D02*
G37*
G36*
X1021500Y553860D02*
X1020979Y553757D01*
X1020538Y553462D01*
X1020243Y553021D01*
X1020140Y552500D01*
X1020243Y551979D01*
X1020538Y551538D01*
X1020979Y551243D01*
X1021500Y551140D01*
X1022021Y551243D01*
X1022462Y551538D01*
X1022757Y551979D01*
X1022860Y552500D01*
X1022757Y553021D01*
X1022462Y553462D01*
X1022021Y553757D01*
X1021500Y553860D01*
D02*
G37*
G36*
X964584Y550360D02*
X964063Y550257D01*
X963622Y549962D01*
X963327Y549521D01*
X963223Y549000D01*
X963327Y548479D01*
X963622Y548038D01*
X964063Y547743D01*
X964584Y547640D01*
X965104Y547743D01*
X965546Y548038D01*
X965841Y548479D01*
X965944Y549000D01*
X965841Y549521D01*
X965546Y549962D01*
X965104Y550257D01*
X964584Y550360D01*
D02*
G37*
G36*
X960752Y545557D02*
X960231Y545454D01*
X959790Y545159D01*
X959495Y544718D01*
X959392Y544197D01*
X959495Y543676D01*
X959790Y543235D01*
X960231Y542940D01*
X960752Y542837D01*
X961273Y542940D01*
X961714Y543235D01*
X962009Y543676D01*
X962112Y544197D01*
X962009Y544718D01*
X961714Y545159D01*
X961273Y545454D01*
X960752Y545557D01*
D02*
G37*
G36*
X814406Y548362D02*
X813569Y548252D01*
X812790Y547929D01*
X812120Y547415D01*
X811607Y546746D01*
X811284Y545966D01*
X811174Y545130D01*
X811284Y544293D01*
X811607Y543514D01*
X812120Y542845D01*
X812790Y542331D01*
X813569Y542008D01*
X814406Y541898D01*
X815242Y542008D01*
X816022Y542331D01*
X816691Y542845D01*
X817204Y543514D01*
X817527Y544293D01*
X817638Y545130D01*
X817527Y545966D01*
X817204Y546746D01*
X816691Y547415D01*
X816022Y547929D01*
X815242Y548252D01*
X814406Y548362D01*
D02*
G37*
G36*
X794721D02*
X793884Y548252D01*
X793105Y547929D01*
X792435Y547415D01*
X791922Y546746D01*
X791599Y545966D01*
X791489Y545130D01*
X791599Y544293D01*
X791922Y543514D01*
X792435Y542845D01*
X793105Y542331D01*
X793884Y542008D01*
X794721Y541898D01*
X795557Y542008D01*
X796337Y542331D01*
X797006Y542845D01*
X797519Y543514D01*
X797842Y544293D01*
X797953Y545130D01*
X797842Y545966D01*
X797519Y546746D01*
X797006Y547415D01*
X796337Y547929D01*
X795557Y548252D01*
X794721Y548362D01*
D02*
G37*
G36*
X841500Y542860D02*
X840979Y542757D01*
X840538Y542462D01*
X840243Y542021D01*
X840140Y541500D01*
X840243Y540979D01*
X840538Y540538D01*
X840979Y540243D01*
X841500Y540140D01*
X842021Y540243D01*
X842462Y540538D01*
X842757Y540979D01*
X842860Y541500D01*
X842757Y542021D01*
X842462Y542462D01*
X842021Y542757D01*
X841500Y542860D01*
D02*
G37*
G36*
X1112409Y564301D02*
X1110501Y564151D01*
X1108640Y563704D01*
X1106871Y562971D01*
X1105239Y561971D01*
X1103784Y560728D01*
X1102541Y559272D01*
X1101540Y557640D01*
X1100808Y555872D01*
X1100361Y554011D01*
X1100211Y552102D01*
X1100361Y550194D01*
X1100808Y548333D01*
X1101540Y546564D01*
X1102541Y544932D01*
X1103784Y543477D01*
X1105239Y542234D01*
X1106871Y541233D01*
X1108640Y540501D01*
X1110501Y540054D01*
X1112409Y539904D01*
X1114318Y540054D01*
X1116179Y540501D01*
X1117947Y541233D01*
X1119580Y542234D01*
X1121035Y543477D01*
X1122278Y544932D01*
X1123279Y546564D01*
X1124011Y548333D01*
X1124458Y550194D01*
X1124608Y552102D01*
X1124458Y554011D01*
X1124011Y555872D01*
X1123279Y557640D01*
X1122278Y559272D01*
X1121035Y560728D01*
X1119580Y561971D01*
X1117947Y562971D01*
X1116179Y563704D01*
X1114318Y564151D01*
X1112409Y564301D01*
D02*
G37*
G36*
X769890D02*
X767981Y564151D01*
X766120Y563704D01*
X764352Y562971D01*
X762720Y561971D01*
X761264Y560728D01*
X760021Y559272D01*
X759021Y557640D01*
X758288Y555872D01*
X757841Y554011D01*
X757691Y552102D01*
X757841Y550194D01*
X758288Y548333D01*
X759021Y546564D01*
X760021Y544932D01*
X761264Y543477D01*
X762720Y542234D01*
X764352Y541233D01*
X766120Y540501D01*
X767981Y540054D01*
X769890Y539904D01*
X771798Y540054D01*
X773659Y540501D01*
X775428Y541233D01*
X777060Y542234D01*
X778515Y543477D01*
X779759Y544932D01*
X780759Y546564D01*
X781491Y548333D01*
X781938Y550194D01*
X782088Y552102D01*
X781938Y554011D01*
X781491Y555872D01*
X780759Y557640D01*
X779759Y559272D01*
X778515Y560728D01*
X777060Y561971D01*
X775428Y562971D01*
X773659Y563704D01*
X771798Y564151D01*
X769890Y564301D01*
D02*
G37*
G36*
X876500Y544828D02*
X875509Y544697D01*
X874586Y544315D01*
X873793Y543707D01*
X873185Y542914D01*
X872803Y541991D01*
X872672Y541000D01*
X872803Y540009D01*
X873185Y539086D01*
X873793Y538294D01*
X874586Y537685D01*
X875509Y537303D01*
X876500Y537172D01*
X877491Y537303D01*
X878414Y537685D01*
X879206Y538294D01*
X879815Y539086D01*
X880197Y540009D01*
X880328Y541000D01*
X880197Y541991D01*
X879815Y542914D01*
X879206Y543707D01*
X878414Y544315D01*
X877491Y544697D01*
X876500Y544828D01*
D02*
G37*
G36*
X862500D02*
X861509Y544697D01*
X860586Y544315D01*
X859793Y543707D01*
X859185Y542914D01*
X858803Y541991D01*
X858672Y541000D01*
X858803Y540009D01*
X859185Y539086D01*
X859793Y538294D01*
X860586Y537685D01*
X861509Y537303D01*
X862500Y537172D01*
X863491Y537303D01*
X864414Y537685D01*
X865207Y538294D01*
X865815Y539086D01*
X866197Y540009D01*
X866328Y541000D01*
X866197Y541991D01*
X865815Y542914D01*
X865207Y543707D01*
X864414Y544315D01*
X863491Y544697D01*
X862500Y544828D01*
D02*
G37*
G36*
X988000Y538860D02*
X987479Y538757D01*
X987038Y538462D01*
X986743Y538021D01*
X986640Y537500D01*
X986743Y536979D01*
X987038Y536538D01*
X987479Y536243D01*
X988000Y536140D01*
X988521Y536243D01*
X988962Y536538D01*
X989257Y536979D01*
X989360Y537500D01*
X989257Y538021D01*
X988962Y538462D01*
X988521Y538757D01*
X988000Y538860D01*
D02*
G37*
G36*
X818933Y538632D02*
X815390D01*
X814562Y538467D01*
X813860Y537998D01*
X813391Y537296D01*
X813227Y536469D01*
Y532531D01*
X813391Y531704D01*
X813860Y531002D01*
X814562Y530533D01*
X815390Y530368D01*
X818933D01*
X819761Y530533D01*
X820463Y531002D01*
X820932Y531704D01*
X820964Y531866D01*
X821187Y531959D01*
X821795Y532425D01*
X822262Y533033D01*
X822555Y533741D01*
X822655Y534500D01*
X822555Y535259D01*
X822262Y535967D01*
X821795Y536575D01*
X821187Y537041D01*
X820964Y537134D01*
X820932Y537296D01*
X820463Y537998D01*
X819761Y538467D01*
X818933Y538632D01*
D02*
G37*
G36*
X793736D02*
X790193D01*
X789365Y538467D01*
X788663Y537998D01*
X788194Y537296D01*
X788162Y537134D01*
X787938Y537041D01*
X787331Y536575D01*
X786865Y535967D01*
X786571Y535259D01*
X786471Y534500D01*
X786571Y533741D01*
X786865Y533033D01*
X787331Y532425D01*
X787938Y531959D01*
X788162Y531866D01*
X788194Y531704D01*
X788663Y531002D01*
X789365Y530533D01*
X790193Y530368D01*
X793736D01*
X794564Y530533D01*
X795266Y531002D01*
X795735Y531704D01*
X795899Y532531D01*
Y536469D01*
X795735Y537296D01*
X795266Y537998D01*
X794564Y538467D01*
X793736Y538632D01*
D02*
G37*
%LPD*%
G36*
X932466Y873595D02*
X931908Y873578D01*
X931363Y873516D01*
X930830Y873410D01*
X930310Y873259D01*
X929801Y873064D01*
X929305Y872823D01*
X928820Y872538D01*
X928348Y872208D01*
X927888Y871833D01*
X927440Y871414D01*
X926875Y871980D01*
X927294Y872427D01*
X927669Y872888D01*
X927999Y873360D01*
X928284Y873844D01*
X928524Y874340D01*
X928720Y874849D01*
X928871Y875370D01*
X928977Y875903D01*
X929039Y876448D01*
X929055Y877005D01*
X932466Y873595D01*
D02*
G37*
G36*
X961903Y671370D02*
X961946Y670835D01*
X961972Y670689D01*
X962004Y670559D01*
X962042Y670446D01*
X962085Y670349D01*
X962134Y670268D01*
X962189Y670203D01*
X960811D01*
X960866Y670268D01*
X960915Y670349D01*
X960958Y670446D01*
X960996Y670559D01*
X961028Y670689D01*
X961054Y670835D01*
X961088Y671175D01*
X961097Y671370D01*
X961100Y671580D01*
X961900D01*
X961903Y671370D01*
D02*
G37*
G36*
X1110559Y872256D02*
X1110476Y872330D01*
X1110380Y872396D01*
X1110271Y872454D01*
X1110149Y872505D01*
X1110014Y872548D01*
X1109866Y872583D01*
X1109705Y872610D01*
X1109531Y872630D01*
X1109143Y872645D01*
Y873245D01*
X1109343Y873249D01*
X1109705Y873280D01*
X1109866Y873307D01*
X1110014Y873342D01*
X1110149Y873385D01*
X1110271Y873436D01*
X1110380Y873494D01*
X1110476Y873560D01*
X1110559Y873634D01*
Y872256D01*
D02*
G37*
G36*
X1032123Y855230D02*
X1031985Y855086D01*
X1031751Y854808D01*
X1031656Y854675D01*
X1031576Y854545D01*
X1031511Y854420D01*
X1031461Y854298D01*
X1031425Y854179D01*
X1031404Y854065D01*
X1031398Y853954D01*
X1030423Y854928D01*
X1030534Y854935D01*
X1030649Y854956D01*
X1030767Y854992D01*
X1030889Y855042D01*
X1031015Y855107D01*
X1031144Y855187D01*
X1031277Y855282D01*
X1031414Y855391D01*
X1031699Y855655D01*
X1032123Y855230D01*
D02*
G37*
G36*
X1110559Y867256D02*
X1110476Y867330D01*
X1110380Y867396D01*
X1110271Y867455D01*
X1110149Y867505D01*
X1110014Y867548D01*
X1109866Y867583D01*
X1109705Y867610D01*
X1109531Y867630D01*
X1109143Y867645D01*
Y868245D01*
X1109343Y868249D01*
X1109705Y868280D01*
X1109866Y868307D01*
X1110014Y868342D01*
X1110149Y868385D01*
X1110271Y868436D01*
X1110380Y868494D01*
X1110476Y868560D01*
X1110559Y868634D01*
Y867256D01*
D02*
G37*
G36*
X1028967Y847286D02*
X1028828Y847141D01*
X1028594Y846864D01*
X1028500Y846731D01*
X1028420Y846601D01*
X1028354Y846475D01*
X1028304Y846353D01*
X1028268Y846235D01*
X1028247Y846121D01*
X1028241Y846010D01*
X1027267Y846984D01*
X1027377Y846990D01*
X1027492Y847011D01*
X1027610Y847047D01*
X1027732Y847098D01*
X1027858Y847163D01*
X1027987Y847243D01*
X1028121Y847338D01*
X1028258Y847447D01*
X1028543Y847710D01*
X1028967Y847286D01*
D02*
G37*
G36*
X1007100Y863960D02*
X1007037Y863860D01*
X1006982Y863747D01*
X1006933Y863622D01*
X1006893Y863484D01*
X1006859Y863334D01*
X1006833Y863172D01*
X1006815Y862997D01*
X1006800Y862611D01*
X1006200Y862573D01*
X1006196Y862774D01*
X1006164Y863136D01*
X1006135Y863296D01*
X1006099Y863442D01*
X1006054Y863574D01*
X1006002Y863693D01*
X1005941Y863797D01*
X1005872Y863888D01*
X1005795Y863966D01*
X1007171Y864048D01*
X1007100Y863960D01*
D02*
G37*
G36*
X1049864Y716915D02*
X1049725Y716771D01*
X1049491Y716493D01*
X1049397Y716360D01*
X1049317Y716230D01*
X1049251Y716105D01*
X1049201Y715983D01*
X1049165Y715864D01*
X1049144Y715750D01*
X1049138Y715639D01*
X1048163Y716613D01*
X1048274Y716620D01*
X1048389Y716641D01*
X1048507Y716676D01*
X1048629Y716727D01*
X1048755Y716792D01*
X1048884Y716872D01*
X1049017Y716967D01*
X1049154Y717076D01*
X1049439Y717339D01*
X1049864Y716915D01*
D02*
G37*
G36*
X1060028Y817217D02*
X1059979Y817136D01*
X1059935Y817038D01*
X1059898Y816925D01*
X1059866Y816795D01*
X1059840Y816650D01*
X1059805Y816309D01*
X1059797Y816115D01*
X1059794Y815904D01*
X1058994D01*
X1058991Y816115D01*
X1058947Y816650D01*
X1058922Y816795D01*
X1058890Y816925D01*
X1058852Y817038D01*
X1058809Y817136D01*
X1058760Y817217D01*
X1058705Y817281D01*
X1060083D01*
X1060028Y817217D01*
D02*
G37*
G36*
X1077932Y683634D02*
X1078013Y683585D01*
X1078110Y683542D01*
X1078224Y683504D01*
X1078353Y683472D01*
X1078499Y683446D01*
X1078839Y683412D01*
X1079034Y683403D01*
X1079245Y683400D01*
Y682600D01*
X1079034Y682597D01*
X1078499Y682554D01*
X1078353Y682528D01*
X1078224Y682496D01*
X1078110Y682458D01*
X1078013Y682415D01*
X1077932Y682366D01*
X1077867Y682311D01*
Y683689D01*
X1077932Y683634D01*
D02*
G37*
G36*
X875490Y731379D02*
X875511Y731265D01*
X875547Y731147D01*
X875598Y731025D01*
X875663Y730899D01*
X875743Y730769D01*
X875838Y730636D01*
X875947Y730499D01*
X876210Y730214D01*
X875786Y729790D01*
X875642Y729929D01*
X875364Y730162D01*
X875231Y730257D01*
X875101Y730337D01*
X874975Y730402D01*
X874853Y730453D01*
X874735Y730488D01*
X874621Y730510D01*
X874510Y730516D01*
X875484Y731490D01*
X875490Y731379D01*
D02*
G37*
G36*
X921366Y684800D02*
X921644Y684566D01*
X921777Y684471D01*
X921907Y684391D01*
X922032Y684326D01*
X922154Y684276D01*
X922273Y684240D01*
X922387Y684219D01*
X922498Y684212D01*
X921524Y683238D01*
X921517Y683349D01*
X921496Y683463D01*
X921461Y683582D01*
X921410Y683704D01*
X921345Y683829D01*
X921265Y683959D01*
X921170Y684092D01*
X921061Y684229D01*
X920798Y684514D01*
X921222Y684938D01*
X921366Y684800D01*
D02*
G37*
G36*
X788286Y744053D02*
X788381Y743987D01*
X788490Y743928D01*
X788612Y743878D01*
X788747Y743835D01*
X788896Y743800D01*
X789057Y743773D01*
X789231Y743753D01*
X789618Y743738D01*
Y743138D01*
X789418Y743134D01*
X789057Y743103D01*
X788896Y743076D01*
X788747Y743041D01*
X788612Y742998D01*
X788490Y742947D01*
X788381Y742889D01*
X788286Y742823D01*
X788203Y742749D01*
Y744127D01*
X788286Y744053D01*
D02*
G37*
G36*
X932926Y681196D02*
X933203Y680963D01*
X933337Y680868D01*
X933466Y680788D01*
X933592Y680723D01*
X933714Y680672D01*
X933832Y680637D01*
X933947Y680616D01*
X934057Y680609D01*
X933083Y679635D01*
X933077Y679746D01*
X933056Y679860D01*
X933020Y679978D01*
X932969Y680100D01*
X932904Y680226D01*
X932824Y680356D01*
X932730Y680489D01*
X932620Y680626D01*
X932357Y680911D01*
X932781Y681335D01*
X932926Y681196D01*
D02*
G37*
G36*
X1038985Y702392D02*
X1038919Y702296D01*
X1038861Y702187D01*
X1038810Y702065D01*
X1038767Y701930D01*
X1038732Y701782D01*
X1038705Y701621D01*
X1038686Y701447D01*
X1038670Y701059D01*
X1038070D01*
X1038066Y701259D01*
X1038035Y701621D01*
X1038008Y701782D01*
X1037973Y701930D01*
X1037930Y702065D01*
X1037880Y702187D01*
X1037821Y702296D01*
X1037755Y702392D01*
X1037681Y702475D01*
X1039059D01*
X1038985Y702392D01*
D02*
G37*
G36*
X1042929Y702214D02*
X1042863Y702118D01*
X1042804Y702010D01*
X1042754Y701888D01*
X1042711Y701753D01*
X1042676Y701605D01*
X1042649Y701443D01*
X1042629Y701269D01*
X1042614Y700881D01*
X1042014D01*
X1042010Y701082D01*
X1041979Y701443D01*
X1041951Y701605D01*
X1041916Y701753D01*
X1041873Y701888D01*
X1041823Y702010D01*
X1041765Y702118D01*
X1041698Y702214D01*
X1041625Y702297D01*
X1043003D01*
X1042929Y702214D01*
D02*
G37*
G36*
X1030898Y677781D02*
X1030758Y677634D01*
X1030527Y677356D01*
X1030436Y677223D01*
X1030361Y677095D01*
X1030302Y676971D01*
X1030260Y676852D01*
X1030235Y676737D01*
X1030225Y676626D01*
X1030232Y676520D01*
X1029136Y677356D01*
X1029249Y677376D01*
X1029366Y677410D01*
X1029486Y677456D01*
X1029608Y677515D01*
X1029735Y677588D01*
X1029864Y677673D01*
X1029996Y677772D01*
X1030271Y678007D01*
X1030414Y678145D01*
X1030898Y677781D01*
D02*
G37*
G36*
X1027249Y676074D02*
X1027254Y675966D01*
X1027275Y675853D01*
X1027314Y675735D01*
X1027370Y675613D01*
X1027443Y675485D01*
X1027532Y675353D01*
X1027639Y675216D01*
X1027763Y675074D01*
X1027903Y674928D01*
X1027392Y674590D01*
X1027251Y674726D01*
X1026978Y674963D01*
X1026846Y675063D01*
X1026592Y675226D01*
X1026469Y675289D01*
X1026349Y675340D01*
X1026233Y675379D01*
X1026120Y675406D01*
X1027261Y676178D01*
X1027249Y676074D01*
D02*
G37*
G36*
X946149Y873598D02*
X945578Y873552D01*
X945022Y873466D01*
X944480Y873339D01*
X943952Y873170D01*
X943439Y872961D01*
X942940Y872711D01*
X942456Y872421D01*
X941986Y872089D01*
X941530Y871716D01*
X941089Y871303D01*
X940493Y871838D01*
X940917Y872292D01*
X941293Y872755D01*
X941621Y873229D01*
X941901Y873712D01*
X942132Y874205D01*
X942314Y874709D01*
X942449Y875222D01*
X942535Y875745D01*
X942573Y876278D01*
X942562Y876821D01*
X946149Y873598D01*
D02*
G37*
G36*
X964902Y679077D02*
X964939Y678539D01*
X964960Y678397D01*
X964987Y678272D01*
X965018Y678167D01*
X965054Y678080D01*
X965095Y678011D01*
X965141Y677960D01*
X963859D01*
X963905Y678011D01*
X963946Y678080D01*
X963982Y678167D01*
X964013Y678272D01*
X964040Y678397D01*
X964062Y678539D01*
X964090Y678879D01*
X964100Y679293D01*
X964900D01*
X964902Y679077D01*
D02*
G37*
G36*
X776615Y822714D02*
X776549Y822618D01*
X776491Y822510D01*
X776440Y822388D01*
X776397Y822253D01*
X776362Y822104D01*
X776335Y821943D01*
X776316Y821769D01*
X776300Y821381D01*
X775700D01*
X775696Y821582D01*
X775665Y821943D01*
X775638Y822104D01*
X775603Y822253D01*
X775560Y822388D01*
X775509Y822510D01*
X775451Y822618D01*
X775385Y822714D01*
X775311Y822797D01*
X776689D01*
X776615Y822714D01*
D02*
G37*
G36*
X782786Y832871D02*
X782881Y832805D01*
X782990Y832747D01*
X783112Y832696D01*
X783247Y832653D01*
X783395Y832618D01*
X783557Y832591D01*
X783731Y832572D01*
X784119Y832556D01*
Y831956D01*
X783918Y831952D01*
X783557Y831921D01*
X783395Y831894D01*
X783247Y831859D01*
X783112Y831816D01*
X782990Y831765D01*
X782881Y831707D01*
X782786Y831641D01*
X782703Y831567D01*
Y832945D01*
X782786Y832871D01*
D02*
G37*
G36*
X1112491Y827905D02*
X1112514Y827814D01*
X1112552Y827714D01*
X1112605Y827607D01*
X1112675Y827493D01*
X1112759Y827372D01*
X1112976Y827106D01*
X1113107Y826963D01*
X1113254Y826812D01*
X1112688Y826246D01*
X1112537Y826393D01*
X1112128Y826741D01*
X1112007Y826825D01*
X1111893Y826895D01*
X1111786Y826948D01*
X1111687Y826986D01*
X1111594Y827009D01*
X1111510Y827016D01*
X1112484Y827990D01*
X1112491Y827905D01*
D02*
G37*
G36*
X946134Y764461D02*
X946085Y764380D01*
X946042Y764283D01*
X946004Y764169D01*
X945972Y764040D01*
X945946Y763894D01*
X945912Y763553D01*
X945903Y763359D01*
X945900Y763148D01*
X945100D01*
X945097Y763359D01*
X945054Y763894D01*
X945028Y764040D01*
X944996Y764169D01*
X944958Y764283D01*
X944915Y764380D01*
X944866Y764461D01*
X944811Y764526D01*
X946189D01*
X946134Y764461D01*
D02*
G37*
G36*
X1098268Y650398D02*
X1098349Y650349D01*
X1098446Y650305D01*
X1098559Y650268D01*
X1098689Y650236D01*
X1098835Y650210D01*
X1099175Y650175D01*
X1099370Y650167D01*
X1099580Y650164D01*
Y649364D01*
X1099370Y649361D01*
X1098835Y649318D01*
X1098689Y649292D01*
X1098559Y649260D01*
X1098446Y649222D01*
X1098349Y649179D01*
X1098268Y649130D01*
X1098203Y649075D01*
Y650453D01*
X1098268Y650398D01*
D02*
G37*
G36*
X1096797Y649075D02*
X1096732Y649130D01*
X1096651Y649179D01*
X1096554Y649222D01*
X1096441Y649260D01*
X1096311Y649292D01*
X1096165Y649318D01*
X1095825Y649352D01*
X1095630Y649361D01*
X1095420Y649364D01*
Y650164D01*
X1095630Y650167D01*
X1096165Y650210D01*
X1096311Y650236D01*
X1096441Y650268D01*
X1096554Y650305D01*
X1096651Y650349D01*
X1096732Y650398D01*
X1096797Y650453D01*
Y649075D01*
D02*
G37*
G36*
X1048568Y643497D02*
X1048977Y643149D01*
X1049098Y643064D01*
X1049212Y642995D01*
X1049319Y642942D01*
X1049419Y642903D01*
X1049511Y642881D01*
X1049595Y642874D01*
X1048621Y641900D01*
X1048614Y641984D01*
X1048591Y642076D01*
X1048553Y642176D01*
X1048500Y642282D01*
X1048431Y642396D01*
X1048346Y642518D01*
X1048130Y642783D01*
X1047998Y642927D01*
X1047851Y643078D01*
X1048417Y643644D01*
X1048568Y643497D01*
D02*
G37*
G36*
X1050373Y642524D02*
X1050454Y642475D01*
X1050551Y642431D01*
X1050664Y642394D01*
X1050794Y642362D01*
X1050940Y642336D01*
X1051280Y642301D01*
X1051475Y642293D01*
X1051686Y642290D01*
Y641490D01*
X1051475Y641487D01*
X1050940Y641443D01*
X1050794Y641418D01*
X1050664Y641386D01*
X1050551Y641348D01*
X1050454Y641305D01*
X1050373Y641256D01*
X1050308Y641201D01*
Y642579D01*
X1050373Y642524D01*
D02*
G37*
G36*
X1112491Y832905D02*
X1112514Y832813D01*
X1112552Y832714D01*
X1112605Y832607D01*
X1112675Y832493D01*
X1112759Y832372D01*
X1112976Y832106D01*
X1113107Y831963D01*
X1113254Y831812D01*
X1112688Y831246D01*
X1112537Y831393D01*
X1112128Y831741D01*
X1112007Y831825D01*
X1111893Y831895D01*
X1111786Y831948D01*
X1111687Y831986D01*
X1111594Y832009D01*
X1111510Y832016D01*
X1112484Y832990D01*
X1112491Y832905D01*
D02*
G37*
G36*
X936477Y743577D02*
X936493Y743486D01*
X936525Y743387D01*
X936573Y743281D01*
X936638Y743167D01*
X936720Y743046D01*
X936817Y742917D01*
X937062Y742636D01*
X937209Y742484D01*
X936579Y741983D01*
X936429Y742130D01*
X936022Y742483D01*
X935901Y742571D01*
X935788Y742644D01*
X935682Y742703D01*
X935583Y742747D01*
X935492Y742777D01*
X935408Y742792D01*
X936478Y743660D01*
X936477Y743577D01*
D02*
G37*
G36*
X1118909Y654129D02*
X1118934Y653900D01*
X1118976Y653677D01*
X1119036Y653462D01*
X1119112Y653254D01*
X1119205Y653052D01*
X1119316Y652858D01*
X1119443Y652671D01*
X1119587Y652490D01*
X1119748Y652317D01*
X1119349Y651586D01*
X1119179Y651739D01*
X1119009Y651857D01*
X1118839Y651942D01*
X1118670Y651993D01*
X1118500Y652010D01*
X1118330Y651993D01*
X1118161Y651942D01*
X1117991Y651857D01*
X1117821Y651739D01*
X1117651Y651586D01*
X1117251Y652317D01*
X1117413Y652490D01*
X1117557Y652671D01*
X1117684Y652858D01*
X1117795Y653052D01*
X1117888Y653254D01*
X1117964Y653462D01*
X1118024Y653677D01*
X1118066Y653900D01*
X1118091Y654129D01*
X1118100Y654366D01*
X1118900D01*
X1118909Y654129D01*
D02*
G37*
G36*
X1122888Y649206D02*
X1123348Y648831D01*
X1123820Y648501D01*
X1124305Y648216D01*
X1124801Y647976D01*
X1125310Y647780D01*
X1125830Y647629D01*
X1126363Y647523D01*
X1126908Y647461D01*
X1127466Y647445D01*
X1124055Y644034D01*
X1124039Y644592D01*
X1123977Y645137D01*
X1123871Y645670D01*
X1123720Y646190D01*
X1123524Y646699D01*
X1123284Y647195D01*
X1122999Y647680D01*
X1122669Y648152D01*
X1122294Y648612D01*
X1121875Y649060D01*
X1122440Y649625D01*
X1122888Y649206D01*
D02*
G37*
G36*
X1098797Y641311D02*
X1098732Y641366D01*
X1098651Y641415D01*
X1098554Y641458D01*
X1098441Y641496D01*
X1098311Y641528D01*
X1098165Y641554D01*
X1097825Y641588D01*
X1097630Y641597D01*
X1097420Y641600D01*
X1097420Y642400D01*
X1097630Y642403D01*
X1098165Y642446D01*
X1098311Y642472D01*
X1098441Y642504D01*
X1098554Y642542D01*
X1098651Y642585D01*
X1098732Y642634D01*
X1098797Y642689D01*
X1098797Y641311D01*
D02*
G37*
G36*
X1100348Y642524D02*
X1100421Y642470D01*
X1100511Y642421D01*
X1100619Y642380D01*
X1100745Y642344D01*
X1100887Y642315D01*
X1101047Y642293D01*
X1101418Y642267D01*
X1101629Y642264D01*
X1101507Y641464D01*
X1101296Y641462D01*
X1100759Y641425D01*
X1100610Y641403D01*
X1100360Y641345D01*
X1100258Y641308D01*
X1100172Y641267D01*
X1100101Y641221D01*
X1100291Y642585D01*
X1100348Y642524D01*
D02*
G37*
G36*
X1046768Y638634D02*
X1046849Y638585D01*
X1046946Y638542D01*
X1047059Y638504D01*
X1047189Y638472D01*
X1047335Y638446D01*
X1047675Y638412D01*
X1047870Y638403D01*
X1048080Y638400D01*
Y637600D01*
X1047870Y637597D01*
X1047335Y637554D01*
X1047189Y637528D01*
X1047059Y637496D01*
X1046946Y637458D01*
X1046849Y637415D01*
X1046768Y637366D01*
X1046703Y637311D01*
Y638689D01*
X1046768Y638634D01*
D02*
G37*
G36*
X1045297Y637311D02*
X1045232Y637366D01*
X1045151Y637415D01*
X1045054Y637458D01*
X1044941Y637496D01*
X1044811Y637528D01*
X1044665Y637554D01*
X1044325Y637588D01*
X1044130Y637597D01*
X1043920Y637600D01*
Y638400D01*
X1044130Y638403D01*
X1044665Y638446D01*
X1044811Y638472D01*
X1044941Y638504D01*
X1045054Y638542D01*
X1045151Y638585D01*
X1045232Y638634D01*
X1045297Y638689D01*
Y637311D01*
D02*
G37*
G36*
X882047Y710634D02*
X882128Y710585D01*
X882225Y710542D01*
X882339Y710504D01*
X882468Y710472D01*
X882614Y710446D01*
X882955Y710412D01*
X883149Y710403D01*
X883360Y710400D01*
Y709600D01*
X883149Y709597D01*
X882614Y709554D01*
X882468Y709528D01*
X882339Y709496D01*
X882225Y709458D01*
X882128Y709415D01*
X882047Y709366D01*
X881982Y709311D01*
Y710689D01*
X882047Y710634D01*
D02*
G37*
G36*
X934467Y636169D02*
X934470Y635959D01*
X934507Y635421D01*
X934530Y635273D01*
X934558Y635141D01*
X934590Y635024D01*
X934628Y634922D01*
X934671Y634837D01*
X934718Y634766D01*
X933350Y634929D01*
X933410Y634986D01*
X933464Y635061D01*
X933512Y635153D01*
X933553Y635261D01*
X933588Y635387D01*
X933616Y635530D01*
X933639Y635690D01*
X933664Y636062D01*
X933667Y636273D01*
X934467Y636169D01*
D02*
G37*
G36*
X905491Y893043D02*
X905514Y892951D01*
X905552Y892852D01*
X905605Y892745D01*
X905675Y892631D01*
X905759Y892509D01*
X905976Y892244D01*
X906107Y892101D01*
X906254Y891950D01*
X905688Y891384D01*
X905537Y891531D01*
X905128Y891878D01*
X905007Y891963D01*
X904893Y892032D01*
X904786Y892086D01*
X904687Y892124D01*
X904595Y892147D01*
X904510Y892154D01*
X905484Y893128D01*
X905491Y893043D01*
D02*
G37*
G36*
X1038155Y632415D02*
X1038435Y632175D01*
X1038562Y632082D01*
X1038679Y632008D01*
X1038789Y631952D01*
X1038889Y631915D01*
X1038980Y631897D01*
X1039063Y631897D01*
X1039137Y631915D01*
X1038555Y630725D01*
X1038535Y630775D01*
X1038500Y630836D01*
X1038450Y630909D01*
X1038385Y630994D01*
X1038102Y631319D01*
X1037684Y631750D01*
X1038002Y632563D01*
X1038155Y632415D01*
D02*
G37*
G36*
X797256Y592577D02*
X797752Y592120D01*
X798282Y591717D01*
X798845Y591367D01*
X799441Y591072D01*
X800070Y590830D01*
X800733Y590642D01*
X801428Y590508D01*
X802157Y590427D01*
X802919Y590400D01*
X802853Y589600D01*
X802125Y589575D01*
X801414Y589501D01*
X800719Y589376D01*
X800039Y589202D01*
X799376Y588978D01*
X798729Y588705D01*
X798098Y588381D01*
X797483Y588008D01*
X796885Y587586D01*
X796302Y587113D01*
X796793Y593087D01*
X797256Y592577D01*
D02*
G37*
G36*
X936555Y619699D02*
X936499Y619725D01*
X936424Y619748D01*
X936332Y619769D01*
X936222Y619787D01*
X935949Y619814D01*
X935604Y619831D01*
X935189Y619836D01*
X934884Y620636D01*
X935097Y620640D01*
X935465Y620667D01*
X935621Y620691D01*
X935758Y620722D01*
X935876Y620760D01*
X935975Y620804D01*
X936055Y620856D01*
X936117Y620914D01*
X936159Y620979D01*
X936555Y619699D01*
D02*
G37*
G36*
X793403Y554740D02*
X793446Y554205D01*
X793472Y554059D01*
X793504Y553929D01*
X793542Y553816D01*
X793585Y553719D01*
X793634Y553638D01*
X793689Y553573D01*
X792311D01*
X792366Y553638D01*
X792415Y553719D01*
X792458Y553816D01*
X792496Y553929D01*
X792528Y554059D01*
X792554Y554205D01*
X792588Y554545D01*
X792597Y554740D01*
X792600Y554951D01*
X793400D01*
X793403Y554740D01*
D02*
G37*
G36*
X891904Y631931D02*
X892016Y631878D01*
X892138Y631831D01*
X892270Y631791D01*
X892414Y631757D01*
X892567Y631729D01*
X892906Y631691D01*
X893091Y631682D01*
X893287Y631679D01*
X893428Y631079D01*
X893225Y631074D01*
X892865Y631040D01*
X892709Y631009D01*
X892568Y630970D01*
X892444Y630923D01*
X892335Y630866D01*
X892241Y630801D01*
X892164Y630727D01*
X892102Y630645D01*
X891803Y631990D01*
X891904Y631931D01*
D02*
G37*
G36*
X1030359Y603119D02*
X1030636Y602885D01*
X1030769Y602790D01*
X1030899Y602710D01*
X1031025Y602645D01*
X1031147Y602595D01*
X1031265Y602559D01*
X1031379Y602538D01*
X1031490Y602532D01*
X1030516Y601557D01*
X1030509Y601668D01*
X1030488Y601783D01*
X1030453Y601901D01*
X1030402Y602023D01*
X1030337Y602149D01*
X1030257Y602278D01*
X1030162Y602411D01*
X1030053Y602548D01*
X1029790Y602833D01*
X1030214Y603258D01*
X1030359Y603119D01*
D02*
G37*
G36*
X929490Y588300D02*
X929432Y588293D01*
X929363Y588269D01*
X929283Y588229D01*
X929192Y588173D01*
X929090Y588100D01*
X928854Y587907D01*
X928575Y587649D01*
X928419Y587496D01*
X927712Y588203D01*
X927865Y588359D01*
X928316Y588874D01*
X928388Y588976D01*
X928444Y589067D01*
X928485Y589147D01*
X928508Y589216D01*
X928516Y589274D01*
X929490Y588300D01*
D02*
G37*
G36*
X817750Y558653D02*
X817815Y558621D01*
X817900Y558593D01*
X818004Y558568D01*
X818127Y558547D01*
X818430Y558517D01*
X818810Y558502D01*
X819029Y558500D01*
Y557500D01*
X818810Y557498D01*
X818127Y557453D01*
X818004Y557432D01*
X817900Y557407D01*
X817815Y557379D01*
X817750Y557347D01*
X817703Y557311D01*
Y558689D01*
X817750Y558653D01*
D02*
G37*
G36*
X936418Y588300D02*
X936359Y588293D01*
X936290Y588269D01*
X936210Y588229D01*
X936119Y588173D01*
X936018Y588100D01*
X935782Y587907D01*
X935502Y587649D01*
X935346Y587496D01*
X934639Y588203D01*
X934793Y588359D01*
X935244Y588874D01*
X935316Y588976D01*
X935372Y589067D01*
X935412Y589147D01*
X935436Y589216D01*
X935443Y589274D01*
X936418Y588300D01*
D02*
G37*
G36*
X799315Y554672D02*
X799338Y554603D01*
X799378Y554523D01*
X799434Y554432D01*
X799507Y554330D01*
X799700Y554094D01*
X799958Y553815D01*
X800111Y553659D01*
X799404Y552952D01*
X799248Y553105D01*
X798733Y553556D01*
X798631Y553629D01*
X798540Y553685D01*
X798460Y553725D01*
X798391Y553748D01*
X798333Y553756D01*
X799307Y554730D01*
X799315Y554672D01*
D02*
G37*
D18*
X802563Y550500D02*
X897643D01*
X936427Y589284D01*
X898216Y558000D02*
X929500Y589284D01*
X817000Y558000D02*
X898216D01*
X798323Y554740D02*
X802563Y550500D01*
X936427Y589284D02*
Y589284D01*
D73*
X1092827Y733500D02*
D03*
X1087000Y728453D02*
D03*
X921035Y868730D02*
D03*
X906000Y798976D02*
D03*
X1095889Y783117D02*
D03*
X1099673Y719890D02*
D03*
X1087850Y714000D02*
D03*
X1081173Y733500D02*
D03*
X999000Y588646D02*
D03*
X958755Y659606D02*
D03*
X934067Y679625D02*
D03*
X1039716Y725871D02*
D03*
X1038370Y703177D02*
D03*
X1027637Y584335D02*
D03*
X922508Y683228D02*
D03*
X1049605Y641890D02*
D03*
X961500Y669500D02*
D03*
X936427Y589284D02*
D03*
X933951Y634150D02*
D03*
X964500Y677213D02*
D03*
X1046000Y638000D02*
D03*
X1077164Y683000D02*
D03*
X1048153Y715629D02*
D03*
X935004Y627054D02*
D03*
X929500Y589284D02*
D03*
X1042314Y703000D02*
D03*
X951500Y678500D02*
D03*
X937046Y620552D02*
D03*
X1031500Y601547D02*
D03*
X1066921Y618268D02*
D03*
X981630Y760370D02*
D03*
X1012720Y587500D02*
D03*
X950441Y661500D02*
D03*
X1039500Y631000D02*
D03*
X948696Y640053D02*
D03*
X1069500Y686935D02*
D03*
X926039Y666217D02*
D03*
X1064490Y655539D02*
D03*
X1030413Y853944D02*
D03*
X1027257Y846000D02*
D03*
X935500Y765228D02*
D03*
Y743772D02*
D03*
X945500Y765228D02*
D03*
X1061841Y728500D02*
D03*
X1057257Y789257D02*
D03*
X1059500Y743657D02*
D03*
X981630Y766979D02*
D03*
X1026296Y676374D02*
D03*
X1029258Y676379D02*
D03*
X995310Y783384D02*
D03*
X1085129Y808417D02*
D03*
X1097500Y649764D02*
D03*
X905587Y544142D02*
D03*
X941413D02*
D03*
X992622Y873000D02*
D03*
X1111343Y887906D02*
D03*
X1111500Y828000D02*
D03*
X1111261Y872945D02*
D03*
X1059394Y817984D02*
D03*
X1111500Y833000D02*
D03*
X1111261Y867945D02*
D03*
X1042445Y887906D02*
D03*
X828862Y545633D02*
D03*
X882461Y611861D02*
D03*
X903477Y607491D02*
D03*
X908524Y638937D02*
D03*
X877539Y643500D02*
D03*
X960752Y559364D02*
D03*
X846250Y603200D02*
D03*
X923768Y593000D02*
D03*
X776000Y823500D02*
D03*
X782000Y832256D02*
D03*
X915268Y658843D02*
D03*
X1099500Y642000D02*
D03*
X787500Y743438D02*
D03*
X847000Y757500D02*
D03*
X841500Y757512D02*
D03*
X861169Y754000D02*
D03*
X860972Y746488D02*
D03*
X846250Y683800D02*
D03*
X891267Y631165D02*
D03*
Y649700D02*
D03*
Y668300D02*
D03*
X915268Y670500D02*
D03*
X855461Y649700D02*
D03*
X877539Y659000D02*
D03*
X908524Y629095D02*
D03*
X846250Y677600D02*
D03*
X841452Y643500D02*
D03*
X846250Y659065D02*
D03*
X858488Y731500D02*
D03*
X874500D02*
D03*
X967000Y748158D02*
D03*
X858488Y726500D02*
D03*
X817000Y558000D02*
D03*
X803000Y730138D02*
D03*
X819732Y749000D02*
D03*
X864500Y889461D02*
D03*
X793000Y552870D02*
D03*
X809681Y545130D02*
D03*
X881279Y710000D02*
D03*
X1006441Y864709D02*
D03*
X999500Y870122D02*
D03*
X999008Y878575D02*
D03*
X966615Y725802D02*
D03*
X915268Y647342D02*
D03*
X931114Y645138D02*
D03*
X1028158Y571000D02*
D03*
X1010843D02*
D03*
X993157D02*
D03*
X970658D02*
D03*
X1082063Y673437D02*
D03*
X1024075Y886055D02*
D03*
X1024980Y866382D02*
D03*
X1011559Y864709D02*
D03*
X755500Y835850D02*
D03*
X752000Y811638D02*
D03*
X768000Y817079D02*
D03*
X781000Y782657D02*
D03*
X793500Y788335D02*
D03*
X806315Y822918D02*
D03*
X805452Y811697D02*
D03*
X822952Y826091D02*
D03*
X784452Y842394D02*
D03*
X794199Y842110D02*
D03*
X844000Y764638D02*
D03*
X809303Y794500D02*
D03*
X815000Y786000D02*
D03*
Y780500D02*
D03*
X833500Y752157D02*
D03*
X882047Y848047D02*
D03*
Y853953D02*
D03*
X860492Y833638D02*
D03*
X871000Y862811D02*
D03*
X866213Y876500D02*
D03*
X904768Y906402D02*
D03*
X898500Y898539D02*
D03*
X904500Y893138D02*
D03*
X914000Y897862D02*
D03*
X1096260Y581941D02*
D03*
X1089000Y581843D02*
D03*
X887953Y848047D02*
D03*
Y854084D02*
D03*
X909396Y893103D02*
D03*
X1078700Y619239D02*
D03*
X981500Y797546D02*
D03*
X1080907Y634437D02*
D03*
X891378Y879494D02*
D03*
X777122Y742917D02*
D03*
X762060Y743881D02*
D03*
X1049354Y804720D02*
D03*
X934661Y577000D02*
D03*
X861957Y762000D02*
D03*
X1060587Y783642D02*
D03*
X914000Y893138D02*
D03*
X1054992Y544762D02*
D03*
X1090819D02*
D03*
X1023672Y785453D02*
D03*
X1010658D02*
D03*
X1030413Y783642D02*
D03*
X1062850Y714024D02*
D03*
X1069138Y723000D02*
D03*
X798323Y554740D02*
D03*
X798103Y562577D02*
D03*
X813000D02*
D03*
D80*
X1030413Y853944D02*
X1049414Y872945D01*
X1049202Y867945D02*
X1111261D01*
X1027257Y846000D02*
X1049202Y867945D01*
X1049414Y872945D02*
X1111261D01*
X1048153Y715629D02*
X1055462Y722938D01*
X1006500Y830500D02*
X1055462Y781538D01*
Y722938D02*
Y781538D01*
X969375Y631379D02*
X996769Y603984D01*
X967121Y631379D02*
X969375D01*
X996769Y603984D02*
X1029063D01*
X910257Y695479D02*
Y695743D01*
X922508Y683228D02*
X922508D01*
X910257Y695479D02*
X922508Y683228D01*
X911272Y667228D02*
X925004D01*
X789500Y693500D02*
X885000D01*
X911272Y667228D01*
X1029063Y603984D02*
X1031500Y601547D01*
X1006500Y830500D02*
Y864709D01*
X891267Y631379D02*
X967121Y631379D01*
X869500Y750000D02*
Y798500D01*
Y750000D02*
X958592Y660908D01*
Y659770D02*
X958755Y659606D01*
X958592Y659770D02*
Y660908D01*
X870254Y743438D02*
X934067Y679625D01*
X787500Y743438D02*
X870254D01*
X874500Y731500D02*
X910257Y695743D01*
X768500Y714500D02*
X789500Y693500D01*
X782000Y832256D02*
X835744D01*
X869500Y798500D01*
X926015Y666217D02*
X926039D01*
X925004Y667228D02*
X926015Y666217D01*
X768500Y714500D02*
Y769000D01*
X776000Y776500D02*
Y823500D01*
X768500Y769000D02*
X776000Y776500D01*
X1042314Y686204D02*
Y703000D01*
X1030204Y674095D02*
X1042314Y686204D01*
X1038370Y685677D02*
Y703177D01*
X1029258Y676565D02*
X1038370Y685677D01*
X1026296Y676110D02*
X1028312Y674095D01*
X1026296Y676110D02*
Y676374D01*
X1028312Y674095D02*
X1030204D01*
X1029258Y676379D02*
Y676565D01*
D130*
X1018000Y673495D02*
Y675794D01*
X988743Y698000D02*
X995794D01*
X1018000Y675794D01*
X945500Y741243D02*
Y765228D01*
Y741243D02*
X988743Y698000D01*
X926224Y711654D02*
Y870763D01*
X932500Y877039D01*
X926224Y711654D02*
X961500Y676378D01*
X930500Y713296D02*
X964500Y679296D01*
X930500Y861279D02*
X946000Y876779D01*
X930500Y713296D02*
Y861279D01*
X881279Y710000D02*
X887742D01*
X934067Y634266D02*
Y663675D01*
X887742Y710000D02*
X934067Y663675D01*
X917500Y713000D02*
Y873852D01*
X951500Y678500D02*
Y678816D01*
X951005Y679311D02*
X951500Y678816D01*
X951005Y679311D02*
Y679494D01*
X917500Y713000D02*
X951005Y679494D01*
X904500Y893138D02*
X913000Y884638D01*
Y711500D02*
X961000Y663500D01*
X913000Y711500D02*
Y884638D01*
X1099636Y641864D02*
X1107364D01*
X1118500Y653000D01*
Y826000D01*
X1059394Y811106D02*
X1096250Y774250D01*
X1086500Y683000D02*
X1096250Y692750D01*
Y774250D01*
X1071096Y638000D02*
X1075096Y642000D01*
X1099500D01*
X1099636Y641864D01*
X1118500Y653000D02*
X1127500Y644000D01*
X1111500Y828000D02*
X1115000Y824500D01*
X1101264Y649764D02*
X1115000Y663500D01*
Y824500D01*
X1018000Y673495D02*
X1049605Y641890D01*
X935500Y743628D02*
X1041128Y638000D01*
X935500Y743628D02*
Y743772D01*
X919000Y875352D02*
Y877000D01*
X917500Y873852D02*
X919000Y875352D01*
X1041128Y638000D02*
X1046000D01*
X1097500Y649764D02*
X1101264D01*
X1111500Y833000D02*
X1118500Y826000D01*
X1070035Y649764D02*
X1097500D01*
X1006500Y663500D02*
X1039000Y631000D01*
X961000Y663500D02*
X1006500D01*
X964500Y677213D02*
Y679296D01*
X946000Y876779D02*
Y877039D01*
X913616Y897478D02*
X913616Y897478D01*
X914000Y897862D02*
X914000D01*
X1049605Y641890D02*
X1062161D01*
X1070035Y649764D01*
X793000Y552870D02*
Y566500D01*
X811500Y585000D01*
X885000D01*
X900000Y600000D01*
X883500Y590000D02*
X896500Y603000D01*
X793500Y590350D02*
X793850Y590000D01*
X883500D01*
X1077164Y683000D02*
X1086500D01*
X1046000Y638000D02*
X1071096D01*
X1039000Y631000D02*
X1039500D01*
X900000Y600000D02*
Y616991D01*
X896500Y603000D02*
Y618100D01*
X904400Y626000D01*
X933951Y634150D02*
X934067Y634266D01*
X961500Y669500D02*
Y676378D01*
X935001Y627054D02*
X935004D01*
X933947Y626000D02*
X935001Y627054D01*
X904400Y626000D02*
X933947D01*
X1059394Y811106D02*
Y817984D01*
X936730Y620236D02*
X937046Y620552D01*
X903245Y620236D02*
X936730D01*
X900000Y616991D02*
X903245Y620236D01*
D137*
X919000Y877000D02*
D03*
X932500Y877039D02*
D03*
X946000D02*
D03*
X1127500Y644000D02*
D03*
X759000Y753500D02*
D03*
D139*
X1073744Y852000D02*
D03*
X1068232D02*
D03*
X1073744Y857512D02*
D03*
X1068232D02*
D03*
X1073744Y863024D02*
D03*
X1068232D02*
D03*
X1076500Y854756D02*
D03*
X1070988D02*
D03*
X1065476D02*
D03*
X1076500Y860268D02*
D03*
X1065476D02*
D03*
X1070988D02*
D03*
X785350Y822000D02*
D03*
X788500Y825150D02*
D03*
X791650Y822000D02*
D03*
X788500Y818850D02*
D03*
Y822000D02*
D03*
D140*
X793500Y590350D02*
D03*
Y669091D02*
D03*
D141*
X890661Y912220D02*
D03*
X865465D02*
D03*
X924784D02*
D03*
X949980D02*
D03*
D142*
X868221Y901591D02*
D03*
X887906D02*
D03*
X947224D02*
D03*
X927539D02*
D03*
D144*
X803799Y870500D02*
D03*
D145*
X780000Y753594D02*
D03*
M02*
